/* XPM */
static char *collect[] = {
/* columns rows colors chars-per-pixel */
"48 48 233 2",
"   c #3E3E3E",
".  c #46433E",
"X  c #48453E",
"o  c #544D3F",
"O  c #59513F",
"+  c #60563E",
"@  c #665A3F",
"#  c #444343",
"$  c #484641",
"%  c #4C4A45",
"&  c #4D4D4C",
"*  c #524D43",
"=  c #504F4F",
"-  c #575245",
";  c #52514E",
":  c #5A5241",
">  c #525252",
",  c #585652",
"<  c #5F5A50",
"1  c #5B5B5B",
"2  c #5D6655",
"3  c #5D6158",
"4  c #665A41",
"5  c #655E4D",
"6  c #635D51",
"7  c #6B614D",
"8  c #6B6D4E",
"9  c #676253",
"0  c #65625B",
"q  c #6D6553",
"w  c #69655C",
"e  c #756440",
"r  c #716448",
"t  c #76694E",
"y  c #786741",
"u  c #7C6942",
"i  c #7E6F4D",
"p  c #716954",
"a  c #786C53",
"s  c #70724E",
"d  c #7A7055",
"f  c #7B7259",
"g  c #797856",
"h  c #7D7958",
"j  c #01B301",
"k  c #09B609",
"l  c #0CB80C",
"z  c #1CA61C",
"x  c #12B512",
"c  c #12BB12",
"v  c #1ABA1A",
"b  c #22A722",
"n  c #28A928",
"m  c #2BBC2B",
"M  c #30A930",
"N  c #3AAC38",
"B  c #3ABC3A",
"V  c #0DCF0D",
"C  c #13CF13",
"Z  c #1DD11C",
"A  c #26D226",
"S  c #28D328",
"D  c #36C836",
"F  c #3CC83B",
"G  c #37D437",
"H  c #3CD53B",
"J  c #4BAE4B",
"K  c #47B744",
"L  c #4DB04C",
"P  c #54AC4E",
"I  c #55B254",
"U  c #50BF50",
"Y  c #7A805B",
"T  c #68B85B",
"R  c #63B263",
"E  c #6CB160",
"W  c #75BE6D",
"Q  c #72B572",
"!  c #74B974",
"~  c #7EB175",
"^  c #46CE46",
"/  c #4CC54B",
"(  c #4FDB4D",
")  c #56D456",
"_  c #57DC52",
"`  c #69C269",
"'  c #65DF65",
"]  c #6ED46E",
"[  c #72DE71",
"{  c #7BD171",
"}  c #7DD47D",
"|  c #816D43",
" . c #867146",
".. c #85724A",
"X. c #8A764A",
"o. c #8C794C",
"O. c #827453",
"+. c #847956",
"@. c #8B7A53",
"#. c #937D4C",
"$. c #957F51",
"%. c #838058",
"&. c #8D8055",
"*. c #8B8158",
"=. c #97804D",
"-. c #9A824E",
";. c #938255",
":. c #94845C",
">. c #9D8551",
",. c #888260",
"<. c #829365",
"1. c #978660",
"2. c #918E66",
"3. c #988A63",
"4. c #919066",
"5. c #97906B",
"6. c #9F9366",
"7. c #979372",
"8. c #9B9677",
"9. c #85AF78",
"0. c #88AC75",
"q. c #89B278",
"w. c #98A476",
"e. c #A38A53",
"r. c #A38E5A",
"t. c #A98F55",
"y. c #AC9256",
"u. c #AB9259",
"i. c #B19659",
"p. c #B5995A",
"a. c #B99D5C",
"s. c #A79463",
"d. c #A39369",
"f. c #A69C6A",
"g. c #A49F74",
"h. c #A89F72",
"j. c #B39C64",
"k. c #B89F61",
"l. c #B19D70",
"z. c #BEA15E",
"x. c #A3A179",
"c. c #AAA073",
"v. c #AEA975",
"b. c #ADAE7B",
"n. c #AEB27E",
"m. c #BFA666",
"M. c #BCA56A",
"N. c #B5A47C",
"B. c #BEAE71",
"V. c #B4B17C",
"C. c #B9B47D",
"Z. c #C0A35F",
"A. c #C2A562",
"S. c #C5A865",
"D. c #C3AA6E",
"F. c #CBAB64",
"G. c #C6AC70",
"H. c #C9AF72",
"J. c #CEB06B",
"K. c #C4BB7B",
"L. c #CCBB7A",
"P. c #D0AF66",
"I. c #D1B066",
"U. c #D4B673",
"Y. c #D0BB7E",
"T. c #8CBA85",
"R. c #95B48E",
"E. c #A9AC83",
"W. c #ABAF96",
"Q. c #A4B383",
"!. c #B2B385",
"~. c #B0BFA5",
"^. c #83C082",
"/. c #8FC68B",
"(. c #8CC884",
"). c #8CDB81",
"_. c #91E890",
"`. c #A2C69D",
"'. c #A3CA96",
"]. c #AAC495",
"[. c #ABDB93",
"{. c #B3C38F",
"}. c #B0C393",
"|. c #B3C79A",
" X c #B2CB94",
".X c #B3D39D",
"XX c #BAD499",
"oX c #ABCDA0",
"OX c #AECEAB",
"+X c #BCCDA5",
"@X c #BBDAA3",
"#X c #AEE8AE",
"$X c #BEE0A7",
"%X c #BFEDAD",
"&X c #C1B58C",
"*X c #CDB982",
"=X c #CDBB8E",
"-X c #C1B69F",
";X c #D4BE86",
":X c #C5BBA4",
">X c #C2C08D",
",X c #CDC487",
"<X c #CCC58B",
"1X c #CFC888",
"2X c #C7C59F",
"3X c #C2CE91",
"4X c #C4D799",
"5X c #C3DA9C",
"6X c #CBD49B",
"7X c #D4C58C",
"8X c #CACDAE",
"9X c #C1D6A6",
"0X c #D5CBB3",
"qX c #DDD5A8",
"wX c #DBD1B6",
"eX c #DDD4BE",
"rX c #DFDBB7",
"tX c #C3E1A4",
"yX c #C4E4AA",
"uX c #CEE3A4",
"iX c #C8E6A9",
"pX c #C2EBB1",
"aX c #E0D4AE",
"sX c #C5D2C4",
"dX c #C9EDC1",
"fX c #CDECCD",
"gX c #D0F0CF",
"hX c #E5DBC3",
"jX c #E2DBC8",
"kX c #EADFC3",
"lX c #EBE1C6",
"zX c #EDE9DD",
"xX c #EAF0DE",
/* pixels */
"& & & & & & & & & & & & & & & & & & & & & & & & & & = & & & & & & & & & & & & = & & & & & & & & ",
"& & & > > & & & > = & = > & = & = > & & = = & = & & > = & = & & = = = & = = = > = > & & = = & & ",
"> > > 1 > 1 & & > > > > > > 1 > > > & & > > > > > > 1 > 1 > & = > > 1 > > > > 1 1 1 & & & > > > ",
"1 1 1 1 1 1 & > 1 , 1 1 1 1 1 1 1 1 & = 1 1 1 1 1 1 1 1 1 > & > > 1 1 1 > 1 1 1 1 1 & > 1 1 1 1 ",
"1 1 1 1 1 1 & > 1 1 1 1 1 1 1 1 1 1 & > 1 1 1 1 1 1 1 1 1 1 & > > 1 1 1 1 1 1 1 1 1 & = 1 1 1 1 ",
"1 1 1 1 1 1 & > 1 1 1 1 1 1 1 1 1 1 & = 1 1 1 1 1 1 1 1 1 1 = > 1 1 1 1 1 1 1 1 1 1 & = 1 1 1 1 ",
"& & & & & & & & & & & & & & & & & & & & & & & & = & & & & & & & & & & & & & & & & & & & & & & & ",
"& & > & > & > > > > & = & & & & > > & & > = = > & & > & > > = = & = = > & & > = & = = = & > & = ",
"& & > > 1 1 > > > , > > & & > & > > > 1 1 > > 1 & > > > > > 1 > > 1 > 1 & = > > 1 1 > 1 > 1 > > ",
"& & 1 1 1 1 1 1 1 1 1 1 & > 1 1 1 1 1 1 > 1 1 3 & = 1 > 1 1 1 1 6 1 1 1 & > > 1 1 1 1 1 1 1 1 > ",
"& > 1 1 1 1 1 1 1 1 1 1 & = 1 1 1 1 1 1 1 1 3 2 & > 1 1 1 1 1 1 1 1 1 1 & > 1 1 1 1 1 1 1 1 1 1 ",
"& > 1 1 1 1 1 1 1 1 1 1 & 1 1 1 1 1 1 1 1 1 1 2 & > 1 1 1 1 1 1 1 1 1 1 & > 1 1 1 1 1 1 1 1 1 1 ",
"& & & & & & & & & & & & & & & @.s.u.r.r.r.-.>.e.7 7 7 < > = > = = & & = & & & & & & & & & & & & ",
"> & & & & > & & = & = > > & > m.m.j.!.n.C.*.o.o.a h *.@.f g t 7 5 = = > = > > > > > & & > = = = ",
"> > > 1 1 > & > > > > > > > > F.J.K.yXyXyXQ.<.s 8 Y w.+.h.n.#.o.+.O.w 1 > > > > > 1 & & > > > > ",
"1 1 1 1 1 > & > 1 1 > 1 1 1 1 ,.n.].`.+X<X5XXXuXU.U.U.}.tX@X|.].f.r.+.0 > 1 1 1 1 1 & & 1 1 > 1 ",
"1 1 1 1 1 1 & > 1 1 1 1 1 1 1 d.V. X.XXX,X,X<X7XqXqXqX6XyXyXoX9X=XA.:.0 1 1 1 1 1 1 = > 1 1 1 1 ",
"1 1 1 1 1 1 & > 1 1 1 1 1 1 1 k.B.3XtX5XL.lXlXlXdXpXxX).%XyX$XyX7XF.:.0 1 1 1 1 1 1 = > 1 1 1 1 ",
"> & & & & & & & & & & & = = 5 Z.Z.F.z.H.lX' Z C V ( _._ tX;XI.I.P.k.f = & & & & & & = & & & & & ",
"& & & > > > > > = = > > & 5 @.Z.F.Z.S.H.lXZ H [ V A S H [.7XF.F.P.s.6 > & & = = & & > > > = > > ",
"& > = > , 1 > > > , > 1 = q e.Z.z.Z.Z.D.eXC [ gXG [ H Z { >XF.F.F.r.6 > & & > = > , , 1 > > , > ",
"& > 1 1 1 1 1 1 1 1 1 1 = ..t.j.z.z.z.D.wXc ] fX) #X) zXrXY.S.S.A.S.3.w & ; 1 1 1 3 1 1 1 1 1 1 ",
"= > 1 1 1 1 1 1 1 1 1 1 - O.y.p.p.z.p.M.wXl F ] ^ } D hX*XS.Z.Z.z.S.s.f & = 1 1 1 3 1 1 1 1 1 1 ",
"& = 1 1 1 1 1 1 1 1 1 1 5 #.y.p.p.p.p.M.0Xj k c v m l jX=XS.Z.Z.z.z.p.r.& 1 1 1 1 1 1 1 1 1 1 1 ",
"& & & & & & & & & & & & 5 $.t.i.i.i.i.j.!.8X(.m / m x B '.2Xp.a.z.Z.z.a.@ : = = & & & & & & & & ",
"& = = = = = & & & = & & r $.t.y.u.u.u.i.l.&X].K OX` U v W !.a.a.a.z.a.a.@.5 = = > & & & > & & = ",
"= > > > > 1 & & = = ; # | $.e.e.e.e.u.!.:X:X~.L sX^./.x T v.p.p.a.a.a.a.e.a , = > > & > > > > > ",
"1 1 1 1 1 1 & = 1 , = % $.$.#.e.e.e.r.g.P M R M ! L I z T v.i.p.i.y.p.p.i.r.a 1 1 1 & 1 1 > > 1 ",
"1 1 1 1 1 1 & > 1 = % 4 #.#.#.e.$.e.t.l.~ z b z n z n N 0.c.t.t.y.t.y.y.u.r.q > 1 1 & > 1 1 1 1 ",
"1 1 1 1 1 1 = > 1 & % 4  .X.o.#.$.#.$.d.W.Q J I I L Q T.E.s.e.e.e.e.y.y.e.e.5 > 1 1 & > 1 1 1 1 ",
"> & & & & & & & % & . 4 u | |  . . .o.X.o.2.0.R.R.9.4.>.-.-.e.e.e.e.e.e.e.O.- # & & & & & & & & ",
"& & > & & & > > = % $ : @ @ y u y y u u | @.5.8.8.7.>.#.-.#.#.$.$.$.$.$.$.r # & & > & = = > > > ",
"& > > > > > 1 > > = # # # % * o * * * - 4 | ....O...o.#.#.#.#.#.#.#.$.#...- # = > > > 1 1 = = = ",
"& > 1 1 1 1 1 1 1 1 > > #               #   # # # . : 4 4 4 @ 4 4 @ @ o   # # 1 1 1 1 1 1 1 1 1 ",
"& > 1 1 1 1 1 1 1 1 1 1     # $ # # # # # # # # #   # . $ . $ # . . $ #   # & 1 1 1 1 1 1 1 1 1 ",
"& > 1 1 1 1 1 1 1 1 1 1 & & = = = = = = = &   # #   #               #     & 1 1 1 1 1 1 1 1 1 1 ",
"& & & & & & & & & & & & & & & & & & & & & & & # # # #   # #   # # # # # = & = & & & & & = & & & ",
"& & > > > = & & & > & > > = > & = > & & = & & = ; ; & = = > # & & % > = > > = = = & & & 1 = & & ",
"> > > > > 1 # = = > > > 1 , > = = > & & > = > > = = = 1 > 1 & = = > > = = > > > > 1 & = 1 = = = ",
"1 1 1 1 1 1 = 1 1 1 > 1 1 1 1 1 1 1 & = 1 1 1 1 1 1 1 1 1 1 & > 1 1 1 > 1 1 1 1 1 1 & > 1 1 1 1 ",
"1 1 1 1 1 1 & > 1 1 1 1 1 1 1 1 1 1 & = 1 1 1 1 1 1 1 1 1 1 & > 1 1 1 1 1 1 1 1 1 1 & > 1 1 1 1 ",
"1 1 1 1 1 1 & > 1 1 1 1 1 1 1 1 1 1 & > 1 1 1 1 1 1 1 1 1 1 & > 1 1 1 1 1 1 1 1 1 1 & = 1 1 1 1 ",
"& & & & & & & & & & & & & & & & = & = > & & & & > & & & & & & & & & & & & & & & = & & & & & & & ",
"& & > & > > & > & & & > & & = > > & > > > > = > & & & & = > = > > & > & & & > & > > & = & = & & ",
"& & = > 1 1 > 1 > 1 > > & & = > 1 > > > > > > 1 & > > = > > > 1 1 > > > & & > > > 1 > 1 > 1 > > ",
"& & 1 1 1 1 1 1 1 1 1 1 & & 1 1 1 1 1 1 1 1 1 1 & > 1 1 1 1 1 1 1 1 1 1 = > 1 1 1 1 1 1 1 1 1 1 ",
"& 1 1 1 1 1 1 1 1 1 1 1 & > 1 1 1 1 1 1 1 1 1 1 & > 1 1 1 1 1 1 1 1 1 1 & > 1 1 1 1 1 1 1 1 1 1 ",
"& > 1 1 1 1 1 1 1 1 1 1 & > 1 1 1 1 1 1 1 1 1 1 & > 1 1 1 1 1 1 1 1 1 1 & 1 1 1 1 1 1 1 1 1 1 1 "
};
