/* XPM */
static char *empty[] = {
/* columns rows colors chars-per-pixel */
"48 48 18 1 ",
"  c #4B4B4B",
". c gray30",
"X c #4F4F4F",
"o c #505050",
"O c #515151",
"+ c gray32",
"@ c #535353",
"# c #545454",
"$ c #555555",
"% c #565656",
"& c #575757",
"* c #585858",
"= c #595959",
"- c #5A5A5A",
"; c #5B5B5B",
": c #5C5C5C",
"> c #5D5D5D",
", c #5E5E5E",
/* pixels */
"                                                ",
"XXXXoX XXoXXXXoXXo XXXXXXXXXoX XXXXXXXXooo XXoXX",
"$$$$$$ X$o$$$$$$$$ Xo$$$$$$$$$ X$$$$$$$$$$ Xo$$$",
"$----- o-$---$---- o--$--$---- o$$--$----- o-$$-",
"::::::X$--:::::::- o-:::::::::Xo:::::::::: o:-::",
",,,::: $:::,,,,:,: $,:::,::::,X$:::::,,::: $,:,:",
"X           X   X   X   XX          X   X   X   ",
" XXXXXXXXXXX XooXXXXXXXo XXXXXXXXXXo XXXXXXXXoXo",
" oo$$$$$$$$$ X$o$$$$$$$$ Xo$$$o$$$$$XX$$$$$$$$$$",
" o$----$----Xo$--$-:---: X-------:-- o$--------:",
" $-::::::::: o-:--:,-::: o::::-::,:: o::-:::::::",
" $,::,::,,,:X$::::,,:,:: o:,:,::,,,: o,:::,,,:,:",
"        X       X   X       X           X       ",
"XXXXoX XXXooXXXooX XooXXXXXXXo XXXXXXXXXoo XXoXX",
"$$$$$$ X$o$o$$$$$$ X$o$o$$$$$$ Xo$o$$$$$$$ X$o$$",
"--$--- o$-----$--- o$---$----- o$----$---- o-$--",
"::::::Xo::--::::::Xo:::::,-::,Xo::-:::::::X$--::",
",,:::: $::::,,:::,X$::::,,:::,X$:::,,,::,, $::::",
"XX  X   X   XX         XX          XX          X",
" XXXXXXXXoXX XXXXXXXXXoo XXXXXXXXXXo XXXXXoXXXXo",
" Xo$$$$$$$$$ Xo$o$$$$$$$ oo$o$$$$$$$Xo$$$$$$$-$$",
" X-$-:$-----Xo-$$------: o----$--:-- o$-$-----:-",
" $:::::::,:: o::::::-,:: o:::::-:,:: o::-:::-:,:",
" $::,,,,:,::X$:::,,,::,,X$:,:,::,,::Xo:::::,::,,",
"                                               X",
"XXXXXX XXoXXXXooXX XXXXXXXXoXo XXXXXXXXoXX XXXXo",
"$$$$$$ Xo$$$$$$$$$ Xo$$$$$$$$$ X$$$$$$$$$$ Xo$$o",
"------ o-$--$-----Xo$----$---- o$$--$-----Xo$$--",
"::-:-,Xo--::::-:-,Xo:-::::::-:X$::::::::::X$:-::",
",:::::X$:::,,:::::X$::::,::::, $::::,,:::: $:::,",
"XX          XX          XX          X         XX",
" XXXXXXXXXXX XXXXXXXXXXX XXXXXXXXXXX XXXXXXXXXXo",
" Xo$o$$$$$$$XXo$$$$$$$$$XXo$$$$$o$$$ Xo$$$$$$$$$",
" X-$-------: o------$--: o----$-----Xo-$$-------",
"X$--::--:,:: $--::-::::,Xo--:::::::: o--::::::::",
" $::,::::,,, $::::::,,,: $::,:::,,,, $:::,,,,,,:",
"           X                    X           X   ",
"XXXXXX XXXXoXXoXoo XXXXXXXXXXX XXXXXXXXXXX XXXXX",
"$$$$$$ X$o$o$$$$$$Xoo$$$$$$$$$ o$o$$$$$$$$ X$$$o",
"$----- o$-$--$---$ o-$-------- o$---$----- o-$--",
":::::: $--::::::::Xo-::::,::::Xo::--:::::- o-:::",
",,,:,: o::::,,,,:: $,:::,,:::: $::::,,,:,: $::,:",
"XX  X   X     XX    X   X   X   XX  XX  X     X ",
" XXXXXXXXXoX XXXXXXXXXoo XXXXXXXXXXX XXXXXoXXXoX",
" Xo$$$$$$$$$ Xo$o$$$$$$$ Xo$o$$$$$$$ Xooo$-$$$$$",
" X$-------:: o$--------: o-$----$---Xo----------",
"Xo-:-:::::,:Xo:-::::::::X$--:::-:,:: o::--:,::::",
" $,:,,,,:::: $,:,,,,,::: $::,,::,,,:X$,:::,,:,,:"
};
