/* XPM */
static char *empty[] = {
/* columns rows colors chars-per-pixel */
"48 48 90 1",
"  c #4B4B4B",
". c #4B4B4B",
"X c #4B4B4B",
"o c #4C4C4C",
"O c #4C4C4C",
"+ c #4C4C4C",
"@ c #4C4C4C",
"# c #4D4D4D",
"$ c #4D4D4D",
"% c #4D4D4D",
"& c #4D4D4D",
"* c #4E4E4E",
"= c #4E4E4E",
"- c #4E4E4E",
"; c #4E4E4E",
": c #4E4E4E",
"> c #4F4F4F",
", c #4F4F4F",
"< c #4F4F4F",
"1 c #4F4F4F",
"2 c #4F4F4F",
"3 c #505050",
"4 c #505050",
"5 c #505050",
"6 c #505050",
"7 c #505050",
"8 c #505050",
"9 c #505050",
"0 c #505050",
"q c #515151",
"w c #515151",
"e c #515151",
"r c #515151",
"t c #515151",
"y c #515151",
"u c gray32",
"i c #525252",
"p c #525252",
"a c #525252",
"s c #535353",
"d c #535353",
"f c #535353",
"g c #535353",
"h c #535353",
"j c #535353",
"k c gray33",
"l c #545454",
"z c #545454",
"x c #545454",
"c c #545454",
"v c #545454",
"b c #555555",
"n c #555555",
"m c #555555",
"M c #555555",
"N c #565656",
"B c #565656",
"V c #565656",
"C c #565656",
"Z c #565656",
"A c #565656",
"S c gray34",
"D c #575757",
"F c #575757",
"G c #575757",
"H c #575757",
"J c #585858",
"K c #585858",
"L c #585858",
"P c #585858",
"I c #585858",
"U c gray35",
"Y c #595959",
"T c #595959",
"R c #595959",
"E c #5A5A5A",
"W c #5A5A5A",
"Q c #5A5A5A",
"! c #5B5B5B",
"~ c #5B5B5B",
"^ c #5B5B5B",
"/ c #5B5B5B",
"( c #5B5B5B",
") c #5B5B5B",
"_ c #5C5C5C",
"` c #5C5C5C",
"' c #5C5C5C",
"] c #5D5D5D",
"[ c #5D5D5D",
"{ c gray37",
/* pixels */
"...... ..O@.%...@O ..%........ ........&o. .....",
"<<<<<<.*><<<<<<<<<.**<<<<<<<<<.:<-<<<<<25<.*><<<",
"kkkkkk.>dqakkkkkkk.*1kkkkkkkkk.<fhkkkkkkkk.*5kkk",
"BPKEE`=yKMEEJJY/P(OqSYJYIGJYJ`+6vBPTBPK(TK%rDMML",
"!`(]TE:sTG!]!!]!!P@8U]TE]!!!!]:sT!`(!!!({(.rTJT]",
"{{{W]`#sW(({{{{W]`Oj_'!`[!'(({7s(W{T{]['T'*j_`]{",
"*@..........%..O**.@*...1*O%.......%*@.**@.@*...",
"@:-<<<<<<<<<@:<<<<<<<<<<@*><<<<<<<<q@*><<9<<<<<<",
".-2kkkkkkkkk%<fqakkkkkkk.*5kkk,akkkc>>dkkkkkkkkk",
"X6vYPTLGKYEE;9xTPBT(TYE[.<F(TKKTK[EY.3vYPKT!Y(P`",
"&sT]!]]!!]!]*8U]TJ{{T]!!.8^(`!({(]!].rT!!!{`!!!]",
"#s(W]['![{{W,lK[`Y{{'{((.rK{]['T'{{W.r(']E{{{E]{",
"...... .%%.....O*O .*......O** ....%...=-O ..O@.",
"<<<<<<.:<-<<<<<<<<.:i<<<<<<<<<.*><<<<<<25<.*><<<",
"kkkkkk.<f7atkkkkkk.<kqqqkkkkkk.>>fqfkkkkkk.>d,ak",
"TPBEEYO3v`EYTPB(T(+2xTTKZTKT(TO3vT(KLAJ(TK#rRBEE",
"{`!`T]-pD!TE{`!!`T:uU]`(({T!`{<pT!!!]!!!`(:jGJT]",
"{{W[]W:l~(!E{{W[]'<z(E!'{{'`!{,lIE`[{{W[]{:gQ`]W",
"**O**O.@*&o.**O......X$1%@....Xo..@;%....%....@;",
"@*><<<<<<25<@*><<<<<<25<.**<<<25<<<9*:<<<<<<<q<9",
".>>kkkkkkkkk.>>fqfkkkkkk.>5fqfkkkkkk*<fkkkkkkVkk",
"X6GZP`BJ`TTK;wCACHT!YTP`%rDYJ`JPKE]T%3vQMLT!YT(W",
"+sT!!]!!!]`(-pT]!!]!!{!`@rT]!]ET!]!!@rDP!!{`P{{(",
"+l~[]{{{'[]W:s(W][[]W{][5jI{('E`[{][*rW'((W{'W{'",
"...... ....%..%... .%......... ........%.. @O..*",
"<<<<<<.:-<<<<<<<<<.**<<<<<<<<<.:<-<<<<<<<<.**<<9",
"kkkkkk.-2kkkkkkkkk.>;kkkkkkkkk%<fhkkkkkkkk.*1kk4",
"KP/T(TOrDBEEBP(T(T=6v/P(YJYEEY=6vBPKBPK(!Y7rvBPT",
"!!P!!]<pDEJ`P!!!!]:sTP`T]!!`T]:sT!`(!`((`!:jRE!(",
"[]'E`[,l~E`[']EE`[<mI(('{((`!{#l_W('{{W'T':g)E]'",
";>*.........1**...%.....%*OXo.......%....%...O-2",
"@**<:><<<<<<*:-<<<<<<<<<@:-25<<<-<<<@*><<<<<<<52",
".*1f9dkkkkkk*-2kkkkkkkkk;<2kkkka7kkk.>>kkkkkkkkk",
"=6RBEEYEE`P(&yDKTTYEB/P'OrDKPYZTK(P`*rDMMLE!TYEE",
":jGP!]EJ`]`(+sTT`]P!!!!]-pD!!](`!(`!$pDP!]`!(]!]",
":zJ'{W``E{{{+lI'!`'('{][:sW[]WW][{{'+l~(({[]'{{W",
"...... ....*..%.@O ..........% @1..%...... @*...",
"<<<<<<.*><<9<<q<<<@**<<<<<<<<<.:<-<<<<<<<<.*><<-",
"kkkkkk.>dqa4kkckkk*>5kkkkkkkkk.<f7akkkkkkk.>dka7",
"AGK(P`XynJAQYGHTPB+6CZP`Y!WT(KO3vT!YBPKE!(%3RZTT",
"]!!!!!+sDP!!`!({`!:sT(!E!`(!`T-pT!TE!`(]`T.rD!`(",
"{][[]'XyD'('[]{'T'#s('!`'{'`!'#lIE``{{{W{T*jH[]'",
";>OO**.@*%.. @**@..@*..%>@.O*O.@*1@.;>OO*O.@OO*O",
"@:-<<<<<<<<<.*><<<<<<<<<.*><<<<<<<<<@:--<<<<<<<<",
".-2kkkkkkkkk.>0fqfkkkkkk.*5fqfkkkkkk.-2:qfNbkkkk",
"O<xT!YE!TT(W*<xYP(YEEY!'=yDBPTYPZ`PT;wGYE`TTTTTT",
"-eU!!]`!({{(-eU!!!]!]!`(:sTP`(`T!]`(-p(`TP{{(]!]",
":s(E]{[]'T('#s('][{{{'(T:s('{'`E[{{':s(`!T{{'[`["
};
