/* XPM */
static char *exit1[] = {
/* columns rows colors chars-per-pixel */
"48 48 176 2 ",
"   c black",
".  c #010101",
"X  c #020202",
"o  c #030303",
"O  c #040404",
"+  c #050505",
"@  c #19120F",
"#  c #1A120F",
"$  c #331904",
"%  c #331A05",
"&  c #31201A",
"*  c #31211B",
"=  c #32211C",
"-  c #32221C",
";  c #32221D",
":  c #32231D",
">  c #33241E",
",  c #202020",
"<  c #262626",
"1  c #2C2321",
"2  c #2E2623",
"3  c #282828",
"4  c #292929",
"5  c #2A2A2A",
"6  c #2B2B2B",
"7  c #2C2C2C",
"8  c #2D2D2D",
"9  c gray18",
"0  c #2F2F2F",
"q  c #302825",
"w  c #352D2A",
"e  c #303030",
"r  c #323232",
"t  c #343434",
"y  c gray22",
"u  c #393939",
"i  c #3A3A3A",
"p  c gray23",
"a  c gray24",
"s  c #3E3E3E",
"d  c #4C2A13",
"f  c #4C2B14",
"g  c #653107",
"h  c #653207",
"j  c #663208",
"k  c #663308",
"l  c #663209",
"z  c #663309",
"x  c #66330A",
"c  c #67340B",
"v  c #67350C",
"b  c #68360D",
"n  c #6B3910",
"m  c #703D16",
"M  c #4A3229",
"N  c #4A322A",
"B  c #4A332A",
"V  c #4B332B",
"C  c #4B342B",
"Z  c #4B342C",
"A  c #4B352C",
"S  c #614034",
"D  c #614135",
"F  c #624135",
"G  c #624136",
"H  c #624236",
"J  c #634236",
"K  c #634237",
"L  c #624337",
"P  c #634337",
"I  c #634338",
"U  c #634438",
"Y  c #634439",
"T  c #634539",
"R  c #644439",
"E  c #644539",
"W  c #64453A",
"Q  c #64463A",
"!  c #65463A",
"~  c #64463B",
"^  c #65463B",
"/  c #65473B",
"(  c #65473C",
")  c gray25",
"_  c #444444",
"`  c #454545",
"'  c #474747",
"]  c #4B4B4B",
"[  c #4D4D4D",
"{  c #4E4E4E",
"}  c #4F4F4F",
"|  c #505050",
" . c #515151",
".. c gray32",
"X. c #535353",
"o. c #545454",
"O. c #555555",
"+. c #565656",
"@. c #575757",
"#. c #585858",
"$. c #595959",
"%. c #5A5A5A",
"&. c #5B5B5B",
"*. c #5C5C5C",
"=. c #5D5D5D",
"-. c #5E5E5E",
";. c #696969",
":. c gray44",
">. c #737373",
",. c #747474",
"<. c #757575",
"1. c #767676",
"2. c #777777",
"3. c gray47",
"4. c #797979",
"5. c #7B7B7B",
"6. c #7D7D7D",
"7. c #7E7E7E",
"8. c #9A4E10",
"9. c #9A4E11",
"0. c #CA610C",
"q. c #CB620C",
"w. c #CB620D",
"e. c #CB630D",
"r. c #CB620E",
"t. c #CB630E",
"y. c #CB630F",
"u. c #CB640F",
"i. c #CB6410",
"p. c #CB6510",
"a. c #CB6511",
"s. c #CB6412",
"d. c #CB6513",
"f. c #CC6410",
"g. c #CC6510",
"h. c #CC6511",
"j. c #CC6512",
"k. c #CC6612",
"l. c #CC6613",
"z. c #CD6713",
"x. c #CC6614",
"c. c #CD6714",
"v. c #CD6815",
"b. c #CD6816",
"n. c #CD6916",
"m. c #CE6816",
"M. c #CE6817",
"N. c #CE6917",
"B. c #CE6A18",
"V. c #CF6B19",
"C. c #CF6B1A",
"Z. c #D6701F",
"A. c #D67020",
"S. c #D67120",
"D. c #D77121",
"F. c #E07A2C",
"G. c #D28444",
"H. c #DA8E50",
"J. c #D8A379",
"K. c #D8A47A",
"L. c #808080",
"P. c gray51",
"I. c #848484",
"U. c gray52",
"Y. c #878787",
"T. c #888888",
"R. c #898989",
"E. c #8A8A8A",
"W. c #8D8D8D",
"Q. c #8E8E8E",
"!. c #919191",
"~. c #939393",
"^. c #949494",
"/. c #E6B38A",
"(. c gray90",
"). c white",
/* pixels */
"] ] ] ] ] ] ] ] ] ] ] ] ] ] ] ] ] ] ] ] ] ] ] ] ] ] ] ] ] ] ] ] ] ] ] ] ] ] ] ] ] ] ] ] ] ] ] ] ",
"} } } } | } ] } } | } } } } } } } | ] } } } } } } } } } } } ] } } } } } } } } } } } ] [ } } } } ",
"O.O.O.O.O.O.] } O.| O.| O.O.O.O.O.O.] } O.O.O.O.| O.O.O.O.O.] } O.X.O.O.X.@.O.@.O.@.] } X.O.X.@.",
"O.%.%.%.%.%.] | %.O.%.%.%.%.%.%.%.%.] | O.%.O.%.%.%.%.%.%.%.] } @.@.@.@.@.$.$.$.$.%.] X.@.@.@.%.",
"=.=.=.=.=.=.] | %.%.%.=.%.=.=.=.=.%.] | %.=.%.%.=.=.%.=.=.=.} | %.*.-.%.*.*.%.*.%.-.] X.$.%.%.%.",
"=.=.=.=.=.=.} O.=.=.=.=.=.=.=.=.=.=.} | =.=.=.=.=.=.=.=.=.=.] O.*.-.-.-.-.-.-.-.-.-.] O.-.-.-.-.",
"] ] ] ] ] ] ] ] ] ] ] ] } ] ] ] } ] ] ] } ] ] ] } ] ] ] ] } ] ] ] ] ] ] [ ] ] ] ] ] ] ] ] ] ] ] ",
"] } } } } } | } } } } } ] } } } } } < < < < < < < < < < < < < y } } } X.] [ } } } } } } } } } | ",
"] | | O.O.O.O.O.O.O.O.O.] } O.O.O.| . . . . . . . . . . . . . 7 @.O.O.@.] } X.O.o.O.O.O.O.@.O.O.",
"] | O.%.O.%.%.%.%.%.%.%.} | O.O.7 . 1.4.6.6.6.P.U.T.Q.Q.!.!.!.] . $.%.%.]  .@.@.#.$.$.#.$.$.$.$.",
"} | %.=.%.=.%.=.%.=.=.=.] | =.7 t y 1.1.1.1.4.4.6.P.U.T.T.T.Q.;._ e ' -.] X.%.%.*.*.*.-.*.*.*.-.",
"] O.=.=.=.=.=.=.=.=.=.=.} O.=.+ y :.:.:.:.:.:.:.:.4.4.6.P.U.U.U.T.+ r -.] O.-.*.-.-.-.-.-.-.-.-.",
"] ] ] ] ] ] ] ] } ] ] ] ] 3 + :.y . . . . . . . . . . . . . . . X 5.) + ] ] ] ] ] ] ] ] ] ] ] ] ",
"} } } } | } ] } } } } } | 3 . y w - - - - : * * * * & * - - * * 2 A , + } } } } } } ] [ } [ } } ",
"O.O.O.O.O.O.] | | O.O.| O.3 . . * K K K K U K K K S S K K K K K K . o O O.O.O.@.O.@.] } X.X.o.o.",
"%.%.O.%.%.%.] | %.O.%.%.%.7 . . - K K K K K U K S K K K U K K K S . o O #.$.$.$.$.$.] X.#.#.#.$.",
"=.=.=.=.=.=.} | =.%.%.%.=.e . : C / K K K * N K K K K * N L K K A > # O *.*.*.-.*.-.] X.$.*.&.*.",
"=.=.=.=.=.=.] O.=.=.=.*.=.7 . / / / / U K . * I K K K . & L D S K K > O -.-.-.-.-.-.] o.-.-.-.-.",
"] ] ] ] ] ] ] ] ] ] } ] } < . ( ( ( K L K . - U K U U . & K S S S S * . ] ] ] ] ] ] ] ] ] ] ] ] ",
"] } } } } } } } } } | | ] y 3 : A / L K / - A U U U U - N D K D K * 2 7 ] [ } } } } } } } } } } ",
"] } | O.O.O.O.O.O.O.O.O.] } | . - U K K K U / U ( / U U K K K K K . 3 O.} | O.O.o.O.O.O.O.O.O.@.",
"] | %.%.O.O.O.%.%.%.%.%.] O.%.O.6 . I I I I I U / U / U U U L & . %.%.%.] | O.O.#.$.$.$.$.$.$.$.",
"} | %.%.%.%.=.=.=.=.=.%.] | %.&.` e - - - * - * * : - - : - - q 3 =.%.=.] | %.%.*.*.*.*.*.*.*.-.",
"] O.=.=.;.=.=.=.=.-.=.=.] O.=.=.=.=.. . . . . . . . . . . . . 0 ;.=.=.=.] O.=.=.-.-.-.-.-.-.-.-.",
"] ] ] ] ] ] ] ] ] ] ] ] ] ] ] ] < . x.n.C.x.j.j.0.0.j.j.n.C.x.x . ] ] ] ] ] ] ] ] ] ] ] ] ] ] ] ",
"} } } } | | ] } } } } } } } } < 1 * x 9.C.j.x.j.0.G.K./.H.n.x d * < y | } } } } } } ] } } } } | ",
"O.O.O.O.O.O.] } O.X.O.O.O.O.O.. * I . c n.i.j.x.0.J.(.)./.x.. - K . 3 X.O.O.O.O.O.O.] } O.| | O.",
"O.%.%.%.%.%.] | @.O.@.%.@.%.%.. : U . c i.C.j.j.e.i.j.n.n.x.. - / . 7 O.O.%.%.%.%.%.] | %.%.%.%.",
"%.=.=.=.%.=.} | %.%.&.=.=.=.%.. - ( - f v C.n.j.0.j.j.C.9.x - A / . 7 %.=.=.=.=.=.=.] | %.%.%.=.",
"=.=.=.=.=.=.] O.=.=.=.=.=.=.=.. : ( ( : . Z.n.i.e.0.j.C.v . / ( / . 7 ;.=.=.=.=.=.=.} O.=.=.=.=.",
"} ] ] ] ] ] ] ] ] ] ] ] } ] ] . - / / - . D.F.F.F.F.F.F.m . / / / . < ] ] ] ] ] ] ] ] ] ] ] ] ] ",
"] } | } } } } } } } } } ] } | 3 2 : : # . D.D.D.Z.D.Z.D.n . - - : 3 a | ] } } } } } } } } | | } ",
"] } | O.X.O.O.O.O.O.O.O.} } | O.3 . . . . x.x.j.j.x.j.n.v . . . . O.O.O.] | O.| O.O.O.O.O.O.O.O.",
"] } %.O.O.%.%.%.O.%.%.%.] | %.%.@.%.%.7 . j.i.f.. h 0.i.h . %.O.%.%.%.%.} | O.%.%.%.%.%.%.%.%.%.",
"] O.%.%.@.%.%.=.=.=.=.=.} | %.%.=.*.=.e . i.j.e.. h j.j.h . %.=.%.%.=.%.] | %.=.%.%.=.=.=.=.=.=.",
"] O.=.=.;.=.=.=.=.-.=.=.] O.=.=.=.=.=.7 . 0.i.j.. x j.i.x . =.=.=.;.=.=.] O.=.=.%.=.=.=.=.=.=.=.",
"] ] ] ] ] ] ] ] ] ] ] } ] ] ] ] ] ] ] < . n.x.x.. x x.x.v . ] ] ] ] ] ] ] ] ] ] ] ] ] ] ] ] ] ] ",
"} } } | } | ] } } } } | } } } } | | ] < . n.x.i.. h i.x.c . ] } } } } | } } | | } } ] } } } } } ",
"O.O.O.O.O.O.] | O.| O.| O.O.O.O.O.O.] < . x.n.i.. h j.C.c . ] } | O.O.O.O.O.O.O.O.O.] } | O.O.O.",
"%.O.%.%.%.%.] | O.%.O.%.%.O.%.%.%.%.] < . i.j.C.. v n.i.x . ] | %.O.%.O.O.%.%.%.%.%.] | %.O.%.O.",
"%.=.=.=.=.=.} | %.%.%.=.%.=.=.=.=.=.] < . x x c . $ c x $ . } | =.%.%.=.=.=.=.=.=.=.] | =.%.=.=.",
"=.=.=.=.=.=.] O.=.=.=.=.=.=.=.=.=.=.] < . . . . . . . . . . ] | =.=.=.=.=.=.=.=.=.=.] O.=.=.=.=.",
"} ] ] ] ] ] ] ] } ] ] ] ] ] } ] ] ] ] ] ] ] ] ] ] ] ] ] ] ] ] ] ] ] ] ] ] ] ] ] ] ] ] ] ] ] } ] ",
"] } } } } } } } } } | } ] } } } } } } | } } } } ] } } } } } } } | } } } ] } } } } } } } } } } } ",
"] } | O.| O.O.O.O.O.O.O.] } | O.O.O.O.O.O.O.O.O.] } | O.O.O.O.O.O.O.O.O.] } | O.| O.O.O.O.O.O.O.",
"] } %.O.%.O.%.%.%.%.%.%.] } O.%.O.%.O.%.%.%.%.%.] | O.%.O.%.%.%.%.%.%.%.} | %.O.%.%.%.%.%.%.%.%.",
"} | %.%.%.%.=.=.%.=.=.=.} | %.=.=.%.=.=.=.=.=.=.] O.%.%.=.=.%.%.%.%.%.=.] | =.%.=.%.=.=.%.O.%.=.",
"] O.=.=.;.=.=.=.=.=.=.=.] O.=.=.=.=.=.=.=.=.=.=.] O.=.=.=.=.=.=.=.;.=.=.] O.=.=.=.=.=.=.=.;.=.=."
};
