/* XPM */
static char *exit1[] = {
/* columns rows colors chars-per-pixel */
"48 48 80 1",
"  c #060606",
". c #090605",
"X c #0D0B0B",
"o c #120903",
"O c #100C0A",
"+ c #1A120F",
"@ c #151414",
"# c #191311",
"$ c #211103",
"% c #201F1E",
"& c #2D1F1A",
"* c #331A05",
"= c #2E211D",
"- c #32231C",
"; c #262626",
": c #2B2624",
"> c #2C2827",
", c #2C2B2B",
"< c #342621",
"1 c #332824",
"2 c #332D2B",
"3 c #333333",
"4 c #383636",
"5 c #393837",
"6 c #3B3B3B",
"7 c #4C2A13",
"8 c #5D2E07",
"9 c #5E2F09",
"0 c #5E300A",
"q c #4B332A",
"w c #403430",
"e c #54372D",
"r c #53382F",
"t c #543A30",
"y c #5B3D33",
"u c #653209",
"i c #6E370A",
"p c #6F380C",
"a c #6D3A13",
"s c #5D4035",
"d c #624237",
"f c #634438",
"g c #464545",
"h c #484646",
"j c #4D4D4D",
"k c #525252",
"l c #5B5B5B",
"z c #616161",
"x c #696665",
"c c #6F6F6F",
"v c #747474",
"b c #7B7B7B",
"n c #9A4E11",
"m c #AB550F",
"M c #AC5510",
"N c #AC5812",
"B c #BA5A0D",
"V c #BB5D10",
"C c #BE6116",
"Z c #CB620E",
"A c #C46516",
"S c #C5661A",
"D c #CC6512",
"F c #CD6816",
"G c #CE6C1C",
"H c #D26D1B",
"J c #CC6E23",
"K c #CF7124",
"L c #D57021",
"P c #D97323",
"I c #DD7728",
"U c #DE782A",
"Y c #D18343",
"T c #D98E4F",
"R c #D79E70",
"E c #E3AC7F",
"W c #848484",
"Q c #8B8B8B",
"! c #E0D0C2",
"~ c #F6E6D9",
/* pixels */
"jjjjjjjjjjjjjjjjjjjjjjjjjjjjjjjjjjjjjjjjjjjjjjjj",
"jjjkkjjjjjjjjjjjjjjjjjjjjjkjjjjjjjjkjjjjjkjjjkjk",
"kkkkkkjjkkkjlkkkkkjjklkjjkkklkjjkkkkkkkkkkgjkkkk",
"lllllljjlklllllllljjjllllllllljjkllklllllljkklkl",
"lllllljklllllllllljklllllllllljklllllllllljkllll",
"llllllkklllllzlllzjkllllllzllljkllllllzlzljklzll",
"kjjjjjjjjjjjjjjjjjgggggghhgggghjjjjjjjjjjjjjjjjj",
"jjjjjjkkkjjjjjjjjj;;;;;;;;;;;;>4jjjkjjkkkjjjjjjj",
"jkkkkkkkkkkkjjklkk .....X    X@,kkkkjkkkkkkklkkk",
"jjkllllllllljkkj;@vbbbbWWWQQQQWk@klljkkkllllllll",
"jklllllllllljkl,35vvvvvvbWWWQWWxj,jljkllllllllll",
"jklllllllllljkl@5zccvvvcvbbbWWWWb@3kjkllllllzlll",
"jjjjjjjjkjjjg;Xz5O........ . ....x5Xjjjjjjjjjjjj",
"kjkkjjjjjjkjh; 52:--&----&&-:=-==w;.jjjkjjjjjjjj",
"kkkkkkjjkkkjj> X&ryyyyeyyyyyyyyyto  kkkkkljjjkkk",
"llkllljjlkllk, O<ydddydddddyydddy   lllllkjkllll",
"llzllljkllllk,.1qdddd-qdddd-qyddt=+ lllllzjkllll",
"llllzzjkllllk3.sdfffdO-ddddO-dddde=.llllzljkllll",
"jjjjjjjjjjjjj,XsddfffO<yddfO-yddse-Xjjjjjjjjjjjj",
"jjjjjjkjjjkjj6><qdfff-qsddf-qydds-=,jjkjjkjjjkjj",
"jjklkkkkkkkkjjgO1ydddysfffdyydddsO>hjjkkkkkkkklk",
"jjklkklllllljjlj,Xyyyyyyyyyyyye-Xllljkkklkllllkl",
"jjlllllllllljklkj,<----&<------1>llljklllllllzll",
"jklzzllzlzlljklllk.. . .. ....X,lllljkllzzlllllz",
"jjjjjjjjjjjjjjjg;XVFFDDDZFJJGHm0+gjjjjjjjjjjjjjj",
"jjkjjjjjjjjkjjj:&-inSZDDFYRETJu7-;5jjjjjjjjjkjjj",
"kklkkkjjkkkkkkkX&r$pADDDGR!~ELo-tX;jkkkkkkjjkjjk",
"kllllljjlklllll.-yO9MFDDZZDFAAO-s ,jlllllljjllll",
"lllllljjlllllll.<y-7uHFDZDFSni<ef ,kllzllzjjllll",
"lzzlzljklllllll.<yt-oHFDZZDCp+ssf 3llllzllkkllll",
"jjjjjjjjjjjjkjjX=tt&.PUUIIUJaoyssX;gjjjjjjjjjjjj",
"jjjkjjjkkjjjjjj::<&# HPPHLPSao-=<,6jjjjjjjkjjkjj",
"hjkkkkkkkkkkkjkj;X.  DDFDDFCuo...jjkjkkkkkkkkkkl",
"jjkkklllkllljkklllk, DDDouBBuolklllljkkllkllllll",
"kklllllllllljkllllk, ZDZouBBuolllllljjllllllzlll",
"jklzzzlllzlljkllllk3 ZZDouVBuollzxlljkllllllllll",
"jjjjjjjjjjjjjjjjjjg; FZDouVVuojjjjjjjjjjjjjjjjjj",
"jjjkkjjjkjjjjkjjjkg; FDDouVVuojjjjkjkjjjjkjjjkjj",
"kkkkkkjjkkkkkkkkkkg; FFDouBCuojjkkkkkkklkkjjjkkk",
"lllllljjklklllllllg; BVCo8Mm9ojjlklkkllllljjlllk",
"lzlllljklllllzllllg; uuu.*99* jjlllllllllljkllll",
"lllllzjkllzlllllllg: ooo .oo  jjllzllzlllljkllll",
"jjjjjjjjjjjjjjjjjjjjjjjjjhjjjjjjjjjjjjjjjjjjjjjj",
"jjkjjjjjjjjjjjjkjjjkkjjjjjjjjjjkjjkjjjjjkjjjjkjk",
"jjjkkkkklkkkjjjkklkkklkkjjjkkkkkkkkkjjjjjkkkkkkk",
"jjlklkzlllzljjklkllklllljjkllllllllljjllllzlllll",
"jjlllllllllljklllllllllljklllllllllljkllllllllll",
"jklzzzlllllljklzzlllllllkklllllllzzljkllzllllxll"
};
