/* XPM */
static char *exit4[] = {
/* columns rows colors chars-per-pixel */
"48 48 223 2",
"   c #000000",
".  c #010000",
"X  c #020201",
"o  c #040302",
"O  c #040303",
"+  c #040404",
"@  c #070504",
"#  c #060606",
"$  c #070707",
"%  c #080401",
"&  c #080504",
"*  c #080605",
"=  c #080707",
"-  c #0F0801",
";  c #080808",
":  c #090909",
">  c #0A0A0A",
",  c #0D0B0B",
"<  c #0F0A09",
"1  c #0C0C0C",
"2  c #0E0E0E",
"3  c #0F0F0F",
"4  c #110801",
"5  c #110802",
"6  c #110902",
"7  c #100D0D",
"8  c #100E0D",
"9  c #18100A",
"0  c #18100B",
"q  c #19120F",
"w  c #111111",
"e  c #121212",
"r  c #131313",
"t  c #171414",
"y  c #161616",
"u  c #1C1512",
"i  c #1C1C1C",
"p  c #211003",
"a  c #211104",
"s  c #2D1E1A",
"d  c #2D1F1B",
"f  c #331A05",
"g  c #2E211B",
"h  c #31201A",
"j  c #31201B",
"k  c #31211B",
"l  c #31211C",
"z  c #31221C",
"x  c #31221D",
"c  c #31231E",
"v  c #32221C",
"b  c #32221D",
"n  c #32231D",
"m  c #32231E",
"M  c #32241E",
"N  c #34231D",
"B  c #35231D",
"V  c #34231E",
"C  c #35241E",
"Z  c #252525",
"A  c #262626",
"S  c #272727",
"D  c #282828",
"F  c #292929",
"G  c #2A2A2A",
"H  c #2B2B2B",
"J  c #2D2D2D",
"K  c #2F2D2D",
"L  c #2E2E2E",
"P  c #2F2F2F",
"I  c #342620",
"U  c #332E2B",
"Y  c #312D2C",
"T  c #332F2C",
"R  c #342C29",
"E  c #342C2A",
"W  c #34302D",
"Q  c #36312E",
"!  c #303030",
"~  c #313131",
"^  c #323232",
"/  c #343434",
"(  c #373737",
")  c #383636",
"_  c #383736",
"`  c #393837",
"'  c #393939",
"]  c #3A3A3A",
"[  c #3B3B3B",
"{  c #3C3C3C",
"}  c #3D3D3D",
"|  c #3E3E3E",
" . c #5E300A",
".. c #483028",
"X. c #483128",
"o. c #503623",
"O. c #52372D",
"+. c #53372D",
"@. c #53382D",
"#. c #543B31",
"$. c #593A30",
"%. c #593B30",
"&. c #5A3B31",
"*. c #5A3C31",
"=. c #5A3D32",
"-. c #5B3D32",
";. c #5B3D33",
":. c #5B3E34",
">. c #5C3D32",
",. c #5D3D32",
"<. c #5C3E33",
"1. c #5D3F33",
"2. c #5E3F33",
"3. c #5C3F35",
"4. c #67340B",
"5. c #67350C",
"6. c #68350C",
"7. c #68360D",
"8. c #6A370E",
"9. c #6B3810",
"0. c #6A3C18",
"q. c #70390B",
"w. c #723B0F",
"e. c #743E13",
"r. c #603F33",
"t. c #5C4036",
"y. c #614034",
"u. c #614135",
"i. c #624135",
"p. c #624236",
"a. c #634337",
"s. c #634338",
"d. c #444444",
"f. c #454545",
"g. c #464646",
"h. c #474747",
"j. c #484848",
"k. c #494949",
"l. c #4A4A4A",
"z. c #4B4B4B",
"x. c #4C4C4C",
"c. c #4D4D4D",
"v. c #4E4E4D",
"b. c #4E4E4E",
"n. c #4F4E4E",
"m. c #4F4F4F",
"M. c #505050",
"N. c #515151",
"B. c #525252",
"V. c #535353",
"C. c #545453",
"Z. c #555453",
"A. c #545454",
"S. c #555555",
"D. c #565656",
"F. c #575757",
"G. c #585858",
"H. c #595959",
"J. c #5A5A5A",
"K. c #5B5B5B",
"L. c #5C5C5C",
"P. c #5D5D5D",
"I. c #5E5E5E",
"U. c #5F5F5F",
"Y. c #626262",
"T. c #636363",
"R. c #646464",
"E. c #666666",
"W. c #676767",
"Q. c #686868",
"!. c #696969",
"~. c #6A6A6A",
"^. c #6B6B6B",
"/. c #6C6C6C",
"(. c #6D6D6D",
"). c #6E6E6E",
"_. c #6F6F6F",
"`. c #707070",
"'. c #717171",
"]. c #727272",
"[. c #737373",
"{. c #747474",
"}. c #777777",
"|. c #787878",
" X c #797979",
".X c #7B7B7B",
"XX c #7D7D7D",
"oX c #7E7E7E",
"OX c #7F7F7F",
"+X c #9A4F10",
"@X c #A15418",
"#X c #AD5812",
"$X c #BD6014",
"%X c #BD6115",
"&X c #BE6114",
"*X c #BE6217",
"=X c #BC6725",
"-X c #C56415",
";X c #C2651B",
":X c #C4661D",
">X c #C4671C",
",X c #CC6815",
"<X c #CD6B1E",
"1X c #D46F1F",
"2X c #C76A20",
"3X c #CE6C20",
"4X c #DC7628",
"5X c #DD7729",
"6X c #DE782A",
"7X c #DF792B",
"8X c #E07A2C",
"9X c #808080",
"0X c #828282",
"qX c #838383",
"wX c #848484",
"eX c #858585",
"rX c #868686",
"tX c #888888",
"yX c #898989",
"uX c #8B8B8B",
"iX c #909090",
"pX c #919191",
"aX c #929292",
/* pixels */
"z.z.z.z.z.l.l.z.z.z.z.z.z.z.z.z.z.z.l.z.z.m.z.z.z.z.z.z.z.z.z.z.z.z.z.z.z.z.z.z.z.z.z.z.z.z.z.z.",
"N.z.N.z.N.N.z.z.m.m.N.m.N.N.N.z.N.m.z.z.z.z.N.N.m.m.N.z.N.z.z.N.m.m.z.m.m.m.m.m.m.m.z.b.m.m.m.m.",
"S.S.N.S.S.S.z.N.A.m.N.m.A.V.A.A.A.A.z.m.m.S.V.S.S.N.S.N.A.S.z.m.A.A.m.V.m.A.A.A.A.A.z.m.A.m.A.m.",
"S.K.K.K.K.L.z.N.S.S.K.K.S.K.K.K.K.K.z.N.S.S.K.F.S.K.K.K.K.K.z.m.A.K.F.K.F.L.J.L.F.L.z.m.K.F.F.F.",
"L.L.L.L.K.L.z.N.K.K.K.K.L.L.L.L.K.K.z.N.K.K.K.K.L.L.K.K.K.L.z.N.F.L.L.L.L.I.L.L.L.L.z.m.F.L.L.L.",
"L.L.L.U.K.L.z.S.K.L.K.K.L.L.L.U.K.K.z.V.K.K.K.K.L.L.L.K.L.L.z.S.L.L.L.L.L.P.L.U.L.U.m.A.L.L.L.L.",
"z.z.z.z.z.z.z.z.z.z.z.z.z.z.z.z.z.z.z.l.g.g.d.d.l.g.d.d.d.d.g.g.d.z.z.z.z.z.m.z.z.m.z.z.z.z.z.z.",
"z.z.N.z.N.N.N.N.m.m.m.N.z.m.N.z.N.m.z.] F Z Z Z Z Z Z Z Z Z Z Z D m.m.m.z.m.m.m.m.m.m.m.m.m.m.m.",
"z.N.z.S.N.S.N.S.N.N.N.S.z.m.V.A.A.A.b.L 1 @ @ @ @ $ @ $ # # # # $ A.A.A.z.m.A.m.m.A.A.A.A.A.A.A.",
"z.N.S.K.K.K.K.K.K.K.K.K.N.N.S.S.A.A.y m.yXaXaXiXuXrXwX9X.X9X.X}. X3 H z.z.m.A.F.L.F.K.L.F.L.L.F.",
"z.N.S.L.L.K.L.L.K.L.K.K.z.N.K.F.d.! k.!.yXyXtXrXwX9XoX X}.}.}.{.}.( ! ! z.V.F.L.L.K.L.L.L.L.U.L.",
"z.S.K.L.L.L.U.L.L.L.L.K.z.N.K.S.^ 2 XXwXwXwX9XOX.X X}.(.].].].`.`.L.( 3 z.A.L.L.L.L.U.L.L.L.L.L.",
"z.z.z.z.z.z.z.z.z.z.z.z.z.z.z.O 1 y @ @ & 7 ) L.(.].`.`.(.~.].].`.(.`.(.# Z k.z.z.z.z.z.z.z.z.z.",
"N.N.z.N.N.N.z.z.N.N.z.N.N.N.z.O u I h j x x R ) `.].(.(.`.`.].`.].(.`.`.$ D k.m.m.m.z.z.m.m.m.m.",
"S.S.N.N.N.N.z.N.N.N.N.z.S.N.S.@ s O.%.@.%.+.x 2 `.{.`.`.`.(.{.`.`.{.`.(.# D z.A.A.D.z.m.m.A.B.m.",
"K.S.K.K.K.K.z.N.K.S.K.K.K.K.L.& j 2.r.2.=.y.y.y.2 ( I.(.`.{.`.(.(.`.].`.; H A.J.L.F.z.V.F.G.F.K.",
"L.K.K.L.L.L.z.N.K.K.K.K.L.L.L.& j %.2...B y.y.y.M R ) `.`.`.`._.).].).`.; L A.L.L.L.m.V.F.L.K.L.",
"L.L.L.L.I.L.m.A.K.K.K.K.L.K.L.& j %.@.x 7 y.y.y.@.x 7 _.`.`.`._.(.].`.{.; H A.L.L.L.z.A.K.L.L.L.",
"N.z.z.z.z.z.z.z.l.z.z.z.z.z.z.@ h %.2.B 6 y.y.y.=.B 7 W.^._.`.`.`.`.(.R.1 D k.z.z.z.z.z.z.z.z.z.",
"z.z.m.m.m.N.m.m.m.M.N.m.z.m.m.@ j %.2...C y.s.y.3.X.B { Z.^.`._.(.(.V.[ D { z.m.m.m.m.m.m.m.m.m.",
"z.m.N.S.V.V.V.N.C.V.V.V.z.z.N.@ j %.r.2.2.r.s.s.y.2.%.e } Q.`._.!.(.[ r k.m.m.A.A.A.A.A.A.A.A.A.",
"z.N.S.G.G.S.G.K.K.K.K.K.m.N.G.N.Y 2 %.%.%.3.t.t.t.=.#.; / L.E.W.!.2 ! D.z.m.A.A.F.F.F.K.F.L.L.L.",
"m.N.K.K.K.K.L.L.K.L.K.K.z.V.G.G.h./ g x x x x x x x j @ i / ` ] [ ! k.F.z.V.F.K.L.L.L.L.L.P.L.L.",
"z.N.K.K.E.L.L.L.L.I.K.K.z.N.K.K.K.S.& & & & & & & & @   @ ; ; ; 1 A.F.L.z.A.L.L.U.L.L.U.L.P.L.L.",
"z.z.z.z.z.z.z.z.z.z.z.z.z.z.z.z.z.z.z.z.z.-  .#X,X-X$X$X4.4 z.z.z.z.z.z.z.z.z.z.z.z.z.z.z.z.z.m.",
"m.m.m.m.N.N.z.m.m.m.m.m.m.N.m.m.M.m.z.m.m.% f  .-X+Xq.$X4.4 z.z.m.m.m.m.m.m.m.m.m.m.z.m.m.m.m.m.",
"S.N.A.V.V.V.z.m.N.V.V.V.V.V.V.V.C.V.z.N.V.  % 4 &Xq.p $X4.4 z.M.A.A.A.A.m.A.A.A.A.A.z.m.m.A.V.m.",
"S.K.K.K.K.K.z.m.V.G.K.K.S.K.K.K.K.K.z.m.z.    @ t.C & $X4.4 z.N.A.F.F.K.F.F.F.L.F.L.m.m.A.D.K.F.",
"K.L.L.L.K.K.m.N.G.K.K.K.K.K.L.L.K.L.z.{ J o q g t.j & %X4.4 z.S.F.L.L.J.L.L.L.L.L.L.m.A.F.L.K.L.",
"L.L.L.L.K.L.m.V.K.K.K.K.L.I.L.L.K.L.g.F 1 @ g #.=.x & *X7.4 z.S.L.L.L.L.L.L.L.I.L.I.m.A.L.L.L.L.",
"N.z.z.z.z.z.z.z.z.z.z.z.m.z.z.z.z.z.g.Z @ =.=.1.p w.:X;X7.4 z.z.z.z.z.z.z.z.z.z.z.z.z.z.z.z.z.z.",
"m.z.z.m.m.m.m.m.m.m.m.m.z.m.m.z.m.m.l.S $ j j j e.@X<X:X7.4 M.M.m.m.m.m.z.m.m.m.m.m.m.m.m.m.m.m.",
"z.m.m.S.V.S.V.N.V.S.V.S.z.m.V.N.A.A.z.H ; @ @ @ 2X3X3X>X9.- A.A.A.A.A.F.z.m.m.A.A.A.A.A.A.A.A.A.",
"z.N.G.S.S.K.K.K.K.K.K.K.z.m.V.K.F.F.F.F.L.0 0.=X7X7X8X=X0.9 F.L.F.K.J.K.m.m.G.A.F.F.K.K.L.F.J.K.",
"m.N.K.K.K.L.K.L.K.K.L.L.m.N.G.K.L.L.L.L.L.W o.0.6X6X6X0.o.W L.L.L.L.L.L.b.V.F.K.L.L.L.L.L.L.L.L.",
"z.N.K.K.L.L.L.I.L.K.L.L.z.S.K.L.L.L.L.I.L.m.W 9 4X6X4X0 W m.L.L.L.L.L.L.z.A.J.L.L.I.L.L.L.L.L.L.",
"z.z.z.z.z.z.z.z.z.z.z.z.z.z.z.z.z.z.z.z.z.k.Z # 8X8X7X@ D k.z.z.z.z.z.z.z.z.z.z.z.z.z.z.z.z.z.z.",
"m.N.m.m.m.m.z.z.z.m.m.m.N.N.m.m.m.m.z.z.z.k.D @ 8X8X7X@ Z k.z.b.m.m.m.m.m.m.m.m.m.m.z.b.m.m.m.m.",
"V.V.S.V.S.N.z.m.N.A.m.N.A.V.V.S.A.A.z.m.m.m.G ; 8X8X8X@ D z.b.m.m.A.A.A.A.A.A.A.A.A.z.b.m.A.A.A.",
"S.K.K.K.K.K.z.m.V.K.K.K.K.S.G.K.L.F.z.A.F.m.H $ 8X8X8X$ H A.z.B.F.F.F.L.F.F.L.K.L.L.m.B.F.G.F.F.",
"K.K.L.L.L.L.m.N.K.K.K.L.L.L.L.L.L.L.z.V.K.N.J ; 8X8X8X$ J C.m.V.F.L.L.F.L.L.L.L.L.L.m.V.F.K.K.L.",
"K.L.L.I.L.I.z.V.K.K.L.K.K.L.I.L.L.L.z.S.K.S.J @ 8X8X8X$ Y C.z.V.L.P.L.L.L.L.L.L.L.L.z.A.L.L.L.L.",
"z.z.z.z.z.z.z.z.z.z.z.z.z.z.z.z.z.z.z.z.z.g.F 2 @ $ $ 1 F g.z.z.z.z.z.z.z.z.z.z.z.z.z.z.z.z.z.z.",
"z.m.m.m.N.N.m.m.m.m.m.m.z.z.m.m.m.m.m.m.m.z.} P Z F H J } z.m.m.m.m.m.m.z.z.m.m.m.m.m.m.m.m.m.m.",
"z.m.m.S.N.V.V.V.V.N.S.S.z.N.V.N.N.V.A.A.S.V.N.m.g.l.z.z.N.V.V.N.A.A.A.A.z.m.m.A.A.A.A.A.A.A.A.A.",
"z.N.G.S.K.K.K.G.K.K.K.K.z.N.V.K.G.K.S.K.K.K.K.L.z.N.G.G.S.G.K.K.L.F.L.L.z.m.F.F.F.F.F.K.K.F.F.L.",
"z.N.G.K.L.I.L.L.K.K.L.L.m.N.K.K.K.K.K.L.L.K.L.L.z.V.K.S.K.K.K.K.L.L.L.L.m.A.F.L.L.L.L.L.L.F.L.L.",
"m.V.K.K.L.L.L.L.L.K.L.I.z.V.K.K.I.L.L.I.L.L.L.L.z.C.K.L.E.L.L.L.L.L.L.L.z.A.L.L.L.L.I.L.L.R.U.L."
};
