/* XPM */
static char *exit3[] = {
/* columns rows colors chars-per-pixel */
"48 48 253 2",
"   c #000000",
".  c #010000",
"X  c #030303",
"o  c #040202",
"O  c #070504",
"+  c #060606",
"@  c #070707",
"#  c #080400",
"$  c #080401",
"%  c #080504",
"&  c #080505",
"*  c #0F0701",
"=  c #0F0802",
"-  c #080808",
";  c #090909",
":  c #0A0A0A",
">  c #0B0B0B",
",  c #0D0B0A",
"<  c #0E0B09",
"1  c #0F0B09",
"2  c #0E0B0A",
"3  c #0E0B0B",
"4  c #0C0C0C",
"5  c #0E0E0E",
"6  c #0F0F0F",
"7  c #110801",
"8  c #110802",
"9  c #110902",
"0  c #120A03",
"q  c #170C05",
"w  c #170D06",
"e  c #100D0C",
"r  c #18110E",
"t  c #151515",
"y  c #201002",
"u  c #211104",
"i  c #2D1F1A",
"p  c #331904",
"a  c #331A05",
"s  c #2D201B",
"d  c #30221D",
"f  c #31221C",
"g  c #31221D",
"h  c #31221E",
"j  c #31231F",
"k  c #32231D",
"l  c #32231E",
"z  c #32241F",
"x  c #36231B",
"c  c #36241C",
"v  c #252525",
"b  c #272525",
"n  c gray15",
"m  c #272727",
"M  c #2C2421",
"N  c #2F2522",
"B  c #2E2624",
"V  c #292827",
"C  c #2E2827",
"Z  c #282828",
"A  c #292929",
"S  c #2B2B2B",
"D  c #2D2A29",
"F  c #2C2A2A",
"G  c #2C2B2B",
"H  c #2C2C2C",
"J  c #2D2D2D",
"K  c #2E2E2E",
"L  c #352520",
"P  c #322C2A",
"I  c #382D29",
"U  c #33302F",
"Y  c #303030",
"T  c #313131",
"R  c #323232",
"E  c #353535",
"W  c #363636",
"Q  c #373737",
"!  c #3A3635",
"~  c #3A3736",
"^  c #383838",
"/  c #393939",
"(  c #3A3A3A",
")  c gray24",
"_  c #3E3E3E",
"`  c #3F3F3F",
"'  c #4C2B13",
"]  c #5D2E07",
"[  c #5E300A",
"{  c #5E300B",
"}  c #4A342C",
"|  c #53392F",
" . c #54392F",
".. c #543A2F",
"X. c #533930",
"o. c #543A30",
"O. c #5A3D32",
"+. c #5A3D33",
"@. c #5A3E33",
"#. c #5B3E33",
"$. c #5B3E34",
"%. c #5B3F34",
"&. c #5B3F35",
"*. c #5C3F35",
"=. c #663207",
"-. c #62320C",
";. c #663208",
":. c #663309",
">. c #66330A",
",. c #66340B",
"<. c #67340B",
"1. c #67350C",
"2. c #67350D",
"3. c #6E370A",
"4. c #6E370B",
"5. c #6F380B",
"6. c #6F390D",
"7. c #6A3810",
"8. c #6F3C15",
"9. c #5C4036",
"0. c #5C4137",
"q. c #604339",
"w. c #64463B",
"e. c #404040",
"r. c #414141",
"t. c #424242",
"y. c #444444",
"u. c #454545",
"i. c #464646",
"p. c #474747",
"a. c #484847",
"s. c #484848",
"d. c #494949",
"f. c #4A4A4A",
"g. c #4B4B4B",
"h. c #4C4C4C",
"j. c #4D4D4D",
"k. c #4E4E4E",
"l. c #4F4F4F",
"z. c #505050",
"x. c #515151",
"c. c #525252",
"v. c #535353",
"b. c #545454",
"n. c #555555",
"m. c #565554",
"M. c #565656",
"N. c #575757",
"B. c #585554",
"V. c #585858",
"C. c #595959",
"Z. c #5A5A5A",
"A. c #5B5B5B",
"S. c #5C5C5C",
"D. c #5D5D5D",
"F. c #5E5E5E",
"G. c #5F5F5F",
"H. c #606060",
"J. c #636161",
"K. c #626262",
"L. c #636363",
"P. c #646464",
"I. c #666666",
"U. c #686868",
"Y. c #696969",
"T. c #6C6C6C",
"R. c #6D6D6D",
"E. c #6E6E6E",
"W. c #6F6F6F",
"Q. c #707070",
"!. c #717171",
"~. c #727272",
"^. c #737373",
"/. c #747474",
"(. c #757575",
"). c #767676",
"_. c #777777",
"`. c #787878",
"'. c #797979",
"]. c #7A7A7A",
"[. c #7B7B7B",
"{. c #7C7C7C",
"}. c #7D7D7D",
"|. c #7E7E7E",
" X c #7F7F7F",
".X c #9A4E11",
"XX c #AB540E",
"oX c #AC5611",
"OX c #AD5813",
"+X c #AD5814",
"@X c #BA5B0D",
"#X c #BA5B0E",
"$X c #BB5B0F",
"%X c #BA5C0E",
"&X c #BA5C0F",
"*X c #BB5C0F",
"=X c #BA5C10",
"-X c #BB5C10",
";X c #BB5D11",
":X c #BD5E12",
">X c #BD5F13",
",X c #BC6014",
"<X c #BC6015",
"1X c #BD6014",
"2X c #BD6015",
"3X c #BD6115",
"4X c #BD6016",
"5X c #BE6116",
"6X c #CB630C",
"7X c #CB630D",
"8X c #CB630E",
"9X c #CB630F",
"0X c #CB640F",
"qX c #C46315",
"wX c #C56314",
"eX c #C56417",
"rX c #C66416",
"tX c #C5681E",
"yX c #CB6310",
"uX c #CB6410",
"iX c #CB6411",
"pX c #CB6511",
"aX c #CB6512",
"sX c #CC6411",
"dX c #CC6512",
"fX c #CC6513",
"gX c #CD6512",
"hX c #CC6612",
"jX c #CD6613",
"kX c #CC6614",
"lX c #CD6614",
"zX c #CD6714",
"xX c #CE6715",
"cX c #CC6817",
"vX c #CD6816",
"bX c #CD6817",
"nX c #CE6916",
"mX c #CE6917",
"MX c #CE6918",
"NX c #CE6A18",
"BX c #D16B19",
"VX c #D06A1A",
"CX c #D66F1F",
"ZX c #CB6E26",
"AX c #D67020",
"SX c #D67120",
"DX c #DE7829",
"FX c #DE782A",
"GX c #808080",
"HX c #818181",
"JX c #828282",
"KX c #838383",
"LX c #848484",
/* pixels */
"g.g.g.g.g.g.g.g.g.g.g.g.g.g.g.g.g.g.g.g.g.g.g.g.g.g.g.g.g.g.g.g.g.g.g.g.g.g.g.g.g.g.g.g.g.g.g.g.",
"x.g.x.g.x.x.g.g.g.x.x.g.x.x.x.g.g.x.g.g.x.g.x.x.g.x.x.g.x.x.g.g.l.z.l.z.l.l.z.x.z.z.g.g.l.l.l.g.",
"n.n.n.x.x.n.g.x.x.x.n.x.n.x.n.x.x.n.g.x.x.n.x.x.x.x.n.x.n.x.g.x.v.z.x.z.b.b.b.b.b.b.g.l.z.v.x.z.",
"n.A.A.A.A.A.g.x.n.n.A.A.A.A.A.A.A.A.g.x.n.n.A.A.A.A.n.A.A.A.g.x.b.A.A.V.n.V.A.V.A.S.g.x.A.n.A.V.",
"A.A.A.A.A.G.g.n.A.A.A.A.G.A.G.A.A.A.g.x.A.A.A.A.A.A.A.A.A.A.x.n.V.A.A.A.A.A.A.S.S.S.g.v.A.A.S.A.",
"A.A.A.A.A.A.g.n.A.A.A.A.G.A.A.A.A.A.g.x.A.A.A.A.A.A.A.A.A.A.x.n.A.A.A.A.S.G.A.S.S.S.g.b.S.S.S.S.",
"g.g.g.g.g.g.g.g.g.g.g.g.x.g.g.g.g.g.p.p.p.t.t.t.g.p.t.p.t.t.p.p.g.g.g.g.g.g.g.g.g.g.g.g.g.g.g.g.",
"g.x.x.g.x.x.x.x.g.x.x.x.g.g.g.x.x.x.m v m m m m m m m m m m S Q g.z.z.x.g.z.l.z.z.z.z.z.z.z.z.z.",
"g.x.n.g.x.n.x.x.n.x.n.x.g.x.n.x.x.g.X X - X - X X X X - X - 4 J g.b.n.M.g.z.b.b.b.b.b.b.b.b.b.b.",
"g.x.n.A.A.A.A.A.A.A.A.A.g.x.n.p.J t ^.W.^.^.'.'.'.}.}.KXKXKX'.g.t b.n.S.g.z.b.V.V.V.A.A.V.V.A.S.",
"g.x.A.A.A.A.G.A.A.A.A.A.g.x.A.S R / W.W.^.^.^.^.'.'.}.}.HXKX}.P.p.T p.V.g.v.V.S.A.A.S.S.S.A.S.S.",
"x.n.A.A.A.A.A.G.A.A.A.A.g.x.A.t Q G.^.W.^.^.^.^.'.'.}.}.}.KXHXHX[.5 E M.g.n.A.A.A.A.G.G.S.S.S.S.",
"g.g.g.g.g.g.g.g.x.g.g.g.p.m X ^.^.W.Y.^.W.W.^.W.^.'.'.}.}.HXKXHXHX`.t.> g.g.g.g.g.g.g.g.g.g.g.g.",
"x.g.x.g.g.x.g.g.g.x.x.g.g.m X ^.^.^.W.^.^.W.^.W.^.^.^.'.'.}.}.HXKX`.t.- l.z.z.z.l.l.g.g.l.l.l.l.",
"n.x.n.x.n.n.g.g.x.x.x.g.g.S X ^.W.W.Y.^.Y.W.W.^.^.^.^.'.'.'.HX}.LX`.t.> b.b.b.b.n.n.g.z.b.z.v.z.",
"A.A.n.A.A.A.g.x.A.A.A.A.x.S X ^.W.^.W.W.W.W.W.W.^.^.^.^.'.^.'.'.}.).t.> n.M.V.S.A.A.g.x.V.n.A.A.",
"S.S.Z.S.S.S.j.x.V.S.Z.Z.n.J @ !.^.W.W.W.^.W.W.W.^.^.W.~.^._.'.'.[.^.r.> S.S.G.S.S.A.l.b.V.A.A.S.",
"S.S.S.S.S.S.l.b.Z.S.S.S.Z.J @ !.W.W.W.W.W.^.W.W.W.T.^.^.^.^.`._.].W.) > S.S.A.G.A.A.g.n.A.S.A.A.",
"z.j.g.g.j.j.g.j.j.g.g.g.i.A 4 o o O P.P.Y.G.Y.Y.P.P.Y.U.Y.Y.G./ 4 o O X g.g.g.g.g.g.g.g.g.g.g.g.",
"j.j.l.z.z.l.l.l.l.l.l.l.d.^ S X r i / Q / Q ~ / Q Q Q ~ ~ / ! I N o t v g.l.z.g.z.z.z.z.l.l.l.z.",
"g.l.l.b.v.b.b.v.z.v.b.b.g.g.s.+ i | - - - - - - - - - - - - 4 L  .% m p.g.z.x.z.v.b.b.b.b.b.b.b.",
"g.x.n.Z.V.V.N.Z.S.Z.S.S.k.v.N.x.R 4 O.O.*.O.O.O.0.%.%.*.%.%.X.k 4 S.S.S.g.z.V.V.V.V.V.A.V.A.S.S.",
"l.x.Z.Z.Z.Z.S.S.S.S.S.S.h.x.C.V.g.Q f k k k f f k k k k k k k D S G.A.A.g.v.A.S.A.A.A.S.S.S.A.A.",
"j.x.Z.S.L.S.S.S.S.S.S.S.h.b.A.G.A.x.O X % % % % % % % % % % , D z.G.A.A.g.n.S.G.S.S.S.G.S.S.A.G.",
"g.g.g.g.g.g.g.g.g.g.g.g.g.g.f.} v , 1XwXVX9X0X9X7X7XyXkXcXnXoX-.q y.p.g.g.g.g.g.g.g.g.g.g.g.g.g.",
"l.l.z.l.l.z.g.j.l.z.z.l.l.l.l.v s f 5..XeXzX0XfX7X7XyXfXkXcX-.' x S / g.z.z.g.z.g.z.g.z.l.z.z.g.",
"b.v.b.v.b.n.g.l.x.x.v.x.v.v.n., s o.y 5.1XfX9XzX7X9XfXfXfXfXw x  ., J g.x.v.v.v.n.n.g.g.x.z.g.n.",
"Z.V.N.Z.Z.Z.g.z.v.A.V.A.n.A.A.% k 0.w -.OXmXcXfX7X7XfXcXwX:Xe L 0.- J v.n.A.A.A.A.A.g.z.A.A.A.A.",
"S.S.S.S.S.S.l.v.A.A.A.A.A.A.A.% k 9.c ' -.NXcXfX7X7XfXeX.X6.c } q.- P B.A.A.A.A.A.A.g.v.V.A.A.S.",
"S.S.S.S.S.S.j.b.S.A.A.A.G.A.A.X k 0...c w BXfXfXfXyXyX5X6.y 0.q.w.- U v.A.A.H.A.A.A.x.n.A.S.A.A.",
"j.g.g.g.g.g.g.g.g.g.g.g.x.g.g., k o.| s X FXDXDXDXDXFXZX8.8 %.%.0.4 S p.g.g.g.g.g.g.g.g.g.g.g.z.",
"g.j.l.l.l.l.l.l.g.z.z.x.g.z.l.V C s s r o AXAXCXCXCXCXtX7.8 k k k S ) g.g.z.x.g.x.x.g.z.z.z.x.x.",
"j.l.v.x.x.n.b.v.b.b.n.b.j.j.x.p.S , X o o kXfXcXfXjXxX3X>.8 % O % g.x.v.g.z.x.x.v.v.n.n.n.x.n.v.",
"g.x.V.V.V.Z.Z.Z.Z.Z.Z.S.j.x.Z.V.A.A.n.G X 7XyXyX8 =.@X$X=.8 A.A.A.A.A.A.g.x.n.A.A.A.A.A.A.A.A.A.",
"l.x.V.Z.S.Z.S.S.Z.S.S.S.l.x.V.Z.S.S.b.D ; iXfXyX8 =.$X$X:.8 A.A.A.A.A.A.g.x.n.S.A.S.A.A.A.A.A.A.",
"j.b.S.S.S.S.S.S.Z.S.S.S.j.b.Z.S.A.S.b.J - fXyXyX8 >.@X$X<.0 A.A.G.A.A.A.z.n.A.S.S.A.A.A.H.A.A.A.",
"g.g.g.g.g.g.g.g.g.g.g.g.g.g.g.g.g.g.p.m X fXfXfX8 :.;X>X,.8 g.g.x.g.g.g.g.g.g.g.g.g.g.g.g.g.g.g.",
"l.l.l.z.x.l.g.j.z.j.l.l.l.l.l.l.l.l.t.m % nXfXfX8 =.@X5X,.8 g.z.g.z.z.x.g.z.z.x.z.x.g.z.z.z.z.g.",
"b.b.b.b.v.b.g.l.v.x.x.b.v.x.x.b.x.n.p.m - NXkXfX8 =.@X5X,.8 g.g.x.v.v.x.n.v.v.x.v.v.g.g.z.x.v.x.",
"n.Z.Z.Z.Z.Z.j.x.N.V.V.Z.Z.Z.S.Z.A.A.t.m X $X;X5X* [ +XXX] = g.x.A.V.A.n.V.A.S.A.A.S.g.x.V.n.A.S.",
"Z.S.S.S.S.S.l.x.Z.Z.Z.S.Z.S.S.S.A.H.p.v X =.>.>.% a [ ] p O j.x.A.A.A.A.A.A.A.A.A.A.g.x.S.A.A.A.",
"S.S.S.S.S.S.j.b.Z.S.S.S.S.S.S.S.A.A.y.m X 8 8 8 o O = = O o l.b.A.A.A.S.A.A.H.A.A.A.g.n.A.S.A.S.",
"j.j.g.g.g.g.g.g.g.g.g.g.g.g.l.g.g.g.g.g.g.g.g.g.g.g.g.g.g.g.g.g.g.g.g.g.g.g.g.g.g.g.g.g.g.g.g.g.",
"j.l.j.l.l.x.l.l.l.l.l.l.g.j.l.z.l.z.x.g.x.x.z.z.g.g.z.z.g.g.l.l.x.g.z.z.g.x.g.x.x.x.x.z.x.g.z.z.",
"g.j.z.b.b.b.b.v.b.b.b.n.g.j.x.v.z.x.v.x.v.v.n.n.g.g.v.z.z.v.b.v.n.x.n.v.g.z.x.x.x.x.v.n.n.x.n.v.",
"g.l.b.Z.N.Z.Z.Z.Z.Z.Z.S.g.x.V.Z.A.A.A.A.S.A.S.A.g.x.A.A.Z.Z.Z.Z.A.V.A.A.g.x.n.V.S.V.A.A.A.A.A.A.",
"j.x.N.Z.S.G.S.G.S.Z.S.S.g.v.V.Z.S.A.A.A.S.A.A.A.g.x.V.A.S.S.S.S.A.A.S.A.g.v.S.A.S.A.A.H.A.A.A.A.",
"j.n.Z.S.S.S.S.S.S.S.S.S.g.v.S.Z.S.H.A.H.A.A.G.A.g.x.A.A.S.Z.S.S.A.A.A.S.g.n.A.A.A.A.A.H.A.G.A.S."
};
