/* XPM */
static char *exit2[] = {
/* columns rows colors chars-per-pixel */
"48 48 123 2 ",
"   c black",
".  c #0A0A0A",
"X  c #19110E",
"o  c #131313",
"O  c #161616",
"+  c #31201A",
"@  c #31211B",
"#  c #32211C",
"$  c #32221C",
"%  c #32221D",
"&  c #33241E",
"*  c #262626",
"=  c #2F2724",
"-  c #282828",
";  c #2A2A2A",
":  c #2B2B2B",
">  c #2C2C2C",
",  c #2D2D2D",
"<  c #2E2E2E",
"1  c #2F2F2F",
"2  c #362620",
"3  c #3B2B25",
"4  c #342C29",
"5  c #323232",
"6  c gray22",
"7  c #3A3A3A",
"8  c #3B3B3B",
"9  c #3C3C3C",
"0  c #4F2D17",
"q  c #67340B",
"w  c #67350B",
"e  c #68350C",
"r  c #69360D",
"t  c #6C3A12",
"y  c #6E3B14",
"u  c #6F3C15",
"i  c #703D15",
"p  c #703D16",
"a  c #493128",
"s  c #4A3229",
"d  c #4C352C",
"f  c #614034",
"g  c #614135",
"h  c #624135",
"j  c #624236",
"k  c #624237",
"l  c #634237",
"z  c #624337",
"x  c #634337",
"c  c #634338",
"v  c #634438",
"b  c #644439",
"n  c #644539",
"m  c #64453A",
"M  c #64463A",
"N  c #65463A",
"B  c #65473B",
"V  c #444444",
"C  c #454545",
"Z  c #4B4B4B",
"A  c gray30",
"S  c #4F4F4F",
"D  c #505050",
"F  c #515151",
"G  c gray32",
"H  c #535353",
"J  c #545454",
"K  c #555555",
"L  c #565656",
"P  c #575757",
"I  c #585858",
"U  c #595959",
"Y  c #5A5A5A",
"T  c #5B5B5B",
"R  c #5C5C5C",
"E  c #5D5D5D",
"W  c #5E5E5E",
"Q  c gray44",
"!  c #727272",
"~  c #737373",
"^  c #747474",
"/  c #767676",
"(  c #777777",
")  c #787878",
"_  c #797979",
"`  c #7B7B7B",
"'  c #7D7D7D",
"]  c #7E7E7E",
"[  c #9A4E10",
"{  c #9B4F11",
"}  c #A75B20",
"|  c #CD6815",
" . c #CE6916",
".. c #D16C19",
"X. c #D16C1A",
"o. c #D36E1D",
"O. c #D46F1E",
"+. c #D56F1F",
"@. c #D5701F",
"#. c #D67020",
"$. c #D77222",
"%. c #D87323",
"&. c #DC7627",
"*. c #DD7729",
"=. c #DE782A",
"-. c #DF792A",
";. c #DF792B",
":. c #E07A2B",
">. c #E07A2C",
",. c gray51",
"<. c #848484",
"1. c gray52",
"2. c #868686",
"3. c gray53",
"4. c #898989",
"5. c #8B8B8B",
"6. c #8C8C8C",
"7. c #8D8D8D",
"8. c #8F8F8F",
"9. c #909090",
"0. c gray58",
"q. c #959595",
"w. c #969696",
/* pixels */
"Z Z Z Z Z Z Z Z Z Z Z Z Z Z Z Z Z Z Z Z Z Z Z Z Z Z Z Z Z Z Z Z Z Z Z Z Z Z Z Z Z Z Z Z Z Z Z Z ",
"S S S S D S Z S S S S S S S S S S D Z S S S S S S S S S D S Z S S S S S S S S D D D Z S S S S S ",
"K K K K K K Z S K D K K K K K K K K Z S K K K K K K K K K K Z S K K K K K K K K K K Z S K K K K ",
"K Y Y Y Y Y Z D Y K Y Y Y Y Y Y Y Y Z D K Y K Y K Y Y Y Y Y Z D K K Y Y K Y Y Y Y Y Z D K P K Y ",
"R R R R R R S K Y Y R R Y R R R Y R Z D Y R R R R R R R Y W S D R R R R R R R R R R Z D R Y R R ",
"W W W R R R Z K R R R W R W W R W R S D W R R R W W R R R R S K R R R R W W W R W R Z K R R W R ",
"S S Z Z Z Z Z Z Z Z Z Z S Z S Z S S Z Z S Z Z Z S S Z Z Z Z Z Z Z Z Z Z S Z Z Z S Z Z Z S Z Z Z ",
"Z S S S S S S S S S S S Z S D D 6 * * * * * * * * * * * * * S D S S S S Z S S S S S S S D D S D ",
"Z S D K K K K K K K K K Z S K D :                           K Y K K K K S S K K K K K K K K K K ",
"Z S Y K Y Y Y K Y Y Y Y Z D Y   6 ` ' ' ' ,.2.2.8.8.9.0.0.0.  , Y Y Y Y Z D K Y Y Y Y Y Y Y Y R ",
"Z K Y R R R R R R R R R Z 9 , 6 Y Q Q ^ ` ` ` ' ,.2.2.5.5.8.V 6 5 R R R Z D R R Y R R R R R R R ",
"Z K R R R W R R W W W R Z *   Q Q Q Q Q Q Q Q ^ ` ' ' 2.,.2.5.V   W W R Z D W R R R W W W R W R ",
"Z Z Z Z Z Z Z Z S Z S Z   6 Q Q Q Q Q Q Q Q Q Q Q Q Q         . o   * Z Z Z Z Z S Z Z Z Z Z Z Z ",
"S S S D D S Z S S S D D   6 Q Q Q Q Q Q Q Q Q Q Q K 6 @ @ @ @ 2 3   * D S S S S D D Z S D D S S ",
"K K K K K K Z D K D K D   6 Q Q Q Q Q Q Q Q Q Q Q 6   j j j j j j   : K K K K K K K Z S K D K K ",
"Y Y K Y Y Y Z D K Y Y Y   6 Q Q Q Q Q Q Q Q Q Q   @ j j j j f j j   : Y K Y Y Y Y Y Z D Y K Y Y ",
"R R Y R R R S D R R Y Y   6 Q Q Q Q Q Q Q Q J 6 @ a j j a @ f j j   , R R R R R R R S K Y Y R R ",
"W W R R R R Z K W R R R   6 Q Q Q Q Q Q Q Q 6   f j j j @   j j j   , W W W R R W W Z K R R R R ",
"S S Z Z S S Z Z S Z Z Z   6 Q Q Q Q Q Q Q Q 6   f f f j @   f f f   * Z S Z Z Z Z Z Z Z Z Z Z S ",
"Z S S S S S S S S S D S * 5 6 Q Q Q Q Q Q 6 4 @ j j j j a @ f f j   : D Z S S S S S D S S S S D ",
"Z S D K K K K K K K K K Z *   Q Q Q Q Q Q   @ j v b v j j v j j j   , K S D K J K K K K K K K K ",
"Z S Y K Y R K Y Y Y Y Y S D K   6 Q Q Q Q   % j b b B b c j j @   Y Y Y Z D K Y K Y Y R Y Y R R ",
"S D Y R R R R R R W R R Z D R , 5 6 6 6 6   X % & & % % % @ @ = 5 R R R Z D R R Y R R R R R W R ",
"Z K W R W W W R W W R R S K R R ,                             , W W R R Z K R R R R R W R R W W ",
"Z Z Z Z Z Z Z Z Z Z Z Z Z Z Z Z Z Z Z *   | | | | | |   * Z Z Z Z Z Z Z Z Z Z Z Z Z Z Z Z Z Z Z ",
"S S S D D D Z S S S S S S S S D D D Z *   | [ w | { w   : S Z S S S S S S S S S S S Z S S S S S ",
"K K K K K K Z S D K K K K K K K K K Z *   | w   | e     : K Z S K K K K K K K K K K Z S K D K H ",
"K Y Y Y Y Y Z D Y K Y Y K Y Y Y Y Y Z *   | w   B &     , Y Z D K Y K Y P Y Y Y Y Y S D P Y Y Y ",
"R W R R Y W S D R R Y R R W R R R R S *   X.w   b d %   O , S D R R Y R R R R R Y W S D R R Y R ",
"W W R R R R S K R R R W R W R R W W S *   X.r   v b b       Z K R R R W W W W R R R Z K R R R W ",
"S Z Z Z Z Z Z Z Z Z Z Z S Z Z Z Z Z Z *   o.o.@.  % j j @   Z Z Z Z Z Z S Z Z Z Z Z Z Z Z Z Z S ",
"Z S S S S S S S S S S D Z S S S S S S *   @.@.#.t 0 @ % X   S S S S S S Z S S S S S D S S D S D ",
"Z S D K K K K K K K K K S S D K K K K >   #.#.%.%.t         K K K K K K Z S D D K K K K K K K K ",
"Z D Y K Y Y Y K Y Y Y R Z D K Y Y Y K ,   >.>.:.:.:.>.  , Y Y Y Y Y Y Y S D Y Y K Y Y R Y Y Y Y ",
"Z K Y Y R R R R R R W W S K Y Y R R R V , p } ;.>.} p , V R R R R W R R Z D Y R R R R R R R R R ",
"Z K R R W R R R R R W W Z K R R W R R R R   p *.;.p   R R W R R W W W R S K R R R R W W W W W W ",
"Z Z Z Z Z Z Z Z Z Z Z Z Z Z Z Z Z Z Z Z Z   u ;.>.p   Z Z Z Z Z S Z Z Z Z Z Z Z Z Z Z Z S Z Z Z ",
"S S S S S D Z S S S S S S S S S S S Z S S   p ;.>.p   S D D Z S S S S S S S S S S S Z S S S S S ",
"K K K K K K Z S D K K K K K K K J K S D D   p >.>.p   K K K Z D D K K K K K K K K K Z S K D H H ",
"Y Y Y Y Y Y Z D Y K K Y Y K Y Y Y Y Z D Y   p >.>.p   Y Y Y Z D Y K Y P K Y Y Y Y Y S D Y K Y Y ",
"R R R R R R S D Y Y R R R R R R R R S D R   p >.>.p   R R R S D R R R R R R R R Y R Z D R R R R ",
"W R W R R R Z K R R R R W W W W R R S D R   p >.>.p   R W R Z D R R R R W W W R W R Z H R W R R ",
"S S Z Z S Z Z Z S Z Z Z Z Z S S Z Z Z Z S             Z S Z Z Z S Z Z Z S Z Z Z S Z Z Z Z Z S Z ",
"Z S S S S S D D S S D D Z S S S S S S S D : : : * : : S S S S S S S S S Z S S D S S S S S D S S ",
"Z S D K K K K K K K K K Z S D K K K K K K K Y K Z D K D K K K K K K K K Z S D D K K P K K K K K ",
"Z S K K Y Y Y K Y Y R R Z S K Y Y Y K Y Y Y Y R Z D Y Y Y Y Y Y Y Y Y Y S D Y Y K Y Y R Y Y Y Y ",
"S K R Y R R R R R R R R S K Y Y R R R R R R R R Z K Y Y R R R Y W R R R Z D R R Y R R R R R R R ",
"Z K R R W W W W W R R R Z K R R W W R W W R R R Z K R R W R R R W W W R S K R W R R W W W W W R "
};
