/* XPM */
static char *exit4[] = {
/* columns rows colors chars-per-pixel */
"48 48 121 2 ",
"   c black",
".  c #0A0A0A",
"X  c #19120F",
"o  c #131313",
"O  c #1D1512",
"+  c gray11",
"@  c #341A06",
"#  c #31201A",
"$  c #31211B",
"%  c #31211C",
"&  c #32211C",
"*  c #32221C",
"=  c #32221D",
"-  c #33241E",
";  c #262626",
":  c #282828",
">  c #2A2A2A",
",  c #2B2B2B",
"<  c #2D2D2D",
"1  c gray18",
"2  c #2F2F2F",
"3  c #3A2A24",
"4  c #342C29",
"5  c #323232",
"6  c gray22",
"7  c #3A3A3A",
"8  c #3C3C3C",
"9  c gray24",
"0  c #67340B",
"q  c #67350B",
"w  c #68350C",
"e  c #69360D",
"r  c #6A370F",
"t  c #6A380F",
"y  c #6B3810",
"u  c #6C3911",
"i  c #6C3A12",
"p  c #703D16",
"a  c #493128",
"s  c #493229",
"d  c #503623",
"f  c #614034",
"g  c #614135",
"h  c #614136",
"j  c #624136",
"k  c #624236",
"l  c #634237",
"z  c #624337",
"x  c #634337",
"c  c #634438",
"v  c #644439",
"b  c #644539",
"n  c #64453A",
"m  c #65463B",
"M  c #65473B",
"N  c #444444",
"B  c gray27",
"V  c #4A4A4A",
"C  c #4B4B4B",
"Z  c gray30",
"A  c #4F4F4F",
"S  c #505050",
"D  c #515151",
"F  c gray32",
"G  c #535353",
"H  c #545454",
"J  c #555555",
"K  c #565656",
"L  c #575757",
"P  c #585858",
"I  c #595959",
"U  c #5A5A5A",
"Y  c #5B5B5B",
"T  c #5C5C5C",
"R  c #5D5D5D",
"E  c #5E5E5E",
"W  c #696969",
"Q  c gray44",
"!  c #737373",
"~  c #747474",
"^  c #767676",
"/  c #777777",
"(  c #787878",
")  c #797979",
"_  c #7B7B7B",
"`  c #7D7D7D",
"'  c #7E7E7E",
"]  c #9B4F11",
"[  c #A15519",
"{  c #CD6815",
"}  c #CE6916",
"|  c #D06B18",
" . c #D16C1A",
".. c #D36E1D",
"X. c #D46F1E",
"o. c #D5701F",
"O. c #D67020",
"+. c #D77121",
"@. c #D87222",
"#. c #D87323",
"$. c #DC7628",
"%. c #DD7729",
"&. c #DE7829",
"*. c #DE782A",
"=. c #DF792A",
"-. c #DF792B",
";. c #E07A2B",
":. c #E07A2C",
">. c #808080",
",. c gray51",
"<. c #848484",
"1. c gray52",
"2. c gray53",
"3. c #898989",
"4. c #8B8B8B",
"5. c #8D8D8D",
"6. c #8E8E8E",
"7. c #909090",
"8. c #929292",
"9. c gray58",
"0. c #969696",
/* pixels */
"C C C C C C C C A C C C C C C C C C C C C C C C C C C C C C C C C C C C C C C C C C C C C C C C ",
"A A A A S A C A S S A A A A A A A A C A A S A S A A A A S A C A A A A A A A A A A A C A S S A A ",
"J J J J J J C A J S J S J J J J J J C A S J J J J J J J J J C A J J S J S J J J J J C A J S J S ",
"J U U U U U C S U J U U J U U U U U C S U J U U J U U U U U C S J U U U U U U U U U C S U J U U ",
"R R R R R R C S U U U R R R R R R U C S U U U U R R U R U R A S U U U R U R R R R U C S U U R U ",
"R R R R R R A J R R R R R R R R R R C J R R R R R R R R R R C J R R R R R R R R R R C J R R R R ",
"C C C C C C C C C C C C C C C C A C C C A C C C A C C C C C C C C C C C A C A C A C C C A C C C ",
"C A A A A A A A A A A A C A A S A A A 7 ; ; ; ; ; ; ; ; ; ; ; ; ; A A A C A S S A A A A A A A A ",
"C S S J J J J J J J J J C A J J H J J ,                           J J J C A J S S J J J J J J J ",
"C S J U J U U U U U U U A S J J P U   C 9.9.8.8.5.3.<.>.>.>._ _ _   1 U C S J U U U U U U U R U ",
"A S U R U U R R U R R R C S U R N 1 B W 7.4.3.<.<.>.` _ / / / / / 6 5 5 C S U R U U R R U R R R ",
"C J R R R R R R R R R R C J R R 2   3.3.<.>.>.` _ / / W ! ! ! W ! W 7   C J R R R R R R R R R R ",
"C C C C C C C C A C C C C C C   . o         7 Q W ! ! ! W W ! ! ! W ! W   ; C C C C C C C C C C ",
"A A A A A A C A A A A A A A A   O 3 # # = = 4 6 ! ! W W ! ! ! W ! W ! !   : A A S S C A A A A A ",
"J J J J J J C S S J J S J J J   = f f f f f #   ! ! ! ! ! W ! ! ! ! ! W   : J J J J C A S J J S ",
"U J U U U U C S U J U U U U U   $ c f f f c f f   6 ! W ! ! ! W W ! ! !   1 U U U U C S U J U U ",
"R R U R R R A S R U U U R R R   $ f f s # x f f = 4 6 Q Q Q Q Q ! ! W Q   1 R R R R A S R U U R ",
"R R R R R R C J R R R R R R R   = f h $   f f f h =   Q Q Q Q Q W ! ! !   1 R R R R C J R R R R ",
"A C C C C C C C C C C C C C C   $ h h $   f f f h $   Q Q Q Q Q ! ! ! W   ; C C C C C C C C C C ",
"C A A A A A A A A S S A C A A   # h h s = x x f f s = 6 H Q Q Q W ! J 6 ; 7 A A A A A A A S A S ",
"C A S J J J J J J J J J C A S   # f f x x f v v m f f   6 Q Q Q W ! 7   A S G J J J J J J J J J ",
"C A U P J U J U U U U U A S U J ,   f f x m m m m x f   6 Q Q Q !   1 U C S J J J U U U U U U R ",
"A S U U J U R R R R R U C S U R B 5 $ # = = = = = = #   + 7 6 6 7 1 B R C S R U R R T R U R U R ",
"C J R R W R R R R R R R C J R R R R                               R R R C J R R R R R R R R R R ",
"C C C C C C C C C C C C C C C C C C C C C   q } } } } { 0   C C C C C C C C C C C C C C C C C A ",
"A A A S S S C A A A A A A A A A A A C A A   @ w } ] q } 0   C A A A A A A A S S A A C A A A A S ",
"J J J J J J C A J J J J J J J J J J C A J       } q   } q   C A J J J J S J J J J J C A S J J S ",
"J U U U U U C S J J U U J U U U U U A S J       m -   } q   C S J J U U U U J U U U A S J J U U ",
"U R R R U R A S U U U R U R R R U R A 7 1   X - m =   | w   C H U T T U R R U R R R A S U U U R ",
"R R R R R R C J R R R R R R R R R R C ;     = M f =    .w   C J R R R R R R R R R R A J R R R R ",
"A C C C C C C C C C C C A C C C C C C ;   f f v   w o...w   C C C C C C C C C C C C C C C C C C ",
"C A A A A A A A A A A A C A A A A A A :   = = = i [ O.O.y   A A A A S A C A A A A A A A A S S S ",
"C A S J J J J J J J J J C S J S H J J ,         #.#.O.O.y   J J J J J U C A S J J J J J J J J J ",
"C S U J J U U U U U U R C S J U L U L U U   p :.:.:.:.:.p   U U J U U U A S U J J U U U U U U U ",
"A S U U U R U R R R U R A S U R Y R Y Y R 2 d p -.*.*.p d 1 U R R R U R C S U U T R R R R R U R ",
"C J R R R R R R R R R R C J R R R R R R R R 2   $.$.$.  5 R R R R R R R C J R R R R R R R R R R ",
"C C C C C C C C C C C C C C C C C C C C C C ;   :.:.*.  ; A C C C C C C C C C C C C C C C C C C ",
"A A A S A S C A A A A S A A A A A A C A A A :   :.:.:.  ; A C A A S A A A A A A A A C A A A A A ",
"J J J J J J C S S J S J J J J J J J C A H J ,   :.:.:.  : J A A S J J J J J J J J J C A S J J J ",
"J U U U U U C S J P U U U J U U U U C S U L ,   :.:.:.  1 U C S U P J U J U U U U U A S U J J U ",
"U R R R R R A S U R U R R R R R R Y C H Y Y 1   :.:.:.  1 R A S U R U U T R T R R R C S U R U R ",
"R R R R R R C J R R R R R R R R E R C H R R 2   :.:.:.  4 R C S R R R R R R R R R R C J R R R R ",
"A C C C C C C C C C C C C C C C C C C C C C ;           ; C C C A C C C C C C C A C C C C C C C ",
"C A A A A A A A A S A S C A A A A A A A A S 9 , ; > > > 9 S A A A A A S C A A S A A A A A S A S ",
"C A S J J J J J J J J J C A J S H J J J J J J J C A J H J J J J J J J J C A S J G J J J J J J J ",
"C A U J P U U J U U U U C S J U P P L U U U U Y C S P L J U U U U U U U C S U J J P U U U U U U ",
"A S U U R R R R U R R R A S U R T T Y R R T R R C H U U J U U U R R R R C J U U R Y R R U L U R ",
"C J R R R R R R R R R R C J R R E E T E E E E R C H R R W R R R R R R R C J R R R R R R R W R R "
};
