/* XPM */
static char *exit2[] = {
/* columns rows colors chars-per-pixel */
"48 48 196 2",
"   c #000000",
".  c #030303",
"X  c #040202",
"o  c #070504",
"O  c #060606",
"+  c #070707",
"@  c #080504",
"#  c #080605",
"$  c #090706",
"%  c #090909",
"&  c #0F0A09",
"*  c #0E0C0B",
"=  c #0F0C0B",
"-  c #0D0D0D",
";  c #0E0E0E",
":  c #0F0F0F",
">  c #110801",
",  c #110902",
"<  c #120A03",
"1  c #100B09",
"2  c #100D0C",
"3  c #110E0D",
"4  c #180E07",
"5  c #18110D",
"6  c #18110E",
"7  c #111111",
"8  c gray9",
"9  c #181514",
"0  c #211003",
"q  c #211104",
"w  c #231307",
"e  c #2D1F19",
"r  c #31211B",
"t  c #30221C",
"y  c #31221D",
"u  c #31231E",
"i  c #32221C",
"p  c #33231D",
"a  c #33241E",
"s  c #36231B",
"d  c #34231D",
"f  c #35231D",
"g  c #35251E",
"h  c #35251F",
"j  c #252525",
"k  c #262625",
"l  c #272625",
"z  c #262626",
"x  c #272727",
"c  c #2F2724",
"v  c #292929",
"b  c #2A2A2A",
"n  c gray17",
"m  c #2C2C2C",
"M  c #2D2C2C",
"N  c #2D2D2D",
"B  c #2E2E2E",
"V  c #2F2F2F",
"C  c #372620",
"Z  c #302F2E",
"A  c #342C29",
"S  c #3A2A24",
"D  c #303030",
"F  c #313131",
"G  c #323232",
"H  c #373635",
"J  c #363636",
"K  c #373737",
"L  c gray22",
"P  c #393939",
"I  c gray23",
"U  c #3C3C3C",
"Y  c #3E3E3E",
"T  c #4E2D17",
"R  c #483128",
"E  c #493128",
"W  c #4B342B",
"Q  c #52382E",
"!  c #53382E",
"~  c #54392E",
"^  c #593B30",
"/  c #593C31",
"(  c #593D32",
")  c #5A3C31",
"_  c #5A3D32",
"`  c #5B3E33",
"'  c #5B3E34",
"]  c #5D3E33",
"[  c #5C3F34",
"{  c #5C3F35",
"}  c #5D3F34",
"|  c #67340A",
" . c #67350B",
".. c #68360C",
"X. c #6F380B",
"o. c #6E380D",
"O. c #673712",
"+. c #70390C",
"@. c #703D16",
"#. c #5D4035",
"$. c #5F4136",
"%. c #5F4237",
"&. c #794217",
"*. c #604034",
"=. c #614034",
"-. c #614135",
";. c #614136",
":. c #614236",
">. c #624236",
",. c #624337",
"<. c #624338",
"1. c #634338",
"2. c #404040",
"3. c #434343",
"4. c #444444",
"5. c #454444",
"6. c #454545",
"7. c #464646",
"8. c #474747",
"9. c #484848",
"0. c #494949",
"q. c #4A4A4A",
"w. c #4B4B4B",
"e. c #4C4C4C",
"r. c #4D4D4D",
"t. c #4E4E4E",
"y. c #4F4F4F",
"u. c #505050",
"i. c #515151",
"p. c #525252",
"a. c #535353",
"s. c #545454",
"d. c #555555",
"f. c #565656",
"g. c #575757",
"h. c #585858",
"j. c #595959",
"k. c #5A5A5A",
"l. c #5B5B5B",
"z. c #5C5C5C",
"x. c #5D5D5D",
"c. c #5E5E5E",
"v. c #666666",
"b. c #676767",
"n. c #686868",
"m. c #6B6B6B",
"M. c #6D6D6D",
"N. c #6F6F6F",
"B. c #707070",
"V. c #717171",
"C. c #727272",
"Z. c #737373",
"A. c #747474",
"S. c #787878",
"D. c #7A7A7A",
"F. c #7B7B7B",
"G. c #7C7C7C",
"H. c #7D7D7D",
"J. c gray50",
"K. c #974E13",
"L. c #9A4F10",
"P. c #A75B20",
"I. c #B6611E",
"U. c #BD6013",
"Y. c #BC6014",
"T. c #BF6217",
"R. c #BF6317",
"E. c #C36315",
"W. c #C46314",
"Q. c #CB6714",
"!. c #D36E1D",
"~. c #D46F1E",
"^. c #D56F1F",
"/. c #D5701F",
"(. c #CC6E26",
"). c #CC6F27",
"_. c #CE6F27",
"`. c #CD6F28",
"'. c #CE7028",
"]. c #D67020",
"[. c #D77121",
"{. c #D57328",
"}. c #D67429",
"|. c #DE782A",
" X c #DE792A",
".X c #818181",
"XX c #838383",
"oX c #848484",
"OX c #858585",
"+X c #878787",
"@X c #8B8B8B",
"#X c #8C8C8C",
"$X c #8D8D8D",
"%X c #8E8E8E",
"&X c #919191",
"*X c #929292",
/* pixels */
"w.w.w.w.w.w.w.w.w.w.w.w.w.w.w.w.w.w.w.w.w.w.w.w.w.w.w.w.w.w.w.w.w.w.w.w.w.w.w.w.w.w.w.w.w.w.w.w.",
"i.w.i.w.i.w.w.w.i.w.i.w.i.i.i.w.w.i.w.w.w.i.i.i.w.i.w.i.i.i.w.w.i.w.i.t.y.y.y.y.i.i.w.w.y.t.y.y.",
"d.d.i.d.i.d.w.i.i.i.i.d.d.i.d.d.i.d.w.i.d.i.i.d.d.d.d.i.i.d.w.i.i.s.s.s.d.s.s.s.s.s.w.i.s.s.d.d.",
"d.j.j.j.j.z.i.i.j.d.j.z.j.j.z.j.z.j.w.i.d.j.d.j.d.j.j.j.j.j.w.i.d.d.j.j.d.j.h.j.j.j.w.y.d.d.d.j.",
"j.j.z.z.j.z.w.d.j.j.z.z.j.z.j.j.j.j.w.i.j.z.j.j.z.z.z.j.j.z.w.d.j.z.z.z.z.z.z.z.z.z.w.i.j.j.j.z.",
"z.v.z.j.z.z.w.d.z.j.j.z.z.z.z.v.z.z.w.i.j.j.z.z.z.z.j.z.z.z.i.d.z.j.z.j.z.c.z.k.z.j.w.s.z.z.z.z.",
"i.w.w.w.w.w.w.w.w.w.w.w.w.w.w.w.w.w.7.7.w.7.3.3.w.7.7.7.7.7.w.w.w.w.w.w.w.w.w.w.y.w.w.w.w.w.w.w.",
"w.w.i.w.i.i.w.i.i.w.i.i.w.i.w.w.P v j j j j j j j j j j j j i.w.y.y.i.i.w.i.y.t.i.t.i.i.i.i.t.y.",
"w.i.i.d.d.d.i.d.d.i.d.i.w.i.i.w.V - + + + + + # + + + + + + i.d.d.s.s.s.w.i.s.s.d.i.s.d.s.d.d.d.",
"w.i.d.d.j.j.j.d.j.j.j.j.w.w.i.7 Y B.F.G.G..XXXXX#X#X&X*X&X&X7 V w.j.j.z.w.y.d.j.j.j.j.z.h.j.j.z.",
"w.i.z.j.z.z.z.z.j.j.z.z.w.P D Y s.N.Z.Z.S.S.G.G.XXXXXX#X#X&X3.P H z.j.j.w.i.j.k.j.z.c.c.j.z.z.z.",
"w.d.j.j.z.z.z.j.z.v.z.j.7.v - n.n.N.B.B.B.B.B.Z.G.G..XXXXXXXZ.3.7 z.z.z.w.i.z.j.z.j.c.z.z.z.z.j.",
"w.w.w.w.w.w.w.w.w.w.w.w.- P v.B.B.B.B.B.B.B.B.B.N.m.v.o # # # 3 9 + j 7.w.w.w.w.y.w.w.w.w.w.w.w.",
"i.i.i.w.i.w.w.i.i.i.i.w.% P v.B.B.B.B.B.B.B.B.B.m.a.Y r r r t C S + j 8.y.y.y.y.i.t.w.y.w.i.i.i.",
"d.d.d.d.d.d.w.w.d.i.i.i.% K v.B.B.B.B.B.B.B.B.B.b.Y 7 ( ( ^ ( ( ( + v w.d.s.s.s.s.d.w.y.i.i.i.s.",
"j.j.d.j.j.j.w.i.d.j.j.j.% K v.B.B.B.B.B.B.B.m.v.& p ( ,.] ( ,.,.,.+ V s.d.h.z.j.j.z.w.i.z.d.j.z.",
"z.j.j.z.z.z.w.i.j.z.j.j.% L n.B.B.B.B.B.B.m.a.U p E ] ] E p ,.,.[ # V i.j.z.z.z.z.z.w.d.h.d.j.z.",
"z.z.z.z.z.z.i.d.z.j.z.z.% P b.B.B.B.B.B.B.b.Y 7 ^ ] =.^ p 1 =.,.,.+ m d.z.z.z.z.z.z.w.d.z.z.z.j.",
"i.w.w.w.w.y.w.w.w.w.w.w.- K z.B.B.B.B.B.B.z.K 3 =.=.=.] s & =.=.=.+ j 7.y.w.w.w.w.w.w.w.w.w.w.w.",
"y.w.y.y.y.i.i.w.y.i.y.y.x D L B.B.B.B.B.B.L A t ,.,.=.] R s =.=.,.+ x w.w.i.i.w.i.y.y.i.y.y.i.i.",
"w.y.i.s.d.s.s.d.d.d.s.s.3.l - B.B.B.B.B.B.- t ~ ,.,.,.,.] [ =.,.,.# V w.w.i.s.i.d.s.d.s.s.s.s.s.",
"w.i.h.d.j.z.d.j.j.j.j.z.w.y.d.: L z.v.v.v.# e Q [ [ [ ] ^ ( Q t - j.j.h.w.t.d.j.d.j.j.z.j.j.z.z.",
"w.i.d.z.c.z.z.z.z.c.j.j.y.a.f.V D K P L L X 5 e t p t t r r t A V z.z.k.w.s.j.z.h.z.j.z.z.z.z.c.",
"w.d.z.j.c.z.z.z.z.z.z.z.w.s.l.y.V : % % %   X o # # # o # + & b i.c.k.z.w.s.z.k.z.z.z.z.j.z.z.c.",
"w.w.w.w.w.w.w.w.w.w.w.w.w.w.w.w.w.w.7.l + Q.E.Y.Q.W.U.+ j 7.w.w.w.w.w.w.w.w.w.w.w.e.w.e.w.w.w.w.",
"i.i.y.y.i.i.w.w.y.y.y.y.y.y.y.y.i.i.3.j + W.K.o.W.L.+.+ v w.w.w.t.t.i.t.t.i.i.t.t.t.w.t.i.w.i.w.",
"s.d.s.s.s.d.w.w.y.a.a.d.d.d.a.s.s.s.3.j + Y.+.0 U.+.q + V w.w.i.s.i.s.s.d.s.s.s.d.s.w.t.s.i.d.i.",
"d.j.j.j.j.z.w.i.h.f.j.j.d.j.j.j.j.j.3.j + Y.| , [ C 1 # v w.w.y.d.k.h.j.d.j.h.j.j.k.t.i.d.j.j.k.",
"z.z.z.z.j.z.y.i.l.j.j.z.l.z.z.z.z.z.w.j + U..., %.W g . 8 v w.i.j.k.j.k.z.z.z.j.j.z.t.s.j.k.k.z.",
"c.z.z.z.z.z.y.d.j.z.l.z.z.c.z.l.z.z.9.j + U..., %.$.[   . + w.s.k.z.z.z.z.c.z.z.k.z.t.s.k.z.z.c.",
"w.w.w.w.w.w.w.w.w.w.w.w.w.w.w.w.w.w.7.j + ^.^.^.4 g ~ Q e # w.w.w.w.w.w.t.w.w.w.w.e.w.w.w.w.w.t.",
"w.y.w.y.y.y.y.y.y.y.i.i.w.i.w.y.y.y.9.j # ^.^.^.O.T s e 5 X y.i.i.t.i.i.w.t.i.t.t.t.i.t.t.i.i.i.",
"w.w.i.d.s.s.s.i.d.s.d.d.w.i.y.d.d.s.w.n + ].].].I.O.4 # .   s.s.s.d.s.s.w.t.i.i.i.s.d.s.s.s.s.s.",
"w.s.j.d.j.j.j.h.j.j.j.z.w.i.d.h.k.j.y.D - '.}.|.|.}.'.: D i.j.h.k.j.j.h.w.i.h.j.h.j.k.z.j.j.j.k.",
"w.i.j.j.z.z.z.j.j.z.c.c.w.s.d.j.z.z.h.3.D &.P.{.}.P.&.D 4.h.z.z.k.c.z.k.w.s.j.z.j.z.z.z.z.c.z.k.",
"y.s.j.z.z.z.z.z.z.j.c.c.y.d.j.z.z.z.k.j.h.w &.(.'.&.w d.h.z.z.z.z.c.c.k.w.d.k.z.k.j.z.c.z.z.c.c.",
"w.w.w.w.w.w.w.w.w.w.w.w.w.w.w.w.w.w.w.w.w.< @.`.'.@.< w.w.w.e.w.t.w.w.t.w.w.w.w.w.w.w.w.t.w.w.w.",
"y.y.i.w.y.i.w.y.w.y.i.w.i.i.y.y.t.t.w.t.w.< @.`.`.@.< t.u.u.w.w.t.i.t.t.u.i.t.t.t.i.w.w.t.i.i.t.",
"d.s.s.d.d.s.w.w.i.d.s.s.s.s.s.s.s.s.t.t.i.< @.`.`.@.< s.s.s.w.t.t.s.s.i.d.s.s.d.d.d.w.i.s.i.i.i.",
"j.j.h.j.j.h.w.i.h.d.d.j.j.d.j.j.j.j.w.t.h.< @.`.`.@.< j.j.j.e.i.j.h.j.h.d.h.h.k.j.j.w.i.h.d.j.z.",
"z.z.z.z.z.z.y.i.j.j.j.z.z.j.z.z.z.z.t.i.j.< @.`.'.@.< z.z.z.y.i.k.k.k.z.z.z.k.z.j.j.w.s.j.k.k.z.",
"z.z.z.z.z.z.w.s.j.z.z.z.z.z.c.c.z.z.t.s.j.< @.`.'.@.< j.z.z.w.i.k.z.k.j.z.c.c.z.z.z.w.s.j.z.k.z.",
"y.y.w.w.w.y.w.w.w.w.w.w.w.w.w.i.w.w.w.w.t.+ + + + + + w.y.w.w.w.t.w.w.w.w.w.w.w.t.t.w.w.w.w.t.w.",
"w.w.w.y.y.i.i.w.i.i.y.y.w.y.w.i.t.t.i.t.i.V n v z v m w.y.i.y.y.i.i.i.i.w.t.t.t.i.t.t.i.i.t.i.i.",
"w.w.i.d.s.s.s.s.s.s.s.d.w.i.i.s.d.s.s.s.d.t.i.t.7.w.w.i.d.s.s.s.s.d.s.s.w.t.i.i.i.s.s.d.s.d.s.s.",
"w.s.d.d.j.z.j.j.h.z.z.j.w.i.d.j.j.j.d.h.z.j.k.z.w.i.h.j.j.j.j.j.j.k.j.k.t.i.j.j.d.j.j.k.j.j.j.j.",
"w.s.j.j.z.z.z.z.j.z.z.z.y.i.j.j.z.z.k.k.z.k.z.k.w.s.j.k.z.z.z.j.z.z.j.k.t.i.k.j.j.z.c.z.z.z.k.z.",
"w.d.j.z.z.z.z.z.z.z.z.z.w.s.j.z.c.z.c.z.z.z.z.j.t.s.k.j.z.z.z.z.c.c.z.z.t.s.k.z.z.z.c.c.z.c.c.k."
};
