/* XPM */
static char *exit3[] = {
/* columns rows colors chars-per-pixel */
"48 48 136 2 ",
"   c black",
".  c #19110E",
"X  c #161616",
"o  c #331904",
"O  c #341B06",
"+  c #32221C",
"@  c #32221D",
"#  c #32231D",
"$  c #32231E",
"%  c #33241E",
"&  c #262626",
"*  c #2C2421",
"=  c #2E2724",
"-  c #2F2725",
";  c #282828",
":  c #2A2A2A",
">  c #2B2B2B",
",  c #2C2C2C",
"<  c #2D2D2D",
"1  c gray18",
"2  c #2F2F2F",
"3  c #362E2B",
"4  c #343434",
"5  c gray22",
"6  c #393939",
"7  c #3A3A3A",
"8  c #3B3B3B",
"9  c #3D3D3D",
"0  c #3F3F3F",
"q  c #4C2B13",
"w  c #653107",
"e  c #663207",
"r  c #663208",
"t  c #663209",
"y  c #663309",
"u  c #66330A",
"i  c #66340B",
"p  c #67340B",
"a  c #67350B",
"s  c #67350C",
"d  c #68350D",
"f  c #68360D",
"g  c #6B3810",
"h  c #703D16",
"j  c #4C352D",
"k  c #634337",
"l  c #634338",
"z  c #634438",
"x  c #644439",
"c  c #644539",
"v  c #64453A",
"b  c #65463A",
"n  c #65463B",
"m  c #65473C",
"M  c gray25",
"N  c #424242",
"B  c #444444",
"V  c #454545",
"C  c #4B4B4B",
"Z  c #4D4D4D",
"A  c #4F4F4F",
"S  c #505050",
"D  c #515151",
"F  c #525252",
"G  c #535353",
"H  c #545454",
"J  c #555555",
"K  c #565656",
"L  c #575757",
"P  c #585858",
"I  c #595959",
"U  c #5A5A5A",
"Y  c #5B5B5B",
"T  c #5C5C5C",
"R  c #5D5D5D",
"E  c #5E5E5E",
"W  c #656565",
"Q  c #707070",
"!  c #717171",
"~  c #727272",
"^  c #737373",
"/  c #747474",
"(  c #757575",
")  c #767676",
"_  c #777777",
"`  c #787878",
"'  c #797979",
"]  c #7B7B7B",
"[  c #7C7C7C",
"{  c gray49",
"}  c #7E7E7E",
"|  c #9A4D0F",
" . c #9A4F11",
".. c #CA620C",
"X. c #CB630C",
"o. c #CB630D",
"O. c #CB630E",
"+. c #CB630F",
"@. c #CB640F",
"#. c #CB6410",
"$. c #CC6410",
"%. c #CC6411",
"&. c #CC6511",
"*. c #CC6512",
"=. c #CC6513",
"-. c #CC6612",
";. c #CD6612",
":. c #CC6613",
">. c #CD6613",
",. c #CC6614",
"<. c #CD6714",
"1. c #CD6715",
"2. c #CD6814",
"3. c #CD6815",
"4. c #CD6817",
"5. c #CE6916",
"6. c #CE6817",
"7. c #CE6A17",
"8. c #CE6A18",
"9. c #CF6A18",
"0. c #CE6A19",
"q. c #CF6B19",
"w. c #CF6B1A",
"e. c #D66F1E",
"r. c #D6701F",
"t. c #D77221",
"y. c #D77222",
"u. c #E07A2C",
"i. c #808080",
"p. c #818181",
"a. c #828282",
"s. c #838383",
"d. c #848484",
"f. c #858585",
"g. c #868686",
"h. c gray53",
/* pixels */
"C C C C C C C C C C C C C C C C C C C C C C C C C C C C C C C C C C C C C C C C C C C C C C C C ",
"A A A A S A C A A S A A A A A A A S C A A A A A A A S S S A C A A A A A A A A S S S C A A S A A ",
"J J J J J J C A J S J S J J J J J J C A J J J J S J J J J J C A J H J S J J J J J J C A S J J S ",
"J U U U U U C S U J U U U U U U U U C A J U J U U U J U U U C S J U U U J U U U U U C S U J U U ",
"R R R R R R C S U U U R R U R R R R C S U R U U R R U R R R A S R U U U U R R R R R C S R U R U ",
"R R R R R R A J R R R R R R R R R R C J R R R R R R R R R R A J R R R R R R R R R R C J R R R R ",
"C C C C C C C C C C C C A C C C C C C C A C C C A C C C C C C C C C C C A C C C C C C C A C C C ",
"C A A A A A S A A A A A C A A S A A & & & & & & & & & & & & & 6 A A A A C A A A S A A A A A A S ",
"C S J S J J J J J J J J C A J J J S                           ; J J J U C S J J H J J J J J J J ",
"C S J U J U U U U U U U A S J J ,   ~ ~ ~ _ _ _ ' { { s.s.d.d.B   T U U C S J L P P U U U U U U ",
"A S U R U U R R R R R U C S R , 4 6 Q Q ~ _ _ _ ' ' { { s.d.d.W B , B R C S R U T T R R T U R R ",
"C J R R R R R R R R R R C J R   4 ~ Q Q Q ~ ~ _ ' ' { { { d.d.h.d.  4 R C J R R R R E E R R R R ",
"C C C C C C C C A C C C C &   ~ ~ Q Q Q Q Q ~ Q ~ _ _ { { s.s.{ s.d.N   C C C C C C C C C C C C ",
"A A A A S A C A A A A A A ;   ~ ~ ~ Q Q Q Q Q Q _ _ ' _ ' { { s.s.d.N   A A A A S S C A S S S S ",
"J J J J J J C S S J J S J ;   ~ Q Q Q Q Q Q Q Q ~ ~ _ _ ' ' s.{ s.s.N   J J J J J J C A J S J S ",
"U U J U U U C S U J U U U ,   ~ Q Q Q Q Q Q Q Q Q ~ ~ _ _ _ ' { { s.M   J P U U U U C S U J U U ",
"R R U R R R A S U R U U R ,   ~ Q Q Q Q Q Q Q Q Q ~ ~ ~ _ _ ' ' { { N   R R R R R R C J U U T R ",
"R R R R R R C J R R R R W ,   ~ Q Q Q Q Q Q Q Q Q Q ~ ~ ~ ~ ' _ ' { 9   R R R R R R C J R R R R ",
"A C C C C C C C A C C C C &         Q Q ~ Q Q ~ Q ~ ~ ~ ~ ~ / 6         C C C C C C C C C C C C ",
"C A A A A A A A A A A A C 6 ;   . # 6 4 6 6 4 6 4 6 4 6 6 6 6 3 $   X ; C A A A A A S A S S S S ",
"C A S J J J J J S J J J C A S   # z                           + z   ; J A S J S H J J J J J J J ",
"C A U U J U J U U U U U A S U U ,   l k l k k z v v v m v v k +   R T U C S L P L U U U P U U U ",
"A S U U U U R R R R R R C S U R B 4 + # # + + # # # # # # # + - , E R R C S T R U U R R T R R R ",
"C J R R W R R R R R R R C J R R R E                           , R R R R C J R R R R R R R R R R ",
"C C C C C C C C C C C C C C C C &   ,.3.e.%.@.@.X.O.%.,.0.0.,.a   C C C C C C C C C C C C C C C ",
"A A A S S S C A S S S A A A A & * # u | 4.3.%.,.X.O.%.,.%.0.u q # & 6 S A S A A A A C A A A A A ",
"J J J J J J C A J S J J J J J   # k   a 3.#.,.,.X.#.,.%.%.3.  # z   ; J H J J J J J C A J S S J ",
"U U J U U U C S J U J U L U U   # v   u 4.q.3.%.X.X.,.0.3.,.  # v   , U J U U U U U C S U U U U ",
"U R R R R R A S U U U R R R U   # v # q a 0.3.,.@.%.%.0. .a # j m   , R R R R R R R C S U U U R ",
"R R R R R R C J R R R R R R R   $ m v $   0.3.%.@.%.@.0.f   v v m   4 R R R R R R R A J R R R R ",
"C C C C C C C C C C C C A C C   # z v #   u.u.u.u.u.u.u.h   v v v   & C C C C C C C C C C C C A ",
"C A A A A A A A A A A A C A S ; - # # .   t.r.r.r.r.r.t.g   + # # ; 9 A C A A A A A S A A A A S ",
"C S J S J J J J J J J J A A S J >         3.%.3.%.%.<.3.a         J J J C S J S J J J J J J J J ",
"C S U U J U U U U U U U C S U U P U U ,   @.%.#.  e @.@.e   U U U U U U C S J U U U U U U U U U ",
"A S U U R U R U U R R R A S U U T T R ,   %.#.%.  r #.@.e   U R R R R U C S U R U U R R R R R T ",
"C J R R R R R R R R R R C J R R R E R 2   %.%.%.  a %.%.a   R R E R R R A J R R T R R R R R R R ",
"C C C C C C C C C C C C C C C C C C C &   #.,.%.  a %.3.s   C C A C C C C C C C C C C C C C C C ",
"A A A A S S C A A A A A A A A A S S C &   e.%.%.  e %.0.s   C A A A A S A A A S A A C A A A A A ",
"J J J J J J C S J S J J J S J J J J C &   0.,.%.  u %.0.a   C S S J J J J J J J J J C A S J J S ",
"J U U U U U C S U U J U U U U U U U C &   %.%.0.  s 0.%.e   C S U J U J J U U U U U C S U J U U ",
"U R R R U R A S U U U R U R R R R R C &   u a f   O u u o   A S R U U T R R R R R R C S R U R R ",
"R R R R R R C J R R R R R R R R R R C &                     C J R R R R R R R R R R C J R R R R ",
"A C C C C C C C C C C C C C A C C C C C C C C C C C C C C C C C C C C C C C C C C C C C C C C C ",
"C A A A A S A A A S S A C A A A A A A A A S A S C A A A A A A A S A A A C A A A S A A A S S S S ",
"C A S J J J J J J J J J C A S J S J J J J J J J C A J S S J J J J J J J C A S J S J J J J J J J ",
"C A J U J U U U U U U U C S U U U U U U U U U U C S U U U U U U U U U U A S U J U U U U U U U U ",
"A S U U R R R R R U R R C J U U R U U R R R R R A S U U R U U U R R R R C S R U R U R R U U U R ",
"C J R R R R R R R R R R C S R R R R R R R R R R C J R R R R R R R R R R C J R R R R R R R W R R "
};
