/* XPM */
static char *f1[] = {
/* columns rows colors chars-per-pixel */
"48 48 125 2",
"   c black",
".  c #040404",
"X  c #060606",
"o  c #070707",
"O  c #090909",
"+  c #0C0C0C",
"@  c #0E0E0E",
"#  c #0F0F0F",
"$  c #02071B",
"%  c #03071B",
"&  c #150E0C",
"*  c #101010",
"=  c #131313",
"-  c #161616",
";  c #191919",
":  c #1C1C1C",
">  c #030C37",
",  c #040D37",
"<  c #040E37",
"1  c #050E37",
"2  c #060F37",
"3  c #071038",
"4  c #081139",
"5  c #0C153C",
"6  c #2A1C17",
"7  c #2B1D18",
"8  c #2B1E19",
"9  c #202020",
"0  c #232323",
"q  c #252525",
"w  c #262626",
"e  c #272727",
"r  c #292929",
"t  c #2A2A2A",
"y  c gray17",
"u  c #2C2C2C",
"i  c #2D2D2D",
"p  c gray18",
"a  c #2D2433",
"s  c #2D2434",
"d  c #3F2B23",
"f  c #3D2F2A",
"g  c #3F312B",
"h  c gray19",
"j  c gray20",
"k  c gray21",
"l  c #393939",
"z  c #3A3A3A",
"x  c #3C3C3C",
"c  c #3D3D3D",
"v  c #081653",
"b  c #07196E",
"n  c #081A6E",
"m  c #081B6E",
"M  c #091C6E",
"N  c #0A1D6E",
"B  c #0B1D6E",
"V  c #0B1E6F",
"C  c #0C1E6F",
"Z  c #0D1F6F",
"A  c #0E2070",
"S  c #102373",
"D  c #182B79",
"F  c #3E4653",
"G  c #40322D",
"H  c #41332E",
"J  c #493127",
"K  c #4A3229",
"L  c #4A332A",
"P  c #53372D",
"I  c #54372D",
"U  c #54382D",
"Y  c #54382E",
"T  c #55392F",
"R  c #553A30",
"E  c #563B31",
"W  c #563B32",
"Q  c #563C32",
"!  c #706F37",
"~  c gray25",
"^  c #434343",
"/  c #444444",
"(  c #464646",
")  c #4B4B4B",
"_  c gray30",
"`  c #4F4F4F",
"'  c #454C52",
"]  c #505050",
"[  c #525252",
"{  c #535353",
"}  c #545454",
"|  c #555555",
" . c #565656",
".. c #575757",
"X. c #585858",
"o. c #595959",
"O. c #5A5A5A",
"+. c #5B5B5B",
"@. c gray36",
"#. c #7E5445",
"$. c #7F5647",
"%. c #837F37",
"&. c #81594A",
"*. c #81594B",
"=. c #8A5F4E",
"-. c #8B5F4F",
";. c #A76F5A",
":. c #A86F5A",
">. c #A8705B",
",. c #A9715D",
"<. c #A9725D",
"1. c #A9725E",
"2. c #AA735F",
"3. c #AA7460",
"4. c #AB7460",
"5. c #AB7561",
"6. c #AC7661",
"7. c #AC7662",
"8. c #AC7663",
"9. c #AC7763",
"0. c #AD7764",
"q. c #AD7864",
"w. c #848037",
"e. c #D8C300",
"r. c #FFE500",
/* pixels */
") ) ) ) ) ) ) ) ) ) ) ) ) ) ) ) ) ) ) ) ) ) ) ) ) ) ) ) ) ) ) ) ` ) ) ) ) ) ) ) ) ) ) ) ) ) ) ) ",
"` ` ` ] ] ] ) ` ` ` ` ` ` ` ` ] ` ] ) ` ` ] ` ` ` ` ] ] ] ] ) ` ] ] ` ` ` ` ] ] ] ] ) ` ` ` ` ` ",
"} } } } } } ) ` } } } } } } } } } } ) ` } } } } } } } } } } ) ` } } } } ] } } } } } ) ` } } } } ",
"o.o.o.o.o.o.) ] o.} } o.o.o.o.o.o.o.) ` } o.} o.o.o.o.o.o.o.) ] } } o.o.o.o.o.o.o.o.) ] o.} } o.",
"o.@.@.o.o.@.) ] o.@.o.@.@.o.@.o.@.@.) ] o.@.o.o.o.@.@.o.o.@.` ] o.@.o.o.@.@.o.o.o.@.) ] @.o.o.o.",
"@.@.@.o.@.@.` } @.o.@.@.@.@.@.@.@.@.` ] @.@.@.o.@.@.@.@.@.@.` ] @.o.@.@.@.@.@.o.@.@.) ] @.@.@.@.",
"` ) ) ) ) ) ) ) ) ) ) ) ) ) ) ) ) ) ) ) ` ) ) ) ` ) ) ) ) ) ) ) ) ) ) ) ` ) ` ) ` ) ) ) ` ) ) ) ",
") ` ` ` ` ` ` ` ` ] ] ` ) ` ` ] ` ` q q q q q q q q q q q q q z ` ` ` ` ) ` ] ] ` ` ` ` ` ` ] ] ",
") ` ] } } } } } } } } } ) ` } } } }                           t } } } } ` ` } } } } } } } } } } ",
") ` o.} o.o.o.o.o.o.o.o.` ] } } i   O = = ; : 0 q i h z x c ( q   o.o.o.) ` } } X.o.o.o.o.o.o.o.",
") } o.o.@.o.o.o.@.o.@.@.) ] o.i -   X X O + + = - : 0 t i i k q - i ( o.) } o.@.o.o.o.@.@.@.o.@.",
") } @.@.@.@.@.o.@.@.@.@.) } @.                  X + = ; : 0 q t i   i @.) ] @.@.@.@.@.@.@.@.@.@.",
") ) ) ) ) ) ) ) ) ) ) ) ) q                                       = O   ) ) ) ` ` ) ) ) ) ) ) ) ",
"` ` ` ] ] ] ) ` ` ` ` ` ] q     6 Y T T T T T T P P Y Y Y Y T T Y O X   ` ` ` ] ` ` ) ` ` ] ` ] ",
"} } } } } } ` ` } } } } } t     Y 2.5.5.5.6.5.2.;.:.:.;.2.2.2.2.2.      } } } } } } ) ` } } } } ",
"o.o.o.o.o.o.) ] } } o.o.o.i     T 5.2.2.2.6.5.5.;.;.;.2.2.5.2.2.2.      o.o.o.o.o.o.) ` } X.} o.",
"+.o.+.o.o.+.` ] o.+.+.o.@.i   Q &.6.T T T Q T T Y Y Y Y T T T $.:.T 8   o.o.o.@.o.@.` ] o.o.@.o.",
"@.@.@.@.@.+.) } @.@.@.@.@.i   q.q.q.            $.d           P :.2.Y   @.@.o.o.@.@.) } @.@.@.@.",
") ) ) ) ) ) ) ) ) ) ) ) ) q   q.q.q.=.&     & -.q.6.L       L 2.2.:.P   ` ) ) ) ) ) ) ) ) ) ) ` ",
") ` ` ` ` ` ` ] ] ] ] ] ) z t Q &.6.5.$.T T &.6.q.6.5.T T Y :.2.2.P g t ) ` ` ` ` ` ` ` ] ] ` ] ",
") ` } } } } } } } } } } ) ` }   T 5.5.3.2.6.0.q.q.6.5.6.5.2.2.2.6.  t ..) ] } } } } } } } } } } ",
") ` ..} } o.o.o.o.o.o.+.` ] } } u   5.5.5.3.5.L 8 8 -.q.6.6.2.T   o.o.o.) ] o.} } o.o.o.o.o.o.o.",
"` ] o.+.o.+.+.@.@.o.+.@.) ] +.o./ i T T T T T T Q T Q Q Q T T H i o.+.@.) ] o.o.o.o.@.@.@.@.o.@.",
") } @.@.@.@.@.@.@.@.@.@.) { @.@.@.@.                          i @.@.@.o.` } @.@.@.@.@.@.@.@.@.@.",
") ) ) ) ) ) ) ) ) ) ) ) ) ) ) ) q   M V A M M M n m m V V A V >   ) ) ) ) ) ) ) ) ) ) ) ) ) ) ) ",
"` ` ` ` ] ] ) ` ` ` ` ` ` ` ` q g T < v V M M M n ' w.! F V > s T q z ] ` ` ] ] ` ` ) ` ` ` ` ] ",
"{ } } } } } ) ` } } } } } } }   Y 3.  < M M b M n %.r.e.! M   T 2.  t } } } } } } } ) ] { } } } ",
"o.o.o.o.o.o.) ` ..} } o.o.o.o.  Q q.  < M V V M b n n V V M   Q q.  t o.o.o.o.o.o.o.` ] } } ..o.",
"o.+.o.@.@.@.) ] o.+.o.+.o.+.o.  Q q.T s < A V M b m V A v < T *.q.  i @.+.@.@.o.o.@.) ] o.+.o.+.",
"@.@.@.o.@.@.` } @.@.@.@.@.@.@.  Q q.q.Q   A V m m m b A 3   q.q.q.  i @.@.@.@.+.@.@.) } @.+.@.@.",
") ) ) ) ) ) ) ) ) ) ) ) ) ) )   Q q.6.T   D D D D D D D 5   0.0.q.  q ) ) ) ) ) ) ) ) ) ) ) ) ) ",
") ` ` ` ` ` ` ` ` ] ] ` ) ` ` u H Q T 8   S S S S S S S 4   Q T T t x ` ) ` ` ` ` ] ] ` ] ] ] ] ",
") ` } } } } } } } } } } ` ` } } t         M m M M M M M <         } } } ) ] } } } } } } } } } o.",
") ] } o.o.o.o.o.o.o.o.o.) ` } } } o.o.i   M m b   > b M <   o.o.o.o.o.o.) ] } o.o.o.o.o.o.o.o.o.",
") { +.o.+.o.o.+.@.o.+.@.` ] @.+.o.@.@.i   m m m   < m m <   o.@.o.+.+.@.) { o.o.+.o.+.o.+.o.o.@.",
") } @.@.@.@.@.+.@.@.@.@.) { @.@.@.@.@.i   m m m   < M b <   @.@.@.@.@.@.) } @.+.@.@.@.@.@.@.@.@.",
") ) ) ) ) ) ) ) ) ) ) ) ) ) ) ) ) ) ) q   M M M   < M M <   ) ) ) ) ) ) ) ) ) ) ) ) ) ) ) ) ) ) ",
"` ` ` ] ] ] ) ` ` ` ` ` ` ` ` ` ] ] ) q   Z M M   < M M <   ) ` ] ` ` ] ` ` ] ] ` ` ) ` ] ` ` ` ",
"} } } } } } ) ] } } } } } } } } } } ) q   Z M M   < M Z <   ) ] } } } } } } } } } } ) ] } } } } ",
"o.o.o.o.o.o.) ] } } } o.o.o.o.o.o.o.) q   m M Z   < Z M <   ) ] } ..} o.o.o.o.o.o.o.` ] } } } o.",
"+.@.+.o.o.@.) { @.+.o.+.o.@.@.o.o.@.) q   < < <   $ < < $   ) } +.o.+.o.o.@.+.+.o.@.) ] o.+.+.o.",
"@.@.@.o.@.@.) ] @.@.@.@.@.@.@.@.@.@.) q                     ) ] @.@.@.+.@.@.@.@.@.@.` ] @.@.@.@.",
") ) ) ) ` ) ) ) ) ) ) ) ) ) ` ) ) ) ) ) ) ) ) ) ` ) ) ) ) ) ) ) ) ) ) ) ) ) ) ) ) ) ) ) ) ) ) ) ",
") ` ` ` ` ` ` ` ` ] ] ] ) ) ` ` ` ` ` ` ` ] ] ] ) ) ` ` ` ` ` ` ] ] ] ] ) ` ` ` ] ` ` ` ] ] ] ] ",
") ` } } } } } } } } } } ) ` } } } } } } } } } } ) ` } } } } } } } } } } ) ] } } } } } } } } } } ",
") ` } } o.o.o.o.o.o.o.o.) ] ..} o.o.o.o.o.o.o.o.) ] } } o.o.o.o.o.o.o.o.` ] } } X.o.o.o.o.o.o.o.",
"` ] @.+.o.+.+.o.@.+.o.@.` ] o.+.@.o.o.@.+.o.@.@.` ] @.+.+.o.+.o.+.o.+.@.) ] +.o.o.+.+.o.o.+.@.@.",
") } @.@.@.@.@.@.@.@.+.+.) } @.@.@.@.@.@.@.@.@.o.) } @.@.@.@.@.o.@.@.@.@.) { @.@.@.@.@.@.@.@.@.@."
};
