/* XPM */
static char *f2[] = {
/* columns rows colors chars-per-pixel */
"48 48 109 2",
"   c black",
".  c gray1",
"X  c #060606",
"o  c #0A0705",
"O  c #090909",
"+  c #0B0B0B",
"@  c #0C0C0C",
"#  c #101010",
"$  c #121212",
"%  c #131313",
"&  c #161616",
"*  c gray9",
"=  c #1F1511",
"-  c #191919",
";  c #050F37",
":  c #060F37",
">  c #060F38",
",  c #071038",
"<  c #08123A",
"1  c #0A143B",
"2  c #0B153C",
"3  c #0C153C",
"4  c #2A1C17",
"5  c #2A1D17",
"6  c #202020",
"7  c #212121",
"8  c #232323",
"9  c #252525",
"0  c gray15",
"q  c #272727",
"w  c #282828",
"e  c #292929",
"r  c #2A2A2A",
"t  c gray17",
"y  c #2C2C2C",
"u  c #2D2D2D",
"i  c gray18",
"p  c #2F2634",
"a  c gray19",
"s  c gray20",
"d  c gray21",
"f  c #393939",
"g  c #3A3A3A",
"h  c #3B3B3B",
"j  c #081653",
"k  c #111F5A",
"l  c #0B1E6F",
"z  c #0C1E6F",
"x  c #0D1F70",
"c  c #0E2071",
"v  c #102272",
"b  c #102373",
"n  c #112474",
"m  c #152977",
"M  c #162A78",
"N  c #172A78",
"B  c #182B79",
"V  c #41322D",
"C  c #54372D",
"Z  c #54382D",
"A  c #54382E",
"S  c #54392E",
"D  c #553A2F",
"F  c #553A30",
"G  c #563B31",
"H  c #563C32",
"J  c #573D33",
"K  c #593C32",
"L  c #5F3F33",
"P  c #5E4137",
"I  c #684538",
"U  c #694639",
"Y  c gray25",
"T  c #434343",
"R  c #444444",
"E  c #464646",
"W  c #4B4B4B",
"Q  c gray30",
"!  c #4F4F4F",
"~  c #505050",
"^  c #525252",
"/  c #535353",
"(  c #545454",
")  c #555555",
"_  c #565656",
"`  c #575757",
"'  c #585858",
"]  c #595959",
"[  c #5A5A5A",
"{  c #5B5B5B",
"}  c gray36",
"|  c #7E5445",
" . c #815A4A",
".. c #936250",
"X. c #A76F5A",
"o. c #A86F5A",
"O. c #A86F5B",
"+. c #A8705B",
"@. c #A9705C",
"#. c #A9725D",
"$. c #A9725E",
"%. c #AA725E",
"&. c #AB745F",
"*. c #AB7560",
"=. c #AB7561",
"-. c #AC7662",
";. c #AC7762",
":. c #AD7864",
">. c #AE7A66",
/* pixels */
"W W W W W W W W W W W W W W W W W W W W W W W W W W W W W W W W W W W W W W W W W W W W W W W W ",
"! ! ! ~ ~ ~ W ! ! ! ! ! ! ! ! ! ~ ~ W ! ! ! ! ! ! ! ~ ~ ~ ~ W ! ~ ~ ! ! ! ! ~ ! ~ ~ W ! ~ ~ ~ ! ",
"( ( ( ( ( ( W ! ( ( ( ( ( ( ( ( ( ( W ! ( ( ( ( ( ( ( ( ( ( W ! ( ( ( / / / ( ( ( ( W ~ ( ( ( ( ",
"] ] ] ] ] ] W ~ ] ( ( ] ] ] ] ] ] ] W ! ] ( ( ] ] ] ] ] ] ] W ~ ` ( ` ] ] ] ] ] ] ' W ~ ( ` ( ` ",
"] } } ] ] } W ~ ] } ] } ] } ] ] } } W ~ ] ] ] } } } } ] ] } W ~ ] ] { { { { { { { { W ~ { { ] { ",
"} } } ] } } ! ( } ] } } } } } } } } ! ~ } } } ] } } } ] } } ! ( { { { { { { { { { { W / { { { { ",
"! W W W W W W W W W W W ! W W W W W W W ! W W W W W W W W W W W W W W W W W W W W W W W W W W W ",
"W ! ! ! ! ! ! ! ! ! ! ! W ! ! ~ h 9 9 9 9 9 9 9 9 9 9 9 9 9 ! ! ! ~ ~ ~ W ! ~ ~ ~ ! ! ! ~ ~ ~ ~ ",
"W ! ~ ( ( ( ( ( ( ( ( ( W ~ ( ( e                           ( ( / ( ( ` W ! ( ( ( ( ( ( ( ( ( ( ",
"W ! ] ( ] ] ] ] ] ] ] ] W ~ (   X @ % * - 8 8 9 s d h Y Y E   y ] ] ] ] W ~ ( ( ` ] ] ] ] ] ] ] ",
"W ( ] ] } ] ] ] } ] } } W h y   . X O O @ # % * 8 9 e y s d - 8 y { { { W / { { { ] { ] { { { } ",
"W ( } } } } } ] } } } } W 9                 . X % * - 8 8 9 y *   { { { W ( { { } } } } } } } } ",
"W W W W W W W W W W W W                                       O #   9 W W W W W W W W W W W W W ",
"! ! ! ~ ! ~ W ! ! ! ! ~                               F C C C K I   q ~ ! ! ! ~ ~ ~ W ! ! ! ! ~ ",
"( ( ( ( ( ] W ! ( ( ( (                               +.+.+.+.+.+.  e ( ( ( ( ( ( ` W ! ( ( ( ( ",
"] ] ] ] ] ] W ~ ( ( ] ]                           C +.;.+.+.+.+.+.  t ' ] ] ] ] ] ] W ! ( ` ( ` ",
"{ ] { ] ] { ! ~ ] } ] ]                         C  .I F Z C C C C   y { { { ] { ] { W / { ] { { ",
"} } } } } } W ~ } } } }                         o.o.4           P   y } { { { { } } W / } } { } ",
"W W W W W W ! W ! W W W                         O.O.O.4     o I X.  9 Q W W W W W W W W W W W W ",
"W ! ! ! ! ! ~ ~ ~ ! ~ ~ 9 %                 4 F %.+.%...C C I +.X.  9 ~ W ! ! ! ! ! ! ! ~ ~ ~ ~ ",
"W ! ( ( ( ( ( ( ( ( ( ( W 9                 C +.=.-.-.+.+.O.O.O.X.  e ] Q ~ ( ( ( ( ( ( ( ( ( ( ",
"W ~ ( ( ( ] ] ] ] ] ] ] ! ~ (               F +.-.>.>.-.-.-.o.C   ] ] ] W ~ ( ' ( ' ] ] ] ] ] ] ",
"W / } ] } ] ] } } } ] } W ~ } y *           5 C F F K F G F C V y { { { W ~ ] ] { { { { } { { { ",
"W ( } } } } } } } } } } W ( } } y                             y } } { { Q ( { { { } { { } } { } ",
"W W W W W W W W W W W W W W W W W W W 9   l l l l l l   9 W W W W W W W W W Q W W W W W W W W W ",
"! ! ! ~ ~ ~ W ! ~ ~ ! ! ! ! ! ~ ~ ~ W 9   l j : z j >   w ~ W ! ! ! ! ! ! ! ! ~ ! ! W ! ! ! ! ! ",
"( ( ( ( ( ( W ! ( ( ( ( ( ( ( ( ( ( W 9   l :   z >     e ( W ! ( ( ( ( ( ( ( ( ( ( W ! ( ( ( ( ",
"] ] ] ] ] ] W ~ ( ` ( ] ] ] ] ] ] ] W 9   l :   >.J     y ] W ~ ' ( ( ] ] ] ] ] ] ] ! ~ ( ( ' ] ",
"{ ] ] } } } W ~ ] ] } ] { } } ] ] } ! 9   z ,   ;. .K   * y W / ] { ] { { } } ] ] } Q ~ ] { ] { ",
"} } } ] } } ! ( } } } } } } } { } } W 9   c ,   %.;.>.      W / } { } } } } } ] } } Q ( } { } } ",
"W W W W W W W W W W W W W W W W W W W 9   b b c   F -.%.F   W W W W W W Q W W W W W W W W W W Q ",
"W ! ! ! ! ! ! ! ! ~ ! ! W ! ! ! ! ! ! 9   b n n < p F C 5   ! ! ! ! ! ! W ! ! ! ! ! ! ! ! ~ ! ~ ",
"W ! ( ( ( ( ( ( ( ( ( ( ! ! ( ( ( ( ( e   n n n n <         ( ( ( ( ( ( W ! ( ( ( ( ( ( ( ( ( ] ",
"W ~ ( ] ] ] ] ] ] ] ] ] W ~ ( ] ] ] ] y   B N N B B B   u ] ] ] ] ] ] ] Q ~ ( ] ] ] ] ] ] ] ] ] ",
"! ~ ] } ] { { } ] } ] } ! ~ ] } ] ] ] E y 3 k N N k 3 y E ] ] { { ] { } W ~ ] ] { ] { ] { ] ] } ",
"W ( } } } } } ] } } } } W ( } } } } } ] }   2 N N 2   } } } } { } } } } Q ( } { } } } } } } } } ",
"W W ! W W W W W W W W W W W W W W W W W W   2 N N 2   Q Q W W W Q W W W W W Q W W W W W Q W W W ",
"! ! ~ ~ ! ! W ! ! ! ! ! ! ! ! ! ! ~ W ! !   3 B B 2   ~ ! ! W ! ! ! ! ! ! ! ! ! ! ! W ! ! ! ! ! ",
"~ ( ( ( ( ( W ~ ( ( ( ( ( ( ( ( / ( ! ~ (   3 B B 2   ( ( ( Q ! / ( ( ( ( ( ( ( ( ( W ! ( ( / ( ",
"] ] ] ] ] ] W ~ ( ( ( ] ] ] ] ] ] ] W ~ (   3 B B 2   ] ] ] W ! ( ( ' ] ] ] ] ] ] ] Q ~ ' ( ( ' ",
"] } } ] ] } W ( } ] ] ] } } { ] ] } W ~ }   3 B B 3   ] ] } W ( { ] { ] { } { ] ] } W ~ { { ] { ",
"} } } } } } W ~ } } } } } } } } } { W ( }   3 B B 3   ] } } W ~ } } } { } } } { } } Q ~ } } } } ",
"! W W W W W W W ! W W W W W ! W W W W W W             W ! W W W Q W W W Q W Q W Q W W W W Q Q W ",
"W ! ! ! ! ! ! ! ! ! ! ~ W ! ! ! ! ! ! ! ! e e y 9 e e ! ! ! ! ! ! ! ! ! W Q ! ~ ! ! ! ! ! ~ ! ! ",
"W ! / ( ( ( ( ( ( ( ( ( W ! ~ ( ( ( ( ( ( ( ( ( W ~ ( ( ( ( ( ( ( ( ( ( W ! ( ( ( ( ( ( / ( ( ( ",
"W ! ( ( ] ] ] ] ] ] ] ] W ! ] ( ] ] ] ] ] ] ] ] W ~ ( ( ] ] ] ] ] ] ] ] Q ~ ( ( ' ] ] ] ] ] ] ] ",
"! ~ { ] ] } } ] ] } } } W / ] ] } ] ] { ] } } } ! ~ } } } ] ] ] ] { { } W ~ { ] ] { { ] ] { { { ",
"W ( } } } } } } } } } } W ( } } } } } } } } } ] W ( } } } } } } } } } } Q / } } } } } } } } } } "
};
