/* XPM */
static char *f3[] = {
/* columns rows colors chars-per-pixel */
"48 48 99 2",
"   c black",
".  c #010101",
"X  c #020202",
"o  c #040404",
"O  c #060606",
"+  c #080808",
"@  c #090909",
"#  c #0B0B0B",
"$  c #0C0C0C",
"%  c gray5",
"&  c #0E0E0E",
"*  c gray6",
"=  c #02071B",
"-  c #03071B",
";  c #111111",
":  c #121212",
">  c #131313",
",  c gray8",
"<  c #151515",
"1  c #161616",
"2  c #171717",
"3  c #181818",
"4  c #1A1A1A",
"5  c #1C1C1C",
"6  c #1D1D1D",
"7  c #030C37",
"8  c #040D37",
"9  c #040E37",
"0  c #050E37",
"q  c #060F37",
"w  c #071038",
"e  c #081139",
"r  c #0C153C",
"t  c #2A1D18",
"y  c #2B1D18",
"u  c #202020",
"i  c #232323",
"p  c gray14",
"a  c #252525",
"s  c #272727",
"d  c #282828",
"f  c #292929",
"g  c #2A2A2A",
"h  c gray17",
"j  c #2C2C2C",
"k  c #2D2D2D",
"l  c gray18",
"z  c #2D2433",
"x  c #2D2434",
"c  c #3D2F2A",
"v  c #3A3A3A",
"b  c #3D3D3D",
"n  c #081653",
"m  c #07196E",
"M  c #081A6E",
"N  c #081B6E",
"B  c #091C6E",
"V  c #0A1D6E",
"C  c #0B1D6E",
"Z  c #0B1E6F",
"A  c #0C1E6F",
"S  c #0D1F6F",
"D  c #0E2070",
"F  c #102373",
"G  c #182B79",
"H  c #40322D",
"J  c #41342E",
"K  c #55392F",
"L  c #553A2F",
"P  c #553A30",
"I  c #563B31",
"U  c #563B32",
"Y  c #563C32",
"T  c #434343",
"R  c #444444",
"E  c #4B4B4B",
"W  c gray30",
"Q  c #4F4F4F",
"!  c #505050",
"~  c #525252",
"^  c #535353",
"/  c #545454",
"(  c #555555",
")  c #565656",
"_  c #575757",
"`  c #585858",
"'  c #595959",
"]  c #5A5A5A",
"[  c #5B5B5B",
"{  c gray36",
"}  c #81594B",
"|  c #AA735F",
" . c #AB745F",
".. c #AA7460",
"X. c #AB7561",
"o. c #AC7663",
"O. c #AC7763",
"+. c #AD7764",
"@. c #AD7864",
/* pixels */
"E E E E E E E E E E E E E E E E E E E E E E E E E E E E E E E E E E E E E E E E E E E E E E E E ",
"Q Q Q ! ! ! E Q Q Q Q Q Q Q Q ! ! ! E Q Q ! Q Q Q Q ! ! ! ! E Q Q ! Q Q Q Q Q ! ! ! E Q Q Q Q Q ",
"/ / / / / / E Q / / / / / / / / / / E Q / / / / / / / / / / E Q / / / / / / / / / / E Q / / / / ",
"' ' ' ' ' ' E ! ' / / ' ' ' ' ' ' ' E Q / ' / ' ' ' ' ' ' ' E ! / / ' ' ' ' ' ' ' ' E ! ' / / ' ",
"' { { ' ' { E ! ' ' { ' { ' { ' { { E ! ' { ' ' { { { ' ' { Q ! ' { ' { ' { { ' ' { E ! { ' ' ' ",
"{ { { ' { { Q / { { { { { { { { { { Q ! { { { ' { { { ' { { Q ! { ' { { { { { { { { E / { { { { ",
"Q E E E E E E E E E E E E E E E E E E E Q E E E Q E E E E E E E E E E E Q E E E E E E E Q E E E ",
"E Q Q Q Q Q Q Q Q Q ! Q E Q Q ! Q Q a a a a a a a a a a a a a v Q Q Q Q E Q Q Q Q Q Q Q Q Q Q ! ",
"E Q ! / / / / / / / / / E Q / / / /                           g / / / / E ! / / / / / / / / / / ",
"E Q ' / ' ' ' ' ' ' ' ' Q ! / / k         # # * 2 2 2 5 u a g :   ' ' ' E ! ' / ' ' ' ' ' ' ' ' ",
"E / ' ' { ' ' ' { ' { { E ! ' k 2         # # # : 2 2 4 5 u a 5 2 g R ' E ! { ' ' ' ' [ { { ' { ",
"E / { { { { { ' { { { { E / {             O O # * : 2 2 4 5 u a g   k { E / { { { { { { { { { { ",
"E E E E E E E E E E E E E a                     O * * : 2 4 4 u a g :   E E E Q E E E E E E E E ",
"Q Q Q ! ! ! E Q Q Q Q Q ! a                     O O # * : 2 4 5 u a :   Q Q Q ! ! ! E Q Q ! Q ! ",
"/ / / / / / Q Q / / / / / g                         # * * : 4 4 5 u :   / / / / / / E Q / / / / ",
"' ' ' ' ' ' E ! / / ' ' ' k                           # # * : 2 2 4 *   ' ' ' ' ' ' E ! / ' / ' ",
"' [ ' ' [ ' Q ! ' [ ' ' { k                           O O * * : 2 4 #   ' ' ' { ' { Q ! ' ' { ' ",
"{ { { { { { E ! { { { { { k                             O O * : : 2 #   { { ' ' { { E / { { { { ",
"Q E E E E E Q E Q E E E Q a                                             Q E E E E E E E E E E Q ",
"E Q Q Q Q ! ! ! ! Q Q Q E v g   t P                         o y K   2 g E Q Q Q Q Q Q Q Q ! Q ! ",
"E Q ^ / / / / / / / / / E ! /   P X.                          P  .  g _ E ! / / / / / / / / / / ",
"E Q / / / ' ' ' ' ' ' ' E ! / / g   X.X.X.X.X.X.+.+.+.+.+.X. .P   ' ' ' E ! _ / / ' ' ' ' ' ' ' ",
"Q ! [ ' { ' ' { { { ' { E ^ ' ' R k P P P K P P Y Y P Y Y P P J k [ [ { E ^ [ ' ' ' { { { { ' { ",
"E / { { { { { { { { { { E / { { { {                           k { { { { E ^ { { { { { { { { { { ",
"E E E E E E E E E E E E E E E E a   B B D B B B m N B B S D B 0   E E E E E E E E E E E E E E E ",
"Q Q Q ! ! ! E Q ! ! ! Q Q Q Q a c P 0 n Z B B B m N B B B S 0 z K a v Q Q Q Q ! Q Q E Q Q Q Q Q ",
"/ / / / / / E Q / / / / / ^ /   P |   0 B B N B m m B B B B   P  .  g / / / / / / / E Q ^ / / / ",
"' ' ' ' ' ' E Q / _ / ' ' ' '   Y +.  0 B Z Z B m N B S B B   Y +.  g ' ' ' ' ' ' ' Q ! / / ' ' ",
"[ ' ' { [ { E ! ' ' [ ' ' [ '   Y +.Y x 0 S Z B N N B S n 0 Y } +.  k [ { { { ' ' { E ! ' [ ' { ",
"{ { { ' { { Q / { [ { { { { {   Y +.+.Y   S Z N N N B D w   +.+.+.  l { { { { ' { { Q / { { { { ",
"E E E E E E E E E E E E E E E   Y +.X.P   G G G G G G G r   +.+.+.  a E E E E E E E E E E E E E ",
"E Q Q Q Q Q Q Q Q ! ! ! E Q Q g J Y Y t   F F F F F F F e   P P P g b Q E Q Q Q Q Q Q Q Q ! ! ! ",
"E ! / / / / / / / / / / Q Q / / j         B B B B B B B 0         / / / E Q / / / / / / / / / ' ",
"E ! / ' ' ' ' ' ' ' ' ' E Q / / / ' ' k   B N m   7 m B 0   ' ' ' ' ' ' Q ! / ' ' ' ' ' ' ' ' ' ",
"E / ' ' ' { ' { [ ' [ { Q ! { ' { ' ' k   N N m   7 m B 0   ' { ' { ' { E ! [ ' ' ' { ' { ' ' { ",
"E / { { { { { [ { { { { E / { { { { { k   N N N   0 B N 0   { [ { { { { E / { { { { { { { { { { ",
"E E E E E E E E E E E E E E E E E E E a   B B B   0 B B 0   E E Q E E E E E E E E E E E Q E E E ",
"Q Q Q ! ! ! E Q Q Q Q Q Q Q Q ! ! ! E a   S B B   0 B B 0   E Q Q Q ! ! Q Q Q ! Q Q E Q Q Q Q Q ",
"/ / / / / / E ! / / / / / / / / / / E a   S B B   0 B S 0   E ! ^ / / / / / / / / / E ! / / ! / ",
"' ' ' ' ' ' E ! / / / ' ' ' ' ' ' ' E a   N B S   0 B B 0   E ! / / / ' ' ' ' ' ' ' E ! ' / / ' ",
"' { [ ' ' { E / { ' ' ' { { ' { ' { Q a   7 0 0   - 0 0 -   E / { ' [ ' ' { { ' ' { E ! { ' { ' ",
"{ { { ' { { E ! { { { [ { { { { { ' E a                     E ! { { { ' { { { { { { E ! { { { { ",
"Q E E E Q E E E Q E E E E E E E E E E E E E E E E E E E E E E E E E E E Q E E E Q E E E E E Q E ",
"E Q Q Q Q Q Q Q Q Q ! ! E Q Q ! Q Q Q Q Q ! ! ! E Q Q Q Q Q Q Q Q ! Q Q E Q ! ! Q Q Q Q Q ! ! Q ",
"E Q ^ / / / / / / / / / E Q / / / / / / / / / / E Q / / / / / ^ / / / / E ! / / / / / / / / / / ",
"E Q / / ' ' ' ' ' ' ' ' E Q / / ' ' ' ' ' ' ' ' E Q / / ' ' ' ' ' ' ' ' E ! / / ' ' ' ' ' ' ' ' ",
"E ^ [ ' { ' ' { [ ' [ { E ^ { ' ' { { ' ' { { { E ^ { ' ' { [ ' { ' { { E ! ' { ' ' { ' ' ' { { ",
"E / { { { { { { { { { { E / { { { { { { { { { { E / { { { { { { { { { { Q / { { { { { { { { { { "
};
