/* XPM */
static char *f4[] = {
/* columns rows colors chars-per-pixel */
"48 48 109 2",
"   c black",
".  c #060606",
"X  c #070707",
"o  c #0A0705",
"O  c #090909",
"+  c #0C0C0C",
"@  c #0E0E0E",
"#  c #0F0F0F",
"$  c #02071B",
"%  c #101010",
"&  c #131313",
"*  c #161616",
"=  c #1F1511",
"-  c #191919",
";  c #1C1C1C",
":  c #050F37",
">  c #060F37",
",  c #060F38",
"<  c #071038",
"1  c #081139",
"2  c #08123A",
"3  c #0C153C",
"4  c #1D2135",
"5  c #2A1C17",
"6  c #2B1E19",
"7  c #2F211C",
"8  c #202020",
"9  c #232323",
"0  c #252525",
"q  c #262626",
"w  c #272727",
"e  c #282828",
"r  c #292929",
"t  c #2A2A2A",
"y  c gray17",
"u  c #2C2C2C",
"i  c #2D2D2D",
"p  c gray18",
"a  c #3F2A22",
"s  c gray19",
"d  c gray20",
"f  c gray21",
"g  c #393939",
"h  c #3A3A3A",
"j  c #3B3B3B",
"k  c #3C3C3C",
"l  c #3D3D3D",
"z  c #081653",
"x  c #0C1A56",
"c  c #0B1E6F",
"v  c #0C1E6F",
"b  c #0D1F70",
"n  c #0E2071",
"m  c #102272",
"M  c #102373",
"N  c #112474",
"B  c #152977",
"V  c #162A78",
"C  c #172A78",
"Z  c #182B79",
"A  c #53372D",
"S  c #54372D",
"D  c #54382D",
"F  c #54382E",
"G  c #55392F",
"H  c #553A2F",
"J  c #553A30",
"K  c #563B31",
"L  c #563C32",
"P  c #573D33",
"I  c #5E4238",
"U  c #694538",
"Y  c #694639",
"T  c gray25",
"R  c #434343",
"E  c #444444",
"W  c #464646",
"Q  c #4B4B4B",
"!  c gray30",
"~  c #4F4F4F",
"^  c #505050",
"/  c #525252",
"(  c #535353",
")  c #545454",
"_  c #555555",
"`  c #565656",
"'  c #575757",
"]  c #585858",
"[  c #595959",
"{  c #5A5A5A",
"}  c #5B5B5B",
"|  c gray36",
" . c #7E5445",
".. c #7F5546",
"X. c #936251",
"o. c #A76F5A",
"O. c #A86F5A",
"+. c #A8705B",
"@. c #A8705C",
"#. c #A9715C",
"$. c #A9715D",
"%. c #A9725D",
"&. c #AA735F",
"*. c #AB745F",
"=. c #AB7561",
"-. c #AC7662",
";. c #AC7762",
":. c #AD7864",
">. c #AE7A66",
/* pixels */
"Q Q Q Q Q Q Q Q Q Q Q Q Q Q Q Q Q Q Q Q Q Q Q Q Q Q Q Q Q Q Q Q Q Q Q Q Q Q Q Q Q Q Q Q Q Q Q Q ",
"~ ~ ~ ^ ^ ^ Q ~ ~ ~ ~ ~ ~ ~ ~ ^ ^ ~ Q ~ ~ ~ ~ ~ ~ ~ ^ ^ ^ ^ Q ~ ~ ^ ~ ~ ~ ~ ~ ^ ^ ^ Q ~ ^ ^ ~ ~ ",
") ) ) ) ) ) Q ~ ) ) ) ) ) ) ) ) ) ) Q ~ ) ) ) ) ) ) ) ) ) ) Q ~ ) ) ) ) ) ) ) ) ) ) Q ~ ) ) ) ) ",
"[ [ [ [ [ [ Q ~ [ ) ) [ [ [ [ [ [ [ Q ^ [ ) ) [ [ [ [ [ [ [ Q ^ ) ) [ [ [ [ [ [ [ [ Q ^ ) ' ) [ ",
"| | | [ [ | ~ ^ [ [ [ | [ [ | [ [ | Q ^ [ [ [ | | | | [ [ | ~ ^ [ | [ | [ | } [ [ | Q ^ | [ [ [ ",
"| | | [ | | ~ ^ | | | | | | | | | | ~ ^ | | | [ | | | [ | | ~ ^ | [ | | | | | | | | Q ^ | | | | ",
"Q Q Q Q Q Q Q Q Q Q Q Q ~ Q Q Q ~ Q Q Q ~ Q Q Q ~ Q Q Q Q Q Q Q Q Q Q Q ~ Q Q Q ~ Q Q Q ~ Q Q Q ",
"Q ~ ~ ~ ~ ~ ~ ~ ~ ~ ~ ~ Q ~ ^ ^ ~ ~ ~ g 0 0 0 0 0 0 0 0 0 0 0 0 0 ~ ~ ~ Q ~ ~ ~ ~ ~ ~ ~ ~ ~ ~ ^ ",
"Q ~ ) ) ) ) ) ) ) ) ) ) Q ^ ) ) ) ) ) r                           ) ) ) ~ ~ ) ) ) ) ) ) ) ) ) ) ",
"Q ^ ) ) [ [ [ [ [ [ [ [ Q ^ ) ) ) [   0 W T k g d u 0 9 ; - & & +   u [ Q ^ [ ) ' [ [ [ [ [ [ [ ",
"~ ^ | [ | [ [ [ | [ | | Q ^ [ [ W u * 0 f d u r 9 ; * + + + O . .   * u Q ^ | [ [ [ [ } | | [ | ",
"Q ) | | | | | [ | | | | ~ ) | | u   u r 0 ; ; - & + .                   Q ) | | | | | | | | | | ",
"Q Q Q Q Q Q Q Q Q Q Q Q Q Q Q   O &                                       0 Q ~ ~ Q Q Q Q Q Q Q ",
"~ ~ ~ ~ ^ ^ Q ~ ~ ~ ~ ^ ~ ~ ~   7 I G G S G 5                             0 ~ ^ ~ ^ Q ~ ~ ^ ~ ^ ",
") ) ) ) ) ) ~ ~ ) ) ) ) ) ) )   G %.O.O.%.%.G                             r ) ) ) ) Q ~ ) ) ) ) ",
"[ [ [ [ [ [ Q ^ ) ) [ [ [ [ [   A %.O.O.O.=.%.%.                          u [ [ [ [ Q ~ ) [ ) [ ",
"[ | [ [ } [ ~ ^ [ | [ [ | [ [   5 G A A S K G X.G 5                       u [ [ } | Q ^ [ [ | [ ",
"| | | | | } Q ( | | | | | | |   a =            .%.S                       u | } | | ~ ) | | | | ",
"~ Q Q Q Q Q Q Q ~ Q Q Q Q Q !   A o.=     o U O.%.G                       0 ~ Q Q Q Q Q Q Q Q ~ ",
"Q ~ ~ ~ ~ ~ ^ ^ ~ ~ ^ ~ Q ~ ^   A o.X.G G U %.%.%. .G                   w g ~ ~ ~ ~ ~ ~ ~ ^ ~ ^ ",
"Q ~ ( ) ) ) ) ) ) ) ) ) Q ~ )   A O.O.%.%.%.%.=.-.%.%.                  ~ ^ ) ) ^ ) ) ) ) ) ) ) ",
"Q ~ ) ) ) [ [ [ [ [ [ [ ~ ^ ) ) r   O.%.&.=.>.>.=.%.%.              u [ Q ^ ) ) ) [ [ [ [ [ [ [ ",
"Q ( } [ [ } | | | [ | | Q ^ | [ W u G G G K K P K K G             u W | Q ^ [ } | [ | | | | [ | ",
"Q ) | | | | | | | | | | Q ( | | } |                               | } | Q ) | | | | | | | | | | ",
"Q Q Q Q Q Q Q Q Q Q Q Q Q Q Q Q Q Q Q Q Q   : v c c c c ,   Q Q Q Q Q Q Q Q Q Q Q Q Q Q Q Q Q Q ",
"~ ~ ~ ^ ^ ^ Q ~ ^ ^ ~ ~ ~ ~ ~ ^ ~ ~ Q ~ ~   $ : c z , c :   Q ~ ~ ^ ~ ~ ~ ~ ~ ^ ~ ~ Q ~ ~ ~ ~ ~ ",
") ) ) ) ) ) Q ~ ) ) ) ) ) ) ) ) ) ) Q ~ )       v ,   c :   Q ~ ) ) ) ) ) ) ) ) ) ) Q ~ ) ) ) ) ",
"[ [ [ [ [ [ Q ^ ) ' ) [ [ [ [ [ [ [ ~ ^ )       >.K   b :   Q ~ ' ) ) [ [ [ [ [ [ [ ~ ^ ) ) [ [ ",
"| [ [ } } | Q ^ [ [ | [ } | | [ [ | Q k u   6 P ;.K   v ,   Q ^ [ | [ | [ | | [ [ | Q ( [ [ | [ ",
"| | | } | | ! ) | | | | | | | | | | Q 0     P >.*.G   b ,   ~ ) | [ | | | | | } | | Q ) | | | | ",
"Q Q Q Q Q Q Q Q Q Q Q Q Q Q Q Q Q Q Q 0   *.*.*.  2 M M ,   Q Q Q Q Q Q ~ Q Q Q Q Q Q Q Q Q Q Q ",
"Q ~ ~ ~ ~ ~ ~ ~ ~ ^ ~ ~ Q ~ ~ ~ ~ ~ ~ w   G G G 2 x M M 2   ~ ~ ~ ~ ~ ~ Q ~ ~ ~ ~ ~ ~ ~ ~ ^ ^ ^ ",
"Q ~ ) ) ) ) ) ) ) ) ) ) ! ~ ) ) ) ) ) r         N N N N 3   ) ) ) ) ) ) Q ~ ) ) ) ) ) ) ) ) ) [ ",
"Q ^ ) [ [ [ [ [ [ [ [ [ Q ^ ) [ [ [ [ [ [   3 Z Z Z Z Z 3   [ [ [ [ [ [ ~ ^ ) [ [ [ [ [ [ [ [ [ ",
"~ ^ [ } [ } } | } [ } | ~ ^ } [ | [ [ [ | u 4 3 V V Z 3 4 p [ | | [ } | Q ^ } [ [ } [ } } [ [ | ",
"Q ) | | | | | [ | | | | Q ) | | | | | [ | | u   B V V   u | | [ | | | | Q ( | | | | | | | | | | ",
"Q Q Q Q Q Q Q Q Q Q Q Q Q Q Q Q Q Q Q Q Q Q 0   V Z V   0 ~ Q Q Q Q Q Q Q Q Q Q Q Q Q Q Q Q Q Q ",
"~ ~ ~ ^ ^ ^ Q ~ ~ ~ ~ ~ ~ ~ ~ ~ ^ ~ Q ~ ~ ~ r   Z Z V   0 ~ Q ~ ~ ~ ~ ~ ~ ~ ~ ~ ~ ~ Q ~ ~ ~ ~ ~ ",
"( ) ) ) ) ) Q ^ ) ) ) ) ) ) ) ) ) ) ~ ^ ) ) u   Z Z Z   r ) ~ ~ ) ) ) ) ) ) ) ) ) ) Q ~ ) ) ) ) ",
"[ [ [ [ [ [ Q ^ ) ) ) [ [ [ [ [ [ [ Q ^ ) ) u   Z Z Z   u [ Q ^ ) ) [ [ [ [ [ [ [ [ ~ ^ ) ) ) [ ",
"} | } [ [ | Q ) | } [ } [ | | [ [ | ~ ^ | | u   Z Z Z   u | Q ) [ | [ [ } | | [ [ | Q ^ | } [ } ",
"| | | [ | | Q ^ | | | | | | | | | [ Q ^ | | u   Z Z Z   u | Q ^ | | | } | | | | | | Q ^ | | | | ",
"Q Q Q Q ~ Q Q Q Q Q Q Q Q Q ~ Q Q Q Q Q Q Q 0           0 ~ Q Q ~ Q Q Q Q Q Q Q ~ Q Q Q Q Q Q Q ",
"Q ~ ~ ~ ~ ~ ~ ~ ~ ^ ^ ^ Q ~ ~ ~ ~ ~ ~ ~ ~ ^ k r 0 0 r r j ~ ~ ~ ~ ~ ^ ~ Q ~ ^ ^ ~ ~ ~ ~ ~ ^ ^ ^ ",
"Q ~ ) ) ) ) ) ) ) ) ) ) Q ~ ( ) ) ) ) ) ) ) ) ) ~ ~ ) ) ) ) ) ) ) ) ) ) Q ^ ) ) ) ) ) ) ) ) ) ) ",
"Q ~ ) ) [ [ [ [ [ [ [ [ Q ~ ) ) [ [ [ [ [ [ [ [ Q ~ ) ) [ [ [ [ [ [ [ [ Q ^ ) ) [ [ [ [ [ [ [ [ ",
"~ ^ | } | [ [ } } [ } | Q ( } [ [ | | [ [ | | | Q ( | [ } [ [ [ } [ } | Q ( [ } [ [ } [ [ } | | ",
"Q ( | | | | | | | | | | Q ) | | | | | | | | | | Q ) | | | | | } | | | | Q ) | | | | | | | | | | "
};
