/* XPM */
static char *opps[] = {
/* columns rows colors chars-per-pixel */
"48 48 93 2",
"   c #040404",
".  c #010209",
"X  c #07080C",
"o  c #080706",
"O  c #0B0B0B",
"+  c #010411",
"@  c #02071B",
"#  c #120E0D",
"$  c #110F14",
"%  c #151312",
"&  c #1B1513",
"*  c #181817",
"=  c #1C1C1B",
"-  c #050E36",
";  c #060F38",
":  c #06103C",
">  c #0C143A",
",  c #221C19",
"<  c #252525",
"1  c #282726",
"2  c #292827",
"3  c #2C2B2B",
"4  c #2C2D30",
"5  c #352B27",
"6  c #322E2C",
"7  c #392F2D",
"8  c #323233",
"9  c #3B3B3B",
"0  c #091753",
"q  c #09195E",
"w  c #061764",
"e  c #071865",
"r  c #06196D",
"t  c #091B66",
"y  c #0A1C6E",
"u  c #0D1F70",
"i  c #0E206E",
"p  c #0E2171",
"a  c #12236A",
"s  c #192764",
"d  c #1A2A66",
"f  c #112473",
"g  c #152877",
"h  c #162978",
"j  c #393343",
"k  c #40332F",
"l  c #433631",
"z  c #4A3F3B",
"x  c #4D413D",
"c  c #53433D",
"v  c #696A3C",
"b  c #78763B",
"n  c #454545",
"m  c #464A43",
"M  c #464A4F",
"N  c #4D4D4D",
"B  c #424952",
"V  c #494C53",
"C  c #4F504E",
"Z  c #5C4B43",
"A  c #504F52",
"S  c #50514F",
"D  c #535353",
"F  c #5B5B5B",
"G  c #65514B",
"H  c #69554D",
"J  c #6D584F",
"K  c #675450",
"L  c #645D5B",
"P  c #6E5951",
"I  c #745D54",
"U  c #776057",
"Y  c #7A6259",
"T  c #82695F",
"R  c #856B62",
"E  c #95776D",
"W  c #96786E",
"Q  c #9A7C71",
"!  c #B7A811",
"~  c #A28277",
"^  c #A58579",
"/  c #D7C411",
"(  c #B69285",
")  c #B89486",
"_  c #B99689",
"`  c #C49D8F",
"'  c #C79F90",
"]  c #C7A091",
"[  c #C9A294",
"{  c #D0A697",
"}  c #D3AA9B",
"|  c #D9AE9E",
" . c #DBB1A1",
/* pixels */
"N N N N N N N N N N N n N N N N N N n N N N N N N N N N N N N n N N N N N N N N N N N N N N N N ",
"N N D D N N N N N C N C C C C D N C N N C V N N C N C C N A N N N C N N N N N D N V m N C C N N ",
"D D D D D F N N D D D D D D D D D D N N D D D D C D D D D A N N C D D D C D D D D D N N D D D A ",
"F F F F F F N N D D F F F F F F F F N N D F F F F F F F D F N N F D F F F F F F F F N N D F F F ",
"F F F F F F N D F F F F F F F F F F N A D L F F F F F F L F V D F F F F F F F F F F N C F F F F ",
"F F F F F F N D F F F F F F F F F F C N F F F F F F F F F F C D F F F F F F F F F F A D F F F F ",
"N N N B N N N N N N N N N N N N C A n n n n n n N n n n n n n N N N N N N N N N C N N N N N N N ",
"N N N S N N D N S V N N N N N C A C < < < < < < 2 < < < < < 2 9 N N N N n N N N C C N C A N N C ",
"N N N D D D D D D D D D N N N D D D   o o   o o o o o o   o O 4 N F D D M N D D D F D D D D D D ",
"N N F F F F F F F F F F N D D N 2   O O $ * * = < 2 3 9 9 9 9 < o D F F D D F F F F F F F F L F ",
"N D F L F F F F F F F F N D F < *     o O O O # % = < 3 3 4 8 1 = 8 n D N C F F F F F F F F F F ",
"N D D L F F F F F F L F N D F                   X O % = = < 1 3 1 O 6 D N D F F F F F F F F F F ",
"n N D N N N N n V N N N n < o   o O # # # # # # # # O # # # # # # # O   N N C V N N N N N N N N ",
"N S D C N N N N N D N D N < o O 5 G J J J J J J J J J J P P J J J o     N C N V V C n N C C N C ",
"D D D D D D D N D C D D N 2 o O G ( ` ' ' [ ] ] ] ] ] ] ] ] ] ] `       C D D F D D N N D D C D ",
"F F F F D F N N F F D F D 2   , U [ ' ' ' [ ] ] ` ] ] ] ] ] ] { | O     F L F F L F N C D F D F ",
"F F F F F F N D F F F F D 3 o Y ~ } J J J J J J T Y I J J J I ~ { G 5   F F F F F F N C F F F F ",
"F F F F F F C D F F F F D 8 o [ } | # # # # # # R c & # # # , U ' ( G # F F F F F F C D F F F F ",
"C N N N N N N N N N N N n 3 O [ }  .~ l % % l ~  .[ R # # # T ' | ( H % N N M N N N N N N N N N ",
"N N C N N C C D C V C N N 9 6 I ^ } ' E I U Q [  .| [ I J J ' } | H z 8 N N N C N N A C C C V A ",
"N N A D D D D D D D D F N N N , U { | { ] [ } |  . . .] ' ' | | | & 6 n N N D D D D D D D D D F ",
"N A D D F F F F F F F F N A D D 6 O ] ] ] ] ( I k c W ] [ [ ( H & F F F N C F F F F F F F F F F ",
"N D F L F F F F F F F F N C F D m 8 P P P J H Z c c G J J J H c 8 F F F N V D L F F F L F F F F ",
"V D F F F F F F F F F F N D F F F D O # # # # # # # # # % # % 7 C F F F N D F L F F F F F F F F ",
"N N N N N N n N N N N N N N N n 3 % t y u y r u y a d d a i q > $ n N N N N N N N N N N N N N N ",
"N C V D C C N N C D V C N C C 3 z G ; 0 y y u y a M b v B a > j G < 9 M N N C N N N N N N C N C ",
"C D D D D D N N D D D D D D D % G ( + : e y r y s b / ! v s % G _ O 3 N D D D D D D n A C A D D ",
"F D L F F F N C D F F D D F F # P [ % > q y u y r r y i y y , U [ o 3 D F F F F F L C D D F D F ",
"F F F F F F C A D L F F F F F # P [ K j > u u u r y y i 0 : U ~ } o 3 D F F F L F F V D F F F F ",
"F F F F F F C D F F F F F L F # P [ _ K % i u y y r r a ; X [ }  .o 8 D F F F D F F C D F F F F ",
"C N N N N N N N N N N N C N N % G _ _ G # h h g g g h f : . [ [ [ O 3 n N N N N N N C N N N N N ",
"N N N N A C C N N C N C N N C 6 m G G 7 o f f i f p f a : X P P P 6 9 V N N N N N A C C C C C S ",
"N N C D D D D D F D D F N N A N 3 % # o   u y y y y y t ; . # # # D D F C C C D D D D D D D F V ",
"N A D F D F F F F F F F N N F D F F D 3 o r r r . - w r - . F F F F F F N D D L F F F F F F F F ",
"C D F F F F F F F F F F V D F F F F F 3 o y y r . - w w - . D F F F F F C C D F F F F L F F F F ",
"N D F F F F F F F F F F C D F F F F D 3 o r y y . - e w - . F F F F F F C D F F F F F L L F F F ",
"N N N N N N N N N N N N N N N N N N n <   y y y . - t t - . N N N N N N B N N N N N n N N N N N ",
"N A C C A N N N N C N V C C N A D C n < o u y u . - e t - . N N N N C D S V D S N N N N N N N N ",
"D D D D D F N N C A A D D D D D C D n <   u u r . - t t - . N N C D D D D D D D D D N N D D V D ",
"F D L F F F N C D F F F F F F L F F n < o r t t . - q q - . N N F F D D F F F F F L N D F F D F ",
"F F F F F F N D F F F F F F F F F F n < o - - -   @ - - @ . N A F F F F F F F F F F N D F F F F ",
"F F F F F F N D F F F F L F F F F F n < o . . .       .     n C F F F F F F F F F F C D F F F F ",
"N N N N N N N N N N N N N n N N N N N N N N N N n N N N N N N N N n N N N N N N V N N N N N N N ",
"N N N N C C V D C C N C N N C V N N N S N N N D N N N C N N D C D V D N M N C C D V N V N N D C ",
"N C D A D F D D D F D D N N D D D D D D D D D D N N D D D D D D F D D D N C D D D D D D D D D D ",
"n C D F F F F F F F D F N N D F L F F F F F F F N N F D F F F F F F F F N S D F F F F F F F F F ",
"N C F F F F F F F F F F C D F F F F F F F F F F N D F F F F F F F F F F N S F L L F F F F F F F ",
"A D F F F F F F F F L F N D F F F F F F F F F F N D F F F F F F F F F F N D F F F F F F F F F F "
};
