/* XPM */
static char *p1[] = {
/* columns rows colors chars-per-pixel */
"48 48 165 2 ",
"   c black",
".  c #050505",
"X  c #060606",
"o  c #080808",
"O  c #0A0A0A",
"+  c #0C0C0C",
"@  c #0D0D0D",
"#  c #0E0E0E",
"$  c #101010",
"%  c #131313",
"&  c #161616",
"*  c #171717",
"=  c #191919",
"-  c #1D1D1D",
";  c #331905",
":  c #341B06",
">  c #2A1C17",
",  c #2B1D18",
"<  c #2B1E19",
"1  c #202020",
"2  c #232323",
"3  c #262626",
"4  c #282828",
"5  c gray16",
"6  c #2A2A2A",
"7  c #2B2B2B",
"8  c #2C2C2C",
"9  c #2D2D2D",
"0  c #2E2E2E",
"q  c #2F2F2F",
"w  c #3D302B",
"e  c #3F312C",
"r  c gray19",
"t  c gray20",
"y  c gray21",
"u  c #393939",
"i  c #3A3A3A",
"p  c #3D3D3D",
"a  c #5E361D",
"s  c #5E371E",
"d  c #663207",
"f  c #663208",
"g  c #663308",
"h  c #663209",
"j  c #663309",
"k  c #66330A",
"l  c #66340A",
"z  c #67340B",
"x  c #67350B",
"c  c #67350C",
"v  c #68360D",
"b  c #6B3910",
"n  c #703D16",
"m  c #40332E",
"M  c #42342F",
"N  c #54372D",
"B  c #54382D",
"V  c #54382E",
"C  c #55392F",
"Z  c #553A30",
"A  c #563A30",
"S  c #563B31",
"D  c #563B32",
"F  c #563C32",
"G  c #573C32",
"H  c #573D33",
"J  c #573D34",
"K  c gray25",
"L  c #454545",
"P  c #464646",
"I  c #4B4B4B",
"U  c #4D4D4D",
"Y  c #4F4F4F",
"T  c #505050",
"R  c #515151",
"E  c #535353",
"W  c #545454",
"Q  c #555555",
"!  c #565656",
"~  c #585858",
"^  c #595959",
"/  c #5A5A5A",
"(  c #5B5B5B",
")  c #5C5C5C",
"_  c #5D5D5D",
"`  c #5E5E5E",
"'  c #7F5646",
"]  c #9A4E11",
"[  c #9A4F11",
"{  c #CA620B",
"}  c #CA610C",
"|  c #CA620C",
" . c #CB630D",
".. c #CB630E",
"X. c #CB630F",
"o. c #CB640F",
"O. c #CC640F",
"+. c #CB6510",
"@. c #CB6412",
"#. c #CC6410",
"$. c #CC6510",
"%. c #CC6511",
"&. c #CC6512",
"*. c #CC6612",
"=. c #CC6613",
"-. c #CC6614",
";. c #CC6714",
":. c #CD6714",
">. c #CD6715",
",. c #CD6815",
"<. c #CD6816",
"1. c #CE6816",
"2. c #CE6916",
"3. c #CE6817",
"4. c #CE6917",
"5. c #CE6A17",
"6. c #CF6A19",
"7. c #CF6B19",
"8. c #CF6B1A",
"9. c #D6701F",
"0. c #D67120",
"q. c #D77121",
"w. c #E07A2C",
"e. c #805747",
"r. c #805748",
"t. c #81594A",
"y. c #825A4B",
"u. c #825A4C",
"i. c #A76E59",
"p. c #A76F5A",
"a. c #A86F5A",
"s. c #A8705B",
"d. c #A9705C",
"f. c #A9715C",
"g. c #A9715D",
"h. c #AA715D",
"j. c #A9725D",
"k. c #AA725E",
"l. c #AA735E",
"z. c #AA735F",
"x. c #AB735F",
"c. c #AA745F",
"v. c #AB745F",
"b. c #AB7460",
"n. c #AB7560",
"m. c #AB7561",
"M. c #AC7661",
"N. c #AC7662",
"B. c #AC7663",
"V. c #AC7763",
"C. c #AD7763",
"Z. c #AD7764",
"A. c #AD7864",
"S. c #AE7965",
"D. c #AE7966",
"F. c #AE7A66",
"G. c #AE7A67",
"H. c #D18343",
"J. c #DA8E50",
"K. c #D8A479",
"L. c #D9A57B",
"P. c #E6B38A",
"I. c #E6B48A",
"U. c gray90",
"Y. c white",
/* pixels */
"I I Y I I I I I I I I I I I Y I I I I I I I I I I I I I I I I I I I I I I I Y I I I I I Y I I I ",
"Y Y T T Y Y I Y Y Y Y Y Y Y T T Y Y I Y Y Y Y Y Y Y Y T T T I Y Y Y Y Y Y Y T T Y T I Y Y T Y Y ",
"Q Q Q Q Q Q I Y Q Q Q Q Q Q Q Q Q Q I Y Q Q Q Q Q Q Q Q Q Q I Y Q Q T Q T Q Q Q Q Q I Y T Q T Q ",
"^ ^ ^ ^ ^ ^ I T ^ Q ^ ^ Q ^ ^ ^ ^ ^ I T Q ^ Q ^ ^ ^ ^ ^ ^ ^ I T ^ ^ ^ ^ ^ ^ ^ ^ ^ ^ I T ^ ^ ^ ^ ",
"^ ` ^ ` ` ` I T ^ ^ ` ^ ` ` ^ ` ` ` I T ^ ` ^ ` ^ ` ` ^ ` ` Y T ^ ` ^ ` ^ ` ^ ` ` ` I T ` ^ ^ ` ",
"` ` ` ` ` ` Y Q ` ` ` ` ` ` ` ` ` ` Y T ` ` ` ` ` ` ` ` ` ` I Q ` ` ` ` ` ` ` ` ` ` Y T ` ` ` ` ",
"Y I I I I I I I I I I I I I I I Y I I I I I I I I I I I I Y I I I I I I Y I I I Y I I I I Y I I ",
"I Y Y Y Y Y Y Y Y Y Y Y I Y Y Y Y Y 3 3 3 3 3 3 3 3 3 3 3 3 3 i Y T Y Y I I Y Y Y Y Y Y Y T Y Y ",
"I Y T Q Q Q Q Q Q Q Q Q I Y T Q Q Q                           7 Q ^ Q ^ I T Q Q W Q Q Q Q ^ Q Q ",
"I Y ^ ^ Q ^ ^ ^ ^ ^ ` ^ Y T ^ ^ 8   @ @ % = - 1 3 8 t i p K P 2   ^ ^ ^ Y T ^ Q Q ^ ^ ^ ^ ^ ^ ^ ",
"I Q ^ ` ^ ` ` ^ ^ ` ` ` I T ^ 8 *   X O O @ # % * - 2 7 8 8 y 3 * 8 P ` I Q ^ ` ` ^ ^ ` ` ` ^ ` ",
"I T ` ` ` ` ` ` ` ` ` ` Y Q `                   X @ % = - 2 3 7 8   8 ` I T ` ` ` ` ` ` ` ` ` ` ",
"I I Y I I I I I I I I I I 3                                       % O   I I I Y Y I I I I I I I ",
"Y Y T T Y Y I Y Y Y Y Y Y 3     , C A A A F A C N N C C C A C C C O X   Y Y Y T Y Y I Y Y Y Y Y ",
"Q Q Q Q Q Q Y T T Q Q Q Q 7     A h.h.m.m.M.m.h.i.i.p.p.h.c.h.h.h.      Q Q Q Q Q Q I Y Q Q Q Q ",
"^ ^ ^ ^ ^ ^ I T ^ ^ ^ ^ ^ 8     A m.h.h.h.M.c.c.s.s.f.h.m.m.h.h.h.      ^ ^ ^ ^ ^ ^ I T ^ Q ^ Q ",
") ) ) ) ` ` I E ^ ) ) ) ` 8   G u.D.h.h.h.F r.h.h.h.h.C ' c.h.p.h.C >   ^ ` ^ ` ` ` I T ^ ^ ` ` ",
"` ` ` ` ` ` I E ` ` ` ` ` q   D.D.D.m.m.h.  A b.m.c.h.  C c.p.h.h.h.C   ` ` ` ` ` ` Y Q ` ` ` ` ",
"I I I I I I I I I I I I I 3   D.G.D.m.m.m.  A Z.Z.m.m.  C s.s.s.s.i.C   I I I I I I I I I I I Y ",
"I Y Y Y Y Y T T T T T T I i 7 J u.Z.c.m.b.A t.Z.D.m.m.A ' p.c.h.h.N e 8 I Y Y Y Y Y Y Y Y Y Y T ",
"I T E E E Q Q Q Q Q Q ~ I T E   F m.h.h.h.C.M.D.D.D.m.M.c.h.c.s.h.  7 Q Y T T Q T Q Q Q Q Q Q Q ",
"I T ~ ^ ~ ~ ~ ^ ^ ^ ^ ^ I E ~ ~ 8   m.m.m.m.m.M.D.C.C.F.C.M.v.C   ^ ^ ^ I T ^ ~ ^ ^ ^ ^ ^ ^ ^ ^ ",
"Y T ^ ) ) ) ) ) ) ` ` ` I E ) ) P 8 A A C C A A F F F J F F C M q ` ^ ` I T ^ ` ^ ` ` ^ ` ` ` ` ",
"I Q ` ` ` ` ` ` ` ` ` ` I E ` ` ` `                           r ` ` ` ` Y Q ` ` ` ` ` ` ` ` ` ` ",
"I I I I I I I I I I I I I I I I 3   -.-.8.-.#.#.| | *.-.5.6.-.h   I I I I I I I I I I I I I I I ",
"Y Y T T T T I Y T T T T U T T 3 w A z [ -.-.-.*.| H.K.P.J.5.h a A 3 i Y Y Y T T Y Y I Y Y Y Y Y ",
"Q Q Q Q Q ~ I Y E W W W W ~ W   A b.  c 5.*.*.-.| K.U.Y.P.5.  A h.  7 Q Q Q Q Q Q Q I Y T Q W Q ",
"~ ^ ^ ^ ^ ^ I T ~ ~ ~ ~ ~ ~ ~   A Z.  h *.6.-.*.| o.*.5.5.-.  A D.  8 ^ ^ ^ ^ ^ ^ ^ U T ~ ^ ~ ^ ",
") ) ) ) ` ` I T ) ) ) ) ) _ `   J D.F N h 6.5.#.| #.*.8.[ h A u.D.  8 ^ ) ` ^ ` ` ` I E ^ ) ) ) ",
"` ` ` ` ` ` U Q ` ` ) _ ` ` `   J G.M.A   6.5.*.#.#.*.8.v   Z.G.D.  t ` ` ` ` ` ` ` I Q ` ` ` ` ",
"I I I I I I I I I I I I I I I   A S.M.A   w.w.w.w.w.w.w.n   Z.Z.C.  3 I I I I I I I I I I I I I ",
"I Y Y Y Y Y T T T T T T I U T 6 M H H <   q.0.9.9.9.q.q.b   A A A 7 p Y I Y Y Y Y Y T Y Y T T Y ",
"I T E Q Q E Q Q Q Q Q Q I T Q Q 7         5.*.*.*.*.*.5.c         Q Q ~ I Y T Q Q W Q Q Q Q Q Q ",
"I T ~ ~ ~ ^ ^ ^ ^ ^ ^ ^ I T ~ ~ ^ ^ ^ 8   X.O.o.  d | O.h   ^ ^ ^ ^ ^ ^ Y E ^ ^ ~ ~ ^ ^ ^ ^ ) ^ ",
"I E ^ ) ^ ) ) ` ` ` ` ` Y T ^ ) ` ^ ` 8   O.O.o.  d *.O.h   ^ ` ) ` ` ` I T ^ ) ^ ` ) ) ) ` ` ` ",
"I E ` ` ` ` ` ` ` ` ` ` I Q ` ` ` ` ` 8   @.*.*.  h *.@.h   ` ` ` ` ` ` I Q ` ` ` ` ` ` ` ` ` ` ",
"I I I I I I I I I I I I I I I I Y I I 3   -.*.@.  h @.-.x   I I I I I I I I I I I I I I I I I I ",
"T T T T T T I Y Y Y Y T Y Y Y T T T I 3   5.-.@.  h @.5.x   I Y Y Y Y Y Y Y T T Y Y I Y Y Y Y Y ",
"Q Q Q Q Q ~ I T T Q Q W Q Q Q Q Q Q I 3   5.5.@.  h *.5.x   I T E Q W Q Q Q Q Q Q Q I T T W E Q ",
"^ ^ ^ ^ ^ ^ I T ~ ^ ~ ^ ^ ^ ^ ^ ^ ^ I 3   @.-.5.  c 5.@.h   I T ~ ~ ~ ~ ~ ^ ^ ^ ^ ^ Y T ^ ~ ~ ~ ",
") ) ) ) ` ` I E ^ ) ) ) ) ) ) ` ` ` I 3   h x x   ; x h ;   I E ) ^ ` ^ ) ) ) ) ` ` I T ) ) ) ^ ",
"` ` ` ` ` ` I E ` ` ` ` ` ` ` ` ` ` I 3                     I E ` ` ` ` ` ` ` ` ` ` I Q ` ` ` ` ",
"I I I I I I I I I I I I I I I I I I I I I I I I Y I I I I I I I I I I I I I I I I I I I I I Y I ",
"I Y Y Y Y Y T T T T T T I I Y Y Y Y Y Y Y Y T T I I Y Y Y T T T Y T Y Y I Y Y Y Y Y T Y Y T Y Y ",
"I Y E Q E Q Q Q Q Q Q Q I T E Q Q Q Q Q Q Q Q Q I T Q Q E Q Q Q Q Q Q Q U Y E Q W Q Q Q Q Q Q Q ",
"I T ~ ~ ~ ~ ^ ^ ^ ) ^ ^ I T ~ ^ ^ ^ ~ ^ ^ ^ ^ ^ I T ^ Q ~ ~ ^ ^ ^ ^ ^ ) Y T ~ ~ ~ ^ ^ ^ ^ ^ ) ^ ",
"I E ^ ) ) ) ) ) ` ) ) ` Y T ^ ) ` ^ ^ ` ` ` ` ` Y T ^ ` ^ ` ) ` ) ` ` ` I T ^ ^ ^ ` ^ ` ) ` ` ` ",
"I E ` ` ` ` ` ` ` ` ` ` I Q ` ` ` ` ` ` ` ` ` ` I E ` ` ` ` ` ` ` ` ` ` U Q ` ` ` ` ` ` ` ` ` ` "
};
