/* XPM */
static char *p1[] = {
/* columns rows colors chars-per-pixel */
"48 48 82 1",
"  c #050404",
". c #0A0500",
"X c #0E0906",
"o c #0D0A09",
"O c #110801",
"+ c #130F0D",
"@ c #14110F",
"# c #1B110C",
"$ c #131313",
"% c #1B1310",
"& c #1B1B1B",
"* c #201003",
"= c #2A1D17",
"- c #331904",
"; c #252525",
": c #2B2826",
"> c #2C2B2B",
", c #322E2C",
"< c #3F312B",
"1 c #323232",
"2 c #3B3B3B",
"3 c #5D2E07",
"4 c #5D2F09",
"5 c #5E300A",
"6 c #5E361D",
"7 c #43332D",
"8 c #4E342B",
"9 c #573624",
"0 c #51372E",
"q c #55382E",
"w c #553A31",
"e c #5C3E33",
"r c #65330A",
"t c #6E370A",
"y c #6F380C",
"u c #6D3A12",
"i c #5D4036",
"p c #454545",
"a c #4D4D4D",
"s c #52504F",
"d c #535353",
"f c #5B5B5B",
"g c #7D5648",
"h c #9A4E11",
"j c #AB540E",
"k c #AC5510",
"l c #AD5814",
"z c #BA5B0E",
"x c #BB5D11",
"c c #BE6115",
"v c #81594B",
"b c #8E5E4D",
"n c #90604F",
"m c #916352",
"M c #9A6654",
"N c #9C6856",
"B c #9E6C5A",
"V c #A36E5B",
"C c #A86F5B",
"Z c #A4705D",
"A c #A9715D",
"S c #A67361",
"D c #AC7561",
"F c #AD7865",
"G c #CB630E",
"H c #C46314",
"J c #C6661A",
"K c #CC6512",
"L c #CD6816",
"P c #CE6B1B",
"I c #D16D1C",
"U c #CB6E26",
"Y c #D57121",
"T c #DC7627",
"R c #DD7728",
"E c #DE782A",
"W c #D08342",
"Q c #DA8E50",
"! c #D69F70",
"~ c #E4AC80",
"^ c #E0D0C2",
"/ c #F6E6D9",
/* pixels */
"aaaaaaaaaaaaaaaaaaapaapaaaaaaaaaaaaaapaaaaaaaaaa",
"aaddaaaaaaaasassadaaaaaadadaaaaaaaaaasdaaaaaaaaa",
"dddddfaasdssddfsddasdfddddddddpassdddadfdfpaadda",
"ffffffaafdffffffffaadfffffffffaaffffffffffadffff",
"ffffffadffffffffffadffffffffffadffffffffffaaffff",
"ffffffadffffffffffaaffffffffffafffffffffffadffff",
"aaaaaaaaaaaaaaaaaapppp2pappppppppaaaaaaaaaaaaaaa",
"aaaaaadassaaaaasas;;;;;;>;;;;;;2aaaaaassaaadddaa",
"aaaddfddddddaaaddd     o      $>sfddasssdfdddffd",
"aaffffffffffasda> +o$$&&;>>2222; ddfasfffffffdfd",
"aaffffffffffadf>$    +o$&&;>>>1;&1pdadffffffffff",
"adffffffffffadf          $$&&;>>;o1dasffffffffff",
"aadaaaaaaaaap;   oooXoXXXXXXooooX$  aaaadaaaaaaa",
"aadaaaaaaaada;  =8q0wwwqqqqq0wq00 o aaaddaaaaaaa",
"ddddddaaaddda> o8bMNVNNNMMMMNNMMM   dddddfaadddd",
"ffffffaafdffd> #eVCCCNVCVCCNVDCSC.  fffdffaafffd",
"ffffffadffffd> ivSSACevVCCAegVCCA8= ffffffadfdff",
"ffffffadffffd1oZSFDDC%eVDCC#eNCCAb8Xffffffafffff",
"saaaaaaaaaaap>oBSFDDD#eVFDD#eNCCVb0+aaaaaaaaaaaa",
"aassaaddsadsp21evSCDFevSFDDegVAAC0<>aaasasaasadd",
"aadddddddddfaaa$eVSAAVVFFFSBVCCAVo>aaassdfdddddd",
"aaffffffffffaafd1+NBNNBNZBVVVNn0$fffaaffffffffff",
"aaffffffffffaaffp1wwwqwwwwwweww71fffasffffffffff",
"asffffffffffaafffdooooOoooXoXX@1sfffsdffffffffff",
"aaaaaapaaaaaaaa2:+xHLKKKKJUIUIjr%paaaaaaaaapaaaa",
"aadaaaaaaaasaas;70thHKKKLW!~QIr60>2paaasaaaaaaaa",
"dddddfaaaddsdfa+0n*tcKKKP!^/~Y#qm >adddfdfaaadds",
"ffffffaafffffdfoeN#rkPKKGGKLJc#iS >affffffaaffff",
"ffffffasfffffffowVw9rILKGGKJhtevS >dffffffadffff",
"ffffffaffffffffowBmq#ILLGKKcy*VSF 1fffffffafffff",
"daaaaaapaaaasaa+0mm0OEREEEEUuOBBB$>paaaaaapaaaaa",
"aaaaaadsssasaaa17w0=.YIYYIIUuOwww>2aaaaaadaaaaad",
"aaddddddfdddaddp>+X  LKLLKKHrOOoosdfaaaddfddfddd",
"aaffffffffffaaffffd> GGG.rzzrOffffffadffffffffff",
"adffffffffffadfffff>XKGK.rzzrOdfffffasffffffffff",
"adffffffffffadffffd> KKKOrxxrOffffffadffffffffff",
"aapaaaaaaaapaapaaap;XKKKOrxxrOaaaaaaaaaaaaaaaaaa",
"aadsdapaaaddadadadp; LKKOrxxrOaaaaaaaaadaspaaaaa",
"ddddffpaadddddfdddp; PLKOrzcrOaadddsaddddfaadddd",
"ffffffasffffffffffp; xxcO3lj5Oasffffffffffaddffd",
"ffffffpddfffffffffp; rrr.-43- aaffffffffffadffff",
"ffffffafffffffffffp; OO. ..X  adffffffffffadffff",
"aaapaapaaapappaaaaaaaaaaaaaaaaaaaaaaaaaaaaaaaaaa",
"aaadaddddddaaadaaaaaaaasapaaaaaadaaaaaaaaaasasss",
"aadddfddddddaaddfdddddffaaddddfdfdddassdsfdfsddd",
"pdffffffffffaddfffffffffaafdffffffffasffffffffff",
"aaffffffffffadffffffffffadffffffffffadffffffffff",
"adffffffffffafffffffffffadffffffffffasffffffffff"
};
