/* XPM */
static char *p2[] = {
/* columns rows colors chars-per-pixel */
"48 48 192 2",
"   c #000000",
".  c #010000",
"X  c #010101",
"o  c #020202",
"O  c #030303",
"+  c #040404",
"@  c #070504",
"#  c #060606",
"$  c #070707",
"%  c #080400",
"&  c #0F0801",
"*  c #0D0807",
"=  c #0D0907",
"-  c #0E0907",
";  c #080808",
":  c #090909",
">  c #0A0A0A",
",  c #0E0908",
"<  c #0E0A08",
"1  c #0C0C0C",
"2  c #0D0D0D",
"3  c #0E0E0E",
"4  c #0F0F0F",
"5  c #110801",
"6  c #110802",
"7  c #110902",
"8  c #100E0D",
"9  c #170F0A",
"0  c #18100A",
"q  c #18100B",
"w  c #1B120E",
"e  c #121212",
"r  c #161616",
"t  c #171717",
"y  c #1D1817",
"u  c #181818",
"i  c #191919",
"p  c #1B1B1B",
"a  c #1C1C1C",
"s  c #1F1F1F",
"d  c #211003",
"f  c #211206",
"g  c #2B1D18",
"h  c #2C1E1A",
"j  c #331A05",
"k  c #2F211C",
"l  c #222222",
"z  c #242424",
"x  c #252525",
"c  c #262626",
"v  c #272727",
"b  c #282828",
"n  c #292929",
"m  c #2A2A2A",
"M  c #2C2C2C",
"N  c #2D2D2D",
"B  c #2E2E2E",
"V  c #2F2F2F",
"C  c #322E2B",
"Z  c #34302D",
"A  c #35302D",
"S  c #303030",
"D  c #313131",
"F  c #323232",
"G  c #373737",
"H  c #383838",
"J  c #393939",
"K  c #3A3A3A",
"L  c #3B3B3B",
"P  c #3C3C3C",
"I  c #3D3D3D",
"U  c #3F3F3F",
"Y  c #5E2F0A",
"T  c #5E300A",
"R  c #4F3622",
"E  c #4E342A",
"W  c #4E342B",
"Q  c #4F372E",
"!  c #503725",
"~  c #55382E",
"^  c #55392E",
"/  c #55392F",
"(  c #553A30",
")  c #553B31",
"_  c #563B31",
"`  c #563C31",
"'  c #563C32",
"]  c #5B3D31",
"[  c #5C3D32",
"{  c #5C3E32",
"}  c #67340A",
"|  c #67340B",
" . c #67350C",
".. c #68350C",
"X. c #69370E",
"o. c #6F380B",
"O. c #6B3911",
"+. c #6A3B18",
"@. c #6B3C19",
"#. c #713C11",
"$. c #743F15",
"%. c #444444",
"&. c #454545",
"*. c #464646",
"=. c #474747",
"-. c #484848",
";. c #494949",
":. c #4A4A4A",
">. c #4B4B4B",
",. c #4C4C4C",
"<. c #4D4D4D",
"1. c #4E4E4E",
"2. c #4F4E4E",
"3. c #4F4F4F",
"4. c #504F4F",
"5. c #505050",
"6. c #515151",
"7. c #525252",
"8. c #535353",
"9. c #545454",
"0. c #555555",
"q. c #565656",
"w. c #575757",
"e. c #585858",
"r. c #595959",
"t. c #5A5A5A",
"y. c #5B5B5B",
"u. c #5C5C5C",
"i. c #5D5D5D",
"p. c gray37",
"a. c #7E5444",
"s. c #7F5445",
"d. c #7F5546",
"f. c #9A4E10",
"g. c #A15619",
"h. c #AC5712",
"j. c #BC5F13",
"k. c #BD6013",
"l. c #BC6014",
"z. c #BF6217",
"x. c #BC6725",
"c. c #8D5D4C",
"v. c #8E5F4D",
"b. c #8E604E",
"n. c #926655",
"m. c #9A6652",
"M. c #9A6653",
"N. c #9B6653",
"B. c #9B6754",
"V. c #9B6955",
"C. c #9B6956",
"Z. c #9C6956",
"A. c #9C6A56",
"S. c #9C6A57",
"D. c #9D6A56",
"F. c #9D6B59",
"G. c #9E6C5A",
"H. c #9E6D5B",
"J. c #9E6E5B",
"K. c #9E6E5C",
"L. c #9F6F5D",
"P. c #A16A56",
"I. c #A26D59",
"U. c #A36E5A",
"Y. c #A76F5A",
"T. c #A86F5A",
"R. c #A8705B",
"E. c #A8715C",
"W. c #A9715C",
"Q. c #A9715D",
"!. c #A9725D",
"~. c #AA735E",
"^. c #AA735F",
"/. c #AB7460",
"(. c #C46314",
"). c #C06419",
"_. c #C2651B",
"`. c #C3661C",
"'. c #C4671D",
"]. c #C5671D",
"[. c #C6691F",
"{. c #CB6714",
"}. c #CE6B1D",
"|. c #D06D1F",
" X c #D56F1F",
".X c #DC7627",
"XX c #DD7728",
"oX c #DD7729",
"OX c #DE782A",
"+X c #DF792B",
"@X c #E07A2B",
"#X c #E07A2C",
/* pixels */
">.>.>.>.>.>.>.>.>.>.>.>.>.>.>.6.>.>.>.>.>.>.>.>.>.>.>.>.>.>.>.>.>.>.>.>.>.>.,.>.>.,.>.>.>.>.>.>.",
">.6.6.6.>.6.>.>.>.6.6.6.>.6.>.6.>.6.>.>.6.6.6.>.6.6.>.6.6.6.>.>.3.5.3.5.3.3.3.3.3.5.>.3.3.3.3.3.",
"0.0.0.6.0.0.>.6.0.6.6.0.0.0.0.0.0.0.>.6.0.6.0.6.6.0.6.6.0.0.>.6.8.8.8.9.8.8.8.9.8.9.>.3.8.8.8.9.",
"t.t.t.t.t.t.>.6.0.t.t.0.t.0.t.t.t.t.>.6.0.t.0.t.t.t.t.t.t.t.>.6.0.e.w.t.e.t.e.t.t.t.>.3.w.w.w.t.",
"t.p.t.p.p.p.>.6.t.t.t.t.t.t.t.p.p.p.>.6.t.p.t.p.t.t.t.p.p.t.>.0.t.y.t.t.y.y.t.p.p.t.>.8.t.t.t.y.",
"p.p.p.p.p.p.>.0.p.p.p.p.p.p.p.p.p.p.>.6.t.p.t.p.p.p.p.t.p.p.6.0.t.p.p.p.p.p.y.p.p.p.,.8.y.y.y.p.",
">.>.>.>.>.>.>.>.>.>.>.>.>.>.>.>.>.>.*.*.%.%.%.%.>.%.%.%.*.*.*.*.>.>.>.>.3.>.>.>.3.,.>.>.3.>.>.>.",
">.>.>.6.6.6.6.6.>.6.6.6.>.>.6.6.>.6.v l v v l v v v v v v v v H >.5.5.3.,.,.3.3.3.5.5.3.3.3.3.3.",
">.>.6.0.6.6.0.6.0.0.0.6.>.6.6.6.6.0.# # # # # #   # ; # # # 1 v 3.8.w.w.>.3.8.9.6.8.0.9.0.9.8.9.",
">.6.t.t.t.t.t.t.t.t.t.t.6.6.0.>.v # 1 1 e r p p v v N H H I I v ; 8.9.e.3.3.e.e.w.e.t.t.t.e.t.t.",
">.0.0.p.t.p.p.t.p.t.p.p.>.6.p.v t # ; 1 ; 1 1 r r a l v N N F v p V *.e.,.5.t.t.p.t.y.p.t.y.p.p.",
">.6.t.p.p.p.p.p.p.p.p.p.>.6.p.# O     O       O 1 1 e a a v v v n 1 S w.,.8.y.p.p.y.p.p.p.p.p.p.",
">.>.>.>.>.>.>.>.>.>.>.>.*.v #                           $ - - - 1 y 8 O >.,.,.3.>.,.>.>.>.>.,.>.",
"6.>.6.6.6.6.>.>.>.6.6.>.>.v #                         @ g W ~ ~ ~ ' k @ 3.5.5.6.6.5.,.>.5.5.3.5.",
"0.0.0.0.6.0.6.>.6.0.6.0.>.v #                         - E c.Z.Z.M.c.E - 0.8.9.6.0.0.,.3.6.0.8.9.",
"t.t.t.0.t.t.>.6.t.0.t.0.6.N #                     # - ^.^.^.N.P.Y.m.~ - e.t.t.t.t.t.>.6.w.e.0.t.",
"t.p.p.t.t.p.>.8.t.t.t.p.e.N ;                   # g E ^.R.^.] a.P.Z.~ - p.y.t.y.p.p.,.5.e.t.y.t.",
"u.p.p.p.p.p.6.0.t.u.p.p.0.N ;                   - E c.^.T.T.w ] N.B.~ - p.p.p.p.p.p.>.6.t.p.p.p.",
">.>.>.>.>.>.>.>.>.>.>.>.*.v 1                   w ] B.T.T.T.w ] Z.m.~ - >.>.,.,.,.,.>.>.,.,.>.>.",
">.>.5.5.5.6.6.>.5.>.5.5.>.H v                   ] s.U.^.^.^.] a.P.m.~ - ,.>.>.5.5.3.6.6.5.5.6.6.",
">.3.9.0.6.0.0.9.0.8.0.0.>.>.>.                  S.J.^.^.R.^.B.I.T.m.~ - 5.>.3.8.0.9.9.6.0.9.8.0.",
">.6.e.0.0.t.t.t.t.t.t.t.6.6.t.6.F 1             B.S.I.J.J.J.Z.Z.N.8 V 8.,.5.w.t.e.e.t.t.t.e.e.t.",
">.8.t.t.t.t.p.t.t.p.p.p.>.6.u.0.%.V             ~ ~ / ` ` ` ~ ~ ~ F *.t.,.6.e.y.t.y.t.y.p.p.t.p.",
">.6.t.p.p.p.p.p.p.p.p.p.>.6.u.p.t.0.            1 7 1 - - - - - 1 0.t.p.>.0.t.p.p.p.p.p.p.p.p.p.",
">.>.>.>.>.>.>.>.>.>.>.>.>.>.>.>.>.>.>.>.>.5 | j.k.(.{.h.T & >.>.>.>.>.>.,.>.>.>.>.,.>.,.>.>.>.>.",
"6.6.6.>.6.6.>.3.5.>.6.5.>.5.5.3.5.6.>.>.>.5 | j.o.f.(.T j % >.>.3.3.3.3.5.3.5.5.3.3.>.>.>.3.3.3.",
"6.0.0.6.6.0.>.>.6.9.0.8.0.0.6.9.0.0.>.5.0.5 | j.d o.k.5 %   >.6.8.9.8.8.6.8.8.9.9.9.>.>.6.9.9.8.",
"t.t.t.t.t.u.>.6.0.t.0.t.t.t.t.t.t.t.>.5.e.5 | l.1 _ I.- $   *.>.9.e.t.t.t.t.e.t.t.t.3.5.w.t.t.t.",
"t.u.t.p.p.p.>.9.e.t.t.p.t.p.u.t.u.p.>.6.w.5  .l.1 ( J.~ g @ v U 9.t.t.t.y.y.t.p.p.y.>.9.e.t.t.y.",
"p.p.p.p.p.p.3.0.u.p.p.p.p.p.p.p.p.p.6.0.y.5 X._.- ( S.n.~ 1 1 F 0.p.p.p.p.p.y.p.p.p.>.0.t.p.p.p.",
">.>.>.>.>.>.>.>.>.>.>.>.>.>.>.>.>.>.>.>.>.5 X._.`.#.f Z.S.Z.; c *.>.,.,.,.>.>.>.,.,.>.>.>.>.>.>.",
">.>.>.5.5.5.5.6.6.>.5.6.>.>.3.5.5.>.5.6.3.5 X.`.}.g.$.` ~ ~ $ v -.5.5.5.,.>.3.3.5.5.5.6.5.5.5.5.",
">.6.6.6.6.0.0.6.0.9.0.0.>.5.9.9.0.0.9.6.0.5 O.`. X}.[.1 - - $ v 3.8.0.0.>.5.6.9.8.9.9.8.8.8.9.9.",
">.6.e.t.e.e.t.t.t.t.e.t.>.5.0.t.t.0.t.t.t.9 +.x.@X+X@Xx.@.0 t.t.t.t.t.t.>.5.e.t.e.w.t.e.t.t.t.t.",
">.6.t.p.u.t.t.p.t.p.t.u.>.6.0.u.t.u.p.t.p.C R +.XX@X@X+.! C y.p.p.y.p.p.3.8.e.t.t.p.t.p.p.p.y.p.",
"3.0.t.p.p.p.p.p.p.p.p.p.>.0.t.p.p.p.p.p.p.3.A 0 XXXXXX0 C 3.p.p.p.p.p.p.>.0.t.p.y.p.p.p.p.p.p.p.",
">.>.>.>.>.>.>.>.>.>.>.>.>.>.>.>.>.>.>.>.>.=.v # @X@X#X# v *.>.>.>.>.>.>.>.>.>.>.>.>.,.>.>.,.>.,.",
">.6.6.>.5.6.>.>.3.5.6.>.6.6.6.6.5.5.>.3.>.>.v # @X@X#X# v >.>.>.3.3.3.3.3.3.5.3.5.3.,.>.>.5.5.3.",
"9.6.0.9.0.0.>.5.5.0.6.0.6.0.0.0.0.0.>.5.6.>.v ; @X@X#X# v >.>.5.3.9.9.9.9.8.9.9.9.9.>.3.5.9.8.8.",
"t.t.t.t.t.t.>.6.0.t.t.t.t.e.t.t.y.t.>.6.0.0.N # #X#X#X$ N 8.>.6.w.e.e.t.w.t.e.t.t.t.>.6.w.w.e.e.",
"u.y.u.p.y.p.>.6.t.t.t.p.p.t.p.t.p.p.>.9.e.0.N # #X#X@X; N 0.>.9.e.t.t.t.y.t.t.y.p.p.>.8.t.t.t.p.",
"p.p.p.p.p.p.>.9.t.p.p.p.p.u.p.p.p.p.>.6.t.0.N ; #X#X#X; N t.>.0.t.y.p.p.p.p.p.p.p.p.,.8.y.p.p.p.",
">.>.>.>.>.>.>.>.>.>.>.>.>.>.>.>.>.>.>.>.>.>.v 1 # # ; 1 v >.>.>.3.,.,.,.,.>.>.>.>.,.>.,.>.,.,.>.",
">.>.>.6.6.6.5.3.6.3.>.6.>.5.>.>.6.>.6.5.>.>.L N v v v v L >.>.5.3.3.5.5.>.>.3.3.3.3.3.5.3.5.5.3.",
">.6.5.0.6.0.0.6.9.8.9.0.>.5.6.9.6.0.6.0.0.6.6.5.=.>.>.3.6.9.9.6.9.9.8.9.>.6.8.9.8.9.9.9.8.8.9.8.",
">.6.0.t.t.e.t.t.t.t.t.t.>.6.w.t.t.t.t.t.t.t.t.u.>.6.t.w.0.t.t.t.t.t.t.t.>.5.w.e.w.w.t.t.t.t.t.t.",
">.6.t.p.u.t.t.u.p.u.p.p.>.9.e.p.y.t.t.t.p.y.p.p.>.6.0.u.y.p.u.p.p.p.y.p.>.8.e.t.t.y.t.y.p.y.p.p.",
">.9.t.p.p.p.u.p.p.p.p.p.>.6.t.p.p.p.p.p.p.p.p.p.>.6.t.p.p.p.p.p.p.p.p.p.3.0.t.y.p.p.p.p.p.p.p.p."
};
