/* XPM */
static char *p3[] = {
/* columns rows colors chars-per-pixel */
"48 48 241 2",
"   c #010101",
".  c #020101",
"X  c #020202",
"o  c #030303",
"O  c #040404",
"+  c #050505",
"@  c #060606",
"#  c #070707",
"$  c #090501",
"%  c #080504",
"&  c #080505",
"*  c #0A0807",
"=  c #080808",
"-  c #090909",
";  c gray4",
":  c #0B0B0B",
">  c #0D0908",
",  c #0E0908",
"<  c #0F0A08",
"1  c #0F0A09",
"2  c #0F0B09",
"3  c #0C0C0C",
"4  c #0D0D0D",
"5  c #0E0E0E",
"6  c #0F0F0F",
"7  c #100802",
"8  c #110902",
"9  c #120902",
"0  c #120A03",
"q  c #100C0B",
"w  c #130F0D",
"e  c #14100E",
"r  c #14110F",
"t  c #16100D",
"y  c #1D1109",
"u  c #1E1109",
"i  c #1E1209",
"p  c #101010",
"a  c #111111",
"s  c #121212",
"d  c #131313",
"f  c #151515",
"g  c #161616",
"h  c #171717",
"j  c #1B1310",
"k  c #181818",
"l  c #191919",
"z  c #1A1A1A",
"x  c #1B1B1B",
"c  c #1C1C1C",
"v  c #1D1D1D",
"b  c #1E1E1E",
"n  c #1F1F1F",
"m  c #211103",
"M  c #211104",
"N  c #2B1D18",
"B  c #2B1D19",
"V  c #2C1E19",
"C  c #331905",
"Z  c #212121",
"A  c #222222",
"S  c #232323",
"D  c #242424",
"F  c #252525",
"G  c #262626",
"H  c #272727",
"J  c #292726",
"K  c #282828",
"L  c #292929",
"P  c #2B2928",
"I  c #2A2A2A",
"U  c #2D2B2B",
"Y  c #2C2C2C",
"T  c #2D2D2D",
"R  c #2E2E2E",
"E  c #2F2F2F",
"W  c #322F2F",
"Q  c #362F2C",
"!  c #3D2F2A",
"~  c #3D312D",
"^  c #313131",
"/  c #323232",
"(  c #383838",
")  c #393939",
"_  c #3A3A3A",
"`  c #3D3D3D",
"'  c #3F3F3F",
"]  c #5D2E08",
"[  c #5E2E09",
"{  c #5E2F09",
"}  c #5D361C",
"|  c #42342F",
" . c #4E352C",
".. c #4F372E",
"X. c #51372E",
"o. c #51382F",
"O. c #52382E",
"+. c #56382B",
"@. c #55392E",
"#. c #55392F",
"$. c #553A2F",
"%. c #56392D",
"&. c #583B2D",
"*. c #593B2E",
"=. c #523930",
"-. c #523931",
";. c #553A30",
":. c #553B31",
">. c #563B31",
",. c #563C32",
"<. c #563C33",
"1. c #573D34",
"2. c #5D3F35",
"3. c #663208",
"4. c #663308",
"5. c #663309",
"6. c #66330A",
"7. c #64330C",
"8. c #66340A",
"9. c #66340B",
"0. c #67340A",
"q. c #67350B",
"w. c #65340D",
"e. c #67340C",
"r. c #6F370B",
"t. c #6A380F",
"y. c #6F380B",
"u. c #643818",
"i. c #6C3A11",
"p. c #703A0D",
"a. c #5D4136",
"s. c #444444",
"d. c #454545",
"f. c #464545",
"g. c #464646",
"h. c #474747",
"j. c #484848",
"k. c #494949",
"l. c #4A4A4A",
"z. c #4B4B4B",
"x. c #4C4C4C",
"c. c #4D4D4D",
"v. c #4E4E4E",
"b. c #4F4F4F",
"n. c #50504F",
"m. c #505050",
"M. c #515151",
"N. c #525252",
"B. c #535353",
"V. c #545454",
"C. c #555555",
"Z. c #565656",
"A. c #575757",
"S. c #585858",
"D. c #595959",
"F. c #5A5A5A",
"G. c #5B5B5B",
"H. c #5C5C5C",
"J. c #5D5D5D",
"K. c gray37",
"L. c #994E10",
"P. c #9A4F11",
"I. c #AA540E",
"U. c #AC5711",
"Y. c #AD5611",
"T. c #AC5712",
"R. c #B95A0E",
"E. c #BA5B0D",
"W. c #BB5B0D",
"Q. c #BA5B0F",
"!. c #BB5C0E",
"~. c #BA5B10",
"^. c #BA5C10",
"/. c #BB5D10",
"(. c #BB5E12",
"). c #BB5F13",
"_. c #BC5E11",
"`. c #BC5E12",
"'. c #BC5F12",
"]. c #BC5F14",
"[. c #BC6015",
"{. c #BD6014",
"}. c #BF6217",
"|. c #825A4B",
" X c #8F6151",
".X c #8F6251",
"XX c #906150",
"oX c #906250",
"OX c #906251",
"+X c #916454",
"@X c #936554",
"#X c #926656",
"$X c #9C6957",
"%X c #9C6B58",
"&X c #9C6B59",
"*X c #9D6C59",
"=X c #9D6C5A",
"-X c #9E6C5A",
";X c #9E6D5B",
":X c #9F6E5B",
">X c #9F6E5D",
",X c #9F6F5E",
"<X c #A06F5E",
"1X c #A67462",
"2X c #AC7966",
"3X c #CA610C",
"4X c #CA620D",
"5X c #CB620D",
"6X c #CA630F",
"7X c #CB630E",
"8X c #CB630F",
"9X c #CB640F",
"0X c #C36213",
"qX c #C46415",
"wX c #C56416",
"eX c #C4671E",
"rX c #CB6410",
"tX c #CB6411",
"yX c #CB6511",
"uX c #CB6613",
"iX c #CB6715",
"pX c #CC6511",
"aX c #CC6512",
"sX c #CC6612",
"dX c #CC6613",
"fX c #CD6713",
"gX c #CC6714",
"hX c #CC6715",
"jX c #CD6714",
"kX c #CD6715",
"lX c #CD6816",
"zX c #CD6917",
"xX c #CE6815",
"cX c #CE6A18",
"vX c #D06B19",
"bX c #CB6E25",
"nX c #D67020",
"mX c #D67121",
"MX c #DC7627",
"NX c #DD7728",
"BX c #DE782A",
/* pixels */
"z.z.z.z.z.z.z.z.z.z.z.z.z.z.z.z.z.z.z.z.m.z.z.z.z.z.m.z.z.z.k.z.z.z.z.z.z.z.b.z.c.z.z.z.z.z.z.z.",
"m.m.m.m.m.m.z.m.m.m.z.m.m.m.m.z.m.m.z.z.z.m.m.m.m.m.m.z.m.m.z.m.b.b.M.b.b.b.m.M.b.M.c.z.b.b.b.b.",
"C.C.m.C.C.C.z.m.m.C.C.C.C.C.C.C.C.C.z.m.m.C.C.m.m.C.C.C.C.C.z.m.B.B.B.B.m.B.B.B.C.C.z.b.B.B.B.B.",
"D.D.D.D.D.H.z.m.C.D.D.D.D.D.D.D.D.D.z.m.D.D.D.D.D.D.D.D.D.D.z.m.A.A.F.A.F.D.D.D.F.F.z.b.A.A.A.F.",
"D.H.H.H.H.H.z.C.D.H.H.D.H.H.H.H.H.H.z.m.D.H.H.H.H.H.H.H.H.H.m.m.D.D.J.H.J.F.J.J.H.H.c.m.F.F.F.F.",
"H.H.H.H.H.H.z.C.H.H.H.H.H.H.H.H.H.H.m.m.D.H.H.H.H.H.H.H.H.H.m.C.F.F.F.H.F.H.H.H.K.K.b.B.F.J.K.F.",
"z.z.z.z.z.m.z.z.z.z.z.z.z.z.z.z.m.z.g.g.g.g.g.g.g.g.g.g.g.g.g.k.z.z.z.z.z.z.z.b.b.z.z.z.z.z.z.z.",
"z.m.m.m.m.m.m.m.m.m.m.m.z.m.m.m.m.m.F F F F S F F F F F S F L ( c.b.M.m.z.b.b.b.M.b.m.b.M.b.b.M.",
"z.m.m.C.m.C.C.C.m.C.C.m.z.m.C.C.m.m.# # # # # # # # # # # # = R z.C.B.A.z.M.b.B.C.B.B.B.B.A.B.B.",
"z.m.D.D.D.D.D.D.D.D.H.H.m.m.C.k.L #       = 4 p g g x c S S S g = B.A.A.c.m.D.D.A.D.D.F.D.F.D.D.",
"z.C.D.H.H.H.H.H.H.H.H.H.z.m.D.F x #       # = 4 p g g c c S S c d E g.D.z.B.F.F.F.F.F.H.J.F.F.J.",
"z.m.D.H.K.H.H.H.H.K.K.H.z.C.D.#           # # = 4 p p x c c S F K 5 E C.z.C.F.H.H.H.K.H.K.K.H.H.",
"z.z.m.z.z.z.z.z.z.z.z.z.g.F #                   = 4 4 g g x x c S S d o z.z.z.z.z.z.z.z.b.c.c.c.",
"m.m.m.z.m.m.z.m.z.m.m.z.k.F #                   = = = p p x c c n S d o m.m.m.b.m.B.c.z.m.b.z.b.",
"C.C.C.C.C.m.m.m.m.C.C.C.z.L #                     # = 4 p g x c c n p o C.C.B.C.B.B.z.b.B.b.m.B.",
"D.D.D.D.D.D.z.m.D.D.D.D.C.R =                         = = = p g g x 4 o D.D.D.K.F.D.z.M.A.D.D.D.",
"J.D.J.A.D.F.b.B.D.A.J.J.B.T -                         # * = p g g k 4 o D.F.F.H.H.K.z.B.F.J.F.J.",
"J.J.J.J.H.J.b.B.J.J.J.H.B.T -                           # # 4 4 5 g = o F.K.K.H.K.K.z.C.H.K.H.H.",
"c.c.c.z.b.c.c.k.c.z.c.z.g.K 4   & ,                         # & ,   O * z.z.z.z.z.z.c.z.z.z.z.z.",
"c.c.c.b.b.M.M.M.b.b.m.m.k.( T # B  .                        # B  .O g K z.b.b.M.M.b.b.b.m.m.m.M.",
"z.c.M.B.B.B.B.B.B.B.B.C.x.x.x.=  ..X                        ,  ..X* G g.b.n.B.B.B.B.B.B.B.C.B.B.",
"z.M.A.A.D.A.D.D.A.F.J.J.x.N.Z.M.E 4 &X&X$X$X&X&X=X:X=X<X:X&X.XX.r D.D.D.z.n.C.A.A.A.F.F.D.F.D.D.",
"M.m.A.J.J.D.F.J.F.J.J.J.x.N.G.G.g.E ,.;.#.#.#.#.;.;.;.1.;.;.O.| Q H.F.H.z.B.A.H.J.F.H.H.H.J.F.J.",
"z.B.D.J.J.J.J.H.H.H.J.J.x.N.G.K.D.C.q , , q , , q , , , q q r W n.K.H.H.b.C.F.K.H.H.K.K.K.K.H.H.",
"c.c.k.c.z.z.k.c.z.z.z.z.z.z.z.| J w _.0XzXyXfX6X3X3XfXiXiXvXU.e.y s.h.z.z.z.z.z.z.z.z.z.z.z.z.c.",
"b.b.M.M.M.b.z.c.m.m.m.m.m.m.n.J ~ o.y.L.qXsXsXsX3XrXrXrXiXiXe.} #.L ) z.n.n.n.n.m.m.z.z.z.b.b.b.",
"B.B.B.B.C.B.z.z.m.B.B.B.B.B.B.r X.XXm y.{.yXfXsX3X8XjXiXfXfXy +..X4 R b.B.B.B.B.C.C.z.b.m.C.C.B.",
"A.D.D.F.F.J.z.m.C.A.A.A.D.H.D., ,.:Xy q.U.iXfXfX3X6XrXiXqX{.t a.=X- U m.D.D.F.D.D.D.b.m.A.D.A.D.",
"J.J.D.J.H.H.M.m.H.H.H.H.H.H.D.q ,.,X*.u.q.iXiXfX6X6XrXqXP.y.a.|.1X= R B.J.H.H.F.H.H.b.m.D.H.F.H.",
"J.J.J.J.K.H.b.B.H.K.H.H.H.H.H.4 ,.,X+X*.y vXiXiX6XyXfX}.y.M <X1X2X= R C.F.K.H.F.H.K.M.C.H.K.H.H.",
"k.c.c.z.c.c.c.z.z.z.z.z.z.z.z.w -.#X+X.., BXMXMXBXBXBXbXi.0 =X=X=X4 P g.z.z.z.z.z.z.z.z.z.z.z.z.",
"c.z.b.M.z.z.b.M.m.m.m.m.z.z.b.R ~ O...B & nXnXnXnXnXmXeXt.0 ,.,.,.R ` z.z.z.b.b.b.b.M.b.m.m.m.m.",
"c.z.M.B.B.B.B.B.B.C.B.B.c.b.B.k.U w , &   iXiXfXiXxXfX{.0.0 , q , z.m.C.z.m.m.B.m.C.C.C.C.B.B.C.",
"z.M.A.A.A.A.D.D.D.F.F.F.c.M.B.A.D.D.B.R * 8X8X6X0 3.W.W.3.0 D.D.D.D.D.F.n.m.D.D.D.D.D.D.D.D.D.F.",
"c.B.A.J.D.J.J.F.J.H.H.K.z.B.A.J.H.H.C.E - 6X6X3X0 3.W.W.3.0 H.H.H.H.H.H.z.B.F.F.H.F.H.H.H.H.H.H.",
"c.m.J.H.J.J.J.J.H.K.K.K.z.B.J.H.H.H.C.E - 6XyXyX0 q.W.W.0.0 H.H.K.K.K.K.z.C.H.H.H.H.K.H.H.K.K.K.",
"z.z.z.c.c.c.k.z.z.c.z.c.z.z.z.z.z.z.g.S = iXiXyX0 q.E.}.q.> z.z.z.z.z.z.z.z.z.z.z.z.z.z.z.z.z.z.",
"b.b.M.M.b.b.c.c.z.M.z.M.m.m.m.m.b.n.g.S = iXyXyX0 3.E.(.4.0 z.z.n.m.n.n.n.n.b.n.m.m.z.z.b.m.b.m.",
"B.B.B.B.B.B.M.c.M.B.B.B.B.B.C.B.B.C.g.F # iXrXyX> 3.E.}.0.0 k.b.n.B.B.B.C.B.B.C.C.C.z.b.m.B.m.B.",
"A.D.F.D.A.F.c.M.B.A.D.F.F.D.A.J.D.D.s.D # (.(.(.0 ] U.I.] 0 z.m.A.D.A.D.D.D.D.D.D.D.b.m.D.D.D.D.",
"A.J.J.D.J.H.z.M.A.H.D.J.J.D.J.J.H.H.g.S # q.q.q.$ C ] ] C $ z.M.D.H.D.D.D.H.J.H.H.H.z.B.F.F.H.F.",
"J.J.J.J.H.K.c.M.J.K.J.J.J.J.J.J.H.H.g.D # 0 0 0   $ 0 > $   b.B.D.H.H.J.H.H.H.K.K.K.z.C.H.H.H.H.",
"c.z.z.z.c.c.z.z.c.k.c.z.z.c.c.k.z.z.z.z.k.z.z.z.k.z.c.z.c.z.c.z.z.z.z.z.z.b.z.z.z.z.z.z.c.z.b.z.",
"c.z.M.z.M.b.M.M.M.M.M.b.z.b.z.M.b.b.b.n.n.b.n.n.z.z.b.z.b.M.M.M.m.m.m.m.z.b.z.b.m.m.m.m.b.n.m.b.",
"c.c.z.B.B.B.B.B.B.B.B.B.z.z.M.B.C.B.B.B.B.C.C.C.z.b.b.B.B.B.B.B.C.C.B.C.b.b.b.B.B.B.C.C.B.C.B.B.",
"c.M.A.D.D.D.D.D.F.D.F.D.c.b.A.A.D.D.D.D.D.D.D.F.z.B.A.D.A.A.F.D.D.D.F.D.b.m.A.D.D.D.D.D.D.D.H.D.",
"M.m.A.H.J.F.J.H.H.H.J.J.M.m.A.H.H.F.F.H.H.H.H.H.z.C.D.H.J.F.J.F.H.H.H.H.z.B.D.H.F.F.H.F.F.H.H.H.",
"c.B.J.K.K.H.J.H.K.K.K.H.c.B.J.K.K.K.H.K.K.K.K.H.z.m.H.H.K.H.H.J.K.K.K.H.z.C.F.K.K.H.K.H.H.K.K.K."
};
