/* XPM */
static char *p4[] = {
/* columns rows colors chars-per-pixel */
"48 48 188 2",
"   c #000000",
".  c #010000",
"X  c #010101",
"o  c #020202",
"O  c #030303",
"+  c #070403",
"@  c #040404",
"#  c #060606",
"$  c #070707",
"%  c #0D0807",
"&  c #0D0907",
"*  c #0E0907",
"=  c #080808",
"-  c #090909",
";  c #0A0A0A",
":  c #0B0B0B",
">  c #0E0908",
",  c #0E0A08",
"<  c #0F0A09",
"1  c #0C0C0C",
"2  c #0D0D0D",
"3  c #0E0E0E",
"4  c #110801",
"5  c #110902",
"6  c #120A03",
"7  c #130F0D",
"8  c #1B110E",
"9  c #1B120F",
"0  c #1D1109",
"q  c #1D110A",
"w  c #1C130F",
"e  c #131313",
"r  c #171210",
"t  c #141414",
"y  c #161616",
"u  c #171717",
"i  c #1E1917",
"p  c #191919",
"a  c #1B1B1B",
"s  c #1E1E1E",
"d  c #211003",
"f  c #231306",
"g  c #231307",
"h  c #2A1C17",
"j  c #212121",
"k  c #222222",
"l  c #232323",
"z  c #252525",
"x  c #262626",
"c  c #272727",
"v  c #282828",
"b  c #292929",
"n  c #2A2A2A",
"m  c #2B2B2B",
"M  c #2D2D2D",
"N  c #2F2F2F",
"B  c #302E2D",
"V  c #303030",
"C  c #313131",
"Z  c #323232",
"A  c #343434",
"S  c gray21",
"D  c #3A3A3A",
"F  c #3B3B3B",
"G  c #3E3E3E",
"H  c #3F3F3F",
"J  c #41322D",
"K  c #4D332A",
"L  c #4E342B",
"P  c #4E352B",
"I  c #4F352C",
"U  c #51372D",
"Y  c #51372E",
"T  c #54382E",
"R  c #55382E",
"E  c #57392D",
"W  c #563A30",
"Q  c #563C31",
"!  c #573C32",
"~  c #593D33",
"^  c #5B3C32",
"/  c #5B3D32",
"(  c #5C3C32",
")  c #5C3D32",
"_  c #5D3F34",
"`  c #67340B",
"'  c #68350C",
"]  c #69360C",
"[  c #6F380B",
"{  c #6A3A14",
"}  c #6A3A15",
"|  c #6F3C15",
" . c #703A0D",
".. c #703D16",
"X. c #603A21",
"o. c #5D4037",
"O. c #5F4236",
"+. c #784116",
"@. c #784117",
"#. c #794217",
"$. c gray26",
"%. c #444444",
"&. c #454545",
"*. c #464646",
"=. c #474747",
"-. c #484848",
";. c #494949",
":. c #4A4A4A",
">. c #4B4B4B",
",. c #4C4C4C",
"<. c #4D4D4D",
"1. c #4E4D4D",
"2. c #4E4E4E",
"3. c #4F4F4F",
"4. c #505050",
"5. c #515151",
"6. c #525252",
"7. c #535353",
"8. c #545454",
"9. c #555555",
"0. c #565656",
"q. c #575757",
"w. c #585858",
"e. c #595959",
"r. c #5A5A5A",
"t. c #5B5B5B",
"y. c #5C5C5C",
"u. c #5D5D5D",
"i. c gray37",
"p. c #7E5545",
"a. c #7E5546",
"s. c #7F5546",
"d. c #9A4E10",
"f. c #A75A20",
"g. c #A75B20",
"h. c #B6611E",
"j. c #BD6014",
"k. c #BE6114",
"l. c #BF6217",
"z. c #BF6317",
"x. c #815A4A",
"c. c #8E5E4D",
"v. c #8F614F",
"b. c #916250",
"n. c #9A6653",
"m. c #9A6654",
"M. c #9A6754",
"N. c #9B6654",
"B. c #9B6754",
"V. c #9C6754",
"C. c #9C6755",
"Z. c #9C6855",
"A. c #9D6A57",
"S. c #9D6B58",
"D. c #9D6B59",
"F. c #9F6F5D",
"G. c #A26B58",
"H. c #A26D59",
"J. c #A36F5B",
"K. c #A06F5D",
"L. c #A76F5A",
"P. c #A76F5B",
"I. c #A86F5A",
"U. c #A0705D",
"Y. c #A5715E",
"T. c #A8705B",
"R. c #A8705C",
"E. c #A9705C",
"W. c #AA735F",
"Q. c #A9745F",
"!. c #A67360",
"~. c #AA7460",
"^. c #AC7763",
"/. c #C56415",
"(. c #CC6815",
"). c #D46F1E",
"_. c #D56F1F",
"`. c #D5701F",
"'. c #CC6E26",
"]. c #CC6F27",
"[. c #CD6F27",
"{. c #CE6F27",
"}. c #CD6F28",
"|. c #CE7028",
" X c #D77121",
".X c #D57429",
"XX c #D67429",
"oX c #DE782B",
/* pixels */
">.>.>.>.>.>.>.>.>.>.>.>.>.>.>.4.>.>.>.>.>.>.>.>.>.>.>.>.>.>.>.>.>.>.>.>.>.>.4.>.>.>.>.>.>.>.>.>.",
">.4.4.>.4.4.>.>.4.4.>.4.4.4.4.4.4.4.>.>.4.>.4.4.4.4.4.>.4.4.>.>.4.4.4.4.>.4.4.>.4.4.>.>.4.4.>.4.",
"0.0.0.0.0.0.>.4.4.0.4.0.0.0.0.4.0.0.>.4.4.0.0.0.0.4.0.0.0.0.>.4.0.4.4.0.0.4.0.0.0.e.>.4.0.4.4.0.",
"e.e.e.e.0.y.4.4.e.0.e.e.e.e.0.e.e.e.>.4.0.0.0.e.e.e.e.0.0.e.>.0.0.e.e.e.e.e.e.e.e.e.>.4.0.0.e.e.",
"e.y.y.y.y.y.>.0.e.e.e.y.y.y.y.y.y.y.>.0.0.e.y.y.y.y.y.y.y.y.4.4.e.e.y.e.y.y.y.y.y.y.>.0.e.e.y.y.",
"y.i.y.y.y.y.4.0.y.y.y.y.i.y.y.y.y.y.>.4.e.y.y.y.y.y.y.y.y.y.4.e.y.y.y.y.y.y.y.y.y.y.4.4.e.y.i.i.",
">.>.>.>.>.>.>.>.>.>.>.>.>.>.>.>.>.>.&.&.&.&.&.&.>.&.&.$.&.&.&.>.>.>.>.>.>.>.>.>.>.>.4.>.>.>.>.>.",
">.4.4.4.4.4.4.>.4.4.4.4.>.4.4.>.4.4.x x x x x x x x x x x x x D >.4.4.0.>.4.4.4.4.4.4.4.4.4.4.4.",
">.>.4.0.0.0.4.0.4.0.0.4.>.4.4.0.0.4.$ $ $ $ $ $ $ $ $ $ $ $ - m >.0.0.0.>.>.4.0.0.4.4.0.4.0.0.0.",
">.0.0.e.e.e.e.e.e.e.y.e.4.4.e.>.m - $.$.D S V V k s s u e e - $ O 4.0.0.4.4.0.e.e.e.e.y.e.e.e.e.",
">.0.0.y.y.y.y.y.y.y.y.y.>.4.0.m k a V V V m x k u u e - - $ O O O M &.e.>.4.e.y.y.y.y.y.y.y.y.y.",
">.4.e.y.i.i.y.i.y.i.i.y.4.0.e.- u k m x x a u e $ O O O O O O O O 2 V 4.>.0.e.y.y.y.i.i.y.y.i.y.",
">.>.>.>.>.>.>.>.>.>.>.>.&.x $ i r 6 : : % O O O O O O O O O O O O O O O >.>.>.>.4.>.>.>.>.>.>.>.",
"4.4.4.>.4.4.>.>.4.4.4.4.>.x $ o.W R T T U O O O O O O O O O O O O O O O 4.4.4.>.4.4.>.4.>.4.4.4.",
"0.0.0.0.0.0.>.4.4.0.0.4.>.m $ Z.N.N.N.N.Z.O O O O O O O O O O O O O O O 0.0.0.0.0.0.>.4.4.0.4.0.",
"e.e.e.0.e.e.>.4.e.e.0.e.4.M $ E.E.I.N.J.E.N.E 7 O O O O O O O O O O O O e.0.e.e.e.y.>.4.0.0.e.e.",
"y.y.y.y.y.y.3.4.e.y.y.y.0.M + I.E.E.( x.J.G.s.) O O O O O O O O O O O O e.e.y.y.y.y.>.0.e.e.y.y.",
"y.y.y.y.i.i.>.0.y.y.y.y.0.V - I.E.E.8 E Z.E.S.Z.O O O O O O O O O O O O y.e.y.y.i.i.>.0.y.y.y.y.",
">.>.>.>.>.>.>.>.>.>.>.>.&.x $ J.I.I.8 ( Z.I.I.I.+ + O O O O O O O O O $ >.>.>.>.>.>.>.>.>.>.>.>.",
">.4.4.4.4.4.>.4.4.4.4.4.$.x $ I.I.I.( x.G.~.E.I.K h + O O O O O O O u x >.>.4.4.4.4.4.4.4.4.4.4.",
">.4.4.0.0.0.4.0.7.0.0.0.&.x $ I.I.I.N.J.I.^.~.~.c.K + O O O O O O $ x >.>.3.7.8.4.0.0.0.4.0.0.0.",
">.4.0.e.e.e.e.e.e.e.e.e.4.4.q.7 T c.S.S.S.K.F.F.c.L % O O O O O + e.e.e.>.4.q.q.e.e.e.e.e.e.e.e.",
"4.4.e.e.y.y.y.y.y.y.y.y.>.7.y.B J U W W W ! ! ! K h O O O O O u m y.y.y.>.7.t.e.e.y.y.y.y.y.y.y.",
">.0.e.y.y.y.i.y.i.y.i.i.>.8.e.>.B 7 : * * 6 , , % + O O O O $ x 3.i.i.y.>.q.t.y.y.i.i.i.y.y.i.i.",
">.>.>.>.>.>.>.>.>.>.>.>.>.>.>.>.>.>.&.x $ k./.(.k./.(.$ l &.>.>.>.>.>.>.>.>.>.>.>.>.>.>.>.>.>.>.",
"4.4.>.4.4.4.>.4.3.4.4.4.4.>.3.3.4.>.&.x +  .d./.[ d./.$ x >.>.>.>.3.4.4.4.4.4.3.3.3.>.3.3.3.3.3.",
"0.4.0.0.0.0.>.4.8.8.7.0.0.0.7.0.q.0.$.x $ d  .k.d [ k.$ m 3.>.>.4.0.7.8.8.7.8.0.8.8.>.4.4.7.7.8.",
"0.e.e.e.e.e.>.4.0.0.e.e.q.e.q.e.e.e.G k $ 8 o.U.4 ` k.$ M 4.4.4.q.q.q.e.q.t.q.y.t.t.>.4.q.e.t.q.",
"y.y.y.y.y.y.4.0.e.e.y.e.y.y.y.y.y.y.x e O o.x.Y.5 ' k.$ M 0.>.4.e.t.t.y.t.y.y.y.y.y.>.7.q.y.y.t.",
"i.y.y.i.y.y.>.0.e.y.y.y.i.y.y.y.y.y.$ O O U.Y.~.5 ' z.$ V 0.>.0.y.y.y.y.y.i.y.i.i.i.>.8.y.i.y.y.",
">.>.>.>.>.>.>.>.>.>.>.>.>.3.>.>.>.>.% L v.v.E 0 ).).).$ x &.>.>.>.>.>.>.>.>.>.>.>.>.>.>.>.>.>.>.",
">.4.4.>.4.4.4.>.4.4.4.3.>.4.4.4.4.4.+ h L E X.} ).).).$ x >.4.4.3.3.3.3.>.3.3.4.4.4.4.4.4.4.4.3.",
">.4.7.0.0.4.0.0.7.8.0.0.>.4.8.4.7.8.O $ % 0 } h. X X_.$ m 3.7.8.8.8.8.0.>.3.7.7.7.8.8.8.7.7.7.8.",
"4.4.q.0.e.e.e.e.e.e.e.y.>.4.e.e.0.e.4.V 2 {..XoXoX.X|.2 V 4.q.e.e.y.t.e.3.4.q.q.q.e.e.t.e.e.t.t.",
">.4.q.t.y.y.y.y.y.y.y.y.>.4.0.e.t.y.w.&.V #.f..X.Xf.#.V *.q.t.t.y.y.y.y.>.8.q.y.t.y.y.y.y.y.y.y.",
">.0.y.y.y.y.y.y.y.i.y.y.>.0.y.y.i.y.y.e.0.f #.{.{.#.f 0.e.y.y.y.i.i.i.i.>.0.t.y.y.i.y.y.i.i.i.y.",
">.>.>.>.>.>.>.>.>.>.>.>.>.>.>.>.>.>.>.>.>.6 | }.{.} 6 >.>.3.>.>.>.>.>.>.>.>.>.>.>.>.>.>.>.>.>.>.",
"4.4.4.>.4.4.>.4.4.4.4.>.4.4.4.4.4.4.>.4.4.6 | }.{...6 3.4.4.>.3.3.3.3.3.4.4.3.3.3.3.>.3.4.4.3.3.",
"0.0.0.0.0.q.>.4.4.0.4.0.0.0.e.0.8.8.3.4.3.6 | }.{...6 0.0.q.>.3.3.8.8.q.7.8.8.7.8.0.>.3.4.0.7.7.",
"0.e.0.e.e.e.>.4.0.0.e.e.q.e.e.e.t.e.>.4.q.6 | }.{.} 6 e.t.q.>.4.q.q.q.q.q.e.q.y.q.t.>.7.q.q.q.q.",
"e.y.y.y.y.y.>.4.e.e.y.y.y.y.y.y.y.y.>.4.e.6 | }.|...5 y.y.y.3.4.q.y.t.q.y.y.t.y.y.y.>.7.t.e.t.y.",
"y.i.i.i.i.i.>.0.y.y.y.y.y.i.i.y.y.y.>.0.t.6 | |.|...6 y.y.y.4.0.t.i.y.t.y.y.y.i.i.i.>.0.t.y.i.y.",
">.>.>.>.>.>.>.>.>.>.>.>.>.>.>.>.>.>.>.>.>.= $ $ $ $ $ >.>.>.>.>.>.>.>.>.>.>.>.>.>.>.>.>.>.>.>.>.",
">.4.4.4.4.4.4.>.4.4.4.4.>.>.4.4.4.4.4.4.4.M m m x x m 4.3.4.4.>.4.3.4.4.>.3.3.3.4.4.4.4.3.4.4.4.",
">.4.4.0.0.0.8.0.0.0.7.0.>.4.0.0.7.4.0.7.4.3.3.4.>.>.=.7.0.4.0.0.0.8.0.8.>.3.4.0.7.0.0.8.8.0.8.0.",
">.4.0.e.e.e.q.e.e.e.e.e.>.4.0.0.e.e.e.e.e.e.y.e.>.4.0.w.0.e.e.e.q.e.t.e.3.4.q.q.q.e.q.t.e.q.e.q.",
">.7.e.y.y.y.y.y.t.y.y.y.3.4.q.e.y.y.y.y.y.y.y.y.3.4.e.y.y.y.y.y.y.y.y.y.>.7.t.t.t.y.y.y.y.y.y.y.",
">.0.e.y.i.y.y.i.y.y.i.y.>.0.y.y.y.i.i.y.i.i.y.y.>.0.y.y.i.i.i.i.i.i.i.y.>.7.t.i.y.y.y.y.i.i.i.i."
};
