/* XPM */
static char *p_push1[] = {
/* columns rows colors chars-per-pixel */
"48 48 116 2",
"   c #000000",
".  c #010101",
"X  c #020202",
"o  c #040404",
"O  c #050505",
"+  c #060606",
"@  c #070707",
"#  c #090909",
"$  c #0B0B0B",
"%  c #0C0C0C",
"&  c #0E0E0E",
"*  c #0F0F0F",
"=  c #101010",
"-  c #131313",
";  c #141414",
":  c #151515",
">  c #161616",
",  c #191919",
"<  c #1B1B1B",
"1  c #1C1C1C",
"2  c #1E1E1E",
"3  c #2A1E19",
"4  c #331A05",
"5  c #381E0B",
"6  c #202020",
"7  c #232323",
"8  c #252525",
"9  c #262626",
"0  c #272727",
"q  c #292929",
"w  c #2A2A2A",
"e  c gray17",
"r  c #2C2C2C",
"t  c #2D2D2D",
"y  c gray18",
"u  c gray20",
"i  c #393939",
"p  c #3A3A3A",
"a  c #3C3C3C",
"s  c #49301C",
"d  c #4A311D",
"f  c #5F381F",
"g  c #41322D",
"h  c #53372D",
"j  c #54372D",
"k  c #53382D",
"l  c #54392E",
"z  c #55392F",
"x  c #553C32",
"c  c #573D33",
"v  c #67340B",
"b  c #68360D",
"n  c #6A370F",
"m  c #6B3911",
"M  c #703D16",
"N  c gray25",
"B  c #434343",
"V  c #464646",
"C  c #4B4B4B",
"Z  c gray30",
"A  c #4F4F4F",
"S  c #505050",
"D  c #525252",
"F  c #535353",
"G  c #545454",
"H  c #555555",
"J  c #565656",
"K  c #575757",
"L  c #585858",
"P  c #595959",
"I  c #5A5A5A",
"U  c #5B5B5B",
"Y  c gray36",
"T  c #7E5646",
"R  c #9E5215",
"E  c #A3571C",
"W  c #A5591E",
"Q  c #BC703D",
"!  c #805848",
"~  c #A76F5A",
"^  c #A86F5A",
"/  c #A7705B",
"(  c #A8705B",
")  c #A8715C",
"_  c #A9715C",
"`  c #A8725D",
"'  c #A9735E",
"]  c #A9735F",
"[  c #AA735E",
"{  c #AA745F",
"}  c #AB745F",
"|  c #AB7561",
" . c #AC7662",
".. c #AC7762",
"X. c #AC7763",
"o. c #AB7864",
"O. c #AD7864",
"+. c #AD7965",
"@. c #AE7A66",
"#. c #CE6917",
"$. c #D16C1A",
"%. c #D26D1B",
"&. c #D36E1D",
"*. c #D46F1E",
"=. c #D67222",
"-. c #D77222",
";. c #DB7627",
":. c #DC7627",
">. c #DC7628",
",. c #DD7728",
"<. c #DD7729",
"1. c #DE7829",
"2. c #DE782A",
"3. c #DF792A",
"4. c #DF792B",
"5. c #E07A2C",
/* pixels */
"C C C C C C C C C C C C C C C C C C C C C C C C C C C C C C C C C C C C C C C C C C C C C C C C ",
"A A A S S S C A A S A A A A A S A S C A A A A A A A S S S S C A S S S A A A A S S S C A S S S A ",
"G G G G G G C A G G G G G G G G G G C A G G G G G G G G G G C A G G G G G G G G G G C A G G G G ",
"P P P P P P C S P G G P P P P P P P C S P G G P P P P P P P C S G G P P P P P P P P C S G K G P ",
"P Y Y P P Y C S P P Y P Y P Y P P Y C S Y P P P Y Y Y P P Y A S P P U P U Y U P P Y C S P Y P P ",
"Y Y Y P Y Y A G Y Y Y Y Y Y Y Y Y Y C S Y Y Y Y Y Y Y P Y Y A S U U Y Y Y Y Y Y Y Y C G Y Y Y U ",
"A C C C C C C C C C C C C C C C A C C C A C C C A C C C C C C C C C C C C C C C C C C C C C C C ",
"C A A A A A A A A A S A C A A A A A A A A A S S C A A A A A A A A S S A C A S S S A A A S S S S ",
"C A G G G G G G G G G G C S G G G G G G G G G G C A G G G G G G G G G P C S G G G G G G G G G G ",
"C A G G P P P P P P P P A S G P P P P P P P P P C A G P P P P P P P P P C S G K P P P P P P P P ",
"A S P Y Y P P P Y P Y Y C S P P P Y Y Y Y P P Y C S Y P P P Y Y U P P U C S U P P U U P U P U U ",
"C G Y Y Y Y Y P Y Y Y Y C G Y Y Y Y Y Y Y Y Y P C S Y Y Y Y Y Y Y Y Y Y C G Y Y Y Y Y Y Y Y Y U ",
"C C C C C C C C A C C C C C C C A C C C A C C C C C C C A C C C C C C C C C C A C C C C C C C C ",
"A A S S S S C A A A A S A A A S A A C A S S A A A A A S A S C A A A A A A A A S S S C A S S S S ",
"G S G G G P C S S G G G G G G G G G C A G G G G G G G G G G C A G G G G G G G G G G C A G G G G ",
"P P P P P P C S G G P P P P P P P P C A G G G P P P P P P P C S P G G K P P P P P P C S G K G P ",
"U P U P U P A S U P U P P U P U Y Y C S P Y P Y Y Y Y P Y Y C S U P U P U P P P U Y C S P P Y P ",
"Y Y Y Y Y U C G Y Y Y P Y Y Y Y Y Y A G Y P Y Y Y Y Y P Y Y A G Y Y Y Y Y Y Y U Y Y A G Y U Y Y ",
"C C C C C C C C C C C C A C C C C C C C C C C A C C C C C C C C C C C C A C C C C C C C C C C A ",
"C A A A A A S S S S A A C A A A A A A A A S A S C A A A A A 8 8 8 8 8 8 8 i A A A A A A A S S S ",
"C A G G G G G G G G G G C A G G S G G G G G G G C S G G S G               w G G G G G G G G G G ",
"C S G G G P P P P P P P A S G P P P P P P P P P C S P G r                     G G G P P P P P P ",
"C F Y P U P Y Y Y P Y Y C S U P P Y P Y Y Y P Y C S P r >                     r B Y U Y Y Y P Y ",
"C G Y Y Y Y Y Y Y Y Y Y C F Y Y Y Y Y Y Y Y Y Y A G Y                           y Y Y Y Y Y Y Y ",
"C C C C C C C C C C C C C C C C C C C C C C C C C 8                           % O   C C C C C C ",
"A A A S S S C A S S A A A A S S A A C A A A A A A 8                           = O   C A A A A A ",
"G G G G G G C A G G G G G G G G G G C A G G G G G w                           - #   C A G G G G ",
"P P P P P P C S G K G P P P P P P P A S G G w                                 , &   A S G G P P ",
"P U P Y Y Y C S P P Y P P Y Y P B r 8 w r r s v v 4                           , &   C S P P Y P ",
"Y Y Y Y Y Y C G Y Y Y Y Y Y Y Y r           v #.#.v                           7 -   C G Y Y Y Y ",
"A C C C C C C C C C C C A 8     m =.*.%.$.#.#.#.#.v   ] / ]                 O 8 -   C C C C C C ",
"C A A A A A A A A 8 8 8 8 s M M E =.*.R b v v v #.v   ] ] ] l l x         O # r >   A A A S S S ",
"C A F G G G G G G         M 5.5.:.=.*.n     X X #.v X }  . .] ] /         # - u ,   G G G G G P ",
"C A G G G P       5.5.5.5.1.:.5.:.-.  l ] o.^ #.#.v X @.o.{ ^ ^ / / l     & , i 2   P P P P P P ",
"C F U P P P   5 M 5.5.5.5.1.,.5.W m l ! ..c m v b 4 X ..{ ] ( ( ( ] T l   & 2 a 2   P P Y P P Y ",
"C G Y Y Y Y   M 5.5.5.5.5.1.,.5.M   } ..@.  X X       ..] ] ( ( ( { ] ]   & 7 N 2   Y Y Y Y Y Y ",
"C C C C C C   M 5.                  ] l     8 C C 9   } _ ]       ^ ( ]   - 8 B 7   C C A C C C ",
"A A A S S S   5 M w w w w w w w >   ] l   w a S S 9   _ ( ] k k l ( ( /   > w 7 8 w C A A A A A ",
"G G G G G G       G G G G G G G w   ] l   G G G G w   ^ ( ] ( ] ] ( ( /   > r   w G C S G G S G ",
"P P P P P P A A G G G G P P P P r   o.c   G G P P P P   j ^ ~ ( / / ] / - #   P P P C S P G G P ",
"P Y Y P P Y C G Y Y P P Y P Y P r   c 3   U P U P Y P r g j h l l l k k # 2 r P P Y C S Y P Y P ",
"Y Y Y P Y Y C S Y Y Y Y Y Y Y Y r         Y Y Y Y Y Y P r                 r Y P Y Y C S Y Y Y Y ",
"A C C C A C C C C C C C C C A C C C C C C C C C A C C C A C C C C C C C A C A C A C C C C C A C ",
"C A A A A A A A A S S S C A A A A A A A A S S S C A A A A A A A A S A A C A S S A A A A A S S A ",
"C A S G G G G G G G G G C A G G G G G G G G G G C A S G G G G G G G G G C S G G G G G G G G G G ",
"C A P G P P P P P P P P C A G G P P P P P P P P C A P G P P P P P P P P C S G G P P P P P P P P ",
"C G P P Y P P Y Y P Y Y A S P Y Y P P Y U P Y Y A S P U Y P P P U P Y Y C S P Y P P Y P P P Y Y ",
"C G Y Y Y Y Y Y Y Y Y P C G Y Y Y Y Y Y Y Y Y P C G Y Y Y Y Y Y Y Y Y Y A G Y Y Y Y Y Y Y Y Y Y "
};
