/* XPM */
static char *p_push2[] = {
/* columns rows colors chars-per-pixel */
"48 48 106 2",
"   c black",
".  c #010101",
"X  c gray1",
"o  c #060606",
"O  c #090909",
"+  c #0B0B0B",
"@  c #0C0C0C",
"#  c #101010",
"$  c #111111",
"%  c #121212",
"&  c #131313",
"*  c #161616",
"=  c gray9",
"-  c #191919",
";  c #1B1B1B",
":  c #1C1C1C",
">  c #2A1C17",
",  c #2A1D17",
"<  c #381E0B",
"1  c #202020",
"2  c #212121",
"3  c #232323",
"4  c #252525",
"5  c gray15",
"6  c #292929",
"7  c #2A2A2A",
"8  c gray17",
"9  c #2C2C2C",
"0  c #2D2D2D",
"q  c gray18",
"w  c gray20",
"e  c gray21",
"r  c #393939",
"t  c #3A3A3A",
"y  c #3C3C3C",
"u  c #5F381F",
"i  c #54372D",
"p  c #54382D",
"a  c #54382E",
"s  c #553A2F",
"d  c #573D33",
"f  c #67340B",
"g  c #68360D",
"h  c #6A370F",
"j  c #6C3911",
"k  c #6E3B13",
"l  c #6E3B14",
"z  c #6F3C15",
"x  c #703D16",
"c  c gray25",
"v  c #434343",
"b  c #444444",
"n  c #464646",
"m  c #4B4B4B",
"M  c gray30",
"N  c #4F4F4F",
"B  c #505050",
"V  c #525252",
"C  c #535353",
"Z  c #545454",
"A  c #555555",
"S  c #565656",
"D  c #575757",
"F  c #585858",
"G  c #595959",
"H  c #5A5A5A",
"J  c #5B5B5B",
"K  c gray36",
"L  c #7E5344",
"P  c #9E5215",
"I  c #A6591E",
"U  c #BE713E",
"Y  c #815849",
"T  c #A76F5A",
"R  c #A86F5A",
"E  c #A86F5B",
"W  c #A8705B",
"Q  c #A9705C",
"!  c #A9715C",
"~  c #A9725D",
"^  c #AA725D",
"/  c #AA725E",
"(  c #AA735F",
")  c #AB745F",
"_  c #AB7561",
"`  c #AB7562",
"'  c #AC7662",
"]  c #AC7663",
"[  c #AC7762",
"{  c #AC7763",
"}  c #AD7864",
"|  c #AE7A66",
" . c #CE6916",
".. c #D16C1A",
"X. c #D26D1B",
"o. c #D36E1D",
"O. c #D46F1E",
"+. c #D77121",
"@. c #D87323",
"#. c #DB7526",
"$. c #DC7627",
"%. c #DD7728",
"&. c #DD7729",
"*. c #DE782A",
"=. c #DF792A",
"-. c #E07A2C",
/* pixels */
"m m m m m m m m m m m m m m m m m m m m m m m m m m m m m m m m m m m m m m m m m m m m m m m m ",
"N N N B B B m N N N N N N N N B B N m N N B N N N N N B B B m N B B N N N N N B B B m N N N N N ",
"Z Z Z Z Z Z m N Z Z Z Z Z Z Z Z Z Z m N Z Z Z Z Z Z Z Z Z Z m N Z Z Z Z Z Z Z Z Z Z m N Z Z Z Z ",
"G G G G G G m B G Z Z G G G G G G G m B Z G Z G G G G G G G m B Z Z D G G G G G G G m B D Z Z G ",
"G K K G G K m B G G G K K G K G G K m B K K G G K K K G G K N B G J G J J K K G G K m B K J G J ",
"K K K G K K N Z K K K K K K K K K K m B K K K K K K K G K K N B K K K K K K K K K K m C K K K K ",
"N m m m m m m m m m m m m m m m N m m m m m m m N m m m m m m m m m m m m m m m m m m m m m m m ",
"m N N N N N N N N B B N m N N N N N N N N B B B m N N N N N N N N B N N m N B B B N N N N B B B ",
"m N B Z Z Z Z Z Z Z Z Z m B Z Z Z Z Z Z Z Z Z Z m N Z Z Z Z Z Z Z Z Z G m B Z Z Z Z Z Z Z Z Z Z ",
"m N G Z G G G G G G G G m B Z G G G G G G G G G m N G G G G G G G G G G m B Z Z D G G G G G G G ",
"N B G K G G K G G K K K m B G G K G K K K G G K m B K G K G G G J G G J m B J J G G G J J J J J ",
"m Z K K K K K G K K K K N Z K K K K K K K K K G m B K K K K K K K K K K m Z K K K K K K K K K K ",
"m m m m m m m m N m m m m m m m N m m m N m m m m m m m N m m m m m m m m m m m m m m m m m m m ",
"N N B B B B m N N N N B N N N B N N m N B B N N N N N B N N m N B B N N N N N B B B m N N B N B ",
"B Z Z Z Z G m N B Z Z Z Z Z Z Z Z Z m N Z Z Z Z Z Z Z Z Z Z m N Z Z Z Z Z Z Z Z Z F m N Z Z Z Z ",
"G G G G G G m B Z G Z G G G G G G G m N Z Z Z G G G G G G G m N Z Z D G G G G G G G m B D Z Z G ",
"K G K G G G N B K G K G G G K G K K m B G G K G K K K G K K m B G J G J G J G G J K m C G J G J ",
"K K K G K K m B K K K G K K K K K K N Z K K K K K K K G K K N Z K K K K K K J J K K m C K K K K ",
"m m m m N m N m N m m m N m m m m m m m m m m N N m m m m m m m m m m m m m m m m m m m m m m N ",
"m N N N N N B B N N N N m N N N N N N N N N N B m m N N N N N N N B B B m N N N N N N N N B N B ",
"m N Z Z Z Z Z Z Z Z Z Z m N Z Z B Z Z Z Z Z Z Z N B Z Z B Z Z Z Z Z Z F m B Z Z Z Z Z Z Z Z Z Z ",
"m B Z Z Z G G G G G G G N B Z G G G G G G G G G m B Z G G G G G G G G G m B F Z Z F G G G G G G ",
"m Z K G K G G K K K G K m B K G G K G K K G K K m B G K K G G K G J J K m C J G J G J K K K G K ",
"m Z K K K K K K K K K K m Z K K K K K K K K K K m Z K K K K K K K K K K m C K K K K K K K K K K ",
"m m m m m m m m m m m m m m m m m m m m m m m m m m m m m m               4 m m m m m m m m m m ",
"N N N B B B m N N N N N N N B B N N m N N N N N N N N B t 4               & 4 B B B m N N N N N ",
"Z Z Z Z Z Z m N Z Z Z Z Z Z Z Z Z Z m N Z Z Z Z Z Z Z Z 7                     Z Z Z m B Z Z Z Z ",
"G G G G G G m N G Z Z G G G G G G G N B Z Z G G G G G                           9 G m B Z Z F G ",
"K G G K K K m B G G K G K K K G G K m B G K G K G b 9                         o - 9 m Z J G J G ",
"K K K G K K N Z K K K K K K K G K K N Z K G K K K 9                           @ o   m Z K K K K ",
"m m m m m m m m m m m m m m m m m m m m m m m m N 4                           & O   m m m m m m ",
"m N N N N N N N N B B N m N N 4 4 4 4 4 4 4 4 4 4 $                           * O   N N B B B B ",
"m N Z Z Z Z Z Z Z Z Z Z N N Z                                                 - @   C Z Z Z Z D ",
"m B Z Z Z G                   -.$.+.o.X.X. . . . .f                           2 #   G G G G G G ",
"N B K G G K   < x x x x x l k -.$.+.o.P g f f f  .f   a i i             . . . 3 %   J J J J J J ",
"m Z K K K K   x -.-.-.-.%.%.$.-.$.+.O.g          .f   W ) W             . X o 5 %   J J J K K J ",
"m m m m m m   x -.-.-.-.-.%.%.-.#.+.  a _ | U  . .f   ] _ _ W W W         O % w -   m m m m m m ",
"N N N B B B   < x x x x x x l -.I k d Y ] d l g  .f   | ] _ E W E d ,     + * e ;   m N N N N N ",
"Z Z Z Z Z Z                   -.x   _ ] | .      .f   | | _ W W E E i     @ - r :   m B Z Z C C ",
"G G G G G G m B D Z Z G G G G       _ d               _ W W W W E _ _ E   $ , c 2   m B Z D Z G ",
"J K J G J G N B J G G J G J G 9 -   a ,   9 9 9 9 -   _ _ W a a d W W W   $ 3 b 2   m B K G K G ",
"K K K K K J m C K K K K K K K K 9         K K K K 9   ) W W       E W W   % 4 b 2   m Z K K K K ",
"m m m m m m m m m m m m m m N m m m m m N m m m m 4   T E W W W E T W W   * 9   4 m m m m m N m ",
"m N N N N N N N B B B B m N N N N N N N N N B N m t 6 i Y E E W W W W W O $ * 7 y N N N N B N N ",
"m N Z Z Z Z Z Z Z Z Z Z m N Z Z Z Z Z Z Z Z Z Z m B Z   a W T W W ) E E $ O   Z Z Z Z Z Z Z Z Z ",
"m N Z Z D G G G G G G G m N Z Z D G G G G G J G m B Z D 9                 8 Z G G G G G G G G G ",
"N B K J G J J G J J J K m C J G J G G J J J J J m C J J b 9 9 9 q q q q 4 c G J G G G J J G K K ",
"m C K K K K K K K K K K m Z K K K K J J J J J J m C J J K K K J K K K K m Z K K K K K K K K K K "
};
