/* XPM */
static char *wall[] = {
/* columns rows colors chars-per-pixel */
"48 48 214 2",
"   c #353535",
".  c #353535",
"X  c #373737",
"o  c #393939",
"O  c #393939",
"+  c #3A3A3A",
"@  c #3A3A3A",
"#  c #464646",
"$  c #545454",
"%  c #555555",
"&  c #555555",
"*  c #565656",
"=  c #565656",
"-  c #585858",
";  c #585858",
":  c #585858",
">  c gray35",
",  c #595959",
"<  c #595959",
"1  c #767676",
"2  c #767676",
"3  c #777777",
"4  c #777777",
"5  c #777777",
"6  c #777777",
"7  c gray47",
"8  c #787878",
"9  c #787878",
"0  c #787878",
"q  c #787878",
"w  c #787878",
"e  c #797979",
"r  c #797979",
"t  c #797979",
"y  c #797979",
"u  c #797979",
"i  c #797979",
"p  c #7A7A7A",
"a  c #7A7A7A",
"s  c #7B7B7B",
"d  c #7B7B7B",
"f  c #7B7B7B",
"g  c #7B7B7B",
"h  c #7B7B7B",
"j  c #7B7B7B",
"k  c #7C7C7C",
"l  c #7C7C7C",
"z  c #7C7C7C",
"x  c #7C7C7C",
"c  c gray49",
"v  c #7D7D7D",
"b  c #7D7D7D",
"n  c #7E7E7E",
"m  c #7E7E7E",
"M  c #7E7E7E",
"N  c #7E7E7E",
"B  c gray50",
"V  c #7F7F7F",
"C  c #7F7F7F",
"Z  c #7F7F7F",
"A  c #7F7F7F",
"S  c #7F7F7F",
"D  c #808080",
"F  c #808080",
"G  c #808080",
"H  c #808080",
"J  c #808080",
"K  c #808080",
"L  c #808080",
"P  c #808080",
"I  c #818181",
"U  c #818181",
"Y  c #818181",
"T  c #818181",
"R  c #818181",
"E  c #818181",
"W  c #818181",
"Q  c #818181",
"!  c gray51",
"~  c #828282",
"^  c #828282",
"/  c #828282",
"(  c #828282",
")  c #828282",
"_  c #828282",
"`  c #828282",
"'  c #828282",
"]  c #828282",
"[  c #828282",
"{  c #828282",
"}  c #828282",
"|  c #838383",
" . c #838383",
".. c #838383",
"X. c #838383",
"o. c #838383",
"O. c #848484",
"+. c #848484",
"@. c #848484",
"#. c #848484",
"$. c #848484",
"%. c #848484",
"&. c #848484",
"*. c gray52",
"=. c #858585",
"-. c #858585",
";. c #858585",
":. c #858585",
">. c #858585",
",. c #858585",
"<. c #858585",
"1. c #858585",
"2. c #858585",
"3. c #858585",
"4. c #868686",
"5. c #868686",
"6. c #868686",
"7. c #868686",
"8. c #868686",
"9. c #868686",
"0. c #868686",
"q. c gray53",
"w. c #878787",
"e. c #878787",
"r. c #878787",
"t. c #878787",
"y. c #878787",
"u. c #878787",
"i. c #878787",
"p. c #878787",
"a. c #888888",
"s. c #888888",
"d. c #888888",
"f. c #888888",
"g. c #888888",
"h. c #888888",
"j. c #888888",
"k. c #888888",
"l. c #898989",
"z. c #8B8B8B",
"x. c gray55",
"c. c #8C8C8C",
"v. c #8D8D8D",
"b. c #8D8D8D",
"n. c #8E8E8E",
"m. c #8E8E8E",
"M. c gray56",
"N. c #8F8F8F",
"B. c #8F8F8F",
"V. c #8F8F8F",
"C. c #909090",
"Z. c #909090",
"A. c #909090",
"S. c #919191",
"D. c #919191",
"F. c #919191",
"G. c #919191",
"H. c #929292",
"J. c #929292",
"K. c #929292",
"L. c #939393",
"P. c #939393",
"I. c #939393",
"U. c #939393",
"Y. c #939393",
"T. c #939393",
"R. c #939393",
"E. c #949494",
"W. c #949494",
"Q. c #949494",
"!. c #949494",
"~. c #949494",
"^. c #959595",
"/. c #959595",
"(. c #959595",
"). c #959595",
"_. c gray59",
"`. c #969696",
"'. c #969696",
"]. c #969696",
"[. c #979797",
"{. c #979797",
"}. c #979797",
"|. c #979797",
" X c #979797",
".X c #979797",
"XX c #979797",
"oX c #979797",
"OX c #989898",
"+X c #989898",
"@X c #989898",
"#X c #989898",
"$X c #989898",
"%X c #989898",
"&X c #999999",
"*X c #999999",
"=X c #999999",
"-X c #999999",
";X c #9A9A9A",
":X c #9A9A9A",
">X c #9A9A9A",
",X c #9A9A9A",
"<X c #9A9A9A",
"1X c #9A9A9A",
"2X c #9A9A9A",
"3X c #9A9A9A",
"4X c #9A9A9A",
"5X c #9B9B9B",
"6X c #9B9B9B",
"7X c #9B9B9B",
"8X c #9B9B9B",
"9X c gray61",
"0X c #9C9C9C",
"qX c #9E9E9E",
/* pixels */
". X + @ @ @ @ @ @ @ @ @ @ @ @ @ @ @ @ @ @ @ @ @ @ @ @ o @ o + O @ @ @ @ @ @ @ @ @ @ @ @ @ + X . ",
"X # & < < : < < < < < < : < < < < < < < < < < < < > ; $ - % = * ; ; ; , : < < < < < < < < & # X ",
"+ & 5 ( ( Q | | _ _ | | Q ( { | | _ | | | | | _ ( ! E I T V U E E E E ^ Q ] | ( ( { | | _ 5 & + ",
"@ < | qX9X+X<X<X<XOX<XOX<X%X*X.X>X:X<X<X:X.X>XOX<X%X}.<X<X<X<X<X<X<X<X:X<X<X<X.X>X<XOX7XqX^ , @ ",
"@ < ] -Xm.d.q.q.q.8.6.q.q.6.,.*.4.,.q.q.,.*.;.8.q.6.8.q.q.q.8.6.q.q.q.,.2.q.q.*.;.8.y.m.9X) > @ ",
"@ < { *X7.s e e e q 0 e e 0 8 t a 9 h e 9 8 8 q e 0 q e e e q 0 e e e 9 9 e e 8 8 q d d.3X| < @ ",
"@ < ( <X8.q L.'.'.(.'.'.`.OX'.'.'.(.-X'.'.'.'.'.(.'.(.'.'.(.).K.(.'.).`.).^.'.`.).(.9 2.<XE ; @ ",
"@ < ( >X;.8 '.5X}.D.~._.S.Q._.E.~.A.U.U.(.E._._.D.U.L.E._.T._.Q./.(.H.K._._._.OX*X'.0 6.<X! > @ ",
"@ < ( ;X*.8 '.}.x.T U a.' $.W W U ~ ( ( P G ! [ ( ( &.W  .1.-.o.a.P ( ( W 1.W M.}.'.8 ,.<X{ < @ ",
"@ : ~ OX8.q '._.I g M T _ C T 9.6.1.G o.-.+.$.G 3.} ( H ! G [ H A H ! -.( R z W _.'.e q.<X{ < @ ",
"@ < | >X;.8 '._.o.K V.^.(.U.D.OX[._.E._._./.Q.E.|.P.K._._.E._._.E._._._.W.v.M 1._.'.e q.<X( < @ ",
"@ < | oX7.q '._.-.G E.8X'.'.(.'.'.W.W.'.'.`.).'.'.).`.'.'.'.'.'.'.'.'.'.0XW.T L G.(.9 2.<X( < @ ",
"@ < ( OXq.e ^.S. .' E.'.2 6 q q 0 e e e e e e 9 e e e 8 0 9 8 0 9 7 4 4 '.E.'  .E.'.9 ,.XXQ : @ ",
"@ < ( <Xq.e ).Q.1.o._.'.4 b :.8.6.q.q.d.y.q.q.2.q.q.j.=.4.:.,.4.:.X.b i '._.$.1._.'.e q.<X] < @ ",
"@ < ( XX,.9 '._.W -._.'.7 X.Y.<X<XOXOX4X3X}.%X<XOX<X6X{.$X;X<X$X[.Y.:.q (.G. . .E.'.e q.OX_ < @ ",
"@ : Q 6Xj.e (.G.G ( Z.@Xh q.OXn.d.%.@.#.O.e.a.e.a.a.a.r.h.s.i.d.N.OXq.e '._.o.H _.'.9 ,.:X| < @ ",
"@ > ! <Xq.e '._.o.K Z.^.0 6.<Xh.z j v n c c n v B B B v B B z b z.<X6.0 '._.$.! _.'.0 6.<X| < @ ",
"@ ; E XX,.9 '._.-._ !.`.q 8.OXa.l / a.a.a.i.p.h.a.a.a.a.a.a.` m s.XX=.8 '.E. .G E.'.8 ,.<X| < @ ",
"@ < ( <Xq.e (.D.{ W E.'.q 8.OXi.n i.qX9X+X<X%X1X*X$X,X+X9XqXi.m a.<Xq.e (.G.G u.(.'.e q.<X_ < @ ",
"@ < ( <X6.0 ^.~.=.H _.'.0 6.<Xt.c t.7Xm.d.,.6.i.q.4.:.d.m.7Xt.n a.<Xq.e '._.o.K H.).e q.<X| < @ ",
"@ < ( <X,.8 )._.+.W E.'.e j.6Xe.v a.:X5.s 8 0 9 e 0 8 d y.<Xa.v e.<Xq.e '._.-._ !.`.e q.<X_ < @ ",
"@ < ( OX8.q '._.I 1._.'.9 ,.XXa.B s.<X8.q             q 7.oXe.v a.XX,.9 '.E. .I _.'.9 ,.XX( < @ ",
"@ < ( <X6.0 '._.o. ._.'.e q.<Xa.B h.<X6.0             0 4.>Xf.B f.<X6.0 '._.1.U ~.'.e q.<X] < @ ",
"@ < { OXq.e '._.-.A E.'.e q.OXa.B s.OXq.h             e q.<Xr.v s.XX=.8 '._.W T D.(.e q.OX_ < @ ",
"@ , ^ <X,.8 '.(.P @.|.'.q 8.OXi.c e.oX7.q             e q.OXa.v e.:X=.8 '._.H -._.'.9 :.;X| < @ ",
"@ > ! <X6.0 ).H.( $._.'.8 ,.<Xq.c a.;X*.8             e q.<Xa.B a.%Xt.y ).Q.! o._.%Xe 9.>X| < @ ",
"@ < { <Xq.e `.K.( W _.'.q 8.OXi.m a.oX7.q             h q.<Xe.v a.*Xy.u `./.I -._. Xe q.<X~ : @ ",
"@ < | <X2.9 '._.W H _.'.q 8.<Xe.v a.3Xd.d e e e f 0 e p w.3Xa.m i.<X8.q `.K.T ( D.(.8 :.,X( < @ ",
"@ < ] <Xq.e '._.1.H _.'.8 ,.<Xa.S h.9Xm.y.q.q.q.8.6.q.7.m.9Xt.c t.>X;.8 ).H.K } ~.'.8 ;.>X( < @ ",
"@ < ( XX,.9 '.E. .[ _.'.q 8.<Xa.Z k.qX7X<X<X<XOXOX<XOX<X7XqXi.c e.oX7.q -X(.u.-._.'.q 8.<X{ < @ ",
"@ < { ,X0.e '.(.>.( K.`.e j.6Xa.l Y i.q.i.s.f.a.a.a.a.i.p.h.E z i.<Xq.e (.D.T [ _.'.q 8.<XQ : @ ",
"@ < ( ;X1.0 ).H.Q ( H.).e q.<Xh.v l m k n B B v B B B m n B c b d.>X4.0 '.~.U H Q.).8 ,.<X( < @ ",
"@ < { ,X:.8 `.!.F <.!.(.e q.OXC.h.a.g.t.i.a.a.e.a.a.a.g.a.a.s.l.n.,X:.8 '.E.' H /.`.q 8.<X( < @ ",
"@ < | oX7.q `.!.P I _.'.q :.Y.{.%X:X<X%X*X<X>X,X*X}.{.6X<XOX;X$X{.E.4.q '._.W I _.0X9 ,.XX_ < @ ",
"@ < | >X;.8 ).H.K o._.^.6 b X.=.6.,.8.,.8.8.4.0.2.q.8.j.q.q.:.9.8.4.N 3 '._.1.U ~.'.e d.4X| < @ ",
"@ : ~ OX8.q '.(._ -._.).r r w 8 0 9 q 8 q q 0 e 9 e e e e e 9 e e f 3 1 '.E. .T D.(.9 7.+X| < @ ",
"@ < ( <Xq.e `.!._ P (.5X'.'.(.'.'.'.'.'.'.(.[.].'.'.'.}.'.'.].[.(.'.'.'.-XD.9.I _.).e 0.,X( < @ ",
"@ < ( <Xq.e ^.F.U J B.(._._.G.E._._._.~.U.T.[.'._._._.|._._.'.[.G._._._.(.B.J } ~.^.0 1.;X] < @ ",
"@ < { OXq.e `./.a.x ^ ..-.o.G  .1.W -.} D I o.I H ! -.I ! H 1. .W -.! [ ..^ x D D.(.q 7.,X| < @ ",
"@ < { <X,.8 (.'.c.G ! W W U ..a.} ( _ U -.[ ! G ( ( P _ C _ ' ! W _ U -._ K P b.%X Xe q.}.{ < @ ",
"@ < ] <X6.0 '.5X}.E._.E.I.P.(./.P.U.(.P./._._.E.K.H.(.(.H.!.E._.E.(.~._.(.H.!.%X5X%Xe q.%X( < @ ",
"@ < | :X,.9 (.'.'.'.'.'.`.).'.R.).'.'.).`.'.'.'.`.).'.'.).`.'.'.'.'.'.'.'.).`.'.^.J.9 2.<X( < @ ",
"@ < ( <Xy.s e 0 8 q 0 9 e 0 q q 0 e q 8 8 e e 9 9 e e 8 0 e 9 e 9 8 0 e 9 e e 8 0 e d d.=X{ < @ ",
"@ < ( 7Xv.5.q.6.=.8.6.,.q.6.8.8.6.q.8.;.*.q.q.2.2.q.q.,.6.q.,.q.2.:.1.0.2.q.q.*.1.0.y.m.2X] < @ ",
"@ : Q qX7X:X<X<X:X*X%X:XOX<XOX<X<XOX<X>X.X<X<X<X<X<X<X<X<X<X:X<XOX,X#X&X<X%X*X;X;X,XOX7XqX| < @ ",
"+ & 5 | | | Q ] | | ] ( E E E Q ] | { ( { { ( { ( ( { | | | _ ] ( { ( ( _ ] ( ( ] | ~ | | 5 & + ",
"X # & < < < : < < < < < ; ; ; : < < < < < < < < < < < < < < < < < < < < < < < < < < : < < & # X ",
". X + @ @ @ @ @ @ @ @ @ @ @ @ @ @ @ @ @ @ @ @ @ @ @ @ @ @ @ @ @ @ @ @ @ @ @ @ @ @ @ @ @ @ + X . "
};
