/* XPM */
static char *collect[] = {
/* columns rows colors chars-per-pixel */
"8 8 28 1 ",
"  c #5A5344",
". c #50504E",
"X c #58554E",
"o c #515151",
"O c #525252",
"+ c #535352",
"@ c #535353",
"# c #555453",
"$ c #545454",
"% c #555454",
"& c #565656",
"* c #565756",
"= c #645F4C",
"- c #6F674D",
"; c #746648",
": c #6A6354",
"> c #847F63",
", c #6BB65E",
"< c #7CCF66",
"1 c #9B8450",
"2 c #9A8657",
"3 c #AB945F",
"4 c #B39859",
"5 c #858265",
"6 c #85AA65",
"7 c #A2A87D",
"8 c #88C364",
"9 c #B6B986",
/* pixels */
"&@&@&@&@",
"@&@&@&@&",
"&@>975&@",
"@&28<3@&",
"&.16,4:@",
"@# =-;X&",
"&@&@+@&@",
"@&@&@&@&"
};
