/* XPM */
static char *collect[] = {
/* columns rows colors chars-per-pixel */
"8 8 28 1",
"  c #504F4D",
". c #5A5243",
"X c #58554E",
"o c #515151",
"O c #525252",
"+ c #535352",
"@ c #535353",
"# c #545453",
"$ c #545454",
"% c #555555",
"& c #565755",
"* c #565656",
"= c #635F4C",
"- c #6E674D",
"; c #6A6353",
": c #746647",
"> c #6AB55E",
", c #7BCE65",
"< c #847E62",
"1 c #9A8350",
"2 c #998557",
"3 c #858164",
"4 c #85A964",
"5 c #AB945F",
"6 c #B39859",
"7 c #A1A77C",
"8 c #87C263",
"9 c #B6B885",
/* pixels */
"*@*@*@*@",
"@*+*@*@*",
"*@<973*@",
"@*28,5@*",
"* 14>6;@",
"@@.=-:X*",
"*@*@@@*@",
"@*@*@*@*"
};
