/* XPM */
static char *empty[] = {
/* columns rows colors chars-per-pixel */
"8 8 4 1 ",
"  c #525252",
". c #535353",
"X c #555555",
"o c #565656",
/* pixels */
"X.X.X.X.",
".XXX.X.X",
"X.X.X.X.",
".X.X.X.X",
"X.X.X.X.",
".X.X.X.X",
"X.X.X.X.",
"XX.X.XXX"
};
