/* XPM */
static char *empty[] = {
/* columns rows colors chars-per-pixel */
"8 8 39 1",
"  c #525252",
". c #525252",
"X c #525252",
"o c #525252",
"O c #525252",
"+ c #525252",
"@ c #525252",
"# c #525252",
"$ c #525252",
"% c #525252",
"& c #525252",
"* c #525252",
"= c #525252",
"- c #525252",
"; c #525252",
": c #525252",
"> c #525252",
", c #525252",
"< c #525252",
"1 c #535353",
"2 c #535353",
"3 c #535353",
"4 c #555555",
"5 c #555555",
"6 c #555555",
"7 c #555555",
"8 c #555555",
"9 c #555555",
"0 c #555555",
"q c #555555",
"w c #555555",
"e c #555555",
"r c #555555",
"t c #555555",
"y c #555555",
"u c #555555",
"i c #555555",
"p c #565656",
"a c #565656",
/* pixels */
"8&0X5$8.",
";8#u>q:u",
"8or*tOr#",
"3r$u>e@p",
"7@4*7*7%",
"-e10<6Oi",
"0 9&w+8+",
"2y=y,t;a"
};
