/* XPM */
static char *exit1[] = {
/* columns rows colors chars-per-pixel */
"8 8 22 1 ",
"  c #342520",
". c #362E2B",
"X c #4D2708",
"o c #603A1B",
"O c #442E26",
"+ c #442F27",
"@ c #40322A",
"# c #473B36",
"$ c #423C3A",
"% c #7A451B",
"& c #47423F",
"* c #4A4645",
"= c #494949",
"- c #4B4948",
"; c #4E4E4E",
": c #525252",
"> c #535353",
", c #555555",
"< c #565656",
"1 c #834310",
"2 c #A05213",
"3 c #C4712D",
/* pixels */
"<:<:<:<:",
":<*;<;:<",
"<:.OO <:",
":<*OO#:<",
"<:$23.<,",
":,-%1*,<",
"<:<oX:,:",
":<:<:<:,"
};
