/* XPM */
static char *exit1[] = {
/* columns rows colors chars-per-pixel */
"8 8 22 1",
"  c #332520",
". c #352E2B",
"X c #4D2607",
"o c #5F391A",
"O c #432D25",
"+ c #442E26",
"@ c #403229",
"# c #473B36",
"$ c #423C3A",
"% c #47413F",
"& c #7A441B",
"* c #4A4644",
"= c #494848",
"- c #4B4948",
"; c #4E4E4E",
": c #525252",
"> c #535353",
", c #555555",
"< c #565656",
"1 c #834310",
"2 c #A05113",
"3 c #C4702C",
/* pixels */
"<:<:<:<:",
":<=;<;:<",
"<:.+O <:",
":<%++#:<",
"<>#23.<,",
"><-&1*><",
"<:,oX><>",
"><>,><><"
};
