/* XPM */
static char *exit3[] = {
/* columns rows colors chars-per-pixel */
"8 8 23 1 ",
"  c #352D2A",
". c #352E2B",
"X c #363230",
"o c #3B3938",
"O c #4D2708",
"+ c #60391A",
"@ c #40322A",
"# c #423C3A",
"$ c #7A451B",
"% c #4A4644",
"& c #484848",
"* c #4B4948",
"= c #4D4D4D",
"- c #4E4E4E",
"; c #525252",
": c #535353",
"> c #565656",
", c #5F5F5F",
"< c #707070",
"1 c #767676",
"2 c #834310",
"3 c #A05213",
"4 c #BF5F11",
/* pixels */
">;>;>;>;",
";>&-;-;>",
">;-<1,>;",
";>o..X;>",
">:#34.>>",
":>*$2%:>",
">:>+O:>:",
":>:>:>:>"
};
