/* XPM */
static char *exit4[] = {
/* columns rows colors chars-per-pixel */
"8 8 22 1",
"  c #352D27",
". c #3A302D",
"X c #3E3836",
"o c #3D3D3D",
"O c #432D25",
"+ c #442F28",
"@ c #413630",
"# c #663611",
"$ c #404040",
"% c #454140",
"& c #444444",
"* c #474747",
"= c #4D4D4D",
"- c #505050",
"; c #515151",
": c #525252",
"> c #545454",
", c #555555",
"< c #615F5E",
"1 c #707070",
"2 c #8E4E1D",
"3 c #85522B",
/* pixels */
",:,:,:,:",
":,=,:&:,",
",:X+<1$:",
":,%O.:=,",
",:, #:,:",
":,:@2,:,",
",:,o3:,:",
":,::$,:,"
};
