/* XPM */
static char *exit2[] = {
/* columns rows colors chars-per-pixel */
"8 8 23 1",
"  c #3B2F2A",
". c #3D3937",
"X c #49301E",
"o c #53331A",
"O c #432E25",
"+ c #453630",
"@ c #453B37",
"# c #543722",
"$ c #604633",
"% c #624935",
"& c #7A4D2A",
"* c #464646",
"= c #494949",
"- c #4C4C4C",
"; c #4D4D4D",
": c #4F4F4F",
"> c #525252",
", c #535353",
"< c gray33",
"1 c #555555",
"2 c #565656",
"3 c #575757",
"4 c #686868",
/* pixels */
"1>1>1>1>",
">1*:1:>1",
"1>14+ 1>",
">1=.O@>1",
"1>1oX>1>",
">1>&#1>1",
"1>1$%>1>",
">1>:=1>1"
};
