/* XPM */
static char *exit4[] = {
/* columns rows colors chars-per-pixel */
"8 8 24 1 ",
"  c #362D27",
". c #3B312D",
"X c #3E3836",
"o c #3D3D3D",
"O c #673711",
"+ c #442E26",
"@ c #442F28",
"# c #413730",
"$ c #404040",
"% c #454140",
"& c #454545",
"* c #474747",
"= c #4D4D4D",
"- c #4E4E4E",
"; c #505050",
": c #515151",
"> c #525252",
", c #535353",
"< c #555555",
"1 c #565656",
"2 c #615F5E",
"3 c #707070",
"4 c #8E4F1D",
"5 c #86522B",
/* pixels */
"1,1,1,1,",
",1=1,&,1",
"1,X@23$,",
",1%+.,=1",
"1,1 O,1,",
",1<.41,1",
"1,1o5,1,",
",1,,&1,1"
};
