/* XPM */
static char *exit2[] = {
/* columns rows colors chars-per-pixel */
"8 8 23 1 ",
"  c #3B2F2B",
". c #3D3938",
"X c #49301F",
"o c #53341A",
"O c #442E26",
"+ c #553822",
"@ c #463630",
"# c #453B38",
"$ c #7A4E2B",
"% c #604733",
"& c #634936",
"* c #474747",
"= c #494949",
"- c #4A4A4A",
"; c #4D4D4D",
": c #4F4F4F",
"> c #525252",
", c #535353",
"< c gray33",
"1 c #555555",
"2 c #565656",
"3 c #575757",
"4 c DimGray",
/* pixels */
"1,1,1,1,",
",1*:1:,1",
"1,14@ 1,",
",1=.O#,1",
"1,1oX,1,",
",1,$+1,1",
"1,1%&,1,",
",1,:=111"
};
