/* XPM */
static char *exit3[] = {
/* columns rows colors chars-per-pixel */
"8 8 22 1",
"  c #342C2A",
". c #352D2A",
"X c #353130",
"o c #3A3838",
"O c #4C2607",
"+ c #5F391A",
"@ c #40322A",
"# c #423C3A",
"$ c #7A441B",
"% c #494544",
"& c #484848",
"* c #4A4848",
"= c #4C4C4C",
"- c #4D4D4D",
"; c #525252",
": c #555555",
"> c #5F5F5F",
", c #707070",
"< c #757575",
"1 c #83430F",
"2 c #9F5112",
"3 c #BF5F11",
/* pixels */
":;:;:;:;",
";:&-;-;:",
":;-,<>:;",
";:o  X;:",
":;#23.:;",
";:*$1%;:",
":;:+O;:;",
";:;:;:;:"
};
