/* XPM */
static char *f1[] = {
/* columns rows colors chars-per-pixel */
"8 8 24 1",
"  c #181818",
". c #030A29",
"X c #161D3C",
"o c #252525",
"O c #3D3D3D",
"+ c #081446",
"@ c #121D59",
"# c #1C2249",
"$ c #253159",
"% c #402B24",
"& c #40322D",
"* c #453939",
"= c #553A30",
"- c #593C31",
"; c #604237",
": c #624338",
"> c #414141",
", c #4F4541",
"< c #4E4B49",
"1 c #544A46",
"2 c #524B49",
"3 c #5E4A43",
"4 c #525252",
"5 c #555555",
/* pixels */
"54545454",
"45> oO45",
"54&=-%54",
"451;;345",
"54,@$*54",
"45<#+245",
"545X.454",
"45454545"
};
