/* XPM */
static char *f2[] = {
/* columns rows colors chars-per-pixel */
"8 8 21 1",
"  c black",
". c #150E0B",
"X c #1A1A1A",
"o c gray12",
"O c #161C35",
"+ c gray16",
"@ c #2B293A",
"# c #322B37",
"$ c #313131",
"% c #232B4E",
"& c #2D3246",
"* c #303548",
"= c #442D25",
"- c #43342E",
"; c #53443E",
": c #6D493C",
"> c #464646",
", c #484848",
"< c #4B4B4B",
"1 c #525252",
"2 c #555555",
/* pixels */
"21212121",
"12$X+>12",
"21  =-21",
"12o.:;12",
"212O#121",
"121%@212",
"212&*121",
"121<,212"
};
