/* XPM */
static char *f3[] = {
/* columns rows colors chars-per-pixel */
"8 8 23 1",
"  c black",
". c #080808",
"X c gray8",
"o c #151515",
"O c #1F1F1F",
"+ c #030A29",
"@ c #161D3C",
"# c #2A1D18",
"$ c #2B1D18",
"% c #37302D",
"& c #3A3A3A",
"* c #3E3B3A",
"= c #081446",
"- c #121D59",
"; c #081A67",
": c #1C2249",
"> c #453939",
", c #414141",
"< c #4F4541",
"1 c #4E4B49",
"2 c #524B49",
"3 c #525252",
"4 c #555555",
/* pixels */
"43434343",
"34,oO&34",
"43o .o43",
"34*##%34",
"43<-;>43",
"341:=234",
"434@+343",
"34343434"
};
