/* XPM */
static char *f4[] = {
/* columns rows colors chars-per-pixel */
"8 8 24 1",
"  c black",
". c #0A0705",
"X c #111111",
"o c #1D1D1D",
"O c #1A1C3D",
"+ c #35231D",
"@ c #242424",
"# c #2D2B2F",
"$ c #2C2C2C",
"% c #3D3739",
"& c gray24",
"* c #3F3F3F",
"= c #121D4F",
"- c #212A51",
"; c #4F342B",
": c #433B38",
"> c #644438",
", c #444444",
"< c #4D4644",
"1 c #4C4C4C",
"2 c #4D4D4D",
"3 c #505050",
"4 c #525252",
"5 c #555555",
/* pixels */
"54545454",
"451$o@45",
"54:;. *4",
"45<>+X15",
"545#O454",
"454%=545",
"545&-454",
"4544,545"
};
