/* XPM */
static char *opps[] = {
/* columns rows colors chars-per-pixel */
"8 8 25 1 ",
"  c #181818",
". c #040B2A",
"X c #171E3C",
"o c #252525",
"O c #3E3E3E",
"+ c #4C423E",
"@ c #53423C",
"# c #091447",
"$ c #16215D",
"% c #20264E",
"& c #26315A",
"* c #424242",
"= c #524849",
"- c #524F4E",
"; c #59514E",
": c #525252",
"> c #535353",
", c #565656",
"< c #595452",
"1 c #5E5653",
"2 c #6D5850",
"3 c #745C54",
"4 c #71615B",
"5 c #7B635B",
"6 c #7E655C",
/* pixels */
",>,>,>,>",
">,* oO>,",
",>+23@,>",
">,1654>,",
",>;$&=,>",
">,-%#<>,",
",>,X.>,>",
">,>,>,>,"
};
