/* XPM */
static char *opps[] = {
/* columns rows colors chars-per-pixel */
"8 8 29 1",
"  c #181818",
". c #040B29",
"X c #161D3C",
"o c #252525",
"O c #3D3D3D",
"+ c #081447",
"@ c #1F264E",
"# c #16215D",
"$ c #25315A",
"% c #4C413D",
"& c #52423C",
"* c #414141",
"= c #514849",
"- c #524F4E",
"; c #58504D",
": c #525252",
"> c #535252",
", c #535353",
"< c #555555",
"1 c #555656",
"2 c #565555",
"3 c #565656",
"4 c #595351",
"5 c #5E5652",
"6 c #6D574F",
"7 c #735C53",
"8 c #70605A",
"9 c #7B635A",
"0 c #7E655C",
/* pixels */
"3:3:3:3:",
":3* oO:3",
"3:%67&3:",
":35097:3",
"3:;#$=3:",
":3-@+3:3",
"3:3X.:3:",
":3:3:3:3"
};
