/* XPM */
static char *p1[] = {
/* columns rows colors chars-per-pixel */
"8 8 24 1 ",
"  c #181818",
". c #252525",
"X c #3D3D3D",
"o c #4D2708",
"O c #5F391A",
"+ c #41332E",
"@ c #4B332A",
"# c #523E34",
"$ c #7F481D",
"% c #424242",
"& c #4F4C4B",
"* c #504642",
"= c #554B48",
"- c #534C4A",
"; c #535353",
": c #565656",
"> c #624D45",
", c #744E40",
"< c #754F41",
"1 c #765042",
"2 c #765143",
"3 c #834310",
"4 c #A45516",
"5 c #C4712D",
/* pixels */
":;:;:;:;",
";:% .X;:",
":;+<<@:;",
";:=11>;:",
":;*45#:;",
";:&$3-;:",
":;:Oo;:;",
";:;:;:;:"
};
