/* XPM */
static char *p2[] = {
/* columns rows colors chars-per-pixel */
"8 8 24 1",
"  c black",
". c #151515",
"X c #181818",
"o c #252525",
"O c #3F2A23",
"+ c #343434",
"@ c #3D3D3D",
"# c #533018",
"$ c #55392F",
"% c #5B422D",
"& c #594637",
"* c #5B4239",
"= c #414141",
"- c #444444",
"; c #4C4C4C",
": c #4E4E4E",
"> c #515151",
", c #525252",
"< c #535353",
"1 c #555555",
"2 c #565656",
"3 c #754F41",
"4 c #894F25",
"5 c #85522B",
/* pixels */
"1,1,1,1,",
",1=Xo@,1",
"1,. #$1,",
",1+ 3*,1",
"2<<%#;<>",
"<2<&3;<2",
"2<2@4<2>",
"<2<,-2<2"
};
