/* XPM */
static char *p2[] = {
/* columns rows colors chars-per-pixel */
"8 8 22 1 ",
"  c black",
". c #151515",
"X c #181818",
"o c #252525",
"O c #353535",
"+ c #3D3D3D",
"@ c #543118",
"# c #402B23",
"$ c #56392F",
"% c #5C422E",
"& c #594637",
"* c #5B433A",
"= c #424242",
"- c #454545",
"; c #4C4C4C",
": c #4E4E4E",
"> c #515151",
", c #535353",
"< c #565656",
"1 c #754F41",
"2 c #894F25",
"3 c #85522B",
/* pixels */
"<,<,<,<,",
",<=Xo+,<",
"<,. #$<,",
",<O 1*,<",
"<,<%@;<<",
",<,&2;,<",
"<,<+3,<,",
",<,,-<,<"
};
