/* XPM */
static char *p3[] = {
/* columns rows colors chars-per-pixel */
"48 48 146 2 ",
"   c black",
".  c #010101",
"X  c #020202",
"o  c gray1",
"O  c #040404",
"+  c gray2",
"@  c #060606",
"#  c #070707",
"$  c #080808",
"%  c #090909",
"&  c #0B0B0B",
"*  c #0C0C0C",
"=  c gray5",
"-  c #0E0E0E",
";  c #0F0F0F",
":  c #101010",
">  c #111111",
",  c gray7",
"<  c #131313",
"1  c #141414",
"2  c #151515",
"3  c #161616",
"4  c #171717",
"5  c #181818",
"6  c #191919",
"7  c gray10",
"8  c #1B1B1B",
"9  c #1C1C1C",
"0  c #1D1D1D",
"q  c #1E1E1E",
"w  c #331905",
"e  c #341B06",
"r  c #2B1D18",
"t  c #2B1E19",
"y  c #2C1E19",
"u  c #202020",
"i  c gray13",
"p  c #222222",
"a  c #232323",
"s  c gray14",
"d  c #252525",
"f  c #262626",
"g  c #282828",
"h  c gray16",
"j  c #2A2A2A",
"k  c #2B2B2B",
"l  c #2C2C2C",
"z  c #2D2D2D",
"x  c #2E2E2E",
"c  c #2F2F2F",
"v  c #3D302B",
"b  c #3A3A3A",
"n  c #3D3D3D",
"m  c #5E361D",
"M  c #5E371E",
"N  c #663207",
"B  c #663208",
"V  c #663308",
"C  c #663209",
"Z  c #663309",
"A  c #66330A",
"S  c #66340A",
"D  c #67340B",
"F  c #67350B",
"G  c #67350C",
"H  c #68360D",
"J  c #6B3910",
"K  c #703D16",
"L  c #40332E",
"P  c #42342F",
"I  c #55382E",
"U  c #553A30",
"Y  c #563A30",
"T  c #563B31",
"R  c #563B32",
"E  c #563C32",
"W  c #573C32",
"Q  c #573D33",
"!  c #573D34",
"~  c #454545",
"^  c #4B4B4B",
"/  c #4D4D4D",
"(  c #4F4F4F",
")  c #505050",
"_  c #515151",
"`  c #535353",
"'  c #545454",
"]  c #555555",
"[  c #565656",
"{  c #585858",
"}  c #595959",
"|  c #5A5A5A",
" . c #5B5B5B",
".. c #5C5C5C",
"X. c #5D5D5D",
"o. c #5E5E5E",
"O. c #9A4E11",
"+. c #9A4F11",
"@. c #CA620B",
"#. c #CA610C",
"$. c #CA620C",
"%. c #CB630D",
"&. c #CB630E",
"*. c #CB630F",
"=. c #CB640F",
"-. c #CC640F",
";. c #CB6410",
":. c #CB6510",
">. c #CB6412",
",. c #CC6410",
"<. c #CC6510",
"1. c #CC6511",
"2. c #CC6512",
"3. c #CC6612",
"4. c #CC6613",
"5. c #CC6614",
"6. c #CC6714",
"7. c #CD6714",
"8. c #CD6715",
"9. c #CD6815",
"0. c #CD6816",
"q. c #CE6816",
"w. c #CE6916",
"e. c #CE6817",
"r. c #CE6917",
"t. c #CE6A17",
"y. c #CF6A19",
"u. c #CF6B19",
"i. c #CF6B1A",
"p. c #D6701F",
"a. c #D67120",
"s. c #D77121",
"d. c #E07A2C",
"f. c #825A4C",
"g. c #A9705C",
"h. c #AA735F",
"j. c #AB745F",
"k. c #AB7460",
"l. c #AB7561",
"z. c #AC7662",
"x. c #AC7663",
"c. c #AD7764",
"v. c #AD7864",
"b. c #AE7966",
"n. c #AE7A66",
"m. c #AE7A67",
/* pixels */
"^ ^ ( ^ ^ ^ ^ ^ ^ ^ ^ ^ ^ ^ ^ ^ ^ ^ ^ ^ ( ^ ^ ^ ^ ^ ( ^ ^ ^ ^ ^ ^ ^ ^ ^ ^ ^ ( ^ ^ ^ ^ ^ ^ ^ ^ ^ ",
"( ( ) ) ( ( ^ ( ( ( ( ( ( ( ( ( ) ) ^ ( ( ) ( ( ( ( ) ) ( ) ^ ( ( ( ( ( ( ( ) ) ( ) ^ ( ( ( ( ( ",
"] ] ] ] ] ] ^ ( ] ] ] ] ] ] ] ] ] ] ^ ( ) ] ] ) ) ] ] ] ] ] ^ ( ] ] ] ] ) ] ] ] ] ] ^ ( ] ] ] ] ",
"} } } } } } ^ ) ] } } } } } } } } } ^ ) } } } } } } } } } } ^ ) } ] } ] } } } } } } ^ ) ] } ] } ",
"} o.} o.o.o.^ ) } } o.} } o.} o.o.o.^ ) } o.} o.o.} o.o.o.o.( ) } } o.o.o.} o.o.o.o.^ ) o.} } o.",
"o.o.o.o.o.o.( ] o.o.o.o.o.o.o.o.o.o.( ) o.o.o.o.o.o.o.o.o.o.^ ] o.o.o.o.o.o.o.o.o.o.( ) o.o.o.o.",
"( ^ ^ ^ ^ ^ ^ ^ ^ ^ ^ ^ ( ^ ^ ^ ( ^ ^ ( ^ ( ^ ( ^ ^ ( ^ ^ ( ^ ^ ^ ^ ^ ^ ^ ^ ^ ^ ( ^ ^ ^ ( ^ ^ ^ ",
"^ ( ( ( ( ( ( ( ( ( ( ( ^ ( ( ( ( ( s s s s s s s s s s s s s b ( ( ( ( ^ ( ( ) ( ( ( ( ( ( ( ( ",
"^ ( ) ] ] ] ] ] ] ] ] ] ^ ( ] ] ) ] . . . . . . . . . . . . . k ] ] ] } ( ( ) ] ] ] ] ] ] } ] ] ",
"^ ( } } ] } } } } } o.} ( ) ] } z . . . . % - : 4 4 7 9 i s s 4 . } } } ^ ) } } ] } } } } } } } ",
"^ ] } o.} o.o.} } o.o.o.^ ) } z 4 . . . . % % - : 4 4 9 i i s 9 : z ~ o.^ ) o.} o.} } o.o.o.} o.",
"^ ) o.o.o.o.o.o.o.o.o.o.^ ] o.. . . . . . + + % - : : 7 9 9 i k k . z o.^ ] o.o.o.o.o.o.o.o.o.o.",
"^ ^ ( ^ ^ ^ ^ ^ ^ ^ ^ ^ ^ s . . . . . . . . . . % - - 4 4 7 9 9 s k : . ^ ^ ^ ^ ^ ^ ^ ^ ( ^ ^ ^ ",
"( ( ) ) ( ( ^ ( ( ( ( ( ) s . . . . . . . . . . + % % : : 7 9 9 i s 4 . ) ( ( ) ) ) ^ ( ) ) ( ( ",
"] ] ] ] ] ] ( ) ) ] ] ] ] k . . . . . . . . . . . + % - : : 7 9 9 i : . ] ] ] ] ] ] ^ ( ] ) ) ] ",
"} } } } } } ^ ) } } } } } z . . . . . . . . . . . . . % - - : 4 7 9 - . } } } o.} } ^ ) } } } } ",
"o.} o.} } o.( ) o.} } o.o.z . . . . . . . . . . . . . + % % : 4 4 7 - . } o.} o.o.o.^ ) } o.} o.",
"o.o.o.o.o.o.^ ] o.o.o.o.o.z . . . . . . . . . . . . . . + + - - : 4 % . o.o.o.o.o.o.^ ] o.o.o.o.",
"^ ^ ^ ^ ( ^ ^ ^ ^ ^ ^ ^ ^ s . . . . . . . . . . . . . . . . + + . . . . ^ ^ ^ ^ ^ ^ ^ ^ ^ ^ ^ ( ",
"^ ( ( ( ( ( ( ( ( ( ) ) ^ b k . r U . . . . . . . . . . . . . y I . 4 k ^ ( ( ( ( ( ( ( ( ) ( ) ",
"^ ( ) ] ] ] ] ] ] ] ] ] ^ ) ` . U l.. . . . . . . . . . . . . I h.. k ] ( ) ] ] ] ] ] ] ] ] ] ] ",
"^ ) } } } } } } } } o.} ^ ) } { k . l.l.h.h.l.l.z.b.l.b.b.z.j.I . } } } ^ ) ] ] ] } } { } } } } ",
"( ) } o.o.} } o.} o.o.o.^ ` ....~ z U U U I U U Q U U Q Q U U P c o.} o.^ ) } o.o.} o.o.o.o.} o.",
"^ ] o.o.o.o.o.o.o.o.o.o.^ ` ..o.o.o.. . . . . . . . . . . . . c o.o.o.o.( ] o.o.o.o.o.o.o.o.o.o.",
"^ ^ ^ ^ ^ ^ ^ ^ ^ ^ ^ ^ ^ ^ ^ ^ s . 6.6.i.4.4.&.#.#.4.4.9.i.6.A . ^ ^ ^ ^ ^ ^ ^ ^ ^ ^ ^ ^ ^ ^ ^ ",
"( ( ( ( ) ) ^ ( ) ) ) ) ) / ) f v U A +.9.4.4.4.#.;.4.4.9.9.A m U s b ( ( ( ) ) ( ( ^ ( ( ( ( ( ",
"] ] ] ] ] ] ^ ( ` ' ' ' ` { ' . U k.. A 6.4.4.4.#.;.9.9.6.6.. I h.. k ] ] ] ] ] ] ] ^ ( ) ] ] ] ",
"} } } } } } ^ ) { { { { } } } . U b.. S 6.t.4.4.#.=.;.9.9.6.. Q c.. k } } } } } } } ( ) } } ] } ",
"o.o.} o.o.o.( ) ..............X ! b.! J A y.9.4.&.&.4.i.+.A U f.b.. z o.o.} o.} o.o.^ ) } o.} o.",
"o.o.o.o.o.o.^ ] o.o...X.o.o.o.X ! m.x.! . y.9.4.&.4.4.i.H . b.b.b.. z o.o.o.o.o.o.o.( ] o.o.o.o.",
"^ ^ ^ ^ ^ ^ ^ ^ ^ ^ ^ ^ ^ ^ ^ X R b.x.! . d.d.d.d.d.d.d.J . z.c.z.. s ^ ^ ^ ^ ^ ^ ^ ^ ^ ^ ^ ^ ^ ",
"^ ( ( ( ( ( ) ( ) ) ) ) ^ / ( j v R R t . s.p.p.p.p.s.s.J . Q U Q k n ( ^ ( ( ( ( ( ( ( ( ( ( ( ",
"^ ( ) ] ] ] ] ] ] ] ] ] ^ ) ] ] k . . . . 6.4.4.4.4.4.7.F . . . . ] ] ] ^ ( ` ] ) ] ] ] ] ] ] } ",
"^ ( } } ] } } } } } } } ^ ) ] } { } } z . ;.-.=.. N =.-.N . } } } } } } ( ) } } } } } } } } } } ",
"^ ] } o.} o.o.} o.o.o.o.( ) } o.....o.c . ;.;.=.. N -.-.A . o.} o.o.o.o.^ ) o.} o.} o.} o.o.o.o.",
"^ ) o.o.o.o.o.o.o.o.o.o.^ ] o.o.o.o.o.c . =.;.4.. F 4.;.N . o.o.o.o.o.o.^ ] o.o.o.o.o.o.o.o.o.o.",
"^ ^ ( ^ ^ ^ ^ ^ ^ ^ ^ ^ ^ ^ ^ ^ ^ ^ ^ s . 9.5.5.. A ;.y.F . ^ ^ ^ ^ ^ ^ ^ ^ ^ ^ ^ ^ ^ ^ ^ ^ ^ ^ ",
"( ( ) ) ( ( ^ ( ( ( ( ( ( ( ( ( ) ) ^ s . 9.5.;.. A ;.9.F . ^ ( ( ( ( ( ( ( ) ) ( ( ^ ( ( ( ( ( ",
"] ] ] ] ] ] ( ) ) ] ] ] ] ] ] ] ] ] ( s . y.9.;.. A >.y.F . ^ ( ) ] ] ] ] ] ] ] ] ] ^ ( ) ] ) ] ",
"} } } } } } ^ ) ] } } } } } } } } } ^ s . >.9.9.. F 9.;.A . ^ ) } } ] } } } } } } } ( ) } } } } ",
"} ..o.} o.o.( ) } o.} o.o.} o.o.o.o.^ s . A A F . w A A w . ( ) } o.} } } o.} o.o.o.^ ) o.} o.} ",
"o.o.o.o.o.o.^ ` o.o.o.o.o.o.o.o.o.o.^ s . . . . . . . . . . ^ ] o.o.o.o.o.o.o.o.o.o.^ ] o.o.o.o.",
"( ^ ^ ^ ^ ^ ^ ^ ^ ^ ^ ^ ^ ^ ^ ^ ^ ^ ^ ^ ^ ^ ^ ^ ^ ^ ^ ^ ^ ^ ^ ^ ^ ^ ^ ^ ( ^ ^ ^ ^ ^ ^ ^ ^ ^ ( ^ ",
"^ ( ( ( ( ( ( ( ( ) ) ) ^ ( ( ( ( ( ( ( ( ( ( ) ^ ( ( ( ( ( ( ( ( ) ( ( ^ ( ( ( ( ( ( ( ( ( ( ( ",
"^ ( ) ] ] ] ] ] ] ] ] ] ^ ( ) ] ] ] ] ] ] ] ] ] ^ ( ) ] ] ] ] ] ] ] ] } ( ( ) ] ] ] ] ] ] ] ] ] ",
"^ ( } } } } } } } } } } ^ ( } } } } } } } } } } ^ ) } } ] } } } } } } } ( ) } } ] } } } } } o.} ",
"( ) } o.o.} } o.o.o.o.o.( ) } o.o.} } o.o.o.o.o.^ ] } o.} o.o.} o.o.o.o.^ ) } o.o.} o.} } o.o.o.",
"^ ] o.o.o.o.o.o.o.o.o.o.^ ` o.o.o.o.o.o.o.o.o.o.^ ) o.o.o.o.o.o.o.o.o.o.^ ] o.o.o.o.o.o.o.o.o.o."
};
