/* XPM */
static char *p4[] = {
/* columns rows colors chars-per-pixel */
"8 8 21 1 ",
"  c black",
". c #150E0C",
"X c #1B1B1B",
"o c #222222",
"O c #292929",
"+ c #343434",
"@ c #56371D",
"# c #553825",
"$ c #5E3E27",
"% c #55382E",
"& c #564139",
"* c #7A4E2B",
"= c #604633",
"- c #634A36",
"; c #444444",
": c #494949",
"> c #4D4D4D",
", c #594740",
"< c #535353",
"1 c #565656",
"2 c #755042",
/* pixels */
"1<1<1<1<",
"<1;OX+<1",
"1<&%  1<",
"<1,2.o<1",
"1<1#@<1<",
"<1<$*1<1",
"1<1=-<1<",
"<1<>:1<1"
};
