/* XPM */
static char *p4[] = {
/* columns rows colors chars-per-pixel */
"8 8 23 1",
"  c black",
". c #150E0B",
"X c #1A1A1A",
"o c #222222",
"O c #292929",
"+ c #343434",
"@ c #56361C",
"# c #553825",
"$ c #54382E",
"% c #5E3D27",
"& c #554039",
"* c #5F4632",
"= c #634936",
"- c #7A4D2B",
"; c #444444",
": c #494949",
"> c #4C4C4C",
", c #584640",
"< c #525252",
"1 c #535353",
"2 c #555555",
"3 c #565656",
"4 c #754F41",
/* pixels */
"2<2<2<2<",
"<2;OX+<2",
"2<&$  2<",
"<2,4.o<2",
"2<2#@<2<",
"<2<%-2<2",
"2<2==<2<",
"<2<>:2<2"
};
