/* XPM */
static char *p_push2[] = {
/* columns rows colors chars-per-pixel */
"8 8 19 1",
"  c black",
". c #070707",
"X c #161616",
"o c #1F1F1F",
"O c #331F12",
"+ c #333333",
"@ c #393939",
"# c #54341A",
"$ c #4E372B",
"% c #513E30",
"& c #554133",
"* c #614129",
"= c #6F492B",
"- c #754D38",
"; c #744D3F",
": c #534945",
"> c #525252",
", c #555555",
"< c #6B4E44",
/* pixels */
",>,>,>,>",
">,>,>,>,",
",>,>,>,>",
">,>,>,>,",
",>,>+ o>",
">%=#O .,",
",&*$-;X>",
">,>,:<@,"
};
