/* XPM */
static char *p_push1[] = {
/* columns rows colors chars-per-pixel */
"8 8 20 1",
"  c black",
". c #050505",
"X c #16100B",
"o c #121212",
"O c #2C2C2C",
"+ c #313131",
"@ c #333333",
"# c #453B37",
"$ c #433D38",
"% c #5E3F34",
"& c #63432B",
"* c #684639",
"= c #794522",
"- c #7B4E34",
"; c #414141",
": c #4F4F4F",
"> c #5B4943",
", c #525252",
"< c #555555",
"1 c #9C5620",
/* pixels */
"<,<,<,<,",
",<,<,<,<",
"<,<,<,<,",
",<,<;o@<",
"<,:$X .,",
",&1=-%o<",
"<$@#>*O,",
",<,<,<,<"
};
