/* XPM */
static char *wall[] = {
/* columns rows colors chars-per-pixel */
"48 48 45 1 ",
"  c #353535",
". c #464646",
"X c #525252",
"o c #535353",
"O c #545454",
"+ c #555555",
"@ c #565656",
"# c #575757",
"$ c #767676",
"% c #777777",
"& c #787878",
"* c #797979",
"= c #7C7C7C",
"- c #7D7D7D",
"; c #7E7E7E",
": c #7F7F7F",
"> c #808080",
", c #818181",
"< c #828282",
"1 c #838383",
"2 c #848484",
"3 c #858585",
"4 c #868686",
"5 c #878787",
"6 c #888888",
"7 c #898989",
"8 c #8A8A8A",
"9 c #8B8B8B",
"0 c #8C8C8C",
"q c #8D8D8D",
"w c #8E8E8E",
"e c #919191",
"r c #939393",
"t c #949494",
"y c #959595",
"u c #969696",
"i c #979797",
"p c #989898",
"a c #999999",
"s c #9A9A9A",
"d c #9B9B9B",
"f c #9C9C9C",
"g c #9D9D9D",
"h c #9E9E9E",
"j c #9F9F9F",
/* pixels */
"                                                ",
" .@@@@@@@@@@@@@@@@@#@@@@@@XXXXXX@@@@@@@@@@@@@@. ",
" @59990099009990090090099999959959999909990095@ ",
" @0jjdjjjdjdjdjdjjjjjdjdjddjdjdjjdjjjdjdjjdjj9@ ",
" @9d9515551555111115111551555555555115511559d9@ ",
" @0j1$$$$$$$$$$$*$*$$$$$$$$$$$$$$$$$$$$$$$$5j0@ ",
" @9d5$ruuuuuuuuuuuduuuuuuuuuururruuuuuuuuu$1d9@ ",
" @9j1$ujduddudddduudddddududdddddduddddddu$5j9@ ",
" @0j1$ud1==1=1============1==11=1====1=5du$1j0@ ",
" @9d5$ud=*===*=111==1=1*1=======*==1==*=du$5d0@ ",
" @0j1$ud==uddduddddddddddduddddddddddu=1du$5j9@ ",
" @0d5$ud1=dduuuuurruuuuuuuuuuuuuuuuudd==uu$1j9@ ",
" @9d5$uu==du$$$$$$$$$$$$$$$$$$$*$$$$ud==du$1d9@ ",
" @9j5$ud1=du$=55555555515551511111=*ud11du$5j0@ ",
" @9d1$ud=1du$1ddjddjjddjdjjddjjddd5$uu==du$5d9@ ",
" @9j5$uu==uu*5dr5555599999000009rd5$ud==du$1j0@ ",
" @9j5$ud==uu$1j0$$$*$$$$$*$$*$$$0j5$ud1=du$5d0@ ",
" @9d1$ud1=du$5d0$50099000009005*9d1$ud==du$1j0@ ",
" @9j5$uu==du$5d0$9jjdjdjjdjdjj0$0j5$uu=1du$5d9@ ",
" @9d5$ud1=du$5j9$9j9515551159j0$9d5$ud==uu$5j0@ ",
" @9j1$ud==du$5j9$0j1$$$$$$$$1j9$0j5$ud1=du$5j9@ ",
" @9d5$ud=1du$1d9$0d5$      $5d9$9d1$ud==du$1d9@ ",
" @9j1$ud==du$5j0$0j1$      $1j0$0j5$ud1=du$5j0@ ",
" @0d5$ud1*du$5d0*0d5*      $5j0$0d1$ud==uu$5d9@ ",
" @9j1$ud==ju$5d9$9d5$      $5d9$0j1$ud=1du$1j0@ ",
" @9j5$uu=1du$1j9$9j1$      $5j0$0d5$ud==du$5d0@ ",
" @0d5$ud==du$5d9$0d5$      *1j0$9j5$ud=1du$5j9@ ",
" @0j1$ud==du$5j9$0j5$$$$*$$$5j0$9d5$uu==uu$1j9@ ",
" @9j5$ud1=du$1j9$0j9151551519j9$0j1$ud==du$1d9@ ",
" @9d1$ud==du$5d9*0jjjjjddjdjdj9$9d5$ud11du$5j0@ ",
" @0j5$ud1=du$5j9$59900009000005$9j5$uu==du$5d9@ ",
" @9d1$uu==uu$5j0$$$$$$*$$$*$$*$$9d5$ud==du$1j9@ ",
" @0j1$ud*1dr$5dr9909009909009999rj1$ud==du$5j9@ ",
" @0d5$ud==du$5dddjjddjdjjddjjdjddd5$ud==dd$1d9@ ",
" @0j1$uu==du$=11515155151555551555=$ud1=du$5j0@ ",
" @9d5$ud=1du**$$$$$$$$$$$$$$$$$$$*$$ud==uu$5d0@ ",
" @9j1$ud==dduuuuuuuuuuuuuuuuuuuuuuuudu1=du$5j9@ ",
" @9j5$uu==uddduddddddddjdddjdddjuddddu==du$1d9@ ",
" @0d5$ud1*1=1===1=1=*=====1===1==1===1*=uu$5j0@ ",
" @0j1$ud5======1====1==============1===5du$5d0@ ",
" @9d5$udddddudddddduddddduddudddddddduddju$5d9@ ",
" @0j1$uuuuuuuuuruuuuuuuuuuuuuuuuuuuuuuuuur$1j9@ ",
" @9d5$$$$$$$$$$$$$$$$$$$$$$$$$$$$$$$$$$$$$$5j9@ ",
" @9j9151155151551551155115515515511515511559d9@ ",
" @9jjdjjdjdjdjdjjdjjdjdjjjddjjdjdjdjjdjjdjdjj0@ ",
" @50009909999999909900909900009090990099909005@ ",
" .@@@@@@@@@@@@X@@@@@@@@@@@@@@@@@@@@@@@@@@@@@@@. ",
"                                                "
};
