/* XPM */
static char *wall[] = {
/* columns rows colors chars-per-pixel */
"8 8 54 1",
"  c #646464",
". c #646464",
"X c #646464",
"o c #646464",
"O c #727272",
"+ c #727272",
"@ c #727272",
"# c #727272",
"$ c #727272",
"% c #727272",
"& c #727272",
"* c #727272",
"= c #727272",
"- c #727272",
"; c #727272",
": c #727272",
"> c #727272",
", c #727272",
"< c #727272",
"1 c #727272",
"2 c #727272",
"3 c #757575",
"4 c #757575",
"5 c #757575",
"6 c #767676",
"7 c #848484",
"8 c #848484",
"9 c #848484",
"0 c #848484",
"q c #868686",
"w c #868686",
"e c #868686",
"r c #868686",
"t c #868686",
"y c #868686",
"u c #868686",
"i c #868686",
"p c #8E8E8E",
"a c #8F8F8F",
"s c #8F8F8F",
"d c #8F8F8F",
"f c #8F8F8F",
"g c #8F8F8F",
"h c #8F8F8F",
"j c #8F8F8F",
"k c #8F8F8F",
"l c #8F8F8F",
"z c #8F8F8F",
"x c #8F8F8F",
"c c #8F8F8F",
"v c #8F8F8F",
"b c #8F8F8F",
"n c #8F8F8F",
"m c #8F8F8F",
/* pixels */
" 1&>O+*o",
"#vfjdgb;",
"$s7qu8c&",
"=zy53ef<",
"=xr46wn:",
"%p0ti9s-",
",xklamh:",
".=@;2$:X"
};
