/* XPM */
static char *wall[] = {
/* columns rows colors chars-per-pixel */
"8 8 9 1 ",
"  c #656565",
". c #727272",
"X c #737373",
"o c #767676",
"O c #858585",
"+ c #868686",
"@ c #878787",
"# c #8F8F8F",
"$ c #909090",
/* pixels */
" XXXXXX ",
"X#$$$$#X",
"X#OOOO$X",
"X#OooO#X",
"X$Ooo@$o",
"X$OO@O#X",
"X$#####X",
" XXXXXX "
};
