/* XPM */
static char *collect[] = {
/* columns rows colors chars-per-pixel */
"64 64 211 2 ",
"   c #3E3E3E",
".  c #4E493E",
"X  c #45433F",
"o  c #58503F",
"O  c #65593F",
"+  c #6E5F3F",
"@  c #424242",
"#  c #4D4A41",
"$  c #4C4C4C",
"%  c #494741",
"&  c #514C42",
"*  c #504F4C",
"=  c #5A5343",
"-  c #53514D",
";  c #5D574B",
":  c #535353",
">  c #595751",
",  c #5C5952",
"<  c #5C5C5C",
"1  c #645942",
"2  c #6C5E41",
"3  c #615B4E",
"4  c #645E51",
"5  c #5E6A53",
"6  c #5D6159",
"7  c #6E6040",
"8  c #6A614E",
"9  c #63694A",
"0  c #706141",
"q  c #7D6A41",
"w  c #76694C",
"e  c #6D6552",
"r  c #696358",
"t  c #756A52",
"y  c #766B54",
"u  c #7A7357",
"i  c #707452",
"p  c #826D42",
"a  c #867145",
"s  c #887347",
"d  c #8A764A",
"f  c #8D794B",
"g  c #83744F",
"h  c #947D4C",
"j  c #847451",
"k  c #8A7750",
"l  c #8D7B54",
"z  c #81755B",
"x  c #827956",
"c  c #927F53",
"v  c #847960",
"b  c #08A308",
"n  c #00B300",
"m  c #00BA00",
"M  c #0EB80E",
"N  c #1AA619",
"B  c #16BB16",
"V  c #20A620",
"C  c #25A924",
"Z  c #28A828",
"A  c #29BA28",
"S  c #33AC33",
"D  c #36B936",
"F  c #00CD00",
"G  c #0FCF0F",
"H  c #15D115",
"J  c #14C214",
"K  c #2CD32C",
"L  c #38C838",
"P  c #33D533",
"I  c #3ED43E",
"U  c #2AC62A",
"Y  c #46AF46",
"T  c #49BD48",
"R  c #4CB847",
"E  c #54AF54",
"W  c #59B557",
"Q  c #7D8E67",
"!  c #62B462",
"~  c #6BB66B",
"^  c #77B677",
"/  c #7EBB7B",
"(  c #78B36A",
")  c #4FCC4F",
"_  c #40D940",
"`  c #55D955",
"'  c #67C467",
"]  c #6AD768",
"[  c #7DE379",
"{  c #97804D",
"}  c #9A834E",
"|  c #8B835A",
" . c #9D8552",
".. c #94835B",
"X. c #988559",
"o. c #A08751",
"O. c #A38A53",
"+. c #A88E55",
"@. c #A38D5C",
"#. c #AC9256",
"$. c #AE9459",
"%. c #B19659",
"&. c #B69A5A",
"*. c #BA9E5C",
"=. c #BEA15E",
"-. c #8D8561",
";. c #978868",
":. c #979365",
">. c #929D74",
",. c #AB9562",
"<. c #AF9861",
"1. c #A89667",
"2. c #B29961",
"3. c #B69E65",
"4. c #AC9B77",
"5. c #B19E73",
"6. c #88B36F",
"7. c #97A67E",
"8. c #86B876",
"9. c #87AB70",
"0. c #B7A468",
"q. c #A5A577",
"w. c #B5A173",
"e. c #BBA778",
"r. c #B3A477",
"t. c #A9A46E",
"y. c #C0A35F",
"u. c #C3A561",
"i. c #C5A963",
"p. c #CCAC64",
"a. c #C6AB69",
"s. c #D0AF66",
"d. c #D2B167",
"f. c #D3B268",
"g. c #C0AC7C",
"h. c #CAB878",
"j. c #D1B674",
"k. c #88C37F",
"l. c #D1C37F",
"z. c #CEC17A",
"x. c #9CA285",
"c. c #87B685",
"v. c #97BA97",
"b. c #98B482",
"n. c #A4A988",
"m. c #BDAC84",
"M. c #A4B684",
"N. c #B7BE85",
"B. c #BDB093",
"V. c #ADB292",
"C. c #B9B5AB",
"Z. c #CAB482",
"A. c #C9B483",
"S. c #D2BC85",
"D. c #D2BE89",
"F. c #CEBC92",
"G. c #D0BD91",
"H. c #C7BEA9",
"J. c #8FC48F",
"K. c #99C199",
"L. c #9CC496",
"P. c #98CE8A",
"I. c #B7C288",
"U. c #A8C89A",
"Y. c #B6C799",
"T. c #B9D99A",
"R. c #A5D09E",
"E. c #88E088",
"W. c #8FE98F",
"Q. c #98E198",
"!. c #9CE18B",
"~. c #B0F19F",
"^. c #A7CCA2",
"/. c #B6D7A5",
"(. c #BADBA5",
"). c #B2CEAB",
"_. c #A1E0A1",
"`. c #A8EBA8",
"'. c #BFE2A8",
"]. c #BEF1BE",
"[. c #B8E9B8",
"{. c #C5C786",
"}. c #DAC48A",
"|. c #D7C896",
" X c #C4D499",
".X c #C0C396",
"XX c #E1CB9A",
"oX c #C9C7A4",
"OX c #D4C9A5",
"+X c #C9DDA4",
"@X c #CAC4B7",
"#X c #CFD5AF",
"$X c #E4D4B0",
"%X c #C4E4A8",
"&X c #C4E9AD",
"*X c #C5E6A7",
"=X c #C5EAB1",
"-X c #DAE0B7",
";X c #CCF3B6",
":X c #D2F4B4",
">X c #DAD5C5",
",X c #D7D7D6",
"<X c #E2DBCA",
"1X c #E2DDD0",
"2X c #EBE1CC",
"3X c #E9E4D8",
"4X c #F0E9D7",
"5X c #F3EBD8",
"6X c #EFEEE9",
"7X c #F6F7F6",
"8X c #CEF5CE",
/* pixels */
"$ $ $ $ $ $ $ $ $ $ $ $ $ $ $ $ $ $ $ $ $ $ $ $ $ $ $ $ $ $ $ $ $ $ $ $ $ $ $ $ $ $ $ $ $ $ $ $ $ $ $ $ $ $ $ $ $ $ $ $ $ $ $ $ ",
"$ $ $ $ * : $ $ $ $ $ : * $ $ * : $ $ $ $ $ : : $ $ $ $ $ $ $ : $ $ $ : : $ $ $ $ $ $ $ $ $ $ $ $ $ : $ : : $ $ $ $ $ : $ $ $ $ ",
"$ : : $ < : : : $ $ : : : : * : : : : : : : : : $ $ $ : : $ : : $ : : < : $ : : $ $ $ : $ : : $ : : : $ : : : < $ $ $ : : : $ $ ",
": : : : < : < < $ $ : : : : : : : : : < : : : : $ $ : : : : : : : : : < : < < : $ : : : : < < : < : : : < < < < $ $ $ : : : : : ",
"< < < < < < < < $ : < < : < < < < < < < < < < < $ $ : < < < < < < < < < < < < : $ : : : < < < < : < < < < < < < $ : < < < : < < ",
"< < < < < < < < $ : : < < < < < < < < < < < < < $ : < < < < < < < < < < < < < < $ : : < < < < < : < < < < < < < $ : : < < < < < ",
"< < < < < < < < $ $ : < < < < < < < < < < < < < $ : : < < < < < < < < < < < < < $ $ < < < < < < < < < < < < < < $ $ : < < < < < ",
"< < < < < < < < $ : : < < < < < < < < < < < < < $ $ : < < < < < < < < < < < < < $ : : < < < < < < < < < < < < < $ : : < < < < < ",
"$ $ $ $ $ $ $ $ $ $ $ $ $ $ $ $ $ $ $ $ $ $ $ $ $ $ $ $ $ $ $ $ : $ $ $ $ $ $ $ $ $ $ $ $ $ $ $ $ $ $ $ $ $ $ $ $ $ $ $ $ $ $ $ ",
"$ $ $ : $ $ : $ : $ $ : : $ $ $ $ $ $ $ $ $ : : $ $ $ : : $ * : $ $ $ : $ : $ : $ $ $ $ $ $ : $ $ $ $ : : $ $ : $ $ $ $ : $ $ $ ",
"$ $ : : $ : : : : : : : : : : : $ $ : : $ : : : $ $ : : : : : : $ $ : : $ : : : : : : $ : : : < $ $ : : : $ : : : : : : : : : : ",
"$ $ $ : : : < < : : : : < : : : $ $ $ : : : : : : < < < : : : < $ : : : : : : : < : : : < : < < $ $ : : : : < < : < < : < : : : ",
"$ $ : < < < < < < < < < < < < < $ : : < < < < < < < < : < < < < $ $ : < : < < < < < < < < < < < $ : : : < < < < < < < < < < < : ",
"@ : < < < < < < < < < < < < < < $ $ : < < < < < < < < < < < 6 5 $ : : < < < < < < < < < < < < < $ $ : < < < < < < < < < < < < < ",
"$ : : < < < < < < < < < < < < < $ : : < < < < < < < < < < < 6 5 $ : : < < < < < < < < < < < < < $ : : < < < < < < < < < < < < < ",
"$ $ < < < < < < < < < < < < < < $ < < < < < < < < < < < < < < 6 $ $ < < < < < < < < < < < < < < $ $ < < < < < < < < < < < < < < ",
"$ $ $ $ $ $ $ $ $ $ $ $ $ $ $ $ $ $ $ $ t X.@.+.O.O.o.o.} O.O.+.3 3 3 3 > * $ $ $ $ $ $ $ $ $ $ $ $ $ $ $ $ $ $ $ $ $ $ $ $ $ $ ",
": $ : $ $ $ $ : $ $ $ $ $ $ : : * $ $ : 2.0.3.<.5.t.t.r.f h f  .w u g g j e 9 9 4 4 3 > $ $ $ : $ : : $ : : $ : $ $ $ : : $ $ $ ",
": : : $ : : : : $ $ : : $ : : : : : * : s.p.a.0.Y.Y.I.{.:.x g a u x | :.{ -.:.-.d g w e 3 > > : : : : : : : : : $ $ $ : : : : : ",
": : : : < < < : $ : : : : : : : : : : : p.s.j.{.;X=X=X;XY.9.Q 9 9 i Q M.i q.e.I.h h c c c z r : : : : : : : < < $ $ : : : : : : ",
"< < < < < < < : $ : : < < : : < < < < < u q.N.U.K.).oX{.*X(.T.:Xd.f.d.p.M.(.'./.Y.Y.M.X.@.l u < : < < < < < < < $ $ : < < : : < ",
"< < < < < < < : $ : : < < < < < < < < < -.q.N.U.U./.T.}.z.I.{.}.XXXXXX|.|.*X%X'.U.). Xh.u.@.z < < < < < < < < < $ : < < < < < < ",
"< < < < < < < < $ $ < < < < < < 6 < < < 1.0.N.T.T.'. Xh.|.|.|.}.-X-X-X2X X*X=X%X^.'.#X}.f.,.z < < < < < < < < < $ : : < < < < < ",
"< < < < < < < < $ : : < < < < < < < < 6 =.0.h. X*X*X{.j.5X4X5X5X8X`.;X7X] `.:X%X%X&X+Xz.f.,.v < < < < < < < < < $ $ < < < < < < ",
": $ $ $ $ $ $ $ $ $ $ $ $ $ $ $ * $ $ 3 y.y.u.s.y.y.S.5XW.K F F F _ [ ]._ ~.$Xj.d.d.d.d.p.X.r $ $ $ $ $ $ $ $ $ $ $ $ $ $ $ $ $ ",
": $ $ $ : : : $ : : : $ $ : $ : $ $ 4 l y.p.p.y.u.y.S.5XP K P ` F H K _ K !.#XS.p.p.p.s.3.u > : $ $ $ : : $ $ $ : : : $ $ : : $ ",
"$ $ $ $ : : : < : : : : : : : < $ > t @.y.u.y.y.p.y.S.3XF P ] `.G K K G H [  X}.p.p.p.p.%.y : : $ $ $ : : $ : $ : : < : : : : : ",
"$ : : : : : : < : : : : < : : < $ 4 x %.u.y.y.y.=.y.Z.1XF ` `.7XK E.E.P F ` k.F.p.p.p.p.2.y : : $ $ * > : : : < : : < : : : : : ",
"$ : : < < < < < : < < < < < < < $ 8 h %.<.*.y.y.=.=.A.<Xn ) _.7XL [.[.I 6X4X-Xj.i.i.i.i.a.1.v < $ : : < < < 6 5 < < < < < < < < ",
"$ : < < < < < < < < < < < < < < * 8 c %.&.*.*.3.*.*.h.<Xm L ] _.I Q.W.U 4X|.h.a.u.u.y.u.p.3.-.r $ $ : < < < < 6 < < < < < < < < ",
"$ : : < < < < < < < < < < < < < * t c %.*.&.&.*.%.&.g.<Xn B L ) U ' ' J 1XF.a.u.u.u.y.=.i.3.@.u $ : < < < < < < < < < < < < < < ",
"$ $ : < < < < < < < < < < < < < ; f O.%.&.&.&.&.*.&.g.>Xn n n m M B B n 3XOXA.u.=.u.=.=.=.=.*.,.$ : : < < < < < < < < < < < < < ",
"$ $ $ $ $ $ $ $ $ $ $ $ $ $ $ $ 3 k +.+.&.%.%.%.%.%.e.oX>XR.' M L A B n A J.#XoX%.*.*.=.=.y.=.*.1 - $ $ $ $ $ $ $ $ $ $ $ $ $ $ ",
"$ : $ $ $ : $ $ $ $ $ $ $ $ $ $ ; k O.+.#.%.%.%.#.#.2.5.A.Y.k.A ^.' T D M ' L.A.*.*.=.=.y.*.=.*.d 4 : * : : $ $ $ $ : : $ $ $ : ",
"$ : : $ : : : : $ $ $ * $ : * $ 2 k o.+.+.+.#.#.+.2.5.5.m.H.L.S ,XJ.' ' n T 6.e.&.*.*.*.y.*.*.*.+.y , : : : : : $ $ : : : : * : ",
": : : : : : : < $ $ : : : : * @ s h  .O.O.O.O.O.+.5.B.@XH.@Xv.S ,XJ./ ^.n T 6.e.&.&.*.*.*.*.*.*.$.l e : : : : < $ : : : : : : : ",
"< < < < < < < < $ : : < < * $ # h  .} h O.O.O.O.O.5.7.S Z ^ ^ Z K.! W ~ b Y 6.e.&.&.&.#.#.&.&.*.%.%.X.r : < < < $ : < < : : : < ",
"< < < < < < < < $ : : < : $ & 1 h h h h o.O.O.O.o.4.7.! b Z Z b S C V C b ! b.w.#.#.#.#.#.#.%.%.$.$.X.4 : < < < $ : : < < : < < ",
"< < < < < < < < $ : < < : $ & 0 f f h h } }  .o. .1.q.c.S V N C C N V S Y 8.n.1.+.O.O.#.+.#.#.#.#.#.c ; : : < < $ * : < < < < < ",
"< < < < < < < < $ : : < : % & 7 a a f h h h h h c X.4.C.v.! E ~ ~ W ! v.K.V.r.@.O.O.O.O.o.+.#.#.+.+.l ; : < < < $ * < < < < < < ",
": $ $ $ $ $ $ $ $ $ $ % $ @ # O p p p q d s a s h h f f ;.9./ v.v.c.( ;.} } } } o.o.O.o.o.O.O.O.O.X.u & @ @ $ $ $ $ $ $ $ $ $ $ ",
": $ $ : $ $ $ $ : : $ * $ % % = 7 q p p a a p a a a p a | :.x.x.n.x.>.X.} } } h } o.o.} } o.o.o.o.k 2 @ $ $ $ : $ $ * $ : : : $ ",
"$ $ $ : $ : : $ : : : : $ @ % * o O 0 + 0 7 0 0 0 0 0 q d ..;.;.;.;.;.c h } h h { { h } } } } h h w = @ $ : : : $ : : : : : : : ",
"$ : : : : : : : < < : : : $ @ @   X . . . . # . % % = 1 q q p p a p a d h h h h h h h h h } h f f 1 @ @ $ : < : : : : < : : : : ",
"$ : < < < < < < < < < < < : * $ @                     @   @ @ @ @ @ # O O + 2 7 + + 7 0 2 0 1 .   @ @ @ < < < < < < < < < < < < ",
"$ : : < < < < < < < < < < < < < @ @   @ @     X @ @ @ @ @ @ @ @ @ @ @ # . . & & . . & & . & & @ @ @ @ $ < < < < < < < < < < < < ",
"$ $ : < < < < < < < < < < < < < @ @ @ $ $ $ $ @ @ $ $ $ @ @ @ @ @ @   @ X @     X   @       @ @ @ @ $ * < < < < < < < < < < < < ",
"$ : < < < < < < < < < < < < < < $ $ $ : * : : : : : : : $ @ @ $ @ @ @ @       @ @         @ @ @ @ $ * < < < < < < < < < < < < < ",
"$ $ $ $ $ $ $ $ $ $ $ $ $ $ $ $ $ $ $ $ $ $ $ $ $ $ $ $ $ $ $ @ % @ @ @   @ @ @ @ @ @ @ @ @ @ @ $ $ $ $ $ $ $ $ $ $ $ $ $ $ $ $ ",
"$ $ $ : : : $ $ $ $ $ $ : $ $ : : : $ : $ $ $ : $ $ $ : $ $ $ $ * $ $ $ $ $ $ : @ @ @ $ @ $ $ $ * : : $ $ : $ $ $ $ $ : $ $ $ $ ",
": : $ : : : : : $ $ $ $ : : $ : : : : : $ $ : : $ $ $ : $ $ : : : : : $ : : : : $ $ $ $ : : : : : : : : : : : : $ $ $ < : : $ $ ",
": : : : : : < < @ : : : : : : : < < : : : : : < $ $ $ : : : : : : : : : : : : < $ : : : : : : : : : : : : : < < $ : : < : : : : ",
"< < < < < < < < $ : < < < : : < < < < < < < < < $ $ : < < < < < : < < < < < < < $ : : < < < < : < < < < < < < < $ : < < : < < < ",
"< < < < < < < < $ : : < < < < < < < < < < < < < $ $ : < < < < < < < < < < < < < $ $ : < < < < < < < < < < < < < $ : : < < < < < ",
"< < < < < < < < $ $ : < < < < < < < < < < < < < $ $ : < < < < < < < < < < < < < $ : < < < < < < < < < < < < < < $ $ : < < < < < ",
"< < < < < < < < $ : < < < < < < < < < < < < < < $ : < < < < < < < < < < < < < < $ : : < < < < < < < < < < < < < $ : : < < < < < ",
"$ $ $ $ $ $ $ $ $ $ $ $ $ $ $ $ $ $ $ $ $ $ $ $ $ $ $ $ $ $ $ $ : $ $ $ $ $ $ $ $ $ $ $ $ $ $ $ $ $ $ $ $ $ $ $ $ $ $ $ $ $ $ $ ",
"$ $ $ : $ $ : : $ $ : $ $ $ $ : $ $ $ $ $ : : $ $ : : : : $ $ $ $ $ $ $ $ $ $ : $ : : $ $ : : $ $ $ $ : $ $ : : $ $ $ $ : $ $ $ ",
"$ $ $ : $ : : : $ : : : : : : : $ $ $ : : : : $ : : : : : : : < $ $ $ * $ : : : : : : < : : : $ $ $ : : $ : : : $ : : $ : : : $ ",
"$ $ $ : : < < < : < < : < : : : $ $ * : : < < : : : : : < : : < $ : : : : : : : : : < < : : : : $ $ $ : : : : < : < < : < < : : ",
"$ $ : < < < < < < < < < < < < < $ $ : < < < < < < < < < < < < < $ : < < < < < < < < < < < < < < $ : : < < < < < < < < < < < < < ",
"$ $ < < < < < < < < < < < < < < $ * : < < < < < < < < < < < < < $ : : < < < < < < < < < < < < < $ : : < < < < < < < < < < < < < ",
"$ : < < < < < < < < < < < < < < $ * < < < < < < < < < < < < < < $ $ : < < < < < < < < < < < < < $ : < < < < < < < < < < < < < < ",
"$ : < < < < < < < < < < < < < < $ * < < < < < < < < < < < < < < $ : < < < < < < < < < < < < < < $ : < < < < < < < < < < < < < < "
};
