/* XPM */
static char *exit3[] = {
/* columns rows colors chars-per-pixel */
"64 64 213 2 ",
"   c black",
".  c #0B0806",
"X  c #0A0A0A",
"o  c #170B02",
"O  c #170C03",
"+  c #160F0D",
"@  c #131313",
"#  c #191919",
"$  c #1A1A1A",
"%  c #1B1B1B",
"&  c #1D1D1D",
"*  c #1E1E1E",
"=  c #1F1F1F",
"-  c #2D1603",
";  c #2D1604",
":  c #2E1705",
">  c #2E1805",
",  c #211713",
"<  c #211714",
"1  c #2C1F19",
"2  c #2C1F1A",
"3  c #27201E",
"4  c #232323",
"5  c #242424",
"6  c #252525",
"7  c gray15",
"8  c #292220",
"9  c #2A2320",
"0  c #292929",
"q  c #2B2B2B",
"w  c #2D2928",
"e  c #2C2C2C",
"r  c #2D2D2D",
"t  c #2E2E2E",
"y  c #352722",
"u  c #382721",
"i  c #362823",
"p  c #302926",
"a  c #362824",
"s  c #392B26",
"d  c #312D2C",
"f  c #332F2E",
"g  c #323232",
"h  c #333333",
"j  c #343434",
"k  c #353535",
"l  c #363636",
"z  c #373737",
"x  c #393939",
"c  c #3A3A3A",
"v  c #3B3B3B",
"b  c #3E3B39",
"n  c #3C3C3C",
"m  c #3D3D3D",
"M  c #3E3E3E",
"N  c #3F3F3F",
"B  c #442105",
"V  c #442205",
"C  c #442206",
"Z  c #442207",
"A  c #442307",
"S  c #452307",
"D  c #452308",
"F  c #452408",
"G  c #452409",
"H  c #46250A",
"J  c #48260C",
"K  c #4B290F",
"L  c #5B2D07",
"P  c #5C2F0A",
"I  c #442611",
"U  c #442711",
"Y  c #442712",
"T  c #432A1C",
"R  c #66360F",
"E  c #72390B",
"W  c #723B0D",
"Q  c #663610",
"!  c #422D25",
"~  c #422D26",
"^  c #422E26",
"/  c #432E26",
"(  c #422E27",
")  c #432E27",
"_  c #432F27",
"`  c #432F28",
"'  c #4E362E",
"]  c #4E372E",
"[  c #5A3F35",
"{  c #634337",
"}  c #634338",
"|  c #634438",
" . c #64453A",
".. c #64463B",
"X. c #65463B",
"o. c #65473C",
"O. c #404040",
"+. c #424242",
"@. c #444444",
"#. c #464646",
"$. c #474747",
"%. c #484848",
"&. c #494949",
"*. c #4B4B4B",
"=. c #4C4C4C",
"-. c #4D4D4D",
";. c #4E4E4E",
":. c #4F4F4F",
">. c #505050",
",. c #515151",
"<. c #525252",
"1. c #535353",
"2. c #545454",
"3. c #555555",
"4. c #565656",
"5. c #575757",
"6. c #585858",
"7. c #595959",
"8. c #5A5A5A",
"9. c #5B5B5B",
"0. c #5C5C5C",
"q. c #5D5D5D",
"w. c #5E5E5E",
"e. c #606060",
"r. c #626262",
"t. c #656565",
"y. c #686868",
"u. c #696969",
"i. c #707070",
"p. c #717171",
"a. c #727272",
"s. c #747474",
"d. c #757575",
"f. c #767676",
"g. c #777777",
"h. c #787878",
"j. c #797979",
"k. c #7A7A7A",
"l. c #7B7B7B",
"z. c #7C7C7C",
"x. c gray49",
"c. c #7F7F7F",
"v. c #88430A",
"b. c #88430B",
"n. c #88430C",
"m. c #88440D",
"M. c #89450D",
"N. c #88450E",
"B. c #89450E",
"V. c #89450F",
"C. c #89460E",
"Z. c #89460F",
"A. c #894610",
"S. c #894710",
"D. c #8A4711",
"F. c #8D4A13",
"G. c #914D18",
"H. c #9F5010",
"J. c #95511D",
"K. c #A05111",
"L. c #A05213",
"P. c #B75D14",
"I. c #B75E15",
"U. c #CB630C",
"Y. c #CB630D",
"T. c #CB630E",
"R. c #CB630F",
"E. c #CB640E",
"W. c #CB640F",
"Q. c #CB6410",
"!. c #CB6511",
"~. c #CC6410",
"^. c #CC6411",
"/. c #CC6511",
"(. c #CC6412",
"). c #CC6512",
"_. c #CC6513",
"`. c #CD6613",
"'. c #CC6713",
"]. c #CC6614",
"[. c #CD6614",
"{. c #CD6714",
"}. c #CD6715",
"|. c #CE6714",
" X c #CD6716",
".X c #CD6815",
"XX c #CE6815",
"oX c #CD6816",
"OX c #CD6916",
"+X c #CD6817",
"@X c #CD6917",
"#X c #CE6916",
"$X c #CE6918",
"%X c #CE6A19",
"&X c #CF6B19",
"*X c #D06A18",
"=X c #D06A19",
"-X c #D26B19",
";X c #D36C1A",
":X c #D36C1B",
">X c #D36D1B",
",X c #D36D1C",
"<X c #D46F1D",
"1X c #D66F1E",
"2X c #D97323",
"3X c #DA7424",
"4X c #DA7525",
"5X c #E07A2C",
"6X c #808080",
"7X c #828282",
"8X c #838383",
"9X c #848484",
"0X c #868686",
/* pixels */
"*.*.*.*.;.*.*.*.*.*.*.*.*.*.*.*.;.*.*.*.*.*.*.*.*.*.*.*.;.*.*.*.*.*.;.*.*.*.*.*.*.*.*.*.*.*.*.*.*.*.*.*.;.*.*.*.*.*.*.*.*.*.*.*.",
";.;.;.;.;.;.;.;.*.;.;.;.;.;.;.;.;.;.;.;.;.;.;.;.*.;.;.;.;.;.;.;.;.;.;.;.;.;.;.;.*.;.;.;.;.;.;.;.;.;.;.;.;.;.;.;.*.;.;.;.;.;.;.;.",
",.,.,.,.,.,.,.,.*.;.;.,.,.,.,.;.,.,.,.,.,.,.,.,.*.;.;.,.,.,.,.,.;.,.,.,.,.,.,.,.*.;.,.,.,.,.,.,.,.,.,.,.3.,.,.,.*.;.;.,.,.,.,.;.",
"3.3.3.3.3.3.3.3.*.;.,.3.;.3.,.,.3.3.3.3.3.3.3.3.*.;.,.3.3.3.3.3.,.,.3.3.3.3.3.3.*.;.,.3.,.3.,.,.3.3.3.3.3.3.3.3.*.;.;.,.3.3.,.,.",
"3.6.0.0.6.0.0.0.*.;.3.6.3.6.6.0.6.6.0.6.6.0.6.0.*.;.,.3.6.3.6.6.6.0.6.3.6.0.6.0.*.;.,.3.0.6.0.6.3.3.6.0.6.0.6.0.*.;.3.0.3.6.6.0.",
"0.6.0.0.0.0.0.0.*.;.3.0.6.6.0.0.0.0.0.0.0.0.0.0.*.;.3.6.0.6.6.0.0.0.0.6.0.0.0.0.;.;.3.6.6.0.6.0.6.0.0.0.0.0.0.0.*.;.3.0.6.0.0.6.",
"0.0.e.0.0.0.e.0.;.;.3.0.0.0.0.0.e.0.0.e.0.e.0.0.*.,.3.0.0.0.0.0.0.0.0.0.0.0.0.0.,.,.6.0.0.0.0.6.6.0.e.e.0.e.0.e.*.;.3.0.0.0.0.0.",
"0.0.0.0.0.0.0.0.;.3.6.0.0.0.0.0.0.0.0.0.0.0.0.0.*.,.3.0.e.0.0.0.0.e.0.0.e.0.e.0.;.3.6.0.0.0.0.0.0.0.0.0.0.0.0.0.;.,.6.e.0.0.0.0.",
"*.*.*.*.*.*.*.*.*.*.;.*.*.*.*.*.;.;.*.*.*.*.*.*.*.*.;.;.*.*.*.*.,.*.*.*.*.*.*.*.*.*.*.*.*.*.*.*.;.;.*.*.*.*.*.;.*.*.;.;.*.*.*.*.",
"*.;.;.;.;.;.;.,.;.;.;.;.;.;.;.;.;.;.;.;.;.;.;.;.g g g g g g g g z g g g g g g g g v O.;.;.;.;.;.*.;.;.;.;.;.;.;.;.;.;.;.;.;.;.;.",
"*.;.,.,.;.,.,.,.,.,.,.,.,.,.,.,.*.;.,.,.,.,.,.;.$ $ $ $ $ $ $ $ $ $ $ $ $ $ $ $ $ q n ,.,.,.,.3.*.;.,.,.,.,.,.,.,.,.,.,.,.,.,.,.",
"*.;.,.3.;.3.3.3.3.3.3.3.3.3.3.3.*.;.,.3.3.3.,.,.                                  $ v 3.3.3.6.6.*.;.,.3.3.3.3.3.3.3.3.3.3.3.3.3.",
"*.;.,.3.0.6.3.6.6.0.6.0.6.6.6.0.;.,.,.3.,.v &   a.a.a.a.d.h.g.g.h.z.z.z.0X0X0X6X0X6.r   0.6.6.0.*.;.,.3.6.6.6.6.0.6.0.6.6.0.6.0.",
";.;.3.6.0.6.6.0.0.0.0.0.0.0.0.6.;.;.3.6.v z r 6 a.a.a.a.h.d.g.g.h.h.z.6Xz.6X6X0X0Xt.*.r n $.,.0.*.;.3.6.6.6.0.6.0.0.0.0.6.0.0.0.",
";.,.3.6.0.0.0.0.0.e.0.0.e.0.0.0.*.;.3.0.& q v ;.a.u.u.a.d.d.d.g.h.z.z.z.z.6X6X0X0Xh.u.6.& g *.0.*.,.3.0.0.0.0.0.0.0.0.0.0.0.0.0.",
";.,.6.0.e.0.0.0.0.0.e.0.0.0.0.0.;.,.6.0.  4 *.a.a.a.a.a.a.a.d.d.h.h.h.z.6Xz.6X0X6X0X0X0X  6 O.0.*.3.6.0.e.0.0.0.e.e.e.0.0.e.0.0.",
"*.*.*.*.*.*.*.*.*.*.;.;.*.*.;.*.*.g $   a.a.a.u.u.a.a.i.i.a.a.a.a.d.g.h.z.z.z.0X0X6Xc.8X0X6.r   *.*.*.*.;.*.*.*.*.*.*.*.*.*.*.*.",
";.;.;.;.;.;.;.;.*.;.;.;.;.;.;.;.;.g $   a.a.a.d.a.a.a.i.i.i.a.a.d.d.h.h.l.z.z.6Xz.6X6X8X6X6.q   ;.;.;.;.;.;.;.;.*.;.;.;.;.;.;.;.",
",.,.,.,.,.,.,.,.*.;.;.,.,.,.,.;.,.z $   a.a.a.a.a.a.a.a.i.a.a.u.d.d.d.h.h.h.h.z.6X6X6X0X0X6.q   ,.,.,.,.,.,.,.,.*.;.,.,.,.,.,.,.",
"3.3.3.3.3.3.3.3.*.;.,.,.3.3.,.,.3.z $   a.d.u.a.u.a.a.u.i.u.a.a.a.a.d.d.h.h.h.h.8Xc.z.0X6X6.r   3.3.3.3.3.3.3.3.*.;.,.3.;.3.,.,.",
"0.6.6.3.6.6.0.6.*.;.3.0.3.6.0.6.6.v &   a.a.u.a.i.i.i.i.i.i.i.i.a.a.a.a.d.h.d.g.h.z.z.6X8X3.r   3.3.6.6.0.6.0.0.;.;.3.0.3.6.0.6.",
"0.0.0.6.0.0.0.0.;.;.,.6.0.0.6.6.0.n &   a.a.a.a.i.i.i.i.i.i.i.i.i.a.a.a.s.d.h.g.h.h.z.z.c.6.q   0.6.0.0.0.0.0.0.*.,.3.6.6.6.0.0.",
"0.0.0.0.0.e.0.e.;.,.3.0.0.0.0.0.e.n &   a.a.a.u.i.i.i.i.i.i.i.i.a.d.a.a.a.d.d.d.h.h.h.z.z.3.q   0.e.0.e.0.0.0.0.*.,.6.0.0.0.0.0.",
"0.0.e.0.0.0.0.0.;.,.6.0.0.0.0.0.t.O.&   a.a.a.a.i.i.i.i.i.i.i.i.i.u.i.a.a.a.a.d.h.h.h.l.z.,.q   0.0.0.0.e.0.e.0.*.,.6.0.0.0.0.e.",
",.;.*.*.*.*.*.*.*.*.;.;.*.*.*.*.;.g $           a.u.a.s.u.a.a.a.i.a.a.a.a.a.a.a.s.-.7           *.*.*.*.*.*.*.;.*.*.;.*.*.*.*.*.",
";.;.;.;.;.,.;.;.;.;.;.;.;.;.;.;.*.v q $   . + , *.*.*.;.*.*.*.;.$.*.*.*.*.*.*.;.-.] q #   X @ $ *.;.;.;.;.;.;.;.;.;.;.;.;.;.;.;.",
"*.;.;.,.,.,.,.,.,.,.,.,.,.,.,.,.;.O.n z   + 1 ~ 6 6 4 6 6 6 6 6 4 6 6 4 6 6 6 6 6 p s _   @ 6 z *.;.,.,.;.,.,.,.,.,.,.,.,.,.,.,.",
"*.;.,.;.3.3.3.3.3.3.3.;.3.3.3.3.*.;.,.;.  , ~ |                                   , _ |   $ z 3.;.,.,.3.,.,.3.3.3.3.3.3.3.3.3.3.",
"*.;.3.6.6.6.6.6.3.6.0.0.6.0.0.0.;.,.3.6.6.n &   } { } } { { { | o.| | | o.| o.| { ~ ,   0.0.0.0.*.;.,.6.6.6.6.6.6.0.6.6.0.6.0.6.",
";.;.3.6.0.6.6.6.0.6.0.0.0.0.0.0.;.;.3.6.6.*.z 6 ~ ~ ~ ~ ~ ~ ~ ~ _ ` ` _ ` ` ` ` ~ s 3 & 0.0.0.0.*.;.3.6.0.6.6.0.0.0.0.0.0.0.0.0.",
";.,.3.0.6.0.0.0.0.0.e.0.0.0.e.0.*.;.3.0.0.3.*.O., , , , , , , , < < , , < , < < < 7 g n e.0.0.0.;.,.3.0.e.0.0.0.0.0.0.0.0.e.0.e.",
"*.,.3.0.0.t.t.0.0.0.0.0.0.0.0.0.*.,.6.0.0.0.0.0.                                  < n 0.e.0.0.0.*.,.6.0.0.0.0.0.0.e.e.0.0.0.0.0.",
"*.*.*.*.*.*.*.*.*.*.*.*.*.*.*.*.*.*.*.*.*.g $   }.^.=X,X^.!.T.^.U.U.R.^.}.$X$X$X].N.D   *.*.*.*.*.*.*.*.;.*.*.*.*.*.*.*.*.*.*.*.",
";.;.;.:.;.;.:.:.*.;.;.;.;.:.;.;.;.;.;.;.g w 3 , N.L.P.=X^.!.!.!.U.U.^.^.^.}.$X$Xm.Q I , g v $.;.;.;.;.;.;.;.;.;.*.;.;.;.;.;.;.;.",
",.,.,.,.,.,.,.,.*.;.:.,.,.,.,.,.,.,.,.,.$ 3 i ~ B W H.#X#X!.!.].U.U.^.^.}.^.}.$XD I T ~ $ q n ,.,.,.,.,.,.,.,.,.*.;.;.,.,.:.;.,.",
"3.3.3.3.3.3.3.3.*.;.,.3.,.1.3.3.3.3.3.3.  , ~ }   B N.#X!.!.].}.U.^.^.}.^.^.^.}.  < ~ }   $ v 1.,.3.3.3.3.3.3.3.*.;.,.3.;.,.,.3.",
"6.6.6.3.6.0.6.0.*.;.,.3.6.6.6.9.3.6.0.6.  < ~ o.  B D.#X&X$X#X!.U.T.W.}.$X$X}.}.  < ` |   * v 9.3.6.0.6.0.6.0.6.;.;.3.0.6.0.6.0.",
"9.0.0.0.0.0.0.0.;.:.1.6.9.6.6.0.6.0.0.0.  < ~ | < Y Q N.$X#X}.!.T.T.!.^.$XI.H.N.< y ' o.  * v q.6.0.0.0.0.0.0.0.*.;.1.6.9.6.0.0.",
"0.0.0.0.0.e.0.0.;.,.3.9.0.0.0.0.0.0.0.0.  < ` o.~ T I D &X$X#X^.W.U.^.^.$XL.W D ` ' [ o.  4 ] e.0.e.0.0.0.0.0.0.;.;.3.0.0.0.0.0.",
"0.e.0.0.0.e.0.0.*.,.6.0.0.0.0.0.e.0.0.0.  < ` o.| ` <   $X#X^.^.!.^.^.!.$XD.G    .o.o.o.  5 O.0.0.0.0.e.0.e.0.e.,.,.6.0.0.0.0.0.",
";.*.*.*.*.*.*.*.*.*.*.*.*.*.*.*.,.;.*.*.  , ~ | | ` <   5X5X5X5X5X5X5X5X5XJ.K   | | | o.  $ g *.*.*.*.*.*.*.*.*.*.*.*.*.*.*.;.;.",
"*.;.;.;.;.;.;.;.;.;.;.;.;.;.;.;.*.;.;.;.$ 8 a ~ ~ 1 +   4X4X3X3X2X2X2X2X4XG.J   _ _ _ ` $ r n ;.*.;.;.;.;.;.;.;.;.;.;.;.;.;.;.;.",
"*.;.:.,.:.,.,.,.,.,.,.,.,.,.,.,.;.;.,.,.z d 8 < < + .   ,X,X,X,X:X:X:X:X<XF.G   , , , , z O.*.,.*.;.;.,.;.,.,.,.,.,.,.,.,.,.,.,.",
"*.;.,.3.,.,.3.3.3.3.3.3.3.3.3.3.;.;.;.,.3.v &           #X^.^.#X^.^.^.}.#XN.G           3.3.3.3.*.;.,.3.,.3.3.3.3.3.3.3.3.3.3.3.",
"*.;.3.9.6.6.3.9.6.0.6.0.6.0.6.0.*.;.3.0.6.6.6.9.9.n &   T.T.^.^.  B v.W.W.v.B   6.9.9.9.6.9.6.9.*.;.,.3.6.0.6.0.0.6.9.0.6.0.6.0.",
";.:.1.6.6.0.0.6.0.0.0.6.0.0.0.0.;.,.,.6.6.0.9.0.0.n &   !.^.^.^.  B v.^.W.v.B   6.0.0.0.0.0.0.9.*.;.3.6.0.0.0.6.0.0.0.0.0.0.0.0.",
";.,.3.9.0.0.0.0.0.0.0.0.0.e.0.0.;.,.3.0.0.0.0.0.0.n &   ^.^.^.^.  B N.^.!.v.B   0.0.e.0.0.0.0.0.;.,.3.6.0.0.0.0.0.0.0.0.0.e.0.0.",
"*.,.6.e.0.0.0.0.e.0.0.0.0.0.0.0.*.,.6.0.0.e.0.0.0.n 4   ^.^.^.^.  S N.U.^.N.S   0.0.0.e.0.e.0.0.;.3.6.0.0.0.0.e.0.0.e.0.0.0.0.0.",
"*.*.*.*.*.*.*.*.*.*.*.*.*.*.*.*.*.*.*.*.*.*.*.*.*.g $   ^.^.}.^.  D N.^.#XN.G   *.*.;.;.*.*.*.*.*.*.*.*.*.*.*.*.*.*.;.*.*.*.*.*.",
";.;.;.;.;.,.;.;.*.;.;.;.;.;.;.;.;.;.;.;.;.;.:.:.*.g $   ;X}.^.^.  B v.^.#XD.G   *.;.;.;.;.;.;.,.;.;.;.;.,.;.;.;.*.;.;.;.;.;.;.;.",
",.,.,.,.,.,.,.,.*.;.,.,.:.,.,.,.,.,.:.,.,.,.,.,.*.g $   ,X}.^.^.  B v.^.$XD.G   *.;.;.,.,.,.,.,.,.,.,.,.,.,.,.,.*.;.;.;.,.,.;.;.",
"3.3.3.3.3.3.3.3.*.;.,.3.,.,.3.3.3.,.,.3.3.3.3.3.*.g $   $X}.}.^.  B m.!.$XD.B   *.;.:.,.3.3.3.3.3.3.3.3.3.3.3.3.*.;.;.,.3.3.3.,.",
"3.6.0.9.6.0.6.9.*.;.3.6.6.6.6.6.9.6.9.9.9.9.6.9.*.g $   ^.^.}.$X  G D.$X^.v.B   *.;.3.6.6.6.6.3.3.6.0.9.6.0.6.0.;.:.3.6.3.6.6.0.",
"6.6.0.0.0.9.0.0.;.;.3.0.6.6.0.0.9.0.0.0.9.0.0.9.*.g $   v.N.N.D.  > L D.n.L :   ;.;.3.0.6.6.6.0.0.6.0.0.0.0.0.0.*.;.3.0.6.6.0.0.",
"0.0.0.0.0.0.0.e.;.,.3.0.0.0.0.0.0.0.e.0.0.0.0.e.*.g $   B D D G   O > Z B : o   ;.,.3.0.0.0.6.0.0.0.0.0.0.0.e.e.*.;.6.0.0.0.0.0.",
"0.0.e.0.0.0.0.0.*.,.6.0.0.0.0.0.0.0.0.0.0.e.0.0.*.g $                           ;.,.6.0.0.0.0.0.0.0.e.0.0.0.0.0.*.,.6.0.0.0.e.0.",
";.;.*.*.*.*.*.*.*.*.*.*.*.*.*.*.*.*.*.:.*.*.*.*.*.*.*.*.*.*.*.*.*.*.*.*.*.*.*.*.*.*.*.;.*.*.*.*.*.*.*.*.*.*.*.*.*.*.;.*.*.*.*.*.",
";.;.;.;.;.;.;.:.;.;.;.;.;.;.;.;.*.;.;.:.;.;.;.;.;.;.;.;.:.;.;.:.*.;.;.;.;.;.;.;.;.;.;.;.;.;.;.;.*.;.;.;.;.;.;.;.;.;.;.;.;.;.;.;.",
"*.;.:.:.,.,.,.1.,.,.,.,.,.,.,.,.*.;.:.:.,.:.,.,.,.,.,.,.,.,.,.,.*.;.:.,.:.:.:.,.,.,.,.3.,.,.,.,.*.;.:.,.,.,.,.,.,.,.,.,.,.,.,.,.",
"*.;.;.,.3.3.3.3.3.3.3.3.3.3.3.3.*.;.:.,.3.,.,.3.3.3.3.3.3.3.3.3.*.;.,.3.:.,.,.3.3.3.3.3.3.3.3.3.*.;.;.,.3.,.3.3.3.3.3.3.3.3.3.3.",
"*.;.,.3.9.6.3.6.6.0.6.9.0.9.6.0.*.;.1.9.6.9.9.6.6.6.9.9.9.6.9.9.*.:.1.9.6.9.9.6.6.0.6.6.6.0.6.0.;.,.,.6.3.6.0.6.6.6.0.6.0.6.0.6.",
";.;.,.6.6.9.0.0.0.0.0.0.6.0.0.0.*.,.3.6.9.0.9.9.9.9.0.0.0.0.0.0.;.:.1.9.9.9.9.9.0.6.0.0.0.0.0.0.*.;.3.0.6.0.0.6.0.0.0.0.6.0.0.0.",
";.,.3.6.0.0.0.e.0.e.e.0.0.0.0.0.*.,.3.9.9.0.0.9.9.0.0.0.e.0.e.0.;.:.3.9.9.0.0.9.0.0.0.0.0.0.0.0.*.,.3.0.0.0.0.0.0.e.0.0.e.0.0.0.",
"*.1.6.0.0.e.0.0.0.0.0.0.0.0.e.0.*.:.3.e.0.0.0.e.0.0.e.0.0.0.0.0.*.,.6.0.0.e.0.0.0.0.e.0.0.e.0.0.*.3.6.0.0.0.0.e.0.0.0.0.t.e.0.0."
};
