/* XPM */
static char *exit4[] = {
/* columns rows colors chars-per-pixel */
"64 64 206 2 ",
"   c black",
".  c #070707",
"X  c #0B0807",
"o  c #0F0C0A",
"O  c #0C0C0C",
"+  c gray5",
"@  c #170C03",
"#  c #16100D",
"$  c #18110E",
"%  c #131313",
"&  c #1E1714",
"*  c #191919",
"=  c #1A1A1A",
"-  c #1B1B1B",
";  c gray11",
":  c #1D1D1D",
">  c #1E1E1E",
",  c #1F1F1F",
"<  c #2E1705",
"1  c #211511",
"2  c #211612",
"3  c #211613",
"4  c #211713",
"5  c #221714",
"6  c #221814",
"7  c #231D1B",
"8  c #201E1E",
"9  c #2D1F1A",
"0  c #2D221E",
"q  c #30211C",
"w  c #36251E",
"e  c #36251F",
"r  c #212121",
"t  c #252525",
"y  c #262626",
"u  c #272727",
"i  c #2E2724",
"p  c #2F2825",
"a  c #2F2826",
"s  c #2B2B2B",
"d  c #2C2C2C",
"f  c #2D2D2D",
"g  c #2E2E2E",
"h  c #382924",
"j  c #382A25",
"k  c #323232",
"l  c #333333",
"z  c #343434",
"x  c #353535",
"c  c #363636",
"v  c #373737",
"b  c #383838",
"n  c #393939",
"m  c #3A3A3A",
"M  c #3B3B3B",
"N  c #3D3938",
"B  c #3C3C3C",
"V  c #3D3D3D",
"C  c #3F3D3D",
"Z  c #3E3E3E",
"A  c #3F3F3F",
"S  c #452307",
"D  c #452308",
"F  c #47250A",
"G  c #47250B",
"H  c #48270C",
"J  c #4B290F",
"K  c #5C2F0A",
"L  c #47301F",
"P  c #733B0C",
"I  c #773E12",
"U  c #412B23",
"Y  c #412B24",
"T  c #412C24",
"R  c #422C25",
"E  c #422D25",
"W  c #422D26",
"Q  c #432D26",
"!  c #432E27",
"~  c #442F28",
"^  c #483120",
"/  c #443028",
"(  c #473129",
")  c #43372F",
"_  c #4C3329",
"`  c #4C332A",
"'  c #4D342B",
"]  c #43382F",
"[  c #563A2F",
"{  c #423C3A",
"}  c #573A30",
"|  c #573B30",
" . c #6E411E",
".. c #614034",
"X. c #614035",
"o. c #614135",
"O. c #624135",
"+. c #614136",
"@. c #624136",
"#. c #624236",
"$. c #634337",
"%. c #634438",
"&. c #644438",
"*. c #644439",
"=. c #65463B",
"-. c #65473B",
";. c #404040",
":. c #414141",
">. c #444444",
",. c #464646",
"<. c #484848",
"1. c #494949",
"2. c #4A4A4A",
"3. c #4B4B4B",
"4. c #4C4C4C",
"5. c #4D4D4D",
"6. c #4E4E4E",
"7. c #4F4F4F",
"8. c #505050",
"9. c #515151",
"0. c #525252",
"q. c #535353",
"w. c #545454",
"e. c #555555",
"r. c #565656",
"t. c #575757",
"y. c #585858",
"u. c #595959",
"i. c #5A5A5A",
"p. c #5B5B5B",
"a. c #5C5C5C",
"s. c #5D5D5D",
"d. c #5E5E5E",
"f. c gray38",
"g. c #636363",
"h. c #646464",
"j. c #656565",
"k. c #666666",
"l. c DimGray",
"z. c #6C6C6C",
"x. c #6E6E6E",
"c. c #6F6F6F",
"v. c #707070",
"b. c #717171",
"n. c #727272",
"m. c #737373",
"M. c #757575",
"N. c #767676",
"B. c #777777",
"V. c #787878",
"C. c gray48",
"Z. c #7B7B7B",
"A. c #7C7C7C",
"S. c #7D7D7D",
"D. c #7E7E7E",
"F. c #7F7F7F",
"G. c #89450E",
"H. c #89460F",
"J. c #8A460F",
"K. c #8A4710",
"L. c #8B4710",
"P. c #8B4711",
"I. c #8C4812",
"U. c #8C4912",
"Y. c #8E4A14",
"T. c #8F4B15",
"R. c #904D18",
"E. c #95511D",
"W. c #A05211",
"Q. c #A65718",
"!. c #A8591B",
"~. c #B75D14",
"^. c #BF651E",
"/. c #CD6815",
"(. c #CE6916",
"). c #CF6A17",
"_. c #D06B19",
"`. c #D16C1A",
"'. c #D36E1D",
"]. c #D56F1F",
"[. c #D5701F",
"{. c #D67020",
"}. c #D77222",
"|. c #D87323",
" X c #DC7628",
".X c #DD7729",
"XX c #DE782A",
"oX c #DF792B",
"OX c #E07A2C",
"+X c #808080",
"@X c #818181",
"#X c #828282",
"$X c #848484",
"%X c #858585",
"&X c #868686",
"*X c #878787",
"=X c #898989",
"-X c #8A8A8A",
";X c #8B8B8B",
":X c gray55",
">X c #8D8D8D",
",X c #8E8E8E",
"<X c #919191",
"1X c #929292",
"2X c #939393",
"3X c gray58",
/* pixels */
"3.3.3.3.3.3.3.3.3.3.6.6.6.3.3.3.6.3.3.3.3.3.3.3.3.3.3.3.6.3.3.3.3.3.3.3.3.3.3.3.3.3.3.3.3.3.3.3.3.3.3.3.3.3.3.3.3.3.3.3.3.3.3.3.",
"6.6.6.6.6.9.6.6.3.6.6.6.6.6.6.6.6.6.6.6.6.6.6.6.3.6.6.6.6.6.6.6.6.6.6.6.6.6.6.6.3.6.6.6.6.6.6.6.6.6.6.6.6.6.6.6.3.6.6.6.6.6.6.6.",
"9.9.9.9.9.9.9.9.3.6.9.9.9.9.9.6.9.9.9.9.9.9.9.9.3.6.6.6.9.9.9.e.9.9.9.9.9.9.9.9.3.6.9.9.9.6.9.9.9.9.9.9.9.9.9.9.3.6.9.9.9.9.9.6.",
"e.e.e.e.e.e.e.e.3.6.9.e.6.e.9.9.e.e.e.e.e.e.e.e.3.6.6.9.e.e.e.e.e.e.e.e.e.e.e.e.3.6.9.e.e.9.9.e.9.9.e.e.e.e.e.e.3.6.9.e.9.e.9.9.",
"e.y.a.y.a.y.y.a.3.6.e.y.e.y.y.a.e.y.y.a.a.y.a.y.3.6.e.y.e.y.a.y.e.y.y.a.y.y.a.y.6.6.9.e.y.a.y.a.y.y.a.y.a.y.y.a.6.6.e.a.e.y.y.y.",
"a.y.a.a.a.a.a.a.3.6.e.a.y.y.a.a.a.a.a.a.a.a.a.y.6.6.e.y.y.y.y.p.a.a.a.y.a.a.a.a.6.6.9.y.a.y.a.a.y.a.a.a.a.a.a.y.3.6.9.y.e.a.a.a.",
"a.a.f.a.a.a.a.a.6.9.e.a.a.a.a.a.a.a.a.a.a.a.a.a.3.6.e.a.a.a.a.a.a.a.a.a.a.a.a.a.6.9.e.a.a.y.a.a.a.a.f.a.a.a.a.a.3.6.y.a.a.a.a.a.",
"a.a.a.a.f.a.a.f.6.9.y.a.a.a.a.a.a.f.a.a.f.a.a.a.3.9.y.a.a.a.a.a.a.a.a.f.a.d.a.a.3.9.y.f.a.a.a.a.a.a.a.a.f.a.a.f.6.9.y.a.a.a.a.a.",
"3.3.3.3.3.3.3.6.6.3.3.3.3.3.3.3.3.3.3.3.3.6.6.3.3.3.6.6.3.3.3.3.9.6.3.3.3.3.3.3.3.3.3.3.3.3.3.3.6.3.6.9.3.6.6.6.3.3.6.6.3.3.3.3.",
"3.6.6.6.6.6.6.6.6.6.6.6.6.6.6.6.3.6.6.6.6.6.6.6.6.,.M z k k k k x x k k k k k k k k k k 6.9.6.6.6.6.6.6.6.6.6.6.6.6.6.6.6.6.6.6.",
"3.6.6.9.9.9.9.9.9.9.9.9.9.9.9.9.3.6.9.9.9.9.9.9.9.V d * * * * * * * * * * * * * * * * * 9.9.9.9.3.6.9.9.9.9.9.9.9.9.9.9.9.9.9.9.",
"3.6.9.6.e.e.e.e.e.e.e.e.e.e.e.e.3.6.9.e.e.e.e.e.e.m :                                   e.e.e.e.3.6.9.e.9.6.9.e.e.e.e.e.e.e.e.e.",
"3.6.9.e.y.y.y.a.a.y.a.y.y.y.y.a.6.9.9.e.e.y.y.p.  k k.3X3X3X2X2X>X=X%X%X#X#XA.#XA.C.C.C.  : V y.3.6.9.e.y.a.y.a.a.y.a.y.y.a.a.y.",
"6.6.9.y.a.a.y.y.a.a.a.y.a.a.a.a.6.8.9.y.y.9.,.V d 6.c.2X>X>X;X=X=X%X#X#XA.C.C.C.C.C.B.C.u d x V 3.6.9.y.a.a.a.y.a.a.a.a.a.a.a.a.",
"6.9.e.a.a.a.a.a.a.a.a.a.a.a.a.a.3.6.e.a.a.3.k : y.c.Z.>X*X%X%X#X#XA.A.C.B.B.B.B.B.b.b.B.3.m d r 3.9.e.a.a.a.a.a.a.a.a.a.a.f.f.a.",
"6.9.y.a.a.a.a.a.f.a.f.a.a.f.a.a.6.9.y.a.a.V r   =X=X%X%X#X#XA.A.C.C.B.B.l.c.b.b.b.c.c.b.l.3.s   3.9.y.a.a.a.a.a.f.a.a.a.a.a.a.a.",
"3.3.3.3.3.3.3.3.3.3.3.6.6.3.6.3.3.3.3.3.  . + %           u 3.v.l.c.B.b.b.c.l.l.b.b.B.b.l.b.c.l.  * k 6.6.3.3.3.3.3.3.3.3.3.3.3.",
"6.6.6.6.6.6.6.6.3.6.6.6.6.6.6.6.6.6.6.6.  o & 0 1 3 3 3 3 a N 3.b.b.b.l.c.c.c.c.B.c.c.b.l.b.b.b.  * x 6.6.6.6.6.3.6.6.6.6.6.6.6.",
"9.9.9.9.9.9.9.9.3.6.9.9.9.9.9.6.9.9.9.9.  $ 0 ( Y Y Y R E h i u b.B.c.c.l.b.b.b.b.c.c.B.c.c.b.b.  : x 9.9.9.9.e.3.6.6.9.9.9.9.6.",
"e.e.e.e.e.e.e.e.3.6.9.9.e.e.9.9.e.e.e.e.  3 Y ..........O.Y 3   b.b.B.b.b.B.c.l.B.b.b.b.B.b.b.l.  * x e.e.e.e.e.3.6.9.6.e.e.9.9.",
"a.e.y.a.y.y.y.a.3.6.e.y.e.y.y.a.a.y.p.a.  3 E &.........&.O.....  u 3.b.l.c.b.B.b.c.l.l.b.B.b.b.  : V a.y.a.a.y.3.6.e.a.e.y.y.a.",
"a.a.y.y.a.a.a.a.6.6.9.a.y.y.a.y.a.a.a.a.  3 Y O...} _ Y $.O.....6 a M 6.c.b.b.b.b.c.c.c.b.c.c.b.  r V a.a.a.a.a.6.6.e.a.y.y.a.a.",
"a.a.a.a.a.a.a.a.6.9.e.f.a.a.y.a.a.a.a.a.  3 Y ....( e 3 O.O.....E h i u b.c.c.b.b.c.c.c.B.c.c.b.  r V a.a.a.f.a.6.9.y.a.a.a.a.a.",
"a.a.a.f.a.a.f.a.6.9.y.a.a.a.a.a.d.a.a.a.  3 E ..O.Y 3   ..O.....O.E 3   c.b.b.c.b.b.c.l.b.b.b.B.  : V a.a.a.a.a.3.9.y.a.a.a.a.a.",
"9.6.3.3.6.3.3.3.3.3.3.3.6.3.3.3.6.3.3.3.  3 Y O.O.E 3   O.......O.R 3   v.v.v.v.c.b.b.b.b.b.b.l.  * k 6.3.3.3.3.3.3.3.3.3.3.3.3.",
"6.6.6.6.6.6.6.6.6.6.6.6.6.9.6.6.3.6.6.6.  3 Y O.+.( e 4 O.O.O...O.( e 4 3.y.g.v.b.b.c.c.B.k.e.,.* s m 6.6.6.6.9.6.6.6.6.6.6.6.6.",
"3.6.6.9.9.9.9.9.9.9.9.9.9.9.9.9.3.6.6.9.  3 Y O.O.| ' E O.$.&.O.$.| _ R u V y.v.b.c.c.l.b.y.V u x V ,.9.9.9.9.9.9.9.9.9.9.9.9.9.",
"3.6.6.9.e.e.e.e.e.e.e.e.e.e.e.e.3.6.6.8.  3 Y O.O.O.$.$...&.&.*.*.&.....  u 3.v.c.b.c.l.B.3.s   6.9.9.9.e.e.e.e.e.e.e.e.e.e.e.e.",
"3.6.9.y.y.y.y.y.e.y.a.y.a.y.y.a.8.8.e.y.e.m :   O...O.O.=.=.=.=.*.*.O...  u 3.c.c.c.b.b.  : V a.3.6.9.e.e.e.y.y.y.y.a.y.a.a.a.a.",
"6.6.e.a.y.e.y.y.a.y.a.a.a.a.a.a.6.6.e.y.p.,.z r Y Y E E ~ ~ ~ E ~ E E Y   * k 3.3.3.3.6.: k 3.a.3.6.e.y.y.y.a.a.a.a.a.a.a.y.a.a.",
"6.9.e.y.a.a.a.a.a.a.a.a.a.a.a.a.3.8.e.a.a.e.3.:.3 3 3 3 4 4 4 4 4 4 3 3   + * u u u u s V 3.9.a.3.9.e.a.a.a.a.a.a.a.a.a.f.a.a.a.",
"3.9.y.a.a.k.k.a.a.a.f.a.f.a.a.a.3.9.e.a.a.a.a.a.                                        a.a.a.a.3.e.y.a.a.a.f.a.a.f.a.a.a.a.a.a.",
"3.3.3.6.3.4.3.3.3.3.3.3.3.3.3.4.3.3.3.3.3.3.3.6.3.3.3.3.  S J.(.(.(.(.(.(.J.S   3.3.3.3.3.3.3.3.3.3.3.3.4.3.3.3.3.3.3.3.3.3.6.6.",
"6.6.6.6.6.6.6.8.3.6.6.6.6.6.6.6.6.6.6.6.6.6.6.6.3.6.6.6.  < K J.(.~.W.J.(.J.S   3.6.6.6.6.6.6.6.6.6.6.6.6.7.6.6.3.6.6.6.6.6.6.7.",
"9.9.9.9.9.9.9.q.3.6.8.9.9.9.9.9.9.9.9.9.9.9.9.9.3.6.9.9.  @ < D (.W.P S (.J.S   3.6.7.9.9.9.9.9.6.9.9.9.9.9.9.9.3.6.6.6.9.9.9.9.",
"e.e.e.e.e.e.e.e.3.6.9.e.e.e.e.e.e.e.e.e.e.e.e.e.3.6.9.e.        (.J.S   (.J.S   3.6.9.e.e.e.e.e.9.q.e.e.e.e.e.e.3.6.7.9.e.e.9.9.",
"e.y.y.a.a.y.a.y.3.6.9.e.y.y.y.p.e.y.y.a.y.a.y.p.6.8.9.e.        =./ 6   (.J.S   3.6.9.e.e.y.p.p.y.y.y.e.p.y.a.p.7.7.q.e.e.y.p.y.",
"y.y.a.a.a.a.p.a.6.6.9.y.y.y.a.a.y.y.a.a.a.a.a.a.6.,.:.m   X # 6 =.E 6   (.K.D   3.9.e.y.y.p.p.y.a.a.a.y.a.a.a.a.7.9.q.y.y.y.a.a.",
"a.a.a.a.a.a.a.a.6.9.e.a.a.a.a.a.a.a.a.a.d.a.a.a.6.V d :   # 0 / *.! 4   _.P.D   3.9.y.a.a.a.a.a.a.d.a.a.a.d.d.a.7.9.e.a.a.a.a.a.",
"d.a.d.a.a.a.a.a.6.9.y.a.a.a.a.a.a.f.a.a.a.a.a.a.3.z *     3 ! =.O.E 4   _.P.D   6.9.y.a.d.a.a.a.d.a.d.a.d.a.a.d.9.9.y.a.a.a.d.a.",
"9.6.3.3.3.3.3.3.3.3.3.3.3.3.3.3.9.6.3.3.3.3.3.3.3.k *   O.O.O.*.  D U.[.'.U.D   3.3.3.3.3.3.3.4.3.3.3.3.3.3.3.6.3.3.3.3.3.3.3.3.",
"6.6.6.6.6.6.6.6.6.8.6.6.6.6.6.6.3.6.6.6.6.6.6.6.6.x *   R R E E H I Q.{.{.T.D   6.6.6.6.6.6.6.6.3.6.6.6.6.6.6.6.6.6.6.6.6.6.6.6.",
"3.6.6.6.9.9.9.9.9.9.9.9.9.9.9.9.3.6.8.9.6.9.9.9.9.x :   3 3 4 4 R.!.^.{.{.T.D   9.9.9.9.9.9.9.q.3.6.6.8.9.9.9.9.9.9.9.9.9.q.9.9.",
"3.6.6.9.e.e.e.e.e.e.e.e.e.e.e.e.3.6.9.e.9.9.e.e.e.m :           |.|.{.{.{.T.H   e.e.e.e.e.e.y.a.3.6.7.7.e.e.e.e.e.e.e.e.e.e.e.e.",
"3.6.e.y.e.e.e.p.p.y.a.y.a.y.a.a.3.6.9.e.y.y.y.y.y.y.y.a.  J E.OXOXOXOXOXOXE.J   y.p.y.e.p.y.p.y.6.7.q.y.e.e.y.p.p.y.p.a.p.y.p.y.",
"6.8.e.a.y.y.y.a.y.a.a.a.a.a.a.a.6.8.q.y.a.p.a.a.y.a.a.a.r ^  .E.oXOXoXoXE. .^ , y.a.a.a.a.a.a.a.6.6.e.p.y.p.y.a.a.a.a.a.a.p.a.a.",
"6.9.e.a.a.a.a.a.a.a.d.a.a.a.a.a.6.9.e.a.a.a.a.a.a.a.a.a.V ] ^ J oXoX X XJ ^ ] V a.a.d.a.a.a.a.d.3.9.e.y.a.a.a.a.a.a.d.a.a.a.a.a.",
"3.9.y.a.a.a.d.a.a.f.a.d.a.a.a.a.3.9.y.a.f.d.a.a.a.a.f.a.a.V :    X X X X  r :.a.a.a.a.d.a.d.a.a.3.q.y.a.a.d.d.d.a.d.a.d.d.a.d.a.",
"3.3.3.3.3.3.3.3.3.3.3.3.3.3.3.3.6.3.3.3.3.3.3.3.3.3.3.3.6.k *   OXOXoXoX  * z 7.3.3.3.3.3.3.3.3.3.3.3.3.3.3.3.3.3.3.3.3.3.3.3.3.",
"6.6.6.6.8.6.6.6.3.6.6.6.6.6.6.6.6.7.6.6.6.6.6.6.3.6.6.6.6.x *   OXOXOXOX  * z 7.3.6.6.6.7.6.6.6.6.6.6.6.6.6.6.6.3.6.6.6.6.6.6.6.",
"9.9.9.9.q.9.9.9.3.6.8.6.9.9.9.9.9.9.9.9.9.9.9.9.3.6.6.9.9.x :   OXOXOXOX  * x 9.6.6.7.7.9.9.9.9.9.9.9.9.9.9.9.9.3.6.7.6.9.9.9.9.",
"e.e.e.e.e.e.e.e.3.6.9.8.e.9.9.e.e.e.e.e.e.e.e.e.3.6.9.9.e.m :   OXOXOXOX  * m e.6.6.7.9.e.e.e.e.e.e.e.e.e.e.e.e.3.6.7.9.e.e.e.e.",
"e.y.a.y.a.y.y.a.3.6.9.e.y.y.a.y.a.y.e.y.y.a.y.y.3.6.e.y.y.m :   OXOXOXOX  , V y.3.6.e.y.y.e.y.a.e.y.p.p.y.p.a.p.7.7.e.p.e.e.y.y.",
"y.y.a.a.a.a.a.a.6.8.e.y.p.y.a.a.a.a.a.a.a.a.a.a.3.9.e.p.y.V :   OXOXOXOX  , V a.6.7.e.y.a.p.y.y.p.y.a.a.a.a.a.a.6.7.q.y.y.y.p.a.",
"a.a.a.d.a.a.a.a.6.9.e.a.d.a.a.a.a.a.a.d.a.f.a.a.3.9.e.a.a.V r   OXOXOXOX  8 { a.6.9.e.p.a.a.a.y.a.a.d.a.a.a.d.a.3.6.y.p.a.a.a.a.",
"a.a.d.a.f.a.a.f.3.9.y.d.a.a.d.a.a.a.f.a.a.a.a.a.3.9.y.a.a.A :   OXOXOXOX  8 { a.3.6.e.a.d.a.a.a.a.a.a.d.a.d.a.d.3.9.y.a.d.d.a.a.",
"6.4.3.3.3.3.3.6.3.3.3.3.3.3.3.3.3.3.3.3.3.3.3.3.3.3.3.3.3.x *             * k 3.6.3.6.6.3.3.6.3.3.3.3.3.3.6.6.3.3.3.3.3.3.4.3.3.",
"6.6.6.6.6.6.6.8.6.6.6.6.6.6.6.6.3.6.6.6.6.6.6.6.6.6.6.6.6.V d : * - - : : d V 6.6.7.6.6.6.6.6.6.3.6.6.6.6.6.6.6.6.6.6.6.6.6.6.6.",
"3.6.6.9.9.9.9.9.9.9.9.9.9.9.9.9.3.6.7.9.6.9.9.9.9.9.9.9.9.3.:.m k x v m m :.3.9.9.9.9.9.9.9.9.9.3.6.6.9.9.9.9.9.9.9.9.9.9.9.9.9.",
"3.6.6.8.e.e.e.e.e.e.e.e.e.e.e.e.3.6.9.e.9.9.e.e.e.e.e.e.e.e.e.e.3.6.9.e.9.e.e.e.e.e.e.e.e.e.e.e.3.6.7.9.e.e.e.e.e.e.e.e.e.e.e.e.",
"3.6.9.y.e.y.y.y.p.e.y.a.p.y.a.y.3.6.9.e.p.y.y.y.e.y.a.y.a.y.a.a.3.6.e.y.y.e.y.y.p.y.p.y.y.a.y.a.3.6.q.y.e.e.y.y.y.p.y.p.p.p.y.a.",
"6.6.e.p.y.a.a.a.a.a.y.y.a.a.a.a.6.6.e.y.a.a.y.a.y.a.a.a.a.a.a.a.3.9.e.y.y.e.y.a.p.y.p.a.a.a.a.a.3.7.e.p.y.p.y.p.a.a.a.a.y.y.p.a.",
"6.9.e.y.a.a.a.f.a.a.a.a.a.a.a.d.6.9.e.a.a.a.a.a.a.a.a.f.a.a.a.a.3.9.y.a.y.a.p.p.a.a.a.a.a.d.a.a.6.9.y.p.a.a.a.a.a.d.a.a.a.a.a.a.",
"4.q.y.a.a.a.a.a.d.a.a.f.a.a.f.a.6.9.y.d.a.d.f.a.a.a.f.a.a.f.a.a.3.9.y.a.a.k.k.a.d.d.a.d.d.a.a.a.3.9.y.a.a.d.d.a.d.a.a.a.l.g.a.a."
};
