/* XPM */
static char *exit2[] = {
/* columns rows colors chars-per-pixel */
"64 64 178 2 ",
"   c black",
".  c #070707",
"X  c #0B0806",
"o  c #0A0A0A",
"O  c gray5",
"+  c #160F0C",
"@  c #160F0D",
"#  c #131313",
"$  c #141414",
"%  c #191919",
"&  c #1A1A1A",
"*  c #1B1B1B",
"=  c #1C1C1C",
"-  c #1D1D1D",
";  c #1E1E1E",
":  c #211612",
">  c #211613",
",  c #211713",
"<  c #221814",
"1  c #251A16",
"2  c #291F1B",
"3  c #2C1E19",
"4  c #2E231F",
"5  c #36241E",
"6  c #212121",
"7  c #252525",
"8  c #2A2320",
"9  c #2B2421",
"0  c #2E2725",
"q  c #282828",
"w  c #2B2B2B",
"e  c #2D2D2D",
"r  c #2F2F2F",
"t  c #362722",
"y  c #382721",
"u  c #382A24",
"i  c #323232",
"p  c #333333",
"a  c #343130",
"s  c #343434",
"d  c #353535",
"f  c #363636",
"g  c #373737",
"h  c #383838",
"j  c #393939",
"k  c #3A3A3A",
"l  c #3B3B3B",
"z  c #3C3938",
"x  c #3C3C3C",
"c  c #3D3D3D",
"v  c #3E3E3E",
"b  c #3F3F3F",
"n  c #452307",
"m  c #452308",
"M  c #452408",
"N  c #462409",
"B  c #48270C",
"V  c #4A280E",
"C  c #4B290F",
"Z  c #462814",
"A  c #462815",
"S  c #442A1D",
"D  c #723A0C",
"F  c #733B0D",
"G  c #6B3B16",
"H  c #412B23",
"J  c #412C24",
"K  c #422D25",
"L  c #422D26",
"P  c #432D26",
"I  c #432E27",
"U  c #432F27",
"Y  c #442E26",
"T  c #443028",
"R  c #463028",
"E  c #48332B",
"W  c #4C332A",
"Q  c #4E362D",
"!  c #4F372D",
"~  c #573A30",
"^  c #593D33",
"/  c #7C4418",
"(  c #614034",
")  c #614135",
"_  c #624135",
"`  c #624236",
"'  c #624337",
"]  c #634337",
"[  c #634338",
"{  c #634438",
"}  c #644439",
"|  c #64453A",
" . c #65473B",
".. c #404040",
"X. c #414141",
"o. c gray27",
"O. c #464646",
"+. c #474747",
"@. c #4B4B4B",
"#. c #4C4C4C",
"$. c #4D4D4D",
"%. c #4E4E4E",
"&. c #4F4F4F",
"*. c #505050",
"=. c #515151",
"-. c #525252",
";. c #535353",
":. c #545454",
">. c #555555",
",. c #565656",
"<. c #575757",
"1. c #585858",
"2. c #595959",
"3. c #5A5A5A",
"4. c #5B5B5B",
"5. c #5C5C5C",
"6. c #5D5D5D",
"7. c #5E5E5E",
"8. c #646464",
"9. c #666666",
"0. c gray44",
"q. c #717171",
"w. c #727272",
"e. c #747474",
"r. c #767676",
"t. c #777777",
"y. c #787878",
"u. c #797979",
"i. c gray48",
"p. c #7B7B7B",
"a. c #7C7C7C",
"s. c #7D7D7D",
"d. c #7E7E7E",
"f. c #7F7F7F",
"g. c #89460E",
"h. c #8A460F",
"j. c #8A470F",
"k. c #8B4810",
"l. c #8C4811",
"z. c #904D18",
"x. c #94501C",
"c. c #95511D",
"v. c #A05111",
"b. c #A05211",
"n. c #B65C13",
"m. c #B75D13",
"M. c #AD5E21",
"N. c #AE5F22",
"B. c #CD6815",
"V. c #D06B18",
"C. c #D16C1A",
"Z. c #D36E1D",
"A. c #D46F1E",
"S. c #D5701F",
"D. c #C66C26",
"F. c #C76C26",
"G. c #D67020",
"H. c #D77121",
"J. c #D87323",
"K. c #DD7729",
"L. c #DE782A",
"P. c #DF792B",
"I. c #E07A2B",
"U. c #E07A2C",
"Y. c #808080",
"T. c #828282",
"R. c #838383",
"E. c #858585",
"W. c #868686",
"Q. c #888888",
"!. c #898989",
"~. c #8B8B8B",
"^. c gray55",
"/. c #8E8E8E",
"(. c #8F8F8F",
"). c #909090",
"_. c #919191",
"`. c gray58",
/* pixels */
"@.@.@.@.@.@.@.@.@.@.@.@.@.@.@.@.@.@.@.@.@.@.@.@.@.@.@.@.@.@.@.@.@.@.@.@.@.@.@.@.@.@.@.@.@.@.@.@.@.@.@.@.%.@.@.@.@.@.@.@.@.@.@.@.",
"%.%.%.%.%.%.%.%.@.%.%.%.%.%.%.%.%.%.%.%.%.%.%.%.@.%.%.%.%.=.%.%.%.%.%.%.%.%.%.%.@.%.%.%.%.%.%.%.%.%.%.%.%.=.%.%.@.%.%.%.%.%.%.%.",
"=.=.=.=.=.=.=.=.@.%.%.=.=.=.=.=.=.=.=.=.=.=.=.=.@.%.%.=.=.=.=.=.=.=.=.=.=.=.=.=.@.%.=.=.%.=.=.=.=.=.=.=.=.=.;.=.@.%.%.=.=.=.=.=.",
">.>.>.>.>.>.>.>.@.%.=.>.=.=.>.>.>.>.>.>.>.>.>.>.@.%.=.>.>.>.>.>.>.>.>.>.>.>.>.>.@.%.=.>.>.>.>.>.>.>.>.>.>.>.>.>.@.%.=.>.>.>.>.>.",
">.1.1.1.1.7.1.7.%.%.>.1.>.1.1.7.7.1.1.7.1.1.7.1.@.%.=.>.1.1.>.1.>.1.1.1.1.1.7.1.@.%.=.>.>.1.1.1.>.1.1.1.1.7.1.1.@.%.=.>.>.>.1.1.",
"1.1.7.1.7.1.1.7.%.=.>.7.1.1.7.1.1.1.7.1.7.7.1.1.%.%.>.1.7.1.1.7.1.7.7.1.7.1.1.7.%.=.>.1.1.1.7.7.1.1.7.1.7.1.7.1.@.%.>.1.1.1.1.7.",
"7.7.7.7.7.7.1.1.%.=.>.1.7.1.7.7.1.7.1.7.7.1.1.7.%.%.>.1.7.7.1.1.7.7.7.7.7.1.7.7.%.=.>.7.7.7.7.1.7.7.7.7.7.7.7.7.@.=.>.7.1.1.7.7.",
"7.7.7.7.1.7.7.7.@.=.1.7.1.7.1.7.7.7.7.7.7.7.7.7.%.%.>.7.1.7.7.7.7.7.7.1.7.7.1.7.=.=.>.7.1.7.7.1.7.7.7.7.1.7.7.1.@.=.>.7.7.7.7.7.",
"=.%.%.@.@.@.@.@.@.@.@.@.@.@.@.@.%.%.%.%.%.%.%.%.@.@.%.%.@.@.@.@.%.%.%.@.%.@.@.@.@.@.@.@.@.@.@.@.%.@.@.@.@.%.%.%.@.@.%.%.@.@.@.@.",
"%.%.%.%.%.%.%.%.%.%.%.%.%.%.%.%.@.%.%.%.%.o.c s i i i s i i i i i s s i i s i i %.%.%.%.%.%.%.%.%.%.%.%.%.%.%.%.%.%.%.=.%.%.%.%.",
"@.%.%.=.=.=.=.=.=.=.=.=.=.=.=.=.@.%.=.=.%.c e % % % % % % % % % % % % % % % % % =.=.=.=.=.=.=.=.%.%.=.=.=.=.=.=.=.=.=.=.=.=.=.=.",
"@.%.%.=.>.>.>.>.>.>.>.>.>.>.>.>.%.%.=.>.=.s ;                                   >.1.1.>.>.>.>.>.%.%.=.>.>.>.>.>.>.>.>.>.>.>.>.>.",
"@.%.=.1.>.1.1.1.1.>.1.1.1.1.7.1.@.%.=.1.  7 %.d.d.d.d.d.T.E.E.E.(.(.(.).`.`.).`.  ; l 1.1.1.1.7.@.%.=.>.1.7.1.1.1.1.1.1.1.1.1.7.",
"@.%.>.7.1.1.7.7.7.1.7.1.7.1.1.7.@.o.X.c 7 X.1.e.e.e.i.i.d.d.Y.T.E.Q.Q.Q.(.(.(.(.e i l X.7.7.1.7.@.%.>.1.1.7.1.7.7.7.7.1.7.7.1.7.",
"%.=.>.7.7.7.1.7.7.7.1.7.7.7.7.7.@.c e ; %.1.8.0.0.0.0.i.t.t.i.i.T.T.T.T.Q.Q.Q.(.7.o.s 6 7.1.7.1.@.%.>.7.7.1.1.7.7.7.7.7.1.7.7.7.",
"@.=.1.1.1.7.7.7.7.1.7.7.7.7.7.1.%.i %   0.0.0.0.0.0.0.0.0.0.0.e.i.d.d.d.E.E.E.E.Q.7.e   7.7.7.7.@.%.>.7.1.7.7.1.7.7.7.7.7.7.7.1.",
"@.@.@.@.@.@.@.@.@.@.%.%.@.%.%.@.  7 @.0.0.0.0.0.0.0.0.0.0.0.0.0.0.0.0.0.          . O #   % i @.@.@.@.@.@.%.%.%.@.@.@.@.@.%.@.@.",
"%.%.%.%.%.%.%.%.@.%.%.%.%.%.=.%.  7 @.0.0.0.0.0.0.0.0.0.0.0.0.0.0.8.1.@., , , , , 1 2 4   % s %.%.%.%.%.%.=.%.%.@.%.%.%.%.%.%.%.",
"=.=.=.=.=.=.=.=.@.%.=.=.=.=.=.%.  7 @.0.0.0.0.0.0.0.0.0.0.0.0.0.0.1.c 7 H H H H H K R E   % s =.=.=.=.=.=.=.=.=.@.%.%.=.=.=.=.=.",
">.>.>.>.>.>.>.>.@.%.=.>.=.=.>.=.  7 @.0.0.0.0.0.0.0.0.0.0.0.0.0.0.@.7   ' ' ' ( ' ' ' '   ; l >.>.>.>.>.>.>.>.>.@.%.=.>.=.=.>.>.",
"1.7.1.>.1.1.1.1.@.%.=.>.1.1.1.7.  7 @.0.0.0.0.0.0.0.0.0.0.0.0.0.  , H ' ' ' ' ' ( ' ' (   ; l 7.>.1.1.4.1.7.1.7.@.%.>.7.>.1.7.1.",
"7.1.7.1.7.7.7.7.%.%.>.1.7.7.1.1.  7 @.0.0.0.0.0.0.0.0.0.0.8.>.@., 5 E ' ( ~ W H ( ' ' '   ; l 1.1.1.1.7.7.1.1.1.%.=.>.1.>.1.1.7.",
"7.1.1.1.1.7.1.7.%.=.>.7.7.1.7.1.  7 @.0.0.0.0.0.0.0.0.0.0.1.c 7 H W ~ ' ' W 5 , ( ( ' (   ; c 7.7.7.7.7.7.7.7.7.%.=.1.1.1.1.7.7.",
"7.7.7.7.7.7.1.7.%.=.1.7.1.7.1.7.  7 @.0.0.0.0.0.0.0.0.0.0.@.7   ( ( ' ( ' H ,   ' ' ' '   ; c 7.7.7.7.1.1.7.7.7.%.=.>.7.7.7.7.1.",
"=.%.%.@.@.%.%.%.@.@.%.%.@.@.@.@.  7 @.0.0.0.0.0.0.0.0.0.0.@.7   ( ( ( ( ` H ,   ( ( ( (   % i @.%.%.@.@.@.@.@.%.@.@.@.@.@.@.%.%.",
"%.%.%.%.%.%.%.=.%.%.%.%.%.%.%.%.% w l @.0.0.0.0.0.0.0.0.@.z 0 , ( ' ` ` ` W 5 , ( ( ( '   % s %.%.%.%.%.%.%.%.%.%.%.%.%.%.%.%.=.",
"@.%.%.=.=.=.=.=.=.=.=.=.=.=.=.=.i i w 7 0.0.0.0.0.0.0.0.7 0 u H ` ` ` ` ' ~ W H ( ( ' '   ; l =.@.%.=.=.=.=.=.=.=.=.=.=.=.=.=.=.",
"@.%.%.=.>.>.>.>.>.>.>.>.>.>.>.>.@.i %   0.0.0.0.0.0.0.0.  , K ' { { | { ' ' ` | ( ' ' '   ; l >.%.=.=.>.=.>.>.>.>.>.>.>.>.>.>.>.",
"@.%.>.1.>.1.1.7.>.1.1.7.1.1.1.7.%.%.=.>.  7 @.0.0.0.0.0.  , K ' [ | | | ` [ ` ' ' H ,   1.1.1.1.@.%.=.>.1.1.>.1.1.7.7.1.1.1.7.1.",
"%.%.>.1.1.7.7.1.1.7.1.1.7.7.1.7.%.%.>.1.; e l @.@.@.@.@.  + 3 K Y T T Y Y Y K H K t 8 6 7.7.7.1.@.%.>.1.7.1.1.7.1.1.7.1.7.7.7.7.",
"%.=.>.1.7.7.7.7.7.1.7.7.7.7.1.1.%.=.>.1.c s e 7 7 7 7 7   X + , < < < , , , , , , 8 a X.7.1.7.7.@.*.>.7.7.1.1.7.7.7.7.7.1.7.7.7.",
"@.=.1.7.1.7.7.7.7.7.7.7.7.7.7.7.%.=.1.7.7.c ;                                     ; c 7.7.7.1.7.@.=.>.7.1.7.7.7.1.7.7.1.7.7.7.7.",
"@.@.@.%.@.@.@.@.@.@.@.@.@.@.%.@.@.@.@.@.@.%.@.@.@.a *   B.B.B.B.B.B.B.B.  % i %.@.@.@.@.@.@.@.@.@.@.@.@.%.@.@.@.@.@.@.@.@.@.@.@.",
"%.%.%.%.&.%.%.*.@.%.%.%.%.%.%.%.%.%.%.%.%.%.%.*.@.a *   B.n.x.g.B.m.b.g.  % s %.@.%.%.%.%.%.%.%.%.%.%.%.%.%.%.%.@.%.%.%.%.%.%.%.",
"=.=.=.=.=.=.=.=.@.%.*.&.=.=.=.=.=.=.=.=.=.=.;.=.@.i &   B.v.F n B.b.F N   ; l =.@.%.=.=.=.=.=.=.=.=.=.=.=.=.=.=.@.%.%.=.%.=.=.%.",
">.>.>.>.>.>.>.>.@.%.%.&.>.>.>.>.>.>.>.>.>.>.>.>.@.i &   B.g.n   B.h.N     % l >.%.%.=.>.;.>.>.>.>.>.>.>.>.>.>.>.@.%.=.>.=.>.>.=.",
">.1.1.1.1.1.1.1.@.%.:.1.>.1.5.1.>.1.1.1.1.1.5.1.@.i %   B.g.n   | R <     ; c 1.%.%.=.>.7.1.1.1.>.1.1.1.1.7.1.4.%.=.>.>.1.1.4.1.",
"1.5.7.7.7.5.7.7.%.%.;.7.1.4.1.7.1.7.7.7.7.1.7.1.%.s %   C.h.n   | Q y ,   $ w c %.%.=.1.1.1.1.1.1.4.7.1.7.1.1.7.%.=.=.1.7.1.1.7.",
"7.7.7.1.7.1.1.7.&.=.>.7.5.1.1.7.1.7.7.1.7.5.7.7.&.s %   C.k.M   | ^ Q K   o # ; %.=.>.7.7.1.1.7.7.7.7.7.1.1.7.7.%.=.>.7.1.7.7.7.",
"7.7.7.7.1.7.7.7.%.;.1.1.5.5.7.7.7.7.7.7.1.7.7.7.&.s %   C.l.M   { { [ |         @.=.>.4.7.7.7.7.7.7.7.7.7.7.1.7.%.=.>.7.7.1.7.7.",
"%.@.@.@.@.@.@.@.@.@.@.@.@.@.%.@.%.%.@.@.@.@.@.@.@.i %   Z.Z.S.S.  , K ' ' K ,   @.@.@.@.%.@.@.@.%.%.@.@.@.@.@.@.@.@.@.@.@.@.%.%.",
"%.%.%.%.%.%.%.%.%.%.%.%.%.%.%.%.@.%.%.%.%.%.%.%.%.s %   A.S.G.G.B A S K K 3 +   %.%.%.%.%.%.%.%.%.%.%.%.%.%.%.%.%.%.%.%.%.%.%.=.",
"@.%.%.%.=.=.=.=.=.=.=.=.=.=.=.=.%.%.*.%.=.=.=.=.=.s %   G.G.G.G.z.G A , , @ X   =.=.=.=.=.=.=.=.@.%.%.=.=.=.=.=.=.=.=.=.=.=.=.=.",
"@.%.%.=.>.>.>.>.>.>.>.>.>.>.>.>.%.%.*.*.>.>.>.>.>.l ;   G.G.G.J.J.z.B           >.>.>.>.>.>.>.>.@.%.%.=.=.=.>.>.>.>.>.>.>.>.>.>.",
"@.%.:.4.>.1.4.1.1.1.<.1.1.1.1.5.@.&.;.>.1.1.4.1.>.l ;   U.U.I.I.I.I.I.U.  ; c 1.1.1.1.7.1.1.1.1.%.=.=.1.1.>.1.1.1.7.7.1.1.1.1.7.",
"@.=.>.1.1.1.5.7.7.1.1.7.7.7.7.7.%.=.>.1.1.7.5.7.1.o.i ; c.N.D.P.I.D.N.c.; i o.7.1.7.1.7.7.7.7.1.@.%.=.7.7.1.1.7.7.1.7.1.7.4.7.1.",
"@.=.>.5.1.4.7.1.7.1.7.1.7.7.7.7.%.=.1.1.5.1.7.1.7.=.o.c C / N.K.P.N./ C c @.=.1.7.7.7.1.7.7.7.7.%.=.>.1.1.7.7.7.4.7.4.7.7.4.7.7.",
"%.=.<.5.7.7.7.7.7.1.7.7.1.7.7.7.%.=.>.4.7.7.7.7.7.1.7.7.  C c.K.P.c.C   7.1.7.7.7.1.7.7.7.7.7.1.%.=.1.7.7.7.1.1.7.7.7.7.7.7.7.7.",
"@.@.@.@.@.@.@.@.@.@.@.@.@.@.@.@.%.@.@.@.@.@.%.@.@.@.@.@.  C c.P.U.c.C   @.@.@.%.@.@.%.%.@.@.@.%.%.@.@.@.@.@.@.@.@.@.%.%.%.@.@.@.",
"%.%.%.%.%.%.%.%.@.%.%.%.%.%.%.%.%.%.%.%.%.%.%.%.@.%.%.%.  C c.P.U.c.C   %.%.%.%.@.%.%.%.%.%.%.%.%.%.%.%.%.%.%.%.@.%.%.%.%.%.%.%.",
"=.=.=.=.=.=.=.:.@.%.&.&.=.=.=.=.=.=.=.=.=.=.=.=.%.%.%.%.  C c.U.U.c.C   =.=.=.=.@.%.%.=.=.=.=.=.=.=.=.=.=.=.=.=.@.%.%.=.*.=.=.%.",
">.>.>.>.>.>.>.>.@.%.*.*.>.>.>.>.>.>.>.>.>.>.=.>.%.%.=.=.  C c.U.U.c.C   >.>.>.>.@.%.=.%.>.>.>.>.>.>.>.>.>.>.>.>.@.%.=.>.=.=.>.=.",
"1.1.1.1.5.1.1.1.@.%.>.1.>.>.>.1.1.1.>.1.1.1.1.1.@.%.=.1.  C c.U.U.c.C   1.1.1.1.@.%.>.1.>.1.1.>.>.>.4.1.7.1.7.1.%.=.>.1.>.1.1.7.",
"4.7.7.1.4.7.4.4.%.*.>.1.1.1.1.7.7.1.1.7.7.7.7.1.%.=.>.7.  C c.U.U.c.C   7.1.7.7.%.%.;.7.1.7.1.7.4.1.1.1.7.1.1.1.%.&.>.1.1.1.7.4.",
"7.5.5.5.7.5.5.5.%.=.>.5.5.1.7.7.7.1.7.7.7.1.7.7.%.=.=.1.  C c.U.U.c.C   7.7.7.1.%.=.>.4.7.1.7.7.7.7.7.7.7.7.1.7.@.%.>.7.7.7.1.7.",
"7.5.7.7.1.7.5.5.@.=.>.4.7.5.5.5.7.7.7.7.7.7.1.7.%.=.>.7.  C c.U.U.c.C   1.7.7.7.@.%.=.7.4.7.1.1.7.7.7.7.1.7.7.7.@.=.>.1.7.7.1.7.",
"%.*.%.@.@.%.%.%.@.@.%.%.@.@.@.@.@.@.@.%.=.%.@.@.@.@.%.%.                @.%.%.@.%.@.%.%.%.@.@.@.%.@.@.@.@.%.%.%.@.@.%.@.@.%.%.%.",
"%.%.%.%.%.%.%.%.%.%.%.=.%.%.&.%.@.%.%.%.%.%.%.%.%.%.%.=.; ; ; % % ; ; % %.%.%.%.%.%.%.%.%.%.%.%.%.%.%.%.%.%.%.%.%.%.%.%.%.%.%.%.",
"@.%.*.&.=.=.=.=.=.=.=.=.=.=.=.=.@.%.%.%.=.=.=.=.=.=.=.=.l l l l i s l l %.=.=.=.=.=.=.=.=.=.=.=.@.%.%.=.=.=.=.=.=.=.=.=.=.=.=.=.",
"@.%.%.=.>.>.>.>.>.>.>.>.>.>.>.>.@.%.=.=.>.>.>.>.>.>.>.>.>.>.1.>.@.%.=.>.=.>.>.>.>.>.>.>.>.>.>.>.@.%.*.=.=.=.>.>.>.>.>.>.>.>.>.>.",
"@.%.=.>.>.1.1.1.1.1.1.1.5.4.7.1.%.%.=.>.7.1.1.1.>.1.1.7.1.1.7.7.@.%.>.1.1.1.1.1.1.1.7.1.4.1.1.7.%.=.=.1.7.>.>.1.1.1.7.1.1.1.7.1.",
"%.=.>.1.1.1.7.5.7.1.4.1.5.5.5.7.%.=.>.1.1.1.7.7.1.1.1.7.7.1.7.1.@.=.>.7.1.7.7.7.7.1.1.7.7.1.7.1.%.%.>.7.1.1.1.7.7.7.1.7.7.1.1.7.",
"%.;.1.7.1.7.7.5.7.7.7.5.5.5.5.5.%.=.>.7.1.7.7.1.7.1.7.7.1.7.7.7.@.=.1.1.7.1.7.1.7.1.4.7.7.4.1.7.%.=.>.4.1.7.1.7.7.7.7.1.7.7.7.7.",
"@.=.1.1.4.5.7.7.7.7.7.7.5.5.5.5.@.=.1.1.7.7.7.7.7.7.7.7.7.7.1.1.%.=.>.7.1.7.7.7.7.1.7.7.7.7.7.7.%.=.>.7.7.7.7.4.7.7.7.7.7.7.7.1."
};
