/* XPM */
static char *exit1[] = {
/* columns rows colors chars-per-pixel */
"64 64 90 1 ",
"  c #010101",
". c #0C0907",
"X c #0E0A09",
"o c #170C02",
"O c #17100D",
"+ c #18110E",
"@ c #101010",
"# c #1B1B1B",
"$ c #2E1705",
"% c #211713",
"& c #221814",
"* c #251E1C",
"= c #2D1F1A",
"- c #29221F",
"; c #36251E",
": c #242424",
"> c #2B2421",
", c #2F2825",
"< c #2C2C2C",
"1 c #352621",
"2 c #382720",
"3 c #362823",
"4 c #392A25",
"5 c #302D2B",
"6 c #34312F",
"7 c #333333",
"8 c #3B3634",
"9 c #3C3C3C",
"0 c #442206",
"q c #452308",
"w c #49270C",
"e c #4B290F",
"r c #5B2E09",
"t c #442611",
"y c #432A1C",
"u c #66350F",
"i c #723A0C",
"p c #663610",
"a c #422D25",
"s c #402F2A",
"d c #4D352C",
"f c #52392F",
"g c #553A30",
"h c #5A3E33",
"j c #634237",
"k c #644539",
"l c #434343",
"z c #4D4D4D",
"x c #5B4C46",
"c c #535353",
"v c #5C5C5C",
"b c #646464",
"n c #6A6A6A",
"m c #737373",
"M c #7B7B7B",
"N c #87430A",
"B c #88440D",
"V c #8A4710",
"C c #8D4A14",
"Z c #914E18",
"A c #9F5111",
"S c #95511D",
"D c #A05213",
"F c #B75E15",
"G c #CB620D",
"H c #CC6512",
"J c #CD6916",
"K c #CF6B1A",
"L c #D36D1C",
"P c #D6701F",
"I c #CE7125",
"U c #D77121",
"Y c #DA7424",
"T c #DD7728",
"R c #D37A30",
"E c #D17F3D",
"W c #E07A2C",
"Q c #D1803E",
"! c #D88A49",
"~ c #D48E56",
"^ c #DD9962",
"/ c #D79D6E",
"( c #E3AB7D",
") c #848484",
"_ c #8B8B8B",
"` c #919191",
"' c #DCB99D",
"] c #EECCB1",
"[ c gray90",
"{ c white",
/* pixels */
"zzzzzzzzzzzzzzzzzzzzzzzzzzzzzzzzzzzzzzzzzzzzzzzzzzzzzzzzzzzzzzzz",
"zzzzzczzlzzzzzzzzzzzzzzzzzzzzzzzzzzzzzzzzzzzzzzzzzzzzzzzzzzzzzzz",
"zcczcccczzcczczzzcczzzcczzzczccczcccczzczzcczccczczccczczzzccczc",
"cvcccccczzccccccvccccvcczzccvccczcccccvczzzcccccccvccvcclzcccccc",
"cvvvvvvvzzcvcvvvvvvvvvvvzzzcvvcvcvvvvvvvzzcccvccvvcvvcvvzzccvvcv",
"vvvvvvvvzzcvvcvvvvvvvvvvzzcvvvvvvvvvvvvvzzcvvvvvvvvvvvvvzccvvcvv",
"vbvvvvbvzzcvvvvvvvbvvvvvzzvvvvvvvvvvvvvvzccvvvbvvvvvvvvbzzcvvvvv",
"vvvvvvvvccvvvvvvvvvvvvvbzzcvvvvvvbvbvvbvzzvvvbvvvvvbvbvvzcvvbvvv",
"zzzzzzzzzzzzzzzzzzzzzzzzzzzzzzzzzzzzzzzzzzzzzzzzzzzzzzzzzzzzzzzz",
"zzzzzzzzzzzzzzzzzzzzzzzz<777<77577777<7778lzzzzczzzzzzzzzzzzzzzz",
"zzzcczczcccccczczzzccczz#################<9zczcczzzcccczzzczcccc",
"zzcccccccccccccczzccvccc                 #9vccvczzccccccvccvvccc",
"zzccvcvvvvvvvvvvzcccv7# mMMMMM))))___````b7 vvvvzccccvcvvcvvvcvv",
"zzcvvvvvvvvvvvvvzzcv777:mMMmMmMMM))_____`nz<9zcvlzcvvvvvvvvvvvvv",
"zccvvvvvvvvvvvvvzcvv:<8zmmmmmmmmMM)M))_)_Mnv#7zvzcvvvvvvvvvvvvvv",
"zccvbvvvvvvvvbvvzccv <zmmnmmmmmmmmMMM)))))_).:lvzzvvvvbvvbvbvbvv",
"zzzzzzzzzzzczzzzz7#.mz:                     Mc<.zzzzzzzzzzzzzzzz",
"zzzzzzzzzzzzzzzzz7# z81#&&&&&&%%%%&+%&&&&&&*x8# zzzzzzzzzzzzzzzz",
"cccccczczzczzcczc7# :54aaaaaaaaaaayaaaaaaaa41#@.zczzczczzzzczczz",
"cccccccczzzcccccc8#  +ajjjjkjjjjjjjjjjjjjjjk    cccvvccvzzzccccc",
"vvvcvvvvzzcvccvvv9#  &ajkjjjjjjjjjjjjjjjjjjj   .vvvvvcvczccvvvcv",
"vvvvvvvvzzcvvvvvv9: &2dkjjjjadhjjjjjadgjjjhd&+X vvvvvvvvzzcvvvvv",
"vvbvvvvvzccvvvvvvl# sghkkjjj%;djjjjj%;dhjjjfa=+ vvbvbvvbzzcvvvvv",
"vvvvvbvvzcvvvvvvv9- kkkkkkjj %ajjjjj %ajjjjkka* vvvvvvbvzccbvbvv",
"zzzzzzzzzzzzzzzzz7# kkkkkkjj &akjjkk %ajjjjhjy& zzzzzzzzzzzzzzzz",
"zzzzzzzzzzzzzczzz9<#sfhkkkkk&2dkjjjk%;djjjjja;>#zzzzzzzzzzzzzzzz",
"zczzczccccczcccczz97&2fkjjkk4dhkkkkkadgjjjjj%*59zzzczccczcccczcc",
"zzzcvccccccccccczzzz &skjjjjkkkkkkkkjjjjjjjj #8czzzvcccccccccvcc",
"zzcvvccccvvvvvvvzzcvc7# kjjjjkjjkkkkjkjkja% vvvvzzcccvvcvcvvvvcv",
"zzcvvvvvvvvvvvvvzzcvvz7#aaaaaaaaaaaaaaaaa4-#vvvvzzcvcvvvvvvvvvvv",
"zzcvvvvvvvvvvvvvzzvvvcz9&&%%&%%%&&%%&%&&&:79vvvvzzcvvvvvvvvvbvvv",
"zcvvvbbvvbvvbvvvzzvvvvvv                 #lnvvvvzcvvvbvbvvbvvvvb",
"zzzzzzzzzzzzzzzzzzzzz7# HJKKHHHHGGGHHHJLHB0 zzzzzzzzzzzzzzzzzzzz",
"zzzzzzzzzzzzzzzzzzzz7,*%BAFKHHHHGIE~^!RJBut%78zzzzzzzzzzzzzzzzzz",
"czzcccczzzzczczccccc#*1aqiDKHHHHGE/'](!J0tya#<9zczzzzcczzzzczczc",
"cvcvcccczzzvcccccccc +aj 0BKHHHHG~'[{]^H %aj #7cccvcvccczzzcczcc",
"ccvvvvvvzzcvccvvcvvv &ak 0BHKHHHGGGHJJJH %ak #9cvvvvvcvvzzzvvvvv",
"vvvvvvvvzzzvvvvvvvvv %ak%tpBLJJHGHHHKFAB#4fk #9vvvvvvvvvzzcvvvvv",
"vvvvvvvvzccvvvvbvvvv &dksyt0LJHHGGHHKDi0sfkk #9vvvvbvvvbzzcvvvvv",
"vvbvvvbvzzvvvvvvvvvv &skka& LLJHGGHHKVq kkkk #lnvvvvvbvvccvvvvvv",
"zzzzzzzzzzzzzzzzczzz %akka& YTWWWWWWWSe kkkk #7zzzzzzzzzzzzzzzzz",
"zzzzzzzzzzzzzzzzzzcz#*2sa-+ PYYTYYYYYZe asds#<9zzzzzzzzzzzzzzzzz",
"zzzcczczcccczzcczzcz85>&&+X LLLLLLLLLCq %%%%8lzzzzczzzcccccccccz",
"zzczcccvcccccvccczzcv7#     HHHHHHHHJV0     cccczzcccccccccccccv",
"zzcccccvvvccvvvvzzcvvcvvv9# HHHH 0NGGN0 vccvvvvvzcccvvvcvvvvvvvv",
"zzcvvvvvvvvvvvvvzzcvvvvvv9# GHGG 0NHHN0 vvvvcvvvzzcvvvvvvvvvvvvv",
"zcvvvvvvvvvvvvvvzccvvvvvvl# GHHH 0NHHN0 vvvvbvvvzzcvvvvvvvvbvbvv",
"zcvvvbbvvbvvbvvvzcvvvvvvvl# GGHH 0NHGN0 vvvbnvvbzzvvvvvvvvvvvvvv",
"zzzzzzzzzzzzzzzzzzzzzzzzz7# JHHH qNHHVq zzzzzzzzzzzzzzzzzzzzzzzz",
"zzzzzzzzzzzzzzzzzzzzzzzzz7# KHHH qNHHBq zzzzzzzzzzzzzzzzzzczzzzz",
"czzczcczzzzczccczcczccccz<# JJHH 0NHKB0 zzzcccczcccczccczzzzczzc",
"cvccvccczzccccczvcccccccz7# HJHH 0NHKV0 zzzcccccccccvccczzzzcvcc",
"vcvvvvvvzzzcvccvvcvvvvvvz7# GHHK 0VJHN0 zzcvccvccvvvvvvvzzcvcvvc",
"vvvvvvvvzzcvvvvvvvvvvvvvz7# NNBV $rBBr$ zzcvvvvvvvvvvvvvzzcvvvvv",
"vvbvvvvbzccvvvvvvvbvvvbvl7# q0q0 o$qq$o zzcvvvvvvbvvvbvvzzcbvvvv",
"vvvvvvvvzcvvvbvvvvvvvvvvz7#             zzcbvvbvvvvvvvvvzccbvvvv",
"zzzzzzzzzzzczzzzzzzczzzzzzzzzzzzzzzzzzzzzzzzzzzzzzzzzzzzzzzzzzzz",
"zzzzzzzzzzzzzzzzzzzzzzzzzzzzzzzzzzzzzzzzzzzzzzzzzzzzzzzzzzzzzzzz",
"zzzczczczzczzcczzzzccczzzcccczczzzzccczczcczcccczzzczczczzccczcc",
"zzczccccvccvvccvzzzzcccvccccvccczzzzcccccvcccccczzczcccccvccccvc",
"zzcvcvvcvvvvvvvvzzccvccvvcvvvvvvzzccvcvvvvvvvcvvzzcvcvvvvvvvvvcv",
"zzcvvvcvvvvvvvvvzzcvvvvvvvvvvvvvzzcvvvvvvvcvvvvvzzcvvvvcvvvvvvvv",
"zzcvvvvvvvvvbvvvzzcvvvvvvvvvvbvvzcvvvvvvvvvvvvvbzzvvvvvvvvvvvvvv",
"zcvvvbnvvvvvvvvvzcvvbvbvvvbvvvvvzccbvvvvvvvvnbvvzzvvvvbvvvvvnbvv"
};
