/* XPM */
static char *_c52c17d86dc4b56b365f0d24297cdb7uXPDbMTtNtLAkBN8[] = {
/* columns rows colors chars-per-pixel */
"64 64 57 1 ",
"  c black",
". c #010101",
"X c #060606",
"o c #0C0C0C",
"O c #131313",
"+ c #191919",
"@ c #202020",
"# c gray15",
"$ c #2D2D2D",
"% c gray20",
"& c #393939",
"* c #06186D",
"= c #07196E",
"- c #081A6E",
"; c #091C6E",
": c #0B1E6E",
"> c #0B1E6F",
", c #0C1E6F",
"< c #0E2070",
"1 c #182B79",
"2 c gray25",
"3 c #464646",
"4 c #4B4B4B",
"5 c gray32",
"6 c #535353",
"7 c gray33",
"8 c #555555",
"9 c #565656",
"0 c gray34",
"q c #585858",
"w c gray35",
"e c #5A5A5A",
"r c #5B5B5B",
"t c gray36",
"y c #5D5D5D",
"u c gray37",
"i c #A76E59",
"p c #A76F5A",
"a c #A86F5A",
"s c #A8705B",
"d c #A9705C",
"f c #A9715D",
"g c #A9725D",
"h c #AA725E",
"j c #AA735F",
"k c #AB745F",
"l c #AB7460",
"z c #AB7561",
"x c #AC7661",
"c c #AC7662",
"v c #AC7663",
"b c #AD7764",
"n c #AD7864",
"m c #AE7A66",
"M c #AE7A67",
"N c #D8C300",
"B c #FFE500",
/* pixels */
"4444444444444444444444444444444444444444444444444444444444444444",
"4444444444444444444444444444444444444444444444444444444444444444",
"6666888844666666666688884466666666688888446666666666888844666666",
"8888888844888888888888884488888888888888448888888888888844888888",
"wwwwwwww4488888wwwwwwwww4488888wwwwwwwww448888wwwwwwwwww4488888w",
"wttwwwwt44wwwwwwwwwwwtwt44wwwwwwwtttwwwt44wwwwwwwttwwwwt44wwwwww",
"tttttttt44tttttttttttttt44tttttttttttttt44tttttttttttttt44tttttt",
"tttttttt44tttttttttttttt44tttttttttttttt44tttttttttttttt44tttttt",
"4444444444444444444444444444444444444444444444444444444444444444",
"4444444444444444444444444444444444444444444444444444444444444444",
"446666666666888844666666                  6688884466666666668888",
"448888888888888844888888                  8888884488888888888888",
"448888wwwwwwwwww448888  ooOO++@@##%%&&2233  wwww448888wwwwwwwwww",
"44wwwwwwwwwwwtwt44wwww  ooOO++@@##%%&&2233  wwwt44wwwwwwwwwwwtwt",
"44tttttttttttttt44tt            XXOO++@@##$$  tt44tttttttttttttt",
"44tttttttttttttt44tt            XXOO++@@##$$  tt44tttttttttttttt",
"444444444444444444                          OO  4444444444444444",
"444444444444444444                          OO  4444444444444444",
"666688884466666866    jjjjzzccjjppaassjjjjjj    6666888844666668",
"8888888w4488888888    jjjjzzccjjppaassjjjjjj    8888888w44888888",
"wwwwwwww4488888www    zzjjjjccjjssssjjzzjjjj    wwwwwwww4488888w",
"wwwwwwwt44wwwwwwww    zzjjjjccjjssssjjzzjjsa    wwwwwwwt44wwwwww",
"tttttttt44tttttttt  nnnn                  aajj  tttttttt44tttttt",
"tttttttt44tttttttt  nnnn        jj        aajj  tttttttt44tttttt",
"444444444444444444  nnnnz      cnnk      sjjpp  4444444444444444",
"444444444444444444  nnnnzz    ccnnkk    ssjjpp  4444444444444444",
"44666666668888884466  zzjjjjccnnnnzzzzjjjjjj  884466666666688888",
"44888888888888884488  zzjjjjccnnnnzzzzjjjjjj  8w4488888888888888",
"4488888wwwwwwwww448888  zzzzjjz    cnnccjj  wwww4488888wwwwwwwww",
"44wwwwwwwtttwwwt44wwww  zzzzjjzznnccnnccjj  wwtt44wwwwwwwtttwwwt",
"44tttttttttttttt44tttttt                  tttttt44tttttttttttttt",
"44tttttttttttttt44tttttt                  tttttt44tttttttttttttt",
"4444444444444444444444  ;;<<;;;;==;;;,<<,;  44444444444444444444",
"4444444444444444444444  ;;<<;;;;==;;;;<<;;  44444444444444444444",
"66668888446666666666  jj  ;;;;;;==BBNN;;  kj  666666888844666666",
"88888888448888888888  jj  ;;;;;;==BBNN;;  jj  888888888844888888",
"wwwwwwww4488888wwwww  nn  ;;,,;;==;;,,;;  nn  8wwwwwwwww448888ww",
"wwwwttwt44wwwwwwwwww  nn  ;;,,;;==;;,,;;  nn  wwwtttwwwt44wwwwww",
"tttttttt44tttttttttt  nnbb  <<;;--;;<<  bbnn  tttttttttt44tttttt",
"tttttttt44tttttttttt  nnbb  <<;;--;;<<  bbnn  tttttttttt44tttttt",
"44444444444444444444  nncc  1111111111  bbnn  444444444444444444",
"44444444444444444444  nncc  1111111111  ccnn  444444444444444444",
"4466666666668888446666      ;;;;;;;;;;      88884466666666668888",
"4488888888888888448888      ;;;;;;;;;;      8888448888888888888w",
"4488wwwwwwwwwwww4488888www  ;;==  ==;;  wwwwwwww4488wwwwwwwwwwww",
"44wwwwwwwttwwwwt44wwwwwwww  ;;==  ==;;  wttwwwwt44wwwwwwwwwwwwwt",
"44tttttttttttttt44tttttttt  --;;  ;;--  tttttttt44tttttttttttttt",
"44tttttttttttttt44tttttttt  --;;  ;;--  tttttttt44tttttttttttttt",
"44444444444444444444444444  ;;;;  ;;;;  444444444444444444444444",
"44444444444444444444444444  ;;;;  ;;;;  444444444444444444444444",
"66668888446666666666888844  ,,;;  ;;,,  446666666666888844666666",
"88888888448888888888888844  ,,;;  ;;,,  448888888888888844888888",
"wwwwwwww4488888wwwwwwwww44  ;;,,  ,,;;  4488888wwwwwwwww4488888w",
"wttwwwwt44wwwwwwwttwwwwt44  ;;,,  ,,;;  44wwwwwwwttwwwwt44wwwwww",
"tttttttt44tttttttttttttt44              44tttttttttttttt44tttttt",
"tttttttt44tttttttttttttt44              44tttttttttttttt44tttttt",
"4444444444444444444444444444444444444444444444444444444444444444",
"4444444444444444444444444444444444444444444444444444444444444444",
"4466666666668888446666666666888844666666666688884466666666668888",
"4488888888888888448888888888888844888888888888884488888888888888",
"448888wwwwwwwwww448888wwwwwwwwww448888wwwwwwwwww448888wwwwwwwwww",
"44wwwwwwwwwwwtwt44wwwwwwwwwwwtwt44wwwwwwwwwwwtwt44wwwwwwwwwwwtwt",
"44tttttttttttttt44tttttttttttttt44tttttttttttttt44tttttttttttttt",
"44tttttttttttttt44tttttttttttttt44tttttttttttttt44tttttttttttttt"
};
