/* XPM */
static char *aaf640ff367e4846b8a0bc2ef43ab0a6MvozC5LC2PWFh30I[] = {
/* columns rows colors chars-per-pixel */
"64 64 49 1 ",
"  c black",
". c #010101",
"X c #060606",
"o c #0C0C0C",
"O c #131313",
"+ c #191919",
"@ c #202020",
"# c gray15",
"$ c #2D2D2D",
"% c gray20",
"& c #393939",
"* c #0B1E6F",
"= c #0C1E6F",
"- c #0E2071",
"; c #102272",
": c #112474",
"> c #132675",
", c #152977",
"< c #162A77",
"1 c #172A78",
"2 c #182B79",
"3 c gray25",
"4 c #464646",
"5 c #4B4B4B",
"6 c gray32",
"7 c #535353",
"8 c gray33",
"9 c #555555",
"0 c #565656",
"q c gray34",
"w c #585858",
"e c gray35",
"r c #5A5A5A",
"t c #5B5B5B",
"y c gray36",
"u c #5D5D5D",
"i c gray37",
"p c #A76F5A",
"a c #A86F5A",
"s c #A8705B",
"d c #A9705C",
"f c #A9715D",
"g c #A9725D",
"h c #AA725E",
"j c #AB745F",
"k c #AB7561",
"l c #AC7662",
"z c #AC7663",
"x c #AE7A66",
/* pixels */
"5555555555555555555555555555555555555555555555555555555555555555",
"5555555555555555555555555555555555555555555555555555555555555555",
"7777999955777777777799995577777777799999557777777777999955777777",
"9999999955999999999999995599999999999999559999999999999955999999",
"eeeeeeee5599999eeeeeeeee5599999eeeeeeeee559999eeeeeeeeee5599999e",
"eyyeeeey55eeeeeeeeeeeyey55eeeeeeeyyyeeey55eeeeeeeyyeeeey55eeeeee",
"yyyyyyyy55yyyyyyyyyyyyyy55yyyyyyyyyyyyyy55yyyyyyyyyyyyyy55yyyyyy",
"yyyyyyyy55yyyyyyyyyyyyyy55yyyyyyyyyyyyyy55yyyyyyyyyyyyyy55yyyyyy",
"5555555555555555555555555555555555555555555555555555555555555555",
"5555555555555555555555555555555555555555555555555555555555555555",
"5577777777779999557777                  777799995577777777779999",
"5599999999999999559999                  9999999e5599999999999999",
"559999eeeeeeeeee5599  ooOO++@@##%%&&3344  eeeeee559999eeeeeeeeee",
"55eeeeeeeeeeeyey55ee  ooOO++@@##%%&&3344  eeeeey55eeeeeeeeeeeyey",
"55yyyyyyyyyyyyyy55            XXOO++@@##$$  yyyy55yyyyyyyyyyyyyy",
"55yyyyyyyyyyyyyy55            XXOO++@@##$$  yyyy55yyyyyyyyyyyyyy",
"5555555555555555                          OO  555555555555555555",
"5555555555555555                          OO  555555555555555555",
"7777999955777779                    ddddssdd  777777999955777779",
"9999999e55999999                    ddddssdd  999999999e55999999",
"eeeeeeee5599999e                  ddkkssssdd  9eeeeeeeee5599999e",
"eeeeeeey55eeeeee                  ddkkasssdd  eeeeeeeeey55eeeeee",
"yyyyyyyy55yyyyyy                ddd           yyyyyyyyyy55yyyyyy",
"yyyyyyyy55yyyyyy                ddd        d  yyyyyyyyyy55yyyyyy",
"5555555555555555                ddaa      pp  555555555555555555",
"5555555555555555                ddaas    dpp  555555555555555555",
"557777777799999955            ddkkkkddddddaa  995577777777799999",
"559999999999999955            ddkkkkddddddaa  9e5599999999999999",
"5599999eeeeeeeee5599          ddllxxlljjaa  eeee5599999eeeeeeeee",
"55eeeeeeeyyyeeey55ee          ddllxxlljjaa  eeyy55eeeeeeeyyyeeey",
"55yyyyyyyyyyyyyy55yyyy                    yyyyyy55yyyyyyyyyyyyyy",
"55yyyyyyyyyyyyyy55yyyy                    yyyyyy55yyyyyyyyyyyyyy",
"55555555555555555555555555  ********  55555555555555555555555555",
"55555555555555555555555555  ********  55555555555555555555555555",
"77779999557777777777999955  **  ==    99557777777777999955777777",
"99999999559999999999999955  **  ==    99559999999999999955999999",
"eeeeeeee5599999eeeeeeeee55  ==  xx    ee5599999eeeeeeeee559999ee",
"eeeeyyey55eeeeeeeyyyeeey55  ==  xx    ey55eeeeeeeyyyeeey55eeeeee",
"yyyyyyyy55yyyyyyyyyyyyyy55  --  jjxx    55yyyyyyyyyyyyyy55yyyyyy",
"yyyyyyyy55yyyyyyyyyyyyyy55  --  jjxx    55yyyyyyyyyyyyyy55yyyyyy",
"55555555555555555555555555  ;;;;  jjjj  555555555555555555555555",
"55555555555555555555555555  ;;;;  jjjj  555555555555555555555555",
"55777777777799995577777777  ::::::      777799995577777777779999",
"55999999999999995599999999  ::::::      99999999559999999999999e",
"5599eeeeeeeeeeee5599ee9eee  22222222  eeeeeeeeee5599eeeeeeeeeeee",
"55eeeeeeeyyeeeey55eeeeeeee  22222222  eeeyyeeeey55eeeeeeeeeeeeey",
"55yyyyyyyyyyyyyy55yyyyyyyyyy  ,,,,  yyyyyyyyyyyy55yyyyyyyyyyyyyy",
"55yyyyyyyyyyyyyy55yyyyyyyyyy  ,,,,  yyyyyyyyyyyy55yyyyyyyyyyyyyy",
"5555555555555555555555555555  1122  5555555555555555555555555555",
"5555555555555555555555555555  1122  5555555555555555555555555555",
"7777999955777777777799995577  2222  9999557777777777999955777777",
"9999999955999999999999995599  2222  9999559999999999999955999999",
"eeeeeeee5599999eeeeeeeee5599  2222  eeee5599999eeeeeeeee5599999e",
"eyyeeeey55eeeeeeeyyeeeey55ee  2222  eeey55eeeeeeeyyeeeey55eeeeee",
"yyyyyyyy55yyyyyyyyyyyyyy55yy  2222  yyyy55yyyyyyyyyyyyyy55yyyyyy",
"yyyyyyyy55yyyyyyyyyyyyyy55yy  2222  yyyy55yyyyyyyyyyyyyy55yyyyyy",
"5555555555555555555555555555        5555555555555555555555555555",
"5555555555555555555555555555        5555555555555555555555555555",
"5577777777779999557777777777999955777777777799995577777777779999",
"5599999999999999559999999999999955999999999999995599999999999999",
"559999eeeeeeeeee559999eeeeeeeeee559999eeeeeeeeee559999eeeeeeeeee",
"55eeeeeeeeeeeyey55eeeeeeeeeeeyey55eeeeeeeeeeeyey55eeeeeeeeeeeyey",
"55yyyyyyyyyyyyyy55yyyyyyyyyyyyyy55yyyyyyyyyyyyyy55yyyyyyyyyyyyyy",
"55yyyyyyyyyyyyyy55yyyyyyyyyyyyyy55yyyyyyyyyyyyyy55yyyyyyyyyyyyyy"
};
