/* XPM */
static char *_fc39a5ba1d34c97a6c00064b1f21b4fWKr73HUlg0ScsCSN[] = {
/* columns rows colors chars-per-pixel */
"64 64 57 1 ",
"  c black",
". c #020202",
"X c gray1",
"o c #040404",
"O c #070707",
"+ c gray3",
"@ c #090909",
"# c gray5",
"$ c #0E0E0E",
"% c gray6",
"& c gray7",
"* c #131313",
"= c gray8",
"- c gray9",
"; c #181818",
": c #191919",
"> c #1D1D1D",
", c #1E1E1E",
"< c #222222",
"1 c #232323",
"2 c gray14",
"3 c #282828",
"4 c gray16",
"5 c #06186D",
"6 c #07196E",
"7 c #081A6E",
"8 c #091C6E",
"9 c #0B1E6E",
"0 c #0B1E6F",
"q c #0C1E6F",
"w c #0E2070",
"e c #182B79",
"r c #4B4B4B",
"t c gray32",
"y c #535353",
"u c gray33",
"i c #555555",
"p c #565656",
"a c gray34",
"s c #585858",
"d c gray35",
"f c #5A5A5A",
"g c #5B5B5B",
"h c gray36",
"j c #5D5D5D",
"k c gray37",
"l c #A9705C",
"z c #AA735F",
"x c #AB745F",
"c c #AB7460",
"v c #AB7561",
"b c #AC7662",
"n c #AC7663",
"m c #AD7764",
"M c #AD7864",
"N c #AE7A66",
"B c #AE7A67",
/* pixels */
"rrrrrrrrrrrrrrrrrrrrrrrrrrrrrrrrrrrrrrrrrrrrrrrrrrrrrrrrrrrrrrrr",
"rrrrrrrrrrrrrrrrrrrrrrrrrrrrrrrrrrrrrrrrrrrrrrrrrrrrrrrrrrrrrrrr",
"yyyyiiiirryyyyyyyyyyiiiirryyyyyyyyyiiiiirryyyyyyyyyyiiiirryyyyyy",
"iiiiiiiirriiiiiiiiiiiiiirriiiiiiiiiiiiiirriiiiiiiiiiiiiirriiiiii",
"ddddddddrriiiiidddddddddrriiiiidddddddddrriiiiddddddddddrriiiiid",
"dhhddddhrrdddddddddddhdhrrdddddddhhhdddhrrdddddddhhddddhrrdddddd",
"hhhhhhhhrrhhhhhhhhhhhhhhrrhhhhhhhhhhhhhhrrhhhhhhhhhhhhhhrrhhhhhh",
"hhhhhhhhrrhhhhhhhhhhhhhhrrhhhhhhhhhhhhhhrrhhhhhhhhhhhhhhrrhhhhhh",
"rrrrrrrrrrrrrrrrrrrrrrrrrrrrrrrrrrrrrrrrrrrrrrrrrrrrrrrrrrrrrrrr",
"rrrrrrrrrrrrrrrrrrrrrrrrrrrrrrrrrrrrrrrrrrrrrrrrrrrrrrrrrrrrrrrr",
"rryyyyyyyyyyiiiirryyyyyy                  yyiiiirryyyyyyyyyyiiii",
"rriiiiiiiiiiiiiirriiiiii                  iiiiiirriiiiiiiiiiiiii",
"rriiiiddddddddddrriiii    oo@@%%--;;>>2233  ddddrriiiidddddddddd",
"rrdddddddddddhdhrrdddd    oo@@%%--;;>>2233  dddhrrdddddddddddhdh",
"rrhhhhhhhhhhhhhhrrhh        oo@@%%--;;>>1133  hhrrhhhhhhhhhhhhhh",
"rrhhhhhhhhhhhhhhrrhh        oo@@%%--;;>>1133  hhrrhhhhhhhhhhhhhh",
"rrrrrrrrrrrrrrrrrr              @@%%**;;>>1133  rrrrrrrrrrrrrrrr",
"rrrrrrrrrrrrrrrrrr              @@%%**;;>>1133  rrrrrrrrrrrrrrrr",
"yyyyiiiirryyyyyiyy                @@%%**;;>>11  yyyyiiiirryyyyyi",
"iiiiiiidrriiiiiiii                @@%%**;;>>11  iiiiiiidrriiiiii",
"ddddddddrriiiiiddd                  @@%%**-->>  ddddddddrriiiiid",
"dddddddhrrdddddddd                  @@%%**-->>  dddddddhrrdddddd",
"hhhhhhhhrrhhhhhhhh                    @@%%**--  hhhhhhhhrrhhhhhh",
"hhhhhhhhrrhhhhhhhh                    @@%%**--  hhhhhhhhrrhhhhhh",
"rrrrrrrrrrrrrrrrrr                      oo      rrrrrrrrrrrrrrrr",
"rrrrrrrrrrrrrrrrrr                      oo      rrrrrrrrrrrrrrrr",
"rryyyyyyyyiiiiiirryy  vv                  zz  iirryyyyyyyyyiiiii",
"rriiiiiiiiiiiiiirrii  vv                  zz  idrriiiiiiiiiiiiii",
"rriiiiidddddddddrriiii  vvvvzzvvMMnnMMnnxx  ddddrriiiiiddddddddd",
"rrdddddddhhhdddhrrdddd  vvvvzzvvMMnnMMnnxx  ddhhrrdddddddhhhdddh",
"rrhhhhhhhhhhhhhhrrhhhhhh                  hhhhhhrrhhhhhhhhhhhhhh",
"rrhhhhhhhhhhhhhhrrhhhhhh                  hhhhhhrrhhhhhhhhhhhhhh",
"rrrrrrrrrrrrrrrrrrrrrr  88ww888866888qwwq8  rrrrrrrrrrrrrrrrrrrr",
"rrrrrrrrrrrrrrrrrrrrrr  88ww8888668888ww88  rrrrrrrrrrrrrrrrrrrr",
"yyyyiiiirryyyyyyyyyy  zz  88888866888888  xz  yyyyyyiiiirryyyyyy",
"iiiiiiiirriiiiiiiiii  zz  88888866888888  zz  iiiiiiiiiirriiiiii",
"ddddddddrriiiiiddddd  MM  88qq886688qq88  MM  idddddddddrriiiidd",
"ddddhhdhrrdddddddddd  MM  88qq886688qq88  MM  dddhhhdddhrrdddddd",
"hhhhhhhhrrhhhhhhhhhh  MMmm  ww887788ww  mmMM  hhhhhhhhhhrrhhhhhh",
"hhhhhhhhrrhhhhhhhhhh  MMmm  ww887788ww  mmMM  hhhhhhhhhhrrhhhhhh",
"rrrrrrrrrrrrrrrrrrrr  MMnn  eeeeeeeeee  mmMM  rrrrrrrrrrrrrrrrrr",
"rrrrrrrrrrrrrrrrrrrr  MMnn  eeeeeeeeee  nnMM  rrrrrrrrrrrrrrrrrr",
"rryyyyyyyyyyiiiirryyyy      8888888888      iiiirryyyyyyyyyyiiii",
"rriiiiiiiiiiiiiirriiii      8888888888      iiiirriiiiiiiiiiiiid",
"rriiddddddddddddrriiiiiddd  8866  6688  ddddddddrriidddddddddddd",
"rrdddddddhhddddhrrdddddddd  8866  6688  dhhddddhrrdddddddddddddh",
"rrhhhhhhhhhhhhhhrrhhhhhhhh  7788  8877  hhhhhhhhrrhhhhhhhhhhhhhh",
"rrhhhhhhhhhhhhhhrrhhhhhhhh  7788  8877  hhhhhhhhrrhhhhhhhhhhhhhh",
"rrrrrrrrrrrrrrrrrrrrrrrrrr  8888  8888  rrrrrrrrrrrrrrrrrrrrrrrr",
"rrrrrrrrrrrrrrrrrrrrrrrrrr  8888  8888  rrrrrrrrrrrrrrrrrrrrrrrr",
"yyyyiiiirryyyyyyyyyyiiiirr  qq88  88qq  rryyyyyyyyyyiiiirryyyyyy",
"iiiiiiiirriiiiiiiiiiiiiirr  qq88  88qq  rriiiiiiiiiiiiiirriiiiii",
"ddddddddrriiiiidddddddddrr  88qq  qq88  rriiiiidddddddddrriiiiid",
"dhhddddhrrdddddddhhddddhrr  88qq  qq88  rrdddddddhhddddhrrdddddd",
"hhhhhhhhrrhhhhhhhhhhhhhhrr              rrhhhhhhhhhhhhhhrrhhhhhh",
"hhhhhhhhrrhhhhhhhhhhhhhhrr              rrhhhhhhhhhhhhhhrrhhhhhh",
"rrrrrrrrrrrrrrrrrrrrrrrrrrrrrrrrrrrrrrrrrrrrrrrrrrrrrrrrrrrrrrrr",
"rrrrrrrrrrrrrrrrrrrrrrrrrrrrrrrrrrrrrrrrrrrrrrrrrrrrrrrrrrrrrrrr",
"rryyyyyyyyyyiiiirryyyyyyyyyyiiiirryyyyyyyyyyiiiirryyyyyyyyyyiiii",
"rriiiiiiiiiiiiiirriiiiiiiiiiiiiirriiiiiiiiiiiiiirriiiiiiiiiiiiii",
"rriiiiddddddddddrriiiiddddddddddrriiiiddddddddddrriiiidddddddddd",
"rrdddddddddddhdhrrdddddddddddhdhrrdddddddddddhdhrrdddddddddddhdh",
"rrhhhhhhhhhhhhhhrrhhhhhhhhhhhhhhrrhhhhhhhhhhhhhhrrhhhhhhhhhhhhhh",
"rrhhhhhhhhhhhhhhrrhhhhhhhhhhhhhhrrhhhhhhhhhhhhhhrrhhhhhhhhhhhhhh"
};
