/* XPM */
static char *_54bfa14d918421899760a87a4a4dab5Ysj8wKsGzvUnl7RN[] = {
/* columns rows colors chars-per-pixel */
"64 64 49 1 ",
"  c black",
". c #010101",
"X c #060606",
"o c #0C0C0C",
"O c #131313",
"+ c #191919",
"@ c #202020",
"# c gray15",
"$ c #2D2D2D",
"% c gray20",
"& c #393939",
"* c #0B1E6F",
"= c #0C1E6F",
"- c #0E2071",
"; c #102272",
": c #112474",
"> c #132675",
", c #152977",
"< c #162A77",
"1 c #172A78",
"2 c #182B79",
"3 c gray25",
"4 c #464646",
"5 c #4B4B4B",
"6 c gray32",
"7 c #535353",
"8 c gray33",
"9 c #555555",
"0 c #565656",
"q c gray34",
"w c #585858",
"e c gray35",
"r c #5A5A5A",
"t c #5B5B5B",
"y c gray36",
"u c #5D5D5D",
"i c gray37",
"p c #A76F5A",
"a c #A86F5A",
"s c #A8705B",
"d c #A9705C",
"f c #A9715D",
"g c #A9725D",
"h c #AA725E",
"j c #AB745F",
"k c #AB7561",
"l c #AC7662",
"z c #AC7663",
"x c #AE7A66",
/* pixels */
"5555555555555555555555555555555555555555555555555555555555555555",
"5555555555555555555555555555555555555555555555555555555555555555",
"7777999955777777777799995577777777799999557777777777999955777777",
"9999999955999999999999995599999999999999559999999999999955999999",
"eeeeeeee5599999eeeeeeeee5599999eeeeeeeee559999eeeeeeeeee5599999e",
"eyyeeeey55eeeeeeeeeeeyey55eeeeeeeyyyeeey55eeeeeeeyyeeeey55eeeeee",
"yyyyyyyy55yyyyyyyyyyyyyy55yyyyyyyyyyyyyy55yyyyyyyyyyyyyy55yyyyyy",
"yyyyyyyy55yyyyyyyyyyyyyy55yyyyyyyyyyyyyy55yyyyyyyyyyyyyy55yyyyyy",
"5555555555555555555555555555555555555555555555555555555555555555",
"5555555555555555555555555555555555555555555555555555555555555555",
"55777777777799995577777777                  99995577777777779999",
"55999999999999995599999999                  99995599999999999999",
"559999eeeeeeeeee5599999e  4433&&%%##@@++OOoo  ee559999eeeeeeeeee",
"55eeeeeeeeeeeyey55eeeeee  4433&&%%##@@++OOoo  ey55eeeeeeeeeeeyey",
"55yyyyyyyyyyyyyy55yyyy  $$##@@++OOXX            55yyyyyyyyyyyyyy",
"55yyyyyyyyyyyyyy55yyyy  $$##@@++OOXX            55yyyyyyyyyyyyyy",
"55555555555555555555  OO                          55555555555555",
"55555555555555555555  OO                          55555555555555",
"77779999557777797777  ffssffff                    77999955777779",
"9999999e559999999999  ffssffff                    99999e55999999",
"eeeeeeee5599999eeeee  ffssaakkff                  eeeeee5599999e",
"eeeeeeey55eeeeeeeeee  ffssaakkff                  eeeeey55eeeeee",
"yyyyyyyy55yyyyyyyyyy           fff                yyyyyy55yyyyyy",
"yyyyyyyy55yyyyyyyyyy  f        fff                yyyyyy55yyyyyy",
"55555555555555555555  pp      aaff                55555555555555",
"55555555555555555555  ppf    saaff                55555555555555",
"55777777779999995577  aaffffffkkkkff            5577777777799999",
"55999999999999995599  aaffffffkkkkff            5599999999999999",
"5599999eeeeeeeee559999  aajjllxxllff          ee5599999eeeeeeeee",
"55eeeeeeeyyyeeey55eeee  aajjllxxllff          ey55eeeeeeeyyyeeey",
"55yyyyyyyyyyyyyy55yyyyyy                    yyyy55yyyyyyyyyyyyyy",
"55yyyyyyyyyyyyyy55yyyyyy                    yyyy55yyyyyyyyyyyyyy",
"5555555555555555555555555555  ********  555555555555555555555555",
"5555555555555555555555555555  ********  555555555555555555555555",
"7777999955777777777799995577    ==  **  557777777777999955777777",
"9999999955999999999999995599    ==  **  559999999999999955999999",
"eeeeeeee5599999eeeeeeeee5599    xx  ==  5599999eeeeeeeee559999ee",
"eeeeyyey55eeeeeeeyyyeeey55ee    xx  ==  55eeeeeeeyyyeeey55eeeeee",
"yyyyyyyy55yyyyyyyyyyyyyy55    xxjj  --  55yyyyyyyyyyyyyy55yyyyyy",
"yyyyyyyy55yyyyyyyyyyyyyy55    xxjj  --  55yyyyyyyyyyyyyy55yyyyyy",
"55555555555555555555555555  jjjj  ;;;;  555555555555555555555555",
"55555555555555555555555555  jjjj  ;;;;  555555555555555555555555",
"55777777777799995577777777      ::::::  777799995577777777779999",
"55999999999999995599999999      ::::::  99999999559999999999999e",
"5599eeeeeeeeeeee5599eeeeeeee  22222222  eeeeeeee5599eeeeeeeeeeee",
"55eeeeeeeyyeeeey55eeeeeeeeee  22222222  eyyeeeey55eeeeeeeeeeeeey",
"55yyyyyyyyyyyyyy55yyyyyyyyyyyy  ,,,,  yyyyyyyyyy55yyyyyyyyyyyyyy",
"55yyyyyyyyyyyyyy55yyyyyyyyyyyy  ,,,,  yyyyyyyyyy55yyyyyyyyyyyyyy",
"555555555555555555555555555555  2211  55555555555555555555555555",
"555555555555555555555555555555  2211  55555555555555555555555555",
"777799995577777777779999557777  2222  99557777777777999955777777",
"999999995599999999999999559999  2222  99559999999999999955999999",
"eeeeeeee5599999eeeeeeeee559999  2222  ee5599999eeeeeeeee5599999e",
"eyyeeeey55eeeeeeeyyeeeey55eeee  2222  ey55eeeeeeeyyeeeey55eeeeee",
"yyyyyyyy55yyyyyyyyyyyyyy55yyyy  2222  yy55yyyyyyyyyyyyyy55yyyyyy",
"yyyyyyyy55yyyyyyyyyyyyyy55yyyy  2222  yy55yyyyyyyyyyyyyy55yyyyyy",
"555555555555555555555555555555        55555555555555555555555555",
"555555555555555555555555555555        55555555555555555555555555",
"5577777777779999557777777777999955777777777799995577777777779999",
"5599999999999999559999999999999955999999999999995599999999999999",
"559999eeeeeeeeee559999eeeeeeeeee559999eeeeeeeeee559999eeeeeeeeee",
"55eeeeeeeeeeeyey55eeeeeeeeeeeyey55eeeeeeeeeeeyey55eeeeeeeeeeeyey",
"55yyyyyyyyyyyyyy55yyyyyyyyyyyyyy55yyyyyyyyyyyyyy55yyyyyyyyyyyyyy",
"55yyyyyyyyyyyyyy55yyyyyyyyyyyyyy55yyyyyyyyyyyyyy55yyyyyyyyyyyyyy"
};
