/* XPM */
static char *opps[] = {
/* columns rows colors chars-per-pixel */
"64 64 78 1 ",
"  c #000000",
". c #01040C",
"X c #0B0B0B",
"o c #120F0D",
"O c #020719",
"+ c #141414",
"@ c #181412",
"# c #1B1B1B",
"$ c #251D1B",
"% c #040A25",
"& c #080F29",
"* c #050D31",
"= c #07113D",
"- c #232323",
"; c #2B2B2B",
": c #302724",
"> c #342A26",
", c #372C29",
"< c #332E3C",
"1 c #323232",
"2 c #3B3634",
"3 c #3E3937",
"4 c #3C3C3B",
"5 c #443936",
"6 c #493B35",
"7 c #443C3A",
"8 c #4E3F39",
"9 c #67683E",
"0 c #75743D",
"q c #06134A",
"w c #09154B",
"e c #0D1A4F",
"r c #0A1856",
"t c #101D51",
"y c #1E2143",
"u c #0B1C63",
"i c #06186D",
"p c #0A1D6F",
"a c #0D1F70",
"s c #0E2171",
"d c #132675",
"f c #182B79",
"g c #222F61",
"h c #233163",
"j c #3C4556",
"k c #444444",
"l c #4C4C4C",
"z c #5D4B44",
"x c #4F554A",
"c c #5A5D49",
"v c #535353",
"b c #5C5C5C",
"n c #604D47",
"m c #624F48",
"M c #67524B",
"N c #6A564E",
"B c #635253",
"V c #6B5851",
"C c #7B635A",
"Z c #846B61",
"A c #92756A",
"S c #93786D",
"D c #948C25",
"F c #ACA125",
"G c #D8C300",
"H c #FFE500",
"J c #A38377",
"K c #A9877B",
"L c #AB897D",
"P c #B08C7E",
"I c #B18E81",
"U c #B39084",
"Y c #C29C8E",
"T c #C39E90",
"R c #CDA495",
"E c #D9AE9E",
"W c #DBB09F",
"Q c #DCB2A2",
/* pixels */
"lllllllllllllllklllllllllkllllllllllllllllklllllllllllllllllllll",
"lllvllllllllllllllllllllllllllllllllllllllllllllllllllllllllllll",
"vvvvvvvvlllvvvvvvvvvvvvvlllvvvvvvvvvvvvvllllvvvvlvvlvvvvklvvvvlv",
"vvvvvvbbllvvvvvvbvvvvvvbllvvvvvbvvvvvvvvllvvvvvvvvbvvbvblllvvvvv",
"bbbbbbbblvvvvbvbbbbbbbbbllvvbvbbbbbbbvbbllvbvbbbbbbbbbbblllbbvbb",
"vbbbbbbbllvbbbbbbbbbbbbbllvbbbbbbbbbbbbbllvbbbbbbbbbbbbbllvbbbbb",
"bbbbbbbbllbbbbbbbbbbbbbbllvbbbbbbbbbbbbblvbbbbbbbbbbbbbbllbbbbbb",
"bbbbbbbblvbbbbbbbbbbbbbbvlvbbbbbbbbbbbbbllbbbbbbbbbbbbbblvbbbbbb",
"lllljlllllllllllllllllvllkllllklvllllllxllllllllllllllllllllllll",
"llllxlllllllllllllllllll11111111211111;114klllllllllllllllllllll",
"lllvvvvvvvvvvvvvllvlvvvv#####+###########;4vlvvlkllvvvlvvvvvvvvv",
"lllvvvvvvvvvvvvvlllvvvvv                 #4vbbvbllvvvvvbvvvvvvbv",
"llvbbbbbbbbbbbbblvvvb4# XXX+###--;;1444kk1# bbbbvvvbbbbbbbbbbbbb",
"llvbbbbbbbbbbbbbllvb4;+ XXXX+X@+#--;11114;#+4kvbllvbbbbbbbbbbbbb",
"lvvbCbbbbbbbbbbblvvb#+X  XXXXXXXo+##--;;1;-##1lbllvbbbbbbbbbbbbb",
"lvvbbbbbbbbbbbbblvbb            .Xo+###--;;; #4blvbbbbbbbbbbbbbb",
"kllvllllllkllllll1#                         +XX llllllllllllllll",
"lllvlllllllvlllll1#  @:666666666666566666666XX  llllllllllllllll",
"vvvvvvvvllllvvvvv1#  :nAAAAASAAAAAAAAAAAAAAAX   lvvlvvvvklvvvvlv",
"vvvvvvvvvlvvvvvvv4#  6AEEEEEQWEEEEEEEEEEEEEE    vvbvbvbblllvvvvv",
"bbbbbvbbllvbbvbbb4#  6AEEEEEQEEEEEEEEEEEEEEE    bbbbbbbbllvvbvbb",
"bbbbbbbbllvbbbbbb4# 6CLQAAAASAAAZAAAAAAAAKYE6:@ bbbbbbbbllvbbbbb",
"bbbbbbbblvbbbbbbbk# SLTQ66666666ZNz666665CKEAz: bbbbbbbbllbbbbbb",
"bbbbbbbblvvbbbbbb4- QQQQ        SN>      6AEEA6 bbbbbbbblvbbbbbb",
"vllllllllllllllll1# QQQQI8o  o8UQQUn    nPEEEA6 lljlllllllllllll",
"lllllllllllllvlll4;#SLRQRAM66NSRQQRU6666LREEAM5#llxlllllllllllll",
"llvvvlvvvvvvvvvvlk446CLQQUKASLYQQQQWSAAAEEEW6634lllvvvvvvvvlvvvv",
"llvvvvvvvvvvvvbbllvv 6SQQEEEQQQQQQQQWEEEEEEE #4vlllvvvvvvvvbvvvb",
"llvvvbbbbbbbbbbblvvvb4# EEEEEEIz,,nUQQQQWA6 bbbbllvbbbbbbbbbbbbb",
"llvbbbbbbbbbbbbbllvbbk1-ASAAAAZNzzNZSSSSAV5#bbbbllvbbbbbbbbbbbbb",
"lvvbbbbbbbbbbbbbllvbbvl46666666666666866665jbbbblvvbCbbbbbbbbbbb",
"lvbbbbbbbbbbbbbblvbbbbbb                 $7bbbbblvvbbbbbbbbbbbbb",
"llllllllkllllllllllll1# ppasppppiiipppaspq% llllllllllllllllllll",
"llllllllllllllllllll1255qrusppppigjcxjhaqy<614klllllllllllllllll",
"lvvvvvvvllvvvvvvvvvv#2NA%=rpppppij0FD9jp%<BA@;klvvvvvvvvllvlvvvv",
"vvbvvvvbllvvvvvvvvvv 6AE %qppiiaicFHGDxp 6AE #4vvvvvvvvbkllvvvvv",
"bbvbbbbbllvvbbbvbvbb 6SQ %wapappippssppp 6SQ #4bbbbbbbbblvvbbvvb",
"bbbbbbbbllvbbbbbbbbb 8SQ8<ywaaaaiippaurw6CLQ #4bbbbbbbbbllvbbbbb",
"bbbbbbbblvvbbbbbbbbb 6SQSB<%sasaiippdr=%SLTQ #4bbbbbbbbblvbbbbbb",
"bbbbbbbbllbbbbbbbBbb 6SQWS6 aappspippw% QQQQ -kbbbbbbbbblvbbbbbb",
"vlllllllllllllllvxll 6SQWS6 ffffffffft& QQQQ #1lllllllllllllllll",
"llllllllllllllllllll#7VSSm: dfdsddddde& SSAS#;4lllllllllllllllll",
"llvlvvvvvvvvvvvvlllv43768:@ sssasspddw% 66664klblllllvvvvvvvvvvl",
"llvvvvvvvvbbvvvbllvvv4#     aappippipw%     vbvbvlvvvvvvvvvvvbvv",
"llvvbbvbbbbbvbbbllvbvbbbb3# pppi %qiiq% bbbbbbbblvvbbbbbbbbbbvbb",
"lvvbbvbbbbbbbbbbllvbbbbvb3# ppii %qipq% vbbbbbbbllvvbbbbbbbbbbbb",
"lvbbbbbbbbbbbbbblvbbbbbbbj# pipi %qpiq% bbbbbbbblvvbbbbbbbCbbbbb",
"llbbbbbbbbbbbbbblvbbbbbbb4$ ippp %qpiq% bbbbbbbblvbbbbbbbbbbbbbb",
"lllllllllllllllllllllllll1# pppp %qppw% lllllllljlllllllllllllll",
"lllllvlllllllllllllllvlvl1# appp %qpaq% llllllllxllvllllklllllll",
"vvvvvvvvllvvvvlvvvvvvvvvl1# pppp %qppq% kvvlvvvvvvvvvvvvllvllvlv",
"vvvvvvbbklvlvvvvvvvbvvvvl1# appp %qapw% lllvvvvvvvvvvbvblllvvvvv",
"bvbbbbbblvvvbvbbbbbbbbbbk1# pppa %wppq% llvbbbvvbbbbbbbblvvbbbvb",
"bbbbbbbbllvbbbbbbbbbbbbbl1# qqqw O*wq*O kvvbbbbbbbbbbbbbllvbbbbb",
"bbbbbbbbllbbbbbbbbbbbbbbl1+ %%%% .O%%O. lvvbbbbbbbbbbbbbllbbbbbb",
"bbbbbbbblvbbbbbbbbbbbbbbl1#             kvvbbbbbbbbbbbbblvbbbbbb",
"lllllllllllllllllkllllllllllllllllllllllklllklllllllllllllllllll",
"llllllllllvllllllllllllllllllllvllllllllvllvlvlljlllllljllllllvl",
"lllvlvvvvvvvvvvvlllvvvvvlvvvlvvvlllvvvvvvvvvvvvvlxvvvvvvvvvvvvvv",
"llvvvvvbvvvvbvvvllvvvvvvvvbvvvvvllvvvvvvvvbbvvvbllvvvvvvvvvvvvvv",
"llvvbbbbbbbbbvbbllvvbbbbbvbbbbbbllvbvvbbbbbbbbbbllvvbbbbbbbbbbbb",
"llvbbbbbbbbbbbbblvvbbbbbbbbbbbbblxvbbbbbbbbbbbbblxvbbbbbbbbbbbbb",
"llvbbbbbbbbbbbbbllbbbbbbbbbbbbbblvbbBbbbbbbbbbbbkvvbbCbbbbbbbbbb",
"lvbbbbbbbbbbbbbblvbbbbbbbbbbbbbblvbbbbbbbbbbbbbbllbbbbbbbbbbbbbb"
};
