/* XPM */
static char *p1[] = {
/* columns rows colors chars-per-pixel */
"64 64 79 1 ",
"  c #000000",
". c #0C0C0C",
"X c #170B02",
"o c #130D0B",
"O c #141414",
"+ c #1B1B1B",
"@ c #2D1704",
"# c #261A15",
"$ c #39261F",
"% c #232323",
"& c #2B2B2B",
"* c #392720",
"= c #372B26",
"- c #3A2822",
"; c #342F2C",
": c #3A2E29",
"> c #323232",
", c #3A3432",
"< c #3C3C3C",
"1 c #442206",
"2 c #452408",
"3 c #48270C",
"4 c #4B290F",
"5 c #5B2D09",
"6 c #54301A",
"7 c #723A0D",
"8 c #6E3A13",
"9 c #693A1A",
"0 c #4F3121",
"q c #4C332A",
"w c #553D34",
"e c #633E2D",
"r c #5F4035",
"t c #604237",
"y c #604338",
"u c #714B3E",
"i c #444444",
"p c #4C4C4C",
"a c #535353",
"s c #5C5C5C",
"d c #734E41",
"f c #745043",
"g c #874209",
"h c #88440D",
"j c #894710",
"k c #8C4912",
"l c #914E18",
"z c #9F5111",
"x c #95511D",
"c c #A05212",
"v c #B75D14",
"b c #CB630E",
"n c #CC6512",
"m c #CE6916",
"M c #CF6A19",
"N c #D36D1C",
"B c #CD7124",
"V c #DA7424",
"C c #D37A31",
"Z c #D07F3D",
"A c #E07A2C",
"S c #855B4C",
"D c #875E50",
"F c #976654",
"G c #9A6B5A",
"H c #A76F5A",
"J c #AA715D",
"K c #AC7561",
"L c #AE7966",
"P c #D0803D",
"I c #D98A4A",
"U c #D48F56",
"Y c #DE9A63",
"T c #D69D6D",
"R c #E3AB7D",
"E c #DCBA9D",
"W c #EECCB1",
"Q c gray90",
"! c white",
/* pixels */
"ppppppppppppppppppppppppppippppppppppppppppppppppppppppppppppppp",
"pppapppppppppppppppapppapppppppppppppppppppppppppppappppppappppp",
"aaaaaaaapppaaapaaaaaaaaappaaapaaaaaaaaaapppapapapaaaaaaappapapaa",
"aaaaaassppaaaaaaaaasaaaappaasaaaaaaaaaaappaaaaaaaaaasaasippaaaaa",
"sssssssspaasasasssssssssppaasassssssssasppassasssasssssspaassssa",
"asssssssppasssssssssssssppasssssssssssssppasssssssssssssppassass",
"ssssssssppassssssssssssspaasssssssssssssppssssssssssssssppssssss",
"sssssssspassssssssssssssppassssssssssssspassssssssssssssppssssss",
"ppppppppppppppppppppppppppppppipappppppapppipppppppppppppppppppp",
"pppppppppppppppppppppppp>>&>>>>><>>>>>&>><ippppppppppppppppaappp",
"pppaaaaaaaaaaaaappapaaaa+O+++O+++++O+++++&<aaaaappaaaaaaaaaaaaap",
"pppaaaasaaaaaaaappppaaaa                 +<assaappaaaaasaaaassaa",
"ppassssssssssssspaass<+ ...OO++%%&&><<<ii>+ sasspaasssssssssassa",
"ppasssssssssssssppas<&O ....OoO++%%&>>>><&+O<pasppaassssssssssss",
"paassssssssssssspaas+O. . . ....OO++%%&&>&%++>pspassssssssssssss",
"paassssssssssssspass             ..O+++%%&&& +<sppasssssssssssss",
"pppappppppppppppp>+                         O.  pppppapppppppppp",
"pppapppppppppppap>+  o#$****-**$$$$$$$$-$$$$... pppppapppppppppp",
"paaaaaapppappaaaa>+  #quuddddduuuuuuuuuduuuu .  aapaaaaapppaaaap",
"aaaaasaapappaaaaa<+  *uJJJKKKKKJHHHHHJJJJJJJ    aaaaaassppaaaaaa",
"sssssassppasassss<+  *dKJJJJJJKJHHJJJKKKJJJJ    ssssasssppasssaa",
"ssssssssppassssss<+ -tSLJJJJfSGJHHJJuSFJJJHJ$#o sssssssspaasasss",
"sssssssspasssssssw+ fDGLJKJJ-tSJJJJJ$wSKJHJJuq# sssssssspassssss",
"ssssssssppsssssss<% LLLLKKJJ $uKKJJJ $uJHJJJJu$ sssssssspassssss",
"apppppppppppppppp>+ LLLLKKKK -dKLKKK $uJHJHHHu$ pppppppppppppppp",
"papppppppppppappp<&+fDGLKKKK$tSLLKKK$wSJJJJJuw=+pppppppppppppppa",
"pppaaaaaaaaaaaaapii<-rDLHKKKdSGLLLKKuSFHKJJJ$=,<pppaaaaaaaaaaaaa",
"ppaaaaaaaaaaaassppaa =dKJJJHKKKLLLLKKJJJJJJJ +<appapaassaaaaaaaa",
"ppassassssssssssppass<+ KKKKKKKKLLLLLLKKJd- sassppassssssssssssa",
"ppasssssssssssssppasap>%ddddduddffuffffudw:+ssssppasssssssssssss",
"paassssssssssssspaassapi****$***$$-------;qisssspaasssssssssssss",
"paasssssssssssssppasssss                 %isssssaaasssssssssssss",
"ppipppppipppppipppppp>+ nnnNnnbnbbbbnnMNnh1 pppppppppppppipppppp",
"ppapppppppppppappppp>:=*hzvmmnnnbBPUYICmh86*><ipppppappppppppppp",
"apaaaaaappaaaaaapaaa+=wu27cMnnnnbPTEWRIm16edO&ipaaaaapaapppaaapa",
"aasaaasspppaaaaaasaa $dK 2hMnnnnbUEQ!WYm *dJ +<aaaaasaasppapaaaa",
"ssasssssppasssasasas -fK 1hnMmnnbbbnmmmm *dL +<assssssssppasssas",
"ssssssssppasssssssss -fL-09hMmnnbbnnMvzh*yDL +<sssssssssppasssss",
"ssssssssppasssssssss -fLfw01MMmnbbnnNc71dSGL %<ssssssssspassssss",
"sssssssspassssssssss -fLKd$ MmmmbbnnMj2 LLLL %issssssssspassssss",
"apppppppppipppppappp *dLKf- AAVAAAAAAx4 LLKL +>ppppppppppppppppp",
"ppppppppapappppapppp+:rffq# VVVVVVVVVl4 dddd+&<ppppppppppppppppp",
"ppapaaapaaaaaaaappaa<,:--#o NNNNNNNNNk2 ****<ipsppappaaapaapaaaa",
"ppaaaaaaaassaaaappaaa<+     Nnnnnnnnmj2     asaspppaaassaaasaaaa",
"ppassassssssssssppasassas<+ nbnb 1gbbh1 sssssssspaasssssssssssss",
"ppasssasssssssssppassssss<+ bbbb 1hbbg1 asssssssppasssssssssssss",
"ppsssssssssssssspasssssssi+ nbnn 1gnnh1 ssssssssppasssssssssssss",
"passsssssssssssspasssssss<+ nnnn 1hnng1 sssssssspassssssssssssss",
"pppippppppppppipppppppppp>+ nnnn 1gnmh1 pppppppppppppppppppppppp",
"pppapappipppppappppppppap>+ mnnn 1hnmh2 ppppppppppppapppippppppp",
"aaaaaaaappaaaaaaaaaaaaaap>+ mmnn 1hnmh2 ppapapappapaaaaappppaapa",
"aaaaaassppapaaaaasasaaaap>+ mMmn 1hnMj1 pppasaaaasaaaaasppaaaaaa",
"ssssssssppassassssssssssp&+ nnmm 2hMnh1 ppasssassssssssspaassasa",
"sssssssspaaassssssssssssp>+ hhhj @5jg5@ ppasssssssssssssppasssss",
"ssssssssiassssssssssssssp>O 1111 X@21@X ppasssssssssssssppssssss",
"sssssssspassssssssssssssp>+             passsssssssssssspassssss",
"ippppppppipppppppippppppppppppppppppppppppppppppppppppppppppppap",
"pppppppppapapppppppppppppppppppppppppppppppppppppppppppppppppppp",
"pppaaaaaaaaaaaaapppappaaaaappaaapppaaapaaaasaaaappapapaaaaaaaaaa",
"ppaaaaasaaaaaaaappaaasaaaaasaassppaaaaaasaasaaaappaaaaasaaaaaaaa",
"ppasssssssssssssppaasssssassssssppasasasssssssssppasssssssssssss",
"ppassssssssssssspaasssssssssssssppassssssssssssspaasssssssssssss",
"paasssssssssssssppsssssssssssssspasssssssssssssspaasssssssssssss",
"paassssssssssssspassssssssssssssppsssssssssssssspaasssssssssssss"
};
