/* XPM */
static char *p2[] = {
/* columns rows colors chars-per-pixel */
"64 64 192 2 ",
"   c black",
".  c #040404",
"X  c #060606",
"o  c #070707",
"O  c #080808",
"+  c #090909",
"@  c #0A0A0A",
"#  c #0B0B0B",
"$  c #0C0C0C",
"%  c #0D0D0D",
"&  c #0E0E0E",
"*  c gray6",
"=  c #170C02",
"-  c #140E0C",
";  c #17110F",
":  c #101010",
">  c #111111",
",  c #121212",
"<  c #131313",
"1  c #141414",
"2  c #151515",
"3  c #161616",
"4  c #191919",
"5  c #1A1A1A",
"6  c #1B1B1B",
"7  c #1C1C1C",
"8  c #1D1D1D",
"9  c #1E1E1E",
"0  c #1F1F1F",
"q  c #2E1705",
"w  c #261A16",
"e  c #271B17",
"r  c #281B17",
"t  c #2E221D",
"y  c #39251F",
"u  c #39261F",
"i  c #202020",
"p  c #232323",
"a  c #242424",
"s  c #262626",
"d  c #282828",
"f  c gray16",
"g  c #2A2A2A",
"h  c #2B2B2B",
"j  c #2C2C2C",
"k  c #2D2D2D",
"l  c gray18",
"z  c #2F2F2F",
"x  c #392620",
"c  c #392720",
"v  c #392821",
"b  c #3A2821",
"n  c #3A2922",
"m  c #303030",
"M  c #313131",
"N  c #323232",
"B  c #333333",
"V  c #343434",
"C  c #353535",
"Z  c #363636",
"A  c #373737",
"S  c #383838",
"D  c #393939",
"F  c #3A3A3A",
"G  c #3B3B3B",
"H  c #3C3C3C",
"J  c #3D3D3D",
"K  c #3E3E3E",
"L  c #3F3F3F",
"P  c #452307",
"I  c #452308",
"U  c #47250A",
"Y  c #47250B",
"T  c #48270C",
"R  c #4B290F",
"E  c #5B2F0A",
"W  c #462F1E",
"Q  c #47301F",
"!  c #723A0C",
"~  c #773F12",
"^  c #45322C",
"/  c #42372E",
"(  c #4C342A",
")  c #4F362D",
"_  c #4E362E",
"`  c #5E3F33",
"'  c #5E3F34",
"]  c #6E411E",
"[  c #714A3D",
"{  c #704B3D",
"}  c #714B3D",
"|  c #714B3E",
" . c #714C3E",
".. c #714D3E",
"X. c #714C3F",
"o. c #724D3E",
"O. c #724D3F",
"+. c #404040",
"@. c #444444",
"#. c #454545",
"$. c #464646",
"%. c #474747",
"&. c #484848",
"*. c #494949",
"=. c #4B4B4B",
"-. c #4C4C4C",
";. c #4D4D4D",
":. c #4E4E4E",
">. c #4F4F4F",
",. c #505050",
"<. c #515151",
"1. c #525252",
"2. c #535353",
"3. c #545454",
"4. c #555555",
"5. c #565656",
"6. c #575757",
"7. c #585858",
"8. c #595959",
"9. c #5A5A5A",
"0. c #5B5B5B",
"q. c #5C5C5C",
"w. c #5D5D5D",
"e. c #5E5E5E",
"r. c #714D40",
"t. c #724D40",
"y. c #724E41",
"u. c #724F41",
"i. c #734F41",
"p. c #735042",
"a. c #745143",
"s. c #775143",
"d. c #745144",
"f. c #89450E",
"g. c #89460F",
"h. c #8A460F",
"j. c #8A4710",
"k. c #8B4711",
"l. c #8C4812",
"z. c #8D4A14",
"x. c #8E4A14",
"c. c #8E4B15",
"v. c #8F4B15",
"b. c #904D18",
"n. c #95511D",
"m. c #A05111",
"M. c #A65819",
"N. c #A8591B",
"B. c #B65C13",
"V. c #BF651E",
"C. c #CD6815",
"Z. c #CF6A18",
"A. c #D16C1A",
"S. c #D36E1D",
"D. c #D56F1F",
"F. c #D67020",
"G. c #D77222",
"H. c #D87323",
"J. c #DC7627",
"K. c #DD7728",
"L. c #DD7729",
"P. c #DE782A",
"I. c #DF792B",
"U. c #E07A2B",
"Y. c #E07A2C",
"T. c #835746",
"R. c #845848",
"E. c #845849",
"W. c #845949",
"Q. c #966351",
"!. c #966452",
"~. c #976654",
"^. c #A76F5A",
"/. c #A86F5A",
"(. c #A8705B",
"). c #A9705B",
"_. c #A9715D",
"`. c #AA715D",
"'. c #AA725E",
"]. c #AA735E",
"[. c #AA735F",
"{. c #AB735F",
"}. c #AA745F",
"|. c #AB745F",
" X c #AB7460",
".X c #AB7561",
"XX c #AC7561",
"oX c #AC7762",
"OX c #AC7763",
"+X c #AD7763",
"@X c #AD7864",
"#X c #AE7A66",
/* pixels */
"=.=.:.:.=.=.=.=.=.=.=.=.=.=.=.=.=.=.:.:.:.=.=.=.=.=.=.=.=.=.=.=.=.=.=.=.=.=.=.=.=.=.=.=.=.=.=.=.=.=.=.=.=.=.=.=.=.=.=.=.=.=.=.=.",
":.:.:.:.:.:.:.:.=.:.:.:.:.:.:.:.:.:.:.:.:.:.:.:.=.=.:.:.:.:.:.:.:.:.:.:.:.:.:.:.=.=.:.:.:.:.:.:.:.:.:.:.:.:.:.:.=.:.:.:.:.:.:.:.",
":.1.1.1.1.:.1.:.=.:.:.1.1.1.:.1.1.:.1.1.1.1.:.1.=.:.:.1.1.1.1.:.1.1.1.1.1.1.1.1.=.:.1.:.1.1.1.1.1.1.:.1.1.1.1.1.=.:.:.1.:.1.:.1.",
"5.5.5.5.5.5.5.5.=.:.1.5.5.1.5.5.5.5.5.5.5.5.5.5.=.:.1.5.1.5.5.5.1.5.5.1.1.5.5.5.=.:.1.5.5.1.1.5.1.1.5.5.5.1.5.5.=.:.1.5.5.5.1.5.",
"8.8.8.8.8.8.8.8.:.:.1.5.8.8.8.8.5.5.8.8.8.8.8.8.=.:.1.5.8.5.5.8.8.8.8.8.8.5.8.8.=.:.1.5.8.5.5.8.8.8.8.8.8.8.8.8.=.:.1.8.5.5.8.8.",
"8.8.e.8.8.e.e.e.=.:.1.8.8.8.8.8.8.8.8.8.e.e.8.e.=.:.1.8.e.8.8.e.8.8.e.8.e.e.8.e.:.:.5.8.e.8.8.8.8.8.8.8.e.e.e.8.=.:.5.8.5.8.8.e.",
"8.e.e.8.e.e.e.e.:.:.5.8.8.e.e.8.8.e.e.8.e.e.e.e.=.:.1.8.e.8.e.e.8.e.e.8.e.e.e.e.:.1.5.8.e.8.e.e.e.e.e.8.e.e.e.e.=.:.5.e.e.8.8.e.",
"e.e.e.e.e.e.e.e.:.1.8.e.e.e.e.e.e.e.e.e.e.e.e.e.:.1.5.e.e.e.e.e.e.e.e.e.e.e.e.e.1.1.8.e.e.e.e.e.e.e.e.e.e.e.e.e.=.1.5.e.e.e.e.e.",
":.=.=.=.=.=.=.=.:.=.=.=.=.=.=.=.:.:.=.=.=.:.:.=.=.=.=.=.=.=.=.=.1.:.=.=.=.=.=.=.=.=.=.=.:.=.=.=.:.=.=.=.=.:.:.=.=.=.=.:.=.=.=.=.",
":.:.:.:.:.:.:.:.:.:.:.:.:.:.:.:.=.:.:.:.:.:.:.:.N N N N N N N N N N N N N N N N N G +.:.:.:.:.:.:.=.:.:.:.:.:.:.:.:.:.:.:.:.:.:.",
"=.:.:.1.1.1.1.:.1.1.1.:.1.1.1.1.=.:.1.1.1.1.1.:.6 3 6 6 6 3 6 6 6 6 6 6 6 6 6 6 6 g J 1.1.1.1.1.=.:.:.:.1.1.1.1.1.1.:.1.1.:.1.1.",
"=.:.:.:.5.5.1.1.5.1.5.5.5.5.5.5.=.:.1.1.5.1.5.5.                                  7 V 5.5.5.8.8.=.:.1.5.5.1.1.5.5.5.5.5.5.5.5.5.",
"=.:.1.8.8.8.8.8.8.8.8.8.8.8.8.8.:.1.1.5.5.G 6   & # & 3 6 6 7 7 s g k N G G J +.@.N 6   8.8.5.8.:.:.1.8.8.5.5.8.8.8.8.8.8.8.8.8.",
"=.1.5.8.e.8.8.e.e.8.8.e.8.e.8.e.:.:.1.e.G s 3   # # & & : : : 6 7 7 s g k N N V G k i : G =.1.e.:.:.1.e.8.8.e.8.8.8.e.8.8.e.8.e.",
"=.:.5.8.e.8.e.e.e.8.e.e.e.e.e.e.=.:.5.e.7 3 #   X X X X # # # & : 3 6 7 i s s g k g s 7 7 N =.e.=.:.5.e.8.e.e.8.e.e.e.e.e.e.e.e.",
"=.:.5.e.e.e.e.e.e.e.e.e.e.e.e.e.=.1.8.e.                        # # & : 6 6 i i s g k k   7 J e.=.1.5.e.e.e.e.e.e.e.e.e.e.e.e.e.",
"=.=.:.:.=.=.=.=.=.=.=.=.=.=.=.=.=.N 6                                                   < & o   =.=.=.=.:.:.=.=.=.=.=.=.=.=.=.=.",
":.:.:.:.:.:.:.:.=.=.:.:.:.:.:.:.:.V 6                                     - r x u u u u ^ t ;   :.:.:.:.1.:.:.:.=.:.:.:.:.:.:.:.",
"1.:.1.1.1.1.1.1.:.:.1.:.1.1.1.:.1.V 7                                     w ( } O.} } } s.) r   1.1.1.1.1.1.1.1.=.:.:.1.1.1.1.1.",
"5.5.5.5.5.5.1.5.1.:.:.1.5.1.5.5.5.V 6                                     u } /.].].]././.} u   5.5.1.5.1.5.5.5.=.:.1.1.5.5.1.5.",
"8.8.8.8.5.8.8.8.=.:.1.8.8.5.5.5.8.J 7                                   ].].]. X/././.]./.} y   5.8.8.8.8.8.8.8.:.1.1.8.5.5.5.8.",
"8.8.e.e.8.8.8.e.:.:.5.8.8.8.8.e.e.J i                             - w u ].].].{.} T.!./.].} y   e.8.e.8.8.e.8.e.:.:.1.8.8.8.8.e.",
"8.e.e.e.8.e.8.e.:.1.5.e.8.8.e.e.e.J 7                             r ( } ]./.].].u ` T./.].} u   e.e.e.8.e.e.e.e.=.:.5.8.e.e.e.8.",
"e.e.e.e.e.e.e.e.:.1.8.e.e.e.e.e.e.J i                             x } ].]./././.  u } /.].} u   e.e.e.e.e.e.e.e.:.1.5.e.e.e.e.e.",
"=.=.=.=.=.:.:.:.=.=.=.=.=.=.=.=.=.N 6                             u } /./././.^.  u O.]./.} u   =.=.=.:.=.=.=.=.=.=.=.=.=.=.=.:.",
"=.:.:.:.:.:.:.:.:.:.:.:.:.:.:.:.=.G g 6                         u ' R.]./.].]./.u ' R././.} u   =.=.=.:.:.:.:.:.:.:.:.:.:.:.:.1.",
"=.:.:.1.1.:.1.1.1.:.1.:.:.1.1.1.=.@.J V                         O.E.~. X X].].].} E.!././.} u   :.=.:.:.1.1.1.:.1.1.1.1.1.1.1.1.",
"=.:.1.5.5.5.1.5.5.5.5.5.5.5.5.5.=.:.1.5.                        ].]. XXXXX].].].].].].]./.} y   1.:.:.1.1.5.5.5.5.5.1.5.5.1.5.5.",
"=.:.1.8.5.5.5.8.8.8.8.8.8.8.8.8.:.1.1.8.8.G 7                   /.].XX+X@X#X@X X}.].]./.  7 G 8.=.:.1.8.8.8.8.5.8.8.8.8.5.8.8.8.",
"=.1.5.8.8.8.8.e.e.8.8.8.e.e.e.e.:.:.1.e.8.@.N 7                 } O.y.a.u.u.u.u.O.O.} } i V @.e.=.:.1.8.8.8.8.e.8.e.8.e.e.8.8.e.",
"=.:.5.8.e.e.8.e.e.8.e.e.e.e.e.e.=.:.5.e.e.1.=.G                 u u x n n n x n u u u u J =.1.e.=.1.5.8.e.e.8.e.8.e.e.e.e.e.e.e.",
"=.:.5.e.e.e.e.e.e.e.e.e.e.e.e.e.=.1.5.e.e.e.e.e.                                        e.e.e.e.=.1.8.e.e.e.e.e.e.e.e.e.e.e.e.e.",
"=.=.:.:.=.=.=.=.=.=.=.=.=.=.=.=.=.=.=.=.=.=.=.=.=.=.=.=.  P f.C.C.C.C.C.C.j.I   =.=.=.=.=.=.=.=.=.=.=.=.=.=.=.=.=.=.=.=.=.=.=.=.",
":.:.:.:.:.:.:.:.=.:.:.:.:.:.:.:.:.:.:.:.:.:.:.:.=.:.:.:.  P f.C.f.m.B.C.f.E q   =.:.:.:.:.:.:.:.:.:.:.:.:.:.:.:.=.=.-.:.:.:.:.:.",
"1.1.1.1.1.1.1.1.=.:.1.:.:.1.1.1.:.1.1.1.1.1.:.1.=.:.:.1.  P f.C.P ! m.C.I q =   =.:.:.,.,.1.,.1.1.1.1.1.1.1.1.1.=.-.:.:.1.,.1.,.",
"1.5.5.5.1.5.1.5.=.:.:.1.5.5.5.5.5.5.5.1.5.5.5.5.=.:.,.5.  P f.C.  I f.C.        =.:.1.5.5.3.5.3.1.1.5.3.5.2.5.5.=.:.:.1.3.5.5.2.",
"8.8.8.8.8.8.8.8.=.:.1.8.8.5.5.8.5.8.8.8.8.8.8.8.:.:.1.8.  I f.C.  n a.#X        -.:.1.5.8.8.8.8.8.8.8.8.8.8.8.8.>.>.1.8.8.8.8.8.",
"8.8.e.8.8.e.e.e.=.:.1.8.8.8.8.e.8.e.e.8.8.8.e.e.:.:.1.8.  I j.A.  n p.#Xn e -   B J -.7.8.8.w.8.8.w.8.8.e.e.0.w.:.,.5.8.8.8.0.0.",
"8.e.e.8.e.e.e.e.:.1.5.8.w.8.e.e.8.e.e.e.8.e.e.e.:.1.5.8.  I j.A.  x y.XXd._ e   6 m @.8.e.0.w.8.e.e.w.8.e.e.e.e.=.1.5.8.8.w.e.w.",
"e.e.e.e.e.e.e.e.:.1.8.e.e.e.e.e.e.e.e.e.e.e.e.e.:.1.8.e.  I l.S.  u O.}.#Xd.n     i +.e.e.e.e.e.e.e.e.e.e.e.e.e.=.1.8.e.e.e.e.e.",
":.:.=.=.=.=.=.=.=.=.=.=.=.=.=.=.=.=.=.=.=.=.=.=.=.=.=.=.  I c.S.F.c.I   }.}.}.}.  6 N =.=.=.=.=.=.=.=.=.=.=.=.=.=.=.=.=.=.=.=.=.",
":.:.:.:.:.:.:.:.:.:.:.:.:.:.:.:.=.:.:.:.:.:.:.:.:.:.:.:.  I c.D.F.M.] R O.O.O.y.  6 B :.:.:.:.:.=.-.:.:.:.:.:.:.:.:.:.:.:.:.:.:.",
"=.:.:.:.1.1.1.1.1.1.1.1.:.1.1.1.=.:.1.,.1.:.1.:.1.1.1.1.  I v.F.D.C.M.b.n u u u   7 V 1.1.1.1.1.=.:.>.1.>.1.1.1.1.1.1.1.1.1.1.1.",
"=.:.:.1.1.5.1.5.5.1.5.5.5.5.5.5.=.:.1.5.5.5.5.5.5.1.5.5.  T b.F.F.G.H.G.          7 G 5.3.5.5.7.=.:.,.1.5.2.3.5.5.3.5.2.2.5.5.5.",
"=.:.1.8.8.5.8.8.8.8.8.8.8.8.8.8.=.:.1.5.8.8.8.5.8.8.8.8.  R n.Y.I.I.I.I.Y.n.R   8.8.8.8.8.8.8.8.:.>.1.8.8.8.7.5.8.8.6.8.8.8.8.8.",
":.:.5.8.e.e.8.8.8.8.e.8.e.8.8.e.:.:.1.8.8.8.8.8.e.8.8.e.7 Q ] n.I.I.I.I.n.] Q 7 8.w.0.e.0.e.0.e.:.>.3.8.8.8.8.e.8.8.w.e.w.0.0.e.",
":.1.5.8.e.e.e.8.8.e.e.e.e.e.8.e.:.1.5.8.e.e.e.e.e.8.e.e.J / Q R P.P.P.P.R ( / J 8.e.e.e.e.e.e.e.=.1.5.8.e.8.0.e.e.e.e.e.e.e.e.e.",
"=.1.8.e.e.e.e.e.e.e.e.e.e.e.e.e.=.1.5.e.e.e.e.e.e.e.e.e.e.+.i   J.K.K.P.  i J w.e.e.e.e.e.e.e.e.=.1.8.e.e.e.e.e.e.e.e.e.e.e.e.e.",
"=.=.=.=.=.=.=.=.=.=.=.=.=.=.=.=.=.=.=.=.=.:.:.=.=.=.=.=.:.V 7   U.U.Y.Y.  6 N :.=.=.=.=.=.=.=.=.=.=.=.=.=.=.=.=.=.=.=.=.=.=.=.=.",
":.:.:.:.:.:.:.:.=.:.:.:.:.:.:.:.:.:.:.:.:.:.:.:.=.:.:.:.1.V 6   U.U.Y.Y.  6 V :.=.:.:.:.:.:.:.:.:.:.:.:.:.:.:.:.=.-.:.:.:.:.:.:.",
":.1.1.1.1.1.1.1.=.:.:.1.1.:.1.:.1.1.1.1.1.1.1.1.:.:.:.:.:.V 7   U.U.Y.Y.  6 V 2.=.:.:.,.,.1.1.,.1.,.1.1.1.1.1.>.=.:.:.:.1.1.1.1.",
"1.5.1.5.5.5.5.8.=.:.1.:.5.5.5.5.1.5.5.5.5.1.5.5.:.1.:.1.5.G 6   U.U.Y.Y.  7 G 5.=.:.,.>.5.2.5.5.3.5.3.5.5.2.5.5.=.:.:.1.5.3.1.3.",
"8.8.8.8.8.8.8.8.:.:.1.5.8.8.8.8.8.8.8.8.8.8.8.8.=.:.1.5.8.G i   Y.Y.Y.Y.  0 J 8.=.:.3.8.8.8.8.8.6.8.8.8.8.8.8.8.:.>.1.8.5.8.7.7.",
"8.8.8.8.8.8.8.e.:.:.1.8.8.8.8.8.e.8.8.e.8.e.e.8.=.1.5.8.e.G 7   Y.Y.Y.Y.  7 J e.:.:.1.8.8.8.8.8.8.8.8.8.8.e.w.e.:.:.5.8.8.8.8.e.",
"e.e.e.e.e.8.e.e.:.:.5.e.e.8.e.e.e.8.e.e.e.e.e.e.=.1.5.8.e.J 7   Y.Y.Y.Y.  7 J e.:.1.5.8.w.0.e.8.e.e.w.w.e.e.e.e.=.>.5.e.w.0.e.e.",
"e.e.e.e.e.e.e.e.=.1.5.e.e.e.e.e.e.e.e.e.e.e.e.e.=.:.1.e.e.J i   Y.Y.Y.Y.  7 J e.=.1.8.e.e.e.e.e.e.e.e.e.e.e.e.e.=.1.6.e.e.e.e.e.",
":.=.=.:.=.:.:.=.=.=.=.:.=.=.=.=.=.=.=.=.=.=.=.=.=.=.=.=.=.N 6             6 V :.=.=.=.>.=.=.=.=.=.=.=.=.=.=.=.=.=.=.=.=.=.=.=.=.",
":.:.:.:.:.:.:.:.:.:.:.:.:.:.:.:.=.:.:.:.:.:.:.:.:.:.:.:.:.J g 6 6 6 7 7 6 k J 1.:.:.:.:.:.:.:.:.=.:.:.:.:.:.:.:.:.:.:.:.:.:.:.:.",
"=.:.:.:.1.1.1.1.1.1.:.1.1.:.1.1.=.:.:.:.:.:.1.,.1.1.1.:.1.=.J G N V V V V J @.1.,.1.1.,.1.,.1.,.=.:.:.1.>.1.1.1.1.1.1.1.1.1.1.1.",
"=.:.1.:.5.1.5.5.5.5.5.5.5.5.5.5.=.:.1.1.5.5.5.5.1.5.5.5.1.5.3.5.:.1.1.5.5.5.5.5.5.2.5.5.5.5.3.5.=.:.1.1.5.1.3.5.5.3.5.2.3.3.5.3.",
"=.:.1.8.8.8.8.8.8.8.8.8.8.8.8.8.=.:.1.8.8.8.8.8.8.8.8.8.8.8.8.7.:.:.5.8.5.5.5.8.8.8.8.7.8.7.8.8.:.>.1.8.8.7.7.5.8.8.8.8.8.8.8.8.",
":.:.1.8.e.e.8.8.8.8.e.e.8.e.8.e.=.:.5.8.e.e.8.8.8.8.e.e.8.e.e.e.:.:.1.8.8.8.8.e.8.8.e.e.w.e.0.e.-.:.1.8.8.8.8.e.8.8.0.e.w.0.e.e.",
":.1.5.8.e.e.e.8.8.e.e.e.e.e.e.e.=.1.5.8.e.e.e.w.8.8.e.e.e.e.e.e.:.:.1.8.e.e.e.e.8.e.e.e.e.e.e.e.-.1.5.8.0.0.8.e.w.e.e.e.e.e.e.e.",
"=.1.5.e.e.e.e.e.e.e.e.e.e.e.e.e.=.:.5.e.e.e.e.e.e.e.e.e.e.e.e.e.=.1.5.e.e.e.e.e.e.e.e.e.e.e.e.e.:.2.8.e.e.e.e.e.e.e.e.e.e.e.e.e."
};
