/* XPM */
static char *p3[] = {
/* columns rows colors chars-per-pixel */
"64 64 219 2 ",
"   c #010101",
".  c #020202",
"X  c #040404",
"o  c gray2",
"O  c #060606",
"+  c #080808",
"@  c #090909",
"#  c #0A0A0A",
"$  c #0B0B0B",
"%  c #0C0C0C",
"&  c #0E0E0E",
"*  c #0F0F0F",
"=  c #170C03",
"-  c #140D0B",
";  c #140E0C",
":  c #150F0D",
">  c #101010",
",  c #111111",
"<  c #121212",
"1  c #131313",
"2  c #141414",
"3  c #151515",
"4  c #161616",
"5  c #171717",
"6  c #181818",
"7  c #191919",
"8  c #1A1A1A",
"9  c #1B1B1B",
"0  c #1C1C1C",
"q  c #1D1D1D",
"w  c #1E1E1E",
"e  c #1F1F1F",
"r  c #2E1705",
"t  c #261A16",
"y  c #271A16",
"u  c #271B17",
"i  c #281B17",
"p  c #39261F",
"a  c #202020",
"s  c #212121",
"d  c #222222",
"f  c #232323",
"g  c gray14",
"h  c #262626",
"j  c #272727",
"k  c #282828",
"l  c #2B2B2B",
"z  c #2D2D2D",
"x  c #392720",
"c  c #362A26",
"v  c #372B26",
"b  c #392821",
"n  c #3A2822",
"m  c #3A2922",
"M  c #3A2923",
"N  c #3B2923",
"B  c #342E2C",
"V  c #382C28",
"C  c #3B2E2A",
"Z  c #3B2F2A",
"A  c #37322F",
"S  c #313131",
"D  c #323232",
"F  c #333333",
"G  c #353535",
"H  c #3D3634",
"J  c #383838",
"K  c #393939",
"L  c #3A3A3A",
"P  c #3B3B3B",
"I  c #3C3C3C",
"U  c #3D3D3D",
"Y  c #3E3E3E",
"T  c #3F3F3F",
"R  c #442205",
"E  c #442206",
"W  c #452206",
"Q  c #442207",
"!  c #442307",
"~  c #452307",
"^  c #452408",
"/  c #462409",
"(  c #47250A",
")  c #48260B",
"_  c #5B2D08",
"`  c #5B2E09",
"'  c #5A3215",
"]  c #5A3315",
"[  c #533019",
"{  c #53301A",
"}  c #723A0C",
"|  c #723B0D",
" . c #743C0E",
".. c #6E3A14",
"X. c #4C332A",
"o. c #4C342B",
"O. c #4D352D",
"+. c #543C33",
"@. c #553D35",
"#. c #563D34",
"$. c #623E2C",
"%. c #694229",
"&. c #604338",
"*. c #714C3E",
"=. c #724C3E",
"-. c #414141",
";. c #444444",
":. c #454545",
">. c #464646",
",. c #484848",
"<. c #494949",
"1. c #4B4B4B",
"2. c #4C4C4C",
"3. c #4D4D4D",
"4. c #4E4E4E",
"5. c #4F4F4F",
"6. c #505050",
"7. c #515151",
"8. c #525252",
"9. c #535353",
"0. c #545454",
"q. c #555555",
"w. c #565656",
"e. c #575757",
"r. c #585858",
"t. c #595959",
"y. c #5A5A5A",
"u. c #5B5B5B",
"i. c #5C5C5C",
"p. c #5D5D5D",
"a. c gray37",
"s. c #714D40",
"d. c #724D40",
"f. c #724E40",
"g. c #724E41",
"h. c #724F41",
"j. c #734F42",
"k. c #735043",
"l. c #745043",
"z. c #735044",
"x. c #745044",
"c. c #745144",
"v. c #745145",
"b. c #88430A",
"n. c #88430B",
"m. c #88440B",
"M. c #88430C",
"N. c #88430D",
"B. c #88440D",
"V. c #88450D",
"C. c #88450E",
"Z. c #89450E",
"A. c #89460E",
"S. c #89460F",
"D. c #8A4710",
"F. c #8A4811",
"G. c #8D4A13",
"H. c #904D17",
"J. c #924F19",
"K. c #9F5110",
"L. c #9F5111",
"P. c #A15313",
"I. c #B65D14",
"U. c #B75E14",
"Y. c #CA610C",
"T. c #CB620D",
"R. c #CA620E",
"E. c #CB630E",
"W. c #CB630F",
"Q. c #CB640F",
"!. c #CC640F",
"~. c #CB6410",
"^. c #CB6510",
"/. c #CB6411",
"(. c #CB6511",
"). c #CB6412",
"_. c #CC6510",
"`. c #CC6511",
"'. c #CC6512",
"]. c #CC6612",
"[. c #CC6613",
"{. c #CC6713",
"}. c #CC6614",
"|. c #CC6714",
" X c #CD6714",
".X c #CD6715",
"XX c #CD6815",
"oX c #CD6816",
"OX c #CE6916",
"+X c #CE6917",
"@X c #CE6A17",
"#X c #CE6A18",
"$X c #CF6A18",
"%X c #CF6A19",
"&X c #CF6B1A",
"*X c #D36D1B",
"=X c #D36D1C",
"-X c #D36E1D",
";X c #D46E1D",
":X c #D97323",
">X c #DA7424",
",X c #DA7425",
"<X c #E07A2C",
"1X c #875D4E",
"2X c #875E4F",
"3X c #9A6B5A",
"4X c #AA735F",
"5X c #AB745F",
"6X c #AB7460",
"7X c #AB7561",
"8X c #AC7662",
"9X c #AC7663",
"0X c #AD7763",
"qX c #AD7764",
"wX c #AD7864",
"eX c #AD7865",
"rX c #AE7865",
"tX c #AE7966",
"yX c #AE7A67",
/* pixels */
"1.1.4.4.4.1.1.1.1.1.1.1.1.1.1.1.1.1.1.1.1.1.1.1.1.1.4.4.4.1.1.1.1.1.4.4.1.1.1.1.1.1.1.1.1.1.1.1.1.1.1.4.4.1.1.1.1.1.1.1.1.1.1.1.",
"4.4.4.4.4.4.4.4.1.4.4.4.4.4.4.4.4.4.4.4.4.4.4.4.1.4.4.4.4.4.4.4.4.4.4.4.4.4.4.4.1.1.4.4.4.4.4.4.4.4.4.8.4.4.4.4.1.4.4.4.4.4.4.4.",
"8.8.8.8.8.8.8.8.1.4.4.8.8.8.4.8.8.8.8.8.4.8.8.8.1.4.4.8.8.8.8.4.4.8.8.8.8.8.8.8.1.4.8.8.8.8.8.8.4.8.8.8.8.8.8.8.1.4.4.8.8.8.4.8.",
"q.q.q.q.q.q.q.q.1.4.8.q.q.q.q.q.q.q.q.q.q.q.q.q.1.4.4.8.q.q.8.8.8.8.q.q.q.q.q.q.1.4.8.q.q.q.8.q.8.8.q.q.q.q.q.q.1.4.8.q.q.q.q.q.",
"t.t.t.t.t.t.t.t.4.4.8.q.t.t.t.t.t.t.t.t.t.t.t.t.1.4.q.t.t.t.t.t.t.t.t.t.t.t.t.t.1.4.8.t.q.t.t.q.t.t.t.t.t.t.i.t.4.4.8.q.t.q.t.t.",
"t.t.i.t.i.i.i.i.1.4.8.t.t.t.t.t.t.i.i.t.i.i.i.i.1.4.8.t.i.t.i.i.i.t.i.i.i.i.i.i.4.4.8.t.q.i.i.i.i.t.i.i.i.i.i.i.1.4.q.i.t.q.t.i.",
"i.i.i.i.a.a.a.a.4.4.q.i.i.i.i.i.i.i.i.i.a.a.i.a.4.4.8.i.i.i.i.a.i.i.i.a.a.a.i.i.4.8.q.i.i.i.i.a.i.i.i.a.i.a.a.a.4.4.q.a.i.i.i.i.",
"i.i.a.a.a.a.a.a.4.8.t.a.i.a.a.i.a.a.a.a.a.a.i.i.4.8.q.i.i.a.a.a.a.a.a.a.a.a.a.a.4.8.t.a.i.i.i.i.i.a.i.a.a.a.a.a.4.4.q.i.i.a.a.i.",
"4.1.1.1.1.1.1.4.4.1.1.1.1.1.1.1.4.4.1.1.1.4.4.1.1.4.4.1.4.4.4.6.4.4.1.4.1.1.4.4.1.4.1.1.1.1.1.1.1.1.1.4.4.4.4.1.4.1.4.4.1.1.1.1.",
"4.4.4.4.4.4.4.4.4.4.4.4.4.4.4.4.1.4.4.4.4.4.4.4.S S S S S S S S S S S S S S S S S J :.4.4.4.4.4.1.4.4.4.4.4.4.4.4.4.4.4.4.4.4.4.",
"1.4.4.8.8.4.8.8.8.8.8.8.8.8.8.8.1.4.8.8.8.4.8.8.8 8 8 5 8 5 8 5 5 8 8 8 8 5 8 8 8 k Y 8.8.8.8.q.1.4.4.4.8.8.8.8.8.8.4.8.8.8.8.8.",
"1.4.4.8.q.q.q.q.q.q.8.q.q.q.q.8.1.4.8.q.q.8.8.q.                                  q J q.q.q.q.t.4.4.8.4.q.q.q.q.q.q.q.q.t.q.q.q.",
"1.4.8.t.t.t.q.t.t.t.t.t.t.i.i.t.4.8.8.q.t.Y q           + % , , 5 5 5 8 8 a g g g q ,   t.t.t.t.1.4.q.t.t.q.t.t.t.t.t.t.t.t.t.t.",
"1.8.q.t.i.t.t.i.i.t.t.t.t.i.i.i.4.4.8.q.J k 5           + + % , , 5 5 5 q a a a g q 5 + Y :.8.i.1.4.q.i.t.i.t.t.t.i.i.i.i.t.t.i.",
"1.8.q.t.a.i.i.a.i.i.i.i.a.a.a.a.1.4.q.i.q 5 +           O + + % % 5 5 5 8 q q a a g q 8 q G 1.a.1.8.q.i.i.i.i.i.i.i.a.a.a.i.i.i.",
"1.4.q.i.a.a.a.a.a.a.a.a.a.a.a.a.1.8.t.i.                O O O + % , % , 8 q q q a k z z   q J i.1.8.t.i.a.a.i.a.a.i.a.a.a.a.a.a.",
"1.1.4.4.1.4.1.1.1.1.1.1.1.1.1.1.1.S 5                           + % % * 5 5 5 8 0 q a g l 8 %   1.1.1.1.4.1.1.1.1.1.1.4.1.4.1.1.",
"4.4.4.4.4.4.4.4.1.4.4.4.4.4.4.4.4.S 8                           + + % % , , 5 8 0 q e a g 8 *   4.4.4.4.4.4.4.4.1.4.4.8.4.4.4.4.",
"8.8.8.8.8.8.8.8.4.4.8.4.4.8.8.8.8.G 8                           O O + + , , , 8 9 0 q q g 8 %   8.8.8.8.8.8.8.q.1.4.4.8.8.4.4.8.",
"q.q.q.q.q.q.q.8.4.8.4.8.q.q.q.q.q.J q                             . + + % * , , 8 9 q q a 5 %   q.q.q.q.q.q.q.q.1.4.8.q.4.8.8.q.",
"t.t.t.t.t.t.t.t.1.4.8.t.t.t.t.t.t.Y q                                   + % % % , 1 5 8 q , +   t.t.t.t.a.i.t.t.1.4.8.t.t.t.t.t.",
"i.t.i.i.t.t.t.i.4.4.q.i.t.t.i.i.t.Y a                                   O + % $ > 5 5 8 0 , $   t.t.i.t.i.i.i.i.1.4.q.t.i.t.t.i.",
"a.i.i.a.i.i.i.i.4.8.q.a.t.i.i.i.i.Y q                                   O O + + > 2 1 5 8 , +   t.i.i.i.a.a.a.a.1.8.q.i.a.i.i.i.",
"a.i.a.i.i.a.a.i.4.8.t.a.a.i.i.i.i.Y q                                     . O O % % * % 5 % O   i.a.a.a.a.a.a.a.1.8.t.a.a.a.a.a.",
"4.1.1.1.1.4.4.1.1.1.1.1.1.1.1.4.4.S 8                                           O O .           1.1.1.1.1.1.1.1.1.1.1.1.1.1.4.4.",
"4.4.4.4.4.4.4.4.4.4.4.4.4.4.4.4.1.J z q   - t x                                   ; i x   + 5 e 1.1.4.4.4.4.4.4.4.4.4.4.4.4.4.4.",
"1.4.4.4.8.8.8.8.8.8.8.8.8.8.8.q.4.:.Y J   t o.g.                                  t o.s.  5 g J 4.4.8.8.8.8.8.8.8.8.4.8.8.8.8.8.",
"1.4.4.8.q.q.q.q.8.q.q.q.q.q.q.q.1.4.8.8.  x g.7X                                  x s.7X  q J q.4.4.8.q.q.8.q.q.q.q.q.q.q.q.q.q.",
"1.4.8.t.t.t.t.t.t.t.t.t.t.i.i.t.1.4.q.t.t.J q   7X7X7X4X4X7X7X7X8XyX8X8XyXyXqX8X5X=.p . t.t.t.t.1.4.8.q.q.q.q.t.t.t.t.t.t.t.t.t.",
"4.4.q.t.i.i.i.t.t.t.i.t.i.i.a.i.1.4.q.t.i.:.G q g.g.g.=.*.=.g.g.j.l.g.g.v.v.j.g.g.#.Z u i.t.i.i.1.4.8.t.i.i.i.t.i.i.i.i.i.t.t.i.",
"4.4.q.t.i.a.i.i.i.i.i.i.a.a.a.a.1.8.q.i.i.q.1.Y x x x x p x x x b b x x N N b x b Z H -.a.i.i.i.4.8.q.t.a.a.i.i.i.a.a.a.a.i.i.i.",
"4.8.t.i.a.a.a.a.i.i.a.a.a.a.a.a.1.8.q.i.i.i.i.i.                                  a Y a.a.a.i.i.4.q.t.i.a.a.a.a.a.a.a.a.a.a.a.a.",
"1.1.1.1.1.1.1.1.1.1.1.1.1.1.1.1.1.1.1.1.1.S 8   }.}.|.*X`.|.`.T.Y.Y.Y.|.|.|.#X#X|.A.E   1.1.1.1.1.1.1.1.1.1.1.1.1.1.1.1.1.1.1.1.",
"4.4.4.4.4.5.4.4.1.2.4.5.4.5.4.4.4.4.4.4.S B c x N.K.I.#X|.|.|.`.Y.T.`.`.`.oXoX#XN...[ x S J :.4.4.4.4.4.5.4.4.4.1.4.4.4.4.4.4.4.",
"6.8.6.8.6.8.8.8.1.4.6.8.8.8.8.8.8.6.8.8.8 c +.g.~ } L.|.`.|.|.`.Y.!.`.|.|.|.|.oXE [ $.g.8 l Y 8.8.8.8.8.8.8.8.8.1.4.4.4.6.8.8.8.",
"q.q.q.q.q.q.q.q.1.4.6.9.9.9.q.9.0.q.q.0.  x =.7X  ~ A.|.`.|.`.|.Y.T.`.oXoX|.|.|.  p *.6X  q J q.q.q.q.q.q.q.q.q.1.4.5.8.q.q.q.0.",
"r.t.t.t.t.t.t.i.1.5.9.w.w.w.t.w.t.t.t.t.  b k.yX  ~ N.}.oX|.|.|.Y.Q././.oXoXoX`.  b l.8X  q I t.t.t.t.t.t.t.t.t.5.6.0.t.t.q.e.t.",
"i.i.i.t.i.i.i.i.4.5.9.i.i.i.i.i.t.p.p.t.  M z.yXM '  .N.#XoX|.`.Y.Y.Q.`.oXU.P.A.x &.1XyX  e I i.i.t.u.i.t.i.i.i.4.4.0.t.u.t.t.i.",
"a.a.i.i.a.a.a.a.5.6.q.i.i.i.i.i.i.i.i.i.  M z.yXz.%.] / #XoXoXoX!.`.`.|.#XP.} E g.1X3XyX  e Y i.i.i.i.a.u.i.a.a.1.6.q.u.a.i.i.i.",
"a.a.a.i.a.a.a.i.1.9.w.a.a.i.i.i.a.a.i.i.X M z.yXqXz.b   *XoX|.oXY.`.`.|.&XF./   yXyXyXyX  q I p.i.a.a.a.i.a.a.a.5.8.t.a.a.a.a.a.",
"1.1.1.1.1.1.1.1.1.1.1.1.1.1.1.1.4.4.1.1.  b z.yXqXz.b   <X<X,X<X<X<X<X<X<XJ.)   8X8XqX8X  8 A 1.1.1.1.1.1.1.1.1.1.1.1.1.1.1.1.1.",
"1.4.4.5.4.4.4.4.4.4.4.5.4.4.4.5.1.3.3.4.q c #.j.l.O.u   ,X,X:X,X,X>X>X,X,XH.)   l.g.k.l.q z I 3.1.1.4.4.4.4.4.4.4.4.4.4.4.4.4.4.",
"1.4.5.5.8.8.6.6.8.8.8.8.8.8.8.8.1.4.4.8.J F V b b i ;   -X-X=X-X=X=X=X;X;XG./   b b b b J -.1.8.1.4.5.8.6.5.8.8.8.8.8.8.8.8.5.8.",
"1.4.5.5.q.q.q.q.q.q.q.q.q.q.q.q.1.4.8.q.w.J q           |.|.`.`./.oX`.`. XA.^           q.q.q.q.1.4.8.8.q.8.8.q.q.q.q.q.q.q.q.t.",
"1.5.9.t.r.w.w.t.t.t.t.r.t.t.t.t.1.5.8.q.t.r.r.t.t.Y q   /.!.!.`.  E b.Q.!.b.E   t.t.t.t.t.t.t.t.4.5.0.t.t.t.t.t.t.t.t.t.t.t.t.t.",
"1.5.q.r.i.t.t.i.i.t.i.i.i.i.i.i.4.5.9.w.i.i.i.i.i.Y q   /.Q.!.Y.  E m.!.!.m.E   i.u.u.i.i.i.i.i.4.4.q.i.t.i.u.t.i.t.i.i.i.i.i.i.",
"1.6.q.i.a.i.i.a.a.i.i.a.a.a.a.a.4.5.q.i.a.i.i.i.i.-.a   Q./.).`.  E m.`.!.b.E   i.i.i.a.a.a.a.a.1.8.q.i.i.i.i.u.a.i.i.i.a.a.i.a.",
"1.5.q.a.a.a.a.a.a.a.a.a.a.a.a.a.1.8.t.a.a.a.a.i.i.Y a   Q.Q.`.`.  ^ A.`.Q.b.E   a.a.a.a.a.a.a.a.1.8.t.i.a.a.a.a.a.a.a.a.a.a.a.a.",
"1.1.1.5.1.1.1.1.1.1.1.1.1.1.1.1.1.1.1.1.1.1.1.1.1.S 5   oX|.|.|.  ! N./.#XD.^   1.1.1.1.1.1.1.1.1.1.1.1.1.1.1.1.1.1.1.1.1.1.1.1.",
"4.4.5.5.5.4.4.4.1.1.4.5.4.4.4.4.4.4.4.4.4.4.4.4.1.S 8   oX|.|.).  ! N.Y.oXA.^   1.4.4.4.4.4.4.4.4.4.4.4.5.4.4.4.1.4.4.4.4.4.4.4.",
"8.6.8.8.8.8.8.8.2.5.5.5.8.6.6.8.8.8.8.8.8.8.8.8.4.S 5   #X|././.  ! M.).oXD./   1.4.5.5.8.8.8.8.8.8.8.8.8.8.8.8.1.4.4.4.8.5.5.8.",
"q.q.q.q.q.q.q.q.5.5.5.6.q.q.q.q.q.q.q.q.0.q.q.q.4.S 8   #XoX|./.  ! M.).*XD.~   1.4.5.5.q.0.q.q.q.q.q.q.q.q.q.q.1.4.5.8.q.8.8.q.",
"t.t.t.t.t.t.t.t.1.5.8.q.r.r.t.t.t.t.t.t.t.t.t.t.1.S 8   ).}.|.oX  ~ A.oX/.N.E   1.4.0.t.t.t.q.t.t.t.t.t.t.t.t.t.5.6.q.t.t.t.t.t.",
"w.i.i.i.t.i.i.i.4.5.9.w.i.i.i.i.i.t.u.i.i.i.i.i.1.S 5   M.N.A.A.  r _ A.N._ r   4.4.8.t.i.t.t.t.t.t.i.t.i.i.i.i.4.5.q.i.t.t.i.t.",
"i.i.i.a.i.i.a.a.4.5.q.i.a.i.i.i.a.i.i.a.a.a.a.a.1.S 5   ~ ~ ~ ~   = r E ~ r =   4.8.q.t.a.i.u.u.t.i.i.i.i.a.a.a.1.4.q.i.i.i.i.u.",
"i.a.a.a.i.a.a.a.1.5.w.a.a.a.a.i.a.a.a.a.a.a.i.i.1.S 8                           1.8.t.i.a.a.i.i.a.a.a.a.a.a.a.a.1.8.t.a.a.a.a.i.",
"5.1.1.1.1.1.1.1.1.1.1.1.1.1.1.1.1.1.1.1.1.1.1.1.1.1.1.1.1.1.1.1.1.1.1.1.1.1.1.1.1.1.1.1.1.1.1.1.4.4.1.1.1.1.1.1.1.1.1.1.1.4.4.1.",
"2.4.4.5.4.4.4.4.4.5.4.4.5.4.5.4.1.4.4.4.4.4.4.4.4.4.4.4.4.4.4.4.1.4.4.4.4.4.4.4.4.4.4.4.4.4.4.4.2.4.4.4.4.4.4.4.4.4.4.4.4.4.4.4.",
"1.4.5.5.6.8.8.6.6.8.6.8.8.8.8.8.1.4.5.5.8.8.6.8.5.8.8.8.8.8.0.8.1.4.4.5.5.8.8.8.8.8.8.8.8.8.8.8.2.4.5.5.8.6.8.8.8.8.8.8.8.8.8.5.",
"1.4.5.5.q.q.q.q.q.q.q.q.q.q.q.q.1.4.5.5.0.q.q.q.q.0.q.q.q.q.q.q.1.4.5.5.q.q.q.q.q.q.q.q.q.q.q.t.5.4.5.5.q.q.q.q.q.q.0.q.q.q.q.q.",
"1.4.9.r.t.t.t.t.t.r.t.t.r.t.t.t.1.4.8.t.t.t.t.t.t.t.t.t.t.t.t.t.1.4.0.t.t.q.e.t.t.t.t.t.t.t.t.t.5.5.0.t.t.e.e.t.t.t.t.t.t.i.i.t.",
"4.5.9.t.i.i.i.t.t.i.i.i.i.i.i.i.4.5.0.t.i.i.u.t.t.t.i.i.i.i.i.i.1.8.q.t.i.t.t.i.i.u.t.i.i.i.i.i.4.4.8.t.i.i.u.t.i.t.t.t.u.i.i.i.",
"5.6.q.i.a.a.i.i.i.i.a.a.a.a.a.a.4.5.q.u.a.a.i.i.u.i.a.a.a.a.a.i.1.8.e.u.a.i.i.i.a.i.i.a.a.a.a.a.1.6.q.t.a.a.i.i.a.i.i.u.a.a.a.a.",
"1.9.w.i.a.a.a.a.a.i.a.a.a.a.a.a.1.8.e.a.a.a.a.a.a.a.a.a.a.a.a.i.1.4.q.a.a.a.a.a.a.a.a.a.a.a.a.i.1.8.t.a.a.a.a.a.a.i.a.a.a.a.a.a."
};
