/* XPM */
static char *p4[] = {
/* columns rows colors chars-per-pixel */
"64 64 176 2 ",
"   c black",
".  c #010101",
"X  c #020202",
"o  c #040404",
"O  c #060606",
"+  c #070707",
"@  c #080808",
"#  c gray4",
"$  c #0C0C0C",
"%  c #0D0D0D",
"&  c #0E0E0E",
"*  c #0F0F0F",
"=  c #130C0A",
"-  c #130D0B",
";  c #101010",
":  c #111111",
">  c #131313",
",  c gray8",
"<  c #151515",
"1  c gray9",
"2  c #181818",
"3  c #191919",
"4  c #1A1A1A",
"5  c #1B1B1B",
"6  c #1D1D1D",
"7  c #1E1E1E",
"8  c #261914",
"9  c #261915",
"0  c #261A15",
"q  c #38251F",
"w  c #39251F",
"e  c #202020",
"r  c #222222",
"t  c #232323",
"y  c gray14",
"u  c #252525",
"i  c gray15",
"p  c #272727",
"a  c #282828",
"s  c #2A2A2A",
"d  c #2B2B2B",
"f  c #2C2C2C",
"g  c #2D2D2D",
"h  c #392720",
"j  c #3A2821",
"k  c #3B2922",
"l  c #3D2A23",
"z  c #3A2D28",
"x  c #303030",
"c  c #313131",
"v  c #323232",
"b  c #333333",
"n  c #343434",
"m  c #353535",
"M  c #363636",
"N  c #373737",
"B  c #3B3532",
"V  c #393939",
"C  c #3A3A3A",
"Z  c #3B3B3B",
"A  c #3C3C3C",
"S  c #3D3D3D",
"D  c #3E3E3E",
"F  c #3F3F3F",
"G  c #452307",
"H  c #462408",
"J  c #462409",
"K  c #48270C",
"L  c #4A280E",
"P  c #4B290F",
"I  c #56341D",
"U  c #723A0C",
"Y  c #733A0C",
"T  c #412E28",
"R  c #45322C",
"E  c #4B3229",
"W  c #4C332A",
"Q  c #553C33",
"!  c #5E3F34",
"~  c #73401B",
"^  c #7C4318",
"/  c #7C4418",
"(  c #64412F",
")  c #614337",
"_  c #704B3D",
"`  c #714B3D",
"'  c #724C3E",
"]  c #724D3F",
"[  c gray25",
"{  c gray26",
"}  c #444444",
"|  c #464646",
" . c #474747",
".. c #484848",
"X. c #4B4B4B",
"o. c #4C4C4C",
"O. c #4D4D4D",
"+. c #4E4E4E",
"@. c #4F4F4F",
"#. c #505050",
"$. c #515151",
"%. c #525252",
"&. c #535353",
"*. c #545454",
"=. c #555555",
"-. c #565656",
";. c #575757",
":. c #585858",
">. c #595959",
",. c #5A5A5A",
"<. c #5B5B5B",
"1. c #5C5C5C",
"2. c #5D5D5D",
"3. c #5E5E5E",
"4. c #724E40",
"5. c #734E40",
"6. c #734F41",
"7. c #754F42",
"8. c #735042",
"9. c #745143",
"0. c #755144",
"q. c #775144",
"w. c #89460F",
"e. c #8B4710",
"r. c #8B4811",
"t. c #8C4811",
"y. c #904D18",
"u. c #94501C",
"i. c #95511D",
"p. c #A05111",
"a. c #A05211",
"s. c #B75D13",
"d. c #AD5E21",
"f. c #AE5F22",
"g. c #CE6916",
"h. c #CF6A18",
"j. c #D06B19",
"k. c #D16C1A",
"l. c #D46F1E",
"z. c #D5701F",
"x. c #C66C26",
"c. c #D67020",
"v. c #D77121",
"b. c #D87323",
"n. c #DD7729",
"m. c #DE782A",
"M. c #DF792A",
"N. c #DF792B",
"B. c #E07A2B",
"V. c #E07A2C",
"C. c #835848",
"Z. c #845848",
"A. c #845849",
"S. c #865D4D",
"D. c #875E4E",
"F. c #966452",
"G. c #976553",
"H. c #976654",
"J. c #996A58",
"K. c #A76F5A",
"L. c #A86F5A",
"P. c #A8705B",
"I. c #A9705C",
"U. c #A9715C",
"Y. c #A9715D",
"T. c #AA725E",
"R. c #AA735E",
"E. c #AB745F",
"W. c #AB7460",
"Q. c #AB7560",
"!. c #AB7561",
"~. c #AC7561",
"^. c #AC7662",
"/. c #AD7763",
"(. c #AD7864",
"). c #AE7A66",
/* pixels */
"X.X.+.+.X.X.X.X.X.X.X.X.X.X.X.X.X.X.+.+.+.X.X.X.X.X.X.X.X.X.X.X.X.X.X.X.X.X.X.X.X.X.X.X.X.X.X.X.X.X.+.+.X.X.X.X.X.X.X.X.X.X.X.X.",
"+.+.+.+.+.+.+.+.X.+.+.+.+.+.+.+.+.+.+.+.+.+.+.+.X.X.+.+.+.+.+.+.+.+.+.+.+.+.+.+.X.+.+.+.+.+.+.+.+.+.+.+.+.+.+.+.X.+.+.+.+.+.+.+.",
"+.%.%.%.%.+.%.%.X.+.+.%.%.%.+.%.%.+.%.%.%.%.+.%.X.+.+.%.+.%.%.%.%.%.%.%.%.%.%.%.X.+.+.%.%.%.%.+.+.%.%.%.%.%.%.%.X.+.+.%.%.%.+.%.",
"-.-.-.-.-.-.-.-.X.+.%.-.-.%.-.-.-.-.-.-.-.-.-.-.X.+.%.-.-.-.-.-.-.%.-.%.-.-.-.-.X.+.%.-.-.%.-.-.%.%.-.-.-.-.-.:.X.+.%.-.-.%.-.-.",
":.:.:.1.:.:.:.1.+.+.-.:.-.:.:.:.-.:.:.:.:.:.1.:.X.+.%.-.:.-.-.:.:.:.:.:.-.:.:.:.X.+.-.:.-.:.:.:.:.:.:.:.1.:.:.:.X.+.%.-.-.-.-.:.",
":.1.1.:.1.1.1.1.X.+.%.:.-.:.1.:.1.1.1.:.1.1.1.1.X.+.-.:.1.:.1.1.1.1.1.:.1.1.1.1.+.+.%.:.:.1.1.:.:.:.1.:.1.1.1.1.X.+.-.1.:.:.:.1.",
":.1.1.1.3.3.3.3.+.+.-.1.1.1.1.1.3.3.1.1.3.3.3.3.X.+.%.:.1.1.1.3.1.1.1.1.3.3.3.3.+.%.-.1.:.1.1.1.1.1.1.1.3.3.3.3.+.+.-.1.1.1.1.3.",
"3.3.3.3.3.3.3.3.%.%.:.3.1.3.3.1.3.3.3.3.3.3.1.1.+.%.-.1.3.3.1.3.3.1.3.3.3.3.3.3.+.-.:.3.3.3.1.1.3.3.3.3.3.3.3.3.+.+.-.1.1.3.3.3.",
"+.X.X.X.X.X.X.X.X.X.X.X.X.X.X.X.X.X.X.X.X.+.+.X.X.X.X.X.X.X.X.X.%.+.X.X.X.X.X.X.X.X.X.X.+.X.X.X.+.+.X.X.X.+.+.X.+.X.+.+.X.X.X.X.",
"+.+.+.+.+.+.+.+.+.+.+.+.+.+.+.+.X.+.+.+.+.+.+.+.v v v v v v v v n v v v v v v v v V | +.+.+.+.+.+.+.+.+.+.+.+.+.+.+.+.+.+.+.+.+.",
"X.+.+.%.%.%.%.%.%.%.%.+.%.%.%.%.X.+.+.%.%.+.%.+.4 4 4 4 4 4 4 4 4 4 4 4 4 4 4 4 4 g S %.%.%.%.-.X.+.+.%.%.%.%.+.%.%.%.%.%.%.%.%.",
"X.+.+.+.-.-.-.-.-.%.-.-.%.-.-.%.X.+.+.%.-.-.-.-.                                  6 n -.:.-.-.:.X.+.%.%.-.-.-.%.-.%.-.%.-.%.-.-.",
"X.+.%.:.:.:.:.:.1.:.:.:.:.1.1.:.+.%.%.:.:.S 6   | { { S V n n n i e e i 4 < < < % + +   :.:.:.:.+.%.%.-.:.:.1.:.:.:.1.:.1.1.:.:.",
"X.%.-.:.1.:.:.1.1.:.1.:.1.1.1.1.+.+.%.:.V g 6 > V V n n v g g a 6 6 4 4 % > % % + +     V X.%.1.X.+.%.-.1.1.1.:.:.1.1.1.1.:.1.1.",
"X.%.-.:.3.1.1.3.1.1.1.1.3.3.3.3.+.+.-.1.6 e 6 6 v g g g i e e 6 > % % % @ @ @ +         6 v X.1.X.%.-.:.3.3.1.1.1.1.3.3.1.1.1.1.",
"X.+.-.1.3.3.3.3.3.3.3.3.3.3.3.3.%.%.:.3.  % 6 a i i e i 4 < < > +                         6 S 1.X.%.:.1.3.3.3.3.3.3.3.3.3.3.3.3.",
"X.X.+.+.X.X.X.X.X.X.X.X.X.X.X.X.X.v 4   > % +                                                   X.X.X.X.+.+.+.X.X.X.X.X.X.X.X.X.",
"+.+.+.+.+.+.+.+.X.+.+.+.+.+.+.+.+.v 4   R T l w w q w w                                         +.+.+.+.+.+.%.+.X.+.+.+.+.+.+.+.",
"%.+.%.%.%.%.%.%.+.+.+.%.%.+.%.+.%.n 4   q.7.] ` ` ` _ ]                                         %.%.%.%.%.%.%.%.X.+.+.+.%.%.%.%.",
"-.-.-.-.-.-.%.-.+.+.%.%.-.-.-.-.-.V 6   I.P.P.P.I.I.I.I.                                        -.-.%.-.-.-.-.-.X.+.%.-.-.-.%.-.",
":.:.1.:.:.:.:.:.X.+.%.:.:.:.:.:.:.S 6   I.I.I.P.K.E.Q.Q.I.` w                                   -.:.:.1.:.:.1.:.+.+.-.:.%.:.:.-.",
"1.1.1.1.:.1.1.1.+.%.%.:.1.1.:.1.1.S 6   I.I.I.I._ C.H.Q.I.C.! h                                 1.:.:.:.1.1.1.1.X.+.%.:.-.:.1.1.",
"1.1.1.1.1.1.1.3.+.+.-.1.3.1.1.1.1.S 6   I.I.I.I.w ! C.E.I.G.C._                                 1.1.1.1.3.3.3.3.+.+.-.1.1.1.1.1.",
"3.1.3.3.3.3.3.3.+.%.:.3.3.3.1.1.1.{ e   I.I.I.I.  q _ K.I.I.I.I.                                3.3.1.3.3.3.3.3.+.%.:.3.3.3.3.3.",
"+.X.X.X.X.X.X.X.X.X.X.X.X.X.X.X.+.v 4   K.P.P.I.  w ` I.P.I.I.I.                                +.X.X.X.X.X.X.X.+.X.X.X.X.X.+.+.",
"X.+.+.+.+.+.+.+.+.+.+.+.+.+.+.+.X.v 4   K.K.P.I.w ! A.I.Q.I.I.I.w 8 -                     @ < 6 +.X.+.+.+.+.+.+.+.+.+.+.+.+.+.+.",
"X.+.+.%.+.%.%.%.+.%.%.%.%.%.%.-.X.v 4   L.P.P.I.] A.G.I.Q.I.I.I.` E 8                     < i V X.+.+.+.%.+.%.%.%.%.%.+.%.+.%.%.",
"X.+.%.%.-.-.-.-.-.-.-.%.-.-.-.:.X.v 4   L.P.I.I.I.I.E.I.).Q.Q.Q.I.` w                     6 V :.X.+.%.-.-.%.%.:.-.%.-.-.-.-.-.-.",
"X.+.%.-.:.-.-.:.:.:.:.:.:.1.:.1.+.%.%.:.  w ` I.E.~.~.~.).).).).I.5.h                   :.1.:.:.X.+.%.:.:.:.1.:.:.:.1.:.:.:.:.:.",
"+.+.-.:.:.:.1.1.1.:.1.1.1.1.1.1.+.+.-.1.6 z Q ` ] 5.8.5.8.9.9.8.` E 8             % < 6 1.1.1.1.X.+.-.:.:.:.:.1.1.1.:.1.1.1.1.1.",
"+.%.-.1.1.1.1.3.3.1.1.3.1.3.3.3.X.+.-.1.S B z h j j w j j j j j w 8 -             < a S 3.3.1.3.X.%.:.1.1.1.1.3.3.1.1.3.3.3.1.3.",
"X.%.-.1.3.3.1.3.3.3.1.3.3.3.3.3.X.%.-.1.1.S 6                                     6 S 3.3.3.1.1.X.-.:.1.3.3.3.3.3.3.3.3.3.3.3.3.",
"X.X.X.X.X.X.X.+.X.X.X.X.X.X.X.X.X.X.X.X.X.X.X.+.X.v 4   g.g.g.g.g.g.g.g.  4 v +.X.X.X.X.X.X.X.X.X.X.X.X.X.X.X.X.X.X.X.X.X.X.X.X.",
"+.+.+.+.+.+.+.+.X.+.+.+.+.+.+.+.+.+.+.+.+.+.+.+.X.v 4   w.a.s.g.w.a.s.g.  4 v %.X.X.X.+.+.+.+.+.+.+.+.+.+.+.+.+.X.X.+.+.+.+.+.+.",
"%.%.+.%.%.%.%.%.X.+.+.%.%.%.%.%.%.%.+.%.%.%.%.%.X.v 4   G U a.g.G U a.g.  4 n %.X.X.+.+.%.%.%.%.%.%.%.%.%.%.%.%.X.+.@.%.%.%.@.%.",
"-.%.-.-.-.-.-.-.X.+.%.-.-.%.-.-.%.-.-.-.-.-.-.-.X.v 4     H r.g.  G w.g.  6 V -.X.+.%.%.-.%.&.-.&.-.&.-.-.-.-.-.X.+.%.+.&.-.&.-.",
"-.:.:.:.:.1.:.:.X.+.%.:.-.:.:.:.-.:.:.:.:.1.:.:.X.v 4     w 8.).  G w.g.  6 S :.+.%.%.:.:.:.:.:.:.:.:.:.1.1.1.:.X.+.-.:.:.:.:.:.",
":.1.1.1.1.1.1.1.+.+.-.:.:.1.1.:.1.1.1.:.1.1.1.1.v e >   l ) S./.  H e.j.  6 S 1.+.+.%.:.1.:.1.1.:.1.1.1.1.1.1.1.X.+.%.:.1.1.1.:.",
"1.3.1.1.3.3.3.1.+.%.-.:.1.1.1.:.3.3.1.1.3.3.1.1.4 > +   9.D.J.~.  H t.k.  6 S 1.+.@.-.1.1.1.1.1.1.1.1.1.1.3.3.3.X.%.-.1.3.1.1.1.",
"3.3.1.1.3.3.3.1.X.%.:.1.3.3.3.1.3.3.3.1.3.3.3.1.        ).)./.Q.  H t.k.  e { 3.@.%.:.3.3.3.1.1.3.3.3.3.3.3.3.3.X.%.:.3.3.3.1.1.",
"+.+.X.X.X.X.X.X.X.X.X.X.X.X.X.X.+.+.X.X.X.X.X.X.  j 5.E.E.5.w   l.l.l.l.  4 v X.X.X.X.X.X.X.X.X.X.X.X.X.X.X.X.X.X.X.X.X.X.X.X.X.",
"X.+.+.+.+.+.+.+.+.+.+.+.+.+.+.+.X.+.+.+.+.+.+.+.  8 W ] 5.( I K c.l.l.z.  4 v +.+.+.+.+.+.+.+.+.X.+.+.+.+.+.+.+.+.+.+.+.+.+.+.+.",
"X.+.+.%.+.%.%.%.+.%.%.%.%.%.%.+.X.+.%.%.%.%.%.%.  - 8 w w I ~ y.c.c.z.z.  4 n %.@.%.%.%.%.@.%.%.X.+.+.%.%.@.%.%.%.%.%.%.%.%.%.@.",
"X.+.%.%.-.-.-.%.-.-.-.-.-.%.-.-.+.+.%.%.%.-.%.-.          L y.b.b.c.c.c.  6 V -.-.-.&.-.-.-.-.-.X.+.%.%.-.&.-.-.-.&.-.&.*.&.-.-.",
"+.+.-.:.-.:.:.:.:.:.:.1.:.:.1.:.+.+.-.:.-.-.-.:.:.S 6   V.V.V.V.V.V.V.V.  6 Z :.:.:.:.:.1.1.1.:.+.@.%.:.:.:.:.:.:.:.1.:.:.:.1.:.",
"+.+.-.:.:.1.1.:.:.1.1.1.1.1.1.1.+.+.-.:.:.:.:.1.:...v 6 i.d.x.N.N.x.d.i.6 n ..:.1.:.1.1.1.1.1.1.X.#.-.:.1.:.:.1.1.1.1.1.1.1.1.1.",
"+.+.-.:.3.3.1.1.1.1.3.3.3.1.1.3.+.+.-.:.3.1.1.3.1.%.X.S P / d.N.N.d.^ L S X.%.1.1.1.1.1.1.3.3.3.X.%.-.:.1.1.1.3.1.1.1.1.3.3.3.3.",
"X.%.:.3.3.3.3.1.3.3.3.3.3.3.1.1.X.%.:.3.3.3.3.3.3.3.1.1.  P i.N.n.u.L   1.3.1.3.1.3.3.3.3.3.3.3.X.-.:.1.3.3.3.3.3.1.3.3.3.3.3.3.",
"X.X.X.X.X.X.X.X.X.X.X.X.X.X.X.X.X.X.X.X.X.+.+.X.X.X.X.X.  P i.V.B.i.L   +.+.X.+.X.X.X.X.X.X.X.X.X.X.X.X.X.X.X.X.X.X.X.X.X.X.X.X.",
"+.+.+.+.+.+.+.+.X.+.+.+.+.+.+.+.+.+.+.+.+.+.+.+.X.+.+.+.  P i.V.N.i.L   +.+.+.+.X.+.+.+.+.+.+.+.+.+.+.+.+.+.+.+.X.+.+.+.+.+.+.+.",
"%.+.%.%.%.%.%.-.X.+.+.%.%.%.%.+.%.+.%.%.%.%.%.%.+.+.+.%.  P i.V.N.i.L   %.%.%.%.X.+.%.+.%.@.%.%.%.%.%.@.%.%.%.%.X.+.+.%.%.@.%.@.",
"-.-.-.-.-.-.-.:.X.+.%.+.-.-.%.-.-.-.-.;.-.-.%.-.+.+.%.+.  P i.V.B.i.L   -.-.;.:.X.+.+.+.-.-.-.-.&.&.-.-.%.-.-.-.X.+.%.%.-.-.&.&.",
"-.:.:.:.:.:.:.:.+.+.-.:.-.:.:.:.:.:.1.:.:.1.:.:.+.+.-.:.  L i.V.V.i.L   :.1.:.:.X.+.&.:.:.:.:.:.:.:.:.:.1.:.:.1.X.+.-.:.-.:.:.:.",
":.:.1.1.1.1.1.1.+.+.%.:.:.1.1.1.1.1.1.:.1.1.1.1.X.+.-.:.  L i.V.V.i.L   1.1.1.1.+.+.-.:.1.1.:.:.1.1.1.:.1.1.1.1.X.+.-.1.:.:.1.1.",
"1.1.1.1.3.1.1.3.+.+.-.1.1.1.1.1.1.1.1.1.3.3.3.3.X.+.-.:.  P i.V.V.i.P   3.1.1.1.+.%.-.:.1.1.1.:.1.3.1.1.3.3.3.3.X.+.:.1.1.1.1.1.",
"1.3.3.3.3.3.3.3.X.%.:.3.3.3.3.3.3.3.3.3.3.3.1.1.X.%.:.1.  L i.V.V.i.P   3.3.3.1.+.%.:.1.3.3.1.1.1.1.3.3.3.3.3.3.X.%.:.3.1.3.3.3.",
"+.X.X.+.X.X.X.+.X.X.X.X.X.X.X.X.X.X.X.X.X.X.X.X.X.X.+.+.                +.X.X.X.X.X.X.X.X.X.X.X.X.X.X.X.X.X.X.X.X.X.X.X.X.X.X.X.",
"+.+.+.+.+.+.+.+.+.+.+.+.+.+.+.+.X.X.X.+.+.+.+.+.+.+.+.+.6 6 6 6 4 4 5 6 +.+.+.+.+.+.+.+.+.+.+.+.X.+.+.+.+.+.+.+.+.+.+.+.+.+.+.+.",
"X.+.+.+.%.%.%.%.%.+.%.%.%.%.%.%.X.+.+.%.%.%.%.%.%.%.%.%.V V V V n n n n %.#.%.#.@.%.%.%.%.%.%.%.X.+.+.%.%.@.%.%.%.%.%.@.%.%.%.%.",
"X.+.%.+.-.%.-.-.-.-.-.-.-.-.%.-.X.+.%.-.-.%.-.%.-.&.-.%.-.-.-.-.+.#.%.#.*.-.*.-.-.-.-.-.-.-.-.-.X.+.%.%.-.&.-.;.-.-.*.-.-.-.-.;.",
"X.+.%.:.:.:.1.:.:.:.1.:.:.:.:.:.X.+.%.:.-.:.:.:.:.:.:.:.:.1.1.:.X.+.-.:.:.-.-.:.:.:.:.:.:.:.1.:.+.+.%.:.:.:.:.:.:.:.1.:.;.:.:.:.",
"+.+.-.:.1.1.1.:.:.1.1.1.1.1.1.1.+.+.-.:.:.:.:.1.1.:.1.1.1.3.1.1.+.#.%.:.1.:.:.1.1.1.1.1.1.1.1.1.+.+.&.1.:.:.1.1.1.1.1.1.1.1.1.1.",
"+.%.-.:.3.3.1.1.1.1.3.3.3.3.1.1.+.%.-.1.3.1.1.3.3.1.1.1.3.3.1.:.+.%.-.1.3.1.1.3.3.1.1.3.3.3.3.3.X.%.-.1.1.:.1.3.1.1.1.1.3.3.1.3.",
"X.%.:.1.3.3.3.3.3.3.3.3.3.3.3.1.X.%.-.3.3.3.3.3.3.3.3.3.3.3.3.1.X.%.:.3.3.3.3.3.3.3.3.3.3.3.1.1.X.%.:.1.3.3.3.3.3.1.3.3.3.3.3.3."
};
