/* XPM */
static char *b75e05357ddb49b8adaad3205e28748dF6oaM1HB2Bgkx0WD[] = {
/* columns rows colors chars-per-pixel */
"64 64 51 1 ",
"  c black",
". c #060606",
"X c #0C0C0C",
"o c #131313",
"O c #191919",
"+ c #202020",
"@ c gray15",
"# c #2D2D2D",
"$ c gray20",
"% c #393939",
"& c gray25",
"* c #464646",
"= c #4B4B4B",
"- c gray32",
"; c #535353",
": c gray33",
"> c #555555",
", c #565656",
"< c gray34",
"1 c #585858",
"2 c gray35",
"3 c #5A5A5A",
"4 c #5B5B5B",
"5 c gray36",
"6 c #5D5D5D",
"7 c gray37",
"8 c #CD6815",
"9 c #CE6916",
"0 c #CE6917",
"q c #D16C1A",
"w c #D36E1D",
"e c #D46F1E",
"r c #D67020",
"t c #D77121",
"y c #D87323",
"u c #DC7627",
"i c #DD7729",
"p c #DF792A",
"a c #E07A2C",
"s c #A76F5A",
"d c #A86F5A",
"f c #A8705B",
"g c #A9705C",
"h c #A9715D",
"j c #A9725D",
"k c #AA725E",
"l c #AB745F",
"z c #AB7561",
"x c #AC7662",
"c c #AC7663",
"v c #AE7A66",
/* pixels */
"================================================================",
"================================================================",
";;;;>>>>==;;;;;;;;;;>>>>==;;;;;;;;;;>>>>==;;;;;;;;;;>>>>==;;;;;;",
">>>>>>>>==>>>>>>>>>>>>>>==>>>>>>>>>>>>>>==>>>>>>>>>>>>>>==>>>>>>",
"22222222==>>>>>222222222==>>>>>222222222==>>>>2222222222==>>>>>2",
"25522225==22222222222525==22222225552225==22222225522225==222222",
"55555555==55555555555555==55555555555555==55555555555555==555555",
"55555555==55555555555555==55555555555555==55555555555555==555555",
"================================================================",
"================================================================",
"==;;;;;;;;;;>>>>==;;;;;;;;;;>>>>==;;;;;;;;;;>>>>==;;;;;;;;;;>>>>",
"==>>>>>>>>>>>>>>==>>>>>>>>>>>>>>==>>>>>>>>>>>>>2==>>>>>>>>>>>>>>",
"==>>>>2222222222==>>222222222222==>>222222222222==>>>>2222222222",
"==22222222222525==22222225522225==22222222222225==22222222222525",
"==55555555555555==55555555555555==55555555555555==55555555555555",
"==55555555555555==55555555555555==55555555555555==55555555555555",
"================================================================",
"================================================================",
";;;;>>>>==;;;;;>;;;;>>>>==;;;;;;;;;;>>>>==;;;;;;;;;;>>>>==;;;;;>",
">>>>>>>2==>>>>>>>>>>>>>>==>>>>>>>>>>>>>>==>>>>>>>>>>>>>2==>>>>>>",
"22222222==>>>>>222222222==>>>>>222222222==>>>>2222222222==>>>>>2",
"22222225==22222222222525==22222225552225==22222222222225==222222",
"55555555==55555555555555==55555555555555==55555555555555==555555",
"55555555==55555555555555==55555555555555==55555555555555==555555",
"================================================================",
"================================================================",
"==;;;;;;;;>>>>>>==;;;;;;;;;;>>>>==;;;;;;;;;;>>>>==;;;;;;;;;>>>>>",
"==>>>>>>>>>>>>>>==>>>>>>>>>>>>>>==>>>>>>>>>>>>>2==>>>>>>>>>>>>>>",
"==>>>>>222222222==>>222222222222==>>222222222222==>>>>>222222222",
"==22222225552225==22222225522225==22222222222255==22222225552225",
"==55555555555555==55555555555555==55555555555555==55555555555555",
"==55555555555555==55555555555555==55555555555555==55555555555555",
"========================================          ==============",
"========================================          ==============",
";;;;>>>>==;;;;;;;;;>>>>>==;;;;;;;;;;>>              >>>>==;;;;;;",
">>>>>>>>==>>>>>>>>>>>>>>==>>>>>>>>>>>>              >>>>==>>>>>>",
"22222222==>>>>>222222222==>>>>222222                  22==>>>>22",
"22225525==22222225552225==2222222222                  25==222222",
"55555555==55555555555555==55555555                  XX  ==555555",
"55555555==55555555555555==55555555                  XX  ==555555",
"==================================                  oo  ========",
"==================================                  oo  ========",
"==;;;;;;;;;;>>>>==;;                                OO  ;;;;>>>>",
"==>>>>>>>>>>>>>>==>>                                OO  >>>>>>>2",
"==>>>>>2            aattwwqq999999                  ++  22222222",
"==222222            aattwwqq999999                  ++  22222225",
"==555555  aaaaaappuuaattee      99  gggg          ..@@  55555555",
"==555555  aaaaaappuuaattee      99  gggg          ..@@  55555555",
"========  aaaaaaaaiiaayy  llvv9999  cczzgggg      oo$$  ========",
"========  aaaaaaaaiiaayy  llvv9999  cczzgggg      oo$$  ========",
";;;;>>>>            aa  llvv    99  vvzzddgggg    OO%%  ==;;;;;;",
">>>>>>>>            aa  llvv    99  vvzzddgggg    OO%%  ==>>>>>>",
"22222222==>>>>>22222    ll          ccggffffzzgg  ++&&  ==>>>>>2",
"25522225==2222222222    ll          ccggffffzzgg  ++&&  ==222222",
"55555555==555555555555      555555  llgg    ddgg  @@**  ==555555",
"55555555==555555555555      555555  llgg    ddgg  @@**  ==555555",
"==================================  ddggggggffff  ##  ==========",
"==================================  ddggggggfgff  ##  ==========",
"==;;;;;;;;;;>>>>==;;;;;;;;;;>>>>==;;  ddssggggggoo  ;;;;;;;;>>>>",
"==>>>>>>>>>>>>>>==>>>>>>>>>>>>>>==>>  dfssggggggoo  >>>>>>>>>>>>",
"==>>>>2222222222==>>>>2222222222==>>>>            >>>>2222222222",
"==22222222222525==22222222222525==2222            22222222222525",
"==55555555555555==55555555555555==55555555555555==55555555555555",
"==55555555555555==55555555555555==55555555555555==55555555555555"
};
