/* XPM */
static char *_1891e83610c43c5b46bc885123be671aO1PNSNky1USqekP[] = {
/* columns rows colors chars-per-pixel */
"64 64 57 1 ",
"  c black",
". c #020101",
"X c #020202",
"o c gray1",
"O c #040404",
"+ c #060606",
"@ c #0C0C0C",
"# c #131313",
"$ c #191919",
"% c #202020",
"& c gray15",
"* c #2D2D2D",
"= c gray20",
"- c #393939",
"; c gray25",
": c #464646",
"> c #4B4B4B",
", c gray32",
"< c #535353",
"1 c gray33",
"2 c #555555",
"3 c #565656",
"4 c gray34",
"5 c #585858",
"6 c gray35",
"7 c #5A5A5A",
"8 c #5B5B5B",
"9 c gray36",
"0 c #5D5D5D",
"q c gray37",
"w c #CD6815",
"e c #CE6917",
"r c #D16C1A",
"t c #D36E1D",
"y c #D46F1E",
"u c #D67020",
"i c #D77121",
"p c #D67222",
"a c #D87323",
"s c #DC7627",
"d c #DD7729",
"f c #DF792A",
"g c #E07A2C",
"h c #A76F5A",
"j c #A86F5A",
"k c #A8705B",
"l c #A9705C",
"z c #A9715D",
"x c #A8725D",
"c c #A9725E",
"v c #AB745F",
"b c #AB7561",
"n c #AC7662",
"m c #AC7663",
"M c #AB7864",
"N c #AC7865",
"B c #AE7A66",
/* pixels */
">>>>>>>>>>>>>>>>>>>>>>>>>>>>>>>>>>>>>>>>>>>>>>>>>>>>>>>>>>>>>>>>",
">>>>>>>>>>>>>>>>>>>>>>>>>>>>>>>>>>>>>>>>>>>>>>>>>>>>>>>>>>>>>>>>",
"<<<<2222>><<<<<<<<<<2222>><<<<<<<<<<2222>><<<<<<<<<<2222>><<<<<<",
"22222222>>22222222222222>>22222222222222>>22222222222222>>222222",
"66666666>>22222666666666>>22222666666666>>22226666666666>>222226",
"69966669>>66666666666969>>66666669996669>>66666669966669>>666666",
"99999999>>99999999999999>>99999999999999>>99999999999999>>999999",
"99999999>>99999999999999>>99999999999999>>99999999999999>>999999",
">>>>>>>>>>>>>>>>>>>>>>>>>>>>>>>>>>>>>>>>>>>>>>>>>>>>>>>>>>>>>>>>",
">>>>>>>>>>>>>>>>>>>>>>>>>>>>>>>>>>>>>>>>>>>>>>>>>>>>>>>>>>>>>>>>",
">><<<<<<<<<<2222>><<<<<<<<<<2222>><<<<<<<<<<2222>><<<<<<<<<<2222",
">>22222222222222>>22222222222222>>22222222222226>>22222222222222",
">>22226666666666>>22666666666666>>22666666666666>>22226666666666",
">>66666666666969>>66666669966669>>66666666666669>>66666666666969",
">>99999999999999>>99999999999999>>99999999999999>>99999999999999",
">>99999999999999>>99999999999999>>99999999999999>>99999999999999",
">>>>>>>>>>>>>>>>>>>>>>>>>>>>>>>>>>>>>>>>>>>>>>>>>>>>>>>>>>>>>>>>",
">>>>>>>>>>>>>>>>>>>>>>>>>>>>>>>>>>>>>>>>>>>>>>>>>>>>>>>>>>>>>>>>",
"<<<<2222>><<<<<2<<<<2222>><<<<<<<<<<2222>><<<<<<<<<<2222>><<<<<2",
"22222226>>22222222222222>>22222222222222>>22222222222226>>222222",
"66666666>>22222666666666>>22222666666666>>22226666666666>>222226",
"66666669>>66666666666969>>66666669996669>>66666666666669>>666666",
"99999999>>99999999999999>>99999999999999>>99999999999999>>999999",
"99999999>>99999999999999>>99999999999999>>99999999999999>>999999",
">>>>>>>>>>>>>>>>>>>>>>>>>>>>>>>>>>>>>>>>>>>>>>>>>>>>>>>>>>>>>>>>",
">>>>>>>>>>>>>>>>>>>>>>>>>>>>>>>>>>>>>>>>>>>>>>>>>>>>>>>>>>>>>>>>",
">><<<<<<<<222222>><<<<<<<<<<2222>><<<<<<          <<<<<<<<<22222",
">>22222222222222>>22222222222222>>222222          22222222222222",
">>22222666666666>>22666666666666>>2222              222666666666",
">>66666669996669>>66666669966669>>6666              666669996669",
">>99999999999999>>99999999999999>>99                  9999999999",
">>99999999999999>>99999999999999>>99                  9999999999",
">>>>>>>>>>>>>>>>>>>>>>>>>>>>>>>>>>                  @@  >>>>>>>>",
">>>>>>>>>>>>>>>>>>>>>>>>>>>>>>>>>>                  @@  >>>>>>>>",
"<<<<2222>><<<<<<<<<<2222>><<<<<<<<                  ##  >><<<<<<",
"22222222>>22222222222222>>22222222                  ##  >>222222",
"66666666>>22222666666666>>2222                      $$  >>222266",
"66669969>>66666668996669>>6666                      $$  >>666666",
"99999999>>999999999999        eeee                  %%  >>999999",
"99999999>>999999999999        eeee                  %%  >>999999",
">>>>>>>>>>>>>>>>>>    ppttrreeeeee  xxxx          OO&&  >>>>>>>>",
">>>>>>>>>>>>>>>>>>    ppttrreeeeee  xxxx          OO&&  >>>>>>>>",
">><<<<<<<<<<      ggggppyy      ee  nnbbxxxx      ##==  <<<<2222",
">>2222222222      ggggppyy      ee  nnbbxxxx      ##==  22222226",
">>222226    ggggffssggaa  xxBMeeee  BBbbjjxxxx    $$--  66666666",
">>666666    ggggffssggpp  xvBBeeee  BBbbjjxxxx    $$--  66666669",
">>999999  ggggggggddgg  xvBB        nnxxkkkkbbxx  %%;;  99999999",
">>999999  ggggggggddgg  vvBB        nnxxkkkkbbxx  %%;;  99999999",
">>>>>>>>  gg            vv    >>>>  vvxx    jjxx  &&::  >>>>>>>>",
">>>>>>>>  gg            vx    >>>>  vvxx    jjxx  &&::  >>>>>>>>",
"<<<<2222    <<<<<<<<22  vx  <<<<<<  jjxxxxxxkkkk  **  22>><<<<<<",
"22222222    2222222222  vx  222222  jjxxxxxxkkkk  **  22>>222222",
"66666666>>222226666666  MM  22266666  jjhhxxxxxx##  6666>>222226",
"69966669>>666666666666  MM O66666666  jjhhxxxxxx##  6669>>666666",
"99999999>>999999999999      9999999999            999999>>999999",
"99999999>>999999999999      9999999999            999999>>999999",
">>>>>>>>>>>>>>>>>>>>>>>>>>>>>>>>>>>>>>>>>>>>>>>>>>>>>>>>>>>>>>>>",
">>>>>>>>>>>>>>>>>>>>>>>>>>>>>>>>>>>>>>>>>>>>>>>>>>>>>>>>>>>>>>>>",
">><<<<<<<<<<2222>><<<<<<<<<<2222>><<<<<<<<<<2222>><<<<<<<<<<2222",
">>22222222222222>>22222222222222>>22222222222222>>22222222222222",
">>22226666666666>>22226666666666>>22226666666666>>22226666666666",
">>66666666666969>>66666666666969>>66666666666969>>66666666666969",
">>99999999999999>>99999999999999>>99999999999999>>99999999999999",
">>99999999999999>>99999999999999>>99999999999999>>99999999999999"
};
