/* XPM */
static char *wall[] = {
/* columns rows colors chars-per-pixel */
"64 64 52 1 ",
"  c #353535",
". c #3D3D3D",
"X c #444444",
"o c #484848",
"O c #494949",
"+ c #4A4A4A",
"@ c #4B4B4B",
"# c #545454",
"$ c #646464",
"% c #656565",
"& c #666666",
"* c #676767",
"= c #686868",
"- c #767676",
"; c #777777",
": c #787878",
"> c #797979",
", c #7A7A7A",
"< c #7B7B7B",
"1 c #7C7C7C",
"2 c #7D7D7D",
"3 c #7E7E7E",
"4 c #7F7F7F",
"5 c #808080",
"6 c #818181",
"7 c #828282",
"8 c #838383",
"9 c #848484",
"0 c #868686",
"q c #878787",
"w c #898989",
"e c #8A8A8A",
"r c #8B8B8B",
"t c #8C8C8C",
"y c #8D8D8D",
"u c #8E8E8E",
"i c #8F8F8F",
"p c #909090",
"a c #919191",
"s c #929292",
"d c #939393",
"f c #949494",
"g c #959595",
"h c gray59",
"j c #979797",
"k c #989898",
"l c #999999",
"z c #9A9A9A",
"x c #9B9B9B",
"c c #9C9C9C",
"v c #9E9E9E",
"b c #9F9F9F",
/* pixels */
"                                                                ",
" .X@@@@@@@@@@@@@@@@@@@@@@@@@@@@@@@@@X@@X@X@@@@@@@@@@@@@@@@@@@X. ",
" X#&===&========&=================&&$$&$$&&&&&&=&===========&#X ",
" @&qrrrrtttrrtttrrrttttrtttttttrrrrrrrrqrrrrrrrrrrttrrrttttrq&@ ",
" @=tbbbxbbbbxbbxbbxbxbbbbbbbxbbxbbxxbbbbbbbbbbbbbbbbxbbbxbbbr=@ ",
" @=tbgatttttttttttttrrtrtttrrrtttttttttttttttttrttttrrttttgbr&@ ",
" @=rxtq77777747777444474777444477747777774777774477744477qabt=@ ",
" @=tbt4--------------<--<--------------------------------7tbt=@ ",
" @=rbt7-aggggggggxggggggxggggggggggggggggaaggggggagggggg-4tbr&@ ",
" @=rbt4-gxxxgxxxggxxxxxgxxxxxxxxgxxgxxxgxxgxxxgxxxxxxgxg-7tbr&@ ",
" @=rbr4-gxxattaataaatatrtttataaatttataaaaaaaatttaaaagxxg-4tbr=@ ",
" @=rbr4-gxaq4<4q447<4<44444<<4<444474<77744q<444<77<raxg-4tbt=@ ",
" @&rxt7-gxa<<<<44<<47777<447474<7444<<4<4<<<<<47444<<axg-7tbt=@ ",
" @=tbt4-gxa4<qttatttggaataaaaaatgattaaataaataaaattq<7axg-7tbr=@ ",
" @=tbr4-gxa44axbxxxgxxxxxxxxxgxxxxgxxxxxxxxxxxxxbgt<7axg-7tbr=@ ",
" @=txt7-gxa7<txxgggggggaagggggggggggggggggggggggxbt4<tgg-4tbr=@ ",
" @=rxt7-ggt44txg--------------------------------gxt44txg-4rxr&@ ",
" @=rbt7-gga74axg-<477477777777747777447444744<<<gxa47axg-7tbr=@ ",
" @=rbt7-gxa74axg-<7tttttttattttttttartrrttrrr74-gxa77axg-7tbt=@ ",
" @=rxr4-gxa<7axg-4rxbbbxxbbbxxbbxbbbxxbbbbxxxt7-ggt44txg-7txr=@ ",
" @&rba7-ggt<4tgx<7txatrqqqqqrrrrrrrrrttrrrtaxt7-gxa4<axg-4rbt=@ ",
" @=rbt7-gxa44tgg-7tbt7<<<4<<<44<4444<4444<7abt7-gxa4<axg-7tbt=@ ",
" @&rbt7-gxa4<tgg-4tbr4-444444<4444444444<<4tbt4-gxa74axg-4tbt=@ ",
" @&rxr4-gxa74axg-7txr4<qrrrrrrttrrrrrrrrq44rxr4-gxt4<txg-4tbt=@ ",
" @=rbt7-ggt44txg-7txr44rbbbxbbxbbxbbxbbbr44rbt7-ggt<qaxg-7tbr=@ ",
" @=rbt7-gxt7<axg-4tbr<<rbgattttattrttagbr<4rbt7-gxa44txg-7tbt=@ ",
" @=rbt4-axa7<axg-7tbr44rbtq7447477447qtbr44rbt7-gxa4<tgg-7tbt=@ ",
" @=rbt4-gxa44txg-7abr<4rbr4----------7tbr4<rbt7-gxa74axg-7tbr=@ ",
" @=rxt7-gxa<7axg-4rxr44rbt7-        -7txr<4rxr4-gxt4<axg-4rxr=@ ",
" @=rbt4-gxa47axg-7tbr44tbt4-        -4rbr44rbt7-gxa74axg-7tbr=@ ",
" @=rbt7-gxa4<axg-7tbr44tbt7-        -7tbt44tbt4-gxa7<txg-7tbt=@ ",
" @=txt7-gxa7<txg-7txr44rxt7<        -7tbr<4rxr4-gxa<4tgg-7txr=@ ",
" @=rbt4-gxa<4gxg-7txr4<rxt7-        -7txr4<rbr4-gxa<7axg-4rbt=@ ",
" @&rbt4-gxt44axg-4tbr<4rbr4-        -7tbr44rbt4-gxa<4axg-7rbt=@ ",
" @=rbt7-ggt47axg-4tbr<4rbr4-        -7tbr44rxtq-gga44axx-7tbt=@ ",
" @=tbt7-gxt4<axg-7txr44rxt7-        <7tbr<4rbt7-gxa<7axg-7tbr&@ ",
" @=tbt4-gxa<<axg-7tbr<4rbt7-----<----4tbr44rbt7-gxt44tgg-4tbr=@ ",
" @=tbt7-gxa7<axg-4tbr44rbaq7777774774qabr4<rbt4-ggt<4txg-4rbr=@ ",
" @=rbt7-gxa7<axg-4tbr47tbgttttttttttttgbr<4rbr4-gxt44axg-4tbr=@ ",
" @=rxr4-gxt44axg-7tbr44tbbbbbbbxxbbxbbbbr4<rxt7-xxaq7axg-7tbt=@ ",
" @=tbt7-gxa74txg-7abr4<qrrrrrtrrrrrrrrttq<4rbt7-ggt44axg-7tbr&@ ",
" @=rbr7-gxt74tgg-7tbr4-<4<<4444444444<44<<<rbt7-gxt<<axg-4tbr=@ ",
" @=rbr4-ggt<4txg-7tbt74444<4444<44444444447tbr4-gxa4<agg-4tbr=@ ",
" @=tbt4-gxa<7ggg-7txgtrrtrrrrrrrrrrrtrrrrttabt4-gxt4<axg-7tbr=@ ",
" @=txt7-gxa<<axg-7txxxbbbbxbbbbbbxxxbbbxbbxxxt7-gxa<<axb-4rxr=@ ",
" @=tbr4-ggt44axg-47rrttrttttttrttttratttrrtrtq4-gxa74axg-7tbt=@ ",
" @=tbt4-gxt<4axa-<<444747447747747777777477774--gxa7<txg-7abt=@ ",
" @&rxt7-gxa47axg<-<-------------------------<---gxt44tgg-4txt=@ ",
" @=rbt7-gxa4<axxggggggggggggggggggggggggggggggggxgtq<axg-7tbr=@ ",
" @=rbt7-ggt<4txxxxxgxxxxxxxxgxbxxxxxbxxxxbxgxxxxxxt44axa-7rbr=@ ",
" @=rbt7-gga4<rtaaaattaaaaattaaaaaaaaaaaaaaataaaaatr<4txg-4rbt=@ ",
" @=txt7-gxaq<444744<477<744<<44<<<47<4<<77<474<4444<<tgg-7tbt=@ ",
" @=tbt4-gggq<4<44<44q4444<474<4<444<4<<444<44<474<4<qgxg-7txt=@ ",
" @=rbt4-gxxataattataaattataaaaattttaattataatataaattagxxx-7txr=@ ",
" @=tbt7-gxxxxxxxxgxxxgxxxxgxxxxxxgxxxxgxxxxxxxxxxxgxxxxg-7tbr=@ ",
" @=tbr4-ggggggggggggagggggggggggggggggggggggggggggggggaa-4tbr=@ ",
" @=rbt7--------------------------------------------------7tbt=@ ",
" @=rbtq47744747477477477744477744777447747744477477744777qaxr=@ ",
" @=rbgtrtttrtttrttttttttttrrttttttttttttrttttrrtttttrrrtttgbt=@ ",
" @&rbbbbbbbbbxbbxbbxbbbxbbbxbbbbbbbbbbbbbbbxbbxbbbxbbbbbxbbbt=@ ",
" @&qttttrrttttrrrrrrrrtttrrttrrtrrrtttttrtrrtrrrrtrrrrttrtttq&@ ",
" X#&====&=======&&&&&===================================&===&#X ",
" .X@@@@@@@@@@@@@@@@@@@@@@@@@@@@@@@@@@@@@@@@@@@@@@@@@@@@@@@@@@X. ",
"                                                                "
};
