/* XPM */
static char *collect[] = {
/* columns rows colors chars-per-pixel */
"32 32 247 2",
"   c #3F3F3E",
".  c #3F3F3F",
"X  c #40403F",
"o  c #504A3E",
"O  c #5B523E",
"+  c #5E543E",
"@  c #5E543F",
"#  c gray25",
"$  c #414141",
"%  c gray26",
"&  c #444444",
"*  c #474644",
"=  c #464646",
"-  c gray28",
";  c #484642",
":  c #484846",
">  c #494946",
",  c #484848",
"<  c #494949",
"1  c #4B4B49",
"2  c #4B4B4B",
"3  c #4C4B49",
"4  c #4C4C4C",
"5  c #4D4C4C",
"6  c #4D4D4D",
"7  c #4E4D4C",
"8  c #4E4E4C",
"9  c #4E4E4D",
"0  c #4F4F4F",
"q  c #504B40",
"w  c #514C41",
"e  c #534E44",
"r  c #554F41",
"t  c #50504F",
"y  c #52514F",
"u  c #54524D",
"i  c #55534E",
"p  c #575A4B",
"a  c #5C5441",
"s  c #5E5540",
"d  c #5F5541",
"f  c #5E5747",
"g  c #58554E",
"h  c #5C574D",
"j  c #515151",
"k  c #525150",
"l  c #525251",
"z  c #535353",
"x  c #555454",
"c  c #555555",
"v  c #575757",
"b  c #585652",
"n  c #5A5853",
"m  c #5B5952",
"M  c #595959",
"N  c #5C5D5B",
"B  c gray36",
"V  c #5C6059",
"C  c #5D6258",
"Z  c #605641",
"A  c #6A5D41",
"S  c #695F4A",
"D  c #665F50",
"F  c #67604F",
"G  c #6B624D",
"H  c #6C644F",
"J  c #6C685A",
"K  c #6F695C",
"L  c #72674E",
"P  c #74684E",
"I  c #766A4F",
"U  c #7B6941",
"Y  c #7E6E49",
"T  c #736953",
"R  c #756F5D",
"E  c #737252",
"W  c #7A7751",
"Q  c #7F7256",
"!  c #05B505",
"~  c #2EAA2E",
"^  c #24B824",
"/  c #25B925",
"(  c #24BD24",
")  c #2DBF2D",
"_  c #33AA33",
"`  c #3FAD3F",
"'  c #15D115",
"]  c #21C021",
"[  c #22D222",
"{  c #39D638",
"}  c #3BD53B",
"|  c #3DD53D",
" . c #40AE3F",
".. c #42AE41",
"X. c #49BE47",
"o. c #4BBE4B",
"O. c #53B053",
"+. c #54B254",
"@. c #66B564",
"#. c #70AB64",
"$. c #46D946",
"%. c #5BC45A",
"&. c #6EDF65",
"*. c #6BDB6B",
"=. c #7CC37A",
"-. c #71D971",
";. c #69E068",
":. c #806C41",
">. c #857044",
",. c #877246",
"<. c #847149",
"1. c #867349",
"2. c #887447",
"3. c #897548",
"4. c #8D7748",
"5. c #8D794C",
"6. c #817351",
"7. c #8E7B52",
"8. c #8C7A55",
"9. c #8D7B55",
"0. c #927C4B",
"q. c #937D4C",
"w. c #947D4C",
"e. c #957E4C",
"r. c #967F4D",
"t. c #8E875D",
"y. c #97804D",
"u. c #97804E",
"i. c #98814D",
"p. c #99814E",
"a. c #9A834E",
"s. c #928157",
"d. c #968255",
"f. c #938158",
"g. c #998353",
"h. c #9D8551",
"j. c #9E8650",
"k. c #9F8650",
"l. c #9B8759",
"z. c #9D8B5D",
"x. c #8E9767",
"c. c #909265",
"v. c #90966A",
"b. c #949069",
"n. c #959F71",
"m. c #84B679",
"M. c #A18852",
"N. c #A28952",
"B. c #A38A53",
"V. c #A28A54",
"C. c #A48B53",
"Z. c #A58C53",
"A. c #A58C54",
"S. c #A58D56",
"D. c #A68D54",
"F. c #A78D54",
"G. c #A78E54",
"H. c #A08C5C",
"J. c #A58E5B",
"K. c #A5905E",
"L. c #AA9055",
"P. c #AC9256",
"I. c #AE9457",
"U. c #AF9559",
"Y. c #AC945D",
"T. c #AC945F",
"R. c #B19658",
"E. c #B19659",
"W. c #B4995A",
"Q. c #B59A5A",
"!. c #B79B5A",
"~. c #B69B5C",
"^. c #B79C5B",
"/. c #BA9E5C",
"(. c #BB9F5C",
"). c #BC9F5D",
"_. c #A79561",
"`. c #A89263",
"'. c #A89561",
"]. c #A89C70",
"[. c #B59F65",
"{. c #BDA05D",
"}. c #BCA05F",
"|. c #BEA15E",
" X c #A5A071",
".X c #A1AD73",
"XX c #A4AB77",
"oX c #BDA261",
"OX c #BCA266",
"+X c #BFA365",
"@X c #B9A97C",
"#X c #B2B17B",
"$X c #C0A35F",
"%X c #C1A460",
"&X c #C2A460",
"*X c #C3A560",
"=X c #C3A661",
"-X c #C4A762",
";X c #C7A862",
":X c #C5AA6B",
">X c #CCAC64",
",X c #CEAD65",
"<X c #CFAE65",
"1X c #C4B372",
"2X c #D0AF66",
"3X c #D5BC7E",
"4X c #93AE87",
"5X c #97AE8A",
"6X c #A4AA87",
"7X c #BAAC8C",
"8X c #AFC38F",
"9X c #A6DF94",
"0X c #BDC58D",
"qX c #BFC88C",
"wX c #B1C99D",
"eX c #BFC59B",
"rX c #BFC89F",
"tX c #BECF99",
"yX c #AACBA0",
"uX c #B3CDB2",
"iX c #BBDEA7",
"pX c #BFDAA6",
"aX c #BEDFA7",
"sX c #A8E3A8",
"dX c #ACE9AB",
"fX c #CEBE83",
"gX c #D9BE80",
"hX c #C5BBA3",
"jX c #C9C282",
"kX c #C8CA93",
"lX c #C1D193",
"zX c #C3D99D",
"xX c #CAD697",
"cX c #D5C696",
"vX c #D0CD95",
"bX c #CFC2A1",
"nX c #D5C8A3",
"mX c #D9CCAB",
"MX c #DBD1B7",
"NX c #C0E1A4",
"BX c #C7E9AD",
"VX c #CAE8B9",
"CX c #E2D3AE",
"ZX c #E5D8B4",
"AX c #E4D9B6",
"SX c #E1EACB",
"DX c #E9E2CB",
/* pixels */
"4 4 4 4 4 4 5 5 4 4 4 0 4 4 4 4 4 4 4 4 4 4 4 4 4 4 0 4 4 4 4 4 ",
"j j v v 4 v j j j v z z 4 j j z j M v v 4 j z z v j v M 4 0 z j ",
"B B B B 0 M M B B B B B 4 M B B B B M M j v B B v B B B 0 M M B ",
"B B B B 4 M B B B B B B 0 v B B B B B B 4 M B B B B B B 4 v B B ",
"4 4 4 4 4 4 4 4 4 4 4 0 4 4 4 4 4 4 4 0 4 4 < 4 4 4 4 4 4 < 4 4 ",
"4 j j v v j v v 4 j j z j v v v 4 v j z v j v M 4 v j v v v v z ",
"4 M B B B B M B 4 M B B B M B C 4 v M B B B B B 4 v B B B B B M ",
"4 M B B B B B B j M B B B B B C 0 M B B B B B B 4 M B B B B B B ",
"t 4 4 4 4 4 4 4 4 4 z.T.'.'.u.h.H T F p b i 4 4 4 0 0 4 4 0 4 4 ",
"z j M v 4 j j v z j <X1XpXzXn.W E v.t. X5.6.T b z z z v 4 j j v ",
"B B B v j M M M N N b.8XyXkXxXxXgXgXlXaXwX#XJ.J M B B B 4 M M M ",
"B B B B 4 M B B N M [.lXNXjXAXAXVXSX9XBXaXkX+XR B B B B 4 M B B ",
"t 4 j 4 j 4 4 4 3 S *X;X%XCX$.[ ' *.;.cX,X<X`.z 4 4 4 4 j 4 4 0 ",
"4 4 j M j v v v b 9.%X%X%XmX' dX} } { 0X,X,Xs.j 4 j j z z M z z ",
"j M B B M B B B h C.~.).).nX( sX-.*.DXfX-X*X+XR j v B C B B B B ",
"4 M B B B B B B G S.~.!.Q.bX! ( ) ( MX:X%X%X).z.0 M B B B B B B ",
"4 4 4 4 4 4 4 4 P Z.R.E.P.@XrXX.%./ o.eX/.(.{.).S 4 4 4 4 0 4 4 ",
"z z z z 4 0 0 3 :.Z.Z.S.T.7XhX@.uX=./ .X!./.(./.g.m j v 4 v v j ",
"B B B B 0 v z r r.r.Z.N.`.#._ _ +. .~ XXR.I.P.Q.E.Q v B 0 M v v ",
"B B B B 0 B 4 s 3.e.u.u.l.6XO. . .O.m.].Z.Z.F.P.L.I v M 4 M B M ",
"0 4 4 4 0 3 : r U :.2.:.4.2.c.4X5Xx.a.u.a.N.N.N.g.f - 4 4 5 4 4 ",
"4 z j z v z 4 : q a Z Z a A 1.8.9.7.e.0.0.u.u.0.Y ; t v j v j v ",
"0 M B B B B B z #       # % % % % w O d @ Z @ w % & B B B B B B ",
"4 M B B B B B B - 3 0 4 4 0 & & % X X . X X X % & t B B B B B B ",
"4 0 0 4 4 4 4 0 4 4 4 4 4 4 4 < < & & - % & & < 4 0 4 4 4 4 5 5 ",
"z j z v 4 0 z j v v j v 4 j 0 z z j z v 4 j j j z z z v 0 v v 4 ",
"B B B B 0 M M M B B B B 4 v B B N B B B 4 M B M B B B B 4 M M M ",
"B B B B 4 M B B B B B B 4 N B B B B B B t M B B B B B B 4 M B B ",
"4 0 4 4 4 4 4 0 4 4 4 4 4 j 4 3 4 4 4 0 4 4 4 4 4 4 4 4 4 4 4 4 ",
"4 0 z v z v v z 4 t v z z j v M 4 j j z v M v j 4 j j v v z M j ",
"4 M B B B B B B 4 M B B B B B B t M B B B B B B j M B B B B B B ",
"0 B B B B B B B 4 B B B B B B B 4 M B B B B B B 4 B B B B B B B "
};
