/* XPM */
static char *collect[] = {
/* columns rows colors chars-per-pixel */
"32 32 248 2 ",
"   c #3F3F3F",
".  c #524C3F",
"X  c #5B523F",
"o  c #5E543F",
"O  c #404040",
"+  c #414140",
"@  c #414141",
"#  c #424242",
"$  c #474643",
"%  c #444444",
"&  c #464646",
"*  c #474747",
"=  c #4A4742",
"-  c #484847",
";  c #4D4B47",
":  c #484848",
">  c #494949",
",  c #4A4A4A",
"<  c #4B4B4B",
"1  c #4F4D49",
"2  c #4C4C4C",
"3  c #4D4D4D",
"4  c #4F4F4D",
"5  c #4E4E4E",
"6  c #4F4F4F",
"7  c #514C40",
"8  c #514C41",
"9  c #534E43",
"0  c #575040",
"q  c #5E5440",
"w  c #5F5540",
"e  c #5E5541",
"r  c #53514D",
"t  c #53524F",
"y  c #54524D",
"u  c #5A564D",
"i  c #59564F",
"p  c #5D584B",
"a  c #505050",
"s  c #515151",
"d  c #525252",
"f  c #535353",
"g  c #565552",
"h  c #545454",
"j  c #555555",
"k  c #565656",
"l  c #575757",
"z  c #5C5953",
"x  c #5A5955",
"c  c #585858",
"v  c gray35",
"b  c #5B5A58",
"n  c #5A5A5A",
"m  c #5B5B5B",
"M  c gray36",
"N  c #605641",
"B  c #605742",
"V  c #605847",
"C  c #6D5F41",
"Z  c #5D6457",
"A  c #5D605A",
"S  c #68604F",
"D  c #69614F",
"F  c #6B624E",
"G  c #7B6941",
"H  c #72674F",
"J  c #75694E",
"K  c #7F6E49",
"L  c #686150",
"P  c #6F6650",
"I  c #6C675A",
"U  c #776B50",
"Y  c #746A53",
"T  c #706A5D",
"R  c #766E5D",
"E  c #727351",
"W  c #777751",
"Q  c #806C42",
"!  c #867145",
"~  c #877246",
"^  c #8A7447",
"/  c #84724A",
"(  c #86744C",
")  c #8B7648",
"_  c #8C7748",
"`  c #8B774E",
"'  c #927B4B",
"]  c #957E4C",
"[  c #957F4C",
"{  c #967F4D",
"}  c #977F4D",
"|  c #837351",
" . c #807357",
".. c #8D7A51",
"X. c #8B7A57",
"o. c #8E7C57",
"O. c #07B707",
"+. c #2EAA2E",
"@. c #25B724",
"#. c #24B924",
"$. c #34AB34",
"%. c #15D115",
"&. c #21C021",
"*. c #21C221",
"=. c #2EC32E",
"-. c #22D222",
";. c #39D637",
":. c #3DD53D",
">. c #40AD40",
",. c #44B041",
"<. c #48BE46",
"1. c #52AF52",
"2. c #55B355",
"3. c #6EAE61",
"4. c #68B863",
"5. c #4BC34B",
"6. c #46DA46",
"7. c #5BC35A",
"8. c #6FDC64",
"9. c #6CD76C",
"0. c #7CC27C",
"q. c #73DA73",
"w. c #6AE16A",
"e. c #96804F",
"r. c #98814D",
"t. c #98804E",
"y. c #99814E",
"u. c #99824E",
"i. c #8E875B",
"p. c #978255",
"a. c #958257",
"s. c #998352",
"d. c #9E8550",
"f. c #9F8650",
"g. c #9F8751",
"h. c #9D8757",
"j. c #9F8852",
"k. c #90815C",
"l. c #A18852",
"z. c #A18953",
"x. c #A28952",
"c. c #A38A53",
"v. c #A18A55",
"b. c #A58B54",
"n. c #A68C54",
"m. c #A68D54",
"M. c #A78E56",
"N. c #A88E55",
"B. c #A98F56",
"V. c #A08B5C",
"C. c #A38F5F",
"Z. c #AC9256",
"A. c #AE9357",
"S. c #AE9457",
"D. c #A6905C",
"F. c #A6905E",
"G. c #AF9558",
"H. c #AD945D",
"J. c #B19658",
"K. c #B19659",
"L. c #B4995A",
"P. c #B69A5A",
"I. c #B69B5A",
"U. c #B79B5B",
"Y. c #B79C5B",
"T. c #B69C5E",
"R. c #B89C5B",
"E. c #BA9E5C",
"W. c #BB9F5D",
"Q. c #BC9F5D",
"!. c #BDA05D",
"~. c #BDA05E",
"^. c #BEA25E",
"/. c #958F6A",
"(. c #8E9264",
"). c #90976A",
"_. c #949868",
"`. c #979F71",
"'. c #A79761",
"]. c #A89462",
"[. c #AD9560",
"{. c #A89466",
"}. c #A99D72",
"|. c #83B67A",
" X c #B7A165",
".X c #BDA361",
"XX c #BBA264",
"oX c #BFA364",
"OX c #A2A272",
"+X c #A3AB77",
"@X c #BBA77A",
"#X c #A4B075",
"$X c #B5B07E",
"%X c #C0A35F",
"&X c #C1A35F",
"*X c #C1A45F",
"=X c #C1A460",
"-X c #C2A560",
";X c #C3A560",
":X c #C5A761",
">X c #C6A862",
",X c #CBAC64",
"<X c #CEAE65",
"1X c #C4A96B",
"2X c #D0AF66",
"3X c #C2B474",
"4X c #D6BC7F",
"5X c #93AC86",
"6X c #96AD8A",
"7X c #A4AA8A",
"8X c #BBAC8A",
"9X c #D3BB84",
"0X c #DABE81",
"qX c #C6BCA7",
"wX c #AEC48F",
"eX c #BEC98D",
"rX c #BCCA8E",
"tX c #AFCC9E",
"yX c #BFC195",
"uX c #BCCE9C",
"iX c #A8E391",
"pX c #AACCA2",
"aX c #BEC5A2",
"sX c #BEDFA5",
"dX c #BDDDAB",
"fX c #B3CDB2",
"gX c #A8E2A8",
"hX c #ABEAAB",
"jX c #BDE0A7",
"kX c #CAC581",
"lX c #CBC891",
"zX c #CFCF92",
"xX c #D8C893",
"cX c #C1D295",
"vX c #C9D596",
"bX c #CFC2A2",
"nX c #D6C7A6",
"mX c #DCCDAB",
"MX c #C1DCA1",
"NX c #C2DAA4",
"BX c #DAD1BA",
"VX c #E0D2AF",
"CX c #E5D9B5",
"ZX c #E4D9B6",
"AX c #C7E9AC",
"SX c #CCE9BB",
"DX c #E6DFCE",
"FX c #DEEBCC",
/* pixels */
"2 2 2 2 2 2 2 2 2 2 2 2 2 2 < 2 2 2 2 2 2 2 2 2 2 2 2 2 2 2 2 2 ",
"s s j j 2 j s j s j j j 2 s s j s l j j 2 s j j j s l v 2 s s s ",
"M M M M 2 v v M M M M M 2 v M M M M M v a j M M c M M M 2 v v v ",
"M M M M 2 v M M M M M M 2 v M M M M M M 2 v M M M M M M a v M M ",
"2 2 2 2 s 2 2 2 2 2 2 2 2 2 2 2 6 2 2 2 2 2 2 2 2 2 2 2 2 2 2 2 ",
"2 s s j s j j j 2 s s f s v g j 2 f s f j s j v 2 s j j j j j f ",
"2 v M M M M M M 2 v M M M v M A 2 v v M M M M M 6 j M M M M M v ",
"2 v M M M M M M s v M M M M M M a v M M M M M M 2 v M M M M M M ",
"s 2 2 2 2 2 2 2 2 2 V.H.'.'.} h.F Y L u u y 2 2 a 2 2 2 2 2 2 2 ",
"s s v j 2 s s j j s <X3XNXMX`.W E ).i.OX` | Y z f j j j 2 j f f ",
"M M M v s v v M m m _.wXpXlXcXvXkX4XuXjXtX$XF.I v M M M 2 v v m ",
"M M M M 2 v M M m v  XlXsXkXCXCXSXDXiXAXdXzXXXT M M M M 6 v M M ",
"2 2 2 2 s 2 2 2 < L =X>X=XVX6.-.%.w.8.xX2X2XF.i 2 2 2 2 2 a 2 6 ",
"2 s s v j g j j s a.=X=X=XmX-.hX:.:.;.cX,X,Xk.f 2 d s s j j s j ",
"2 v M M v M M M p v.T.~.~.nX*.gXq.9.DX4X:X:XXXR 2 v M Z M M M M ",
"s v M M M M M M F M.I.Y.Y.bXO.*.=.*.BX1X=X=X.XF.2 v M M M M M M ",
"2 2 5 < < < 2 2 J m.K.K.K.@XaX<.7.#.5.lXI.~.%XQ.V a 5 2 2 2 2 2 ",
"d d d k 5 a a < / c.c.B.[.8XqX4.fX0.@.+XI.E.Q.Q.p.z d j 5 j d d ",
"n M M M 5 v d 9 } } c.c.{.3.$.$.2.,.+.+XK.S.S.L.L. .k M 5 v l n ",
"M M M M 5 v 2 B _ ' } } h.7X1.>.,.2.3.}.b.n.B.B.B.U k M 5 v M M ",
"5 5 2 2 2 1 : 0 G Q ^ Q _ ^ (.5X6X`.} } l.l.l.l.s.V & < 2 2 5 5 ",
"5 d a d j j 2 * 7 o N B q C ( X.o.X.] ] ] ] } } Q = a j d j j d ",
"2 v M M M M m a @ @ @   @ @ @ # @ 7 0 N o N o 7 # % M M M M M M ",
"5 b M M M M M M : 2 2 2 5 5 % * @ # # # @     # % d M M M M M M ",
"2 5 2 2 2 2 2 2 5 5 < 2 < 2 2 : < % * * % % * : 5 5 5 2 < 5 5 < ",
"a j j j 2 a d d v d a l < a a a j s s l 2 6 s d j d d j 5 j s a ",
"M M M M 5 v n n M M M M 2 v M M v M M M 5 v M v M M M M 5 v v m ",
"M M M M 5 n M M M M M M 5 b M M M M M M 5 v M M M M M M 5 v M M ",
"2 2 2 2 2 2 2 2 < 2 5 2 2 2 2 2 2 2 2 a 6 5 5 2 2 5 2 5 2 < 5 2 ",
"2 a j j j j j j < a l d j j j v 2 a a j d l d s 2 s s d d j l s ",
"2 v M M M M M M 2 l M M M M M M 2 v M M M M M M 5 v M M M M M M ",
"a M M M M M M M 5 n M M M M M M 2 v M M M M M M a m M M M M M M "
};
