/* XPM */
static char *empty[] = {
/* columns rows colors chars-per-pixel */
"32 32 31 1",
"  c #4B4B4B",
". c #4C4C4C",
"X c #4D4D4D",
"o c #4E4E4E",
"O c #4E4E4E",
"+ c #4F4F4F",
"@ c #4F4F4F",
"# c #505050",
"$ c #505050",
"% c #515151",
"& c #515151",
"* c gray32",
"= c #525252",
"- c #535353",
"; c #535353",
": c gray33",
"> c #545454",
", c #545454",
"< c #555555",
"1 c #555555",
"2 c #565656",
"3 c #565656",
"4 c gray34",
"5 c #575757",
"6 c #585858",
"7 c #585858",
"8 c #595959",
"9 c #5A5A5A",
"0 c #5B5B5B",
"q c #5C5C5C",
"w c gray37",
/* pixels */
".... .X.X..X .X..... .....o. ...",
"----.&%-----.O------.*=-----.+--",
"5800O6306880X<889680o,505808X337",
"wwq0O60wwwq0X9q0qq0w#8q0wqqqo90w",
"o.......X.Xo.o..OXX....Xo.oo.o..",
".+------X*%-----.+--#--:o&------",
"X,807880O;05008q.20888q8.,880800",
"O8qqqqwq@6q8wqw0.6wqqqwq.8q0ww0w",
".... XX...XX o....Xo ..X..OX .X.",
"----.*#*----.-%%----.+**----.&#-",
"0508X,080500o;087800X,087608O450",
"wqqq+700wqqq$80qwq0w#70qwqqw+70q",
"oXoX.oo.oX....XOX...X..OX..X...O",
".+------.+**----.+**----o*----,-",
"X4705008O<670800X3806800X,77080q",
"o7qwwqqq+8qqqqwq+7wq0qwqo6q0qqqq",
".... ..X.X.. X...... .....X. X.o",
"----.+------.O------X*=-----.O-&",
"8800X3505000O,808808O,585808#,50",
"qq0q#70qq00q$70qw00wO9qqwqqq+90q",
"Oo......Oo..X...XXX.....X..X..X+",
".O*&----o+------O+---#--.+------",
"O4508000o380858qX3887800o3370080",
"+6qq00wwo7q0qqwq+6qqqqwqo70wqqwq",
".... ..o.X.X ......X O.X.... o..",
"----.&%&-:--o+------.*#-----.&-#",
"6800X1678705o<708q08X,085800X470",
"wqqqX3qqqwqqO8q0qq0qO700wwq0o5qq",
"OXXo.oX. oo..o.Xo.XX.oO.OXXX.XXX",
".+------.#**----.+**----.++*>---",
"X;08000qo;80808qO3508700O4800000",
"+80wqq0qO8qqwwq0+8qq0qwq+800wqqq"
};
