/* XPM */
static char *empty[] = {
/* columns rows colors chars-per-pixel */
"32 32 19 1 ",
"  c #4B4B4B",
". c #4C4C4C",
"X c #4D4D4D",
"o c #4E4E4E",
"O c #4F4F4F",
"+ c #505050",
"@ c #515151",
"# c #525252",
"$ c #535353",
"% c #545454",
"& c #555555",
"* c #575757",
"= c #585858",
"- c #595959",
"; c #5A5A5A",
": c #5B5B5B",
"> c #5C5C5C",
", c #5D5D5D",
"< c #5E5E5E",
/* pixels */
"...........   ......     ....  .",
"$$$$.$$$$**$..$$$$$$ $$$$$$*.$$$",
"==,=.**=====.*=====,.*=,====.**=",
",,,,$=,,,,,,.,,,,,,,$=,=,,,,.=,,",
"....  ................ .. ......",
"..$*$$$$ $$$*$$$.$$*$$$*.$$**$$$",
".*==,===.*===,=,.*===,,=.*,=,==,",
"$=,,,,,,$=,=,,,,.=,,=,,,.==,,,,,",
"........ ... .......... ........",
"$$$$.$$$$$$* $$.$$$*..$*$$$*.$$$",
",==,.*,=====.*,====,.*====,=.=*=",
",,=,.=,=,,,,$=,,,,=,$=,,,,,,$==,",
"......  $.  ........ .... ......",
".$$$$*$*..$$$$$$.$$$$*$$.$**$$**",
".==,==,=$=====,,.=====,=.*==,===",
".=,,,,,,.=,,,,,,$=,,,,,,.*=,,,,,",
". . ... .......  ...  ...... ..$",
"$$$*..$*$$$$..$*$$$$ $$$$$$*..$$",
"===,.=*====,$*,=====.*======$**=",
",,=,$=,,,,,,.*=,,,,,$=,,,,,,.==,",
"................$.........  . ..",
".$$$$$$$.$$*$$$$..$*$$$$..$**$$*",
".=*==,,,.*====,=$*==*,=,$*===,==",
"$=,,=,,,.=,,,,,,.=,,=,,,.=,,,,,,",
"  ... .....     .... ...........",
"$$$$.$$$$*$*$.$*$$$*.$$*$$$$.$$$",
"==,=.*======.====,==.*====,=.**=",
",,,,.==,,,,,.=,,,,,,.=,=,,,,.=,,",
"$....... ........ ..... ........",
"..$*$$$*.$$$$$$*.$$$$**$..$**$$*",
".*,====,.*,==,=,.=*===,=$*===,==",
".=,,,,,,.=,,,,,=$=,,,,,=$=,,,,,,"
};
