/* XPM */
static char *exit2[] = {
/* columns rows colors chars-per-pixel */
"32 32 127 2",
"   c #020201",
".  c #020202",
"X  c #0D0907",
"o  c #0D0908",
"O  c #0C0C0C",
"+  c #0D0D0D",
"@  c gray6",
"#  c #100B09",
"$  c #110C0A",
"%  c #130E0C",
"&  c #121212",
"*  c #1A1614",
"=  c #1B1615",
"-  c #1E1411",
";  c #1E1512",
":  c #1D1816",
">  c #1D1817",
",  c #191919",
"<  c #1A1A1A",
"1  c #1B1B1B",
"2  c gray11",
"3  c #1F1F1F",
"4  c #221103",
"5  c #221204",
"6  c #251407",
"7  c #2B190D",
"8  c #3F2006",
"9  c #3F2007",
"0  c #202020",
"q  c #212121",
"w  c #222222",
"e  c #383838",
"r  c #3F3E3D",
"t  c #3E3E3E",
"y  c #3F3F3F",
"u  c #44250D",
"i  c #442E26",
"p  c #463028",
"a  c #473128",
"s  c #4A3127",
"d  c #51362C",
"f  c #51372D",
"g  c #53372D",
"h  c #53382E",
"j  c #53392F",
"k  c #54382E",
"l  c #54392E",
"z  c #54392F",
"x  c #533930",
"c  c #543A30",
"v  c #553A31",
"b  c #573C32",
"n  c #5F4034",
"m  c #5F4035",
"M  c #614034",
"N  c #614135",
"B  c #604237",
"V  c #614236",
"C  c #624337",
"Z  c #404040",
"A  c #414141",
"S  c gray26",
"D  c #434343",
"F  c #444343",
"G  c #444444",
"H  c #454545",
"J  c gray28",
"K  c #484848",
"L  c #494949",
"P  c #4A4A4A",
"I  c #4B4B4B",
"U  c #4C4C4C",
"Y  c #4D4D4D",
"T  c #4E4E4E",
"R  c #4F4F4F",
"E  c #504F4F",
"W  c #505050",
"Q  c #515151",
"!  c #525252",
"~  c #535353",
"^  c #545454",
"/  c #555555",
"(  c #565656",
")  c #575757",
"_  c #585858",
"`  c #595959",
"'  c #5A5A5A",
"]  c #5B5B5B",
"[  c #5C5C5C",
"{  c #5D5D5D",
"}  c gray37",
"|  c #606060",
" . c #616161",
".. c #626262",
"X. c gray40",
"o. c #6D6D6D",
"O. c gray44",
"+. c #727272",
"@. c #737373",
"#. c #767676",
"$. c #797979",
"%. c #7C7C7C",
"&. c gray50",
"*. c #98521A",
"=. c #AC5813",
"-. c #AD5915",
";. c #AE5A15",
":. c #B05912",
">. c #B05A12",
",. c #B15A12",
"<. c #BA6524",
"1. c #BF6724",
"2. c #C76514",
"3. c #D36E1D",
"4. c #D5701F",
"5. c #C06825",
"6. c #C06925",
"7. c #D67020",
"8. c #D97629",
"9. c #808080",
"0. c #838383",
"q. c #868686",
"w. c #888888",
"e. c #8A8A8A",
"r. c #8B8B8B",
"t. c #909090",
"y. c #919191",
/* pixels */
"U U I U I I I U U U U U U U U U U I I U I I U I U U U U I I U U ",
"~ ~ ~ ~ U ~ ~ ~ ~ ~ ~ ~ I ~ ~ ~ ) ~ ~ ~ I ~ ~ ~ ~ ~ ~ ~ U ~ ~ ~ ",
") ` ` } U ) ) ` ` ` ` ` U ) ` ` ` ` ` ` U ) ` ` ) ` ` ` I ) ) ` ",
"} } } ` U ` ` } } ` } } U ` ` ` } ` } } R ` } ] } } } } U ` ` } ",
"U I U U U U U U U U U D t D t t D t D t I U U U U U U U U U U U ",
"U ~ ~ ~ ) ~ ~ ~ U ~ D < O O O O O O O O ~ ~ ~ ~ U ~ ~ ~ ~ ~ ~ ) ",
"U ) ) ` ) ` ` ` I I w X.$.$.0.0.e.r.y.r.2 D } ` U ) } ` ` ` ` ` ",
"U ` } ` } } } } D < | o.O.O.O.#.&.&.q.e...q } ] U ` ` ` } } } } ",
"U I U U U U U U & } o.O.O.O.O.O.o.| $ $ % > O y U U U U U U U U ",
") ~ ~ ~ U ~ ~ ~ & } O.O.O.O.O.O.| q g g j c O H ~ ~ ~ ~ U ~ ~ ~ ",
"` ` ` ` U ) ` ` & } O.O.O.O.o.| - j b z V V % I ) ` ` ` U ) ) ` ",
"} ` } } U ` } ` & } O.O.O.O.| q g n j - V V O U } } } } ~ ` ` } ",
"U U U U U U I I < ~ O.O.O.O.E > V V g - M M O D U U U U I I U U ",
"I ~ ~ ~ ~ ) ~ ) e < O.o.O.O.> p V V V g V V O J U ~ ~ ~ ~ ~ ~ ~ ",
"U ) ` ` ` ` ` ` U ) < ~ } } X i z g j g p = ` ` U ) ` ` ` ` ` } ",
"U ` } } } } } ` U ` D 2 & &   X $ # # O * D } } U ` ] ` } } } } ",
"U U U U I U U U U U Y Y t O 2.;.2.,.O t I U U U U U U U U I U U ",
"~ ~ ~ ~ U R ~ ~ ~ ~ ~ ~ t O ,.8 ,.u O D U ~ ~ ~ ~ ~ ~ ~ U ~ E ~ ",
"` ] ] ] U ( ` ` ` ] ` ` m O =.5 b - O D U ) ` ) ) ` ` ` U ) ` ` ",
"} { ] { R ` ] { { { ] { t O ;.5 C z   O U ` [ } } } ] } E ` ` } ",
"U U U U U U U U U U U U D O 3.4.7 s i X U U U U U U U U U U U U ",
"U R ~ ! ~ ! ~ ~ Y R ~ ~ D O 7.7.*.7 O   ~ ~ ~ ~ U U E ~ ~ ~ ~ ) ",
"U / ( ] ` ` ] { R ~ ` ] I 2 6.8.8.6.2 U ` ] ] ` E ) ` ` [ ` ` ` ",
"R ` { { ` { { } R ( { { ` U u 1.6.u R ` [ [ } [ R ` } ` } } } } ",
"U U U U U U U U U U U U I U 6 <.<.6 U U U U U U U U I I I U U U ",
"~ ~ ~ ~ U R ~ ~ ~ ~ ~ ~ U R 6 <.<.6 ~ ~ U R ~ ~ ~ ~ ~ ~ U ~ ~ ~ ",
"` ` ] ` Y / / ` ` ) ` ` U ) 6 <.<.6 ` ` U ` ` ) ) ` ` ` U ) ) ` ",
"{ { { ] R ` ] { } } } } ~ ) 6 <.<.6 } } U ) } ` } } } } U ` } ` ",
"R Y Y Y U R U U U U R U U U O O O O R U U U U I U U U U U U U R ",
"U R ~ ~ ~ ~ ~ ~ U U ~ ~ ~ ~ I J D D ~ ) ~ ~ ) ~ U R ~ ~ ~ ~ ~ ~ ",
"Y ~ ( ` ` ` ] { R ) ` ` ` ` ` } U ) ) ` ` ] ` ` R ) ` ) ` ` ` ] ",
"R ] ] { { { { ] U ) } } } } } ] R ` ` } ` } } } R ` [ } } } } } "
};
