/* XPM */
static char *exit3[] = {
/* columns rows colors chars-per-pixel */
"32 32 150 2 ",
"   c #020202",
".  c #030202",
"X  c #060300",
"o  c #060301",
"O  c #0B0B0B",
"+  c #0E0A08",
"@  c #0D0D0D",
"#  c #0F0F0F",
"$  c #1C0E02",
"%  c #1C0E03",
"&  c #1D0F03",
"*  c #110B09",
"=  c #110C0A",
"-  c #101010",
";  c #121212",
":  c #131313",
">  c #151515",
",  c #161616",
"<  c #181413",
"1  c #191513",
"2  c #1F1512",
"3  c #1A1614",
"4  c #181818",
"5  c #1B1B1B",
"6  c #1E1918",
"7  c #1E1A18",
"8  c #1C1C1C",
"9  c #1D1D1D",
"0  c #221102",
"q  c #221103",
"w  c #221204",
"e  c #231204",
"r  c #251407",
"t  c #2A180B",
"y  c #3F2006",
"u  c #3F2107",
"i  c #292929",
"p  c #373636",
"a  c #3A3A3A",
"s  c #3D3D3C",
"d  c #3F3F3F",
"f  c #453027",
"g  c #453028",
"h  c #473129",
"j  c #47322A",
"k  c #4B3328",
"l  c #4B3329",
"z  c #48332B",
"x  c #53382E",
"c  c #53382F",
"v  c #53392F",
"b  c #533930",
"n  c #533A30",
"m  c #543B31",
"M  c #563C32",
"N  c #563C33",
"B  c #62453A",
"V  c #404040",
"C  c #414141",
"Z  c #424141",
"A  c #424242",
"S  c #444444",
"D  c #454545",
"F  c #474747",
"G  c #484848",
"H  c #4A4A4A",
"J  c #4B4B4B",
"K  c #4C4C4C",
"L  c #4D4D4D",
"P  c #4E4E4E",
"I  c #4F4F4F",
"U  c #505050",
"Y  c #515151",
"T  c #525252",
"R  c #535252",
"E  c #535353",
"W  c #545454",
"Q  c #555555",
"!  c #565656",
"~  c #575757",
"^  c #585858",
"/  c #595959",
"(  c #5A5A5A",
")  c #5B5B5B",
"_  c #5C5C5C",
"`  c #5D5D5D",
"'  c #5E5E5E",
"]  c #5F5F5F",
"[  c #606060",
"{  c #686868",
"}  c #6C6C6C",
"|  c #6E6E6E",
" . c #707070",
".. c #717171",
"X. c #727272",
"o. c #737373",
"O. c #747474",
"+. c #757575",
"@. c #767676",
"#. c #777777",
"$. c #787878",
"%. c #797979",
"&. c #7A7A7A",
"*. c #7B7B7B",
"=. c #7C7C7C",
"-. c #7D7D7D",
";. c #7E7E7E",
":. c #7F7F7F",
">. c #8E460C",
",. c #8F4911",
"<. c #914910",
"1. c #914A11",
"2. c #A9530C",
"3. c #A9530D",
"4. c #AA540E",
"5. c #AA540F",
"6. c #AB5713",
"7. c #AC5814",
"8. c #AE5A15",
"9. c #B05811",
"0. c #B05912",
"q. c #B15A13",
"w. c #B25B15",
"e. c #B86322",
"r. c #CB630D",
"t. c #CB6410",
"y. c #CC6410",
"u. c #CC6411",
"i. c #CC6511",
"p. c #CC6412",
"a. c #CC6512",
"s. c #CC6613",
"d. c #C86717",
"f. c #CC6614",
"g. c #CC6715",
"h. c #CD6715",
"j. c #CE6714",
"k. c #CF6816",
"l. c #CB6819",
"z. c #CE6918",
"x. c #CE6A18",
"c. c #CF6A18",
"v. c #D06917",
"b. c #D06A17",
"n. c #D06A18",
"m. c #DD7728",
"M. c #808080",
"N. c #818181",
"B. c #828282",
"V. c #848484",
/* pixels */
"K K K K K K K K K K K K J K K K K J K K J K K H J K K K J K K K ",
"E E E W K E K E E W E E J E E E E E E E J E E E E E E W K U E E ",
"/ / ` / K W / / / ) ) / K W / / / ^ ) ) K W ) / / ) ) ) K ^ ~ / ",
"` ` ` ` E / ` ` ` ` ` ` K / ` ` ` ` ` ` E / ` ) ) ` ` ` K / ` ` ",
"H H K K K K K K K K K J d C d d C d d d C H K K K J K K K K K K ",
"K E E W E E E E K E W E @ @ @ @ @ @ @ @ 5 D E W K E E E W E E W ",
"K W / / / ` / / I W d 5 o.o.+.$.*.=.N.V.o.i K ^ K W / / ) ) / ) ",
"E / ` ` ` ` ` ` K / 5 E |  .o.+.*.*.;.N.N.o.8 E K ) ` ` ` ` ` ` ",
"H K K K H K K K d @ o.o. . . .o.O.*.*.N.N.N.| , K K K K J K K K ",
"E E E E H E W E D @ o.o. . . . .o.#.+.*.:.N.| , W W E W K E E E ",
"/ / / ` K / / / K @ | |  . . .| o.o.+.+.*.;.} , / / ) ) K / W / ",
"` ` ` ` K / ` ` E @ o.o. . . .o.| o.o.O.+.*.{ , ` ` ` ` K / ` ` ",
"K K K K K K K K d , . + ` ` ` ` ` ) ` ` E 7 . O H H K J K K K K ",
"H E W W E E E W H D + f : : : : : : : , 7 z @ a K E E E W W W W ",
"K / / / / / ` / K / K 8 x x x x b b m b z 3 ` ` K ~ / / ` / / ) ",
"K / ` ` ` ` ` ` K / ` E * * * = = = = * 3 C ` ` K / ` ` ` ` ` ` ",
"K K K K J J K K J J p < 0.z.a.a.r.a.f.z.<.t V J K K K K J J J K ",
"E E W E J E E E E E < z y 0.a.f.r.a.a.f.t z 4 D E E E E K E U E ",
") / ) ) K W / / / ) = m t 1.z.f.r.a.d.0.2 M # J / ) ) ) K W / ) ",
"` ` ` ` I / _ ` ` ` * m z t z.f.r.a.w.u m B : U ` ` ` ` E / _ ` ",
"J J J K K K K J K K 1 z g + m.m.m.m.e.r m m 3 C H J K K J J K I ",
"K E E E E E E E I I d 1 + . z.n.v.v.8.0 * * G E J E E E E E E E ",
"K ~ ^ / ) / ) ) K ~ / / J # u.u.0 5.2.0 / ) ) / K W ) / ) ) ) ) ",
"I / _ _ ` ` ` ` I / ` ` I = u.a.0 5.5.0 ` ` ` ` U / _ _ ` ` ` ` ",
"K K J K J J K K K K K K d @ f.a.0 3.6.e J K K K K K J K J K K K ",
"E E E E K E E E E E E E d @ n.a.0 5.8.0 K U E E E E E E K U E E ",
"^ ) ) ) K ~ ^ / / / ` / d @ 3.6.& ,.>.& K / ^ ^ / _ ) ) K ^ ~ / ",
"` ` _ ` I / ) ` ` ` ` ` d @ e e o & & o U / _ ` ` ` ` ` K / ` ` ",
"K K K J K K K K J K K K K K K K K H K K K K K K J J K K K K K K ",
"K I E E E E E E H E E E E E E E K E K E E E E E K I E E E E W W ",
"I E / ) ) ) ) ) K / / / / ) / ` K W ` / / ) ) _ I ^ ^ / _ / / _ ",
"I / ` ` ` ` ` ` K / ` ` ` ` ` ` E / ` ` _ ` ` ` K / _ _ ` ` [ ` "
};
