/* XPM */
static char *exit1[] = {
/* columns rows colors chars-per-pixel */
"32 32 158 2",
"   c #040303",
".  c #060301",
"X  c #070504",
"o  c #070606",
"O  c #0F0A09",
"+  c #0F0C0B",
"@  c #0E0E0E",
"#  c #110C0A",
"$  c #110F0F",
"%  c #120E0C",
"&  c #1D0E03",
"*  c #1D0F03",
"=  c #10100F",
"-  c #14100F",
";  c #101010",
":  c #161211",
">  c #151413",
",  c #181412",
"<  c #191513",
"1  c #181615",
"2  c #1A1614",
"3  c #1E1511",
"4  c #1F1612",
"5  c #1D1715",
"6  c #1B1817",
"7  c #181818",
"8  c #1A1A1A",
"9  c #1D1918",
"0  c #1C1C1C",
"q  c #1F1E1E",
"w  c #1F1F1F",
"e  c #221103",
"r  c #221104",
"t  c #231204",
"y  c #261508",
"u  c #2A180A",
"i  c #2A180B",
"p  c #3F2006",
"a  c #2B2B2B",
"s  c #383636",
"d  c #3E3C3B",
"f  c #3D3D3D",
"g  c #3E3E3E",
"h  c #3F3E3E",
"j  c #452F27",
"k  c #472F25",
"l  c #443028",
"z  c #473028",
"x  c #47322A",
"c  c #4A3127",
"v  c #483129",
"b  c #4A3229",
"n  c #52362B",
"m  c #50372E",
"M  c #52372E",
"N  c #52382E",
"B  c #53382E",
"V  c #53392F",
"C  c #55392F",
"Z  c #523930",
"A  c #533A30",
"S  c #553A30",
"D  c #553B30",
"F  c #553B32",
"G  c #573C31",
"H  c #563C32",
"J  c #573C33",
"K  c #5B3D33",
"L  c #5F4035",
"P  c #604136",
"I  c #614337",
"U  c #634237",
"Y  c #634338",
"T  c #634438",
"R  c #644539",
"E  c gray25",
"W  c #424040",
"Q  c #424242",
"!  c #434343",
"~  c #454343",
"^  c gray28",
"/  c #494747",
"(  c #484848",
")  c #494949",
"_  c #4A4A4A",
"`  c #4B4B4B",
"'  c #4C4C4C",
"]  c #4D4D4D",
"[  c #4E4E4E",
"{  c #4F4F4F",
"}  c #505050",
"|  c #515151",
" . c #525050",
".. c #525252",
"X. c #535353",
"o. c #555555",
"O. c #565656",
"+. c #575757",
"@. c #595452",
"#. c #595959",
"$. c #5B5B5B",
"%. c gray36",
"&. c gray37",
"*. c #5F5F5F",
"=. c #606060",
"-. c #616161",
";. c #707070",
":. c gray45",
">. c #757575",
",. c #777777",
"<. c #797979",
"1. c #7C7C7C",
"2. c #7D7D7D",
"3. c #7F7F7F",
"4. c #8D460C",
"5. c #8E480F",
"6. c #90480E",
"7. c #90480F",
"8. c #A9530C",
"9. c #A9540E",
"0. c #AA5510",
"q. c #AB5612",
"w. c #AC5814",
"e. c #AD5915",
"r. c #B05811",
"t. c #B15B15",
"y. c #B25B15",
"u. c #B86321",
"i. c #CB620D",
"p. c #CB620E",
"a. c #CB630F",
"s. c #CB6410",
"d. c #CB6513",
"f. c #C86616",
"g. c #CC6512",
"h. c #CC6613",
"j. c #CD6715",
"k. c #C96718",
"l. c #CC6815",
"z. c #CE6917",
"x. c #CF6917",
"c. c #D16C1A",
"v. c #D06E1E",
"b. c #CE742B",
"n. c #CF752C",
"m. c #D97323",
"M. c #DD7728",
"N. c #DD7729",
"B. c #D37B33",
"V. c #D37C34",
"C. c #818181",
"Z. c #838383",
"A. c #858585",
"S. c #898989",
"D. c #8C8C8C",
"F. c #8E8E8E",
"G. c #DDBDA3",
"H. c #EFD0B7",
/* pixels */
"] ] ] ] ] ] ] ] ] ] ] ' ] ] ] ] ] ' ] ] ' ] ] ' ' ] ' ' } ' ' ] ",
"X.| | | ] | | | X...X.X.' ..X.X.| X...X.' | X.X.| o.o.| ) | X.X.",
"#.#.&.&.] #.#.#.%.%.&.#.] X.%.#.#.&.#.&.' o.#.#.%.#.#.%.} o.#.#.",
"&.&.#.&.] #.#.&.&.&.#.&.] #.%.%.&.&.#.&.} #.%.%.%.&.&.&.' #.&.%.",
"] ] ] ] ] ] ] ] ' ] ] ] g g g Z g E g g E ' ' } ' ' ] ' ' ' ' ] ",
"] | | | X.X.X.| ' | O.} @ @ @ @ @ @ @ @ 7 ( | o.' | o...X.o.o.o.",
"] X.#.#.&.#.&.#.} o.f 0 ,.<.<.3.Z.S.D.D.2.a | #.' O.#.#.#.%.#.%.",
"| #.&.&.#.&.&.&.} #.w ..;.:.:.:.,.2.Z.A.Z.>.w | } %.%.&.&.&.%.%.",
"] ] ] ] ] ] ] ] Q ; | 9 # # # # # + # # # $ @.> ' ' ' ' ' ' ] ] ",
"| | X.| ] | | | ~ @ 9 v M M M M M n C C C b : X ..X.X.o.] | | | ",
"&.#.&.#.] X.X.&.] = 4 C U U C I K U C K U K + X %.%.#.#.' #.%.#.",
"#.&.&.&.| #.&.&.] $ J I I I 4 S U U 4 C Y K j + %.&.&.=.} #.&.%.",
"] ] ] ] ] ] ] ] Q 7 J I T T 4 S U Y 4 C Y L z 2 ' ' ' ' ' ' ' ] ",
"] ] X.X.X.| | | ] Q 4 J I T S I R R G K L L , f ' X...o.| X.X.o.",
"] X.&.X.&.#.&.&.] X.] 7 M M M M C C C C l 7 %.%.] O.O.#.#.%.%.#.",
"| #.&.&.&.&.&.#.] &.#.| # # # # # # # # 7 ^ %.%.} #.&.&.%.&.&.&.",
"] ] ] ] ] ] ] ] ] ] s , r.k.g.g.s.b.B.v.6.u Q ] ] ] ] ] ] ] ] ] ",
"X.X.X.| ] | | | X.| : k p y.g.g.b.G.H.B.u c 2 ! | | X.| ] | { | ",
"+.%.%.%.] X.+.%.#.%.# C i 6.j.j.p.s.f.r.5 G @ ) &.$.#.$.] X.$.&.",
"%.&.%.&.{ %.&.&.%.%.$ S c i v.d.p.g.t.p J Y @ | $.&.&.&.| #.$.$.",
"] ] ] ] ] ] ] ] { } , v l + m.M.M.M.u.t S S 7 Q ] ] ] ] ] ] ] ] ",
"] } | X.| X.| X.] } d 2 + . d.x.x.j.e.e # $ / } ] | { | X.X.X.X.",
"] X.+.#.%.+.%.%.] +.#.%.] @ g.g.t 9.9.e #.#.#.$.{ X.&.#.$.$.$.&.",
"| %.&.&.&.%.&.%.} #.%.%.] @ p.d.e 9.8.e $.&.-.&.] #.$.$.$.&.&.$.",
"] ] ] ] ] ] ] ] ] ] ] ] E @ d.d.r 9.0.r ] ] ] ] ] ] ] ] ] { ] ] ",
"X.| X.| ] | | | X.| X.X.g @ j.d.r 9.e.r ] { X.| X.X.X.X.] ] X.| ",
"#.%.%.%.] X.#.#.#.%.%.%.E @ 9.0.& 4.4.* ] +.+.#.#.$.$.$.] X.#.#.",
"&.&.%.&.} #.&.%.%.&.%.&.f @ r r . * * . ] #.$.&.&.&.&.$.{ $.&.$.",
"] ] ] ] ] } ] ] ] { ] ] ] ] ] ] ] ] ] ] ] ] ] ] ] ] ] ] ] ] ] ] ",
"] } | | | X.X.X.] { X.| | X.X.| ] { X.| X.| X.X.] { | | X.X.| X.",
"] +.#.+.%.%.&.%.] X.#.#.#.%.%.%.] X.#.$.$.#.#.$.] +.#.#.$.$.&.#.",
"] #.&.*.%.%.&.%.{ #.&.&.%.&.&.%.| $.$.$.$.$.-.&.] &.$.&.$.&.-.$."
};
