/* XPM */
static char *exit4[] = {
/* columns rows colors chars-per-pixel */
"32 32 135 2",
"   c #020201",
".  c #030303",
"X  c #050300",
"o  c #050404",
"O  c #0D0908",
"+  c #0E0908",
"@  c #0E0A08",
"#  c #0C0C0C",
"$  c #0D0D0D",
"%  c #0E0E0E",
"&  c #0F0F0F",
"*  c #100A09",
"=  c #100B09",
"-  c #110C0A",
";  c #100F0F",
":  c #1C0E03",
">  c #101010",
",  c #131313",
"<  c #141414",
"1  c #171717",
"2  c #1A1614",
"3  c #1E1411",
"4  c #1D1917",
"5  c #181818",
"6  c #1B1B1B",
"7  c #1D1918",
"8  c #1E1918",
"9  c #1C1C1C",
"0  c #1E1E1E",
"q  c #221103",
"w  c #221104",
"e  c #231205",
"r  c #2C1D13",
"t  c #2C1E13",
"y  c #2D1E14",
"u  c #3F2006",
"i  c #222222",
"p  c #232323",
"a  c gray17",
"s  c #3E3E3E",
"d  c #412209",
"f  c #452F27",
"g  c #473028",
"h  c #473128",
"j  c #46312A",
"k  c #51352C",
"l  c #51362C",
"z  c #52362D",
"x  c #52372D",
"c  c #53372D",
"v  c #52372E",
"b  c #53372E",
"n  c #54372D",
"m  c #52382E",
"M  c #53382E",
"N  c #53392F",
"B  c #55392F",
"V  c #543A30",
"C  c #543A31",
"Z  c #5E3E33",
"A  c #5F3F33",
"S  c #614034",
"D  c #604136",
"F  c #624236",
"G  c #634337",
"H  c #404040",
"J  c #414141",
"K  c #424242",
"L  c #464341",
"P  c #474442",
"I  c #444444",
"U  c #454545",
"Y  c #474747",
"T  c #484848",
"R  c #494949",
"E  c #4A4A4A",
"W  c #4B4B4B",
"Q  c #4F4C4B",
"!  c #4C4C4C",
"~  c #4D4D4D",
"^  c #4E4E4E",
"/  c #4F4F4F",
"(  c #504F4F",
")  c #505050",
"_  c #515151",
"`  c gray32",
"'  c #535353",
"]  c #545454",
"[  c #555555",
"{  c #565656",
"}  c #575757",
"|  c #585858",
" . c #595959",
".. c #5A5A5A",
"X. c #5B5B5B",
"o. c #5C5C5C",
"O. c #5D5D5D",
"+. c #5E5E5E",
"@. c #606060",
"#. c gray38",
"$. c #626262",
"%. c #6C6C6C",
"&. c #6D6D6D",
"*. c #6E6E6E",
"=. c #6F6F6F",
"-. c #707070",
";. c #717171",
":. c #727272",
">. c #747474",
",. c #767676",
"<. c #797979",
"1. c #7A7A7A",
"2. c #7C7C7C",
"3. c #7E7E7E",
"4. c #7F7F7F",
"5. c #8F490F",
"6. c #9E5721",
"7. c #AC5712",
"8. c #AD5915",
"9. c #B15A13",
"0. c #B15C19",
"q. c #B25D1A",
"w. c #B7601A",
"e. c #BA631E",
"r. c #C86615",
"t. c #D06D1F",
"y. c #DC7628",
"u. c #DD7729",
"i. c #DF792B",
"p. c #E07A2C",
"a. c #838383",
"s. c #848484",
"d. c #898989",
"f. c #8E8E8E",
"g. c #909090",
/* pixels */
"! ! ! ! ! ! ! ! ! ! ! ! ! ! ! ! ! ! ! ! ! ! ! ! ! ! ! ! ! ! ! ! ",
"' ' ] ] ! ' ' ' ] ] ' ' ! ! ' ] ] ' ' ' ! ' _ ' _ ' ' ' ! ' _ _ ",
"| X.X.X.! | ] | X.X.X.| ! | | o.| X.| X./ ' | O.| | X.O.! ] } | ",
"X.X.X.+.' X.X.X.+.X.X.X.! | X.X.X.+.X.X.! X.X.O.O.O.X.X._ | O.O.",
"E ! ! ! ! ! ! ! W ! ! ! E K s s I s s s s s ! ! ! ! ! ! ! ! ! ! ",
"! ' ] ] ' ' ' ' W ' ' ' Y 5 # # $ $ + $ # # ' ' ! ' _ ' ' ' ' ' ",
"! ] X.| X.X.| | ( ] ] ! a 4.g.f.d.a.2.2.1.<.9 K ! ' | X.O.O.O.| ",
"' | +.X.X.+.X.X.! | ' 9 ,.s.s.4.2.<.:.,.:.:.! 0 ! X.X.O.O.X.+.X.",
"E ! ! ! E ! ! ! ! ! o 2 * * 4 ( *.-.-.%.:.:.%.*.$ K / ! ! ! ! ! ",
"' ' ' ' ! ' ] ' ' ' O f k k g 4 :.-.-.*.:.:.:.-.$ I ' ' ! _ ' / ",
"X.X.| | ! ] | | X.X.* z Z n F A 9 ' *.:.-.%.:.-.& ! O.| ! | } | ",
"X.+.X.X.' X.X.| X.X.+ z z 3 F Z g 4 -.-.-.%.:.>.& ! X.O._ | O.O.",
"' ! ! ! ! ! ' ! ! ! * z v 3 F F z 3 +.*.-.-.-.+.5 K ! ! ! ! ! ! ",
"! ! ] ] ' ' ] ] ! ' * z A B F G F z p +.-.%.+.p I ! ' ' ' ' ' ' ",
"! | ] | | X.X.X.! | ! 0 z z C V V z > ! O.+.6 _ ! ' | O.| | | O.",
"' ] +.+.X.X.X.X.! | | ' * * * = * = o > , , _ | _ | X.X.+.O.O.O.",
"! ! ! ! ! ! ! ! ! ! ! ! E W : 5.r.9.7.q W ! ! ! ! ! ! ! ! ! ! ! ",
"' ' ' ' ! ' ' ] ' ' ' ' W ' o : 9.u 7.q ! ' ' ' _ ' ' ' ! _ ' ' ",
"| X.X.X.! ' | X.| X.X.X.W T   O C = 7.q ! ] | O.| | X.X.' ] ] X.",
"X.X.X.X.' | X.X.X.O.X.X.P 5 O j v = 8.w / X.X.X.X.X.X.@._ X.X.X.",
"' ! ! ! ! ! ! ! ! ! ! ! K $ z v d w.q.q ! ! ! ! W ! ! ! W W ! ! ",
"! ! ' ' ' ] ' ' ! ' ' ' I & * = e.t.q.w ' ' ' ] ! _ ' ] ' ' ' ' ",
"! | } | | X.X.X./ ] | | | X.t 6.i.i.6.r | X.O.| ! } | | X.| | O.",
"_ X.X.X.@.X.X.X./ | +.X.X.X.P t i.y.t P X.X.O.O./ | +.X.X.O.O.O.",
"! ! ! ! ! W ! ! ! ! ! ! W ! K $ p.p.$ K W ! ! ! ! ! ! ! ! ! ! ! ",
"' ' ] ] ! ' ' ' ' ] ] ' W ' I & p.p.# I ! ' ' ] ' ' ] ] ! _ ' ' ",
"} X.X.X.! ] } | X.o.X.| ! } E $ p.p.> W ! } | | | | X.X./ } ] | ",
"O.X.X.X._ O.X.X.X.+.X.X.! | ! > p.p.> ! ! | X.X.O.O.X.X.! X.+.X.",
"! ! ! ! ! ! ! ! W ! ! ! W W K 6 # $ 6 K ! / ! ! W ! / ! ! ! ! ! ",
"! _ ] ' ' ' ' ' ! ' ( ' ' ' ' E H I Y ' ' ' ' ' ! _ ' ] ' ' ' ' ",
"! } | X.X.| | O.! ] o.| } X.o.X.! } ] | O.X.O.| ! ] | | X.X.| X.",
"/ | X.+.X.+.X.X.( o.X.+.X.X.+.X.! o.X.+.X.X.X.O._ | X.X.@.X.+.X."
};
