/* XPM */
static char *exit2[] = {
/* columns rows colors chars-per-pixel */
"32 32 129 2 ",
"   c #020202",
".  c #030202",
"X  c #0E0908",
"o  c #0C0C0C",
"O  c #0D0D0D",
"+  c #0E0E0E",
"@  c #0F0F0F",
"#  c #100B09",
"$  c #110B0A",
"%  c #110C0A",
"&  c #130E0C",
"*  c #131313",
"=  c #1E1410",
"-  c #1F1512",
";  c #1A1614",
":  c #1B1715",
">  c #1D1917",
",  c #1E1816",
"<  c #181818",
"1  c #191919",
"2  c #1A1A1A",
"3  c #1C1C1C",
"4  c #1F1F1F",
"5  c #221204",
"6  c #231204",
"7  c #251407",
"8  c #2C190D",
"9  c #3F2007",
"0  c #202020",
"q  c #222222",
"w  c #232323",
"e  c #383838",
"r  c #3E3E3E",
"t  c #3F3F3F",
"y  c #44250D",
"u  c #442E26",
"i  c #452E26",
"p  c #4A3127",
"a  c #473028",
"s  c #473129",
"d  c #52372D",
"f  c #52372E",
"g  c #52382E",
"h  c #53382F",
"j  c #54382E",
"k  c #54392E",
"l  c #553A2F",
"z  c #543930",
"x  c #543A30",
"c  c #543A31",
"v  c #563B31",
"b  c #573D32",
"n  c #5F4034",
"m  c #614034",
"M  c #614135",
"N  c #624135",
"B  c #614237",
"V  c #624236",
"C  c #634338",
"Z  c #404040",
"A  c #414141",
"S  c #424242",
"D  c #434343",
"F  c #444343",
"G  c #454545",
"H  c #464646",
"J  c #484848",
"K  c #4A4A4A",
"L  c #4B4B4B",
"P  c #4C4C4C",
"I  c #4D4D4D",
"U  c #4E4E4E",
"Y  c #4F4F4F",
"T  c #50504F",
"R  c #505050",
"E  c #515151",
"W  c #525252",
"Q  c #535353",
"!  c #545454",
"~  c #555555",
"^  c #565656",
"/  c #575757",
"(  c #585858",
")  c #595959",
"_  c #5A5A5A",
"`  c #5B5B5B",
"'  c #5C5C5C",
"]  c #5D5D5D",
"[  c #5E5E5E",
"{  c #606060",
"}  c #616161",
"|  c #626262",
" . c gray40",
".. c #6D6D6D",
"X. c #6E6E6E",
"o. c #707070",
"O. c #737373",
"+. c #747474",
"@. c #767676",
"#. c #797979",
"$. c #7C7C7C",
"%. c #7E7E7E",
"&. c #99521A",
"*. c #AC5813",
"=. c #AE5A15",
"-. c #B15A12",
";. c #B15A13",
":. c #BA6524",
">. c #BB6625",
",. c #BF6724",
"<. c #C76514",
"1. c #C76515",
"2. c #D46F1E",
"3. c #D5701F",
"4. c #C06925",
"5. c #C16926",
"6. c #D67020",
"7. c #D77121",
"8. c #D9762A",
"9. c #DA772A",
"0. c #808080",
"q. c #818181",
"w. c #838383",
"e. c #878787",
"r. c #888888",
"t. c #8B8B8B",
"y. c #8C8C8C",
"u. c gray57",
"i. c #929292",
/* pixels */
"P P P P P P P P P P P P K P P P P P P P K P P P P P P P K P P P ",
"Q Q Q Q P Q Q Q Q ^ Q Q L Q Q Q Q Q Q Q K Q Q Q Q Q Q ^ P Q Q Q ",
"( ( ] ( P ^ ^ ( ( ] ( ( P ^ ( ( ( ( ( ] P ^ ( ( ( ( ] ( P ^ ^ ( ",
"] ] ] ] Q ( ] ] ] ] ] ] P ( ] ] ] ] ] ] Q ( ] ] ] ] ] ] P ( ] ] ",
"Q P P P P P P P P P P A t t t t A A t t K P P P P K P P P P P P ",
"P P Q Q Q Q Q Q P Q G 2 + + + + o + o o Q ^ Q ^ P Q ^ Q ^ Q Q ^ ",
"P ^ ( ] ( ( ( ( K K w  .#.#.0.0.t.y.u.u.3 A ( ( P ^ ( ] ( ( ( ] ",
"P ( ] ] ] ] ] ] A 2 { o.o.o.@.@.$.0.e.t. .q ] ] P ( ] ] ] ] ] ] ",
"P P P P K P P P * ] o.o.o.o.o.X.X.{ # # & > o Z P P P P P P P P ",
"^ Q Q ^ K Q Q Q * ] o.o.o.o.o.o.{ q f f f c + G Q ^ Q Q P Q Q Q ",
"( ( ( ( P ^ ] ( * ] o.o.o.o.X.{ = k n k V V + L ( ( ( ] P ( ^ ( ",
"] ] ] ] Q ( ] ( * ] o.o.o.o.{ q l b g = V V & P ] ] ] ] Q ( ] ] ",
"P P P P P P P P 2 Q o.o.o.o.T > N N l = V m + A P P P P P L P P ",
"P Q Q ^ Q ^ Q ^ e 2 o.X.o.o.> s N C V l V V + G P Q Q ^ Q Q Q ^ ",
"P ^ ( ( ( ( ] ( P ^ 3 Q ] ] X i x x k f s ; ( ] P ^ ( ( ] ( ( ] ",
"Q ( ] ] ] ] ] ] P ( G 3 * * . X # # # # ; G ] ] P ( ( ] ] ] ] ] ",
"P L P P P P P L P P P P t o <.;.1.-.X Z P P P P P P P P P P P P ",
"Q Q ^ ^ P P Q ^ Q Q Q ^ t + ;.9 ;.y + G P Q Q Q Q Q Q Q P Q R Q ",
"( ( ' ( P ( ( ( ( ( ] ( t + *.6 b - o t P ^ ( ( ( ( ] ( Q ^ ( ( ",
"] ] ( ] Q ( ' ] ] ] ( ] A o =.6 C x . o P ( ] ] ] ] ] ] P ( ] ] ",
"P P P P L P P P P K P P A + 2.2.8 s i X P P P P P P P L P P P P ",
"P Q Q Q Q ^ Q Q R Q Q Q G + 6.7.&.8 X   Q ^ Q ^ P P Q ^ Q Q Q ^ ",
"P ( / ( ( ( ( ] P ^ ( ( P 3 5.9.9.5.3 P ( ( ] ( P ( ( ( ] ( ( ] ",
"P ( ] ] ] ] ] ] Q ( ] ] ( P y 5.5.y P ' ] ] ] ] Q ( ] ] ] ] ] ] ",
"P P P P K K P P P P P P K P 7 :.:.7 P P K P P P P P P P L P P P ",
"Q ^ Q ^ P Q Q Q Q ^ Q Q P Q 7 :.:.7 ^ Q P Q Q Q Q Q Q Q P Q Q Q ",
"( ] ( ( P ( ^ ( ( ( ' ( P ( 7 >.:.7 ( ' P ( ( ( ( ( ( ' P ^ ^ ( ",
"] ] ] ] Q ( ( ] ] ] ] ' P ( 7 >.:.7 ] ] P ( ' ' ] ] ] ] P ( ] ] ",
"R P P P P P P P P P Y L P P + + + + P P P P P P P K P P P P P P ",
"P P ^ ^ Q Q Q ^ P P ^ Q ^ Q G K A G Q Q Q Q ^ Q P Q Q ^ ^ ^ ^ Q ",
"P ^ ( ( ( ( ( ] P ^ ( ' ( ( ( ] P ( ( ( ( ] ( ] P ( ( ( ( ] ( ( ",
"Q ( ] ] ] ] ' ] Q ( ] ] ] ] ] ] Y ( ] ] ] ] ] ( Q ( ] ] ] ] ] ] "
};
