/* XPM */
static char *exit1[] = {
/* columns rows colors chars-per-pixel */
"32 32 188 2 ",
"   c #040303",
".  c #070401",
"X  c #060505",
"o  c #070707",
"O  c #0F0A09",
"+  c #0F0B09",
"@  c #0D0D0D",
"#  c #0E0E0E",
"$  c #0F0F0F",
"%  c #1D0F03",
"&  c #1D0F04",
"*  c #110B09",
"=  c #110C0A",
"-  c #110D0B",
";  c #110D0C",
":  c #15100E",
">  c #101010",
",  c #151515",
"<  c #191413",
"1  c #191513",
"2  c #1A1513",
"3  c #1E1411",
"4  c #1E1511",
"5  c #1F1511",
"6  c #1F1512",
"7  c #1F1612",
"8  c #1A1514",
"9  c #1A1614",
"0  c #1B1715",
"q  c #181818",
"w  c #191919",
"e  c #1E1918",
"r  c #1C1C1C",
"t  c #1E1E1E",
"y  c #221103",
"u  c #231204",
"i  c #231205",
"p  c #231305",
"a  c #251507",
"s  c #2A180B",
"d  c #2B180B",
"f  c #2B190C",
"g  c #3F2007",
"h  c #202020",
"j  c #2C2C2C",
"k  c #373636",
"l  c #3D3C3B",
"z  c #3E3D3C",
"x  c #3F3F3F",
"c  c #462F27",
"v  c #4A3127",
"b  c #473029",
"n  c #463129",
"m  c #473129",
"M  c #483129",
"N  c #48332B",
"B  c #4C342A",
"V  c #51352B",
"C  c #52372D",
"Z  c #52372E",
"A  c #53372E",
"S  c #52382E",
"D  c #52382F",
"F  c #53382F",
"G  c #53392F",
"H  c #55382F",
"J  c #54392F",
"K  c #533A30",
"L  c #553930",
"P  c #543A30",
"I  c #553A30",
"U  c #553B30",
"Y  c #543B31",
"T  c #563A31",
"R  c #563B31",
"E  c #543B32",
"W  c #573D32",
"Q  c #573D33",
"!  c #5D3E33",
"~  c #5D3F34",
"^  c #604035",
"/  c #614135",
"(  c #624135",
")  c #604136",
"_  c #624136",
"`  c #614337",
"'  c #634237",
"]  c #634338",
"[  c #634438",
"{  c #624539",
"}  c #634539",
"|  c #62453A",
" . c #644539",
".. c #64463A",
"X. c #404040",
"o. c #414141",
"O. c #424242",
"+. c #444444",
"@. c #454545",
"#. c #464646",
"$. c #474646",
"%. c #484848",
"&. c #4A4A4A",
"*. c #4B4B4B",
"=. c #4C4C4C",
"-. c #4D4D4D",
";. c #4E4E4E",
":. c #4F4F4F",
">. c #51504F",
",. c #505050",
"<. c #515151",
"1. c #525252",
"2. c #535353",
"3. c #545454",
"4. c #555555",
"5. c #565656",
"6. c #575757",
"7. c #595452",
"8. c #585858",
"9. c #595959",
"0. c #5A5A5A",
"q. c #5B5B5B",
"w. c #5C5C5C",
"e. c #5D5D5D",
"r. c #5E5E5E",
"t. c #5F5F5F",
"y. c #606060",
"u. c #616161",
"i. c #626262",
"p. c #727272",
"a. c gray45",
"s. c #757575",
"d. c #777777",
"f. c #7A7A7A",
"g. c #7B7B7B",
"h. c #7C7C7C",
"j. c #7D7D7D",
"k. c #7E7E7E",
"l. c #8D460C",
"z. c #8F490F",
"x. c #90490E",
"c. c #90490F",
"v. c #A9520C",
"b. c #A9540D",
"n. c #A9540E",
"m. c #AA540E",
"M. c #AA540F",
"N. c #AA5611",
"B. c #AC5713",
"V. c #AC5814",
"C. c #AE5A16",
"Z. c #B05912",
"A. c #B15B14",
"S. c #B25C16",
"D. c #B86322",
"F. c #CB620D",
"G. c #CB630E",
"H. c #CB6512",
"J. c #CC6410",
"K. c #CC6411",
"L. c #CC6511",
"P. c #CC6512",
"I. c #CC6612",
"U. c #CC6613",
"Y. c #C86616",
"T. c #CC6715",
"R. c #CD6815",
"E. c #CF6917",
"W. c #C96718",
"Q. c #CE6918",
"!. c #CF6E1E",
"~. c #D06917",
"^. c #D06A18",
"/. c #D16D1B",
"(. c #CE742A",
"). c #CF762D",
"_. c #D97323",
"`. c #DD7728",
"'. c #D47C34",
"]. c #D47C35",
"[. c #828282",
"{. c #848484",
"}. c #858585",
"|. c #898989",
" X c #8D8D8D",
".X c #8E8E8E",
"XX c #DDBDA3",
"oX c #F0D1B8",
/* pixels */
"=.=.=.=.*.=.=.=.=.=.=.=.=.=.=.=.=.*.=.=.*.=.=.=.=.=.=.=.*.=.=.=.",
"2.2.3.3.=.2.=.2.2.2.2.2.*.2.2.2.2.2.2.2.=.1.2.2.2.2.3.3.=.<.2.2.",
"9.9.e.9.=.3.9.9.9.w.w.9.=.3.9.9.w.9.9.q.-.5.9.9.9.9.9.q.=.5.9.9.",
"e.e.e.e.2.9.e.e.w.e.e.w.=.9.e.e.e.e.e.e.;.9.e.e.e.e.e.r.;.9.e.e.",
"*.*.=.=.=.=.=.=.=.=.=.=.x X.x x X.N x X.X.&.=.-.=.=.=.=.=.=.=.=.",
"*.2.3.3.2.2.2.2.=.2.3.2.@ @ # # > > # # w %.2.3.=.<.2.2.2.2.3.2.",
"=.3.9.9.9.9.9.e.=.3.x r d.f.g.k.}.|. X.Xj.j ;.9.=.5.9.9.9.q.q.q.",
"=.9.e.e.e.e.e.e.2.9.r >.p.p.p.a.d.j.[.}.}.a.h 1.;.9.e.e.e.e.e.e.",
"=.=.=.=.*.=.=.*.X.> >.e = = = = * * = = = ; 7., =.=.=.=.*.*.*.=.",
"3.3.3.2.=.2.3.2.+.# e M C C D D C C C A C K : X 2.2.3.3.=.<.<.2.",
"9.9.9.e.=.9.9.9.=.> 6 T ' ' J ' ' ' J ~ ] ~ O X q.q.q.q.-.5.9.9.",
"e.e.e.e.=.9.e.e.=.> W { [ ' 6 J ' ' 3 J ' ~ c # e.e.e.e.;.q.e.e.",
"=.=.=.=.=.=.=.=.X.w W { ] ] 6 J ' ' 6 J ^ ' c 8 *.=.=.=.=.=.=.=.",
"*.2.2.2.2.2.2.3.*.+.6 T ' ] W ' ....J ^ ] { < l -.1.2.2.2.2.2.3.",
"=.9.9.9.9.9.e.9.=.9.=.r D D D D K J D J n , q.q.=.3.9.9.9.q.q.q.",
"=.9.e.e.e.e.e.e.=.9.9.2.= = * = = = = * q #.e.e.;.9.e.e.e.e.e.e.",
"=.=.=.=.*.*.=.=.=.*.k 8 Z.W.L.L.H.).'.!.c.d X.*.=.=.=.=.*.*.=.=.",
"2.2.2.2.=.2.2.2.2.2.< m g A.L.T.(.XXoX'.d v w +.2.2.2.2.=.2.:.2.",
"9.q.q.q.=.3.6.9.9.q.= K f c.Q.L.G.L.Y.Z.6 W # *.9.9.w.q.=.3.9.q.",
"e.e.e.e.:.9.e.e.e.e.= T B f /.T.G.H.S.g W { # 2.e.e.e.e.2.9.e.e.",
"=.=.=.=.=.=.=.=.=.*.8 N m O _.`.`.`.D.a T K , X.*.*.=.=.*.=.=.=.",
"=.,.2.2.2.2.2.2.=.2.l 8 O . ^.^.~.~.C.p = = *.2.*.2.2.3.2.2.2.2.",
"=.6.3.9.q.9.q.q.=.6.9.9.=.> L.G.y v.n.y 9.9.9.9.=.3.9.9.q.q.q.q.",
":.9.t.t.e.e.e.e.:.9.e.e.=.> G.G.y n.n.y e.e.i.e.=.9.e.w.e.e.e.e.",
"=.=.=.=.=.*.=.=.=.=.=.=.x # R.Y.y N.N.i *.=.=.=.=.=.=.=.*.=.=.=.",
"2.2.2.2.=.2.2.2.2.3.2.3.x # R.H.y v.C.i =.:.2.2.3.3.2.2.=.,.2.2.",
"9.9.e.q.=.3.6.9.9.9.w.9.x @ v.N.% z.l.& =.9.6.9.9.w.9.e.=.6.9.9.",
"e.e.e.e.:.9.e.e.e.e.e.e.x # i i . % & . =.9.e.e.e.e.e.e.=.9.w.e.",
"=.*.=.=.=.=.=.=.*.=.=.=.=.=.=.=.*.=.=.=.=.=.=.=.=.=.=.=.=.=.=.=.",
"=.:.2.2.2.2.2.3.*.2.3.2.3.2.3.3.=.:.2.2.2.3.2.2.=.=.2.2.3.3.2.3.",
"=.6.8.6.q.q.q.q.=.3.9.9.9.9.w.9.=.3.9.9.9.9.9.e.=.9.8.9.w.9.9.9.",
":.9.t.t.e.e.e.e.,.9.e.e.e.e.e.e.,.9.e.e.e.e.i.e.=.9.w.e.e.e.i.e."
};
