/* XPM */
static char *exit4[] = {
/* columns rows colors chars-per-pixel */
"32 32 140 2 ",
"   c #030202",
".  c #030303",
"X  c #060301",
"o  c #050504",
"O  c #0E0A08",
"+  c #0D0D0D",
"@  c #0E0E0E",
"#  c #0F0F0F",
"$  c #1D0F03",
"%  c #100B09",
"&  c #110B09",
"*  c #110B0A",
"=  c #110C0A",
"-  c #110F0E",
";  c #101010",
":  c #131313",
">  c #171717",
",  c #1E1410",
"<  c #1E1411",
"1  c #1B1615",
"2  c #1D1817",
"3  c #1D1917",
"4  c #181818",
"5  c #191919",
"6  c #1E1918",
"7  c #1C1C1C",
"8  c #1E1E1E",
"9  c #221104",
"0  c #221204",
"q  c #231204",
"w  c #241305",
"e  c #2C1E13",
"r  c #2D1F14",
"t  c #3F2007",
"y  c #222222",
"u  c #232323",
"i  c #2C2C2C",
"p  c #3F3F3F",
"a  c #412209",
"s  c #463028",
"d  c #473028",
"f  c #463129",
"g  c #473129",
"h  c #51352B",
"j  c #51362C",
"k  c #51362D",
"l  c #52362C",
"z  c #52372D",
"x  c #52372E",
"c  c #54372D",
"v  c #53382F",
"b  c #54382E",
"n  c #54382F",
"m  c #543930",
"M  c #553A30",
"N  c #543A31",
"B  c #5E3E33",
"V  c #5F3F34",
"C  c #614034",
"Z  c #614135",
"A  c #624135",
"S  c #604136",
"D  c #624236",
"F  c #634338",
"G  c #404040",
"H  c #414141",
"J  c #424242",
"K  c #434343",
"L  c #474442",
"P  c #444444",
"I  c #454545",
"U  c #474747",
"Y  c #484543",
"T  c #484848",
"R  c #494949",
"E  c #4A4A4A",
"W  c #4B4B4B",
"Q  c #4C4C4C",
"!  c #4D4D4D",
"~  c #4F4D4C",
"^  c #4E4E4E",
"/  c #4F4F4F",
"(  c #505050",
")  c #515050",
"_  c #515151",
"`  c #525151",
"'  c #525252",
"]  c #535353",
"[  c #545454",
"{  c #555555",
"}  c #565656",
"|  c #575757",
" . c #585858",
".. c #595959",
"X. c #5A5A5A",
"o. c #5B5B5B",
"O. c #5C5C5C",
"+. c #5D5D5D",
"@. c #5E5E5E",
"#. c #5F5F5F",
"$. c #606060",
"%. c #616161",
"&. c gray39",
"*. c #6B6B6B",
"=. c #6C6C6C",
"-. c #6D6D6D",
";. c #6E6E6E",
":. c #6F6F6F",
">. c #707070",
",. c #717171",
"<. c #727272",
"1. c gray45",
"2. c #747474",
"3. c #767676",
"4. c #797979",
"5. c #7A7A7A",
"6. c #7D7D7D",
"7. c #7E7E7E",
"8. c #8F4910",
"9. c #AB5712",
"0. c #AC5812",
"q. c #AC5813",
"w. c #AE5915",
"e. c #B15B13",
"r. c #B05C18",
"t. c #B25D1B",
"y. c #B7601A",
"u. c #BA631E",
"i. c #9E5721",
"p. c #C86615",
"a. c #D16E20",
"s. c #DD7729",
"d. c #DF792B",
"f. c #E07A2C",
"g. c #818181",
"h. c #838383",
"j. c #858585",
"k. c #898989",
"l. c #8E8E8E",
"z. c #909090",
/* pixels */
"Q Q Q Q W Q Q Q W Q Q Q W Q W Q Q Q Q Q W W W W W W W W W Q Q Q ",
"] ] [ [ Q ] ] ] ] ] ] ] W ) ] ] ] ] ] ] W ] ] ] ] ] ] ] Q ] ) ] ",
"....+...Q [ [ ....o.o.o.Q | | o...o.o.o./ [ o.o...o.o.o.Q | | o.",
"+.+.+.+.] ..+.+.+.+.+.+./ ..O.O.+.+.+.+./ ..o.+.O.+.+.+./ ..+.o.",
"W W Q Q Q Q Q Q W W Q Q W K p p G p p p p p W Q Q / Q Q W / W Q ",
"W ] ] [ ] ] ] ] W ] [ ] U 4 + + + + + + + + ] ] Q ] / ] ] ] ] ] ",
"Q [ ..........+.) [ | Q i 6.z.l.k.h.6.6.4.5.7 K Q [ o.o.o.o.o.o.",
"Q ..+.+.+.+.+.+.Q ..) 7 3.h.h.g.6.4.,.2.<.<./ 7 Q o.+.o.+.+.+.@.",
"Q Q Q Q W Q Q W Q Q o 1 % % 6 ) >.>.>.*.<.<.*.>.+ p Q Q W Q Q Q ",
"[ [ ] ] Q ] ] ] ] ] O s k k d 3 <.>.>.>.<.<.>.>.@ I ] ] Q / ] ] ",
"......+.Q ......+...% k V k S C 6 ) >.,.>.*.<.,.@ Q o.o./ | | o.",
"+.+.+.+.Q ..+.+.+.+.% k m w S S g 6 >.>.>.;.<.,.@ / @.+./ o.o.+.",
"Q Q Q Q Q Q Q Q W Q % k b < S S v < $.;.>.>.>.@.> K Q Q W W Q Q ",
"W ] ] ] ] ] ] [ Q ( % h V M F F S k u $.>.*.&.u K / ] ] ] ] ] ] ",
"Q ..[ ......+...Q ..Q 7 h k M M M k ; Q +.@.7 / Q [ | o.o.o.o.O.",
"Q ..+.$.+.+.+.+.Q ....] % % = = % % o ; : : / o./ o.o.@.o.+.+.+.",
"Q Q Q Q W W Q Q Q Q Q Q W W $ 8.p.e.0.9 W Q Q Q Q Q Q Q W Q Q / ",
"] ] ] ] W ] ] ] ] ] ] ] Q ] X $ e.t 0.9 Q ] ] ] ] ] ] ] Q ) ] ] ",
"..o.o.o.Q [ ..o.| o.o.o.Q W   O M = q.9 Q [ ...... .o.o./ [ | ..",
"+.+.+.+./ ..o.+.+.+.+.o.J > O g v = w.9 / ..+.+.+.+.+.+.] ..o.+.",
"Q Q Q Q W Q Q Q Q Q Q Q p + k v a t.r.9 Q Q Q Q Q Q Q Q W W Q Q ",
"Q / ] ] ] ] ] ] Q ] ] ] U + % % u.a.t.w ] [ ] [ Q / ] ] ] ] ] ] ",
"Q | | o.o.o.o.O.Q [ ......o.r i.f.f.i.r ....o.o./ | | ..o.o.o.o.",
"/ ..o.+.O.+.+.+./ ..+.+.O.O.L r s.s.r Y +.+.+.+.Q ..+.+.+.+.+.+.",
"Q Q Q Q Q Q Q Q W Q Q Q W Q J + f.f.+ G W Q Q W Q Q Q Q W Q Q Q ",
"] ] ] ] Q / ] ] ] ] ] ] W ] I @ f.f.+ U / / ] ] ] ] ] ] Q / ] ] ",
"..o.o.o.Q [ ..o...o.o.o.Q | W @ f.f.; W Q | ......o.o.o.Q | | o.",
"+.+.+.+./ ..+.+.+.+.+.O./ ..W @ f.f.; Q Q ..+.+.+.+.+.+./ ..+.+.",
"Q Q Q Q Q Q Q Q W Q Q W W W J 4 + + 4 J Q / Q Q W Q Q Q Q Q Q Q ",
"Q / ] ] ] ] ] ] W ] ] ] ] ] ] W G U Y ] ] ] ] ] Q / ] ] ] ] ] ] ",
"/ | | o.o...o.o.Q [ o.....o.o.o.Q | | ....o.o.o.Q  .| ..o.o...o.",
"/ ..+.+.+.+.+.+./ ..+.+.+.+.+.+./ ..@.@.+.+.+.+./ ..+.+.+.+.$.+."
};
