/* XPM */
static char *exit3[] = {
/* columns rows colors chars-per-pixel */
"32 32 162 2",
"   c #020201",
".  c #020202",
"X  c #050200",
"o  c #050300",
"O  c #0B0B0B",
"+  c #0D0908",
"@  c gray5",
"#  c #0E0E0E",
"$  c gray6",
"%  c #100B09",
"&  c #100B0A",
"*  c #1C0E02",
"=  c #1C0E03",
"-  c #1C0F03",
";  c #101010",
":  c #111111",
">  c #121212",
",  c #151515",
"<  c #161616",
"1  c #171717",
"2  c #181412",
"3  c #191413",
"4  c #191513",
"5  c #1A1513",
"6  c #191514",
"7  c #1D1512",
"8  c #1D1917",
"9  c #181818",
"0  c #1A1A1A",
"q  c #1B1B1B",
"w  c #1D1D1D",
"e  c #1E1E1E",
"r  c #221002",
"t  c #221103",
"y  c #221104",
"u  c #221204",
"i  c #241306",
"p  c #2A170A",
"a  c #2A180B",
"s  c #3E1F05",
"d  c #3F2007",
"f  c #292929",
"g  c #373635",
"h  c #3A3A3A",
"j  c #3E3D3C",
"k  c #3E3E3E",
"l  c #3F3F3F",
"z  c #442F27",
"x  c #452F27",
"c  c #473129",
"v  c #47312A",
"b  c #48322A",
"n  c #48332B",
"m  c #4A3128",
"M  c #4A3228",
"N  c #52382E",
"B  c #52382F",
"V  c #53392F",
"C  c #533930",
"Z  c #533A30",
"A  c #533A31",
"S  c #543B32",
"D  c #563C32",
"F  c #563C33",
"G  c #62453A",
"H  c #404040",
"J  c #414141",
"K  c #444444",
"L  c gray27",
"P  c #464646",
"I  c #474747",
"U  c #484848",
"Y  c #494949",
"T  c #4A4A4A",
"R  c #4B4B4B",
"E  c #4C4C4C",
"W  c #4D4D4D",
"Q  c #4E4E4E",
"!  c #4F4F4F",
"~  c #524C4A",
"^  c #57514F",
"/  c #505050",
"(  c #515151",
")  c gray32",
"_  c #535353",
"`  c #545454",
"'  c #555555",
"]  c #565656",
"[  c #575757",
"{  c #585858",
"}  c #595959",
"|  c #5A5A5A",
" . c #5B5B5B",
".. c #5C5C5C",
"X. c #5D5D5D",
"o. c #5E5E5E",
"O. c #5F5F5F",
"+. c #606060",
"@. c #676767",
"#. c #6B6B6B",
"$. c #6D6D6D",
"%. c #6E6E6E",
"&. c #6F6F6F",
"*. c #707070",
"=. c #717171",
"-. c #727272",
";. c #737373",
":. c #747474",
">. c #757575",
",. c #767676",
"<. c #777777",
"1. c gray47",
"2. c #797979",
"3. c #7B7B7B",
"4. c gray49",
"5. c #7E7E7E",
"6. c #7F7F7F",
"7. c #8D450B",
"8. c #8F4910",
"9. c #90490F",
"0. c #914A11",
"q. c #A9530C",
"w. c #A9530D",
"e. c #A9540E",
"r. c #AA540E",
"t. c #AB5712",
"y. c #AB5713",
"u. c #AC5814",
"i. c #AD5915",
"p. c #B05811",
"a. c #B05812",
"s. c #B05912",
"d. c #B15A15",
"f. c #B86321",
"g. c #CB630C",
"h. c #CB630D",
"j. c #CB630F",
"k. c #CB640F",
"l. c #CB6310",
"z. c #CB6410",
"x. c #CB6411",
"c. c #CB6511",
"v. c #CB6612",
"b. c #C86617",
"n. c #CC6411",
"m. c #CC6412",
"M. c #CC6512",
"N. c #CC6613",
"B. c #CD6614",
"V. c #CE6614",
"C. c #CA6718",
"Z. c #CE6917",
"A. c #CF6816",
"S. c #CF6817",
"D. c #CE6918",
"F. c #D06917",
"G. c #DC7627",
"H. c #DD7728",
"J. c #808080",
"K. c #818181",
"L. c gray51",
"P. c #838383",
/* pixels */
"E E E E E R E E E E E E E E E E E R R E R R E R R R R R R E E E ",
"_ _ ] ] E _ E _ _ ] _ _ R _ _ ] _ _ _ _ R _ _ _ _ _ ] ] E E _ _ ",
"{  . . .E { { {  . . .{ R ] { {  .{ {  .E ]  .{ ]  . . .E { { { ",
" . . . ._ {  . . .+. .{ E {  . .+. . . .] {  .{ {  . .+.E  . . .",
"R E E E E E E E E R R R k H k k H H H k H R E E E E E E E E E E ",
"E _ _ ] ] _ _ _ R _ _ _ @ @ @ @ @ @ @ @ 0 K _ ] E _ _ ] ] _ _ ] ",
"E ]  .{  . .{ { _ ] k 0 =.=.:.2.2.3.P.P.=.f E ] E ] { {  . .{ { ",
"E ]  . .+. . . .E { 0 _ =.=.=.:.2.3.3.P.P.=.e _ E { +. . .+. . .",
"E E E E R E E E k @ =.=.&.=.&.=.:.1.4.J.J.J.#., E E E E E E E E ",
"] _ _ _ R _ _ _ K @ =.&.&.&.&.&.:.:.<.2.J.J.&., _ ] _ ] E _ _ _ ",
" .{ { { E { { { E @ =.=.&.=.&.=.=.=.:.1.2.4.#.1 ] {  . .E { ] { ",
" .+. . ._ {  . ._ @ =.&.&.&.&.=.*.=.-.:.1.2.@.1  . . .+._ {  . .",
"_ E E E E E E E H 1   +  .+. .+. .O.O.O.^ 8 . O R E E E E E E E ",
"E E ] ] _ _ ] ] R K + z > > > > > > > > 8 n @ h E _ _ ] _ _ _ _ ",
"E ] { { ]  . . .E ] E e N N N N A N A A n 6  . .E ] { {  .{ {  .",
"_ {  . . . . . .E {  ._ % % % % % % % @ 6 H +. .E { +. . .+. . .",
"E E E E R R E E E E g 2 s.C.l.M.g.M.B.Z.9.a H R E E E E R R R E ",
"_ _ _ _ E _ _ _ _ _ 2 v s s.M.M.g.M.M.B.a m 9 K _ ` _ ] E _ E _ ",
"{ {  . .E ] {  .{ { % A p 0.F.M.h.M.b.p.7 F @ R [  . . .E { {  .",
"O. .O. .E {  . . . .% A m p F.M.h.M.d.s F G > ~  . . .O._  . . .",
"E E E E E E E E _ R 3 v z @ G.H.H.H.f.i N A 1 H R R E E R R E E ",
"E _ _ _ _ _ _ _ E _ k 6 @   V.F.V.B.i.t % % R _ R _ _ ` _ _ _ ` ",
"E { { {  . . .{ E [ { { R @ g.l.y r.r.r {  ... .R `  . . . .{  .",
"_ {  . .O. . . ._  . . .E ; l.M.y r.r.r  .O. . ._ [  .O. .O. . .",
"R E E E E E E E R E E E k @ B.M.y e.y.y R ! E E R R E E E E E E ",
"_ _ _ _ E _ _ _ _ ] _ _ k @ Z.M.t e.u.y R ~ _ ] _ _ _ _ E E _ _ ",
"]  . . .E { ] {  . . . .k @ e.y.- 8.7.- E { { { [  . ...E { [  .",
" . . .O._ {  . . . . . .k @ y y X - - o ! {  .{ .. . .O.E .. . .",
"! E E E E E E E R E E R E R E E R R R R E E E E E E E E E E E E ",
"E E _ ] _ _ _ _ E ! _ _ _ _ ] ] R _ E _ ` ] ` _ E E _ ] ] _ _ _ ",
"E ] {  . . .{  .! {  . .{  . . .E {  .{  . . .{ E [ {  .{  .{ ..",
"E [ O. . .O. . .E  . . . . . . .!  . . . . . . ._ {  .O. . .+. ."
};
