/* XPM */
static char *f1[] = {
/* columns rows colors chars-per-pixel */
"32 32 45 1",
"  c black",
". c #060606",
"X c #0C0C0C",
"o c #131313",
"O c #191919",
"+ c #202020",
"@ c gray15",
"# c #2D2D2D",
"$ c gray20",
"% c #393939",
"& c #07196E",
"* c #081A6E",
"= c #091C6E",
"- c #0C1E6F",
"; c #0E2070",
": c #182B79",
"> c #55392F",
", c #563C32",
"< c gray25",
"1 c #464646",
"2 c #4B4B4B",
"3 c #545454",
"4 c #555555",
"5 c #565656",
"6 c gray34",
"7 c #585858",
"8 c #595959",
"9 c #5A5A5A",
"0 c gray36",
"q c #7E5444",
"w c #805747",
"e c #805748",
"r c #815849",
"t c #A76F5A",
"y c #A86F5A",
"u c #A8705B",
"i c #A9715C",
"p c #AA735F",
"a c #AB7561",
"s c #AC7662",
"d c #AC7663",
"f c #AD7764",
"g c #AD7864",
"h c #D8C300",
"j c #FFE500",
/* pixels */
"22222222222222222222222222222222",
"33332333333323333333233333332333",
"88882888888828388880238088882888",
"00002008000020000000200000002000",
"22222222222222222222222222222222",
"233333332333         33323333333",
"23888888283 XoO+@$%<1 8823888888",
"2000000020      .oO+@# 020000000",
"222222222             o 22222222",
"333323333  spsspttyppp  33332333",
"888023888  sppspyppspp  88882388",
"000020000 gg    >    ts 00002000",
"222222222 gge  edw  qpt 22222222",
"2333333323 sppsggaappp 323333383",
"23888888266 aape,egsa 8823888888",
"200000002000         00020000000",
"22222222222 =;==&==;= 2222222222",
"3333233333 p ===&jh= s 333332333",
"0888238888 g =;&&=-= g 888882788",
"0000200000 gg ;=*=; gg 000002000",
"2222222222 gs ::::: sg 222222222",
"23333333233   =====   3323333333",
"2688888828388 =& &= 888826888889",
"2000000020000 &= =* 000020000000",
"2222222222222 == == 222222222222",
"3333233333332 -* =; 233333332333",
"8888238888882 -; ;= 238888882388",
"0000200000002       200000002000",
"22222222222222222222222222222222",
"23333333233333332333333323333333",
"23888808268888882838889823888808",
"20000000209000002000000020000000"
};
