/* XPM */
static char *f2[] = {
/* columns rows colors chars-per-pixel */
"32 32 40 1",
"  c black",
". c #060606",
"X c #0C0C0C",
"o c #131313",
"O c #191919",
"+ c #2A1C16",
"@ c #2A1C17",
"# c #202020",
"$ c gray15",
"% c #2D2D2D",
"& c gray20",
"* c #393939",
"= c #0B1E6F",
"- c #0C1E6F",
"; c #0E2071",
": c #102272",
"> c #112474",
", c #152977",
"< c #172A78",
"1 c #182B79",
"2 c #54382E",
"3 c gray25",
"4 c #464646",
"5 c #4B4B4B",
"6 c #545454",
"7 c #555555",
"8 c #565656",
"9 c gray34",
"0 c #585858",
"q c #595959",
"w c #5A5A5A",
"e c gray36",
"r c #A76F5A",
"t c #A86F5A",
"y c #A8705B",
"u c #A9705C",
"i c #AB745F",
"p c #AB7561",
"a c #AC7662",
"s c #AE7A66",
/* pixels */
"55555555555555555555555555555555",
"66665666666656666666566666665666",
"qqqq5qqqqqqq5q6qqeqq5qqqqqqq5qqq",
"eeee5eeqeeee5eeeeeee5eeeeeee5eeq",
"55555555555555555555555555555555",
"56666666566         666656666666",
"5q6qqqqq5q XoO#$&*34 qqq5q6qqqqq",
"5eeeeeee5      .oO#$% ee5eeeeeee",
"55555555             o 555555555",
"66665666          uuuu 666665666",
"qqqe56qq         upyyu qqqqq56qq",
"eeee5eee        u2   @ eeeee5eee",
"55555555        ut@ @t 555555555",
"566666665      uppuuut 656666666",
"56qqqqqq5q     uasaiy qq56qqqeeq",
"5eeeeeee5ee          eee5eeeeeee",
"5555555555555 ==== 5555555555555",
"6666566666665 = -  6566666665666",
"qqeq56qqqeqq5 - s  q56qqweqq56qq",
"eeee5eeeeeee5 ; as  5eweeeee5eee",
"5555555555555 :: ii 555555555555",
"5666666656666 >>>   66665666666q",
"5qqqqqqq59qqq 1111 qqqqq56qqqqqq",
"5eeeeeee5eewee <, eeeeee5eeeeeee",
"55555555555555 11 55555555555555",
"66665666666656 11 66566666665666",
"qqqq5qqqqqqq5q 11 qq56qqqqqq5qqq",
"eeee5eeqeeee5e 11 ee5eeeeeee5eee",
"55555555555555    55555555555555",
"56666666566666665666666656666666",
"569qqqqq56qqqqqq5qqqqqqe569qqqqq",
"5eeeeeee5eeeeeew5eeeeeee5eeeeeee"
};
