/* XPM */
static char *f3[] = {
/* columns rows colors chars-per-pixel */
"32 32 32 1",
"  c black",
". c #040404",
"X c #090909",
"o c gray6",
"O c #131313",
"+ c gray9",
"@ c #181818",
"# c #1D1D1D",
"$ c #232323",
"% c gray14",
"& c #282828",
"* c #07196E",
"= c #081A6E",
"- c #091C6E",
"; c #0C1E6F",
": c #0E2070",
"> c #182B79",
", c #4B4B4B",
"< c #545454",
"1 c #555555",
"2 c #565656",
"3 c gray34",
"4 c #585858",
"5 c #595959",
"6 c #5A5A5A",
"7 c gray36",
"8 c #AA735F",
"9 c #AB745F",
"0 c #AB7561",
"q c #AC7663",
"w c #AD7764",
"e c #AD7864",
/* pixels */
",,,,,,,,,,,,,,,,,,,,,,,,,,,,,,,,",
"<<<<,<<<<<<<,<<<<<<<,<<<<<<<,<<<",
"5555,5555555,5<55755,5<55555,555",
"7777,7757777,7777777,7777777,775",
",,,,,,,,,,,,,,,,,,,,,,,,,,,,,,,,",
",<<<<<<<,<<<.........<<<,<<<<<<<",
",<555555,<<....OO@#%%.55,<555555",
",7777777,5......oO@#$%.5,7777777",
",,,,,,,,,.......XoOO#%%.,,,,,,,,",
"<<<<,<<<<........XOO@@$.<<<<,<<<",
"5557,<55<..........OOO@.5555,<55",
"7777,7775..........XOOO.7777,777",
",,,,,,,,,...............,,,,,,,,",
",<<<<<<<,<.8.........8.<,<<<<<<<",
",<555555,<5.888888888.55,<555775",
",7777777,557.........777,7777777",
",,,,,,,,,,,.-:--*--:*.,,,,,,,,,,",
"<<<<,<<<<<.8.---**--.8.<<<<<,<<<",
"5575,<55<5.8.*--*---.q.5<555,355",
"7777,77775.q8.:-*-;.88.66777,777",
",,,,,,,,,,.88.>>>>>.88.,,,,,,,,,",
",<<<<<<<,<<...**--*...<<,<<<<<<<",
",4555557,<<43.-=.**.<555,<555557",
",7777777,7775.=-.**.7777,7777777",
",,,,,,,,,,,,,.--.-*.,,,,,,,,,,,,",
"<<<<,<<<<<<<,.-*.*-.,<<<<<<<,<<<",
"5555,<555556,.*=.=*.,<556555,355",
"7777,7777777,.......,7777777,777",
",,,,,,,,,,,,,,,,,,,,,,,,,,,,,,,,",
",<<<<<<<,<<<<<<<,<<<<<<<,<<<<<<<",
",4455575,<555555,3<<5555,<555556",
",7777777,7777777,7777777,7777777"
};
