/* XPM */
static char *f4[] = {
/* columns rows colors chars-per-pixel */
"32 32 40 1",
"  c black",
". c #060606",
"X c #0C0C0C",
"o c #131313",
"O c #191919",
"+ c #2A1C16",
"@ c #2A1C17",
"# c #202020",
"$ c gray15",
"% c #2D2D2D",
"& c gray20",
"* c #393939",
"= c #0B1E6F",
"- c #0C1E6F",
"; c #0E2071",
": c #102272",
"> c #112474",
", c #152977",
"< c #172A78",
"1 c #182B79",
"2 c #54382E",
"3 c gray25",
"4 c #464646",
"5 c #4B4B4B",
"6 c #545454",
"7 c #555555",
"8 c #565656",
"9 c gray34",
"0 c #585858",
"q c #595959",
"w c #5A5A5A",
"e c gray36",
"r c #A76F5A",
"t c #A86F5A",
"y c #A8705B",
"u c #A9715D",
"i c #AB745F",
"p c #AB7561",
"a c #AC7662",
"s c #AE7A66",
/* pixels */
"55555555555555555555555555555555",
"66665666666656666666566666665666",
"qqqq5qqqqqqq5q6qqeqq5qqqqqqq59qq",
"eeee5eeqeeee5eeeeeee5eeeeeee5eeq",
"55555555555555555555555555555555",
"5666666656666         6656666666",
"5q6qqqqq5q6q 44*&$#OoX q56qqqqqw",
"5eeeeeee5ee %$OOo.      5eeeeeee",
"5555555555 o             5555555",
"6666566666 itti          6665666",
"qqqe56qqqq iirpt         qqq59qq",
"eeee5eeeee @   2i        eee5eee",
"5555555555 r@ @ri        5555555",
"5666666656 ttiippi      56666666",
"56qqqqqq56q tiaspi     q569qqeqw",
"5eeeeeee5eee          ee5eeeeeee",
"55555555555555 ==== 555555555555",
"66665666666656  = = 566666665666",
"qqeq56qqeeqq56  s - 56qqweqq56qq",
"eeee5eeeeeee5  si ; 5eweeeee5eee",
"5555555555555 ii :: 555555555555",
"5666666656666   >>> 66665666666q",
"5qqqqeqq56qqqq 1111 qqqq56qqqqqq",
"5eeeeeee5eeeeee ,, eeeee5eeeeeee",
"555555555555555 11 5555555555555",
"666656666666566 11 6566666665666",
"qqqq59qqqqqq5qq 11 w56qqqqqq5qqq",
"eeee5eeqeeee5ew 11 e5eeeeeee5eee",
"555555555555555    5555555555555",
"56666666566666665666666656666666",
"56qqqqqq59qqqqqw56qqqqqw569qqqqq",
"5eeeeeee5eeeeeee5eeeeeee5eeeeeee"
};
