/* XPM */
static char *opps[] = {
/* columns rows colors chars-per-pixel */
"32 32 149 2",
"   c black",
".  c #000103",
"X  c #020202",
"o  c #050505",
"O  c #060504",
"+  c #01040F",
"@  c #0B0B0B",
"#  c #0D0D0D",
"$  c #0C0C0E",
"%  c #0F0F0F",
"&  c #020512",
"*  c #040714",
"=  c #100E0D",
"-  c #121212",
";  c #151515",
":  c #171615",
">  c #171616",
",  c #1E1816",
"<  c #1F1917",
"1  c #181818",
"2  c #1A1919",
"3  c gray10",
"4  c gray11",
"5  c gray12",
"6  c #030921",
"7  c #231D1A",
"8  c #241D1A",
"9  c #251E1B",
"0  c #201C25",
"q  c #211D26",
"w  c #232323",
"e  c #272321",
"r  c #252525",
"t  c #282321",
"y  c #2A2321",
"u  c #2B2421",
"i  c #2A2422",
"p  c #2D2421",
"a  c #2A2A2A",
"s  c #302723",
"d  c #312824",
"f  c #362C27",
"g  c #373736",
"h  c #373737",
"j  c #393938",
"k  c #3A3939",
"l  c gray24",
"z  c #3E3F3C",
"x  c #3F3F3F",
"c  c #06144D",
"v  c #08154D",
"b  c #06155B",
"n  c #07165C",
"m  c #0D1951",
"M  c #0F1A52",
"N  c #08185C",
"B  c #09195D",
"V  c #09195F",
"C  c #0B1B5E",
"Z  c #07196D",
"A  c #0C1C61",
"S  c #081A6E",
"D  c #091B6E",
"F  c #091C6E",
"G  c #0A1D6F",
"H  c #0B1D6F",
"J  c #0B1E6F",
"K  c #0D1D6A",
"L  c #0C1E6C",
"P  c #0D1F6D",
"I  c #0C1E6F",
"U  c #0B1E70",
"Y  c #0D1F70",
"T  c #0D2070",
"R  c #122263",
"E  c #12246D",
"W  c #142776",
"Q  c #152877",
"!  c #162978",
"~  c #27355F",
"^  c #28345E",
"/  c #29355E",
"(  c #423531",
")  c #433631",
"_  c #4A3B36",
"`  c #414141",
"'  c #424140",
"]  c #434141",
"[  c #454544",
"{  c #474747",
"}  c #484548",
"|  c gray29",
" . c #4B4B4B",
".. c #484A4E",
"X. c #484C4E",
"o. c #4D4A49",
"O. c #4C4C4B",
"+. c #4C4E4B",
"@. c #4C4C4C",
"#. c #4D4D4D",
"$. c #4E4E4D",
"%. c #4F4F4F",
"&. c #4C4E52",
"*. c #4E504D",
"=. c #50504F",
"-. c #515151",
";. c #535353",
":. c #555555",
">. c #575757",
",. c #595959",
"<. c #5D5959",
"1. c gray36",
"2. c #635D5B",
"3. c #7A635A",
"4. c #7F665D",
"5. c #80675E",
"6. c #96786D",
"7. c #97796E",
"8. c #987A6F",
"9. c #997A6F",
"0. c #987A71",
"q. c #987B70",
"w. c #997B70",
"e. c #997C73",
"r. c #9A7C71",
"t. c #9B7E73",
"y. c #999022",
"u. c #B3A621",
"i. c #A28175",
"p. c #A48479",
"a. c #B28F81",
"s. c #B59184",
"d. c #B59284",
"f. c #B69285",
"g. c #B69385",
"h. c #B79386",
"j. c #B79486",
"k. c #B79587",
"l. c #BB9688",
"z. c #BC9789",
"x. c #BD998B",
"c. c #D1A899",
"v. c #D3A99A",
"b. c #D5AC9D",
"n. c #D5AD9D",
"m. c #D8AE9E",
"M. c #D9AE9E",
"N. c #DBB1A1",
"B. c #DCB2A2",
/* pixels */
"@.@. .@.@. . . .@.@.@.@. .@.@.@.@.@.@.@. . . . . . .@.@.@.@.@.@.",
";.;.;.,.@.;.;.;.;.;.;.>. .;.;.;.;.;.;.;. .;.;.;.;.;.;.;.O.;.;.;.",
",.1.1.1.@.;.,.,.1.1.1.1. .;.,.1.1.1.1.1.@.,.1.1.,.1.1.1.@.;.,.,.",
"1.1.1.1.;.1.,.,.1.1.1.1.@.,.1.1.1.1.1.1.@.1.1.1.1.1.1.1.@.1.1.1.",
"@.@.X.@.@.@.@.@.@.@.@.@.x x x x [ x x x [ { @.@. . .@.@.@.@.@.@.",
"@.@.;.;.;.;.;.;.@.;.;.;.@ # @ # # # # # 1 [ ;.;. .;.;.;.;.;.;.,.",
"@.,.1.1.1.1.1.1.@.;.x @ @ @ ; 1 w a h j h - @.,.@.,.1.1.1.1.1.1.",
"@.,.2.1.1.1.1.1.%.,.@ X X O O O @ ; 5 r a r 1 ;.@.,.1.1.1.1.1.1.",
" .%.@.@.@.@.@.@.x # O , 8 8 8 8 8 7 8 8 8 8 @ X @.@.@.@.@.@.@.@.",
";.;.;.;.@.;.;.;.[ # , 7.s.s.f.f.s.s.s.s.s.s.X X ;.;.;.;.@.;.;.;.",
"1.1.,.1. .;.,.1.@.# ) z.f.f.f.f.a.s.s.s.l.c., O 1.1.1.1.@.;.,.1.",
"1.1.1.1.;.,.1.,.@.# x.n.8 8 8 8 3.f 8 8 ) l.6., 1.1.1.1.@.1.1.1.",
"@.@. . . .@.;. .[ 1 x.m.7.d d 7.N.p.8 8 i.M.7.e @.X.@.@.@.@.@.@.",
"@.;.;.;.;.;.;.;. .{ ) z.c.l.z.n.N.N.f.f.M.M.p [ @.%.;.;.;.;.;.,.",
"@.;.,.1.1.1.1.1.@.;.;.4 f.f.f.4._ 5.l.g.r.i 1.1.@.,.1.1.1.1.1.1.",
";.,.1.1.1.1.1.1.@.,.,.%.8 8 7 8 8 8 8 7 p } 1.,.;.;.2.1.1.1.1.1.",
"@.@.@.@. .O.O. .X. .k e N L G G K ^ ~ E m 0 [  . . .@.@.@.@.@.@.",
";.;.:.;. .;.;.;.:.;.e 8.6 A D D ^ u.y.~ 0 r.; { ;.;.;.;. .*.;.;.",
"1.,.1.1. .:.1.,.,.1.9 l.q m T G Z H P A ) x.# O.,.1.1.1.@.>.,.,.",
"1.1.1.1.@.,.1.1.<.1.5 k.e.0 T P H Z A 6 z.n.% @.1.1.1.1.;.1.1.1.",
"@.O.O.@.X.O.O. .*.O.i i.8., ! Q W W R * k.l.1 [ @.@.@.@. . .X.O.",
"@.;.;.;.;.>.:.:.O.%.' e , o T P U U C & 7 7 @.;.@.@.;.;.;.;.;.;.",
"@.;.,.,.1.1.,.1. .>.,.,.X.$ T Z & b b & ,.1.1.1.=.;.1.1.1.1.,.1.",
"%.1.1.1.1.1.1.1.*.1.1.1.&.$ Z S & N b & 1.1.1.1.;.1.1.1.1.2.1.1.",
"@.@.@.@.@. . . . . .@.@._ $ L L & B B &  . .@.@. .@.@.@.X. .O.O.",
";.;.;.,. .;.;.;.;.:.;.;.x % L L & B B &  .;.;.;.;.;.;.;.@.;.=.;.",
",.1.1.1.@.;.,.,.1.1.1.1./ = m B + c c +  .;.1.,.1.1.1.1.=.;.1.,.",
"1.1.1.1.%.1.1.1.1.1.1.1._ @ + * X + & . @.,.1.1.1.1.1.1.@.1.1.1.",
"@.O.@.@.@.@.@.@. . . . .@.@.O.@. . . . .O.@.@.@... . . .@.@.@.=.",
"@.;.;.;.:.;.;.;. .;.;.;.;.;.;.;. .;.;.;.;.,.;.;.@.;.;.;.;.;.;.;.",
"@.;.1.1.1.1.1.1.@.>.1.1.,.1.1.1.@.>.;.1.1.1.1.1.@.;.1.1.1.1.1.1.",
"@.,.1.1.1.1.1.1.@.1.1.1.1.1.1.1.;.1.1.1.1.1.1.1.X.1.2.1.1.1.1.1."
};
