/* XPM */
static char *opps[] = {
/* columns rows colors chars-per-pixel */
"32 32 165 2 ",
"   c #010101",
".  c #000103",
"X  c #020202",
"o  c #030303",
"O  c #040404",
"+  c #060504",
"@  c #060505",
"#  c #060606",
"$  c #01040F",
"%  c #0B0B0B",
"&  c #0C0C0C",
"*  c #0D0D0D",
"=  c #0E0E0E",
"-  c #0F0F0F",
";  c #020410",
":  c #010412",
">  c #010512",
",  c #020512",
"<  c #020513",
"1  c #040714",
"2  c #101010",
"3  c #121212",
"4  c #161616",
"5  c #1E1816",
"6  c #1F1917",
"7  c #181818",
"8  c #191919",
"9  c #1A1A1A",
"0  c #1B1B1B",
"q  c #241D1A",
"w  c #241D1B",
"e  c #251D1B",
"r  c #251E1B",
"t  c #040922",
"y  c #201C25",
"u  c #201D25",
"i  c #201D26",
"p  c #202020",
"a  c #232323",
"s  c #252525",
"d  c #272727",
"f  c #292320",
"g  c #292321",
"h  c #2A2422",
"j  c #2A2522",
"k  c #2B2522",
"l  c #2D2522",
"z  c #2B2B2B",
"x  c #312723",
"c  c #312724",
"v  c #362B27",
"b  c #363636",
"n  c #373737",
"m  c #393939",
"M  c #3B3939",
"N  c #3E3E3E",
"B  c #3F3F3F",
"V  c #433530",
"C  c #433631",
"Z  c #493B36",
"A  c #06134C",
"S  c #09154D",
"D  c #0D1951",
"F  c #0F1A52",
"G  c #06155B",
"H  c #06165B",
"J  c #08175C",
"K  c #08185C",
"L  c #09185D",
"P  c #0A195D",
"I  c #0B1A5E",
"U  c #0A1A5F",
"Y  c #29355E",
"T  c #2A365E",
"R  c #0C1B60",
"E  c #07196D",
"W  c #0D1E6A",
"Q  c #081A6E",
"!  c #091B6E",
"~  c #091C6E",
"^  c #091C6F",
"/  c #0A1D6F",
"(  c #0B1D6F",
")  c #0B1E6F",
"_  c #0D1F6C",
"`  c #0D1E6D",
"'  c #0C1E70",
"]  c #0C1F70",
"[  c #0D1F70",
"{  c #122264",
"}  c #13246D",
"|  c #0D2071",
" . c #152876",
".. c #162877",
"X. c #162977",
"o. c #283560",
"O. c gray25",
"+. c #414040",
"@. c #414141",
"#. c #434141",
"$. c #424242",
"%. c #454545",
"&. c #474747",
"*. c #484544",
"=. c #494949",
"-. c #4A4A4A",
";. c #4B4B4B",
":. c #4C4C4C",
">. c #4D4D4D",
",. c #4E4E4E",
"<. c #4F4F4F",
"1. c #505050",
"2. c #515151",
"3. c #525252",
"4. c #535353",
"5. c #545454",
"6. c #555555",
"7. c #565656",
"8. c #575757",
"9. c #585858",
"0. c #595959",
"q. c #5A5A5A",
"w. c #5B5B5B",
"e. c #5C5C5C",
"r. c #5D5D5D",
"t. c #5E5E5E",
"y. c #7F665C",
"u. c #7F665D",
"i. c #80675E",
"p. c #97796E",
"a. c #977A6F",
"s. c #997A6E",
"d. c #977A71",
"f. c #997B70",
"g. c #9A7B70",
"h. c #997C73",
"j. c #9B7E73",
"k. c #9A9122",
"l. c #B3A722",
"z. c #A38276",
"x. c #A38377",
"c. c #B59082",
"v. c #B59183",
"b. c #B59184",
"n. c #B59284",
"m. c #B69284",
"M. c #B69285",
"N. c #B69385",
"B. c #B79386",
"V. c #B79487",
"C. c #B79587",
"Z. c #BC9587",
"A. c #B79588",
"S. c #BB9688",
"D. c #BC978A",
"F. c #BD998B",
"G. c #D3A99A",
"H. c #D4A999",
"J. c #D6AC9D",
"K. c #D6AD9E",
"L. c #D9AE9D",
"P. c #D9AE9E",
"I. c #DBB0A0",
"U. c #DBB1A1",
"Y. c #DBB2A3",
/* pixels */
":.:.:.:.;.:.:.:.;.:.:.:.;.:.;.:.:.:.:.:.;.:.:.;.:.:.:.:.;.;.:.:.",
"4.5.4.4.:.4.4.4.4.4.5.4.:.4.4.4.4.4.4.5.:.4.4.4.4.4.4.4.:.4.4.4.",
"q.q.q.r.:.5.5.q.q.q.e.e.:.5.q.q.q.e.q.q.:.8.q.q.q.q.q.e.:.5.q.q.",
"r.r.r.r.4.q.r.r.r.r.r.t.:.q.r.r.r.r.r.r.:.q.r.r.r.r.r.r.:.q.r.r.",
":.:.:.;.:.:.:.:.;.:.:.:.B N N N N B N O.O.;.:.:.;.;.;.;.:.:.:.:.",
":.:.4.4.4.4.4.4.;.4.4.4.= & = = = = & = 9 &.5.5.;.4.4.4.5.4.5.5.",
":.q.q.q.q.q.q.r.<.5.N = % = 4 9 a z b m b 3 :.8.:.9.q.q.q.e.e.q.",
":.q.r.r.r.r.r.r.:.q.& X o o + + = 4 p s z s 0 4.:.q.r.r.r.r.r.r.",
":.:.:.:.:.:.:.:.O.= + 5 r r r r r r r r r r = X :.:.:.:.;.;.:.;.",
"4.4.5.5.:.:.5.5.%.= 5 p.n.n.B.b.x.c.c.b.b.b.X X 4.5.5.5.:.4.4.4.",
"q.q.q.q.:.q.q.q.:.= V F.b.b.n.b.Z.M.b.b.Z.H.5 + q.e.q.e.:.5.q.q.",
"r.r.r.r.:.q.r.r.:.= F.J.r r r r i.v r r V Z.p.5 r.r.r.r.:.q.r.r.",
":.:.:.:.:.:.:.:.O.9 F.J.d.c c f.U.x.r r z.P.s.j ;.:.:.;.:.:.:.:.",
":.4.4.5.4.4.5.5.;.;.V F.G.S.F.J.U.U.M.M.P.P.j O.:.<.4.4.5.5.5.5.",
":.5.q.q.q.q.q.r.:.5.:.9 n.b.b.y.Z y.Z.B.f.j e.e.:.8.q.q.q.e.q.e.",
":.q.r.r.r.r.r.r.:.q.q.4.r r r r r r r r l *.r.t.:.q.r.r.r.r.r.r.",
":.:.:.;.;.;.:.;.;.;.m j U ) / / W Y o.} D i O.;.;.:.;.;.;.:.:.:.",
"4.4.4.5.;.4.4.4.4.4.j f.t U / / Y l.k.o.i d.9 %.4.4.4.4.:.<.4.4.",
"e.q.e.e.:.5.q.q.q.e.r B.y D | ' Q / _ U V F.= ;.q.e.q.e.<.5.q.q.",
"r.r.t.t.:.q.r.r.e.r.r S.f.y _ / / / R t F.J.2 <.r.r.r.r.<.q.r.r.",
";.;.:.:.:.:.:.:.;.;.j z.s.q ........{ 1 Z.B.9 O.;.;.;.;.:.:.:.:.",
";.4.4.4.4.4.4.5.;.4.+.a 5 @ ] / ] ) I , r r &.4.<.<.4.4.4.4.4.4.",
":.5.q.q.q.e.q.e.:.5.q.q.;.2 / E , G G , q.q.e.e.:.8.q.q.q.e.e.e.",
"<.q.r.e.r.r.r.r.<.q.r.e.:.= Q / , U G , r.r.r.r.:.q.e.r.r.r.r.r.",
":.:.:.:.;.:.:.:.;.:.:.:.B = / / , K U , ;.:.:.;.:.<.;.:.;.:.:.:.",
"4.4.4.5.:.1.4.4.4.4.5.5.N = ) / , K K , :.1.4.4.4.4.4.4.:.<.4.4.",
"q.q.q.e.:.5.q.q.e.q.q.e.B = J K $ S A $ :.8.q.9.e.q.e.e.:.8.q.q.",
"r.r.r.r.<.q.r.r.r.r.r.r.B = , , X $ , X :.q.r.r.r.r.r.r.<.q.e.e.",
";.;.;.;.:.:.:.:.;.;.:.:.:.:.:.:.;.;.;.:.:.:.:.:.;.;.:.;.:.:.:.:.",
";.4.4.4.5.4.5.5.;.4.4.4.4.4.4.5.;.4.4.4.4.4.4.5.:.4.4.4.4.4.4.5.",
":.5.q.q.q.e.e.q.:.8.q.q.q.q.e.q.:.5.9.q.q.e.q.e.:.5.q.9.q.e.e.e.",
"<.q.r.r.r.r.r.r.:.q.r.r.r.r.r.r.1.q.r.r.r.r.r.r.<.q.r.r.r.r.r.r."
};
