/* XPM */
static char *p1[] = {
/* columns rows colors chars-per-pixel */
"32 32 187 2 ",
"   c #010101",
".  c #020202",
"X  c #030303",
"o  c #060301",
"O  c #050303",
"+  c #040404",
"@  c #060606",
"#  c #0B0B0B",
"$  c #0C0C0C",
"%  c #0D0D0D",
"&  c #0E0E0E",
"*  c #0F0F0F",
"=  c #1C0E03",
"-  c #1D0F03",
";  c #18100D",
":  c #18110E",
">  c #1C120F",
",  c #1C130F",
"<  c #101010",
"1  c #111111",
"2  c #161616",
"3  c #1C1310",
"4  c #1D1310",
"5  c #1D1410",
"6  c #1D1411",
"7  c #181818",
"8  c #191919",
"9  c #1A1A1A",
"0  c #1B1B1B",
"q  c #221102",
"w  c #221103",
"e  c #221204",
"r  c #231204",
"t  c #251407",
"y  c #221B18",
"u  c #231B18",
"i  c #241C19",
"p  c #241D1A",
"a  c #251D1A",
"s  c #331E12",
"d  c #331F12",
"f  c #341E10",
"g  c #3F2007",
"h  c #34231D",
"j  c #34241E",
"k  c #35241E",
"l  c #35251F",
"z  c #202020",
"x  c #232323",
"c  c #252525",
"v  c #262626",
"b  c #2B2B2B",
"n  c #363636",
"m  c #373737",
"M  c #393837",
"N  c #393939",
"B  c #3E3E3E",
"V  c #3F3F3F",
"C  c #403E3E",
"Z  c #403F3E",
"A  c gray25",
"S  c #414141",
"D  c #424242",
"F  c #454545",
"G  c #464544",
"H  c #474747",
"J  c #494949",
"K  c #4A4A4A",
"L  c #4B4B4B",
"P  c #4C4C4C",
"I  c #4D4D4D",
"U  c #4E4E4E",
"Y  c #4F4F4F",
"T  c #505050",
"R  c #515151",
"E  c #525252",
"W  c #535353",
"Q  c #545454",
"!  c #555555",
"~  c #565656",
"^  c #575757",
"/  c #585858",
"(  c #595959",
")  c #5A5A5A",
"_  c #5B5B5B",
"`  c #5C5C5C",
"'  c #5D5D5D",
"]  c #5E5E5E",
"[  c #764F41",
"{  c #774F41",
"}  c #7C5242",
"|  c #785244",
" . c #795344",
".. c #795345",
"X. c #7C5546",
"o. c #7B5648",
"O. c #8D450D",
"+. c #8F4910",
"@. c #914A11",
"#. c #924A10",
"$. c #A9530C",
"%. c #AA530D",
"&. c #A9530F",
"*. c #AA530E",
"=. c #AA540F",
"-. c #AA550F",
";. c #AA5410",
":. c #AB5712",
">. c #AC5813",
",. c #AE5A16",
"<. c #B05812",
"1. c #B05912",
"2. c #B15A13",
"3. c #B25C16",
"4. c #B86322",
"5. c #CA630D",
"6. c #CB640F",
"7. c #CC640F",
"8. c #CB6512",
"9. c #CB6612",
"0. c #CC6411",
"q. c #CC6511",
"w. c #CC6613",
"e. c #CD6713",
"r. c #C86616",
"t. c #C86717",
"y. c #CC6714",
"u. c #CF6916",
"i. c #CE6A17",
"p. c #CE6918",
"a. c #CF6A18",
"s. c #D06A17",
"d. c #D06B19",
"f. c #D06E1E",
"g. c #CE742A",
"h. c #CF762D",
"j. c #DD7728",
"k. c #D47C36",
"l. c #D57E37",
"z. c #8B5C4A",
"x. c #8C5D4B",
"c. c #8C5D4C",
"v. c #8E5E4E",
"b. c #8E5F4F",
"n. c #8E604F",
"m. c #91614F",
"M. c #8E6150",
"N. c #8F6151",
"B. c #8F6251",
"V. c #936251",
"C. c #906352",
"Z. c #906353",
"A. c #936352",
"S. c #926452",
"D. c #936553",
"F. c #946553",
"G. c #906354",
"H. c #906454",
"J. c #916554",
"K. c #916556",
"L. c #956654",
"P. c #946655",
"I. c #956656",
"U. c #956756",
"Y. c #966857",
"T. c #966858",
"R. c #A56E5A",
"E. c #A5705C",
"W. c #A6715E",
"Q. c #A8705B",
"!. c #A9705C",
"~. c #A9715C",
"^. c #AA715D",
"/. c #AA725D",
"(. c #AA725E",
"). c #AA735E",
"_. c #AA735F",
"`. c #A87461",
"'. c #AB7460",
"]. c #AB7561",
"[. c #A97563",
"{. c #A97663",
"}. c #AC7662",
"|. c #AD7763",
" X c #AE7965",
".X c #DDBDA3",
"XX c #F0D1B8",
/* pixels */
"P P P P P P P P P P P P P P P P P P P P P P P P P P P P P P P P ",
"Q Q Q Q P E Q E W W Q Q P E E W Q W Q Q P Q E E E Q W W P T E E ",
") ) ) ) P Q ) ) ) ) ) ' P Q ) ) ) ' ) ) P Q ) ) ) ) ) ' P Q ) ) ",
"' ' ' ' E ) ) ' ' ' ' ' P ) ' ' ' ' ' ' Y ) ' ' ' ' ' ' E ) ' ' ",
"P L P P P P P P P P P P B B C B B B B C S L P P P P P P P P P P ",
"P E Q E E Q Q E P E W W & & & & & & & & 8 F Q Q P E Q E E Q Q Q ",
"P Q ) ) ) ) ' ) Y Q B & # & 2 8 x b n N m 1 P ) P ) ) / ) ` ` ) ",
"P ) ' ' ' ' ' ' P ) # X X X @ @ & 2 z c b c 0 E P ) ' ' ' ' ' ' ",
"P P P P L P P P S & O ; 4 4 5 , , , , , , , # X P P T P P P P P ",
"Q Q Q Q P E E E F & ; [ b.n.C.b.z.c.c.b.b.b.X X W E Q E P E Q E ",
") ) ) ' P ) ) ) P * k P.(.(.F.E.Q.Q.A.E.Q.Q.; O ) ) ) ` P Q / ) ",
"' ' ' ' P ) ' ' P & T.{._.(.k A._./.h C.Q.(.[ ; ' ' ' ' E ) ' ' ",
"P P P P P P P P S 8 T.{.}.}.k P.}.}.h m.(.Q.[ a L P P P P P P P ",
"P E E E Q Q Q Q L H l P.(.(.F.{. X}.F.R.(.(.y C P E E E E E Q Q ",
"P Q ' ) ) ) ) ' P ) P 8 N.N.N.N.B.D.D.C. .a ) ) P Q ) ) ) ` ` ) ",
"P ) ' ' ' ' ' ' P ) ) E 4 4 , 4 5 5 5 5 a F ' ' E _ ' ' ' ' ' ' ",
"P P P P K P P P K P N i ,.9.w.w.9.h.k.a.#.f S L P P P P P P P P ",
"Q Q Q Q P E W E W W i  .g 2.w.9.h..XXXl.f } 8 H W W W W P Y W W ",
") ) _ _ P ^ ) ) ) ) 4 B.d #.p.0.6.9.t.2.k T.& L ) ) ) ` Y Q ) ) ",
"' ' ' ' Y ) ' ' ' ' 5 K.X.d u.u.0.9.3.g P.{.1 P ' ' ' ' P ) ' ' ",
"K P P P P P P P P P i o. .; j.j.j.j.4.t G.C.7 S P P P P P P P P ",
"P E W W W Q Q Q P E B p ; O d.p.u.u.,.w 4 4 L W P T W E Q Q Q Q ",
"P Q ) ) _ _ _ _ P Q ) ) P & 6.0.q $.$.w ) ) _ _ Y Q ) ) ) _ _ ` ",
"P ) ' ' ' ] ' ' E ) ' ' P & 0.w.q -.-.w ' ' ' ] Y ) ' ' ' ' ' ' ",
"P P P P P P P P P P P P V & w.0.w ;.:.e K P P P P P P P P P P P ",
"Q Q Q Q P E W W Q Q Q Q B & p.w.w $.>.e P E E E W Q Q Q P Y E W ",
"_ ) _ _ P Q ) ) _ ) ) ` B & ;.:.- #.O.- P ^ ) ) ) ) ) _ Y Q ) ) ",
"' ' ' ' P ) ' ' ' ' ' ' V & q w O - - O P ) ' ' ' ' ' ' P ) ' ` ",
"K P P P P P P P L P P P P P P P P P P P P P P P K P P P P P P P ",
"P E W E Q Q Q Q P E E E Q E Q Q P E E E W Q Q W P E W E Q Q Q Q ",
"P Q ) ) _ _ ' ) P / ) ) ) ) ' _ P Q ) ) _ _ _ ' Y Q ) ) ) _ ' _ ",
"P _ ' ' ' ' ' ' P ) ' ' ' ' ] ] P ) ' ' ' ' ' ' Y ) ' ' ' ' ' ' "
};
