/* XPM */
static char *p1[] = {
/* columns rows colors chars-per-pixel */
"32 32 151 2",
"   c black",
".  c gray1",
"X  c #050200",
"o  c #040302",
"O  c #060606",
"+  c #0B0B0B",
"@  c #0C0C0C",
"#  c #0D0D0D",
"$  c #0E0E0E",
"%  c #0F0F0F",
"&  c #1C0E02",
"*  c #1C0E03",
"=  c #17100D",
"-  c #18100D",
";  c #1C130F",
":  c #111111",
">  c #121212",
",  c #151413",
"<  c #151515",
"1  c #161616",
"2  c #1C1310",
"3  c #1D1411",
"4  c #181818",
"5  c gray10",
"6  c #1B1B1B",
"7  c gray11",
"8  c gray12",
"9  c #221103",
"0  c #221204",
"q  c #251407",
"w  c #221B18",
"e  c #231C19",
"r  c #241E1C",
"t  c #331E11",
"y  c #331E12",
"u  c #341E10",
"i  c #3E2006",
"p  c #3F2007",
"a  c #31221C",
"s  c #34241E",
"d  c #34241F",
"f  c #232323",
"g  c #252525",
"h  c #2A2A2A",
"j  c #373737",
"k  c #3A3736",
"l  c #393939",
"z  c #3D3D3D",
"x  c #3F3F3F",
"c  c #413F3F",
"v  c #414141",
"b  c #434343",
"n  c gray27",
"m  c #474747",
"M  c #4C4543",
"N  c #484848",
"B  c #494949",
"V  c gray29",
"C  c #4B4B4B",
"Z  c #4C4C4C",
"A  c #4D4D4D",
"S  c #4E4E4E",
"D  c #4F4F4F",
"F  c #524C4A",
"G  c #505050",
"H  c #515151",
"J  c gray32",
"K  c #535353",
"L  c #555555",
"P  c #575757",
"I  c #595959",
"U  c gray36",
"Y  c #764E40",
"T  c #775042",
"R  c #785244",
"E  c #795244",
"W  c #795245",
"Q  c #7A5446",
"!  c #7C5243",
"~  c #7D5547",
"^  c #8D460C",
"/  c #8E480F",
"(  c #92490F",
")  c #914911",
"_  c #A9530C",
"`  c #A9540E",
"'  c #AA540F",
"]  c #AB5611",
"[  c #AB5712",
"{  c #AB5713",
"}  c #AF5710",
"|  c #AD5915",
" . c #B05912",
".. c #B15A14",
"X. c #B25C15",
"o. c #B86321",
"O. c #8C5D4C",
"+. c #8D5E4D",
"@. c #8E5E4E",
"#. c #8E5F4E",
"$. c #8F6050",
"%. c #8F6150",
"&. c #8F6151",
"*. c #906252",
"=. c #906353",
"-. c #926251",
";. c #936352",
":. c #916454",
">. c #946453",
",. c #946555",
"<. c #956656",
"1. c #956757",
"2. c #956857",
"3. c #A46D5A",
"4. c #A76F5A",
"5. c #A6705C",
"6. c #A6705D",
"7. c #A8705B",
"8. c #A9705C",
"9. c #A9715D",
"0. c #AA715D",
"q. c #AA725E",
"w. c #A87461",
"e. c #A97563",
"r. c #AB7460",
"t. c #AC7561",
"y. c #AC7662",
"u. c #AD7763",
"i. c #AE7966",
"p. c #CB630E",
"a. c #CB630F",
"s. c #CB6411",
"d. c #CB6613",
"f. c #C86616",
"g. c #C96616",
"h. c #CC6512",
"j. c #CC6613",
"k. c #CD6815",
"l. c #CE6916",
"z. c #CE6917",
"x. c #CF6917",
"c. c #CE6918",
"v. c #D16B19",
"b. c #D06E1F",
"n. c #CE752B",
"m. c #DB7526",
"M. c #DD7728",
"N. c #D37B34",
"B. c #D47D36",
"V. c #DCBDA3",
"C. c #EFD0B7",
/* pixels */
"Z Z C Z Z C C C Z D C D C C C C C C C C C C C C C D Z Z Z D C C ",
"K K K I Z K K K K K K K C K K K K K K K C D K D D K K K C D K K ",
"I U U U Z I I I U U U U C K I U U U U U C I I U U U U U C I I I ",
"U U U U Z I I I U U U U C I U U U U U U C U U U U U U U C U U U ",
"Z Z Z Z Z Z Z Z C C C C z z z z b x x z v N C C C C C C C C D C ",
"Z K K K K K K K C C K K + % + % @ @ % @ 4 N I K C K K K K K I D ",
"Z I U U U U U U C I z + + % , 6 g h j l l : Z I D K U U U U I I ",
"K K U U U U U U D I + o o o O O @ 1 8 g h g 6 D Z U U U U U U U ",
"Z Z Z Z Z Z Z Z v % o = ; ; ; ; 2 2 ; ; 2 2 @ o C Z D C C C C C ",
"K K K K Z Z K K n % = Y +.$.$.$.O.+.+.#.O.O.o o K K K I C D K K ",
"U U I U Z I I U C % s >.q.q.>.6.4.8.;.4.q.4.= o U U I U C P I I ",
"U U U U Z U U U F % 1.e.q.q.s ;.q.q.a =.4.q.Y = U U U U D U U U ",
"K C Z Z Z Z Z Z v 1 1.e.u.u.s >.y.e.a ;.q.4.T w C C C C C C C Z ",
"C K K K K K K I C C d >.q.q.>.e.i.y.-.3.q.q.w c C D K I K K K K ",
"C K I U U U U U C I Z 7 $.$.$.$.:.=.=.;.R e I U C I U U U U U U ",
"Z I U U U U U U C K I K ; ; 3 3 ; ; ; ; r M U U K K U U U U U U ",
"Z Z Z Z C C Z Z C C k w  .g.h.h.g.n.N.b.) u v C C C Z Z C Z Z Z ",
"K K K I C K K K K K w R p ..h.h.n.V.C.B.y ! 1 N K K K K Z G K K ",
"U I U U C K U U I I 3 >.y ) l.h.p.h.g. .d 1.% C U U U U Z K U I ",
"U U U U Z I U U U U 3 :.W y l.l.p.h.X.p >.e.% Z U U U U K U U U ",
"Z Z Z Z Z Z Z Z Z Z r ~ R = M.m.M.M.o.q ;.$.4 v C C Z Z Z C C C ",
"Z K K K K P K K Z K c e = o c.c.x.x.| 9 ; ; C P C K K K K K K K ",
"Z P I I U U U U Z P I I C % a.a.9 ` _ 9 I U U U Z P U U U U U U ",
"Z U U U U U U U D U U U Z % s.h.9 ` ` 9 U U U U Z I U U U U U U ",
"Z Z Z Z C C C C Z Z Z G c % h.s.9 ' [ 9 C C C C Z Z F Z C C C C ",
"K K K I C K K K K K K K z % l.s.9 ' { 9 C D K K K K K K C D K K ",
"U U U U Z K I I U U U U z % ' [ * / ^ * C I U I U U U U C I I I ",
"U U U U D U U U U U U I z @ 9 9 o * * o C I U U U U U U Z U U U ",
"Z Z Z Z Z Z Z Z C C C C Z Z Z Z C C C C C C C C C C Z Z C C C D ",
"Z K K K K K K K Z K K K K K K P C K K G K I K K C K K K K K K K ",
"Z I U U U U U U Z P U U I U U U Z K I I U U U U Z I U U U U U U ",
"Z P U U U U U U Z U U U U U U U D U U U U U U I D I U U U U U U "
};
