/* XPM */
static char *p2[] = {
/* columns rows colors chars-per-pixel */
"32 32 125 2 ",
"   c black",
".  c #020202",
"X  c #030303",
"o  c #060301",
"O  c #050303",
"+  c #040404",
"@  c #070605",
"#  c #060606",
"$  c #0B0B0B",
"%  c #0C0C0C",
"&  c #0D0D0D",
"*  c #0E0E0E",
"=  c #0F0F0F",
"-  c #1D0F03",
";  c #18100D",
":  c #18110E",
">  c #1C130F",
",  c #101010",
"<  c #121212",
"1  c #161616",
"2  c #1C1310",
"3  c #1D1410",
"4  c #1D1411",
"5  c #181818",
"6  c #191919",
"7  c #1A1A1A",
"8  c #1B1B1B",
"9  c #1C1C1C",
"0  c #1F1F1F",
"q  c #221104",
"w  c #231204",
"e  c #231305",
"r  c #241305",
"t  c #2C1D13",
"y  c #2C1E13",
"u  c #251D1A",
"i  c #3F2007",
"p  c #34231C",
"a  c #232323",
"s  c #252525",
"d  c #272727",
"f  c #2A2A2A",
"g  c #2B2B2B",
"h  c #353535",
"j  c #373737",
"k  c #393939",
"l  c gray24",
"z  c #3F3F3F",
"x  c #41230A",
"c  c gray25",
"v  c #414141",
"b  c #424242",
"n  c #434343",
"m  c #474442",
"M  c #444444",
"N  c #454545",
"B  c #464646",
"V  c #474747",
"C  c #484848",
"Z  c gray29",
"A  c #4B4B4B",
"S  c #4C4C4C",
"D  c #4D4D4D",
"F  c #4E4E4E",
"G  c #4F4F4F",
"H  c #505050",
"J  c #515151",
"K  c #525252",
"L  c #535353",
"P  c #545454",
"I  c #555555",
"U  c #565656",
"Y  c #575757",
"T  c #585858",
"R  c #595959",
"E  c #5A5A5A",
"W  c #5B5B5B",
"Q  c #5C5C5C",
"!  c #5D5D5D",
"~  c #5E5E5E",
"^  c #754F40",
"/  c #764F41",
"(  c #785042",
")  c #795547",
"_  c #8F490F",
"`  c #AB5712",
"'  c #AC5813",
"]  c #AF5A16",
"[  c #B15A12",
"{  c #B15C19",
"}  c #B25D1B",
"|  c #B8611B",
" . c #BA631E",
".. c #9E5721",
"X. c #C76514",
"o. c #D16E20",
"O. c #DD7729",
"+. c #DE782A",
"@. c #E07A2B",
"#. c #E07A2C",
"$. c #8C5D4B",
"%. c #8D5D4C",
"&. c #8C5E4C",
"*. c #8D5E4C",
"=. c #8D5E4D",
"-. c #8E5F4E",
";. c #8E604E",
":. c #8E614F",
">. c #91604E",
",. c #91614F",
"<. c #8F6250",
"1. c #8F6352",
"2. c #926150",
"3. c #926251",
"4. c #936251",
"5. c #906453",
"6. c #A46D59",
"7. c #A56E5A",
"8. c #A6705D",
"9. c #A8705B",
"0. c #A9705B",
"q. c #AA715D",
"w. c #AA725E",
"e. c #AA735F",
"r. c #AB7460",
/* pixels */
"S S S S A S S S S S S S S S S S S S S S S S S S S S S S S S S S ",
"P P P P S K P K K K P P S K P K P K P P S K K K K P P K S K K K ",
"E E E E S K E E E E E ! S P E E E E E E S P E E E E E ! S P E E ",
"! ! ! ! K E ! ! ! ! ! ~ S E ! ! ! ! ! ! K E ! ! ! ! ! ! S E E ! ",
"S S S S S S S S S S S S l l l l v v l l v A S S S S S S S S S S ",
"S S P K K K P P S P P P * * * * * * $ * 6 N K P S K K K P P P P ",
"S E E E E ! E E S P l * $ , 1 6 a f h k k , S E S P E E E ! ! E ",
"S E ! ! ! ! ! ! S E *   #   # # * 1 0 s f s 0 K S ! ! ! ! ! ! ! ",
"S S S S A S S S v *                   > > > u # S S S S S S S S ",
"K P P P K S K K N *                 > ^ -.$.( ; K P P P S K K P ",
"E E E E S E E E A *             O > q.e.,.6.-.> E ! E E S P E E ",
"! ! ! ! S E ! ! S ,             ; ^ 0.9.p ,.-.> ! ! ! ! S E ! ! ",
"S S S S S S S S v 6             p ,.7.q.p ,.$.> S S S S S S S K ",
"S K P K K P K P A N             2.8.r.q.2.6.$.> S S K K P P K K ",
"S P E E E ! E ! S E S 6         -.1.5.1.-.-.0 S S E E E E ! E ! ",
"S E ! ! ! ! ! ! S ! E K         > 3 3 3 > > K E S E ! ! ! ! ! ! ",
"S S S S A A S S S S S S A S q ` [ X._ - S S S S S S S S A S S S ",
"P L P L S K L L L L L L S K q ` i [ - O S K K L K P L P S S L P ",
"E E E W S P E E E W E E S P q ' 3 1.>   v P E E E E E ! H P E E ",
"! ! ! ! K E ! ! ! ! ! ! K E q ] 3 ;.) > 8 S ! ! ! ! ! ! S E ! ! ",
"S A S S S S S S S S S S S S e } | x ;.1.* l S S A S S S S S S S ",
"S K L K L L L P S K L L L P r } o. .2 3 * N P P S K K K P P P P ",
"S P W E E W E E S P E E E E y ..+.#...y E W W ! S P E E E ! E W ",
"K E ! ! ! ! ! ! G E ! ! ! ! m y +.+.y m ! ! ! ! G W ! ! ! ~ ! ! ",
"S S S S S A S S S S S S S S v * @.#.* v A A S S S S S S S S S S ",
"K L L P S K L K L P P L S K N * @.#.* N S K K K L P P K S G K K ",
"E E E E S P E E E W E ! S P S , #.#.* S S P E E E E E Q K P E E ",
"! ! ! ! G E ! ! ! ! ! ! S E S , #.#.* S K E ! ! ! ! ! ! S E ! ! ",
"S A S S S S S S A S S S S S v 1 * * 6 N S S S S A S S S S S S S ",
"S K P L L L P P S K K K P K K A v N N K L K P P S K K K P L P L ",
"S P E E E ! W W S Y E E E E ! E S P E E E ! W E S P E E E W E ! ",
"G E ! ! ! ~ ! ! S E ! ! ! ! ~ ~ S E ! ! ! ! ! ! K E ! ! ! ! ! ! "
};
