/* XPM */
static char *p2[] = {
/* columns rows colors chars-per-pixel */
"32 32 126 2",
"   c black",
".  c #020202",
"X  c gray1",
"o  c #050300",
"O  c #050303",
"+  c #050505",
"@  c #070605",
"#  c #060606",
"$  c #0B0B0B",
"%  c #0C0C0C",
"&  c #0D0D0D",
"*  c #0E0E0E",
"=  c gray6",
"-  c #1C0E03",
";  c #17100D",
":  c #18100D",
">  c #18110E",
",  c #1C120F",
"<  c #1C130F",
"1  c #101010",
"2  c #121212",
"3  c #151515",
"4  c #1C1310",
"5  c #1D1411",
"6  c #181818",
"7  c #1A1A1A",
"8  c gray11",
"9  c gray12",
"0  c #221103",
"q  c #221104",
"w  c #231205",
"e  c #251D1A",
"r  c #2B1D12",
"t  c #2C1E13",
"y  c #2D1F16",
"u  c #3F2006",
"i  c #3F230D",
"p  c #34221C",
"a  c #222222",
"s  c gray14",
"d  c #272727",
"f  c #292929",
"g  c #2B2B2B",
"h  c #353535",
"j  c #373737",
"k  c #383838",
"l  c #3C3C3C",
"z  c #3E3E3E",
"x  c #3F3F3F",
"c  c #754E3F",
"v  c #404040",
"b  c #414141",
"n  c #424242",
"m  c #464341",
"M  c #474442",
"N  c #444444",
"B  c #454545",
"V  c #464646",
"C  c #474747",
"Z  c #484848",
"A  c #494949",
"S  c gray29",
"D  c #4B4B4B",
"F  c #4C4C4C",
"G  c #4D4D4D",
"H  c #4E4E4E",
"J  c #4F4F4F",
"K  c #505050",
"L  c #515151",
"P  c #525252",
"I  c #535353",
"U  c #545454",
"Y  c #555555",
"T  c #565656",
"R  c #575757",
"E  c #585858",
"W  c #595959",
"Q  c #5A5A5A",
"!  c #5B5B5B",
"~  c #5C5C5C",
"^  c #5D5D5D",
"/  c gray37",
"(  c #764F40",
")  c #775041",
"_  c #795447",
"`  c #8E480F",
"'  c #9E5721",
"]  c #AB5611",
"[  c #AC5813",
"{  c #AE5A16",
"}  c #B05912",
"|  c #B15C19",
" . c #B25E1B",
".. c #B8601B",
"X. c #B9621D",
"o. c #8C5D4B",
"O. c #8D5E4C",
"+. c #8D5E4D",
"@. c #8D5F4D",
"#. c #8D5F4E",
"$. c #8E604E",
"%. c #8E604F",
"&. c #8E6150",
"*. c #8F6251",
"=. c #8F6252",
"-. c #8F6453",
";. c #91604D",
":. c #91614F",
">. c #92614F",
",. c #926250",
"<. c #926251",
"1. c #906554",
"2. c #A46D59",
"3. c #A46E5A",
"4. c #A6705D",
"5. c #A8705B",
"6. c #A9715C",
"7. c #AA735E",
"8. c #AA735F",
"9. c #C76514",
"0. c #D36E1D",
"q. c #DD7728",
"w. c #DD7729",
"e. c #DF792B",
"r. c #E07A2B",
"t. c #E07A2C",
/* pixels */
"F F F F F F F F F F F F D F F F F F F F D F F F F F F F F F F F ",
"U U I U F I I I I U U U F I I U I I I U F I I I I I I U F I I I ",
"W W W ~ F U W W W W ~ ~ F U W W W ~ W W F U W W W W W ~ F W U W ",
"~ ~ ~ / F W ~ ~ ~ ~ ~ ~ F W ~ ~ ~ ~ / / I W ~ ~ ~ ~ ~ / F W ~ ~ ",
"F F F F F F F F F F F F x x x x b x x x x n F F F F F F F F F F ",
"F F U I U U U U F U U U $ $ $ = = = = $ 3 D U U F I U U U I I U ",
"F W ~ W W ~ W W F U l = $ = 3 6 a g h l l 2 F W F U W W W ~ W W ",
"F W ~ ~ ~ / / / F W $ #     # # = 2 9 a d d 6 I F ~ ~ ~ ~ / / ~ ",
"F F F F D F F F x =                   , < < e # F F F F F F F F ",
"I U U U F I I I n =                 , c #.o.( ; U U I U F I U I ",
"W ~ W W F U W W F =             O ; 7.7.>.2.#., W W ~ ~ F U W W ",
"~ ~ ~ ~ I W ~ ~ F =             , ( 5.5.p ;.#., ~ ~ ~ ~ I W ~ ~ ",
"F F F F F F F F b 6             p ,.3.7.p >.o., D D F F F F F F ",
"F I I U U U U U F n             ,.3.7.7.>.2.o., F I U U I I U U ",
"F U W W W W ~ ~ I U F 6         #.*.,.*.#.#.9 F F U W W W ~ W W ",
"F W ~ ~ ~ ~ ~ / F W ~ I         4 4 4 4 , , I ~ F W ~ ~ ~ / ~ ~ ",
"F J F F D F F F F F F F D F 0 ] [ 9.` 0 D F F F F F F F D F F F ",
"I U I I F L I I I I U I F L 0 [ u [ - O F I I I L I I U D J I I ",
"W Q Q Q F U E W Q Q W Q F U q [ 5 1.,   n U E W W W ^ ^ J T E E ",
"^ ^ / ~ L Q ^ / ~ / ~ / L Q q { , #._ , 7 J ~ ^ ~ ~ ~ ~ J W ^ ~ ",
"F F F F F F F F D F F F F F 0 | ..i #.#.& x F F D F F F F F F F ",
"F J I I I U I U F I I I I U w  .0.X., , 1 n I U F L I U U I I U ",
"F T Q W W Q Q W F U W E Q Q t ' e.e.' t Q ^ W ^ F T E W E ^ W Q ",
"L W ~ ^ ~ / ~ ^ L W / ~ ~ ~ m t e.e.t m ^ ~ ~ / J W ^ ~ ~ / / / ",
"F F F F F F F F F F F F F F n = e.e.& x D F F F F F F F D F F F ",
"I I U U F L I I I U I U J J n = e.e.= B F J I U I U I I F J I I ",
"E W W Q J U E W Q Q Q Q F T D 1 e.e.= F F U E E E W Q ^ J T E E ",
"~ / ^ ~ J Q ~ ~ ~ / / ~ J T F 1 e.e.= F L Q ^ ^ ~ ~ / / F Q ~ ~ ",
"J F F F F F F F F F F F F F b 6 1 1 6 n F F F F D F F F F F F F ",
"F J I U I I I U F L I I I I L D n n Z I I I U I F L I I U U I U ",
"F U ^ E W Q Q Q F T Q W E Q Q Q J T E W W ^ W ^ F U E E E ^ Q ^ ",
"L W / ~ ~ / / / F W / ~ ^ / / ~ J T / / ~ / ~ ~ L W ^ ^ ^ ~ ~ ^ "
};
