/* XPM */
static char *p3[] = {
/* columns rows colors chars-per-pixel */
"32 32 150 2",
"   c #010101",
".  c #020202",
"X  c #030303",
"o  c #060301",
"O  c #050403",
"+  c #040404",
"@  c #050505",
"#  c #060606",
"$  c #070707",
"%  c #080606",
"&  c #080808",
"*  c #090909",
"=  c #0B0B0B",
"-  c #0C0C0C",
";  c #0D0D0D",
":  c #0E0E0E",
">  c #0F0F0F",
",  c #1D0E03",
"<  c #1D0F03",
"1  c #18100E",
"2  c #18110E",
"3  c #19110E",
"4  c #101010",
"5  c #111111",
"6  c #121212",
"7  c #131313",
"8  c gray8",
"9  c #151515",
"0  c #161616",
"q  c #171717",
"w  c #1D1310",
"e  c #1D1410",
"r  c #1D1411",
"t  c #1E1512",
"y  c #181818",
"u  c #191919",
"i  c #1B1B1B",
"p  c #1C1C1C",
"a  c #1D1D1D",
"s  c #221103",
"d  c #221204",
"f  c #231204",
"g  c #241306",
"h  c #221B18",
"j  c #231C19",
"k  c #251E1B",
"l  c #271C18",
"z  c #341E0F",
"x  c #341E10",
"c  c #361F10",
"v  c #3F2006",
"b  c #3F2007",
"n  c #362010",
"m  c #34241E",
"M  c #202020",
"N  c #222222",
"B  c #232323",
"V  c #242424",
"C  c #383636",
"Z  c #3A3A3A",
"A  c #3D3D3D",
"S  c #3E3E3E",
"D  c #3F3F3F",
"F  c #404040",
"G  c #424140",
"H  c gray27",
"J  c #464444",
"K  c #464646",
"L  c #474747",
"P  c #484848",
"I  c #4A4A4A",
"U  c #4B4B4B",
"Y  c #4C4C4C",
"T  c #4D4D4D",
"R  c #4E4E4E",
"E  c #4F4F4F",
"W  c #505050",
"Q  c #515151",
"!  c #525252",
"~  c #535353",
"^  c #545454",
"/  c #555555",
"(  c #565656",
")  c #575757",
"_  c #585858",
"`  c #595959",
"'  c #5A5A5A",
"]  c #5B5B5B",
"[  c #5C5C5C",
"{  c #5D5D5D",
"}  c gray37",
"|  c #765043",
" . c #765143",
".. c #785244",
"X. c #795244",
"o. c #785346",
"O. c #7C5342",
"+. c #7F5645",
"@. c #7A5548",
"#. c #8D450C",
"$. c #8E480E",
"%. c #944A0F",
"&. c #924A10",
"*. c #A9520D",
"=. c #A9530C",
"-. c #A9530F",
";. c #AA530C",
":. c #A9540F",
">. c #AA550E",
",. c #AA5611",
"<. c #AB5713",
"1. c #AF5811",
"2. c #AD5814",
"3. c #AD5914",
"4. c #B05911",
"5. c #B05912",
"6. c #B25C15",
"7. c #B76220",
"8. c #8E604F",
"9. c #8E6151",
"0. c #8F6251",
"q. c #8F6252",
"w. c #906353",
"e. c #906555",
"r. c #916556",
"t. c #956756",
"y. c #956757",
"u. c #A97663",
"i. c #CA610C",
"p. c #CA620D",
"a. c #CB630E",
"s. c #CB630F",
"d. c #CB640F",
"f. c #C76515",
"g. c #CB6410",
"h. c #CB6411",
"j. c #CB6613",
"k. c #C86616",
"l. c #CC6612",
"z. c #CC6613",
"x. c #CC6714",
"c. c #CC6715",
"v. c #CD6816",
"b. c #CD6917",
"n. c #CE6917",
"m. c #CF6916",
"M. c #CF6917",
"N. c #CF6A18",
"B. c #DB7526",
"V. c #DD7728",
/* pixels */
"Y Y Y Y Y Y Y Y Y Y Y Y Y Y Y Y Y Y Y Y P Y Y Y Y Y Y Y Y Y Y Y ",
"^ ^ ^ ^ Y Q ^ Q ^ ^ Q ^ Y Q ^ Q Q ^ ^ ^ Y ~ ^ ^ Q ^ ^ ^ Y Q ^ Q ",
"_ _ _ [ Y ^ _ _ [ _ [ _ Y ) _ [ _ [ _ _ Y ^ _ _ _ [ _ [ Y ^ _ _ ",
"[ [ } } Q _ [ [ [ [ [ [ Y _ [ [ [ } } [ Q _ [ [ [ [ [ } Q _ [ [ ",
"Y Y Y Y Y Y Y Y Y Y Y Y D F D D F F D D D P Y Y Y Y Q Y Y Y Y Y ",
"Y Q Q ^ ^ Q ^ ^ Y ~ Q ^ : & : : : : : : u H ^ ^ Y Y ~ ^ ^ Q ^ ^ ",
"Y ^ [ _ [ _ _ [ Y ^ D :     & 4 9 u a B B & Y ) Y _ _ _ _ [ _ [ ",
"Y _ } [ [ [ [ [ Y _ :       # & : 4 a a B B a Q Q _ [ [ [ } [ [ ",
"Y Y Y Y Y Y Y Y D :             & = 8 y p k B # Y Y Y Y Y Y Y Y ",
"^ ^ ^ ^ Y Q Q ^ H :             X $ 5 6 i a p # Q ^ ^ ^ Y Q Q ~ ",
"_ [ _ _ Y _ _ [ Y :                 & = 6 y y # _ _ [ [ Y ^ _ _ ",
"[ [ [ [ Q _ [ [ Y :                 X $ > 5 4 # [ [ } } Q [ [ [ ",
"Q Y Y Y Y Y Y Y F u O 2                 % 2   : U Y Y Y Y Y Y Y ",
"Y Y ^ ^ ^ ^ ^ ^ Y H 2  .                2  .: Z Y ^ ^ ^ ^ Q ^ ^ ",
"Y ^ [ _ _ _ [ [ Y _ Y a 9.8.8.9.q.9.r.q.X.l ] _ Y ^ _ _ _ [ _ _ ",
"Q _ [ [ [ [ [ } Y _ _ Q w w w w t r t t k K [ [ Q _ } [ [ } } [ ",
"Y Y Y Y U Y Y Y Y Y C h 3.j.l.l.i.h.j.N.%.z D P Y Y Y Y Y Y Y Y ",
"~ ~ ~ ~ Y Q ~ ~ ~ Q h X.v 4.l.l.i.j.x.j.z O.u L ~ ^ ~ ^ Y W Q ~ ",
"_ _ ] ] Y ) _ _ _ _ t e.c %.v.l.i.l.f.3.m t.4 U _ ] _ ] W ) _ _ ",
"} [ } [ W _ [ [ [ [ t e.+.c v.v.a.l.6.v t.u.4 Y [ [ [ } Y ] [ [ ",
"Y Y Y Y Y Y Y Y Y Y j @.X.2 V.B.V.V.7.g q.w.u G U Y Y Y Y Y Y Y ",
"Y W ~ ~ ~ ~ ~ ~ Y ~ D k 2 # N.m.m.m.3.s 3 t P ~ Y Q Q ~ ^ ~ ~ ^ ",
"Y ) _ _ ] ] ] ] Y ^ _ _ Y : h.i.s >.=.s ] ] ] ] Y _ ] _ _ [ ] _ ",
"Y _ [ [ } [ [ [ W ] [ [ Y 4 h.h.s >.=.s [ [ [ [ W _ [ [ } [ } [ ",
"Y W Y Y U Y Y Y Y Y Y Y D = x.j.f *.<.f U U Y Y Y Y Y Y U Y Y Y ",
"~ ~ ~ ^ Y Q ~ ~ ~ ~ ~ ~ F = v.h.s >.2.f Y W ~ ~ ~ ~ ~ ^ Y W Q Q ",
"_ ] _ ] Y ^ _ ] ] ] _ ] D : ,.,.< $.#.< Y ^ ] _ _ _ ] [ W _ _ _ ",
"[ [ [ } E _ [ [ } [ } [ D & s s o < < o Q _ [ ] [ [ [ } Y ] [ [ ",
"Y Y Y Y Y Y Y Y U Y Y U Y Y Y Y U U Y Y Y Y Y Y Y Y Y Y Y Y Y Y ",
"Y Y ~ ~ ~ ~ ~ ~ Y W ~ ~ Q ~ ~ ^ U W Q ~ ~ ~ ~ ^ Y W ~ ~ ~ ~ ^ ~ ",
"E ^ ] ] _ ] ] _ Y ) ] ] _ ] ] ] Y ) _ _ ] ] ] ] W ^ ] _ ] _ ] ] ",
"Q _ } [ [ } } } W _ [ [ [ [ [ [ W _ } [ [ [ [ [ W _ } [ [ [ } [ "
};
