/* XPM */
static char *p3[] = {
/* columns rows colors chars-per-pixel */
"32 32 149 2 ",
"   c #010101",
".  c #030303",
"X  c #070401",
"o  c #040404",
"O  c #050505",
"+  c #060404",
"@  c #060606",
"#  c #070707",
"$  c #080706",
"%  c #080808",
"&  c #090909",
"*  c #0A0A0A",
"=  c #0C0C0C",
"-  c #0D0D0D",
";  c #0E0E0E",
":  c #0F0F0F",
">  c #1D0F03",
",  c #1D0F04",
"<  c #18100E",
"1  c #18110E",
"2  c #19110F",
"3  c #19120F",
"4  c #101010",
"5  c #121212",
"6  c #141414",
"7  c #151515",
"8  c #171717",
"9  c #1D1410",
"0  c #1D1411",
"q  c #1D1511",
"w  c #1E1512",
"e  c #1E1613",
"r  c #181818",
"t  c #191919",
"y  c #1B1B1B",
"u  c #1C1C1C",
"i  c #1D1D1D",
"p  c #1E1E1E",
"a  c #231103",
"s  c #231204",
"d  c #231305",
"f  c #241406",
"g  c #221B18",
"h  c #231B18",
"j  c #241C1A",
"k  c #241D1A",
"l  c #251D1A",
"z  c #251E1B",
"x  c #341E10",
"c  c #341F11",
"v  c #3F2007",
"b  c #3F2107",
"n  c #362010",
"m  c #35251F",
"M  c #202020",
"N  c #212121",
"B  c #222222",
"V  c #232323",
"C  c #393737",
"Z  c #3B3B3B",
"A  c #3F3E3D",
"S  c #3E3E3E",
"D  c #3F3F3F",
"F  c #404040",
"G  c #424242",
"H  c #454545",
"J  c #464444",
"K  c #474747",
"L  c #494949",
"P  c #4A4A4A",
"I  c #4B4B4B",
"U  c #4C4C4C",
"Y  c #4D4D4D",
"T  c #4E4E4E",
"R  c #4F4F4F",
"E  c #505050",
"W  c #515151",
"Q  c #525252",
"!  c #535353",
"~  c #545454",
"^  c #555555",
"/  c #565656",
"(  c gray34",
")  c #585858",
"_  c #595959",
"`  c #5A5A5A",
"'  c #5B5B5B",
"]  c #5C5C5C",
"[  c #5D5D5D",
"{  c #5E5E5E",
"}  c #764F41",
"|  c #775143",
" . c #7C5242",
".. c #795344",
"X. c #785245",
"o. c #795345",
"O. c #7F5645",
"+. c #7A5548",
"@. c #8D460C",
"#. c #8E480F",
"$. c #944B0F",
"%. c #924A11",
"&. c #AA530C",
"*. c #AA530D",
"=. c #A9540E",
"-. c #A9540F",
";. c #AA550F",
":. c #AA5510",
">. c #AB5712",
",. c #AC5813",
"<. c #AE5914",
"1. c #B05911",
"2. c #B05912",
"3. c #B25C16",
"4. c #B76220",
"5. c #CA610C",
"6. c #CA620D",
"7. c #CB620D",
"8. c #CB640F",
"9. c #CB6410",
"0. c #CB6511",
"q. c #CC6511",
"w. c #CC6512",
"e. c #CC6612",
"r. c #CC6613",
"t. c #C86616",
"y. c #C86617",
"u. c #CC6714",
"i. c #CD6714",
"p. c #CD6715",
"a. c #CE6916",
"s. c #CE6917",
"d. c #CF6917",
"f. c #CE6918",
"g. c #D06A17",
"h. c #D06A18",
"j. c #DD7728",
"k. c #8E604F",
"l. c #8E6050",
"z. c #8E6151",
"x. c #8F6252",
"c. c #906352",
"v. c #906353",
"b. c #916454",
"n. c #916555",
"m. c #916556",
"M. c #956757",
"N. c #956857",
"B. c #A97663",
/* pixels */
"U U U U I I U U U U U U U U U I U U U U U U U U U U U U I U U U ",
"~ ~ ~ ! U ! ! ! ! ~ ~ ! I ! ! ! ! ! ! ! U ~ ! ! ! ~ ! ! U ! ! ! ",
"_ _ _ [ U ~ _ _ _ _ ' ' U ~ _ [ [ _ _ ] U ~ _ _ _ _ ] [ U ~ ( _ ",
"[ [ [ [ ! _ [ [ [ [ [ [ U _ [ [ [ [ [ [ U _ [ [ [ [ [ [ U _ [ [ ",
"U I U U I I I U U U U U D D D D D D D D D I U U I U U U U U U U ",
"I ! ~ ~ ! ! ! ! U ! ! ! = ; ; ; ; ; ; ; r H ! ~ U E ! ! ~ ~ ~ ~ ",
"U ~ _ _ _ _ _ [ U ~ D ;     & : 6 r p N M ; U ) U _ _ _ _ [ _ ] ",
"U _ [ [ [ [ [ [ U _ ;       + & ; 5 p p N V p R U _ [ [ [ [ [ [ ",
"U U U U U U U U D ;             & = 7 r r N N & U U U U U U U U ",
"~ ~ ~ ~ U ! ! ! H ;             . % ; 5 p p p + ~ ~ ! ! U ! ! ! ",
"_ _ _ _ U ~ _ _ U ;                 & ; 5 r 8 + _ _ [ [ U ~ _ _ ",
"[ [ [ [ ! _ [ [ U ;                 + + ; 5 6 . [ [ [ [ U _ [ [ ",
"U U U U U U U U G r + 2                 $ 2 . = I U U U U U U U ",
"U ! ~ ~ ! ~ ! ! I H 2 o.                2 } ; Z U ! ! ~ ~ ~ ~ ~ ",
"U ~ [ _ _ _ [ [ U _ U r z.z.k.z.m.x.m.z.o.z _ _ U ~ _ _ _ [ _ _ ",
"U _ [ [ [ [ [ [ U _ _ ! 0 0 9 0 0 0 0 0 z H [ [ ! _ [ [ [ { [ [ ",
"U U U U I I U I U U C h 1.t.r.r.6.w.u.s.$.c G I U U U U I U U U ",
"! ! ! ~ I ! ! ! ! ! h o.v 1.r.r.6.r.w.s.x  .r H ! ! ~ ~ U E ! ! ",
"' _ ' ' U ( _ _ _ _ 0 m.n $.s.r.6.8.t.<.m N.; I _ _ _ ' E ~ _ _ ",
"[ [ { { R _ [ [ [ [ 0 m.O.n f.r.8.r.3.b N.B.4 U [ [ [ { ! _ [ [ ",
"I I I I U U U U U I z +.| 2 j.j.j.j.4.f c.c.r G I I U U I I I U ",
"U ! ! ! ! ! ~ ~ U ! D z 2 . h.g.g.g.<.d 0 0 I ! I ! ! ! ! ! ! ~ ",
"U ( _ _ ' ' ' ' U ~ _ _ I 5 6.w.a ;.&.a _ ' ' ' U _ _ _ ' ' _ ' ",
"U _ [ [ [ [ { { R _ [ [ U 5 w.w.a ;.&.a [ [ [ { U _ [ [ [ [ { [ ",
"U R U U I U U U I U U U D = u.w.a =.<.s I U U I U U U U I U U U ",
"! ~ ! ~ R R ! ! ~ ~ ~ ! F = s.w.s ;.,.a U R ! ! ~ ~ ! ! U E ! ! ",
"_ _ _ ' U ~ _ ' ' ' ' ' D = ;.>.> #.@.> U ~ _ _ _ _ _ [ U _ _ _ ",
"[ [ [ { R _ [ [ [ [ [ [ D = a a . > > X ! _ [ [ [ [ { { U _ ' [ ",
"U U U U U U U U I U U I U I U U I I U U U U U U U U U U U U U U ",
"U E ! ~ ! ! ~ ~ U ! ! ! ~ ! ~ ~ I E ! ! ~ ~ ! ~ U R ~ ~ ~ ~ ~ ~ ",
"U ( ' _ _ ' ' ' U ~ ' _ _ _ ' ' U ( _ _ ' ' ' ' E ~ _ _ _ _ ' [ ",
"R _ { [ [ { [ [ R _ { [ [ [ { { U _ [ [ [ [ [ [ E _ [ [ [ [ [ [ "
};
