/* XPM */
static char *p4[] = {
/* columns rows colors chars-per-pixel */
"32 32 121 2",
"   c black",
".  c #010101",
"X  c #020202",
"o  c #030303",
"O  c #040302",
"+  c #040404",
"@  c #060606",
"#  c #080808",
"$  c #090909",
"%  c #0B0B0B",
"&  c #0C0C0C",
"*  c #0D0D0D",
"=  c #0E0E0E",
"-  c #0F0F0F",
";  c #170F0C",
":  c #17100D",
">  c #18100D",
",  c #1C120F",
"<  c #111111",
"1  c #121212",
"2  c #131313",
"3  c #1C1310",
"4  c #1D1410",
"5  c #1F1512",
"6  c #191919",
"7  c #1B1B1B",
"8  c #1D1D1D",
"9  c #1E1E1E",
"0  c #1F1F1F",
"q  c #221103",
"w  c #231204",
"e  c #251407",
"r  c #241B19",
"t  c #241C19",
"y  c #29201D",
"u  c #3F2006",
"i  c #352012",
"p  c #362012",
"a  c #33221C",
"s  c #34221C",
"d  c #35241E",
"f  c #202020",
"g  c #282828",
"h  c #2A2A2A",
"j  c #2F2F2F",
"k  c #333333",
"l  c #393939",
"z  c #3C3C3C",
"x  c #3E3E3E",
"c  c #3F3F3F",
"v  c #44240D",
"b  c #44250D",
"n  c #754E3F",
"m  c #404040",
"M  c #414141",
"N  c #424242",
"B  c #444242",
"V  c #454545",
"C  c #464646",
"Z  c #474747",
"A  c #4A4A4A",
"S  c #4B4B4B",
"D  c #4C4C4C",
"F  c #4D4D4D",
"G  c #4E4E4E",
"H  c #4F4F4F",
"J  c #505050",
"K  c #515151",
"L  c #525252",
"P  c #535353",
"I  c #545454",
"U  c #555555",
"Y  c #565656",
"T  c #575757",
"R  c #585858",
"E  c #595959",
"W  c #5A5A5A",
"Q  c #5B5B5B",
"!  c #5C5C5C",
"~  c #5D5D5D",
"^  c gray37",
"/  c #764E40",
"(  c #775042",
")  c #785042",
"_  c #7D5443",
"`  c #9A531B",
"'  c #AC5813",
"]  c #AE5A15",
"[  c #B15A13",
"{  c #B15B13",
"}  c #BA6524",
"|  c #BF6724",
" . c #8D5D4C",
".. c #8C5E4C",
"X. c #8D5E4D",
"o. c #8F604F",
"O. c #8F614F",
"+. c #8F6251",
"@. c #91604F",
"#. c #91614F",
"$. c #926150",
"%. c #906554",
"&. c #956756",
"*. c #956857",
"=. c #A46D59",
"-. c #A56E5A",
";. c #A76F5A",
":. c #A86F5A",
">. c #A6715D",
",. c #A7725F",
"<. c #A8705B",
"1. c #A9705C",
"2. c #A9715C",
"3. c #AA725E",
"4. c #AB7560",
"5. c #C86615",
"6. c #D46F1E",
"7. c #D5701F",
"8. c #C06825",
"9. c #D67020",
"0. c #D9762A",
/* pixels */
"D D D D D D D D S D D D S D D D D D D D S D D D D D D D A D D D ",
"P U P U D P P P P U U P D P P U P P P U D P P P P U U U D P P P ",
"E E E ! D U U E ! E E ! D U E E ! E E E D U E E U E ! ! D T U E ",
"! ! ! ^ P E ! ! ^ ! ! ! D T ! ! ! ! ^ ! P E ! E ! ! ! ! D E ! ! ",
"D D D D D D D D S D D D c c c c m m c c c A D D D D D D D D D D ",
"D D U U P P P P A P P P % & * * * * * * 6 V U U D P U P U P P U ",
"D E ! E ! E E ! D U c 2 c l k j f 8 2 1 #   D U D U ! E E ! ! E ",
"D E ! ! ! ! ! ! P E 1 8 h g 8 6 $ @ @ o     8 P D E ^ ! ! ! ! ! ",
"D D D D D D D D c * y 5 , ,                     D D D D D D D D ",
"P U U P D P P P V * o.X.X.X.                    U U U U D P U P ",
"E ! E E D U E E D - <.<.@.>.$.s                 E E E ! D U U E ",
"! ! ! ! P E ! ! D * <.<.a +.-.$.                ! ! ! ! P E ! ! ",
"D D D D D D D D m * :.<.s @.<.<.,             $ D D D D D D D D ",
"D P U U P P U U c * <.<.$.-.4.4.n ;         * c D P P U P P P U ",
"D U E E E E ! ! D E t ) $.+.+.+.n ,     o * ! E D U E E E ! E E ",
"D E ! ! ! ! ! ! D E B t 4 3 5 4 ; O     * m ! ! H E ^ ! ! ^ ! ! ",
"D S D D S S D D D D S D m * [ 5.] 5.& M S S S S S H S S S S S D ",
"P P U P D P P P P P P P m % u [ u ] & V S K P P P P P P S K I P ",
"E ! ! E D T E E ! T ! ! k $ d *.w ' ; S D I E E E ! ! ! S I ! E ",
"! ! ^ ! H E ! ! ^ ! ^ ! %   *.,.w ] - S H ! ~ ~ ~ ~ ~ ~ H E ~ ! ",
"S S S S S S D D D D D D : ( _ p 7.7.& m S S S S S S S S S S S D ",
"D P P P P P P P D P P P o : p ` 7.7.& V P I P P S K P P I I P I ",
"D T E E ! ! E ! H T T E S 7 | 0.0.| 7 S E ! ! ! H T E E E ! ! ! ",
"H E ^ ! ! ^ ! ! D E ^ ! ! K b | | v K ! ~ ~ ~ ~ H E ~ ~ ! ~ ~ ~ ",
"D D D D S S D D S S H S S D e } } e H S S S S S S S S S S S S H ",
"P P P U D K P P P I I P H K e } } e I I S H I P P I P P S K P P ",
"T ! E ! H U E E E E ! ! S T e } } e ! E H T ! T ! E ! ! S T T E ",
"! ^ ! ! D ! ! ! ~ ~ ~ ! H E e } } e ~ ~ H E ~ ~ ! ~ ~ ~ S ! ~ ~ ",
"H D D D D D D D S S S S S H - & & - S S S S S S S S S S S S D D ",
"S H P P P I I P S P P P P P C C M N P P P P I I S P P I I P I I ",
"D T ! E E ! ! E S T T E E ! ! ! H I E E ! E E ! H T T E E ! ! ! ",
"H E ^ ! ! ^ ! ! H E ~ ~ ~ ~ ~ ! H ! ^ ! ~ ~ ~ ~ H E ! ~ ! ~ ~ ~ "
};
