/* XPM */
static char *p4[] = {
/* columns rows colors chars-per-pixel */
"32 32 116 2 ",
"   c black",
".  c #010101",
"X  c #020202",
"o  c #030303",
"O  c #050303",
"+  c #040404",
"@  c #070707",
"#  c gray3",
"$  c gray4",
"%  c #0B0B0B",
"&  c #0C0C0C",
"*  c #0D0D0D",
"=  c #0E0E0E",
"-  c #0F0F0F",
";  c #18100D",
":  c #1C130F",
">  c #101010",
",  c #111111",
"<  c #131313",
"1  c gray8",
"2  c #1D1410",
"3  c #1F1612",
"4  c #181818",
"5  c #191919",
"6  c #1B1B1B",
"7  c #1E1E1E",
"8  c #231204",
"9  c #251407",
"0  c #241C19",
"q  c #3F2007",
"w  c #2A201D",
"e  c #362012",
"r  c #33221C",
"t  c #34221C",
"y  c #35251E",
"u  c #202020",
"i  c #212121",
"p  c #272727",
"a  c #2A2A2A",
"s  c #2F2F2F",
"d  c #333333",
"f  c #343434",
"g  c #3B3B3B",
"h  c #3D3D3D",
"j  c #3F3F3F",
"k  c #44250D",
"l  c #404040",
"z  c #414141",
"x  c #424242",
"c  c #434343",
"v  c #454342",
"b  c #454545",
"n  c #474747",
"m  c #4A4A4A",
"M  c #4B4B4B",
"N  c #4C4C4C",
"B  c #4D4D4D",
"V  c #4E4E4E",
"C  c #4F4F4F",
"Z  c #505050",
"A  c #515151",
"S  c #525252",
"D  c #535353",
"F  c #545454",
"G  c #555555",
"H  c #565656",
"J  c #575757",
"K  c #585858",
"L  c #595959",
"P  c #5A5A5A",
"I  c #5B5B5B",
"U  c #5C5C5C",
"Y  c #5D5D5D",
"T  c #5E5E5E",
"R  c #764E40",
"E  c #764F40",
"W  c #775042",
"Q  c #785042",
"!  c #7D5443",
"~  c #9B531B",
"^  c #AC5813",
"/  c #AE5A15",
"(  c #B15A13",
")  c #B25B13",
"_  c #BA6524",
"`  c #BB6625",
"'  c #BF6724",
"]  c #BF6824",
"[  c #C86615",
"{  c #D46F1E",
"}  c #C16926",
"|  c #D67020",
" . c #D77121",
".. c #D9762A",
"X. c #8D5D4D",
"o. c #8D5E4D",
"O. c #8F604F",
"+. c #91614F",
"@. c #92614F",
"#. c #8F6150",
"$. c #8F6251",
"%. c #916150",
"&. c #926150",
"*. c #916554",
"=. c #956856",
"-. c #966857",
";. c #A46D5A",
":. c #A56E5A",
">. c #A76F5A",
",. c #A86F5A",
"<. c #A6715D",
"1. c #A7735F",
"2. c #A9705C",
"3. c #A9715C",
"4. c #AA735F",
"5. c #AB7560",
/* pixels */
"N N N N N N N N N N N N N N N N N N N N M N N N N N N N N M N N ",
"F F D F N D D D D D F F M D D D D D D D M D D D D F D D N D D D ",
"P P P P N F F P P P P Y N F P P P P P P N F P P P P P Y N F P P ",
"Y Y Y Y D P Y Y Y Y Y Y N P Y Y Y Y Y Y D P Y Y Y P Y Y N P P U ",
"N N N N N N N N N N N N j j j j x j j j j M N N N N N N N N N N ",
"N N D D D D D D N N F F = % = = = = = = 5 b F F N D F D F F F F ",
"N P P P P P P Y D F j < j g d s 7 7 1 < @   N F N F P P P P Y P ",
"N P Y Y Y Y Y Y N P < u a p 7 5 % @ @       7 D N P Y Y Y Y Y Y ",
"N N N N M N N N j = 0 0 : :                     N N N N N N N N ",
"D D F F N D D D b = o.X.o.o.                    F F F F N D D F ",
"P P P P N P P P m > 2.2.@.<.@.t                 P P P P N F P P ",
"Y Y Y Y N P Y Y N > 2.2.r @.:.@.                Y Y Y Y N P Y Y ",
"N N N N N N N N l = ,.2.t @.3.3.; O           % M M N N N N N N ",
"N D D D D D F F j = ,.2.@.:.5.4.R ;         = j M D D D F F F F ",
"N F P P P P P Y N J 0 Q %.$.*.*.R ;       = P Y N F P P P Y P P ",
"N P Y Y Y Y Y Y N I v 0 2 2 2 2 ; O     = x Y T N P Y Y Y Y Y Y ",
"N M N M M M N M N M N M j * ) [ ) [ = x M M M N N N N N M N N N ",
"F D F F M D F D D F F F j * q ( q ) = b M D D D D D D D N Z D D ",
"P P U U N F K P P P U P f % y =.8 ^ = M Z F P P P P U Y N F P P ",
"Y U T T N U Y Y Y Y Y Y *   =.5.8 ^ < N N P Y Y Y Y Y Y N P Y Y ",
"M M M N M M N M M N N N ; W ! e { { = j M N N N M M N N N N N N ",
"M D F F F F F D N D D F O ; e ~ | | = b D D D D M D D D F F D D ",
"N F K P P P P U N F K P N 5 } ....} 6 M P P P Y N F P P P P U U ",
"Z P Y Y Y Y Y Y Z P Y U P D k } ] k D P Y Y Y Y C P Y Y Y Y Y Y ",
"N N N N M N N N N N N N N N 9 ` ` 9 N N N N M M N N N N M M N N ",
"F F F F N Z D F D F F F N D 9 ` ` 9 F F N N D D D F D D N D D D ",
"K P P P N F P P I P I P N F 9 ` ` 9 Y P N K P P P P P Y N F P P ",
"Y Y Y Y Z P Y Y Y Y Y Y N P 9 ` ` 9 T Y N P Y Y Y Y Y Y N P U Y ",
"N M N M N M N N N N N N N N = = = = N N N N N N M M N N N N N N ",
"N Z F F F D F F N D D D D D M n x x D D D D F F M D D D F F F F ",
"N J P P P U P P N F F P P P P P N F P P U P P Y N F P P P P P U ",
"N P Y Y Y T Y Y Z P Y Y Y Y Y Y D P Y Y Y Y Y Y N U Y Y Y Y Y Y "
};
