/* XPM */
static char *p_push1[] = {
/* columns rows colors chars-per-pixel */
"32 32 44 1",
"  c black",
". c #010101",
"X c #040404",
"o c #0C0C0C",
"O c #131313",
"+ c #191919",
"@ c #202020",
"# c gray15",
"$ c #2D2D2D",
"% c gray20",
"& c #393939",
"* c gray25",
"= c #464646",
"- c #4B4B4B",
"; c #545454",
": c #555555",
"> c #565656",
", c gray34",
"< c #585858",
"1 c #595959",
"2 c #5A5A5A",
"3 c gray36",
"4 c #A76F5A",
"5 c #A86F5A",
"6 c #A8705B",
"7 c #A8725D",
"8 c #A9735E",
"9 c #AA735E",
"0 c #AB745F",
"q c #AB7561",
"w c #AC7662",
"e c #AB7864",
"r c #AD7965",
"t c #AE7A66",
"y c #CE6917",
"u c #D16C1A",
"i c #D36E1D",
"p c #D46F1E",
"a c #D67222",
"s c #D77222",
"d c #DC7627",
"f c #DD7729",
"g c #DF792A",
"h c #E07A2C",
/* pixels */
"--------------------------------",
";;;;-;;;;;;;-;;;;;;;-;;;;;;;-;;;",
"1111-1111113-1111311-;113111-;11",
"3333-3313333-3133333-3333333-333",
"--------------------------------",
"-;;;;;;;-;;;;;;;-;;;;;;;-;;;;;;;",
"-;111111-;113111-1111111-;111131",
"-3333333-3333333-3133333-3333333",
"--------------------------------",
";;;;-;;;;;;;-;;;;;;;-;;;;;;;-;;;",
"1113-;111131-1;11311-1;11111-111",
"3333-3333333-3333333-3313333-333",
"--------------------------------",
"-;;;;;;;-;;;;;;;-;;;.....;;;;;;;",
"-1;11311-1111111-;1.......;11311",
"-3333333-3333333-1.........33333",
"-----------------.........o.----",
";;;;-;;;;;;;-;;;;.........O.-;;;",
"1111-1;11311-;;...........+.-1;1",
"3333-331333....yy.........+.-333",
"---------..aiuyyy.77......#.----",
"-;;;;;...hgai...y.qq77...O%.;;;;",
"-;11..hhgdha.7ryy.rq477..+&.1113",
"-333.hhhhfh.7r....q745q7.+*.3333",
"----.h......7..--.97..47.#=.----",
";;;;..;;;;;.7.;;;.477757.$.;-;;;",
"1111-1;1111.w.;111.44777O.11-1;1",
"3333-333333...33331......333-333",
"--------------------------------",
"-;;;;;;;-;;;;;;;-;;;;;;;-;;;;;;;",
"-;111111-;111111-<;11111-1;11111",
"-3333333-3333333-3333333-3333333"
};
