/* XPM */
static char *p_push2[] = {
/* columns rows colors chars-per-pixel */
"32 32 39 1",
"  c black",
". c #060606",
"X c #0C0C0C",
"o c #131313",
"O c #191919",
"+ c #202020",
"@ c gray15",
"# c #2D2D2D",
"$ c gray20",
"% c #393939",
"& c gray25",
"* c #464646",
"= c #4B4B4B",
"- c #545454",
"; c #555555",
": c #565656",
"> c gray34",
", c #585858",
"< c #595959",
"1 c #5A5A5A",
"2 c gray36",
"3 c #A76F5A",
"4 c #A86F5A",
"5 c #A8705B",
"6 c #A9705C",
"7 c #AB745F",
"8 c #AB7561",
"9 c #AC7663",
"0 c #AE7A66",
"q c #CE6916",
"w c #D16C1A",
"e c #D36E1D",
"r c #D46F1E",
"t c #D77121",
"y c #D87323",
"u c #DC7627",
"i c #DD7729",
"p c #DF792A",
"a c #E07A2C",
/* pixels */
"================================",
"----=-------=-------=-------=---",
"<<<<=<<<<<<<=<<<<2<<=-<<2<<<=-<<",
"2222=22<222<=2<22222=2222222=222",
"================================",
"=-------=-------=-------=-------",
"=-<<<<<<=<<<2<<<=<<<<<<<=-<<<<2<",
"=2222222=2222222=2<22222=2222222",
"================================",
"----=-------=-------=-------=---",
"<<2<=-<<<<2<=<-<2<<<=<<<<<<<=<<<",
"2222=2222222=2222222=<222222=222",
"================================",
"=-------=-------=-------=-------",
"=<-<<2<<=<<<<<<<=<<<<<<<=-<<<2<<",
"=2222222=2222222=2222222=2222222",
"====================     =======",
"----=-------=------       --=---",
"1<<<=-<<<2<<=<-<<<         <=-<<",
"2222=2222222=2222         X =222",
"=================         o ====",
"=-------=-                O ----",
"=><<      ayrwqqq         + <<2<",
"=221 aaapupyr   q 66     .@ 2222",
"==== aaaaiay 70qq 9866   o$ ====",
"----      a 70  q 08466  O% =---",
"<<<<=-<<<<  7     865586 +& =<<<",
"2222=222222   222 76  56 @* =22<",
"================= 566665 # =====",
"=-------=-------=- 55666o ------",
"=-<<<<2<=><<<<<<=>>      -<<<<<<",
"=2222222=2222222=2222222=2222222"
};
