/* XPM */
static char *wall[] = {
/* columns rows colors chars-per-pixel */
"32 32 85 1",
"  c #353535",
". c #373737",
"X c #3E3E3E",
"o c gray25",
"O c #696969",
"+ c #767676",
"@ c #777777",
"# c #777777",
"$ c #777777",
"% c gray47",
"& c #787878",
"* c #797979",
"= c #797979",
"- c #797979",
"; c #797979",
": c gray48",
"> c #7A7A7A",
", c #7A7A7A",
"< c #7B7B7B",
"1 c #7B7B7B",
"2 c #7C7C7C",
"3 c #7C7C7C",
"4 c #7C7C7C",
"5 c #7D7D7D",
"6 c #7D7D7D",
"7 c #7E7E7E",
"8 c #7E7E7E",
"9 c gray50",
"0 c #7F7F7F",
"q c #808080",
"w c #808080",
"e c #818181",
"r c gray51",
"t c #848484",
"y c #848484",
"u c #848484",
"i c #848484",
"p c gray52",
"a c #858585",
"s c #858585",
"d c #858585",
"f c #868686",
"g c #868686",
"h c #868686",
"j c #868686",
"k c gray53",
"l c #878787",
"z c #878787",
"x c #888888",
"c c #888888",
"v c #888888",
"b c #888888",
"n c #898989",
"m c #898989",
"M c #898989",
"N c gray54",
"B c #8A8A8A",
"V c #8B8B8B",
"C c #8B8B8B",
"Z c gray55",
"A c #8D8D8D",
"S c #8E8E8E",
"D c gray57",
"F c #929292",
"G c #939393",
"H c #939393",
"J c #939393",
"K c gray58",
"L c #949494",
"P c #949494",
"I c #959595",
"U c #959595",
"Y c #959595",
"T c #959595",
"R c #969696",
"E c #969696",
"W c #979797",
"Q c #989898",
"! c gray60",
"~ c #999999",
"^ c #9A9A9A",
"/ c #9B9B9B",
"( c #9B9B9B",
") c gray61",
"_ c #9C9C9C",
/* pixels */
".XooooooooooooooooXXXoooooooooX.",
"XO-*:;;:*;:;:::;-&$@%&&**:-;:;OX",
"o:_TYYPPYPKUYUKPYJYYYYYUYYKYP_*o",
"o;P022<22>1<5<><2<22<22<<2><wE:o",
"o-Y<YQRQRQQR~QQQRRQRWYQRWQRR<Y&o",
"o-I>QDuNjzdasddksldmbNdszzGQ>Y;o",
"o=P<Qk7uduVmdbbdMsfdkifbs9zQ2Y;o",
"o:L<Qbd)QRQWWQRQQRQQQQQQ(uhR<Y-o",
"o-P2IljQ#<<2222<22><><-&QjlQ<L*o",
"o-L<QzbQ-AYPPEJYPEHIYGA<RllQ2P;o",
"o*E2RdsR5PBrrettppyatZP2QxfQ<U:o",
"o&L<QbdR<Pp6pptspppp9aL>QldQ>Y:o",
"o-Y2RgdQ<Ptt_TYTPUT_tpY2RdbQ2Y;o",
"o-Y>WbdQ2EtpU0><2>wYptY2QbdR2Y;o",
"o-P<QkmQ<LpaY<    <LtpL<QlkQ<L-o",
"o;P2QbiQ2PpaP5    2YyaL>QzuR2P;o",
"o*Y>QdnQ<PttL<    2PptU>QfbQ<I:o",
"o;Y2RszQ<PtpL<    5YtpP5Rkb~2Y=o",
"o:Y<QzfQ<YtpEw22328EptY<RusR>U-o",
"o-L<QlkQ<Ypg_YYPPPY_ttL<~bbQ<Y;o",
"o;U2QcsR2Ep4ttapppts7tY2RukQ<Y*o",
"o;U>RivR2PCpatptppapaBU>QjfR<Y-o",
"o:L<RdkQ<AHUYPYUPHEPIHS<Qzk^<L;o",
"o=P<QdbW&,><<<<2<222<23+QluR<T:o",
"o-Y2Rdd/QRQQQQR!QQ!Q!RQQ~lkW2U-o",
"o;P2RNqjbdlzbukkfbkfmdbkjquR<U:o",
"o;Y>RFdddjNsdbkdsdddjddbddG~2J;o",
"o:U<RQQQRQYQQRQQRQQRQQQQQRQP<Y-o",
"o-Y02><<2<<2<>2<<2>2<<>2<2>2wT;o",
"o*_UYUPUPPYPYKYYYYYYUPULYPIUP_:o",
"XO::*::-&&*:;;;;-;::;-;-;--:=:OX",
".XooooooooooooooooooooooooooooX."
};
