/* XPM */
static char *wall[] = {
/* columns rows colors chars-per-pixel */
"32 32 42 1 ",
"  c #353535",
". c #373737",
"X c #3E3E3E",
"o c #3F3F3F",
"O c #404040",
"+ c #6A6A6A",
"@ c #767676",
"# c #777777",
"$ c #787878",
"% c #797979",
"& c #7A7A7A",
"* c #7B7B7B",
"= c #7C7C7C",
"- c #7D7D7D",
"; c #7E7E7E",
": c #7F7F7F",
"> c #808080",
", c #818181",
"< c #828282",
"1 c #848484",
"2 c #858585",
"3 c #868686",
"4 c #878787",
"5 c #888888",
"6 c #898989",
"7 c #8A8A8A",
"8 c #8B8B8B",
"9 c #8C8C8C",
"0 c #8E8E8E",
"q c #8F8F8F",
"w c #919191",
"e c #929292",
"r c #939393",
"t c #949494",
"y c #959595",
"u c #969696",
"i c #979797",
"p c #989898",
"a c #999999",
"s c #9A9A9A",
"d c #9C9C9C",
"f c #9D9D9D",
/* pixels */
".XXOOOOOXXOOOOXXOXXXXXOOOOOOOOX.",
"X+&&&&&&&&&&&&&&&&&#&#&&&&&&&&+X",
"O&duuuuuuuuuuuwuuwuuuuuuuuuuud&O",
"O&u:&:&&:&&&:&&::&:&&&:&&&&&,u&O",
"X&u:uauauaauaaaauuauauaauaau&u&X",
"X&u&uw26262222222626662266wu&u&O",
"O&u&a2:222602662622222262:6a&u&O",
"O&w:a62aauauuaauuuaaaaaua22a&u&O",
"O&u&u26a#&:&:&&&&:&&&:&#a62a&w&O",
"O&u&u66u&0uuuuuuuawuuw0&u26a:u&O",
"O&u:u22u:w6,,,2,,222,0u&a62a&u&O",
"O&w&a62a&u2:22222222:2u&a22a&u&O",
"O&u:u22a&u22duuuuuud22u:a26u:u&O",
"X&u&u62a:u,2u:&&&&,u22u&a62a&u&O",
"O&u&a26a&u22u:    &u2,w:u62a&u&X",
"O&u&u62a&u22u&    :u22u&a22u&u&O",
"X&u&u26a&u,2u&..  &u22u&a26a&u&X",
"X&u:a26a&u22w& .  &u2,u&a26u:u&O",
"O&u&a22a&a22a:&&&::a22u&a22u&u&X",
"O&u&a62a&u22duuuuuua22w:a66a&u&O",
"O&u&u62u:u2:2222,222:2u&u22a&u&X",
"O&u&a26u&u0,,22222,226u&a26a:u&X",
"O&u&u22a&0wuuuuuuwauuw0&a62a&u&O",
"O&u&a26a&&&&&&&:&::&&::#a22u&u&O",
"O&u&u22aaaaauauaauaaaaaua62a:u&X",
"X&u:u6,662266262266262662:2u&u&O",
"O&u&aw22226226222222222622wa:w&O",
"O&u&uuaauauauaaaaaauaauaaaau&u&O",
"X&u::&:&:&&&&&:&&&:&&&&&&:&&,u&O",
"O&duuwuuwuuuuwuuuuuuuuuuuuuuua&O",
"X+&&&&&&&&&&&&&&&&&&&&&&&&&&&&+X",
".XOOOOOXOOOOOOOOOOOXOOOOXXOOOOX."
};
