/* XPM */
static char *collect[] = {
/* columns rows colors chars-per-pixel */
"16 16 86 1 ",
"  c #454441",
". c #444444",
"X c gray27",
"o c #464646",
"O c #474747",
"+ c #4C4941",
"@ c #4F4A40",
"# c #4F4B40",
"$ c #4C4A45",
"% c #494949",
"& c #4C4C4C",
"* c #4D4D4D",
"= c #4E4D4C",
"- c #4E4E4E",
"; c #4F4F4F",
": c #555149",
"> c #505050",
", c #515150",
"< c #515151",
"1 c #525150",
"2 c #525252",
"3 c #535352",
"4 c #535353",
"5 c #545454",
"6 c #5A5750",
"7 c #595959",
"8 c #5A5A5A",
"9 c #5B5B5B",
"0 c #5C5E5B",
"q c gray36",
"w c #6B5D40",
"e c #6F644E",
"r c #726343",
"t c #786844",
"y c #706449",
"u c #676050",
"i c #6A6251",
"p c #796F57",
"a c #797657",
"s c #7D785A",
"d c #927C4B",
"f c #847451",
"g c #907C50",
"h c #3EAC3E",
"j c #3CC73C",
"k c #3ED73E",
"l c #4BB04A",
"z c #75BA5E",
"x c #7FAA65",
"c c #4CCD4C",
"v c #4EDA4D",
"b c #6CC36B",
"n c #97804D",
"m c #9A824F",
"M c #9B844F",
"N c #948155",
"B c #9D8550",
"V c #918759",
"C c #90815E",
"Z c #AA9056",
"A c #AC9257",
"S c #AE9357",
"D c #B89D5C",
"F c #B99D5C",
"G c #BC9F5D",
"H c #8D8B63",
"J c #918F66",
"K c #969D6A",
"L c #A49060",
"P c #B59F6F",
"I c #8DBE7C",
"U c #B7A065",
"Y c #AEAF7B",
"T c #C2A560",
"R c #C3A561",
"E c #CDAE65",
"W c #8FD16F",
"Q c #B4B882",
"! c #C5B180",
"~ c #D0BA86",
"^ c #BCCA96",
"/ c #BFCE96",
"( c #BADFA0",
") c #D6C59E",
"_ c #D7D4A2",
"` c #D5D6A5",
/* pixels */
";<;;;>*;>>;>>>;;",
"qq<8004090>q9q>9",
";;<<&;>>;>>>;>>>",
"<qqq5000>qqq>qqq",
";<;;;UYVase6>>>>",
"q849qY)`_(^Cqq49",
";<<<uR~vkWEp;;>>",
"<qqqfD!jc)TK4qqq",
";>&&dAPIbzFGi:;;",
"qq4:dBKhlxZSN848",
";;<$wrtHJdMme;;>",
"48q8XOX. @#@Xqqq",
">>;;<<;;;;%;><;;",
"qq48q8<88q<8qq<8",
";>>>;<<<;;<>;<><",
"4qqq<qqq<8q84qq8"
};
