/* XPM */
static char *collect[] = {
/* columns rows colors chars-per-pixel */
"16 16 91 1",
"  c #4E493F",
". c #4F4A3F",
"X c #434343",
"o c #454441",
"O c #444444",
"+ c #464646",
"@ c #474646",
"# c #474747",
"$ c #4C4840",
"% c #4C4A45",
"& c #484848",
"* c #4C4C4C",
"= c #4D4D4C",
"- c #4D4D4D",
"; c #4E4D4D",
": c #4E4E4E",
"> c #4F4F4F",
", c #504F4F",
"< c #555149",
"1 c #505050",
"2 c #515150",
"3 c #515151",
"4 c #525252",
"5 c #535352",
"6 c #535353",
"7 c #545453",
"8 c #545454",
"9 c #595650",
"0 c #595959",
"q c #5A5A5A",
"w c #5B5B5B",
"e c #5C5C5B",
"r c #5C5D5B",
"t c #5C5E5A",
"y c gray36",
"u c #6A5D40",
"i c #6F6349",
"p c #6E644E",
"a c #676050",
"s c #6A6250",
"d c #726342",
"f c #776744",
"g c #796E56",
"h c #787556",
"j c #7C785A",
"k c #3EAC3E",
"l c #3CC63C",
"z c #3ED73D",
"x c #4AAF4A",
"c c #74BA5F",
"v c #7FAA63",
"b c #4BCC4B",
"n c #4DD94D",
"m c #6CC36B",
"M c #837451",
"N c #917B4B",
"B c #907B4F",
"V c #97804D",
"C c #9A824E",
"Z c #9B834F",
"A c #938055",
"S c #90805D",
"D c #918758",
"F c #9D8550",
"G c #8D8B62",
"H c #908F66",
"J c #969C6A",
"K c #8DBD7B",
"L c #AA9055",
"P c #AB9156",
"I c #AD9356",
"U c #B99D5B",
"Y c #B89C5C",
"T c #BB9F5C",
"R c #A39060",
"E c #B79F64",
"W c #B39F6F",
"Q c #AEAF7A",
"! c #8ED070",
"~ c #C1A460",
"^ c #C3A560",
"/ c #CDAD64",
"( c #C5B17F",
") c #B4B781",
"_ c #BBC995",
"` c #BFCE96",
"' c #BADEA0",
"] c #CFBA86",
"[ c #D6C79C",
"{ c #D6D3A1",
"} c #D5D6A5",
/* pixels */
":4:>4>:>>4:>44::",
"yy6www5wwr4yww4w",
":44>:>>4:>>4:44:",
"4yww8www5ryy4yyw",
":4:>>E)Dhjp9>4::",
"ww4wwQ`}{'_Sww6w",
":444a^]nz!/g::44",
"4ywwMY(lb[~R4rww",
">>==BPWKmcYTa4:>",
"ww6<NZJkxvLPAw4w",
">>4&udfGHVCFi>>>",
"6wwwo&@Xo   @yww",
">5=>5>::=:&:>4>:",
"ww6www4www5wwy6w",
":5>>:>44::4>:4>4",
"6yww6www6www6www"
};
