/* XPM */
static char *empty[] = {
/* columns rows colors chars-per-pixel */
"16 16 62 1",
"  c #4C4C4C",
". c #4D4D4D",
"X c #4D4D4D",
"o c #4D4D4D",
"O c #4D4D4D",
"+ c #4D4D4D",
"@ c #4D4D4D",
"# c #4D4D4D",
"$ c #4E4E4E",
"% c #4E4E4E",
"& c #4E4E4E",
"* c #4E4E4E",
"= c #4E4E4E",
"- c #4E4E4E",
"; c #4E4E4E",
": c gray31",
"> c #4F4F4F",
", c #4F4F4F",
"< c #4F4F4F",
"1 c #4F4F4F",
"2 c #4F4F4F",
"3 c #4F4F4F",
"4 c #4F4F4F",
"5 c #4F4F4F",
"6 c #4F4F4F",
"7 c #4F4F4F",
"8 c #505050",
"9 c #505050",
"0 c #505050",
"q c #505050",
"w c #505050",
"e c #505050",
"r c #515151",
"t c #515151",
"y c #515151",
"u c gray32",
"i c #525252",
"p c #525252",
"a c #525252",
"s c #525252",
"d c #525252",
"f c #525252",
"g c #535353",
"h c #535353",
"j c #535353",
"k c #535353",
"l c #535353",
"z c #535353",
"x c #535353",
"c c #535353",
"v c #5A5A5A",
"b c #5A5A5A",
"n c #5A5A5A",
"m c #5A5A5A",
"M c #5A5A5A",
"N c #5B5B5B",
"B c #5B5B5B",
"V c #5B5B5B",
"C c #5B5B5B",
"Z c #5B5B5B",
"A c #5C5C5C",
"S c #5C5C5C",
/* pixels */
"55o177 755+258.5",
"BVlmVNamMVhnMVgv",
"O555&685$7>9=q85",
"aVMZavAZtZNAymAZ",
"55#:58*;50.15qo<",
"BVamBZfNBZsNMZzn",
"@088@<5qX<70=75e",
"sCBVknVAgZbAubVA",
"55.775.555#257.4",
"NVjnnVjNNVhnMVcn",
"$>55-575%7>5X75w",
"kMmSdNnAdNMAdvZZ",
"55o,97X557&<55#>",
"NZrnBMfMZNimBViB",
"$087O387O380$:08",
"pVZZpVAVxMnAcmAZ"
};
