/* XPM */
static char *empty[] = {
/* columns rows colors chars-per-pixel */
"16 16 11 1 ",
"  c #4D4D4D",
". c #4E4E4E",
"X c #4F4F4F",
"o c #505050",
"O c #515151",
"+ c #525252",
"@ c #535353",
"# c #545454",
"$ c #5A5A5A",
"% c #5B5B5B",
"& c #5C5C5C",
/* pixels */
"oo..oo.ooooooo..",
"%%#%&&o&&&o%&&o%",
".ooooooo.ooooooo",
"o&%&o%&&o&&&o&&&",
"oo..oo..oo.ooo.o",
"&&#&&&#&&&o&&&#&",
".ooo..oo.ooo.ooo",
"o&&&#%&&#&&&o%&&",
"oo.ooo.ooo.o.o..",
"%&#&&&o&%&#&&&#%",
"..oo.ooo.ooo.ooo",
"#%&&o&&&o&&&o%&&",
"oo..oo.ooo.ooo.o",
"&&o%&&o&&&o&&&o%",
".ooo.ooo.ooo.ooo",
"o&&&o&&&#&&&#&&&"
};
