/* XPM */
static char *exit3[] = {
/* columns rows colors chars-per-pixel */
"16 16 67 1",
"  c #18110E",
". c #141414",
"X c #331904",
"o c #331A05",
"O c #31211C",
"+ c #31221C",
"@ c #31221D",
"# c #32221D",
"$ c #252525",
"% c #262626",
"& c #272727",
"* c #2B2321",
"= c #2E2623",
"- c #2F2724",
"; c #2D2D2D",
": c #2F2E2D",
"> c gray18",
", c #352E2B",
"< c #313131",
"1 c #373737",
"2 c #383838",
"3 c #393939",
"4 c #3A3A3A",
"5 c #3C3C3C",
"6 c #3F3F3F",
"7 c #4C2A13",
"8 c #4C2B13",
"9 c #4B342C",
"0 c #653208",
"q c #663208",
"w c #66330A",
"e c #67340B",
"r c #6B3810",
"t c #414141",
"y c #444444",
"u c #454545",
"i c #4D4D4D",
"p c #4E4E4E",
"a c #4F4F4F",
"s c #505050",
"d c #515151",
"f c #525252",
"g c #535353",
"h c #595959",
"j c #5A5A5A",
"k c #5B5B5B",
"l c #5C5C5C",
"z c #636363",
"x c #707070",
"c c #717171",
"v c #747474",
"b c #757575",
"n c #797979",
"m c #7A7A7A",
"M c #7B7B7B",
"N c #9A4E10",
"B c #9A4E11",
"V c #CB630E",
"C c #CB640F",
"Z c #CB6310",
"A c #CB6511",
"S c #CD6613",
"D c #CD6614",
"F c #CD6715",
"G c #D66F1F",
"H c #D67020",
"J c #818181",
/* pixels */
"aaiiaaiaaaiaaaia",
"kkgkkkakkkgkkkak",
"iaaaia$$&$4aaaaa",
"akkka<cvMJzugkkk",
"aaia&cxxvnJtaaia",
"kkgk>cxxcvntkkgk",
"aaaa3 3333,.iaaa",
"gkkkau@@@@-kgkkk",
"aaiaa*BAVS73aaii",
"kkakk@8SVB9>kkgk",
"aaaai- HGr@5iaaa",
"gkkkgk>A00kkgkkk",
"aaiaaa$S0eiaaaia",
"kkakkk$0XXgkkkgk",
"aaaaiaaaiaaaiaaa",
"akkkgkkkgkkkgkkk"
};
