/* XPM */
static char *exit2[] = {
/* columns rows colors chars-per-pixel */
"16 16 51 1 ",
"  c #19110E",
". c #161616",
"X c #31211B",
"o c #32221C",
"O c #32231D",
"+ c #262626",
"@ c #272727",
"# c #282828",
"$ c #292929",
"% c #2B2B2B",
"& c #2D2D2D",
"* c #2F2F2F",
"= c #362620",
"- c #302825",
"; c #342C29",
": c #333333",
"> c gray22",
", c #393939",
"< c #3B3B3B",
"1 c #3C3C3C",
"2 c #4F2D17",
"3 c #68350C",
"4 c #703D16",
"5 c #493128",
"6 c #4A3229",
"7 c #4B342B",
"8 c #614135",
"9 c #624236",
"0 c #444444",
"q c #454545",
"w c #4D4D4D",
"e c #4E4E4E",
"r c #4F4F4F",
"t c #505050",
"y c #515151",
"u c gray32",
"i c #535353",
"p c #545454",
"a c #565656",
"s c #5A5A5A",
"d c #5B5B5B",
"f c #5C5C5C",
"g c gray44",
"h c #767676",
"j c #7B7B7B",
"k c #9A4E10",
"l c #A75B20",
"z c #A85B21",
"x c #D5701F",
"c c #858585",
"v c #8C8C8C",
/* pixels */
"ttwwttwtttwtttwt",
"ddpffftffftdfftf",
"wtttw1@@@@tttttt",
"tddf1phjcv,ftfff",
"tttt,gggpX=@tttt",
"fftf,ggp559*ffpd",
"wttt*gg;959%wttt",
"pffft:, oo-ftdff",
"ttwtrw@kk%wtttwt",
"ffpfdd@35.tdffpf",
"wtttwt%x2 ttwttt",
"tdfftfqzzqffidff",
"ttwtttw44twrttww",
"fftdffp44ftdfdpf",
"wtttwtt*%tttwttt",
"pffftddftdffpdff"
};
