/* XPM */
static char *exit4[] = {
/* columns rows colors chars-per-pixel */
"16 16 59 1 ",
"  c #19120F",
". c #1D1512",
"X c #1C1C1C",
"o c #341A06",
"O c #31201A",
"+ c #31201B",
"@ c #31211B",
"# c #31211C",
"$ c #32211C",
"% c #32221D",
"& c #32231D",
"* c #262626",
"= c #282828",
"- c #2D2D2D",
"; c #2F2E2D",
": c gray18",
"> c #352C2A",
", c #352D2A",
"< c #333333",
"1 c #393939",
"2 c gray23",
"3 c #3C3C3C",
"4 c #3D3D3D",
"5 c #67340B",
"6 c #68350C",
"7 c #6A370F",
"8 c #4F3622",
"9 c #493028",
"0 c #493129",
"q c #503623",
"w c #614135",
"e c #624236",
"r c #444444",
"t c gray27",
"y c #4D4D4D",
"u c #4E4E4E",
"i c #4F4F4F",
"p c #505050",
"a c #525252",
"s c #535353",
"d c gray33",
"f c #555555",
"g c #5A5A5A",
"h c #5B5B5B",
"j c #5C5C5C",
"k c #696969",
"l c #6E6E6E",
"z c #6F6F6F",
"x c #707070",
"c c #717171",
"v c #727272",
"b c #767676",
"n c gray47",
"m c #9B4F11",
"M c #A15518",
"N c #DE782A",
"B c #E07A2C",
"V c #808080",
"C c #898989",
/* pixels */
"ppuuppupppupppuu",
"hjphjjpjjjpjjjph",
"upppup2****ppppp",
"pjjjprkCVnb<pjjj",
"ppupp.#>vzvz=pup",
"jjphj%9e>vzv;jdj",
"upppu%0e0pzd2ipp",
"djjjpt#%%X2tphjj",
"ppypppyom6upppup",
"hhshhh4 %6phjjsh",
"upppyp=%M7ppuppp",
"sghhahh8Nqjjphjj",
"ppypppu=N=upppup",
"hhshhhs-N,phjjph",
"upppupp4-4ppuppp",
"shhhshhhahjjsjjj"
};
