/* XPM */
static char *exit1[] = {
/* columns rows colors chars-per-pixel */
"16 16 68 1",
"  c #19120F",
". c #1A120F",
"X c #221F1E",
"o c #331A05",
"O c #31211B",
"+ c #31211C",
"@ c #31221C",
"# c #32221C",
"$ c #32231D",
"% c #262626",
"& c #272727",
"* c #2B2320",
"= c #2E2522",
"- c #2E2623",
"; c #282828",
": c #2D2D2D",
"> c #2E2E2E",
", c #302826",
"< c #342D2A",
"1 c #323232",
"2 c #3A3A3A",
"3 c #3B3B3A",
"4 c #3D3C3C",
"5 c #4C2A12",
"6 c #4C2A13",
"7 c #493129",
"8 c #4A3229",
"9 c #4A332A",
"0 c #4B342B",
"q c #4B352C",
"w c #653208",
"e c #663209",
"r c #663309",
"t c #67340B",
"y c #6B3810",
"u c #604035",
"i c #624136",
"p c #634237",
"a c #634338",
"s c #634438",
"d c #444444",
"f c #464646",
"g c #4D4D4D",
"h c #4E4E4E",
"j c #4F4F4F",
"k c #505050",
"l c #515151",
"z c #525252",
"x c #535353",
"c c #5A5A5A",
"v c #5B5B5B",
"b c #5C5C5C",
"n c #5D5D5D",
"m c #686868",
"M c #747474",
"N c #777777",
"B c #7F7F7F",
"V c #9A4E11",
"C c #CB630F",
"Z c #CB6310",
"A c #CC6512",
"S c #CC6613",
"D c #CE6816",
"F c #D56F1E",
"G c #D6701F",
"H c #D18343",
"J c #D98D4F",
"K c #888888",
/* pixels */
"jjhhjjhjjjhjjjhj",
"bbxcbbjbbbxbbbjb",
"hhjjhj%%;%3jjjjj",
"jbbbx1MNBKmdxbbb",
"jjjj;<++++#Xjjhj",
"bbjb>qp9p9p.bbxb",
"jjjj3qp9p9p-hjjj",
"xbbbxd##++,bjvbb",
"jjhjj*VSHJ53hjhh",
"bbjvc+5DCVq>bbjb",
"jjjjh- FFy#4jjjj",
"xvvbxv>Swwcbxbbb",
"jjhjjj%Srthjjjhj",
"bbjvbb%tooxbbbxc",
"hjjjhjjjhhjjhjjj",
"xbbnxbbbjbbbjbbb"
};
