/* XPM */
static char *exit1[] = {
/* columns rows colors chars-per-pixel */
"16 16 67 1 ",
"  c #1A120F",
". c #1B1310",
"X c #331A05",
"o c #341B06",
"O c #23201F",
"+ c #31211B",
"@ c #31221D",
"# c #32221C",
"$ c #32231D",
"% c #33231D",
"& c #262626",
"* c #2C2421",
"= c #2E2623",
"- c #292929",
"; c #2E2E2E",
": c #312926",
"> c #352D2A",
", c #333333",
"< c #3A3A3A",
"1 c #3B3B3B",
"2 c #3D3D3D",
"3 c #4C2A13",
"4 c #4C2B14",
"5 c #663208",
"6 c #663309",
"7 c #67340A",
"8 c #67340B",
"9 c #6C3911",
"0 c #4A3229",
"q c #4A322A",
"w c #4B342B",
"e c #4B342C",
"r c #4B352C",
"t c #4C352C",
"y c #604035",
"u c #624136",
"i c #634237",
"p c #634337",
"a c #634338",
"s c #634439",
"d c #444444",
"f c #464646",
"g c #4D4D4D",
"h c #4E4E4E",
"j c #4F4F4F",
"k c #505050",
"l c #525252",
"z c #535353",
"x c #5A5A5A",
"c c #5B5B5B",
"v c #5C5C5C",
"b c #5D5D5D",
"n c #686868",
"m c #757575",
"M c #787878",
"N c #9A4F11",
"B c #CB640F",
"V c #CB6410",
"C c #CC6512",
"Z c #CC6714",
"A c #CE6816",
"S c #D56F1F",
"D c #D6701F",
"F c #D18343",
"G c #DA8E50",
"H c #808080",
"J c #888888",
/* pixels */
"kkhhjkhkkkjkkkhj",
"cvkcvvkvvvkvvvzc",
"hkkkhj&&&&1khkjk",
"kvvvz,mMHJnfkcvv",
"kkhk->##%%+*kkhk",
"vvzv;tsqatt.vvzv",
"hkkk<tswsei=hkkk",
"zvvvkf##%%:vkcvv",
"kjjjj*NZFG41kkhj",
"cclcc*3ABNr;bbzc",
"jjjjj= SD9%rgjkk",
"lccclc;C55cbzcbb",
"jjjjjk&Z78gjjjgj",
"cblccb&7oozccbzc",
"jjjjhjjjghkkgjjk",
"lccbzccblccbzccb"
};
