/* XPM */
static char *exit2[] = {
/* columns rows colors chars-per-pixel */
"16 16 53 1",
"  c #18100D",
". c #161616",
"X c #30211B",
"o c #31211B",
"O c #32221D",
"+ c #252525",
"@ c #262525",
"# c #262626",
"$ c #272727",
"% c #282828",
"& c #2B2B2B",
"* c #2D2D2D",
"= c #2F2F2F",
"- c #352620",
"; c #302825",
": c #342C29",
"> c #323232",
", c gray22",
"< c #393939",
"1 c #3B3B3B",
"2 c #4E2D16",
"3 c #493128",
"4 c #4B332B",
"5 c #67350B",
"6 c #6F3C15",
"7 c #703D16",
"8 c #614135",
"9 c #624236",
"0 c #434343",
"q c #444444",
"w c #4C4C4C",
"e c #4D4D4D",
"r c #4E4E4E",
"t c #4F4F4F",
"y c #505050",
"u c #515151",
"i c #525252",
"p c #535353",
"a c #545454",
"s c #555555",
"d c #595959",
"f c #5A5A5A",
"g c #5B5B5B",
"h c #5C5C5C",
"j c gray44",
"k c #757575",
"l c #7B7B7B",
"z c #994E10",
"x c #9A4E10",
"c c #A75B20",
"v c #D56F1F",
"b c #858585",
"n c #8C8C8C",
/* pixels */
"tttttttttttttttt",
"ggtgggtgggtgggtg",
"ttttt1####tttttt",
"tggg1pklbn<gtggg",
"tttt,jjjpo-#tttt",
"ggpg,jjt339=ggtg",
"tttt=jj:939&tttt",
"tgggt,, OO;gtggg",
"tttttt#xx&tttttt",
"ggtggg#53.tgggtg",
"tttttt&v2 tttttt",
"tgggtgqccqggtggg",
"ttttttt77ttttttt",
"ggtgggt77gtgggtg",
"ttttttt=&ttttttt",
"tgggtgggtgggtggg"
};
