/* XPM */
static char *exit3[] = {
/* columns rows colors chars-per-pixel */
"16 16 59 1 ",
"  c #19110E",
". c #151515",
"X c #331904",
"o c #331A06",
"O c #32221C",
"+ c #32231D",
"@ c #262626",
"# c #2C2421",
"$ c #2E2623",
"% c #2F2725",
"& c #282828",
"* c #2E2E2E",
"= c #362E2B",
"- c #323232",
"; c #383838",
": c #393939",
"> c #3A3A3A",
", c #3D3D3D",
"< c #4C2B13",
"1 c #4C2B14",
"2 c #663208",
"3 c #663209",
"4 c #67340A",
"5 c #67350C",
"6 c #6B3910",
"7 c #4B342C",
"8 c #404040",
"9 c #424242",
"0 c #454545",
"q c #464646",
"w c #4D4D4D",
"e c #4E4E4E",
"r c #4F4F4F",
"t c #505050",
"y c #525252",
"u c #535353",
"i c #5A5A5A",
"p c #5B5B5B",
"a c #5C5C5C",
"s c #5D5D5D",
"d c #646464",
"f c #707070",
"g c #717171",
"h c #757575",
"j c #767676",
"k c #7A7A7A",
"l c #7B7B7B",
"z c #9B4E11",
"x c #9A4F11",
"c c #CB640F",
"v c #CB6410",
"b c #CC6411",
"n c #CC6512",
"m c #CD6614",
"M c #CD6715",
"N c #CD6815",
"B c #D6701F",
"V c #D67020",
"C c #818181",
/* pixels */
"tteettetttertter",
"patpaataaauapatp",
"etttrt@@@@:tettt",
"taaat-ghlCdquaaa",
"ttet&gfghlC9tter",
"aata-gffghl9aaup",
"ettt: ::::=.ertt",
"uaaatq++++%atpaa",
"ttett#xbcM<:ttee",
"aataa+1Ncx7*aaua",
"ettte# BB6+,ettt",
"tpaaua*b33aataaa",
"ttettt@M35etttet",
"aauaaa@4XXupaaup",
"etttetttetttettt",
"taaauaaataaatpaa"
};
