/* XPM */
static char *exit4[] = {
/* columns rows colors chars-per-pixel */
"16 16 61 1",
"  c #19110F",
". c #1D1512",
"X c #1C1C1C",
"o c #331A05",
"O c #30201A",
"+ c #31201B",
"@ c #31211B",
"# c #32221C",
"$ c #32221D",
"% c #252525",
"& c #262626",
"* c #272727",
"= c #282828",
"- c #2D2D2D",
"; c #2E2D2D",
": c gray18",
"> c #342C29",
", c #352D2A",
"< c #323232",
"1 c #383838",
"2 c #3A3A3A",
"3 c #3B3B3B",
"4 c #3D3D3D",
"5 c #483027",
"6 c #4F3522",
"7 c #4F3622",
"8 c #493128",
"9 c #67340B",
"0 c #6A370F",
"q c #614034",
"w c #624135",
"e c #434343",
"r c #444444",
"t c #454545",
"y c #4C4C4C",
"u c #4D4D4D",
"i c #4E4E4E",
"p c #4F4F4F",
"a c #505050",
"s c #515151",
"d c #525252",
"f c #535353",
"g c #545454",
"h c #5A5A5A",
"j c #5B5B5B",
"k c #5C5C5C",
"l c #696969",
"z c #6E6E6E",
"x c #6F6F6F",
"c c #707070",
"v c #717171",
"b c #727272",
"n c #757575",
"m c #787878",
"M c #9A4E10",
"N c #A05418",
"B c #DE782A",
"V c #DF792B",
"C c #E07A2C",
"Z c #808080",
"A c #888888",
/* pixels */
"ppiippipppppppii",
"jjpjjjpjjjpjjkpj",
"ippppp2%*%%ppppp",
"pjjjpelAZmn<pjjj",
"ppipp.O>vxbx=syp",
"jjpjj#8w,xzb,kfh",
"ppppi#8w8fzf2ssp",
"gjjjpt@#$X1rshhh",
"psyppsyoM9ysusyp",
"hkpjjk3 $9shhkdh",
"ipspyp*$N0ssyspp",
"pjkkphh6B6hhshkh",
"ssypspy*B*yppsyp",
"hhdhhkd-B-dhhksh",
"ysppyps4=4spyspp",
"dhhhdkhkfkhhdhhk"
};
