/* XPM */
static char *f1[] = {
/* columns rows colors chars-per-pixel */
"16 16 57 1",
"  c #040404",
". c #070707",
"X c #0E0E0E",
"o c #02071B",
"O c #03071B",
"+ c #151515",
"@ c #1C1C1C",
"# c #040D37",
"$ c #040E37",
"% c #050E37",
"& c #081139",
"* c #2A1C17",
"= c #2B1D18",
"- c #35251E",
"; c #252525",
": c #262626",
"> c #272727",
", c #2C2C2C",
"< c #2D2D2D",
"1 c #2D2333",
"2 c #2D2434",
"3 c #3D2F2A",
"4 c #3F312C",
"5 c #3A3A3A",
"6 c #3D3D3D",
"7 c #081653",
"8 c #081A6E",
"9 c #091C6E",
"0 c #0B1D6E",
"q c #102373",
"w c #3E4653",
"e c #40332E",
"r c #41332E",
"t c #4A3229",
"y c #53372D",
"u c #54382E",
"i c #55392F",
"p c #553A30",
"a c #563B31",
"s c #563C32",
"d c #694639",
"f c #434343",
"g c #4D4D4D",
"h c #4F4F4F",
"j c #454C52",
"k c #505050",
"l c #525252",
"z c #595959",
"x c #5A5A5A",
"c c #5B5B5B",
"v c #754F41",
"b c #765143",
"n c #7E5445",
"m c #81594A",
"M c #81594B",
"N c #9F6B58",
"B c #A16F5C",
/* pixels */
"hhhhhhhhhhhhhhgh",
"cchccchccchccchc",
"hhhhhh::::5hghhh",
"hccch+.X@,:fhccc",
"hhhh:*ppyiy.hhhh",
"cchc,mipdin*cchc",
"hhhh5mbbBiN4ghhh",
"hccchfpt-prchccc",
"hhhhh470jw25hhhh",
"cchcca1087M,cchc",
"hhhhg4*qq&p6hhhh",
"hccchc,8##cchccc",
"hhhhhh:8$$hhhhhh",
"cchzcc:#oohccchc",
"ghhhhhhhhhhhghhh",
"hccchccchccchccc"
};
