/* XPM */
static char *f2[] = {
/* columns rows colors chars-per-pixel */
"16 16 46 1",
"  c black",
". c gray1",
"X c #0B0B0B",
"o c #121212",
"O c #131313",
"+ c #161616",
"@ c gray9",
"# c #060F38",
"$ c #0B153C",
"% c #0C153C",
"& c #2A1C17",
"* c #2A1D17",
"= c #212121",
"- c #252525",
"; c gray15",
": c #272727",
"> c #282828",
", c #2A2A2A",
"< c #2D2D2D",
"1 c #2F2634",
"2 c gray20",
"3 c #3A3A3A",
"4 c #3B3B3B",
"5 c #081653",
"6 c #111F5A",
"7 c #102373",
"8 c #41322D",
"9 c #54382E",
"0 c #54392E",
"q c #553A30",
"w c #563C32",
"e c #593C32",
"r c #5E3F33",
"t c #5F3F33",
"y c #694639",
"u c #444444",
"i c #4D4D4D",
"p c #4F4F4F",
"a c #505050",
"s c #525252",
"d c #595959",
"f c #5A5A5A",
"g c #5B5B5B",
"h c #815A4A",
"j c #885A49",
"k c #A9725E",
/* pixels */
"pppppppppppppppp",
"ggpgggpgggpgggpd",
"ppppp4;;;;ppippp",
"pggg4 Xo;2=gpggg",
"pppp     0e:pppp",
"ggpg    y0t<ggpg",
"ppppo  *ktj;pppp",
"pgggp@ *qq8gpggg",
"ppippp;55>pppppp",
"ggpggg;#h@pgggpg",
"pppppp:71*pppppp",
"pgggpgu66uggpggg",
"ppppppp$$pippppp",
"ggpgggp$$gpgggpd",
"ppppppp<;ppppppp",
"pgggpgggpgggpggg"
};
