/* XPM */
static char *f3[] = {
/* columns rows colors chars-per-pixel */
"16 16 46 1",
"  c black",
". c #010101",
"X c #080808",
"o c #090909",
"O c gray5",
"+ c #02071B",
"@ c #03071B",
"# c #121212",
"$ c #131313",
"% c #151515",
"& c #1C1C1C",
"* c #1D1D1D",
"= c #040D37",
"- c #040E37",
"; c #050E37",
": c #081139",
"> c #2A1D18",
", c #2B1D18",
"< c #252525",
"1 c #272727",
"2 c #2D2D2D",
"3 c #2D2333",
"4 c #2D2434",
"5 c #3D2F2A",
"6 c #3A3A3A",
"7 c #3D3D3D",
"8 c #081653",
"9 c #081A6E",
"0 c #091C6E",
"q c #0A1D6E",
"w c #0B1D6E",
"e c #102373",
"r c #40332E",
"t c #41342E",
"y c #553A30",
"u c #563B31",
"i c #563C32",
"p c #434343",
"a c #4D4D4D",
"s c #4F4F4F",
"d c #505050",
"f c #525252",
"g c #595959",
"h c #5A5A5A",
"j c #5B5B5B",
"k c #81594B",
/* pixels */
"ssssssssssssssss",
"jjsjjjsjjjsjjjsj",
"ssssss<<<<6sssss",
"sjjjs% o%**psjjj",
"ssss<   X#*#ssss",
"jjsj2    X#Ojjsg",
"ssss6,    >%ssss",
"sjjjspuuuurjsjjj",
"ddasd5899q36ssss",
"jjsjji3q98k2jjsj",
"ssddar>ee:u7ssss",
"djjjsj29==jjsjjj",
"sdasss<q==ssssss",
"jjdjjj<=++sjjjsj",
"assdssssssssasss",
"sjjjsjjjdjjjsjjj"
};
