/* XPM */
static char *f4[] = {
/* columns rows colors chars-per-pixel */
"16 16 50 1",
"  c black",
". c #070707",
"X c #0E0E0E",
"o c #02071B",
"O c #161616",
"+ c #1C1C1C",
"@ c #050F37",
"# c #060F38",
"$ c #081139",
"% c #1D2135",
"& c #2A1C17",
"* c #2B1E19",
"= c #2F211C",
"- c #34231D",
"; c #252525",
": c #262626",
"> c #272727",
", c #282828",
"< c #2C2C2C",
"1 c #2D2D2D",
"2 c #3A3A3A",
"3 c #3B3B3B",
"4 c #3C3C3C",
"5 c #3D3D3D",
"6 c #081653",
"7 c #0C1A56",
"8 c #162A78",
"9 c #172A78",
"0 c #182B79",
"q c #53372D",
"w c #54372D",
"e c #54382E",
"r c #55392F",
"t c #553A2F",
"y c #563B31",
"u c #563C32",
"i c #5F3F34",
"p c #6A473B",
"a c #424242",
"s c #434343",
"d c #444444",
"f c #4D4D4D",
"g c #4F4F4F",
"h c #505050",
"j c #525252",
"k c #595959",
"l c #5A5A5A",
"z c #5B5B5B",
"x c #7F5546",
"c c #895C4B",
/* pixels */
"gggggggggggggggg",
"zzgzzzgzzzgzzzgz",
"gggggg2;;;;ggggg",
"gzzzga;<+X.Ogzzz",
"ggggg*e&    ;ggg",
"zzgzz-qp*   <zgz",
"gggggqicc   2ggg",
"gzzzgseye  dgzzz",
"hhfggggo6@gggggg",
"zzgzzz2*y#gzzzhz",
"gggggg>e7$ggfggg",
"gzzzgzz%8%zzgzzz",
"ggggghg,0,fggggg",
"zzgkzzg<0<gzzzhz",
"fgghghg5,5ggfggg",
"gzzzgzzzgzzzgzzz"
};
