/* XPM */
static char *opps[] = {
/* columns rows colors chars-per-pixel */
"16 16 62 1 ",
"  c gray2",
". c #080808",
"X c #0F0F0F",
"o c #02071C",
"O c #03081C",
"+ c #161616",
"@ c #1D1D1D",
"# c #040D37",
"$ c #040E37",
"% c #050E37",
"& c #050F38",
"* c #060F38",
"= c #09123A",
"- c #262626",
"; c #272727",
": c #282828",
"> c #2D2D2D",
", c #2E2E2E",
"< c #362C28",
"1 c #372D29",
"2 c #3B3B3B",
"3 c #3D3D3D",
"4 c #453733",
"5 c #4A3F3B",
"6 c #4C413D",
"7 c #4C423E",
"8 c #4E423E",
"9 c #091753",
"0 c #091754",
"q c #393343",
"w c #3A3444",
"e c #091B6E",
"r c #0A1C6F",
"t c #0A1D6F",
"y c #0C1E6F",
"u c #112373",
"i c #112474",
"p c #3F4853",
"a c #444444",
"s c #454545",
"d c #4D4D4D",
"f c #4F4F4F",
"g c #5F4D46",
"h c #454C52",
"j c #505050",
"k c #515151",
"l c #525252",
"z c #535353",
"x c #5B5B5B",
"c c #5C5C5C",
"v c #5D5D5D",
"b c #6D564E",
"n c #6D574F",
"m c #6D5850",
"M c #6E5951",
"N c #886C62",
"B c #95786D",
"V c #977A6F",
"C c #A38276",
"Z c #A58579",
"A c #CCA394",
"S c #CDA697",
/* pixels */
"jjdjjjdjjjdjjjdf",
"xvjxvvjvvvjvvvjx",
"ddjjdj----2jdjjj",
"jvvvj+.X@,-szvvv",
"jjdj:1mmnnn jjdd",
"vvjx,ZnmNnC<vvjv",
"djjj3ZVVSnS6djjj",
"zvvvjsmg4m8vjvvv",
"kkhjj59thhq2jkdj",
"xvzxvmwte9Z,xxzx",
"dkjjds1uu=m3djjj",
"jxMxzx,e##xvzxxv",
"kkdjjj-t&&dkjjdj",
"vvjxxv-&oozxxvzx",
"djkkdjjjdjjjdjjj",
"zxxvzxxxzxxxzxxv"
};
