/* XPM */
static char *opps[] = {
/* columns rows colors chars-per-pixel */
"16 16 74 1",
"  c #040404",
". c #080808",
"X c #0E0E0E",
"o c #02071B",
"O c #161616",
"+ c #1C1C1C",
"@ c #040D37",
"# c #050E37",
"$ c #08123A",
"% c #252525",
"& c #262625",
"* c #262626",
"= c #272626",
"- c #272727",
"; c #2D2D2C",
": c #2D2D2D",
"> c #362B27",
", c #372C28",
"< c #3A3A3A",
"1 c #3E3E3E",
"2 c #081653",
"3 c #091753",
"4 c #081B6E",
"5 c #091B6E",
"6 c #091C6E",
"7 c #0A1D6F",
"8 c #0C1E6F",
"9 c #102373",
"0 c #112373",
"q c #393343",
"w c #3A3444",
"e c #3F4753",
"r c #443732",
"t c #493E3A",
"y c #4C403C",
"u c #4C423E",
"i c #4E423F",
"p c #444444",
"a c #4C4C4C",
"s c #4C4D4D",
"d c #4D4D4D",
"f c #4C4D4E",
"g c #4D4E4D",
"h c #4E4E4E",
"j c #4F4F4F",
"k c #444B52",
"l c #4E4F50",
"z c #4F5050",
"x c #5F4C45",
"c c #505050",
"v c #515151",
"b c #515251",
"n c #525252",
"m c #535353",
"M c #535453",
"N c #545454",
"B c #5A5A5A",
"V c #5B5A5A",
"C c #5B5B5B",
"Z c #5D5C5B",
"A c gray36",
"S c #6C574F",
"D c #6D574F",
"F c #6D584F",
"G c #6D5950",
"H c #6E5951",
"J c #866C62",
"K c #95776C",
"L c #977A6F",
"P c #A28276",
"I c #A48578",
"U c #A58579",
"Y c #CBA394",
"T c #CEA697",
/* pixels */
"jjhhjjhjjjhjjjhj",
"CCmCCCjCCCjZCCmC",
"hjjjhj%%-%<jhjjj",
"mCCCmO.X+:-pmCCC",
"jjhj-,DDDDD jjhj",
"CCmC:UDGJDP>CCmC",
"hjjj<ULLTDTykzjj",
"mCCCjpGxrGpANHCC",
"jjhjhy26keq<hzhh",
"CCjCBGw863U:ZCMB",
"zjjjhu,09$G1hchj",
"mCCCMB:6@@ZCjCCC",
"jjhjzz%6#$fzjjjj",
"CCmCAA%@oozACCmC",
"jjjjfhjjfzNzkzjj",
"jCCCMACANBAAzHCC"
};
