/* XPM */
static char *p1[] = {
/* columns rows colors chars-per-pixel */
"16 16 71 1",
"  c gray2",
". c gray3",
"X c #0F0E0E",
"o c #161616",
"O c #1C1C1C",
"+ c #2A1C17",
"@ c #2B1D18",
"# c #321904",
"$ c #331A05",
"% c #252525",
"& c #262626",
"* c #272727",
"= c #2D2D2D",
"- c #2E2D2C",
"; c #3E302A",
": c #3F312C",
"> c #3A3A3A",
", c #3B3B3B",
"< c #3E3E3E",
"1 c #5D361C",
"2 c #5C361E",
"3 c #41332E",
"4 c #43342F",
"5 c #54382D",
"6 c #55382E",
"7 c #55392F",
"8 c #553A30",
"9 c #563A30",
"0 c #563B31",
"q c #563B32",
"w c #563C32",
"e c #653208",
"r c #653209",
"t c #663309",
"y c #66340A",
"u c #6B3810",
"i c #444444",
"p c #454545",
"a c #4C4C4C",
"s c #4D4D4D",
"d c #4E4E4E",
"f c #4F4F4F",
"g c #505050",
"h c #515151",
"j c #525252",
"k c #535353",
"l c #545454",
"z c #5A5A5A",
"x c #5B5B5B",
"c c gray36",
"v c #7E5546",
"b c #7F5647",
"n c #9A4E10",
"m c #9A4F11",
"M c #805647",
"N c #81584A",
"B c #82594B",
"V c #825A4B",
"C c #815A4C",
"Z c #A9705C",
"A c #AA715D",
"S c #AB735F",
"D c #AC7663",
"F c #CB630F",
"G c #CB6410",
"H c #CC6512",
"J c #CC6613",
"K c #CD6815",
"L c #D6701F",
"P c #D18343",
"I c #DA8E50",
/* pixels */
"ffddfgdgffddffdg",
"xxkxcxfccxkxxxkz",
"dfffaf%%&%>fdfgf",
"fxxxko.XO-%pkxxz",
"ffdf*@77577 ffdf",
"xxkx-VAMZvZ+xxkx",
"fffk,CDVDvA3dfff",
"kxxxfp97994xkxxx",
"ffafd3mGPI1>ffdf",
"xxjzz85KFmC-xxkx",
"dfjfd3@LLu9<dfff",
"kxxxjz-Geexxkxxx",
"fjafff*Jeydfffdf",
"xxjxxx%y$$kxxxkc",
"ajffdfffdfffdfff",
"jxxxkxxxkzxxkxxx"
};
