/* XPM */
static char *p1[] = {
/* columns rows colors chars-per-pixel */
"16 16 68 1 ",
"  c gray2",
". c #080808",
"X c #0F0F0F",
"o c #161616",
"O c #1D1D1D",
"+ c #331905",
"@ c #331A06",
"# c #2A1C17",
"$ c #2B1D18",
"% c #2B1E19",
"& c #262626",
"* c #282828",
"= c #2D2D2D",
"- c #2E2E2E",
"; c #3E302B",
": c #3F312C",
"> c #3B3B3B",
", c #3E3E3E",
"< c #5E361C",
"1 c #5D371F",
"2 c #663208",
"3 c #663209",
"4 c #66340A",
"5 c #67350B",
"6 c #6B3911",
"7 c #41332E",
"8 c #42342F",
"9 c #54372D",
"0 c #55392F",
"q c #563A30",
"w c #563B31",
"e c #563C32",
"r c #573C33",
"t c #444444",
"y c #454545",
"u c #4D4D4D",
"i c #4E4E4E",
"p c #4F4F4F",
"a c #505050",
"s c #515151",
"d c #525252",
"f c #535353",
"g c #5B5B5B",
"h c #5C5C5C",
"j c #5D5D5D",
"k c #7F5646",
"l c #9A4E11",
"z c #9A4F11",
"x c #CB6410",
"c c #CC6410",
"v c #CC6612",
"b c #CC6714",
"n c #CD6815",
"m c #D6701F",
"M c #D67120",
"N c #805747",
"B c #805748",
"V c #82594A",
"C c #825A4B",
"Z c #825A4C",
"A c #A9715C",
"S c #A9715D",
"D c #AA725D",
"F c #AA725E",
"G c #AB735F",
"H c #AC7763",
"J c #D18343",
"K c #DA8E51",
/* pixels */
"aaiaaaiaaaiaaaii",
"gjaggjajhhajjjfh",
"iiaaia&&&&>aiaaa",
"ajjjfo.XO-&taghj",
"aaia*%qq900 aaia",
"jjag-ZFNFNA#jjfg",
"iaaa>ZHVHkF7ipaa",
"fjjjfy0qeq8jagjj",
"ssusi7zcJK<>aiia",
"ggdggw9nxzV-jjah",
"usssu8%Mm6q,iaaa",
"dgggdg-c22jjajjj",
"ssusaa&b25iaaaia",
"ggdgjj&4@@ajjjag",
"ussiiaaaiaaaiaaa",
"fgggajjjajjjajjj"
};
