/* XPM */
static char *p2[] = {
/* columns rows colors chars-per-pixel */
"16 16 51 1",
"  c black",
". c #080808",
"X c #0E0E0E",
"o c #161616",
"O c #1C1C1C",
"+ c #2A1C17",
"@ c #2B1E19",
"# c #331A05",
"$ c #2F201B",
"% c #252525",
"& c #262626",
"* c #272727",
"= c #282828",
"- c #2C2C2C",
"; c #2D2D2D",
": c #3A3A3A",
"> c #3C3C3C",
", c #3D3D3D",
"< c #3F3F3F",
"1 c #4F3522",
"2 c #54372D",
"3 c #54382E",
"4 c #55392E",
"5 c #553A2F",
"6 c #563B31",
"7 c #66340A",
"8 c #67350C",
"9 c #6A370F",
"0 c #444444",
"q c #454545",
"w c #4C4C4C",
"e c #4D4D4D",
"r c #4E4E4E",
"t c #4F4F4F",
"y c #505050",
"u c #515151",
"i c #525252",
"p c #535353",
"a c #5A5A5A",
"s c #5B5B5B",
"d c #5C5C5C",
"f c #7E5444",
"g c #7F5545",
"h c #7F5546",
"j c #994E0F",
"k c #A15518",
"l c #A9715C",
"z c #A9725D",
"x c #DE782A",
"c c #E07A2B",
"v c #E07A2C",
/* pixels */
"yyeeyyeyyyeyyyee",
"sdydsdydsdysddyd",
"eyyyey&&&&:yeyyy",
"ydddpo.XO;&0yddd",
"yyey=    +3@yyey",
"ddps;   +lf2ddyd",
"eyyy:   lll$eyyy",
"ydddyq  116qyddd",
"yywyyyw8j#eyyywy",
"sspassp82O<saspa",
"wyyywyy9k2&yeyyy",
"pssspss1x1aspsss",
"yywyyye=v=wyyywy",
"sspsssi;v;paasps",
"eyyywyy,=,yyeyyy",
"pssspsssissspsss"
};
