/* XPM */
static char *p2[] = {
/* columns rows colors chars-per-pixel */
"16 16 52 1 ",
"  c black",
". c #080808",
"X c #0E0E0E",
"o c #161616",
"O c #1D1D1D",
"+ c #331A06",
"@ c #2A1D17",
"# c #2B1D18",
"$ c #2C1F1A",
"% c #2F211C",
"& c #262626",
"* c #272727",
"= c #282828",
"- c #2C2C2C",
"; c #2D2D2D",
": c #2E2E2E",
"> c #3A3A3A",
", c gray24",
"< c #67340B",
"1 c #68350C",
"2 c #6A380F",
"3 c #4F3622",
"4 c #54382D",
"5 c #55382E",
"6 c #55392E",
"7 c #553A2F",
"8 c #553A30",
"9 c #563B31",
"0 c #563C31",
"q c #404040",
"w c #444444",
"e c gray27",
"r c #4C4C4C",
"t c #4D4D4D",
"y c #4E4E4E",
"u c #4F4F4F",
"i c #505050",
"p c #515151",
"a c #525252",
"s c #535353",
"d c #5B5B5B",
"f c #5C5C5C",
"g c #5D5D5D",
"h c #7E5444",
"j c #7F5546",
"k c #7F5646",
"l c #9A4E10",
"z c #A15519",
"x c #DF792A",
"c c #E07A2B",
"v c #E07A2C",
"b c #AA725D",
/* pixels */
"iitiiitiiitiiiti",
"dgidggigggidggid",
"tiiiii&&&&>itiii",
"igggio.XO:&eiggg",
"iiti=    O4@iiti",
"ggsd:   @bh3ggig",
"tiii>   hbb3tiii",
"igggse  599eiggg",
"syyypyt<l+yyppry",
"dgsddds29$qddgsg",
"yyysyyy2z8=pyyys",
"sgdgsgd3x3ddsdgd",
"ysryysy=x=yppyyp",
"gdsdggs;v;sddgsd",
"yppytyy,=qypyyys",
"sgggsgddsdggsddg"
};
