/* XPM */
static char *p3[] = {
/* columns rows colors chars-per-pixel */
"16 16 58 1 ",
"  c #010101",
". c #080808",
"X c gray4",
"o c gray5",
"O c #131313",
"+ c #141414",
"@ c #161616",
"# c gray9",
"$ c #1D1D1D",
"% c #1E1E1E",
"& c #331A05",
"* c #341A06",
"= c #2B1E19",
"- c #2C1E19",
"; c #2C1E1A",
": c #252525",
"> c #262626",
", c #282828",
"< c gray18",
"1 c #2F2F2F",
"2 c #3D302B",
"3 c #3A3A3A",
"4 c #3B3B3B",
"5 c #3D3D3D",
"6 c #5E361D",
"7 c #663208",
"8 c #663309",
"9 c #67340A",
"0 c #67350C",
"q c #6B3810",
"w c #60381D",
"e c #40332E",
"r c #42342F",
"t c #563A30",
"y c #563C32",
"u c #573C32",
"i c #573C33",
"p c #573D34",
"a c #444444",
"s c #454545",
"d c #4D4D4D",
"f c #4E4E4E",
"g c #4F4F4F",
"h c #505050",
"j c #525252",
"k c #535353",
"l c #5B5B5B",
"z c #5C5C5C",
"x c #5D5D5D",
"c c #9A4E10",
"v c #9A4F11",
"b c #CB640F",
"n c #CB6410",
"m c #CC6612",
"M c #CC6714",
"N c #CD6815",
"B c #D67020",
"V c #825A4C",
/* pixels */
"hhdhhhdhhhhhhhdh",
"lxhlxxhxxxhlxxhl",
"ddhhdh>>>>3ddhhh",
"hxxxk# XO%%ahlxx",
"hhdh,   XO%+hhdh",
"xxhx1    .Ooxxhx",
"dhhh5;    ;#dhhh",
"kxlxhsttytrxhxxx",
"hhdhh2vmnM63dhdh",
"lxkllp6NnvV1xlhl",
"dhhhde;BBqy5ddhh",
"hlxxhx1n88xxkxxx",
"hhdhhh>M80dhhhdd",
"xxhxxx>8**hlxxkx",
"dhhhdhhhdhhhdhhh",
"hxxxhxxxhxxxkllx"
};
