/* XPM */
static char *p3[] = {
/* columns rows colors chars-per-pixel */
"16 16 59 1",
"  c #010101",
". c #070707",
"X c #080808",
"o c #090909",
"O c #0C0C0C",
"+ c #121212",
"@ c #131313",
"# c gray8",
"$ c #161616",
"% c #1D1D1D",
"& c #1E1E1E",
"* c #2B1D18",
"= c #2B1E19",
"- c #331905",
"; c #331A05",
": c #252525",
"> c #262626",
", c #272727",
"< c #2D2D2D",
"1 c #2E2E2E",
"2 c #3D2F2A",
"3 c #3F332E",
"4 c #3A3A3A",
"5 c #3D3D3D",
"6 c #5D361C",
"7 c #43342F",
"8 c #553A30",
"9 c #563B31",
"0 c #563C32",
"q c #573D33",
"w c #653209",
"e c #663208",
"r c #663308",
"t c #66330A",
"y c #67350C",
"u c #6B380F",
"i c #60381D",
"p c #444444",
"a c #4C4C4C",
"s c #4D4D4D",
"d c #4E4E4E",
"f c #4F4F4F",
"g c #505050",
"h c #525252",
"j c #535353",
"k c #5A5A5A",
"l c #5B5B5B",
"z c #5C5C5C",
"x c #994E10",
"c c #9A4E11",
"v c #825A4C",
"b c #CB630F",
"n c #CB640F",
"m c #CB6512",
"M c #CC6614",
"N c #CC6715",
"B c #CD6815",
"V c #D5701F",
"C c #D6701F",
/* pixels */
"ggsggfsgggsgggsf",
"kzgklzgzzzgkzzgk",
"sgggfg>>>>4fsggg",
"gzzzg$ o#&&pjlzz",
"ggsg,   X+&+ggsf",
"zzjk1    .+Olzgl",
"sggg4=    =$sfgg",
"gzzzgp09907ljzzz",
"ffsff2cmbN64ffsf",
"lzjlk0iNbcv1lljk",
"sfggs7=CCu05ssff",
"glzzgl1beelzjlzz",
"ggsfff>Ntysfggsf",
"zzglll>e;;gzlzjk",
"sgggsfffsfggsfff",
"gzzzjllzjlzzgzlz"
};
