/* XPM */
static char *p4[] = {
/* columns rows colors chars-per-pixel */
"16 16 49 1",
"  c black",
". c #020202",
"X c #0B0B0B",
"o c #131313",
"O c #151515",
"+ c #171717",
"@ c #2A1C17",
"# c #212121",
"$ c #252525",
"% c #262626",
"& c #272727",
"* c #282828",
"= c gray17",
"- c #2D2D2D",
"; c #323232",
": c #3A3A3A",
"> c #41322D",
", c #54382E",
"< c #563A30",
"1 c #563C32",
"2 c #593C32",
"3 c #68350C",
"4 c #6F3C15",
"5 c #703D16",
"6 c #613920",
"7 c #434343",
"8 c #444444",
"9 c #4C4C4C",
"0 c #4D4D4D",
"q c #4E4E4E",
"w c #4F4F4F",
"e c #505050",
"r c #515151",
"t c #525252",
"y c #535353",
"u c #5A5A5A",
"i c #5B5B5B",
"p c #5C5C5C",
"a c #7E5445",
"s c #7F5445",
"d c #7F5546",
"f c #9A4E10",
"g c #A75A20",
"h c #A75B20",
"j c #81594A",
"k c #A86F5B",
"l c #A8705B",
"z c #A9725D",
"x c #D56F1F",
/* pixels */
"ee00wwqwwwqwwrqw",
"ipyiipriiptuiiru",
"0eee9w%%%%:rqerw",
"eiipt@;%oX.8riii",
"ee0e*2,     rrqw",
"ppei-zaj    upru",
"0eee%zjz@  +qwer",
"epppe>,<@ +priii",
"eeqewe$ff*0eee0e",
"iituipoj3-yiiiyi",
"qwewqw@,x*ee9eee",
"tuiiti7hh8ipyiii",
"ee9wee044e9eee9e",
"iitiiiy44iyiiiei",
"qeee0ee=*eee0eee",
"tpiiyiiiyiiiyiii"
};
