/* XPM */
static char *p4[] = {
/* columns rows colors chars-per-pixel */
"16 16 49 1 ",
"  c black",
". c #030303",
"X c #0B0B0B",
"o c #131313",
"O c #141414",
"+ c #161616",
"@ c #171717",
"# c #2A1C17",
"$ c #2B1C17",
"% c #2B1D18",
"& c #212121",
"* c #262626",
"= c #282828",
"- c #2B2B2B",
"; c #2E2E2E",
": c #333333",
"> c #3B3B3B",
", c #68350C",
"< c #703D16",
"1 c #41332E",
"2 c #55382E",
"3 c #563B30",
"4 c #573D32",
"5 c #593D33",
"6 c #613A21",
"7 c #444444",
"8 c #454545",
"9 c #4C4C4C",
"0 c #4D4D4D",
"q c #4E4E4E",
"w c #4F4F4F",
"e c #505050",
"r c #515151",
"t c #525252",
"y c #535353",
"u c #5B5B5B",
"i c #5C5C5C",
"p c #5D5D5D",
"a c #7F5445",
"s c #7F5545",
"d c #7F5646",
"f c #9A4F10",
"g c #9B4F11",
"h c #A75B20",
"j c #D5701F",
"k c #825A4B",
"l c #A8705B",
"z c #A9705C",
"x c #AA725E",
/* pixels */
"rr00re0ree0rrr0e",
"uiriiiriuiyiuiru",
"0rrr0r****>r0err",
"riiiy&:*OX 8riii",
"rr0r=52     rr0r",
"iiru;zss    iiru",
"0rrr*zkz%  O0err",
"riuiy124% @iyuii",
"rr0err*gg=0err0e",
"uiruiiOk,;yuuiru",
"0rrr0r%6j=rr0err",
"ruiiru8hh8iiruii",
"rr0err0<<r0rrr0e",
"iiruiir<<iruiiru",
"0rrr0rr-=rrr0rrr",
"riiiruiiyuiiruii"
};
