/* XPM */
static char *p_push1[] = {
/* columns rows colors chars-per-pixel */
"16 16 48 1",
"  c black",
". c #050505",
"X c #070707",
"o c #0E0E0E",
"O c #141414",
"+ c #151515",
"@ c #161616",
"# c #1B1B1B",
"$ c #1E1E1E",
"% c #2B1E19",
"& c #331A05",
"* c #381E0B",
"= c #252525",
"- c #262626",
"; c #272727",
": c #282828",
"> c #2A2A2A",
", c #2D2D2D",
"< c #3A3A3A",
"1 c #3C3C3C",
"2 c #49301B",
"3 c #4A311D",
"4 c #5E381F",
"5 c #41322D",
"6 c #53382D",
"7 c #54392E",
"8 c #54392F",
"9 c #67340B",
"0 c #424242",
"q c #434343",
"w c #4D4D4D",
"e c #4F4F4F",
"r c #505050",
"t c #525252",
"y c #595959",
"u c #5A5A5A",
"i c #5B5B5B",
"p c #7E5646",
"a c #9E5215",
"s c #A3571C",
"d c #A5591E",
"f c #805848",
"g c #A8705B",
"h c #A8715C",
"j c #A9735F",
"k c #AB7561",
"l c #DE7829",
"z c #E07A2C",
/* pixels */
"eeeeeeeeeeeeeeee",
"iieiiieiiieiiiey",
"eeeeeeeeweeeeeee",
"eiiieiiieiiieiii",
"eeeeeeeeeeeeeeee",
"iieiiieiiieiiiey",
"eeeeweeeee==<eee",
"eiiieiiieO   0ii",
"reereeee:    Xee",
"iieii0;2&    oei",
"eee=2da99j7 XOee",
"ei*lldp4&kgpo$ii",
"ee*::O71=h6gO=ee",
"iieii,%ii566#iei",
"ereeeeereeeeeeee",
"eiiieiiieiiieiii"
};
