/* XPM */
static char *p_push2[] = {
/* columns rows colors chars-per-pixel */
"16 16 43 1",
"  c black",
". c #010101",
"X c #0B0B0B",
"o c #101010",
"O c #111111",
"+ c #121212",
"@ c gray9",
"# c #191919",
"$ c #1B1B1B",
"% c #2A1C17",
"& c #2A1D17",
"* c #381E0B",
"= c #212121",
"- c #252525",
"; c gray18",
": c #3A3A3A",
"> c #3C3C3C",
", c #3F3F3F",
"< c #5F381F",
"1 c #54382D",
"2 c #54382E",
"3 c #67340B",
"4 c #6E3B14",
"5 c #6F3C15",
"6 c #703D16",
"7 c #434343",
"8 c #4D4D4D",
"9 c #4F4F4F",
"0 c #505050",
"q c #525252",
"w c #595959",
"e c #5A5A5A",
"r c #5B5B5B",
"t c #7E5344",
"y c #9E5215",
"u c #A6591E",
"i c #815849",
"p c #A86F5B",
"a c #A8705B",
"s c #A9715C",
"d c #AA725E",
"f c #AC7662",
"g c #DB7526",
/* pixels */
"9999999999999999",
"rr9rrr9rrr9rrr9w",
"9999999989998999",
"9rrr9rrr9rrr9rrr",
"9999999999899999",
"rr9rrr9rrr9rrr9r",
"9999899999999999",
"9rrr9rrr9rrr9rrr",
"908999999:  +999",
"rr9rrr9r7    #9r",
"99999---+    X99",
"0r*54gy332   +rr",
"99*55ui<3fp%X#99",
"rr9rr@%;@s2s+=9r",
"89009999:tppX>99",
"9rrrqrrr97;;7rrr"
};
