/* XPM */
static char *wall[] = {
/* columns rows colors chars-per-pixel */
"16 16 20 1 ",
"  c #353535",
". c #474747",
"X c #5B5B5B",
"o c #5C5C5C",
"O c #5D5D5D",
"+ c #7E7E7E",
"@ c #7F7F7F",
"# c #838383",
"$ c #848484",
"% c #858585",
"& c #878787",
"* c #888888",
"= c #898989",
"- c #8A8A8A",
"; c #8E8E8E",
": c #8F8F8F",
"> c #909090",
", c #919191",
"< c #929292",
"1 c #969696",
/* pixels */
".OOOXOOOOXXOOOO.",
"O<**&&*&******<O",
"O*1:::::::::<1*O",
"O&<*:<::::::*:*O",
"O&::+&&&*&&+:<&O",
"O*::*##&&#&&::&O",
"O*::*#<*&<#*::*O",
"O*<:*&&  &&&::*O",
"O*::&#&  *#&:<&O",
"O&::*&<**<&*::&O",
"O&::*&&#&&#&::*O",
"O*::+&**&&&+::&O",
"O*:*:::::::<*:*O",
"O*1::::::::::1*O",
"O<**&***&*****<O",
".OOOOOOOOOOOOOO."
};
