/* XPM */
static char *wall[] = {
/* columns rows colors chars-per-pixel */
"16 16 91 1",
"  c #353535",
". c #474747",
"X c #5A5A5A",
"o c #5B5B5B",
"O c #5C5C5C",
"+ c #5C5C5C",
"@ c #5C5C5C",
"# c #5C5C5C",
"$ c #5C5C5C",
"% c #5C5C5C",
"& c #5C5C5C",
"* c #5C5C5C",
"= c #5C5C5C",
"- c #5C5C5C",
"; c #5D5D5D",
": c #7E7E7E",
"> c #7E7E7E",
", c #7E7E7E",
"< c #7F7F7F",
"1 c #838383",
"2 c #838383",
"3 c #848484",
"4 c #848484",
"5 c #848484",
"6 c #848484",
"7 c #848484",
"8 c #848484",
"9 c #848484",
"0 c #848484",
"q c gray52",
"w c #858585",
"e c #858585",
"r c #878787",
"t c #878787",
"y c #878787",
"u c #878787",
"i c #878787",
"p c #888888",
"a c #888888",
"s c #888888",
"d c #888888",
"f c #888888",
"g c #888888",
"h c #888888",
"j c #888888",
"k c #888888",
"l c #888888",
"z c #888888",
"x c #888888",
"c c #888888",
"v c #898989",
"b c #898989",
"n c #898989",
"m c #898989",
"M c #8E8E8E",
"N c #8E8E8E",
"B c #8E8E8E",
"V c #8E8E8E",
"C c #8E8E8E",
"Z c #8E8E8E",
"A c #8E8E8E",
"S c #8E8E8E",
"D c #8E8E8E",
"F c #8F8F8F",
"G c #8F8F8F",
"H c #8F8F8F",
"J c #8F8F8F",
"K c #8F8F8F",
"L c #8F8F8F",
"P c #8F8F8F",
"I c #8F8F8F",
"U c #8F8F8F",
"Y c #8F8F8F",
"T c #8F8F8F",
"R c #8F8F8F",
"E c #8F8F8F",
"W c #8F8F8F",
"Q c #8F8F8F",
"! c #909090",
"~ c #909090",
"^ c gray57",
"/ c #919191",
"( c #919191",
") c #919191",
"_ c #919191",
"` c #929292",
"' c #929292",
"] c #959595",
"[ c #959595",
"{ c gray59",
"} c #969696",
/* pixels */
".$--%-;-@Xo+&*-.",
"-/xasactaxlklu`&",
"&a]JJVHHZPECY{d#",
"*uQvN^LJPDDTbHl*",
"&pFW:gcacrt>HRp%",
"+lJMh215q9wuWDs;",
"&hGSz3)fa`6xJJx=",
"*aQUpez  f7tEZp*",
"%hC!i3y  c6hS~j*",
"=aEJhw'kh_3aKHs*",
"=fSAc748q06gCSh$",
"*uZT,tskyci<EGs-",
"*kHnJEKLTITQmBj=",
"-s[SAJJHCZGYZ}a*",
"$(gaagullhapgd)-",
".;&=O&==*;***=*."
};
