/* XPM */
static char *collect[] = {
/* columns rows colors chars-per-pixel */
"48 48 177 2 ",
"   c #3E3E3E",
".  c #4A463E",
"X  c #4E493E",
"o  c #42413E",
"O  c #65593F",
"+  c #424242",
"@  c #4D4940",
"#  c #4B4B4B",
"$  c #514D42",
"%  c #5A5345",
"&  c #5D584D",
"*  c #535353",
"=  c #5C5C5C",
"-  c #5A5750",
";  c #625740",
":  c #6D5F40",
">  c #615B4E",
",  c #5F6E51",
"<  c #6E6040",
"1  c #63694A",
"2  c #716242",
"3  c #7E6A40",
"4  c #72654A",
"5  c #76744F",
"6  c #6B6559",
"7  c #746A54",
"8  c #796C51",
"9  c #7D7053",
"0  c #77705E",
"q  c #6C7A59",
"w  c #816D42",
"e  c #867145",
"r  c #887347",
"t  c #847449",
"y  c #8A7649",
"u  c #8E7849",
"i  c #947D4C",
"p  c #8E7D53",
"a  c #887B56",
"s  c #927E54",
"d  c #00A100",
"f  c #00AC00",
"g  c #00B300",
"h  c #00BB00",
"j  c #0EB90E",
"k  c #1DBB1D",
"l  c #19A619",
"z  c #26A926",
"x  c #2BBD2B",
"c  c #34AD34",
"v  c #37BE37",
"b  c #37B336",
"n  c #00C600",
"m  c #00CD00",
"M  c #1EC51E",
"N  c #20D320",
"B  c #2ED32E",
"V  c #3CCB3C",
"C  c #3BC63B",
"Z  c #3DD03C",
"A  c #48AC48",
"S  c #4DB24D",
"D  c #51BF51",
"F  c #788965",
"G  c #6BB66B",
"H  c #72BB6B",
"J  c #76B676",
"K  c #40D740",
"L  c #40D940",
"P  c #5FDF5F",
"I  c #6CC36C",
"U  c #6BDD64",
"Y  c #7ADC7A",
"T  c #76D476",
"R  c #7CE37C",
"E  c #97804C",
"W  c #9A834E",
"Q  c #978251",
"!  c #9E8551",
"~  c #9E8A5C",
"^  c #97855A",
"/  c #A08751",
"(  c #A38A53",
")  c #A88E55",
"_  c #A28C5B",
"`  c #AC9256",
"'  c #AD9359",
"]  c #B19659",
"[  c #B59A5A",
"{  c #BA9E5C",
"}  c #BEA15E",
"|  c #988862",
" . c #9C9262",
".. c #9F947F",
"X. c #AF9861",
"o. c #A69265",
"O. c #B09861",
"+. c #B39C68",
"@. c #B09D71",
"#. c #A4AB78",
"$. c #BBA778",
"%. c #A5B27F",
"&. c #B8B77C",
"*. c #C0A35F",
"=. c #C3A561",
"-. c #C6A862",
";. c #CBAC64",
":. c #C3AD69",
">. c #CDB46D",
",. c #D2B167",
"<. c #D3B369",
"1. c #C2AD7D",
"2. c #D3B777",
"3. c #CEC17A",
"4. c #D1C47C",
"5. c #A79B82",
"6. c #A19681",
"7. c #8FB890",
"8. c #94BC94",
"9. c #99B799",
"0. c #9FBD9F",
"q. c #B7A783",
"w. c #B7AB8F",
"e. c #B2A58B",
"r. c #A0B684",
"t. c #B7BD83",
"y. c #B6AD99",
"u. c #B9B5AB",
"i. c #D4BF85",
"p. c #CEBC92",
"a. c #8BCF8B",
"s. c #99C199",
"d. c #9FCA9E",
"f. c #ADC08B",
"g. c #BEC082",
"h. c #A4C493",
"j. c #AECE9C",
"k. c #AAC59B",
"l. c #B5CA96",
"z. c #8FE98F",
"x. c #9FEC9F",
"c. c #B5D8A2",
"v. c #BFD4B4",
"b. c #BDE3AA",
"n. c #B5E7B5",
"m. c #BFF2BF",
"M. c #C1C687",
"N. c #DAC38C",
"B. c #C6DA9B",
"V. c #CBC0A4",
"C. c #C9C2B3",
"Z. c #CEC7BA",
"A. c #E2D6A9",
"S. c #E8D8B3",
"D. c #C3E9AE",
"F. c #C4E4A8",
"G. c #D2EDAC",
"H. c #C8EAB6",
"J. c #CBF3B6",
"K. c #D2FBBC",
"L. c #CECBC3",
"P. c #C6DDC7",
"I. c #DFD9C8",
"U. c #D8D3C4",
"Y. c #D7D7D6",
"T. c #E2DBCA",
"R. c #DAEAC2",
"E. c #CEF5CE",
"W. c #E8E0CF",
"Q. c #EEE2C6",
"!. c #EBE4D2",
"~. c #E2E1DD",
"^. c #F0E9D7",
"/. c #F3EBD8",
"(. c #EFEEE9",
"). c #F7F8F6",
"_. c #F6F7F6",
/* pixels */
"# # # # # # # # # # # # # # # # # # # # # # # # # # # # # # # # # # # # # # # # # # # # # # # # ",
"# * # * * # # # * * # * * # # * * * # # * # # * # * * * # * # # * # * # # * # * # * # # * * # # ",
"* * * = * = # * * * * * * * = * * * # # * * * * * * = * = * # * * * = * = * * = = = # # * * * * ",
"= = = = = = # * = * = = = = = = = = # * = = = = = = = = = * # * * = = = * = = = = = # * = = * = ",
"= = = = = = # * = = = = = = = = = = # * = = = = = = = = = = # * = = = = = = = = = = # * = = = = ",
"= = = = = = # * = = = = = = = = = = # * = = = = = = = = = = # * = = = = = = = = = = # * = = = = ",
"# # # # # # # # # # # # # # # # # # # # # # # # * # # # # # # # # # # # # # # # # # # # # # # # ",
"# # * # * # * * * * # * # # * # * * # # * * # * # # * # * * # * # # * * # # * * # * * # * * # * ",
"# # * * * = * * * = * * # # * * * * * = = * * = # * * * * * = * * = * = # * * * * = * = * = * * ",
"# * = = = = = = = = = = # * = = = = = = * = = = # * = * = = = = = = = = # * * = = = = = = = = * ",
"# * = = = = = = = = = = # * = = = = = = = = = , # * = = = = = = = = = = # * = = = = = = = = = = ",
"# * = = = = = = = = = = # = = = = = = = = = = = # * = = = = = = = = = = # * = = = = = = = = = = ",
"# # # # # # # # # # # # # # # 8 o.) ( ( ! ! ( ) > > > - # # # # # # # # # # # # # # # # # # # # ",
"* * # * # * # # * # * * * # * ,.;.O.q.#.g.t t Q a p Q ! 8 8 8 8 - # # * * * * * * * # # * * # * ",
"* * * = = * # * * * * * * * * ;.,.M.K.b.J.l.F 1 1 q r.5 t.t.i i s s 0 * * * * * * = # * * * * * ",
"= = = = = * # * = = * = = = = 0 g.h.s.v.i.F.c.G.,.<.;.r.D.c.j.l.~ _ a = * = = = = = # * = = * = ",
"= = = = = = # * = = = = = = = | &.j.j.b.3.>.&.<.S.S.S.S.F.F.0.H.N.,.^ = = = = = = = # * = = = = ",
"= = = = = = # * = = = = = = = *.:.B.D.B.>./././.E.x.).U K.F.F.H.3.,.| = = = = = = = # * = = = = ",
"* # # # # # # # # # # # # # > =.*.;.*.*.^.z.m m m P m.L Q.2.,.,.,.;.9 # # # # # # # # # # # # # ",
"# # # * * * * * * # * * # # _ *.;.*.;.*.^.m Z R m m m N H.i.;.;.;.X.* * # # * * # # * * * * * * ",
"# * * * * = * * - = * = # 7 ] =.*.*.} } W.m R _.B n.B m R p.;.;.;.X.* * # # - * * * * = * * * * ",
"# * = = = = * = = = = = # t ] O.} } } } T.h T _.Z _.V (.!.2.-.-.-.;.| = # * = = = , = = = = = = ",
"# * = = = = = = = = = = # 8 ] { [ } [ { T.h C T V n.M T.=.=.=.*.=.:.X.6 # * = = = = = = = = = = ",
"# * = = = = = = = = = = & / ] [ [ [ [ [ U.g g h j k h ~.p.*.*.*.} } } X.# * = = = = = = = = = = ",
"# # # # # # # # # # # # > ( ) [ ] ] ] ] V.U.a.j v k g x P.p.[ { } } *.{ > # # # # # # # # # # # ",
"# * # * * # # # # # * # % ( ) ) ] ] ` ' ` +.Z.b Y.I D g I 1.{ { } *.{ { ! * * * * # # * * * # * ",
"* * * * * = # * * * * + r Q ( ( ( ( ) q.C.C.L.c Y.G d.g H $.[ [ { { { { ] 9 * * * = # * * * * * ",
"= = = = = = # * = = # @ i / i ( ( ( ( w.c z 0.z s.S H d G $.[ [ ` ` [ { ] ] 6 * = = # * = * * = ",
"= = = = = = # * = * + 2 u i i / / ( / e.J d d d d d d l s.@.) ) ` ` ` ` ` ' > * = = # * = = = = ",
"= = = = = = # * = * + < r y i i i i i _ u.8.A G G A 8.s.w._ ( ( ( ( ` ` ) ) & * = = # * = = = = ",
"* # # # # # # # @ # o O w w w y r r i u u | H 9.9.J  .W W W ! ( / / ( ( ( s $ + + # # # # # # # ",
"# # * # * # * * * # + % O w 3 w w w w w w p 6...5.5.^ E W E W W W W / W / 4 + # * * # * # * * * ",
"# * * * * * = * * * + +   X X X @ @ @ @ < 3 w w w w r i i i i i i i W u y @ + # = * * * = * * * ",
"# * = = = = = = = = * # +               +   + + + + O O : : : : 2 : 2 @ + + + = = = = = = = = = ",
"# * = = = = = = = = = = + + + + + + + + + + + + +   + o +     + +   + + + + # = = = = = = = = = ",
"# * = = = = = = = = = = # # * * * * * * * # + # + + + +   + +       + + + # = = = = = = = = = = ",
"# # # # # # # # # # # # # # # # # # # # # # # + @ + + + + + + + + + + + # # # # # # # # # # # # ",
"* # * * * # # # # * # * * * * # # * # # * # # * * * # * # * # + # # * * * * * * * # # # * * # # ",
"* * * * * = # * * * * * = * * * * = # # * * * * * * * * * = # * * * * * * * * * * = # * = * * * ",
"= = = = = = # * = = * = = = = = = = # # = = = = * = = = = = # * = = = * = = = = = = # * = * = = ",
"= = = = = = # * = = = = = = = = = = # * = = = = = = = = = = # * = = = = = = = = = = # * = = = = ",
"= = = = = = # * = = = = = = = = = = # * = = = = = = = = = = # * = = = = = = = = = = # * = = = = ",
"# # # # # # # # # # # # # # # # # # # # # # # # * # # # # # # # # # # # # # # # # # # # # # # # ",
"# # * # * * # * * * # * # # * * * # * * * * # * # # # # * * * * * * * # # * * # * * # * # * * # ",
"# # * * = * * = * = * * # # * * = * * * * = * = # * * * * * * * = * * * # # * * * * * = * = * * ",
"# * = = = = = = = = = = # # = = = = = = = = = = # * = = = = = = = = = = # * = = = = = = = = = = ",
"# * = = = = = = = = = = # * = = = = = = = = = = # * = = = = = = = = = = # * = = = = = = = = = = ",
"# = = = = = = = = = = = # - = = = = = = = = = = # * = = = = = = = = = = # = = = = = = = = = = = "
};
