/* XPM */
static char *opps[] = {
/* columns rows colors chars-per-pixel */
"48 48 138 2 ",
"   c black",
".  c #010101",
"X  c gray2",
"o  c #060606",
"O  c gray3",
"+  c gray4",
"@  c #0C0C0C",
"#  c gray5",
"$  c #0E0E0E",
"%  c #02071C",
"&  c #03081C",
"*  c #101010",
"=  c #131313",
"-  c #161616",
";  c gray9",
":  c #1B1614",
">  c #1C1614",
",  c #191919",
"<  c #1D1D1D",
"1  c #040D37",
"2  c #040E37",
"3  c #050E37",
"4  c #050F37",
"5  c #060F37",
"6  c #060F38",
"7  c #071038",
"8  c #09123A",
"9  c #0C163D",
"0  c #202020",
"q  c #232323",
"w  c gray15",
"e  c #282828",
"r  c gray16",
"t  c #2A2A2A",
"y  c gray17",
"u  c #2C2C2C",
"i  c #2D2D2D",
"p  c gray18",
"a  c #2F2F2F",
"s  c #362C28",
"d  c #372C29",
"f  c gray19",
"g  c gray20",
"h  c gray21",
"j  c #393939",
"k  c #3A3A3A",
"l  c gray24",
"z  c #493E3A",
"x  c #4B403C",
"c  c #4C413D",
"v  c #4E433F",
"b  c #51413B",
"n  c #727137",
"m  c #727138",
"M  c #091753",
"N  c #393343",
"B  c #3A3444",
"V  c #06186D",
"C  c #07196E",
"Z  c #081A6E",
"A  c #081B6E",
"S  c #091B6E",
"D  c #091C6E",
"F  c #0A1D6E",
"G  c #0A1D6F",
"H  c #0B1D6F",
"J  c #0B1E6E",
"K  c #0B1E6F",
"L  c #0C1E6F",
"P  c #0D1F6F",
"I  c #0D1F70",
"U  c #0E2070",
"Y  c #112474",
"T  c #122574",
"R  c #182B79",
"E  c #3F4853",
"W  c gray25",
"Q  c gray27",
"!  c #464646",
"~  c #4B4B4B",
"^  c gray30",
"/  c gray31",
"(  c #5F4C44",
")  c #5F4C45",
"_  c #5F4D46",
"`  c #454C52",
"'  c #505050",
"]  c #515151",
"[  c #535353",
"{  c gray33",
"}  c #555555",
"|  c #565656",
" . c #585858",
".. c gray35",
"X. c #5A5A5A",
"o. c #5B5B5B",
"O. c gray36",
"+. c #5D5D5D",
"@. c gray37",
"#. c #6D564E",
"$. c #6D574E",
"%. c #6D574F",
"&. c #6D5850",
"*. c #6E5850",
"=. c #6E5951",
"-. c #6E5A52",
";. c #837F37",
":. c #848137",
">. c #D8C300",
",. c #FFE500",
"<. c #A38377",
"1. c #A48276",
"2. c #A58579",
"3. c #A5857A",
"4. c #A5867A",
"5. c #B18F82",
"6. c #B39084",
"7. c #D9AC9B",
"8. c #D9AD9C",
"9. c #DAAD9D",
"0. c #D9AE9D",
"q. c #DAAE9D",
"w. c #D9AE9E",
"e. c #DAAE9E",
"r. c #DAAF9F",
"t. c #DBB09F",
"y. c #DAB0A0",
"u. c #DBB0A0",
"i. c #DBB0A1",
"p. c #DBB1A1",
"a. c #DBB1A2",
"s. c #DBB2A2",
"d. c #DBB2A3",
"f. c #DCB0A0",
"g. c #DCB1A1",
"h. c #DCB1A2",
"j. c #DCB2A3",
"k. c #DCB3A3",
/* pixels */
"~ ~ / ~ ~ ~ ~ ~ ~ ~ ~ ~ ~ ~ / ~ ~ ~ ~ ~ ~ ~ ~ ~ ~ ~ ~ ~ ~ ~ ~ ~ ~ ~ ~ ~ ~ ~ ~ ~ ~ ~ ~ ~ ~ ~ ~ ~ ",
"/ / ' ' / / ~ / / / / / / / ' ' / / ~ / / / / / / / / ' ' ' ~ / / / / / / / ' ' ' ' ~ / / / / / ",
"} } } } } } ~ / } } } } } } } } } } ~ / } } } } } } } } } } ~ / [ } [ } } } } } } } ~ / [ } [ } ",
"............~ ' ..} ....} ..........~ ' } ..} ..............~ '  . . . .............~ '  . . . .",
"..@...@.@.@.~ ' ....@...@.@...@.@.@.~ ' ..@...@...@.@...@.@./ ' ..O.O.O...O.O.@.@.@.~ ' O.O.O.O.",
"@.@.@.@.@.@./ } @.@.@.@.@.@.@.@.@.@./ ' @.@.@.@.@.@.@.@.@.@.~ } @.@.@.@.@.@.@.@.@.@.~ } @.@.@.@.",
"/ ~ ~ ~ ~ ~ ~ ~ ~ ~ ~ ~ ~ ~ ~ ~ / ~ ~ ~ ~ ~ ~ ~ ~ ~ ~ ~ ~ / ~ ~ ~ ~ ~ ~ ~ ~ ~ ~ ~ ~ ~ ~ ~ ~ ~ ~ ",
"~ / / / / / / / / / / / ~ / / / / / w w w w w w w w w w w w w k / ' ' ' ~ / / / ' ' ' / / ' ' ' ",
"~ / ' } } } } } } } } } ~ / ' } } }                           y }  .}  .~ ' [ } [ } } } } } } } ",
"~ / ....} ..........@.../ ' ....u   # # = , < 0 w u g k l W ! q   ....../ ' .... . ... .....O...",
"~ } ..@...@.@.....@.@.@.~ ' ..u ;   o + + # # = ; < q y u u h w , u ! @.~ ' @...O.O.O.O.+.@.O.@.",
"~ ' @.@.@.@.@.@.@.@.@.@./ } @.                  o # = , < q w y u   u @.~ [ @.@.@.@.@.@.@.@.@.@.",
"~ ~ / ~ ~ ~ ~ ~ ~ ~ ~ ~ ~ w                                       = +   ~ ~ ~ ~ ~ ~ ~ ~ ~ ~ ~ ~ ",
"/ / ' ' / / ~ / / / / / / w     s %.%.=.=.=.*.%.%.%.%.%.%.*.%.%.%.+ o   / ' ' ' ' ' ~ / / ' / / ",
"} } } } } } / ' ' } } } } y     %.w.w.w.t.g.t.w.7.7.7.7.w.w.w.w.w.      [ } }  .}  .~ / [ { } [ ",
"............~ ' ..........u     =.w.w.w.w.g.w.w.7.7.w.w.w.t.w.w.9.      ............~ '  . . . .",
"O.O.O.O.O.@./ ' O...o.O.@.u   =.2.s.%.%.%.=.=.%.%.%.%.%.%.=.%.<.9.%.s   O.@.O.O.@.O.~ [ ..O.O.O.",
"@.@.@.@.@.@.~ { @.@.@.@.@.f   g.g.k.            <.b           %.9.w.%.  @.@.@.@.@.@.~ [ @.@.@.@.",
"~ ~ ~ ~ ~ ~ ~ ~ ~ ~ ~ ~ ~ w   g.k.k.5.>     : 6.g.u.)       ) w.9.7.%.  ~ ~ ~ ~ ~ ~ ~ ~ ~ ~ ~ ~ ",
"~ / / / / / / ' ' ' ' ' ~ k y =.2.g.w.<.%.=.2.g.s.s.w.%.%.%.7.w.w.%.z y ~ ^ / / ' ' ' ' ' ' ' ' ",
"~ ' { { { } { } } } }  .~ / }   =.s.w.w.w.s.s.g.d.d.u.s.w.w.w.w.w.  u  ./ ' ' } [ } } } } } }  .",
"~ ' }  . .............../ ' } ..u   w.w.w.w.w.) d d 5.k.g.s.w.%.  ......~ ' .. . . . ...........",
"/ ' o.o.o.o.O.O.O.@.@.@.~ ' @...! u =.*.%.%.=.=.=.=.-.-.-.-.%.v u @.@.@.~ ' ..@.O.O.O.O.@.@.O.@.",
"~ } @.@.@.@.@.@.@.@.@.@.~ { @.@.@.@.                          d @.@.@.@.~ } @.@.@.@.@.@.@.@.@.@.",
"~ ~ ~ ~ ~ ~ ~ ~ ~ ~ ~ ~ ~ ~ ~ ~ w   G P U G G D V V S G P U G 5   ~ ~ ~ ~ ~ ~ ~ ~ ~ ~ ~ ~ ~ ~ ~ ",
"/ / ' ' ' ' ~ / / / / / / / / w x *.5 M P G G D V ` ;.m E I 5 N %.w k / / ' ' ' / / ~ / / / / / ",
"{ } } } }  .~ / } } } } } } }   $.w.  5 G G V I V ;.,.>.n G   *.w.  y { } } } } } } ~ / ' } } } ",
"............~ ' }  . ... .....  =.s.  5 P G I A V S I I P G   =.s.  u  ............./ ' ....} ..",
"O.O.O.O.@.@.~ ' ..o.@...o.o.@.  =.s.=.B 6 I I I V S G I M 5 =.2.g.  u O.o.O.@...@.@.~ ' ..@...@.",
"@.@.@.@.@.@.~ } @.@.@.@.@.@.@.  =.k.g.=.  U I A I V G U 7   g.g.g.  g @.@.@.@.@.@.@./ } @.@.@.@.",
"~ ~ ~ ~ ~ ~ ~ ~ ~ ~ ~ ~ ~ ~ ~   =.k.g.=.. R R R R R R R 9   k.g.s.  w ~ ~ ~ ~ ~ ~ ~ ~ ~ ~ ~ ~ ~ ",
"~ / / / ' ' ' ' / ' / / ~ / / y c =.=.d . T T U T U T T 8   =.=.=.y l / ~ / / / / / / / / / / / ",
"~ ' { { { } } } } } }  .~ ' { } y         G G G S G S G 6         } } } / / ' } } { } } } } } } ",
"~ '  . . . . ...........~ '  . .......u   G S V   1 V G 2   ........O.../ ' .... . ...........o.",
"~ { ..o.o.O.o.@.@.@.O.@./ ' ..O.@...@.u   S S S   1 S S 2   ..@.O.@.@.@.~ ' ......@...@.@.@.@.@.",
"~ { @.@.@.@.@.@.@.@.@.@.~ { @.@.@.@.@.u   S S S   6 G V 6   @.@.@.@.@.@.~ } @.@.@.@.@.@.@.@.@.@.",
"~ ~ ~ ~ ~ ~ ~ ~ ~ ~ ~ ~ ~ ~ ~ ~ / ~ ~ w   G G G   6 S G 6   ~ ~ ~ ~ ~ ~ ~ ~ / ~ ~ ~ ~ ~ ~ ~ ~ ~ ",
"/ / ' ' ' ' ~ / / / / / / / ' ' ' ' ~ w   G G S   2 G G 6   ~ / / / / / / / ' ' / / ~ / / / / / ",
"{ } } } }  .~ ' ' } { } } } } } } } ~ w   P G G   2 G P 6   ~ ' ' } } } } } } } } } ~ / ' } ' } ",
"............~ '  ... ...............~ w   G G P   6 P S 2   ~ ' ....} ............../ ' ........",
"O.O.O.O.O.@./ ' ..O.O.O.O.O.O.@.@.@.~ w   2 6 6   & 6 2 &   ~ ' ..@.....@.@...@.@.@.~ ' @...@...",
"@.@.@.@.@.@.~ { @.@.@.@.@.@.@.@.@.@.~ w                     ~ { @.@.@.@.@.@.@.@.@.@.~ } @.@.@.@.",
"~ ~ ~ ~ ~ ~ ~ ~ ~ ~ ~ ~ ~ ~ ~ ~ ~ ~ ~ ~ ~ ~ ~ ~ ~ ~ ~ ~ ~ ~ ~ ~ ~ ~ ~ ~ ~ ~ ~ ~ ~ ~ ~ ~ ~ ~ / ~ ",
"~ / / / / / / ' ' ' ' ' ~ ~ / / / / / / / / ' ' ~ / / ' ' ' ' ' ' ' / / ~ / / / / / / / / / / / ",
"~ ' { { { } } } }  .} } ~ ' { } } } } } } } } } ~ / } { { } } } } } }  .~ ' { } { } } } } } } } ",
"~ ' }  . ... ...........~ '  . .................~ ' ..}  . . .........../ ' } ..}  . .......O...",
"/ ' o.o.o.O.O.O.@.O.O.@.~ { ..O.@.....@.@.@.o.@./ ' ..@.o.O.O.o.@.@.@.@.~ ' ..@.@...O.@.o.@.@.@.",
"~ } @.@.@.@.@.@.@.@.@.@.~ { @.@.@.@.@.@.@.@.@.@.~ } @.@.@.@.@.@.@.@.@.@.~ } @.@.@.@.@.@.@.@.@.@."
};
