/* XPM */
static char *p2[] = {
/* columns rows colors chars-per-pixel */
"48 48 126 2 ",
"   c black",
".  c #060606",
"X  c #080808",
"o  c #0A0A0A",
"O  c #0C0C0C",
"+  c #0D0D0D",
"@  c #0E0E0E",
"#  c #101010",
"$  c #131313",
"%  c #161616",
"&  c #171717",
"*  c #191919",
"=  c #1D1D1D",
"-  c #331A05",
";  c #2A1C17",
":  c #2C1F1A",
">  c #2F211C",
",  c #202020",
"<  c #232323",
"1  c #262626",
"2  c #272727",
"3  c #282828",
"4  c gray16",
"5  c #2A2A2A",
"6  c #2B2B2B",
"7  c #2C2C2C",
"8  c #2D2D2D",
"9  c #2E2E2E",
"0  c #2F2F2F",
"q  c gray19",
"w  c gray20",
"e  c gray21",
"r  c #393939",
"t  c #3A3A3A",
"y  c #3C3C3C",
"u  c #3D3D3D",
"i  c #67340B",
"p  c #67350B",
"a  c #67350C",
"s  c #68350C",
"d  c #69360D",
"f  c #6A370F",
"g  c #6A380F",
"h  c #6B3810",
"j  c #6C3A12",
"k  c #703D16",
"l  c #4F3622",
"z  c #503623",
"x  c #54382D",
"c  c #54382E",
"v  c #55382E",
"b  c #54392E",
"n  c #55392E",
"m  c #55392F",
"M  c #553A30",
"N  c #563A30",
"B  c #563B31",
"V  c #563B32",
"C  c #563C31",
"Z  c #573C32",
"A  c #573D33",
"S  c #5E4238",
"D  c gray25",
"F  c #454545",
"G  c #464646",
"H  c #4B4B4B",
"J  c #4D4D4D",
"K  c #4F4F4F",
"L  c #505050",
"P  c #515151",
"I  c #535353",
"U  c #545454",
"Y  c #555555",
"T  c #565656",
"R  c #585858",
"E  c #595959",
"W  c #5A5A5A",
"Q  c #5B5B5B",
"!  c #5C5C5C",
"~  c #5D5D5D",
"^  c #5E5E5E",
"/  c #7E5444",
"(  c #7F5546",
")  c #9A4E10",
"_  c #A15519",
"`  c #CD6815",
"'  c #CE6916",
"]  c #CE6917",
"[  c #D06B19",
"{  c #D16C1A",
"}  c #D36E1D",
"|  c #D46F1E",
" . c #D56F1F",
".. c #D67020",
"X. c #D77121",
"o. c #D87222",
"O. c #D87323",
"+. c #DC7627",
"@. c #DD7728",
"#. c #DD7729",
"$. c #DE782A",
"%. c #DF792A",
"&. c #DF792B",
"*. c #E07A2B",
"=. c #E07A2C",
"-. c #A76F5A",
";. c #A86F5A",
":. c #A8705B",
">. c #A9705C",
",. c #A9715C",
"<. c #A9715D",
"1. c #AA715D",
"2. c #A9725D",
"3. c #AA725D",
"4. c #AA725E",
"5. c #AA735E",
"6. c #AA735F",
"7. c #AA745F",
"8. c #AB745F",
"9. c #AB7360",
"0. c #AB7561",
"q. c #AC7662",
"w. c #AC7663",
"e. c #AD7763",
"r. c #AD7864",
"t. c #AE7A66",
/* pixels */
"H H K H H H H H H H H H H H K H H H H H H H H H H H H H H H H H H H H H H H H H H H H H H H H H ",
"K K L L K K H K K K K K K K L L K K H K K K K K K K K L L L H K K K K K K K K L L L H K K K K K ",
"Y Y Y Y Y Y H K Y Y Y Y Y Y Y Y Y Y H K Y Y Y Y Y Y Y Y Y Y H K U Y U Y U Y Y Y Y Y H K U Y U Y ",
"E E E E E E H L Y E E E Y E E E E E H L Y E Y E E E E E E E H L R E Y E E E E E E E H L E Y R E ",
"E ^ E ^ ^ ^ H L E E ^ E E ^ E ^ ^ ^ H L E ^ E ^ E ^ E ^ ^ ^ K L E ! ! ! E ^ E ^ ^ ^ H L ! E E ^ ",
"^ ^ ^ ^ ^ ^ K Y ^ ^ ^ ^ ^ ^ ^ ^ ^ ^ K L ^ ^ ^ ^ ^ ^ ^ ^ ^ ^ K Y ^ ^ ^ ^ ^ ^ ^ ^ ^ ^ H U ^ ^ ^ ^ ",
"K H H H H H H H H H H H K H H H K H H H H H H H K H H H H H H H H H H H K H H H K H H H K H H H ",
"H K K K K K K K K K K K H K K K K K 1 1 1 1 1 1 1 1 1 1 1 1 1 r K L L L H H K K K K K K K K K L ",
"H K L Y Y L Y Y Y Y E Y H L Y Y Y Y                           3 Y Y R R H L U Y U Y Y Y Y Y Y Y ",
"H K E E E E E E E E E E K L Y E 3   + + % * = = 1 7 w r u D G 1   E E E K L E E Y E E E E E E E ",
"H Y E ^ E ^ ^ E ^ ^ ^ ^ H L ^ 7 *   . o o + + $ % = < 3 7 7 w 3 * 7 G ^ H L ! E ^ E ! ! ^ ^ ! ^ ",
"H L ^ ^ ^ ^ ^ ^ ^ ^ ^ ^ H Y ^                   . + $ * = < 1 7 7   7 ^ H U ^ ^ ^ ^ ^ ^ ^ ^ ^ ^ ",
"H H K H H H H H H H H H H 1                                       $ o   H H H K H H H H H H H H ",
"K K L L K K H K K K K K K 3                             : n n n n S >   K K K L L L H K K K K K ",
"Y Y Y Y Y Y K K L Y Y Y Y 3                             n :.4.4.-.;.n   Y Y Y Y Y Y H K U Y Y Y ",
"E E E E E E H L E E Y E E 7                           4.4.0.;.;.4.;.v   E E E E E E K L R E Y E ",
"E ^ ^ E E ^ K L ^ E E ^ ^ 7                       : v 4.4.4.n / ;.4.v   ! ^ ! ^ ! ^ H L E ! ! Q ",
"^ ^ ^ ^ ^ ^ H Y ^ ^ ^ ^ ^ q                       n 4.4.;.;.  n ;.4.v   ^ ^ ^ ^ ^ ^ H Y ^ ^ ^ ^ ",
"H H H H K H H H H H H H H 1                       n ;.;.;.-.  n 4.;.n   H H H H H H H H H H H K ",
"H K K K K K K K K K L L H r 3                   n ( 4.4.4.4.n ( ;.;.v   H H K K K K L L K K K L ",
"H K Y Y Y Y Y Y Y Y Y Y H L I                   4.9.0.e.4.4.4.4.4.;.v   K L L Y Y Y Y Y Y Y Y Y ",
"H L E Y Y E E E E E E ! K L E R 7               ;.9.r.r.r.0.7.4.;.  6 E H L E E R R E E E E E E ",
"H Y E ^ E ^ ^ E ^ ^ ^ ^ H L ^ E G 7             v M C C C C n n n 0 G ^ H L E ! E ^ E ^ ^ ^ ! ^ ",
"H L ^ ^ ^ ^ ^ ^ ^ ^ ^ ^ H U ^ ^ ^ ^                               ^ ^ ^ H Y ^ ^ ^ ^ ^ ^ ^ ^ ^ ^ ",
"H H K H H H H H H H H H H H H H H H H H H   i ` ` ` ` ` a   H H H H H H H H H H H H H H H H H H ",
"K K L L K K H K K K K K K K K L K K H K K   i ` i ) ` s -   H K K K K K K K L L L L H H K K K K ",
"Y Y Y Y Y Y H K I Y Y Y Y Y Y Y Y Y H K U   i `   a `       H K Y Y Y Y U Y Y Y Y Y H K L Y Y U ",
"E E E E E E H L R E Y E E E E E E E K L R   s `   A r.      H L Y R R E E E E E E E K L R E E E ",
"E ^ E ^ ^ ^ H L E ! E ^ ! ! ^ E ^ ^ H L E   s [   C r.A :   1 D E Q ! Q Q ^ E ^ ^ ^ H I E Q ! Q ",
"^ ^ ^ ^ ^ ^ K Y ^ ^ ^ ^ ^ ^ ^ ^ ^ ^ K Y ^   s }   n 8.t.A     q ^ ^ ^ ^ ^ ^ ^ ^ ^ ^ H Y ^ ^ ^ ^ ",
"K H H H H H H H H H H H H H H H H H H H H   g } ..g   8.8.7.  1 H H H H H H H H H H H H H H H H ",
"H K K K K K K K K K K K H K K K K K K K K   g ...._ j M n M   3 K L K K H K K K K K L L K L L L ",
"H K L Y Y Y Y Y Y Y Y E H L Y Y Y Y Y Y Y   h ....O.O.        7 Y Y Y R H K I Y U Y Y Y Y Y Y Y ",
"H K E E E E R E E E E E H L Y E E Y E E E   k =.=.=.=.=.k   E E E E E E K L R R R R E R E E E E ",
"K L E ^ ^ E E ^ ^ ^ E ^ K L E ^ E ^ ^ E ^ 7 z k &.&.&.k z 7 E ^ ^ ^ ^ ^ H I E Q E ^ Q ^ ^ ^ ^ ^ ",
"H Y ^ ^ ^ ^ ^ ^ ^ ^ ^ ^ H Y ^ ^ ^ ^ ^ ^ ^ ^ q   +.#.#.  q ^ ^ ^ ^ ^ ^ ^ H Y ^ ^ ^ ^ ^ ^ ^ ^ ^ ^ ",
"H H H H H H H H H H H H H H H H K H H H H K 3   &.*.=.  1 H H H H H H H H H H H H H H H H H H H ",
"K K L L L L H K K K K K K K K K L L H K K K 3   *.*.=.  3 L H K K K K K K K L L K K H K K K K K ",
"I Y Y Y Y E H L L Y Y Y Y Y Y Y Y Y K L L Y 3   *.=.=.  6 R H L L Y U Y Y Y Y Y Y Y H K L Y I Y ",
"E E E E E E H L Y E E E E E E E E E H L Y E 7   =.=.=.  7 E H L E E R R R E E E E E K L E R R R ",
"E ! ^ E E ^ K L ! E E ^ ^ E ^ ^ ^ ^ H Y E ^ 7   =.=.=.  7 ^ K L E Q Q Q Q ! ! ! ^ ^ H L ! Q Q ^ ",
"^ ^ ^ ^ ^ ^ H Y ^ ^ ^ ^ ^ ^ ^ ^ ^ ^ H L ^ ^ q   =.=.=.  7 ^ H Y ^ ^ ^ ^ ^ ^ ^ ^ ^ ^ H Y ^ ^ ^ ^ ",
"K H H H K H H H K H H H H H H H H H H H H H 1           3 K H H K H H H H H H H H H H H H H H H ",
"H K K K K K K K K K K L H K K K K K K K K K u 3 1 3 3 3 r K K K K K K K H K K K K K K L K L K K ",
"H K L Y Y Y Y Y Y Y Y Y H K L Y Y Y Y Y Y Y Y Y K L Y Y Y Y Y Y Y Y Y Y H K I Y U Y Y Y Y Y Y Y ",
"H K E E E E E E E E E E H K E E E E R E E E E E H L E Y Y E E E E E E E K L R R R R E E E E E Q ",
"K L E ^ ^ E E ^ ^ ^ ^ ^ H Y E ^ ^ E E ^ ^ ^ ^ ^ K L E ^ ! ! E ^ ^ ^ ^ ^ H L E E E ^ E ^ ^ ^ ^ ^ ",
"H I ^ ^ ^ ^ ^ ^ ^ ^ ^ ^ H L ^ ^ ^ ^ ^ ^ ^ ^ ^ ^ H I ^ ^ ^ ^ ^ ^ ^ ^ ^ ^ K Y ^ ^ ^ ^ ^ ^ ^ ^ ^ ^ "
};
