/* XPM */
static char *p4[] = {
/* columns rows colors chars-per-pixel */
"48 48 121 2 ",
"   c black",
".  c gray1",
"X  c #060606",
"o  c #0A0A0A",
"O  c #0B0B0B",
"+  c #0C0C0C",
"@  c #0D0D0D",
"#  c #101010",
"$  c #131313",
"%  c #151515",
"&  c #161616",
"*  c #171717",
"=  c #191919",
"-  c #2A1C17",
";  c #2B1D18",
":  c #202020",
">  c #222222",
",  c #232323",
"<  c #262626",
"1  c #272727",
"2  c #282828",
"3  c gray16",
"4  c #2A2A2A",
"5  c #2B2B2B",
"6  c #2C2C2C",
"7  c #2D2D2D",
"8  c #2E2E2E",
"9  c #2F2F2F",
"0  c gray19",
"q  c gray20",
"w  c gray21",
"e  c #393939",
"r  c #3A3A3A",
"t  c #67340B",
"y  c #67350B",
"u  c #67350C",
"i  c #68350C",
"p  c #69360D",
"a  c #6C3A12",
"s  c #6E3B14",
"d  c #6F3C15",
"f  c #703D15",
"g  c #703D16",
"h  c #41332E",
"j  c #54382D",
"k  c #54382E",
"l  c #55382E",
"z  c #55392E",
"x  c #55392F",
"c  c #563A30",
"v  c #563B30",
"b  c #563B31",
"n  c #563B32",
"m  c #573C32",
"M  c #573D33",
"N  c #593D33",
"B  c #613A21",
"V  c #5E4238",
"C  c gray25",
"Z  c #434343",
"A  c gray27",
"S  c #464646",
"D  c #4B4B4B",
"F  c #4D4D4D",
"G  c #4F4F4F",
"H  c #505050",
"J  c #515151",
"K  c #535353",
"L  c #545454",
"P  c #555555",
"I  c #565656",
"U  c #585858",
"Y  c #595959",
"T  c #5A5A5A",
"R  c #5B5B5B",
"E  c #5C5C5C",
"W  c #5D5D5D",
"Q  c #5E5E5E",
"!  c #7F5545",
"~  c #7F5546",
"^  c #9A4E10",
"/  c #A75B20",
"(  c #CD6815",
")  c #CE6916",
"_  c #CE6917",
"`  c #D06B19",
"'  c #D16C1A",
"]  c #D36E1D",
"[  c #D46F1E",
"{  c #D56F1F",
"}  c #D5701F",
"|  c #D67020",
" . c #D77121",
".. c #D87323",
"X. c #DC7627",
"o. c #DD7729",
"O. c #DE782A",
"+. c #DF792A",
"@. c #DF792B",
"#. c #E07A2B",
"$. c #E07A2C",
"%. c #825A4B",
"&. c #A76F5A",
"*. c #A86F5A",
"=. c #A8705B",
"-. c #A9705B",
";. c #A9705C",
":. c #A9715C",
">. c #A9715D",
",. c #A9725D",
"<. c #AA725E",
"1. c #AA735E",
"2. c #AA735F",
"3. c #AB745F",
"4. c #AB7561",
"5. c #AC7561",
"6. c #AC7662",
"7. c #AC7663",
"8. c #AD7763",
"9. c #AD7865",
"0. c #AE7A66",
/* pixels */
"D D G D D D D D D D D D D D G D D D D D D D D D D D D D D D D D D D D D D D G D D D D D D D D D ",
"G G H H G G D G G G G G G G H H G G D G G G G G G G G H H H D G G G G G G G H H G H D G G G G G ",
"P P P P P P D G P P P P P P P P P P D G P P P P P P P P P P D G P P P P H P P P P P D G P P P P ",
"Y Y Y Y Y Y D H Y P Y Y P Y Y Y Y Y D H P Y P Y Y Y Y Y Y Y D H Y P Y Y Y Y Y Y Y Y D H P Y P Y ",
"Y Q Y Q Q Q D H Y Y Q Y Q Q Y Q Q Q D H Y Q Y Q Y Q Y Q Q Q G H Y Y Q Y Y Q Y Q Q Q D H Q Y Y Q ",
"Q Q Q Q Q Q G P Q Q Q Q Q Q Q Q Q Q G H Q Q Q Q Q Q Q Q Q Q G P Q Q Q Q Q Q Q Q Q Q G H Q Q Q Q ",
"G D D D D D D D D D D D D D D D G D D D D D D D G D D D D D D D D D D D G D D D G D D D G D D D ",
"D G G G G G G G G G G G D G G G G G < < < < < < < < < < < < < e G G G G D G G G G G G G G G G G ",
"D G H P P P P P P P P P D G H P P P                           5 P Y P Y D G P P P H P P P P P P ",
"D G Y Y P Y Y Y Y Y Q Y G H Y Y 6   S C C e w q < , , = & $ + X   Y Y Y G H P Y Y Y Y Y Y Q Y Y ",
"D P Y Q Y Q Q Y Y Q Q Q D H Y 6 , & w 0 0 5 < , & & $ + + O X     6 S Q D H Y Q Q Y Y Q Q Q Y Q ",
"D H Q Q Q Q Q Q Q Q Q Q G P Q   & 6 < , , = & $ X                   6 Q D P Q Q Q Q Q Q Q Q Q Q ",
"D D G D D D D D D D D D D <   $ O                                       D D D G G D D D D D D D ",
"G G H H G G D G G G G G G <   V N l l l l                               G G G H G G D G G G G G ",
"P P P P P P G H H P P P P 5   ;.=.=.;.;.;.                              P P P P P P D G P P P P ",
"Y Y Y Y Y Y D H Y Y Y Y Y 6   ;.;.=.=.3.4.;.l                           Y Y Y Y Y Y D H Y P Y P ",
"E E E E E Q G H Y Q Y E Q 6   ;.;.;.k ~ 3.:.~ k                         Q Y Y Q Q Q D H Y Y Q Q ",
"Q Q Q Q Q Q D P Q Q Q Q Q 0   ;.;.;.  k =.;.:.;.                        Q Q Q Q Q Q G P Q Q Q Q ",
"D D D D D D D D D D D D D <   &.=.;.  l :.=.;.;.                        G D D D D D D D D D D G ",
"D G G G G G G G G H H H D <   &.=.;.l ~ ;.3.;.;.l -                 & 5 D D G G G G G G G G G H ",
"D G K P P P P P P P P U D <   *.=.;.;.3.;.6.4.4.;.l                 5 U D H L P H P P P P P P P ",
"D H P U P Y Y Y Y Y Y Y G H Y   l =.3.6.6.0.0.0.;.v               Y Y Y D H U Y Y Y Y Y Y Y Y Y ",
"G H E E Y Q Q Y Q Q Q Q D H E 6 h l v v v v M v l ;           * 6 Q Q Q D K E Y Y Q Q Y Q Q Q Q ",
"D P Q Q Q Q Q Q Q Q Q Q D P Q Q 6                             6 Q Q Q Q D P Q Q Q Q Q Q Q Q Q Q ",
"D D D D D D D D D D D D D D D D D D D <   ) ) ) ) ) )   < G D D D D D D D D D D D D D D D D D D ",
"G G G H H H D G G G G G G G H H H H D <   y ^ ) t ^ )   < H D D G G G G H G H H G G D G G G G G ",
"P P P P P P D G P P P P L P P P P P D <     p )   y )   5 P D G H P L P P P P P P P D H H P P P ",
"U Y Y Y Y Y D H Y P Y Y U Y Y Y Y Y D <     v 0.  y )   6 Y G H U U U U Y Y Y Y E Y D H U Y Y Y ",
"E Q Y Q Q Q G H Y Y Q Y Q Q Y Q Q Q < $   N %.6.  p `   6 Q D H Y E E E E E E Q Q Q D H Y Q E Y ",
"Q Q Q Q Q Q D P Q Q Q Q Q Q Q Q Q Q       0.8.4.  p '   0 Q G P Q Q Q Q Q Q Q Q Q Q D P Q Q Q Q ",
"D D D D D D D D D D D D D D D D D D   v 3.3.v   [ [ [   < D D D D D D D D D D D D D D D D D D D ",
"D G G G G G G H G G G G D G G G G G   ; l v B a | [ }   < G G G G G G G D G G G G G G H G G G G ",
"D G L P P P P P P P P P G G L P P P         a ....| |   5 P P P P P P P D G K L L P P P P P P P ",
"D H Y P Y Y U Y Y Y Y Y D H Y P P Y Y 6   $.$.$.$.$.$.  6 Y Y Y Y Y E Y G H U U U U Y Y Y Y E Y ",
"G H Y Q Q Y Y Q Q Q E Q G H Y Q Y Q Y S 6 g / O.O./ g 6 S Y E E E Q Q Q D K Y E Y Q E E E Q Q Q ",
"D L Q Q Q Q Q Q Q Q Q Q D L Q Q Q Q Q Q Q   g O.o.d   Q Q Q Q Q Q Q Q Q D P Q Q Q Q Q Q Q Q Q Q ",
"D D D D D D D D D D D D D D D D G D D D D   g $.#.g   G D D D D D D D D D D D D D D D D D D D D ",
"G G H H H H D G G G G G G G G G H H D G G   g $.O.g   H G G D G G G G G G G G H G G D G G G G G ",
"P P P P P U D H H P P L P P P P P P G H H   g $.#.g   P P U D H H P P L P P P P P P D H K P K L ",
"U Y Y Y Y Y D H U Y Y Y Y Y Y Y Y Y D H Y   g $.$.g   Y Y Y D H Y U U U Y Y Y Y Y Y D H U U U U ",
"Y E E Q Y Q G H Y E E E E E E Q Q Q D H Y   g $.$.g   Q E Q G H Y E E Y E Q Y Q Q Q D H Q Y Q E ",
"Q Q Q Q Q Q D P Q Q Q Q Q Q Q Q Q Q D P Q   g $.$.g   Q Q Q D P Q Q Q Q Q Q Q Q Q Q D P Q Q Q Q ",
"G D D D D D D D D D D D D D D D D D D D G             D D D D D D D D D D D D D D D D D D D D D ",
"D G G G G H G G G H H H D D G G G G G G G 5 5 5 < < 5 G G G G G G H G G D G G G G G H G G H G G ",
"D G H P P P P P P P P P D H P P P P P P P P P P G G H P P P P P P P U P D G L L L P P P P P P U ",
"D G Y Y Y Y Y Y Y Y Y Y D H Y P P Y Y Y Y Y Q Y D H Y Y P Y Y Y Y Y Y Y G H U U U Y Y Y Y Y Y Y ",
"G H Y Q Q Y Y Q Q Q Q E G H Y Q Y Q Q Y Q Q Q Y G H Y Q Y Q Q Y Q Q Q Q D H E Y Y Q E E E Q Q Q ",
"D L Q Q Q Q Q Q Q Q Q Q D L Q Q Q Q Q Q Q Q Q Q D P Q Q Q Q Q Q Q Q Q Q D P Q Q Q Q Q Q Q Q Q Q "
};
